ISO-10303-21;
HEADER;
/* Generated by software containing ST-Developer
 * from STEP Tools, Inc. (www.steptools.com) 
 */
/* OPTION: using custom renumber hook */

FILE_DESCRIPTION(
/* description */ ('STEP AP214'),
/* implementation_level */ '2;1');

FILE_NAME(
/* name */ '1002 5.000',
/* time_stamp */ '2026-05-14T15:09:04+02:00',
/* author */ ('License CC BY-ND 4.0'),
/* organization */ ('CADENAS'),
/* preprocessor_version */ 'ST-DEVELOPER v20',
/* originating_system */ 'PARTsolutions',
/* authorisation */ '  ');

FILE_SCHEMA (('AUTOMOTIVE_DESIGN {1 0 10303 214 3 1 1}'));
ENDSEC;

DATA;
#10=PROPERTY_DEFINITION_REPRESENTATION(#14,#12);
#11=PROPERTY_DEFINITION_REPRESENTATION(#15,#13);
#12=REPRESENTATION('',(#16),#448);
#13=REPRESENTATION('',(#17),#448);
#14=PROPERTY_DEFINITION('pmi validation property','',#459);
#15=PROPERTY_DEFINITION('pmi validation property','',#459);
#16=VALUE_REPRESENTATION_ITEM('number of annotations',COUNT_MEASURE(0.));
#17=VALUE_REPRESENTATION_ITEM('number of views',COUNT_MEASURE(0.));
#18=CONTEXT_DEPENDENT_SHAPE_REPRESENTATION(#24,#461);
#19=CONTEXT_DEPENDENT_SHAPE_REPRESENTATION(#25,#463);
#20=CONTEXT_DEPENDENT_SHAPE_REPRESENTATION(#26,#465);
#21=NEXT_ASSEMBLY_USAGE_OCCURRENCE('NAUO1','1002 5.000_PART1',
'1002 5.000_PART1',#466,#467,'');
#22=NEXT_ASSEMBLY_USAGE_OCCURRENCE('NAUO2','1002 5.000_PART2',
'1002 5.000_PART2',#466,#468,'');
#23=NEXT_ASSEMBLY_USAGE_OCCURRENCE('NAUO3','1002 5.000_PART3',
'1002 5.000_PART3',#466,#469,'');
#24=(
REPRESENTATION_RELATIONSHIP(' ',' ',#263,#262)
REPRESENTATION_RELATIONSHIP_WITH_TRANSFORMATION(#27)
SHAPE_REPRESENTATION_RELATIONSHIP()
);
#25=(
REPRESENTATION_RELATIONSHIP(' ',' ',#264,#262)
REPRESENTATION_RELATIONSHIP_WITH_TRANSFORMATION(#28)
SHAPE_REPRESENTATION_RELATIONSHIP()
);
#26=(
REPRESENTATION_RELATIONSHIP(' ',' ',#265,#262)
REPRESENTATION_RELATIONSHIP_WITH_TRANSFORMATION(#29)
SHAPE_REPRESENTATION_RELATIONSHIP()
);
#27=ITEM_DEFINED_TRANSFORMATION(' ',' ',#266,#282);
#28=ITEM_DEFINED_TRANSFORMATION(' ',' ',#266,#292);
#29=ITEM_DEFINED_TRANSFORMATION(' ',' ',#266,#306);
#30=SHAPE_REPRESENTATION_RELATIONSHIP('','',#263,#33);
#31=SHAPE_REPRESENTATION_RELATIONSHIP('','',#264,#34);
#32=SHAPE_REPRESENTATION_RELATIONSHIP('','',#265,#35);
#33=ADVANCED_BREP_SHAPE_REPRESENTATION('',(#255),#449);
#34=ADVANCED_BREP_SHAPE_REPRESENTATION('',(#256),#450);
#35=ADVANCED_BREP_SHAPE_REPRESENTATION('',(#257),#451);
#36=PLANE('',#276);
#37=PLANE('',#277);
#38=PLANE('',#279);
#39=PLANE('',#283);
#40=PLANE('',#285);
#41=PLANE('',#302);
#42=PLANE('',#303);
#43=CONICAL_SURFACE('',#270,0.3,0.7853981625);
#44=CONICAL_SURFACE('',#274,0.1,0.7853981625);
#45=CONICAL_SURFACE('',#289,0.3,0.7853981625);
#46=CONICAL_SURFACE('',#293,0.25,1.04719755);
#47=CONICAL_SURFACE('',#296,2.,0.4773453818);
#48=ORIENTED_EDGE('',*,*,#82,.F.);
#49=ORIENTED_EDGE('',*,*,#83,.F.);
#50=ORIENTED_EDGE('',*,*,#83,.T.);
#51=ORIENTED_EDGE('',*,*,#84,.F.);
#52=ORIENTED_EDGE('',*,*,#84,.T.);
#53=ORIENTED_EDGE('',*,*,#85,.F.);
#54=ORIENTED_EDGE('',*,*,#85,.T.);
#55=ORIENTED_EDGE('',*,*,#86,.F.);
#56=ORIENTED_EDGE('',*,*,#86,.T.);
#57=ORIENTED_EDGE('',*,*,#82,.T.);
#58=ORIENTED_EDGE('',*,*,#87,.T.);
#59=ORIENTED_EDGE('',*,*,#88,.T.);
#60=ORIENTED_EDGE('',*,*,#87,.F.);
#61=ORIENTED_EDGE('',*,*,#88,.F.);
#62=ORIENTED_EDGE('',*,*,#89,.T.);
#63=ORIENTED_EDGE('',*,*,#90,.F.);
#64=ORIENTED_EDGE('',*,*,#90,.T.);
#65=ORIENTED_EDGE('',*,*,#91,.F.);
#66=ORIENTED_EDGE('',*,*,#91,.T.);
#67=ORIENTED_EDGE('',*,*,#92,.T.);
#68=ORIENTED_EDGE('',*,*,#92,.F.);
#69=ORIENTED_EDGE('',*,*,#89,.F.);
#70=ORIENTED_EDGE('',*,*,#93,.F.);
#71=ORIENTED_EDGE('',*,*,#94,.T.);
#72=ORIENTED_EDGE('',*,*,#95,.T.);
#73=ORIENTED_EDGE('',*,*,#96,.F.);
#74=ORIENTED_EDGE('',*,*,#97,.T.);
#75=ORIENTED_EDGE('',*,*,#93,.T.);
#76=ORIENTED_EDGE('',*,*,#94,.F.);
#77=ORIENTED_EDGE('',*,*,#96,.T.);
#78=ORIENTED_EDGE('',*,*,#97,.F.);
#79=ORIENTED_EDGE('',*,*,#98,.F.);
#80=ORIENTED_EDGE('',*,*,#98,.T.);
#81=ORIENTED_EDGE('',*,*,#95,.F.);
#82=EDGE_CURVE('',#99,#99,#116,.T.);
#83=EDGE_CURVE('',#100,#100,#117,.T.);
#84=EDGE_CURVE('',#101,#101,#118,.T.);
#85=EDGE_CURVE('',#102,#102,#119,.T.);
#86=EDGE_CURVE('',#103,#103,#120,.T.);
#87=EDGE_CURVE('',#104,#104,#121,.T.);
#88=EDGE_CURVE('',#105,#105,#122,.T.);
#89=EDGE_CURVE('',#106,#106,#123,.T.);
#90=EDGE_CURVE('',#107,#107,#124,.T.);
#91=EDGE_CURVE('',#108,#108,#125,.T.);
#92=EDGE_CURVE('',#109,#109,#126,.T.);
#93=EDGE_CURVE('',#110,#110,#127,.T.);
#94=EDGE_CURVE('',#111,#111,#128,.T.);
#95=EDGE_CURVE('',#112,#112,#129,.T.);
#96=EDGE_CURVE('',#113,#113,#130,.T.);
#97=EDGE_CURVE('',#114,#114,#131,.T.);
#98=EDGE_CURVE('',#115,#115,#132,.T.);
#99=VERTEX_POINT('',#392);
#100=VERTEX_POINT('',#394);
#101=VERTEX_POINT('',#397);
#102=VERTEX_POINT('',#400);
#103=VERTEX_POINT('',#403);
#104=VERTEX_POINT('',#407);
#105=VERTEX_POINT('',#410);
#106=VERTEX_POINT('',#415);
#107=VERTEX_POINT('',#418);
#108=VERTEX_POINT('',#421);
#109=VERTEX_POINT('',#424);
#110=VERTEX_POINT('',#429);
#111=VERTEX_POINT('',#431);
#112=VERTEX_POINT('',#434);
#113=VERTEX_POINT('',#436);
#114=VERTEX_POINT('',#439);
#115=VERTEX_POINT('',#444);
#116=CIRCLE('',#268,0.3);
#117=CIRCLE('',#269,0.3);
#118=CIRCLE('',#271,0.1);
#119=CIRCLE('',#273,0.1);
#120=CIRCLE('',#275,0.05);
#121=CIRCLE('',#278,0.275);
#122=CIRCLE('',#280,0.275);
#123=CIRCLE('',#284,0.25);
#124=CIRCLE('',#286,0.275);
#125=CIRCLE('',#288,0.275);
#126=CIRCLE('',#290,0.25);
#127=CIRCLE('',#294,0.25);
#128=CIRCLE('',#295,0.35);
#129=CIRCLE('',#297,2.);
#130=CIRCLE('',#298,0.35);
#131=CIRCLE('',#300,0.25);
#132=CIRCLE('',#304,2.);
#133=EDGE_LOOP('',(#48));
#134=EDGE_LOOP('',(#49));
#135=EDGE_LOOP('',(#50));
#136=EDGE_LOOP('',(#51));
#137=EDGE_LOOP('',(#52));
#138=EDGE_LOOP('',(#53));
#139=EDGE_LOOP('',(#54));
#140=EDGE_LOOP('',(#55));
#141=EDGE_LOOP('',(#56));
#142=EDGE_LOOP('',(#57));
#143=EDGE_LOOP('',(#58));
#144=EDGE_LOOP('',(#59));
#145=EDGE_LOOP('',(#60));
#146=EDGE_LOOP('',(#61));
#147=EDGE_LOOP('',(#62));
#148=EDGE_LOOP('',(#63));
#149=EDGE_LOOP('',(#64));
#150=EDGE_LOOP('',(#65));
#151=EDGE_LOOP('',(#66));
#152=EDGE_LOOP('',(#67));
#153=EDGE_LOOP('',(#68));
#154=EDGE_LOOP('',(#69));
#155=EDGE_LOOP('',(#70));
#156=EDGE_LOOP('',(#71));
#157=EDGE_LOOP('',(#72));
#158=EDGE_LOOP('',(#73));
#159=EDGE_LOOP('',(#74));
#160=EDGE_LOOP('',(#75));
#161=EDGE_LOOP('',(#76));
#162=EDGE_LOOP('',(#77));
#163=EDGE_LOOP('',(#78));
#164=EDGE_LOOP('',(#79));
#165=EDGE_LOOP('',(#80));
#166=EDGE_LOOP('',(#81));
#167=FACE_BOUND('',#133,.T.);
#168=FACE_BOUND('',#134,.T.);
#169=FACE_BOUND('',#135,.T.);
#170=FACE_BOUND('',#136,.T.);
#171=FACE_BOUND('',#137,.T.);
#172=FACE_BOUND('',#138,.T.);
#173=FACE_BOUND('',#139,.T.);
#174=FACE_BOUND('',#140,.T.);
#175=FACE_BOUND('',#141,.T.);
#176=FACE_BOUND('',#142,.T.);
#177=FACE_BOUND('',#143,.T.);
#178=FACE_BOUND('',#144,.T.);
#179=FACE_BOUND('',#145,.T.);
#180=FACE_BOUND('',#146,.T.);
#181=FACE_BOUND('',#147,.T.);
#182=FACE_BOUND('',#148,.T.);
#183=FACE_BOUND('',#149,.T.);
#184=FACE_BOUND('',#150,.T.);
#185=FACE_BOUND('',#151,.T.);
#186=FACE_BOUND('',#152,.T.);
#187=FACE_BOUND('',#153,.T.);
#188=FACE_BOUND('',#154,.T.);
#189=FACE_BOUND('',#155,.T.);
#190=FACE_BOUND('',#156,.T.);
#191=FACE_BOUND('',#157,.T.);
#192=FACE_BOUND('',#158,.T.);
#193=FACE_BOUND('',#159,.T.);
#194=FACE_BOUND('',#160,.T.);
#195=FACE_BOUND('',#161,.T.);
#196=FACE_BOUND('',#162,.T.);
#197=FACE_BOUND('',#163,.T.);
#198=FACE_BOUND('',#164,.T.);
#199=FACE_BOUND('',#165,.T.);
#200=FACE_BOUND('',#166,.T.);
#201=CYLINDRICAL_SURFACE('',#267,0.3);
#202=CYLINDRICAL_SURFACE('',#272,0.1);
#203=CYLINDRICAL_SURFACE('',#281,0.275);
#204=CYLINDRICAL_SURFACE('',#287,0.275);
#205=CYLINDRICAL_SURFACE('',#291,0.25);
#206=CYLINDRICAL_SURFACE('',#299,0.25);
#207=CYLINDRICAL_SURFACE('',#301,0.35);
#208=CYLINDRICAL_SURFACE('',#305,2.);
#209=ADVANCED_FACE('',(#167,#168),#201,.T.);
#210=ADVANCED_FACE('',(#169,#170),#43,.T.);
#211=ADVANCED_FACE('',(#171,#172),#202,.T.);
#212=ADVANCED_FACE('',(#173,#174),#44,.T.);
#213=ADVANCED_FACE('',(#175),#36,.F.);
#214=ADVANCED_FACE('',(#176,#177),#37,.T.);
#215=ADVANCED_FACE('',(#178),#38,.F.);
#216=ADVANCED_FACE('',(#179,#180),#203,.T.);
#217=ADVANCED_FACE('',(#181),#39,.F.);
#218=ADVANCED_FACE('',(#182),#40,.T.);
#219=ADVANCED_FACE('',(#183,#184),#204,.T.);
#220=ADVANCED_FACE('',(#185,#186),#45,.T.);
#221=ADVANCED_FACE('',(#187,#188),#205,.T.);
#222=ADVANCED_FACE('',(#189,#190),#46,.T.);
#223=ADVANCED_FACE('',(#191,#192),#47,.T.);
#224=ADVANCED_FACE('',(#193,#194),#206,.T.);
#225=ADVANCED_FACE('',(#195,#196),#207,.T.);
#226=ADVANCED_FACE('',(#197),#41,.T.);
#227=ADVANCED_FACE('',(#198),#42,.T.);
#228=ADVANCED_FACE('',(#199,#200),#208,.T.);
#229=CLOSED_SHELL('',(#209,#210,#211,#212,#213,#214,#215,#216));
#230=CLOSED_SHELL('',(#217,#218,#219,#220,#221));
#231=CLOSED_SHELL('',(#222,#223,#224,#225,#226,#227,#228));
#232=STYLED_ITEM('',(#235),#255);
#233=STYLED_ITEM('',(#236),#256);
#234=STYLED_ITEM('',(#237),#257);
#235=PRESENTATION_STYLE_ASSIGNMENT((#238));
#236=PRESENTATION_STYLE_ASSIGNMENT((#239));
#237=PRESENTATION_STYLE_ASSIGNMENT((#240));
#238=SURFACE_STYLE_USAGE(.BOTH.,#241);
#239=SURFACE_STYLE_USAGE(.BOTH.,#242);
#240=SURFACE_STYLE_USAGE(.BOTH.,#243);
#241=SURFACE_SIDE_STYLE('',(#244));
#242=SURFACE_SIDE_STYLE('',(#245));
#243=SURFACE_SIDE_STYLE('',(#246));
#244=SURFACE_STYLE_FILL_AREA(#247);
#245=SURFACE_STYLE_FILL_AREA(#248);
#246=SURFACE_STYLE_FILL_AREA(#249);
#247=FILL_AREA_STYLE('',(#250));
#248=FILL_AREA_STYLE('',(#251));
#249=FILL_AREA_STYLE('',(#252));
#250=FILL_AREA_STYLE_COLOUR('',#253);
#251=FILL_AREA_STYLE_COLOUR('',#254);
#252=FILL_AREA_STYLE_COLOUR('',#253);
#253=COLOUR_RGB('',0.4999923706,0.4999923706,0.4999923706);
#254=COLOUR_RGB('',0.8000000119,0.8000000119,0.8000000119);
#255=MANIFOLD_SOLID_BREP('1',#229);
#256=MANIFOLD_SOLID_BREP('1',#230);
#257=MANIFOLD_SOLID_BREP('1',#231);
#258=SHAPE_DEFINITION_REPRESENTATION(#459,#262);
#259=SHAPE_DEFINITION_REPRESENTATION(#460,#263);
#260=SHAPE_DEFINITION_REPRESENTATION(#462,#264);
#261=SHAPE_DEFINITION_REPRESENTATION(#464,#265);
#262=SHAPE_REPRESENTATION('1002 5.000',(#266,#282,#292,#306),#448);
#263=SHAPE_REPRESENTATION('1002 5.000_PART1',(#266),#449);
#264=SHAPE_REPRESENTATION('1002 5.000_PART2',(#266),#450);
#265=SHAPE_REPRESENTATION('1002 5.000_PART3',(#266),#451);
#266=AXIS2_PLACEMENT_3D('',#389,#307,#308);
#267=AXIS2_PLACEMENT_3D('',#390,#309,#310);
#268=AXIS2_PLACEMENT_3D('',#391,#311,#312);
#269=AXIS2_PLACEMENT_3D('',#393,#313,#314);
#270=AXIS2_PLACEMENT_3D('',#395,#315,#316);
#271=AXIS2_PLACEMENT_3D('',#396,#317,#318);
#272=AXIS2_PLACEMENT_3D('',#398,#319,#320);
#273=AXIS2_PLACEMENT_3D('',#399,#321,#322);
#274=AXIS2_PLACEMENT_3D('',#401,#323,#324);
#275=AXIS2_PLACEMENT_3D('',#402,#325,#326);
#276=AXIS2_PLACEMENT_3D('',#404,#327,#328);
#277=AXIS2_PLACEMENT_3D('',#405,#329,#330);
#278=AXIS2_PLACEMENT_3D('',#406,#331,#332);
#279=AXIS2_PLACEMENT_3D('',#408,#333,#334);
#280=AXIS2_PLACEMENT_3D('',#409,#335,#336);
#281=AXIS2_PLACEMENT_3D('',#411,#337,#338);
#282=AXIS2_PLACEMENT_3D('',#412,#339,#340);
#283=AXIS2_PLACEMENT_3D('',#413,#341,#342);
#284=AXIS2_PLACEMENT_3D('',#414,#343,#344);
#285=AXIS2_PLACEMENT_3D('',#416,#345,#346);
#286=AXIS2_PLACEMENT_3D('',#417,#347,#348);
#287=AXIS2_PLACEMENT_3D('',#419,#349,#350);
#288=AXIS2_PLACEMENT_3D('',#420,#351,#352);
#289=AXIS2_PLACEMENT_3D('',#422,#353,#354);
#290=AXIS2_PLACEMENT_3D('',#423,#355,#356);
#291=AXIS2_PLACEMENT_3D('',#425,#357,#358);
#292=AXIS2_PLACEMENT_3D('',#426,#359,#360);
#293=AXIS2_PLACEMENT_3D('',#427,#361,#362);
#294=AXIS2_PLACEMENT_3D('',#428,#363,#364);
#295=AXIS2_PLACEMENT_3D('',#430,#365,#366);
#296=AXIS2_PLACEMENT_3D('',#432,#367,#368);
#297=AXIS2_PLACEMENT_3D('',#433,#369,#370);
#298=AXIS2_PLACEMENT_3D('',#435,#371,#372);
#299=AXIS2_PLACEMENT_3D('',#437,#373,#374);
#300=AXIS2_PLACEMENT_3D('',#438,#375,#376);
#301=AXIS2_PLACEMENT_3D('',#440,#377,#378);
#302=AXIS2_PLACEMENT_3D('',#441,#379,#380);
#303=AXIS2_PLACEMENT_3D('',#442,#381,#382);
#304=AXIS2_PLACEMENT_3D('',#443,#383,#384);
#305=AXIS2_PLACEMENT_3D('',#445,#385,#386);
#306=AXIS2_PLACEMENT_3D('',#446,#387,#388);
#307=DIRECTION('',(0.,0.,1.));
#308=DIRECTION('',(1.,0.,0.));
#309=DIRECTION('',(0.,0.,-1.));
#310=DIRECTION('',(1.,0.,0.));
#311=DIRECTION('',(0.,0.,-1.));
#312=DIRECTION('',(-1.,0.,0.));
#313=DIRECTION('',(0.,0.,1.));
#314=DIRECTION('',(1.,0.,0.));
#315=DIRECTION('',(-1.56078289351108E-17,0.,-1.));
#316=DIRECTION('',(-1.,0.,1.56078289351108E-17));
#317=DIRECTION('',(0.,0.,1.));
#318=DIRECTION('',(1.,0.,0.));
#319=DIRECTION('',(0.,0.,-1.));
#320=DIRECTION('',(1.,0.,0.));
#321=DIRECTION('',(0.,0.,1.));
#322=DIRECTION('',(1.,0.,0.));
#323=DIRECTION('',(0.,0.,-1.));
#324=DIRECTION('',(-1.,0.,0.));
#325=DIRECTION('',(0.,0.,1.));
#326=DIRECTION('',(1.,0.,0.));
#327=DIRECTION('',(0.,0.,-1.));
#328=DIRECTION('',(0.,-1.,0.));
#329=DIRECTION('',(0.,0.,-1.));
#330=DIRECTION('',(0.,-1.,0.));
#331=DIRECTION('',(0.,0.,1.));
#332=DIRECTION('',(1.,0.,0.));
#333=DIRECTION('',(0.,0.,1.));
#334=DIRECTION('',(1.,0.,0.));
#335=DIRECTION('',(0.,0.,-1.));
#336=DIRECTION('',(1.,0.,0.));
#337=DIRECTION('',(0.,0.,-1.));
#338=DIRECTION('',(1.,0.,0.));
#339=DIRECTION('',(0.,0.,1.));
#340=DIRECTION('',(1.,0.,0.));
#341=DIRECTION('',(0.,0.,1.));
#342=DIRECTION('',(1.,0.,0.));
#343=DIRECTION('',(0.,0.,-1.));
#344=DIRECTION('',(1.,0.,0.));
#345=DIRECTION('',(0.,0.,1.));
#346=DIRECTION('',(1.,0.,0.));
#347=DIRECTION('',(0.,0.,-1.));
#348=DIRECTION('',(1.,0.,0.));
#349=DIRECTION('',(0.,0.,-1.));
#350=DIRECTION('',(1.,0.,0.));
#351=DIRECTION('',(0.,0.,-1.));
#352=DIRECTION('',(1.,0.,0.));
#353=DIRECTION('',(4.16208771602945E-17,0.,1.));
#354=DIRECTION('',(1.,0.,-4.16208771602945E-17));
#355=DIRECTION('',(0.,0.,1.));
#356=DIRECTION('',(1.,0.,0.));
#357=DIRECTION('',(0.,0.,-1.));
#358=DIRECTION('',(1.,0.,0.));
#359=DIRECTION('',(0.,0.,1.));
#360=DIRECTION('',(1.,0.,0.));
#361=DIRECTION('',(-3.20447528447188E-17,0.,-1.));
#362=DIRECTION('',(-1.,0.,3.20447528447188E-17));
#363=DIRECTION('',(0.,0.,1.));
#364=DIRECTION('',(1.,0.,0.));
#365=DIRECTION('',(0.,0.,1.));
#366=DIRECTION('',(1.,0.,0.));
#367=DIRECTION('',(5.34540903741027E-17,0.,-1.));
#368=DIRECTION('',(-1.,0.,-5.34540903741027E-17));
#369=DIRECTION('',(0.,0.,1.));
#370=DIRECTION('',(1.,0.,0.));
#371=DIRECTION('',(0.,0.,1.));
#372=DIRECTION('',(1.,0.,0.));
#373=DIRECTION('',(0.,0.,-1.));
#374=DIRECTION('',(1.,0.,0.));
#375=DIRECTION('',(0.,0.,-1.));
#376=DIRECTION('',(1.,0.,0.));
#377=DIRECTION('',(0.,0.,-1.));
#378=DIRECTION('',(1.,0.,0.));
#379=DIRECTION('',(0.,0.,1.));
#380=DIRECTION('',(1.,0.,0.));
#381=DIRECTION('',(0.,0.,-1.));
#382=DIRECTION('',(0.,-1.,0.));
#383=DIRECTION('',(0.,0.,1.));
#384=DIRECTION('',(1.,0.,0.));
#385=DIRECTION('',(0.,0.,-1.));
#386=DIRECTION('',(1.,0.,0.));
#387=DIRECTION('',(0.,0.,1.));
#388=DIRECTION('',(1.,0.,0.));
#389=CARTESIAN_POINT('',(0.,0.,0.));
#390=CARTESIAN_POINT('',(0.,0.,-2.7896521898052E-15));
#391=CARTESIAN_POINT('',(0.,0.,-40.00000000001));
#392=CARTESIAN_POINT('',(-0.3,0.,-40.00000000001));
#393=CARTESIAN_POINT('',(0.,0.,-10.20000000001));
#394=CARTESIAN_POINT('',(0.3,0.,-10.20000000001));
#395=CARTESIAN_POINT('',(0.,0.,-10.2));
#396=CARTESIAN_POINT('',(0.,0.,-10.00000000001));
#397=CARTESIAN_POINT('',(0.1,0.,-10.00000000001));
#398=CARTESIAN_POINT('',(0.,0.,-2.7896521898052E-15));
#399=CARTESIAN_POINT('',(0.,0.,-0.0500000000100018));
#400=CARTESIAN_POINT('',(0.1,0.,-0.0500000000100018));
#401=CARTESIAN_POINT('',(0.,0.,-0.0500000000000018));
#402=CARTESIAN_POINT('',(0.,0.,-1.0002795723722E-11));
#403=CARTESIAN_POINT('',(0.05,0.,-1.0002795723722E-11));
#404=CARTESIAN_POINT('',(0.,0.0500000000000007,-2.79268795588816E-15));
#405=CARTESIAN_POINT('',(0.,2.275,-40.));
#406=CARTESIAN_POINT('',(0.,0.,-40.00000000001));
#407=CARTESIAN_POINT('',(0.275,0.,-40.00000000001));
#408=CARTESIAN_POINT('',(0.,0.,-56.));
#409=CARTESIAN_POINT('',(0.,0.,-56.00000000001));
#410=CARTESIAN_POINT('',(0.275,0.,-56.00000000001));
#411=CARTESIAN_POINT('',(0.,0.,-100.));
#412=CARTESIAN_POINT('',(0.,0.,0.));
#413=CARTESIAN_POINT('',(0.,0.,-69.99));
#414=CARTESIAN_POINT('',(0.,0.,-69.99000000001));
#415=CARTESIAN_POINT('',(0.25,0.,-69.99000000001));
#416=CARTESIAN_POINT('',(0.,0.,-56.));
#417=CARTESIAN_POINT('',(0.,0.,-56.00000000001));
#418=CARTESIAN_POINT('',(0.275,0.,-56.00000000001));
#419=CARTESIAN_POINT('',(0.,0.,-100.));
#420=CARTESIAN_POINT('',(0.,0.,-69.917264973091));
#421=CARTESIAN_POINT('',(0.275,0.,-69.917264973091));
#422=CARTESIAN_POINT('',(0.,0.,-69.8922649730811));
#423=CARTESIAN_POINT('',(0.,0.,-69.9422649730911));
#424=CARTESIAN_POINT('',(0.25,0.,-69.9422649730911));
#425=CARTESIAN_POINT('',(0.,0.,-2.7896521898052E-15));
#426=CARTESIAN_POINT('',(0.,0.,0.));
#427=CARTESIAN_POINT('',(0.,0.,-79.9422649730811));
#428=CARTESIAN_POINT('',(0.,0.,-79.9422649730911));
#429=CARTESIAN_POINT('',(0.25,0.,-79.9422649730911));
#430=CARTESIAN_POINT('',(0.,0.,-80.00000000001));
#431=CARTESIAN_POINT('',(0.35,0.,-80.00000000001));
#432=CARTESIAN_POINT('',(0.,0.,-99.99));
#433=CARTESIAN_POINT('',(0.,0.,-99.99000000001));
#434=CARTESIAN_POINT('',(2.,0.,-99.99000000001));
#435=CARTESIAN_POINT('',(0.,0.,-96.80000000001));
#436=CARTESIAN_POINT('',(0.35,0.,-96.80000000001));
#437=CARTESIAN_POINT('',(0.,0.,-2.7896521898052E-15));
#438=CARTESIAN_POINT('',(0.,0.,-69.99000000001));
#439=CARTESIAN_POINT('',(0.25,0.,-69.99000000001));
#440=CARTESIAN_POINT('',(0.,0.,-2.7896521898052E-15));
#441=CARTESIAN_POINT('',(0.,0.,-69.99));
#442=CARTESIAN_POINT('',(0.,2.00000000000001,-100.));
#443=CARTESIAN_POINT('',(0.,0.,-100.00000000001));
#444=CARTESIAN_POINT('',(2.,0.,-100.00000000001));
#445=CARTESIAN_POINT('',(0.,0.,-2.7896521898052E-15));
#446=CARTESIAN_POINT('',(0.,0.,0.));
#447=MECHANICAL_DESIGN_GEOMETRIC_PRESENTATION_REPRESENTATION('',(#232,#233,
#234),#448);
#448=(
GEOMETRIC_REPRESENTATION_CONTEXT(3)
GLOBAL_UNCERTAINTY_ASSIGNED_CONTEXT((#452))
GLOBAL_UNIT_ASSIGNED_CONTEXT((#458,#457,#456))
REPRESENTATION_CONTEXT('1002 5.000','TOP_LEVEL_ASSEMBLY_PART')
);
#449=(
GEOMETRIC_REPRESENTATION_CONTEXT(3)
GLOBAL_UNCERTAINTY_ASSIGNED_CONTEXT((#453))
GLOBAL_UNIT_ASSIGNED_CONTEXT((#458,#457,#456))
REPRESENTATION_CONTEXT('1002 5.000_PART1','COMPONENT_PART')
);
#450=(
GEOMETRIC_REPRESENTATION_CONTEXT(3)
GLOBAL_UNCERTAINTY_ASSIGNED_CONTEXT((#454))
GLOBAL_UNIT_ASSIGNED_CONTEXT((#458,#457,#456))
REPRESENTATION_CONTEXT('1002 5.000_PART2','COMPONENT_PART')
);
#451=(
GEOMETRIC_REPRESENTATION_CONTEXT(3)
GLOBAL_UNCERTAINTY_ASSIGNED_CONTEXT((#455))
GLOBAL_UNIT_ASSIGNED_CONTEXT((#458,#457,#456))
REPRESENTATION_CONTEXT('1002 5.000_PART3','COMPONENT_PART')
);
#452=UNCERTAINTY_MEASURE_WITH_UNIT(LENGTH_MEASURE(1.E-5),#458,
'DISTANCE_ACCURACY_VALUE','Maximum Tolerance applied to model');
#453=UNCERTAINTY_MEASURE_WITH_UNIT(LENGTH_MEASURE(1.E-5),#458,
'DISTANCE_ACCURACY_VALUE','Maximum Tolerance applied to model');
#454=UNCERTAINTY_MEASURE_WITH_UNIT(LENGTH_MEASURE(1.E-5),#458,
'DISTANCE_ACCURACY_VALUE','Maximum Tolerance applied to model');
#455=UNCERTAINTY_MEASURE_WITH_UNIT(LENGTH_MEASURE(1.E-5),#458,
'DISTANCE_ACCURACY_VALUE','Maximum Tolerance applied to model');
#456=(
NAMED_UNIT(*)
SI_UNIT($,.STERADIAN.)
SOLID_ANGLE_UNIT()
);
#457=(
NAMED_UNIT(*)
PLANE_ANGLE_UNIT()
SI_UNIT($,.RADIAN.)
);
#458=(
LENGTH_UNIT()
NAMED_UNIT(*)
SI_UNIT(.MILLI.,.METRE.)
);
#459=PRODUCT_DEFINITION_SHAPE('','',#466);
#460=PRODUCT_DEFINITION_SHAPE('','',#467);
#461=PRODUCT_DEFINITION_SHAPE(' ','NAUO PRDDFN',#21);
#462=PRODUCT_DEFINITION_SHAPE('','',#468);
#463=PRODUCT_DEFINITION_SHAPE(' ','NAUO PRDDFN',#22);
#464=PRODUCT_DEFINITION_SHAPE('','',#469);
#465=PRODUCT_DEFINITION_SHAPE(' ','NAUO PRDDFN',#23);
#466=PRODUCT_DEFINITION('','',#474,#470);
#467=PRODUCT_DEFINITION('','',#475,#471);
#468=PRODUCT_DEFINITION('','',#476,#472);
#469=PRODUCT_DEFINITION('','',#477,#473);
#470=PRODUCT_DEFINITION_CONTEXT('',#495,'design');
#471=PRODUCT_DEFINITION_CONTEXT('',#495,'design');
#472=PRODUCT_DEFINITION_CONTEXT('',#495,'design');
#473=PRODUCT_DEFINITION_CONTEXT('',#495,'design');
#474=PRODUCT_DEFINITION_FORMATION_WITH_SPECIFIED_SOURCE('','',#482,
 .NOT_KNOWN.);
#475=PRODUCT_DEFINITION_FORMATION_WITH_SPECIFIED_SOURCE('','',#483,
 .NOT_KNOWN.);
#476=PRODUCT_DEFINITION_FORMATION_WITH_SPECIFIED_SOURCE('','',#484,
 .NOT_KNOWN.);
#477=PRODUCT_DEFINITION_FORMATION_WITH_SPECIFIED_SOURCE('','',#485,
 .NOT_KNOWN.);
#478=PRODUCT_RELATED_PRODUCT_CATEGORY('','',(#482));
#479=PRODUCT_RELATED_PRODUCT_CATEGORY('','',(#483));
#480=PRODUCT_RELATED_PRODUCT_CATEGORY('','',(#484));
#481=PRODUCT_RELATED_PRODUCT_CATEGORY('','',(#485));
#482=PRODUCT('1002 5.000','1002 5.000','1002 5.000',(#490));
#483=PRODUCT('1002 5.000_PART1','1002 5.000_PART1','1002 5.000_PART1',(#491));
#484=PRODUCT('1002 5.000_PART2','1002 5.000_PART2','1002 5.000_PART2',(#492));
#485=PRODUCT('1002 5.000_PART3','1002 5.000_PART3','1002 5.000_PART3',(#493));
#486=PRODUCT_CATEGORY('','');
#487=PRODUCT_CATEGORY('','');
#488=PRODUCT_CATEGORY('','');
#489=PRODUCT_CATEGORY('','');
#490=PRODUCT_CONTEXT('',#495,'mechanical');
#491=PRODUCT_CONTEXT('',#495,'mechanical');
#492=PRODUCT_CONTEXT('',#495,'mechanical');
#493=PRODUCT_CONTEXT('',#495,'mechanical');
#494=APPLICATION_PROTOCOL_DEFINITION('international standard',
'automotive_design',2010,#495);
#495=APPLICATION_CONTEXT(
'core data for automotive mechanical design processes');
ENDSEC;
END-ISO-10303-21;
