ISO-10303-21;
HEADER;
/* Generated by software containing ST-Developer
 * from STEP Tools, Inc. (www.steptools.com) 
 */
/* OPTION: using custom renumber hook */

FILE_DESCRIPTION(
/* description */ ('STEP AP214'),
/* implementation_level */ '2;1');

FILE_NAME(
/* name */ '1014 4.020',
/* time_stamp */ '2026-05-14T15:12:29+02:00',
/* author */ ('License CC BY-ND 4.0'),
/* organization */ ('CADENAS'),
/* preprocessor_version */ 'ST-DEVELOPER v20',
/* originating_system */ 'PARTsolutions',
/* authorisation */ '  ');

FILE_SCHEMA (('AUTOMOTIVE_DESIGN {1 0 10303 214 3 1 1}'));
ENDSEC;

DATA;
#10=PROPERTY_DEFINITION_REPRESENTATION(#14,#12);
#11=PROPERTY_DEFINITION_REPRESENTATION(#15,#13);
#12=REPRESENTATION('',(#16),#460);
#13=REPRESENTATION('',(#17),#460);
#14=PROPERTY_DEFINITION('pmi validation property','',#471);
#15=PROPERTY_DEFINITION('pmi validation property','',#471);
#16=VALUE_REPRESENTATION_ITEM('number of annotations',COUNT_MEASURE(0.));
#17=VALUE_REPRESENTATION_ITEM('number of views',COUNT_MEASURE(0.));
#18=TOROIDAL_SURFACE('',#295,1.501,0.00100000000000524);
#19=CONTEXT_DEPENDENT_SHAPE_REPRESENTATION(#25,#473);
#20=CONTEXT_DEPENDENT_SHAPE_REPRESENTATION(#26,#475);
#21=CONTEXT_DEPENDENT_SHAPE_REPRESENTATION(#27,#477);
#22=NEXT_ASSEMBLY_USAGE_OCCURRENCE('NAUO1','1014 4.020_PART1',
'1014 4.020_PART1',#478,#479,'');
#23=NEXT_ASSEMBLY_USAGE_OCCURRENCE('NAUO2','1014 4.020_PART2',
'1014 4.020_PART2',#478,#480,'');
#24=NEXT_ASSEMBLY_USAGE_OCCURRENCE('NAUO3','1014 4.020_PART3',
'1014 4.020_PART3',#478,#481,'');
#25=(
REPRESENTATION_RELATIONSHIP(' ',' ',#268,#267)
REPRESENTATION_RELATIONSHIP_WITH_TRANSFORMATION(#28)
SHAPE_REPRESENTATION_RELATIONSHIP()
);
#26=(
REPRESENTATION_RELATIONSHIP(' ',' ',#269,#267)
REPRESENTATION_RELATIONSHIP_WITH_TRANSFORMATION(#29)
SHAPE_REPRESENTATION_RELATIONSHIP()
);
#27=(
REPRESENTATION_RELATIONSHIP(' ',' ',#270,#267)
REPRESENTATION_RELATIONSHIP_WITH_TRANSFORMATION(#30)
SHAPE_REPRESENTATION_RELATIONSHIP()
);
#28=ITEM_DEFINED_TRANSFORMATION(' ',' ',#271,#281);
#29=ITEM_DEFINED_TRANSFORMATION(' ',' ',#271,#291);
#30=ITEM_DEFINED_TRANSFORMATION(' ',' ',#271,#313);
#31=SHAPE_REPRESENTATION_RELATIONSHIP('','',#268,#34);
#32=SHAPE_REPRESENTATION_RELATIONSHIP('','',#269,#35);
#33=SHAPE_REPRESENTATION_RELATIONSHIP('','',#270,#36);
#34=ADVANCED_BREP_SHAPE_REPRESENTATION('',(#260),#461);
#35=ADVANCED_BREP_SHAPE_REPRESENTATION('',(#261),#462);
#36=ADVANCED_BREP_SHAPE_REPRESENTATION('',(#262),#463);
#37=CYLINDRICAL_SURFACE('',#277,0.000999999999997225);
#38=CYLINDRICAL_SURFACE('',#286,2.025);
#39=CYLINDRICAL_SURFACE('',#297,1.5);
#40=CYLINDRICAL_SURFACE('',#301,2.49999999999999);
#41=CYLINDRICAL_SURFACE('',#305,2.44999999999999);
#42=PLANE('',#275);
#43=PLANE('',#280);
#44=PLANE('',#282);
#45=PLANE('',#290);
#46=PLANE('',#309);
#47=PLANE('',#312);
#48=ORIENTED_EDGE('',*,*,#84,.T.);
#49=ORIENTED_EDGE('',*,*,#85,.F.);
#50=ORIENTED_EDGE('',*,*,#86,.T.);
#51=ORIENTED_EDGE('',*,*,#87,.F.);
#52=ORIENTED_EDGE('',*,*,#86,.F.);
#53=ORIENTED_EDGE('',*,*,#87,.T.);
#54=ORIENTED_EDGE('',*,*,#84,.F.);
#55=ORIENTED_EDGE('',*,*,#85,.T.);
#56=ORIENTED_EDGE('',*,*,#88,.F.);
#57=ORIENTED_EDGE('',*,*,#89,.T.);
#58=ORIENTED_EDGE('',*,*,#88,.T.);
#59=ORIENTED_EDGE('',*,*,#90,.T.);
#60=ORIENTED_EDGE('',*,*,#89,.F.);
#61=ORIENTED_EDGE('',*,*,#91,.T.);
#62=ORIENTED_EDGE('',*,*,#90,.F.);
#63=ORIENTED_EDGE('',*,*,#91,.F.);
#64=ORIENTED_EDGE('',*,*,#92,.F.);
#65=ORIENTED_EDGE('',*,*,#93,.F.);
#66=ORIENTED_EDGE('',*,*,#93,.T.);
#67=ORIENTED_EDGE('',*,*,#94,.F.);
#68=ORIENTED_EDGE('',*,*,#94,.T.);
#69=ORIENTED_EDGE('',*,*,#95,.F.);
#70=ORIENTED_EDGE('',*,*,#95,.T.);
#71=ORIENTED_EDGE('',*,*,#96,.F.);
#72=ORIENTED_EDGE('',*,*,#97,.F.);
#73=ORIENTED_EDGE('',*,*,#96,.T.);
#74=ORIENTED_EDGE('',*,*,#98,.F.);
#75=ORIENTED_EDGE('',*,*,#97,.T.);
#76=ORIENTED_EDGE('',*,*,#99,.F.);
#77=ORIENTED_EDGE('',*,*,#98,.T.);
#78=ORIENTED_EDGE('',*,*,#100,.F.);
#79=ORIENTED_EDGE('',*,*,#99,.T.);
#80=ORIENTED_EDGE('',*,*,#101,.F.);
#81=ORIENTED_EDGE('',*,*,#101,.T.);
#82=ORIENTED_EDGE('',*,*,#100,.T.);
#83=ORIENTED_EDGE('',*,*,#92,.T.);
#84=EDGE_CURVE('',#102,#102,#118,.T.);
#85=EDGE_CURVE('',#103,#103,#119,.T.);
#86=EDGE_CURVE('',#104,#104,#120,.T.);
#87=EDGE_CURVE('',#104,#104,#121,.T.);
#88=EDGE_CURVE('',#105,#105,#122,.T.);
#89=EDGE_CURVE('',#106,#106,#123,.T.);
#90=EDGE_CURVE('',#107,#107,#124,.T.);
#91=EDGE_CURVE('',#108,#108,#125,.T.);
#92=EDGE_CURVE('',#109,#109,#126,.T.);
#93=EDGE_CURVE('',#110,#110,#127,.T.);
#94=EDGE_CURVE('',#110,#110,#128,.T.);
#95=EDGE_CURVE('',#111,#111,#129,.T.);
#96=EDGE_CURVE('',#112,#112,#130,.T.);
#97=EDGE_CURVE('',#113,#113,#131,.T.);
#98=EDGE_CURVE('',#114,#114,#132,.T.);
#99=EDGE_CURVE('',#115,#115,#133,.T.);
#100=EDGE_CURVE('',#116,#116,#134,.T.);
#101=EDGE_CURVE('',#117,#117,#135,.T.);
#102=VERTEX_POINT('',#403);
#103=VERTEX_POINT('',#405);
#104=VERTEX_POINT('',#408);
#105=VERTEX_POINT('',#416);
#106=VERTEX_POINT('',#419);
#107=VERTEX_POINT('',#422);
#108=VERTEX_POINT('',#425);
#109=VERTEX_POINT('',#430);
#110=VERTEX_POINT('',#432);
#111=VERTEX_POINT('',#437);
#112=VERTEX_POINT('',#440);
#113=VERTEX_POINT('',#443);
#114=VERTEX_POINT('',#446);
#115=VERTEX_POINT('',#449);
#116=VERTEX_POINT('',#452);
#117=VERTEX_POINT('',#455);
#118=CIRCLE('',#273,1.61999999999999);
#119=CIRCLE('',#274,1.62170111639353);
#120=CIRCLE('',#276,0.000999999999997225);
#121=CIRCLE('',#278,0.000999999999997225);
#122=CIRCLE('',#283,1.98180836600436);
#123=CIRCLE('',#285,2.025);
#124=CIRCLE('',#287,2.025);
#125=CIRCLE('',#289,1.62170111639353);
#126=CIRCLE('',#293,1.98180836600436);
#127=CIRCLE('',#294,1.50013397459621);
#128=CIRCLE('',#296,1.5);
#129=CIRCLE('',#298,1.5);
#130=CIRCLE('',#300,2.5);
#131=CIRCLE('',#302,2.49999999999998);
#132=CIRCLE('',#304,2.44999999999999);
#133=CIRCLE('',#306,2.44999999999999);
#134=CIRCLE('',#308,1.49999999999999);
#135=CIRCLE('',#310,9.99999999913292E-5);
#136=EDGE_LOOP('',(#48));
#137=EDGE_LOOP('',(#49));
#138=EDGE_LOOP('',(#50));
#139=EDGE_LOOP('',(#51,#52));
#140=EDGE_LOOP('',(#53));
#141=EDGE_LOOP('',(#54));
#142=EDGE_LOOP('',(#55));
#143=EDGE_LOOP('',(#56));
#144=EDGE_LOOP('',(#57));
#145=EDGE_LOOP('',(#58));
#146=EDGE_LOOP('',(#59));
#147=EDGE_LOOP('',(#60));
#148=EDGE_LOOP('',(#61));
#149=EDGE_LOOP('',(#62));
#150=EDGE_LOOP('',(#63));
#151=EDGE_LOOP('',(#64));
#152=EDGE_LOOP('',(#65));
#153=EDGE_LOOP('',(#66,#67));
#154=EDGE_LOOP('',(#68));
#155=EDGE_LOOP('',(#69));
#156=EDGE_LOOP('',(#70));
#157=EDGE_LOOP('',(#71));
#158=EDGE_LOOP('',(#72));
#159=EDGE_LOOP('',(#73));
#160=EDGE_LOOP('',(#74));
#161=EDGE_LOOP('',(#75));
#162=EDGE_LOOP('',(#76));
#163=EDGE_LOOP('',(#77));
#164=EDGE_LOOP('',(#78));
#165=EDGE_LOOP('',(#79));
#166=EDGE_LOOP('',(#80));
#167=EDGE_LOOP('',(#81));
#168=EDGE_LOOP('',(#82));
#169=EDGE_LOOP('',(#83));
#170=FACE_BOUND('',#136,.T.);
#171=FACE_BOUND('',#137,.T.);
#172=FACE_BOUND('',#138,.T.);
#173=FACE_BOUND('',#139,.T.);
#174=FACE_BOUND('',#140,.T.);
#175=FACE_BOUND('',#141,.T.);
#176=FACE_BOUND('',#142,.T.);
#177=FACE_BOUND('',#143,.T.);
#178=FACE_BOUND('',#144,.T.);
#179=FACE_BOUND('',#145,.T.);
#180=FACE_BOUND('',#146,.T.);
#181=FACE_BOUND('',#147,.T.);
#182=FACE_BOUND('',#148,.T.);
#183=FACE_BOUND('',#149,.T.);
#184=FACE_BOUND('',#150,.T.);
#185=FACE_BOUND('',#151,.T.);
#186=FACE_BOUND('',#152,.T.);
#187=FACE_BOUND('',#153,.T.);
#188=FACE_BOUND('',#154,.T.);
#189=FACE_BOUND('',#155,.T.);
#190=FACE_BOUND('',#156,.T.);
#191=FACE_BOUND('',#157,.T.);
#192=FACE_BOUND('',#158,.T.);
#193=FACE_BOUND('',#159,.T.);
#194=FACE_BOUND('',#160,.T.);
#195=FACE_BOUND('',#161,.T.);
#196=FACE_BOUND('',#162,.T.);
#197=FACE_BOUND('',#163,.T.);
#198=FACE_BOUND('',#164,.T.);
#199=FACE_BOUND('',#165,.T.);
#200=FACE_BOUND('',#166,.T.);
#201=FACE_BOUND('',#167,.T.);
#202=FACE_BOUND('',#168,.T.);
#203=FACE_BOUND('',#169,.T.);
#204=CONICAL_SURFACE('',#272,1.61999999999999,0.155114520617234);
#205=CONICAL_SURFACE('',#279,0.000199999999999978,0.785398163397448);
#206=CONICAL_SURFACE('',#284,1.50013397459621,0.523598775598304);
#207=CONICAL_SURFACE('',#288,1.61999999999999,0.155114520617234);
#208=CONICAL_SURFACE('',#292,1.50013397459621,0.523598775598304);
#209=CONICAL_SURFACE('',#299,2.5,0.139626340159547);
#210=CONICAL_SURFACE('',#303,2.49999999999998,0.785398163397431);
#211=CONICAL_SURFACE('',#307,2.44999999999999,0.785398163397448);
#212=CONICAL_SURFACE('',#311,1.49999999999999,1.36135681655558);
#213=ADVANCED_FACE('',(#170,#171),#204,.T.);
#214=ADVANCED_FACE('',(#172),#42,.F.);
#215=ADVANCED_FACE('',(#173),#37,.T.);
#216=ADVANCED_FACE('',(#174,#175),#205,.T.);
#217=ADVANCED_FACE('',(#176),#43,.T.);
#218=ADVANCED_FACE('',(#177),#44,.T.);
#219=ADVANCED_FACE('',(#178,#179),#206,.T.);
#220=ADVANCED_FACE('',(#180,#181),#38,.T.);
#221=ADVANCED_FACE('',(#182,#183),#207,.T.);
#222=ADVANCED_FACE('',(#184),#45,.F.);
#223=ADVANCED_FACE('',(#185,#186),#208,.T.);
#224=ADVANCED_FACE('',(#187),#18,.F.);
#225=ADVANCED_FACE('',(#188,#189),#39,.T.);
#226=ADVANCED_FACE('',(#190,#191),#209,.T.);
#227=ADVANCED_FACE('',(#192,#193),#40,.T.);
#228=ADVANCED_FACE('',(#194,#195),#210,.T.);
#229=ADVANCED_FACE('',(#196,#197),#41,.T.);
#230=ADVANCED_FACE('',(#198,#199),#211,.T.);
#231=ADVANCED_FACE('',(#200),#46,.T.);
#232=ADVANCED_FACE('',(#201,#202),#212,.T.);
#233=ADVANCED_FACE('',(#203),#47,.F.);
#234=CLOSED_SHELL('',(#213,#214,#215,#216,#217));
#235=CLOSED_SHELL('',(#218,#219,#220,#221,#222));
#236=CLOSED_SHELL('',(#223,#224,#225,#226,#227,#228,#229,#230,#231,#232,
#233));
#237=STYLED_ITEM('',(#240),#260);
#238=STYLED_ITEM('',(#241),#261);
#239=STYLED_ITEM('',(#242),#262);
#240=PRESENTATION_STYLE_ASSIGNMENT((#243));
#241=PRESENTATION_STYLE_ASSIGNMENT((#244));
#242=PRESENTATION_STYLE_ASSIGNMENT((#245));
#243=SURFACE_STYLE_USAGE(.BOTH.,#246);
#244=SURFACE_STYLE_USAGE(.BOTH.,#247);
#245=SURFACE_STYLE_USAGE(.BOTH.,#248);
#246=SURFACE_SIDE_STYLE('',(#249));
#247=SURFACE_SIDE_STYLE('',(#250));
#248=SURFACE_SIDE_STYLE('',(#251));
#249=SURFACE_STYLE_FILL_AREA(#252);
#250=SURFACE_STYLE_FILL_AREA(#253);
#251=SURFACE_STYLE_FILL_AREA(#254);
#252=FILL_AREA_STYLE('',(#255));
#253=FILL_AREA_STYLE('',(#256));
#254=FILL_AREA_STYLE('',(#257));
#255=FILL_AREA_STYLE_COLOUR('',#258);
#256=FILL_AREA_STYLE_COLOUR('',#259);
#257=FILL_AREA_STYLE_COLOUR('',#258);
#258=COLOUR_RGB('',0.499992370489052,0.499992370489052,0.499992370489052);
#259=COLOUR_RGB('',0.8,0.8,0.8);
#260=MANIFOLD_SOLID_BREP('solid',#234);
#261=MANIFOLD_SOLID_BREP('solid',#235);
#262=MANIFOLD_SOLID_BREP('solid',#236);
#263=SHAPE_DEFINITION_REPRESENTATION(#471,#267);
#264=SHAPE_DEFINITION_REPRESENTATION(#472,#268);
#265=SHAPE_DEFINITION_REPRESENTATION(#474,#269);
#266=SHAPE_DEFINITION_REPRESENTATION(#476,#270);
#267=SHAPE_REPRESENTATION('1014 4.020',(#271,#281,#291,#313),#460);
#268=SHAPE_REPRESENTATION('1014 4.020_PART1',(#271),#461);
#269=SHAPE_REPRESENTATION('1014 4.020_PART2',(#271),#462);
#270=SHAPE_REPRESENTATION('1014 4.020_PART3',(#271),#463);
#271=AXIS2_PLACEMENT_3D('',#400,#314,#315);
#272=AXIS2_PLACEMENT_3D('',#401,#316,#317);
#273=AXIS2_PLACEMENT_3D('',#402,#318,#319);
#274=AXIS2_PLACEMENT_3D('',#404,#320,#321);
#275=AXIS2_PLACEMENT_3D('',#406,#322,#323);
#276=AXIS2_PLACEMENT_3D('',#407,#324,#325);
#277=AXIS2_PLACEMENT_3D('',#409,#326,#327);
#278=AXIS2_PLACEMENT_3D('',#410,#328,#329);
#279=AXIS2_PLACEMENT_3D('',#411,#330,#331);
#280=AXIS2_PLACEMENT_3D('',#412,#332,#333);
#281=AXIS2_PLACEMENT_3D('',#413,#334,#335);
#282=AXIS2_PLACEMENT_3D('',#414,#336,#337);
#283=AXIS2_PLACEMENT_3D('',#415,#338,#339);
#284=AXIS2_PLACEMENT_3D('',#417,#340,#341);
#285=AXIS2_PLACEMENT_3D('',#418,#342,#343);
#286=AXIS2_PLACEMENT_3D('',#420,#344,#345);
#287=AXIS2_PLACEMENT_3D('',#421,#346,#347);
#288=AXIS2_PLACEMENT_3D('',#423,#348,#349);
#289=AXIS2_PLACEMENT_3D('',#424,#350,#351);
#290=AXIS2_PLACEMENT_3D('',#426,#352,#353);
#291=AXIS2_PLACEMENT_3D('',#427,#354,#355);
#292=AXIS2_PLACEMENT_3D('',#428,#356,#357);
#293=AXIS2_PLACEMENT_3D('',#429,#358,#359);
#294=AXIS2_PLACEMENT_3D('',#431,#360,#361);
#295=AXIS2_PLACEMENT_3D('',#433,#362,#363);
#296=AXIS2_PLACEMENT_3D('',#434,#364,#365);
#297=AXIS2_PLACEMENT_3D('',#435,#366,#367);
#298=AXIS2_PLACEMENT_3D('',#436,#368,#369);
#299=AXIS2_PLACEMENT_3D('',#438,#370,#371);
#300=AXIS2_PLACEMENT_3D('',#439,#372,#373);
#301=AXIS2_PLACEMENT_3D('',#441,#374,#375);
#302=AXIS2_PLACEMENT_3D('',#442,#376,#377);
#303=AXIS2_PLACEMENT_3D('',#444,#378,#379);
#304=AXIS2_PLACEMENT_3D('',#445,#380,#381);
#305=AXIS2_PLACEMENT_3D('',#447,#382,#383);
#306=AXIS2_PLACEMENT_3D('',#448,#384,#385);
#307=AXIS2_PLACEMENT_3D('',#450,#386,#387);
#308=AXIS2_PLACEMENT_3D('',#451,#388,#389);
#309=AXIS2_PLACEMENT_3D('',#453,#390,#391);
#310=AXIS2_PLACEMENT_3D('',#454,#392,#393);
#311=AXIS2_PLACEMENT_3D('',#456,#394,#395);
#312=AXIS2_PLACEMENT_3D('',#457,#396,#397);
#313=AXIS2_PLACEMENT_3D('',#458,#398,#399);
#314=DIRECTION('',(0.,0.,1.));
#315=DIRECTION('',(1.,0.,0.));
#316=DIRECTION('',(0.,0.,1.));
#317=DIRECTION('',(1.,0.,-2.19598236481402E-16));
#318=DIRECTION('',(0.,0.,1.));
#319=DIRECTION('',(1.,0.,0.));
#320=DIRECTION('',(0.,0.,1.));
#321=DIRECTION('',(1.,0.,0.));
#322=DIRECTION('',(0.,0.,1.));
#323=DIRECTION('',(1.,0.,0.));
#324=DIRECTION('',(0.,0.,-1.));
#325=DIRECTION('',(1.,0.,0.));
#326=DIRECTION('',(0.,0.,-1.));
#327=DIRECTION('',(-1.,0.,0.));
#328=DIRECTION('',(0.,0.,1.));
#329=DIRECTION('',(1.,0.,0.));
#330=DIRECTION('',(0.,0.,1.));
#331=DIRECTION('',(1.,0.,6.93889251612872E-18));
#332=DIRECTION('',(0.,0.,1.));
#333=DIRECTION('',(1.,0.,0.));
#334=DIRECTION('',(0.,0.,1.));
#335=DIRECTION('',(1.,0.,0.));
#336=DIRECTION('',(0.,0.,1.));
#337=DIRECTION('',(1.,0.,0.));
#338=DIRECTION('',(0.,0.,-1.));
#339=DIRECTION('',(1.,0.,0.));
#340=DIRECTION('',(0.,0.,-1.));
#341=DIRECTION('',(-1.,0.,-1.43848438891495E-16));
#342=DIRECTION('',(0.,0.,1.));
#343=DIRECTION('',(1.,0.,0.));
#344=DIRECTION('',(0.,0.,1.));
#345=DIRECTION('',(1.,0.,0.));
#346=DIRECTION('',(0.,0.,1.));
#347=DIRECTION('',(1.,0.,0.));
#348=DIRECTION('',(0.,0.,1.));
#349=DIRECTION('',(1.,0.,-2.19598236481402E-16));
#350=DIRECTION('',(0.,0.,1.));
#351=DIRECTION('',(1.,0.,0.));
#352=DIRECTION('',(0.,0.,1.));
#353=DIRECTION('',(1.,0.,0.));
#354=DIRECTION('',(0.,0.,1.));
#355=DIRECTION('',(1.,0.,0.));
#356=DIRECTION('',(0.,0.,-1.));
#357=DIRECTION('',(-1.,0.,-1.43848438891495E-16));
#358=DIRECTION('',(0.,0.,-1.));
#359=DIRECTION('',(1.,0.,0.));
#360=DIRECTION('',(0.,0.,1.));
#361=DIRECTION('',(1.,0.,0.));
#362=DIRECTION('',(0.,0.,1.));
#363=DIRECTION('',(1.,0.,0.));
#364=DIRECTION('',(0.,0.,1.));
#365=DIRECTION('',(1.,0.,0.));
#366=DIRECTION('',(0.,0.,1.));
#367=DIRECTION('',(1.,0.,0.));
#368=DIRECTION('',(0.,0.,1.));
#369=DIRECTION('',(1.,0.,0.));
#370=DIRECTION('',(0.,0.,1.));
#371=DIRECTION('',(1.,0.,1.45529643720498E-16));
#372=DIRECTION('',(0.,0.,1.));
#373=DIRECTION('',(1.,0.,0.));
#374=DIRECTION('',(0.,0.,1.));
#375=DIRECTION('',(1.,0.,0.));
#376=DIRECTION('',(0.,0.,1.));
#377=DIRECTION('',(1.,0.,0.));
#378=DIRECTION('',(0.,0.,-1.));
#379=DIRECTION('',(-1.,0.,-9.1711066560373E-17));
#380=DIRECTION('',(0.,0.,1.));
#381=DIRECTION('',(1.,0.,0.));
#382=DIRECTION('',(0.,0.,1.));
#383=DIRECTION('',(1.,0.,0.));
#384=DIRECTION('',(0.,0.,1.));
#385=DIRECTION('',(1.,0.,0.));
#386=DIRECTION('',(0.,0.,-1.));
#387=DIRECTION('',(-1.,0.,-7.03009039967657E-17));
#388=DIRECTION('',(0.,0.,1.));
#389=DIRECTION('',(1.,0.,0.));
#390=DIRECTION('',(0.,0.,1.));
#391=DIRECTION('',(1.,0.,0.));
#392=DIRECTION('',(0.,0.,-1.));
#393=DIRECTION('',(-1.,0.,0.));
#394=DIRECTION('',(0.,0.,-1.));
#395=DIRECTION('',(-1.,0.,-1.31086693693775E-17));
#396=DIRECTION('',(0.,0.,1.));
#397=DIRECTION('',(1.,0.,0.));
#398=DIRECTION('',(0.,0.,1.));
#399=DIRECTION('',(1.,0.,0.));
#400=CARTESIAN_POINT('',(0.,0.,0.));
#401=CARTESIAN_POINT('',(-3.73459970228909E-16,0.,-52.0008787443439));
#402=CARTESIAN_POINT('',(-3.73459970228909E-16,0.,-52.0008787443439));
#403=CARTESIAN_POINT('',(1.61999999999999,0.,-52.0008787443439));
#404=CARTESIAN_POINT('',(-3.73459970228909E-16,0.,-51.99));
#405=CARTESIAN_POINT('',(1.62170111639353,0.,-51.99));
#406=CARTESIAN_POINT('',(-3.73459970228909E-16,1.90999999999999,-53.6207787443438));
#407=CARTESIAN_POINT('',(-3.73459970228909E-16,0.,-53.6207787443438));
#408=CARTESIAN_POINT('',(0.000999999999996851,0.,-53.6203287443439));
#409=CARTESIAN_POINT('',(-3.73459970228909E-16,0.,-53.6207787443438));
#410=CARTESIAN_POINT('',(-3.73459970228909E-16,0.,-53.6198787443439));
#411=CARTESIAN_POINT('',(-3.73459970228909E-16,0.,-53.6206787443438));
#412=CARTESIAN_POINT('',(-3.73459970228909E-16,0.,-51.99));
#413=CARTESIAN_POINT('',(0.,0.,0.));
#414=CARTESIAN_POINT('',(-3.73459970228909E-16,0.,-40.1369346652053));
#415=CARTESIAN_POINT('',(-3.73459970228909E-16,0.,-40.1369346652053));
#416=CARTESIAN_POINT('',(1.98180836600436,0.,-40.1369346652053));
#417=CARTESIAN_POINT('',(-3.73459970228909E-16,0.,-39.3026501465815));
#418=CARTESIAN_POINT('',(-3.73459970228909E-16,0.,-40.2117447697476));
#419=CARTESIAN_POINT('',(2.025,0.,-40.2117447697476));
#420=CARTESIAN_POINT('',(-3.73459970228909E-16,0.,-53.6207787443438));
#421=CARTESIAN_POINT('',(-3.73459970228909E-16,0.,-49.4108787443439));
#422=CARTESIAN_POINT('',(2.025,0.,-49.4108787443439));
#423=CARTESIAN_POINT('',(-3.73459970228909E-16,0.,-52.0008787443439));
#424=CARTESIAN_POINT('',(-3.73459970228909E-16,0.,-51.99));
#425=CARTESIAN_POINT('',(1.62170111639353,0.,-51.99));
#426=CARTESIAN_POINT('',(-3.73459970228909E-16,0.,-51.99));
#427=CARTESIAN_POINT('',(0.,0.,0.));
#428=CARTESIAN_POINT('',(-3.73459970228909E-16,0.,-39.3026501465815));
#429=CARTESIAN_POINT('',(-3.73459970228909E-16,0.,-40.1369346652053));
#430=CARTESIAN_POINT('',(1.98180836600436,0.,-40.1369346652053));
#431=CARTESIAN_POINT('',(-3.73459970228909E-16,0.,-39.3026501465815));
#432=CARTESIAN_POINT('',(1.5000669872981,0.,-39.3024001465815));
#433=CARTESIAN_POINT('',(-3.73459970228909E-16,0.,-39.3021501465815));
#434=CARTESIAN_POINT('',(-3.73459970228909E-16,0.,-39.3021501465815));
#435=CARTESIAN_POINT('',(-3.73459970228909E-16,0.,-53.6207787443438));
#436=CARTESIAN_POINT('',(-3.73459970228909E-16,0.,-32.2111501465815));
#437=CARTESIAN_POINT('',(1.5,0.,-32.2111501465815));
#438=CARTESIAN_POINT('',(-3.73459970228909E-16,0.,-25.0957804241974));
#439=CARTESIAN_POINT('',(-3.73459970228909E-16,0.,-25.0957804241974));
#440=CARTESIAN_POINT('',(2.5,0.,-25.0957804241974));
#441=CARTESIAN_POINT('',(-3.73459970228909E-16,0.,-53.6207787443438));
#442=CARTESIAN_POINT('',(-3.73459970228909E-16,0.,-9.1688));
#443=CARTESIAN_POINT('',(2.49999999999998,0.,-9.1688));
#444=CARTESIAN_POINT('',(-3.73459970228909E-16,0.,-9.1688));
#445=CARTESIAN_POINT('',(-3.73459970228909E-16,0.,-9.1188));
#446=CARTESIAN_POINT('',(2.44999999999999,0.,-9.1188));
#447=CARTESIAN_POINT('',(-3.73459970228909E-16,0.,-53.6207787443438));
#448=CARTESIAN_POINT('',(-3.73459970228909E-16,0.,-1.2688));
#449=CARTESIAN_POINT('',(2.44999999999999,0.,-1.2688));
#450=CARTESIAN_POINT('',(-3.73459970228909E-16,0.,-1.2688));
#451=CARTESIAN_POINT('',(-3.73459970228909E-16,0.,-0.3188));
#452=CARTESIAN_POINT('',(1.49999999999999,0.,-0.3188));
#453=CARTESIAN_POINT('',(-3.73459970228909E-16,9.99999999913292E-5,1.35868488647926E-5));
#454=CARTESIAN_POINT('',(-3.73459970228909E-16,0.,1.35868488655515E-5));
#455=CARTESIAN_POINT('',(-9.99999999917027E-5,0.,1.35868488655515E-5));
#456=CARTESIAN_POINT('',(-3.73459970228909E-16,0.,-0.318800000000002));
#457=CARTESIAN_POINT('',(-3.73459970228909E-16,0.,-40.1369346652053));
#458=CARTESIAN_POINT('',(0.,0.,0.));
#459=MECHANICAL_DESIGN_GEOMETRIC_PRESENTATION_REPRESENTATION('',(#237,#238,
#239),#460);
#460=(
GEOMETRIC_REPRESENTATION_CONTEXT(3)
GLOBAL_UNCERTAINTY_ASSIGNED_CONTEXT((#464))
GLOBAL_UNIT_ASSIGNED_CONTEXT((#470,#469,#468))
REPRESENTATION_CONTEXT('1014 4.020','TOP_LEVEL_ASSEMBLY_PART')
);
#461=(
GEOMETRIC_REPRESENTATION_CONTEXT(3)
GLOBAL_UNCERTAINTY_ASSIGNED_CONTEXT((#465))
GLOBAL_UNIT_ASSIGNED_CONTEXT((#470,#469,#468))
REPRESENTATION_CONTEXT('1014 4.020_PART1','COMPONENT_PART')
);
#462=(
GEOMETRIC_REPRESENTATION_CONTEXT(3)
GLOBAL_UNCERTAINTY_ASSIGNED_CONTEXT((#466))
GLOBAL_UNIT_ASSIGNED_CONTEXT((#470,#469,#468))
REPRESENTATION_CONTEXT('1014 4.020_PART2','COMPONENT_PART')
);
#463=(
GEOMETRIC_REPRESENTATION_CONTEXT(3)
GLOBAL_UNCERTAINTY_ASSIGNED_CONTEXT((#467))
GLOBAL_UNIT_ASSIGNED_CONTEXT((#470,#469,#468))
REPRESENTATION_CONTEXT('1014 4.020_PART3','COMPONENT_PART')
);
#464=UNCERTAINTY_MEASURE_WITH_UNIT(LENGTH_MEASURE(1.E-5),#470,
'DISTANCE_ACCURACY_VALUE','Maximum Tolerance applied to model');
#465=UNCERTAINTY_MEASURE_WITH_UNIT(LENGTH_MEASURE(1.E-5),#470,
'DISTANCE_ACCURACY_VALUE','Maximum Tolerance applied to model');
#466=UNCERTAINTY_MEASURE_WITH_UNIT(LENGTH_MEASURE(1.E-5),#470,
'DISTANCE_ACCURACY_VALUE','Maximum Tolerance applied to model');
#467=UNCERTAINTY_MEASURE_WITH_UNIT(LENGTH_MEASURE(1.E-5),#470,
'DISTANCE_ACCURACY_VALUE','Maximum Tolerance applied to model');
#468=(
NAMED_UNIT(*)
SI_UNIT($,.STERADIAN.)
SOLID_ANGLE_UNIT()
);
#469=(
NAMED_UNIT(*)
PLANE_ANGLE_UNIT()
SI_UNIT($,.RADIAN.)
);
#470=(
LENGTH_UNIT()
NAMED_UNIT(*)
SI_UNIT(.MILLI.,.METRE.)
);
#471=PRODUCT_DEFINITION_SHAPE('','',#478);
#472=PRODUCT_DEFINITION_SHAPE('','',#479);
#473=PRODUCT_DEFINITION_SHAPE(' ','NAUO PRDDFN',#22);
#474=PRODUCT_DEFINITION_SHAPE('','',#480);
#475=PRODUCT_DEFINITION_SHAPE(' ','NAUO PRDDFN',#23);
#476=PRODUCT_DEFINITION_SHAPE('','',#481);
#477=PRODUCT_DEFINITION_SHAPE(' ','NAUO PRDDFN',#24);
#478=PRODUCT_DEFINITION('','',#486,#482);
#479=PRODUCT_DEFINITION('','',#487,#483);
#480=PRODUCT_DEFINITION('','',#488,#484);
#481=PRODUCT_DEFINITION('','',#489,#485);
#482=PRODUCT_DEFINITION_CONTEXT('',#507,'design');
#483=PRODUCT_DEFINITION_CONTEXT('',#507,'design');
#484=PRODUCT_DEFINITION_CONTEXT('',#507,'design');
#485=PRODUCT_DEFINITION_CONTEXT('',#507,'design');
#486=PRODUCT_DEFINITION_FORMATION_WITH_SPECIFIED_SOURCE('','',#494,
 .NOT_KNOWN.);
#487=PRODUCT_DEFINITION_FORMATION_WITH_SPECIFIED_SOURCE('','',#495,
 .NOT_KNOWN.);
#488=PRODUCT_DEFINITION_FORMATION_WITH_SPECIFIED_SOURCE('','',#496,
 .NOT_KNOWN.);
#489=PRODUCT_DEFINITION_FORMATION_WITH_SPECIFIED_SOURCE('','',#497,
 .NOT_KNOWN.);
#490=PRODUCT_RELATED_PRODUCT_CATEGORY('','',(#494));
#491=PRODUCT_RELATED_PRODUCT_CATEGORY('','',(#495));
#492=PRODUCT_RELATED_PRODUCT_CATEGORY('','',(#496));
#493=PRODUCT_RELATED_PRODUCT_CATEGORY('','',(#497));
#494=PRODUCT('1014 4.020','1014 4.020','1014 4.020',(#502));
#495=PRODUCT('1014 4.020_PART1','1014 4.020_PART1','1014 4.020_PART1',(#503));
#496=PRODUCT('1014 4.020_PART2','1014 4.020_PART2','1014 4.020_PART2',(#504));
#497=PRODUCT('1014 4.020_PART3','1014 4.020_PART3','1014 4.020_PART3',(#505));
#498=PRODUCT_CATEGORY('','');
#499=PRODUCT_CATEGORY('','');
#500=PRODUCT_CATEGORY('','');
#501=PRODUCT_CATEGORY('','');
#502=PRODUCT_CONTEXT('',#507,'mechanical');
#503=PRODUCT_CONTEXT('',#507,'mechanical');
#504=PRODUCT_CONTEXT('',#507,'mechanical');
#505=PRODUCT_CONTEXT('',#507,'mechanical');
#506=APPLICATION_PROTOCOL_DEFINITION('international standard',
'automotive_design',2010,#507);
#507=APPLICATION_CONTEXT(
'core data for automotive mechanical design processes');
ENDSEC;
END-ISO-10303-21;
