ISO-10303-21;
HEADER;
/* Generated by software containing ST-Developer
 * from STEP Tools, Inc. (www.steptools.com) 
 */
/* OPTION: using custom renumber hook */

FILE_DESCRIPTION(
/* description */ ('STEP AP214'),
/* implementation_level */ '2;1');

FILE_NAME(
/* name */ '1015 3.040',
/* time_stamp */ '2026-05-14T15:13:34+02:00',
/* author */ ('License CC BY-ND 4.0'),
/* organization */ ('CADENAS'),
/* preprocessor_version */ 'ST-DEVELOPER v20',
/* originating_system */ 'PARTsolutions',
/* authorisation */ '  ');

FILE_SCHEMA (('AUTOMOTIVE_DESIGN {1 0 10303 214 3 1 1}'));
ENDSEC;

DATA;
#10=PROPERTY_DEFINITION_REPRESENTATION(#14,#12);
#11=PROPERTY_DEFINITION_REPRESENTATION(#15,#13);
#12=REPRESENTATION('',(#16),#440);
#13=REPRESENTATION('',(#17),#440);
#14=PROPERTY_DEFINITION('pmi validation property','',#451);
#15=PROPERTY_DEFINITION('pmi validation property','',#451);
#16=VALUE_REPRESENTATION_ITEM('number of annotations',COUNT_MEASURE(0.));
#17=VALUE_REPRESENTATION_ITEM('number of views',COUNT_MEASURE(0.));
#18=TOROIDAL_SURFACE('',#281,1.151,0.00100000000000235);
#19=CONTEXT_DEPENDENT_SHAPE_REPRESENTATION(#25,#453);
#20=CONTEXT_DEPENDENT_SHAPE_REPRESENTATION(#26,#455);
#21=CONTEXT_DEPENDENT_SHAPE_REPRESENTATION(#27,#457);
#22=NEXT_ASSEMBLY_USAGE_OCCURRENCE('NAUO1','1015 3.040_PART1',
'1015 3.040_PART1',#458,#459,'');
#23=NEXT_ASSEMBLY_USAGE_OCCURRENCE('NAUO2','1015 3.040_PART2',
'1015 3.040_PART2',#458,#460,'');
#24=NEXT_ASSEMBLY_USAGE_OCCURRENCE('NAUO3','1015 3.040_PART3',
'1015 3.040_PART3',#458,#461,'');
#25=(
REPRESENTATION_RELATIONSHIP(' ',' ',#257,#256)
REPRESENTATION_RELATIONSHIP_WITH_TRANSFORMATION(#28)
SHAPE_REPRESENTATION_RELATIONSHIP()
);
#26=(
REPRESENTATION_RELATIONSHIP(' ',' ',#258,#256)
REPRESENTATION_RELATIONSHIP_WITH_TRANSFORMATION(#29)
SHAPE_REPRESENTATION_RELATIONSHIP()
);
#27=(
REPRESENTATION_RELATIONSHIP(' ',' ',#259,#256)
REPRESENTATION_RELATIONSHIP_WITH_TRANSFORMATION(#30)
SHAPE_REPRESENTATION_RELATIONSHIP()
);
#28=ITEM_DEFINED_TRANSFORMATION(' ',' ',#260,#270);
#29=ITEM_DEFINED_TRANSFORMATION(' ',' ',#260,#284);
#30=ITEM_DEFINED_TRANSFORMATION(' ',' ',#260,#300);
#31=SHAPE_REPRESENTATION_RELATIONSHIP('','',#257,#34);
#32=SHAPE_REPRESENTATION_RELATIONSHIP('','',#258,#35);
#33=SHAPE_REPRESENTATION_RELATIONSHIP('','',#259,#36);
#34=ADVANCED_BREP_SHAPE_REPRESENTATION('',(#249),#441);
#35=ADVANCED_BREP_SHAPE_REPRESENTATION('',(#250),#442);
#36=ADVANCED_BREP_SHAPE_REPRESENTATION('',(#251),#443);
#37=CONICAL_SURFACE('',#267,0.000199999999999978,0.78539816339745);
#38=CONICAL_SURFACE('',#269,1.22999999999999,0.168652824263449);
#39=CONICAL_SURFACE('',#274,1.22999999999999,0.168652824263449);
#40=CONICAL_SURFACE('',#279,1.15013397459621,0.523598775598304);
#41=CONICAL_SURFACE('',#287,1.94999999999999,0.785398163397448);
#42=CONICAL_SURFACE('',#291,1.99999999999998,0.785398163397445);
#43=CONICAL_SURFACE('',#295,2.,0.139626340159547);
#44=CYLINDRICAL_SURFACE('',#265,0.000999999999997003);
#45=CYLINDRICAL_SURFACE('',#271,1.15);
#46=CYLINDRICAL_SURFACE('',#277,1.545);
#47=CYLINDRICAL_SURFACE('',#289,1.94999999999999);
#48=CYLINDRICAL_SURFACE('',#293,1.99999999999999);
#49=CYLINDRICAL_SURFACE('',#297,1.15);
#50=ORIENTED_EDGE('',*,*,#84,.T.);
#51=ORIENTED_EDGE('',*,*,#85,.T.);
#52=ORIENTED_EDGE('',*,*,#86,.F.);
#53=ORIENTED_EDGE('',*,*,#85,.F.);
#54=ORIENTED_EDGE('',*,*,#86,.T.);
#55=ORIENTED_EDGE('',*,*,#87,.F.);
#56=ORIENTED_EDGE('',*,*,#87,.T.);
#57=ORIENTED_EDGE('',*,*,#84,.F.);
#58=ORIENTED_EDGE('',*,*,#88,.T.);
#59=ORIENTED_EDGE('',*,*,#89,.T.);
#60=ORIENTED_EDGE('',*,*,#90,.T.);
#61=ORIENTED_EDGE('',*,*,#91,.F.);
#62=ORIENTED_EDGE('',*,*,#91,.T.);
#63=ORIENTED_EDGE('',*,*,#92,.F.);
#64=ORIENTED_EDGE('',*,*,#92,.T.);
#65=ORIENTED_EDGE('',*,*,#93,.F.);
#66=ORIENTED_EDGE('',*,*,#93,.T.);
#67=ORIENTED_EDGE('',*,*,#88,.F.);
#68=ORIENTED_EDGE('',*,*,#89,.F.);
#69=ORIENTED_EDGE('',*,*,#90,.F.);
#70=ORIENTED_EDGE('',*,*,#94,.T.);
#71=ORIENTED_EDGE('',*,*,#94,.F.);
#72=ORIENTED_EDGE('',*,*,#95,.T.);
#73=ORIENTED_EDGE('',*,*,#95,.F.);
#74=ORIENTED_EDGE('',*,*,#96,.T.);
#75=ORIENTED_EDGE('',*,*,#96,.F.);
#76=ORIENTED_EDGE('',*,*,#97,.T.);
#77=ORIENTED_EDGE('',*,*,#97,.F.);
#78=ORIENTED_EDGE('',*,*,#98,.T.);
#79=ORIENTED_EDGE('',*,*,#99,.T.);
#80=ORIENTED_EDGE('',*,*,#98,.F.);
#81=ORIENTED_EDGE('',*,*,#100,.F.);
#82=ORIENTED_EDGE('',*,*,#99,.F.);
#83=ORIENTED_EDGE('',*,*,#100,.T.);
#84=EDGE_CURVE('',#101,#101,#116,.T.);
#85=EDGE_CURVE('',#102,#102,#117,.T.);
#86=EDGE_CURVE('',#102,#102,#118,.T.);
#87=EDGE_CURVE('',#103,#103,#119,.T.);
#88=EDGE_CURVE('',#104,#104,#120,.T.);
#89=EDGE_CURVE('',#105,#105,#121,.T.);
#90=EDGE_CURVE('',#106,#106,#122,.T.);
#91=EDGE_CURVE('',#107,#107,#123,.T.);
#92=EDGE_CURVE('',#108,#108,#124,.T.);
#93=EDGE_CURVE('',#104,#104,#125,.T.);
#94=EDGE_CURVE('',#109,#109,#126,.T.);
#95=EDGE_CURVE('',#110,#110,#127,.T.);
#96=EDGE_CURVE('',#111,#111,#128,.T.);
#97=EDGE_CURVE('',#112,#112,#129,.T.);
#98=EDGE_CURVE('',#113,#113,#130,.T.);
#99=EDGE_CURVE('',#114,#114,#131,.T.);
#100=EDGE_CURVE('',#115,#115,#132,.T.);
#101=VERTEX_POINT('',#386);
#102=VERTEX_POINT('',#389);
#103=VERTEX_POINT('',#394);
#104=VERTEX_POINT('',#399);
#105=VERTEX_POINT('',#401);
#106=VERTEX_POINT('',#404);
#107=VERTEX_POINT('',#406);
#108=VERTEX_POINT('',#409);
#109=VERTEX_POINT('',#418);
#110=VERTEX_POINT('',#421);
#111=VERTEX_POINT('',#424);
#112=VERTEX_POINT('',#427);
#113=VERTEX_POINT('',#430);
#114=VERTEX_POINT('',#433);
#115=VERTEX_POINT('',#436);
#116=CIRCLE('',#262,1.23189);
#117=CIRCLE('',#264,0.000999999999997003);
#118=CIRCLE('',#266,0.000999999999997003);
#119=CIRCLE('',#268,1.22999999999999);
#120=CIRCLE('',#272,1.15);
#121=CIRCLE('',#273,1.15);
#122=CIRCLE('',#275,1.23189);
#123=CIRCLE('',#276,1.545);
#124=CIRCLE('',#278,1.545);
#125=CIRCLE('',#280,1.15013397459621);
#126=CIRCLE('',#286,0.000499999999990619);
#127=CIRCLE('',#288,1.94999999999999);
#128=CIRCLE('',#290,1.94999999999999);
#129=CIRCLE('',#292,1.99999999999998);
#130=CIRCLE('',#294,2.);
#131=CIRCLE('',#296,1.15);
#132=CIRCLE('',#298,1.15);
#133=EDGE_LOOP('',(#50));
#134=EDGE_LOOP('',(#51));
#135=EDGE_LOOP('',(#52,#53));
#136=EDGE_LOOP('',(#54));
#137=EDGE_LOOP('',(#55));
#138=EDGE_LOOP('',(#56));
#139=EDGE_LOOP('',(#57));
#140=EDGE_LOOP('',(#58));
#141=EDGE_LOOP('',(#59));
#142=EDGE_LOOP('',(#60));
#143=EDGE_LOOP('',(#61));
#144=EDGE_LOOP('',(#62));
#145=EDGE_LOOP('',(#63));
#146=EDGE_LOOP('',(#64));
#147=EDGE_LOOP('',(#65));
#148=EDGE_LOOP('',(#66,#67));
#149=EDGE_LOOP('',(#68));
#150=EDGE_LOOP('',(#69));
#151=EDGE_LOOP('',(#70));
#152=EDGE_LOOP('',(#71));
#153=EDGE_LOOP('',(#72));
#154=EDGE_LOOP('',(#73));
#155=EDGE_LOOP('',(#74));
#156=EDGE_LOOP('',(#75));
#157=EDGE_LOOP('',(#76));
#158=EDGE_LOOP('',(#77));
#159=EDGE_LOOP('',(#78));
#160=EDGE_LOOP('',(#79));
#161=EDGE_LOOP('',(#80));
#162=EDGE_LOOP('',(#81));
#163=EDGE_LOOP('',(#82));
#164=EDGE_LOOP('',(#83));
#165=FACE_BOUND('',#133,.T.);
#166=FACE_BOUND('',#134,.T.);
#167=FACE_BOUND('',#135,.T.);
#168=FACE_BOUND('',#136,.T.);
#169=FACE_BOUND('',#137,.T.);
#170=FACE_BOUND('',#138,.T.);
#171=FACE_BOUND('',#139,.T.);
#172=FACE_BOUND('',#140,.T.);
#173=FACE_BOUND('',#141,.T.);
#174=FACE_BOUND('',#142,.T.);
#175=FACE_BOUND('',#143,.T.);
#176=FACE_BOUND('',#144,.T.);
#177=FACE_BOUND('',#145,.T.);
#178=FACE_BOUND('',#146,.T.);
#179=FACE_BOUND('',#147,.T.);
#180=FACE_BOUND('',#148,.T.);
#181=FACE_BOUND('',#149,.T.);
#182=FACE_BOUND('',#150,.T.);
#183=FACE_BOUND('',#151,.T.);
#184=FACE_BOUND('',#152,.T.);
#185=FACE_BOUND('',#153,.T.);
#186=FACE_BOUND('',#154,.T.);
#187=FACE_BOUND('',#155,.T.);
#188=FACE_BOUND('',#156,.T.);
#189=FACE_BOUND('',#157,.T.);
#190=FACE_BOUND('',#158,.T.);
#191=FACE_BOUND('',#159,.T.);
#192=FACE_BOUND('',#160,.T.);
#193=FACE_BOUND('',#161,.T.);
#194=FACE_BOUND('',#162,.T.);
#195=FACE_BOUND('',#163,.T.);
#196=FACE_BOUND('',#164,.T.);
#197=PLANE('',#261);
#198=PLANE('',#263);
#199=PLANE('',#282);
#200=PLANE('',#283);
#201=PLANE('',#285);
#202=PLANE('',#299);
#203=ADVANCED_FACE('',(#165),#197,.T.);
#204=ADVANCED_FACE('',(#166),#198,.F.);
#205=ADVANCED_FACE('',(#167),#44,.T.);
#206=ADVANCED_FACE('',(#168,#169),#37,.T.);
#207=ADVANCED_FACE('',(#170,#171),#38,.T.);
#208=ADVANCED_FACE('',(#172,#173),#45,.T.);
#209=ADVANCED_FACE('',(#174,#175),#39,.T.);
#210=ADVANCED_FACE('',(#176,#177),#46,.T.);
#211=ADVANCED_FACE('',(#178,#179),#40,.T.);
#212=ADVANCED_FACE('',(#180),#18,.F.);
#213=ADVANCED_FACE('',(#181),#199,.T.);
#214=ADVANCED_FACE('',(#182),#200,.F.);
#215=ADVANCED_FACE('',(#183),#201,.F.);
#216=ADVANCED_FACE('',(#184,#185),#41,.T.);
#217=ADVANCED_FACE('',(#186,#187),#47,.T.);
#218=ADVANCED_FACE('',(#188,#189),#42,.T.);
#219=ADVANCED_FACE('',(#190,#191),#48,.T.);
#220=ADVANCED_FACE('',(#192,#193),#43,.T.);
#221=ADVANCED_FACE('',(#194,#195),#49,.T.);
#222=ADVANCED_FACE('',(#196),#202,.F.);
#223=CLOSED_SHELL('',(#203,#204,#205,#206,#207));
#224=CLOSED_SHELL('',(#208,#209,#210,#211,#212,#213,#214));
#225=CLOSED_SHELL('',(#215,#216,#217,#218,#219,#220,#221,#222));
#226=STYLED_ITEM('',(#229),#249);
#227=STYLED_ITEM('',(#230),#250);
#228=STYLED_ITEM('',(#231),#251);
#229=PRESENTATION_STYLE_ASSIGNMENT((#232));
#230=PRESENTATION_STYLE_ASSIGNMENT((#233));
#231=PRESENTATION_STYLE_ASSIGNMENT((#234));
#232=SURFACE_STYLE_USAGE(.BOTH.,#235);
#233=SURFACE_STYLE_USAGE(.BOTH.,#236);
#234=SURFACE_STYLE_USAGE(.BOTH.,#237);
#235=SURFACE_SIDE_STYLE('',(#238));
#236=SURFACE_SIDE_STYLE('',(#239));
#237=SURFACE_SIDE_STYLE('',(#240));
#238=SURFACE_STYLE_FILL_AREA(#241);
#239=SURFACE_STYLE_FILL_AREA(#242);
#240=SURFACE_STYLE_FILL_AREA(#243);
#241=FILL_AREA_STYLE('',(#244));
#242=FILL_AREA_STYLE('',(#245));
#243=FILL_AREA_STYLE('',(#246));
#244=FILL_AREA_STYLE_COLOUR('',#247);
#245=FILL_AREA_STYLE_COLOUR('',#248);
#246=FILL_AREA_STYLE_COLOUR('',#247);
#247=COLOUR_RGB('',0.499992370489052,0.499992370489052,0.499992370489052);
#248=COLOUR_RGB('',0.8,0.8,0.8);
#249=MANIFOLD_SOLID_BREP('solid',#223);
#250=MANIFOLD_SOLID_BREP('solid',#224);
#251=MANIFOLD_SOLID_BREP('solid',#225);
#252=SHAPE_DEFINITION_REPRESENTATION(#451,#256);
#253=SHAPE_DEFINITION_REPRESENTATION(#452,#257);
#254=SHAPE_DEFINITION_REPRESENTATION(#454,#258);
#255=SHAPE_DEFINITION_REPRESENTATION(#456,#259);
#256=SHAPE_REPRESENTATION('1015 3.040',(#260,#270,#284,#300),#440);
#257=SHAPE_REPRESENTATION('1015 3.040_PART1',(#260),#441);
#258=SHAPE_REPRESENTATION('1015 3.040_PART2',(#260),#442);
#259=SHAPE_REPRESENTATION('1015 3.040_PART3',(#260),#443);
#260=AXIS2_PLACEMENT_3D('',#383,#301,#302);
#261=AXIS2_PLACEMENT_3D('',#384,#303,#304);
#262=AXIS2_PLACEMENT_3D('',#385,#305,#306);
#263=AXIS2_PLACEMENT_3D('',#387,#307,#308);
#264=AXIS2_PLACEMENT_3D('',#388,#309,#310);
#265=AXIS2_PLACEMENT_3D('',#390,#311,#312);
#266=AXIS2_PLACEMENT_3D('',#391,#313,#314);
#267=AXIS2_PLACEMENT_3D('',#392,#315,#316);
#268=AXIS2_PLACEMENT_3D('',#393,#317,#318);
#269=AXIS2_PLACEMENT_3D('',#395,#319,#320);
#270=AXIS2_PLACEMENT_3D('',#396,#321,#322);
#271=AXIS2_PLACEMENT_3D('',#397,#323,#324);
#272=AXIS2_PLACEMENT_3D('',#398,#325,#326);
#273=AXIS2_PLACEMENT_3D('',#400,#327,#328);
#274=AXIS2_PLACEMENT_3D('',#402,#329,#330);
#275=AXIS2_PLACEMENT_3D('',#403,#331,#332);
#276=AXIS2_PLACEMENT_3D('',#405,#333,#334);
#277=AXIS2_PLACEMENT_3D('',#407,#335,#336);
#278=AXIS2_PLACEMENT_3D('',#408,#337,#338);
#279=AXIS2_PLACEMENT_3D('',#410,#339,#340);
#280=AXIS2_PLACEMENT_3D('',#411,#341,#342);
#281=AXIS2_PLACEMENT_3D('',#412,#343,#344);
#282=AXIS2_PLACEMENT_3D('',#413,#345,#346);
#283=AXIS2_PLACEMENT_3D('',#414,#347,#348);
#284=AXIS2_PLACEMENT_3D('',#415,#349,#350);
#285=AXIS2_PLACEMENT_3D('',#416,#351,#352);
#286=AXIS2_PLACEMENT_3D('',#417,#353,#354);
#287=AXIS2_PLACEMENT_3D('',#419,#355,#356);
#288=AXIS2_PLACEMENT_3D('',#420,#357,#358);
#289=AXIS2_PLACEMENT_3D('',#422,#359,#360);
#290=AXIS2_PLACEMENT_3D('',#423,#361,#362);
#291=AXIS2_PLACEMENT_3D('',#425,#363,#364);
#292=AXIS2_PLACEMENT_3D('',#426,#365,#366);
#293=AXIS2_PLACEMENT_3D('',#428,#367,#368);
#294=AXIS2_PLACEMENT_3D('',#429,#369,#370);
#295=AXIS2_PLACEMENT_3D('',#431,#371,#372);
#296=AXIS2_PLACEMENT_3D('',#432,#373,#374);
#297=AXIS2_PLACEMENT_3D('',#434,#375,#376);
#298=AXIS2_PLACEMENT_3D('',#435,#377,#378);
#299=AXIS2_PLACEMENT_3D('',#437,#379,#380);
#300=AXIS2_PLACEMENT_3D('',#438,#381,#382);
#301=DIRECTION('',(0.,0.,1.));
#302=DIRECTION('',(1.,0.,0.));
#303=DIRECTION('',(0.,0.,1.));
#304=DIRECTION('',(1.,0.,0.));
#305=DIRECTION('',(0.,0.,1.));
#306=DIRECTION('',(1.,0.,0.));
#307=DIRECTION('',(0.,0.,1.));
#308=DIRECTION('',(1.,0.,0.));
#309=DIRECTION('',(0.,0.,-1.));
#310=DIRECTION('',(1.,0.,0.));
#311=DIRECTION('',(0.,0.,-1.));
#312=DIRECTION('',(-1.,0.,0.));
#313=DIRECTION('',(0.,0.,1.));
#314=DIRECTION('',(1.,0.,0.));
#315=DIRECTION('',(0.,0.,1.));
#316=DIRECTION('',(1.,0.,2.08166775483861E-17));
#317=DIRECTION('',(0.,0.,1.));
#318=DIRECTION('',(1.,0.,0.));
#319=DIRECTION('',(0.,0.,1.));
#320=DIRECTION('',(1.,0.,-1.21379877004951E-16));
#321=DIRECTION('',(0.,0.,1.));
#322=DIRECTION('',(1.,0.,0.));
#323=DIRECTION('',(0.,0.,1.));
#324=DIRECTION('',(1.,0.,0.));
#325=DIRECTION('',(0.,0.,1.));
#326=DIRECTION('',(1.,0.,0.));
#327=DIRECTION('',(0.,0.,-1.));
#328=DIRECTION('',(1.,0.,0.));
#329=DIRECTION('',(0.,0.,1.));
#330=DIRECTION('',(1.,0.,-1.21379877004951E-16));
#331=DIRECTION('',(0.,0.,1.));
#332=DIRECTION('',(1.,0.,0.));
#333=DIRECTION('',(0.,0.,1.));
#334=DIRECTION('',(1.,0.,0.));
#335=DIRECTION('',(0.,0.,1.));
#336=DIRECTION('',(1.,0.,0.));
#337=DIRECTION('',(0.,0.,1.));
#338=DIRECTION('',(1.,0.,0.));
#339=DIRECTION('',(0.,0.,-1.));
#340=DIRECTION('',(-1.,0.,-1.19946224167754E-17));
#341=DIRECTION('',(0.,0.,1.));
#342=DIRECTION('',(1.,0.,0.));
#343=DIRECTION('',(0.,0.,1.));
#344=DIRECTION('',(1.,0.,0.));
#345=DIRECTION('',(0.,0.,1.));
#346=DIRECTION('',(1.,0.,0.));
#347=DIRECTION('',(0.,0.,1.));
#348=DIRECTION('',(1.,0.,0.));
#349=DIRECTION('',(0.,0.,1.));
#350=DIRECTION('',(1.,0.,0.));
#351=DIRECTION('',(0.,0.,-1.));
#352=DIRECTION('',(-1.,0.,0.));
#353=DIRECTION('',(0.,0.,1.));
#354=DIRECTION('',(1.,0.,0.));
#355=DIRECTION('',(0.,0.,-1.));
#356=DIRECTION('',(-1.,0.,-4.67463784134676E-17));
#357=DIRECTION('',(0.,0.,1.));
#358=DIRECTION('',(1.,0.,0.));
#359=DIRECTION('',(0.,0.,1.));
#360=DIRECTION('',(1.,0.,0.));
#361=DIRECTION('',(0.,0.,1.));
#362=DIRECTION('',(1.,0.,0.));
#363=DIRECTION('',(0.,0.,-1.));
#364=DIRECTION('',(-1.,0.,4.32815238517171E-17));
#365=DIRECTION('',(0.,0.,1.));
#366=DIRECTION('',(1.,0.,0.));
#367=DIRECTION('',(0.,0.,1.));
#368=DIRECTION('',(1.,0.,0.));
#369=DIRECTION('',(0.,0.,1.));
#370=DIRECTION('',(1.,0.,0.));
#371=DIRECTION('',(0.,0.,1.));
#372=DIRECTION('',(1.,0.,-3.40760298119228E-16));
#373=DIRECTION('',(0.,0.,1.));
#374=DIRECTION('',(1.,0.,0.));
#375=DIRECTION('',(0.,0.,1.));
#376=DIRECTION('',(1.,0.,0.));
#377=DIRECTION('',(0.,0.,-1.));
#378=DIRECTION('',(1.,0.,0.));
#379=DIRECTION('',(0.,0.,1.));
#380=DIRECTION('',(1.,0.,0.));
#381=DIRECTION('',(0.,0.,1.));
#382=DIRECTION('',(1.,0.,0.));
#383=CARTESIAN_POINT('',(0.,0.,0.));
#384=CARTESIAN_POINT('',(2.34291072916505E-15,0.,-45.96));
#385=CARTESIAN_POINT('',(2.34291072916505E-15,0.,-45.96));
#386=CARTESIAN_POINT('',(1.23189,0.,-45.96));
#387=CARTESIAN_POINT('',(2.34291072916505E-15,1.57999999999999,-47.201));
#388=CARTESIAN_POINT('',(2.34291072916505E-15,0.,-47.201));
#389=CARTESIAN_POINT('',(0.000999999999999346,0.,-47.20055));
#390=CARTESIAN_POINT('',(2.34291072916505E-15,0.,-47.201));
#391=CARTESIAN_POINT('',(2.34291072916505E-15,0.,-47.2001));
#392=CARTESIAN_POINT('',(2.34291072916505E-15,0.,-47.2009));
#393=CARTESIAN_POINT('',(2.34291072916505E-15,0.,-45.9711));
#394=CARTESIAN_POINT('',(1.22999999999999,0.,-45.9711));
#395=CARTESIAN_POINT('',(2.34291072916505E-15,0.,-45.9711));
#396=CARTESIAN_POINT('',(0.,0.,0.));
#397=CARTESIAN_POINT('',(2.34291072916505E-15,0.,-47.201));
#398=CARTESIAN_POINT('',(2.34291072916505E-15,0.,-35.4375380072217));
#399=CARTESIAN_POINT('',(1.15006698729811,0.,-35.4377880072217));
#400=CARTESIAN_POINT('',(2.34291072916505E-15,0.,-33.8631679862021));
#401=CARTESIAN_POINT('',(1.15,0.,-33.8631679862021));
#402=CARTESIAN_POINT('',(2.34291072916505E-15,0.,-45.9711));
#403=CARTESIAN_POINT('',(2.34291072916505E-15,0.,-45.96));
#404=CARTESIAN_POINT('',(1.23189,0.,-45.96));
#405=CARTESIAN_POINT('',(2.34291072916505E-15,0.,-44.1211));
#406=CARTESIAN_POINT('',(1.545,0.,-44.1211));
#407=CARTESIAN_POINT('',(2.34291072916505E-15,0.,-47.201));
#408=CARTESIAN_POINT('',(2.34291072916505E-15,0.,-36.1219660254038));
#409=CARTESIAN_POINT('',(1.545,0.,-36.1219660254038));
#410=CARTESIAN_POINT('',(2.34291072916505E-15,0.,-35.4380380072217));
#411=CARTESIAN_POINT('',(2.34291072916505E-15,0.,-35.4380380072217));
#412=CARTESIAN_POINT('',(2.34291072916505E-15,0.,-35.4375380072217));
#413=CARTESIAN_POINT('',(2.34291072916505E-15,0.,-33.8631679862021));
#414=CARTESIAN_POINT('',(2.34291072916505E-15,0.,-45.96));
#415=CARTESIAN_POINT('',(0.,0.,0.));
#416=CARTESIAN_POINT('',(2.34291072916505E-15,0.000499999999990619,2.));
#417=CARTESIAN_POINT('',(2.34291072916505E-15,0.,2.));
#418=CARTESIAN_POINT('',(0.000499999999992962,0.,2.));
#419=CARTESIAN_POINT('',(2.34291072916505E-15,0.,0.0505000000000002));
#420=CARTESIAN_POINT('',(2.34291072916505E-15,0.,0.0505000000000002));
#421=CARTESIAN_POINT('',(1.94999999999999,0.,0.0505000000000002));
#422=CARTESIAN_POINT('',(2.34291072916505E-15,0.,-47.201));
#423=CARTESIAN_POINT('',(2.34291072916505E-15,0.,-7.40000000000001));
#424=CARTESIAN_POINT('',(1.94999999999999,0.,-7.40000000000001));
#425=CARTESIAN_POINT('',(2.34291072916505E-15,0.,-7.45));
#426=CARTESIAN_POINT('',(2.34291072916505E-15,0.,-7.45));
#427=CARTESIAN_POINT('',(1.99999999999998,0.,-7.45));
#428=CARTESIAN_POINT('',(2.34291072916505E-15,0.,-47.201));
#429=CARTESIAN_POINT('',(2.34291072916505E-15,0.,-20.9514737431951));
#430=CARTESIAN_POINT('',(2.,0.,-20.9514737431951));
#431=CARTESIAN_POINT('',(2.34291072916505E-15,0.,-20.9514737431951));
#432=CARTESIAN_POINT('',(2.34291072916505E-15,0.,-26.9995380072217));
#433=CARTESIAN_POINT('',(1.15,0.,-26.9995380072217));
#434=CARTESIAN_POINT('',(2.34291072916505E-15,0.,-47.201));
#435=CARTESIAN_POINT('',(2.34291072916505E-15,0.,-33.8631679862021));
#436=CARTESIAN_POINT('',(1.15,0.,-33.8631679862021));
#437=CARTESIAN_POINT('',(2.34291072916505E-15,0.,-33.8631679862021));
#438=CARTESIAN_POINT('',(0.,0.,0.));
#439=MECHANICAL_DESIGN_GEOMETRIC_PRESENTATION_REPRESENTATION('',(#226,#227,
#228),#440);
#440=(
GEOMETRIC_REPRESENTATION_CONTEXT(3)
GLOBAL_UNCERTAINTY_ASSIGNED_CONTEXT((#444))
GLOBAL_UNIT_ASSIGNED_CONTEXT((#450,#449,#448))
REPRESENTATION_CONTEXT('1015 3.040','TOP_LEVEL_ASSEMBLY_PART')
);
#441=(
GEOMETRIC_REPRESENTATION_CONTEXT(3)
GLOBAL_UNCERTAINTY_ASSIGNED_CONTEXT((#445))
GLOBAL_UNIT_ASSIGNED_CONTEXT((#450,#449,#448))
REPRESENTATION_CONTEXT('1015 3.040_PART1','COMPONENT_PART')
);
#442=(
GEOMETRIC_REPRESENTATION_CONTEXT(3)
GLOBAL_UNCERTAINTY_ASSIGNED_CONTEXT((#446))
GLOBAL_UNIT_ASSIGNED_CONTEXT((#450,#449,#448))
REPRESENTATION_CONTEXT('1015 3.040_PART2','COMPONENT_PART')
);
#443=(
GEOMETRIC_REPRESENTATION_CONTEXT(3)
GLOBAL_UNCERTAINTY_ASSIGNED_CONTEXT((#447))
GLOBAL_UNIT_ASSIGNED_CONTEXT((#450,#449,#448))
REPRESENTATION_CONTEXT('1015 3.040_PART3','COMPONENT_PART')
);
#444=UNCERTAINTY_MEASURE_WITH_UNIT(LENGTH_MEASURE(1.E-5),#450,
'DISTANCE_ACCURACY_VALUE','Maximum Tolerance applied to model');
#445=UNCERTAINTY_MEASURE_WITH_UNIT(LENGTH_MEASURE(1.E-5),#450,
'DISTANCE_ACCURACY_VALUE','Maximum Tolerance applied to model');
#446=UNCERTAINTY_MEASURE_WITH_UNIT(LENGTH_MEASURE(1.E-5),#450,
'DISTANCE_ACCURACY_VALUE','Maximum Tolerance applied to model');
#447=UNCERTAINTY_MEASURE_WITH_UNIT(LENGTH_MEASURE(1.E-5),#450,
'DISTANCE_ACCURACY_VALUE','Maximum Tolerance applied to model');
#448=(
NAMED_UNIT(*)
SI_UNIT($,.STERADIAN.)
SOLID_ANGLE_UNIT()
);
#449=(
NAMED_UNIT(*)
PLANE_ANGLE_UNIT()
SI_UNIT($,.RADIAN.)
);
#450=(
LENGTH_UNIT()
NAMED_UNIT(*)
SI_UNIT(.MILLI.,.METRE.)
);
#451=PRODUCT_DEFINITION_SHAPE('','',#458);
#452=PRODUCT_DEFINITION_SHAPE('','',#459);
#453=PRODUCT_DEFINITION_SHAPE(' ','NAUO PRDDFN',#22);
#454=PRODUCT_DEFINITION_SHAPE('','',#460);
#455=PRODUCT_DEFINITION_SHAPE(' ','NAUO PRDDFN',#23);
#456=PRODUCT_DEFINITION_SHAPE('','',#461);
#457=PRODUCT_DEFINITION_SHAPE(' ','NAUO PRDDFN',#24);
#458=PRODUCT_DEFINITION('','',#466,#462);
#459=PRODUCT_DEFINITION('','',#467,#463);
#460=PRODUCT_DEFINITION('','',#468,#464);
#461=PRODUCT_DEFINITION('','',#469,#465);
#462=PRODUCT_DEFINITION_CONTEXT('',#487,'design');
#463=PRODUCT_DEFINITION_CONTEXT('',#487,'design');
#464=PRODUCT_DEFINITION_CONTEXT('',#487,'design');
#465=PRODUCT_DEFINITION_CONTEXT('',#487,'design');
#466=PRODUCT_DEFINITION_FORMATION_WITH_SPECIFIED_SOURCE('','',#474,
 .NOT_KNOWN.);
#467=PRODUCT_DEFINITION_FORMATION_WITH_SPECIFIED_SOURCE('','',#475,
 .NOT_KNOWN.);
#468=PRODUCT_DEFINITION_FORMATION_WITH_SPECIFIED_SOURCE('','',#476,
 .NOT_KNOWN.);
#469=PRODUCT_DEFINITION_FORMATION_WITH_SPECIFIED_SOURCE('','',#477,
 .NOT_KNOWN.);
#470=PRODUCT_RELATED_PRODUCT_CATEGORY('','',(#474));
#471=PRODUCT_RELATED_PRODUCT_CATEGORY('','',(#475));
#472=PRODUCT_RELATED_PRODUCT_CATEGORY('','',(#476));
#473=PRODUCT_RELATED_PRODUCT_CATEGORY('','',(#477));
#474=PRODUCT('1015 3.040','1015 3.040','1015 3.040',(#482));
#475=PRODUCT('1015 3.040_PART1','1015 3.040_PART1','1015 3.040_PART1',(#483));
#476=PRODUCT('1015 3.040_PART2','1015 3.040_PART2','1015 3.040_PART2',(#484));
#477=PRODUCT('1015 3.040_PART3','1015 3.040_PART3','1015 3.040_PART3',(#485));
#478=PRODUCT_CATEGORY('','');
#479=PRODUCT_CATEGORY('','');
#480=PRODUCT_CATEGORY('','');
#481=PRODUCT_CATEGORY('','');
#482=PRODUCT_CONTEXT('',#487,'mechanical');
#483=PRODUCT_CONTEXT('',#487,'mechanical');
#484=PRODUCT_CONTEXT('',#487,'mechanical');
#485=PRODUCT_CONTEXT('',#487,'mechanical');
#486=APPLICATION_PROTOCOL_DEFINITION('international standard',
'automotive_design',2010,#487);
#487=APPLICATION_CONTEXT(
'core data for automotive mechanical design processes');
ENDSEC;
END-ISO-10303-21;
