ISO-10303-21;
HEADER;
/* Generated by software containing ST-Developer
 * from STEP Tools, Inc. (www.steptools.com) 
 */
/* OPTION: using custom renumber hook */

FILE_DESCRIPTION(
/* description */ ('STEP AP214'),
/* implementation_level */ '2;1');

FILE_NAME(
/* name */ '1040 56.000',
/* time_stamp */ '2026-05-15T10:59:05+02:00',
/* author */ ('License CC BY-ND 4.0'),
/* organization */ ('CADENAS'),
/* preprocessor_version */ 'ST-DEVELOPER v20',
/* originating_system */ 'PARTsolutions',
/* authorisation */ '  ');

FILE_SCHEMA (('AUTOMOTIVE_DESIGN {1 0 10303 214 3 1 1}'));
ENDSEC;

DATA;
#10=PROPERTY_DEFINITION_REPRESENTATION(#14,#12);
#11=PROPERTY_DEFINITION_REPRESENTATION(#15,#13);
#12=REPRESENTATION('',(#16),#784);
#13=REPRESENTATION('',(#17),#784);
#14=PROPERTY_DEFINITION('pmi validation property','',#795);
#15=PROPERTY_DEFINITION('pmi validation property','',#795);
#16=VALUE_REPRESENTATION_ITEM('number of annotations',COUNT_MEASURE(0.));
#17=VALUE_REPRESENTATION_ITEM('number of views',COUNT_MEASURE(0.));
#18=B_SPLINE_CURVE_WITH_KNOTS('',3,(#694,#695,#696,#697,#698,#699),
 .UNSPECIFIED.,.F.,.F.,(4,1,1,4),(8.67361737988404E-19,0.000823236473182502,
0.00123485470977375,0.001646472946365),.UNSPECIFIED.);
#19=B_SPLINE_CURVE_WITH_KNOTS('',3,(#700,#701,#702,#703,#704,#705),
 .UNSPECIFIED.,.F.,.F.,(4,1,1,4),(0.,0.000416699643666197,0.000833399287332393,
0.00166679857466479),.UNSPECIFIED.);
#20=B_SPLINE_CURVE_WITH_KNOTS('',3,(#707,#708,#709,#710),.UNSPECIFIED.,
 .F.,.F.,(4,4),(9.19109523653819E-19,0.00276988192130003),.UNSPECIFIED.);
#21=B_SPLINE_CURVE_WITH_KNOTS('',3,(#712,#713,#714,#715),.UNSPECIFIED.,
 .F.,.F.,(4,4),(2.16840434497101E-19,0.00276988192130003),.UNSPECIFIED.);
#22=B_SPLINE_CURVE_WITH_KNOTS('',3,(#722,#723,#724,#725),.UNSPECIFIED.,
 .F.,.F.,(4,4),(2.16840434497101E-19,0.00276988192130003),.UNSPECIFIED.);
#23=B_SPLINE_CURVE_WITH_KNOTS('',3,(#732,#733,#734,#735,#736,#737),
 .UNSPECIFIED.,.F.,.F.,(4,1,1,4),(0.,0.000416699643666197,0.000833399287332395,
0.00166679857466479),.UNSPECIFIED.);
#24=B_SPLINE_CURVE_WITH_KNOTS('',3,(#741,#742,#743,#744,#745,#746),
 .UNSPECIFIED.,.F.,.F.,(4,1,1,4),(8.67361737988404E-19,0.000823236473182502,
0.00123485470977375,0.001646472946365),.UNSPECIFIED.);
#25=B_SPLINE_CURVE_WITH_KNOTS('',3,(#748,#749,#750,#751),.UNSPECIFIED.,
 .F.,.F.,(4,4),(9.24606980693471E-19,0.00276988192130003),.UNSPECIFIED.);
#26=LINE('',#680,#36);
#27=LINE('',#684,#37);
#28=LINE('',#686,#38);
#29=LINE('',#691,#39);
#30=LINE('',#717,#40);
#31=LINE('',#718,#41);
#32=LINE('',#727,#42);
#33=LINE('',#739,#43);
#34=LINE('',#753,#44);
#35=LINE('',#754,#45);
#36=VECTOR('',#566,1000.);
#37=VECTOR('',#569,1000.);
#38=VECTOR('',#572,1000.);
#39=VECTOR('',#577,1000.);
#40=VECTOR('',#580,1000.);
#41=VECTOR('',#581,1000.);
#42=VECTOR('',#588,1000.);
#43=VECTOR('',#593,1000.);
#44=VECTOR('',#596,1000.);
#45=VECTOR('',#597,1000.);
#46=CONTEXT_DEPENDENT_SHAPE_REPRESENTATION(#52,#797);
#47=CONTEXT_DEPENDENT_SHAPE_REPRESENTATION(#53,#799);
#48=CONTEXT_DEPENDENT_SHAPE_REPRESENTATION(#54,#801);
#49=NEXT_ASSEMBLY_USAGE_OCCURRENCE('NAUO1','1040 56.000_PART1',
'1040 56.000_PART1',#802,#803,'');
#50=NEXT_ASSEMBLY_USAGE_OCCURRENCE('NAUO2','1040 56.000_PART2',
'1040 56.000_PART2',#802,#804,'');
#51=NEXT_ASSEMBLY_USAGE_OCCURRENCE('NAUO3','1040 56.000_PART3',
'1040 56.000_PART3',#802,#805,'');
#52=(
REPRESENTATION_RELATIONSHIP(' ',' ',#445,#444)
REPRESENTATION_RELATIONSHIP_WITH_TRANSFORMATION(#55)
SHAPE_REPRESENTATION_RELATIONSHIP()
);
#53=(
REPRESENTATION_RELATIONSHIP(' ',' ',#446,#444)
REPRESENTATION_RELATIONSHIP_WITH_TRANSFORMATION(#56)
SHAPE_REPRESENTATION_RELATIONSHIP()
);
#54=(
REPRESENTATION_RELATIONSHIP(' ',' ',#447,#444)
REPRESENTATION_RELATIONSHIP_WITH_TRANSFORMATION(#57)
SHAPE_REPRESENTATION_RELATIONSHIP()
);
#55=ITEM_DEFINED_TRANSFORMATION(' ',' ',#448,#466);
#56=ITEM_DEFINED_TRANSFORMATION(' ',' ',#448,#474);
#57=ITEM_DEFINED_TRANSFORMATION(' ',' ',#448,#507);
#58=SHAPE_REPRESENTATION_RELATIONSHIP('','',#445,#61);
#59=SHAPE_REPRESENTATION_RELATIONSHIP('','',#446,#62);
#60=SHAPE_REPRESENTATION_RELATIONSHIP('','',#447,#63);
#61=ADVANCED_BREP_SHAPE_REPRESENTATION('',(#437),#785);
#62=ADVANCED_BREP_SHAPE_REPRESENTATION('',(#438),#786);
#63=ADVANCED_BREP_SHAPE_REPRESENTATION('',(#439),#787);
#64=CYLINDRICAL_SURFACE('',#458,12.5);
#65=CYLINDRICAL_SURFACE('',#469,28.);
#66=CYLINDRICAL_SURFACE('',#480,0.600000000000001);
#67=CYLINDRICAL_SURFACE('',#486,0.600000000000001);
#68=CYLINDRICAL_SURFACE('',#490,12.5);
#69=CYLINDRICAL_SURFACE('',#494,12.2);
#70=CYLINDRICAL_SURFACE('',#500,17.55);
#71=CYLINDRICAL_SURFACE('',#504,17.25);
#72=TOROIDAL_SURFACE('',#454,7.97958582668595,0.400000000000001);
#73=PLANE('',#452);
#74=PLANE('',#456);
#75=PLANE('',#464);
#76=PLANE('',#465);
#77=PLANE('',#467);
#78=PLANE('',#473);
#79=PLANE('',#475);
#80=PLANE('',#478);
#81=PLANE('',#481);
#82=PLANE('',#484);
#83=PLANE('',#487);
#84=PLANE('',#492);
#85=PLANE('',#496);
#86=PLANE('',#502);
#87=PLANE('',#506);
#88=ORIENTED_EDGE('',*,*,#174,.F.);
#89=ORIENTED_EDGE('',*,*,#175,.T.);
#90=ORIENTED_EDGE('',*,*,#176,.T.);
#91=ORIENTED_EDGE('',*,*,#174,.T.);
#92=ORIENTED_EDGE('',*,*,#176,.F.);
#93=ORIENTED_EDGE('',*,*,#177,.T.);
#94=ORIENTED_EDGE('',*,*,#178,.T.);
#95=ORIENTED_EDGE('',*,*,#177,.F.);
#96=ORIENTED_EDGE('',*,*,#179,.T.);
#97=ORIENTED_EDGE('',*,*,#180,.T.);
#98=ORIENTED_EDGE('',*,*,#181,.T.);
#99=ORIENTED_EDGE('',*,*,#180,.F.);
#100=ORIENTED_EDGE('',*,*,#179,.F.);
#101=ORIENTED_EDGE('',*,*,#178,.F.);
#102=ORIENTED_EDGE('',*,*,#181,.F.);
#103=ORIENTED_EDGE('',*,*,#175,.F.);
#104=ORIENTED_EDGE('',*,*,#182,.F.);
#105=ORIENTED_EDGE('',*,*,#182,.T.);
#106=ORIENTED_EDGE('',*,*,#183,.F.);
#107=ORIENTED_EDGE('',*,*,#184,.F.);
#108=ORIENTED_EDGE('',*,*,#183,.T.);
#109=ORIENTED_EDGE('',*,*,#184,.T.);
#110=ORIENTED_EDGE('',*,*,#185,.T.);
#111=ORIENTED_EDGE('',*,*,#186,.T.);
#112=ORIENTED_EDGE('',*,*,#187,.T.);
#113=ORIENTED_EDGE('',*,*,#188,.T.);
#114=ORIENTED_EDGE('',*,*,#189,.F.);
#115=ORIENTED_EDGE('',*,*,#190,.F.);
#116=ORIENTED_EDGE('',*,*,#191,.F.);
#117=ORIENTED_EDGE('',*,*,#192,.F.);
#118=ORIENTED_EDGE('',*,*,#189,.T.);
#119=ORIENTED_EDGE('',*,*,#193,.F.);
#120=ORIENTED_EDGE('',*,*,#194,.F.);
#121=ORIENTED_EDGE('',*,*,#188,.F.);
#122=ORIENTED_EDGE('',*,*,#195,.F.);
#123=ORIENTED_EDGE('',*,*,#196,.F.);
#124=ORIENTED_EDGE('',*,*,#191,.T.);
#125=ORIENTED_EDGE('',*,*,#197,.F.);
#126=ORIENTED_EDGE('',*,*,#198,.T.);
#127=ORIENTED_EDGE('',*,*,#199,.T.);
#128=ORIENTED_EDGE('',*,*,#185,.F.);
#129=ORIENTED_EDGE('',*,*,#194,.T.);
#130=ORIENTED_EDGE('',*,*,#200,.T.);
#131=ORIENTED_EDGE('',*,*,#201,.F.);
#132=ORIENTED_EDGE('',*,*,#200,.F.);
#133=ORIENTED_EDGE('',*,*,#202,.F.);
#134=ORIENTED_EDGE('',*,*,#203,.T.);
#135=ORIENTED_EDGE('',*,*,#204,.F.);
#136=ORIENTED_EDGE('',*,*,#205,.F.);
#137=ORIENTED_EDGE('',*,*,#186,.F.);
#138=ORIENTED_EDGE('',*,*,#199,.F.);
#139=ORIENTED_EDGE('',*,*,#206,.F.);
#140=ORIENTED_EDGE('',*,*,#203,.F.);
#141=ORIENTED_EDGE('',*,*,#207,.F.);
#142=ORIENTED_EDGE('',*,*,#187,.F.);
#143=ORIENTED_EDGE('',*,*,#205,.T.);
#144=ORIENTED_EDGE('',*,*,#208,.T.);
#145=ORIENTED_EDGE('',*,*,#195,.T.);
#146=ORIENTED_EDGE('',*,*,#209,.T.);
#147=ORIENTED_EDGE('',*,*,#208,.F.);
#148=ORIENTED_EDGE('',*,*,#207,.T.);
#149=ORIENTED_EDGE('',*,*,#202,.T.);
#150=ORIENTED_EDGE('',*,*,#201,.T.);
#151=ORIENTED_EDGE('',*,*,#204,.T.);
#152=ORIENTED_EDGE('',*,*,#206,.T.);
#153=ORIENTED_EDGE('',*,*,#198,.F.);
#154=ORIENTED_EDGE('',*,*,#197,.T.);
#155=ORIENTED_EDGE('',*,*,#193,.T.);
#156=ORIENTED_EDGE('',*,*,#190,.T.);
#157=ORIENTED_EDGE('',*,*,#192,.T.);
#158=ORIENTED_EDGE('',*,*,#196,.T.);
#159=ORIENTED_EDGE('',*,*,#210,.T.);
#160=ORIENTED_EDGE('',*,*,#209,.F.);
#161=ORIENTED_EDGE('',*,*,#211,.T.);
#162=ORIENTED_EDGE('',*,*,#210,.F.);
#163=ORIENTED_EDGE('',*,*,#212,.T.);
#164=ORIENTED_EDGE('',*,*,#211,.F.);
#165=ORIENTED_EDGE('',*,*,#213,.T.);
#166=ORIENTED_EDGE('',*,*,#212,.F.);
#167=ORIENTED_EDGE('',*,*,#214,.T.);
#168=ORIENTED_EDGE('',*,*,#213,.F.);
#169=ORIENTED_EDGE('',*,*,#215,.T.);
#170=ORIENTED_EDGE('',*,*,#214,.F.);
#171=ORIENTED_EDGE('',*,*,#216,.F.);
#172=ORIENTED_EDGE('',*,*,#215,.F.);
#173=ORIENTED_EDGE('',*,*,#216,.T.);
#174=EDGE_CURVE('',#217,#217,#252,.T.);
#175=EDGE_CURVE('',#218,#218,#253,.T.);
#176=EDGE_CURVE('',#219,#219,#254,.T.);
#177=EDGE_CURVE('',#220,#220,#255,.T.);
#178=EDGE_CURVE('',#221,#221,#256,.T.);
#179=EDGE_CURVE('',#222,#222,#257,.T.);
#180=EDGE_CURVE('',#223,#223,#258,.T.);
#181=EDGE_CURVE('',#224,#224,#259,.T.);
#182=EDGE_CURVE('',#225,#225,#260,.T.);
#183=EDGE_CURVE('',#226,#226,#261,.T.);
#184=EDGE_CURVE('',#227,#227,#262,.T.);
#185=EDGE_CURVE('',#228,#229,#263,.T.);
#186=EDGE_CURVE('',#229,#230,#26,.T.);
#187=EDGE_CURVE('',#230,#231,#264,.T.);
#188=EDGE_CURVE('',#231,#228,#27,.T.);
#189=EDGE_CURVE('',#232,#233,#28,.T.);
#190=EDGE_CURVE('',#233,#232,#265,.T.);
#191=EDGE_CURVE('',#234,#235,#29,.T.);
#192=EDGE_CURVE('',#232,#234,#18,.T.);
#193=EDGE_CURVE('',#235,#233,#19,.T.);
#194=EDGE_CURVE('',#228,#236,#20,.T.);
#195=EDGE_CURVE('',#237,#231,#21,.T.);
#196=EDGE_CURVE('',#234,#237,#30,.T.);
#197=EDGE_CURVE('',#236,#235,#31,.T.);
#198=EDGE_CURVE('',#236,#238,#266,.T.);
#199=EDGE_CURVE('',#238,#229,#22,.T.);
#200=EDGE_CURVE('',#239,#240,#32,.T.);
#201=EDGE_CURVE('',#239,#240,#267,.T.);
#202=EDGE_CURVE('',#241,#239,#23,.T.);
#203=EDGE_CURVE('',#241,#242,#33,.T.);
#204=EDGE_CURVE('',#240,#242,#24,.T.);
#205=EDGE_CURVE('',#230,#243,#25,.T.);
#206=EDGE_CURVE('',#242,#238,#34,.T.);
#207=EDGE_CURVE('',#243,#241,#35,.T.);
#208=EDGE_CURVE('',#243,#237,#268,.T.);
#209=EDGE_CURVE('',#244,#244,#269,.T.);
#210=EDGE_CURVE('',#245,#245,#270,.T.);
#211=EDGE_CURVE('',#246,#246,#271,.T.);
#212=EDGE_CURVE('',#247,#247,#272,.T.);
#213=EDGE_CURVE('',#248,#248,#273,.T.);
#214=EDGE_CURVE('',#249,#249,#274,.T.);
#215=EDGE_CURVE('',#250,#250,#275,.T.);
#216=EDGE_CURVE('',#251,#251,#276,.T.);
#217=VERTEX_POINT('',#641);
#218=VERTEX_POINT('',#643);
#219=VERTEX_POINT('',#646);
#220=VERTEX_POINT('',#649);
#221=VERTEX_POINT('',#652);
#222=VERTEX_POINT('',#655);
#223=VERTEX_POINT('',#657);
#224=VERTEX_POINT('',#660);
#225=VERTEX_POINT('',#667);
#226=VERTEX_POINT('',#670);
#227=VERTEX_POINT('',#673);
#228=VERTEX_POINT('',#678);
#229=VERTEX_POINT('',#679);
#230=VERTEX_POINT('',#681);
#231=VERTEX_POINT('',#683);
#232=VERTEX_POINT('',#687);
#233=VERTEX_POINT('',#688);
#234=VERTEX_POINT('',#692);
#235=VERTEX_POINT('',#693);
#236=VERTEX_POINT('',#711);
#237=VERTEX_POINT('',#716);
#238=VERTEX_POINT('',#721);
#239=VERTEX_POINT('',#728);
#240=VERTEX_POINT('',#729);
#241=VERTEX_POINT('',#738);
#242=VERTEX_POINT('',#740);
#243=VERTEX_POINT('',#752);
#244=VERTEX_POINT('',#759);
#245=VERTEX_POINT('',#762);
#246=VERTEX_POINT('',#765);
#247=VERTEX_POINT('',#768);
#248=VERTEX_POINT('',#771);
#249=VERTEX_POINT('',#774);
#250=VERTEX_POINT('',#777);
#251=VERTEX_POINT('',#780);
#252=CIRCLE('',#450,27.220577136594);
#253=CIRCLE('',#451,27.2378976446697);
#254=CIRCLE('',#453,7.71501069557948);
#255=CIRCLE('',#455,7.97958582668595);
#256=CIRCLE('',#457,12.3);
#257=CIRCLE('',#459,12.5);
#258=CIRCLE('',#460,12.5);
#259=CIRCLE('',#462,12.3);
#260=CIRCLE('',#468,28.);
#261=CIRCLE('',#470,28.);
#262=CIRCLE('',#472,27.2378976446697);
#263=CIRCLE('',#476,11.5);
#264=CIRCLE('',#477,11.5);
#265=CIRCLE('',#479,12.5);
#266=CIRCLE('',#483,12.5);
#267=CIRCLE('',#485,12.5);
#268=CIRCLE('',#489,12.5);
#269=CIRCLE('',#491,12.5);
#270=CIRCLE('',#493,12.2);
#271=CIRCLE('',#495,12.2);
#272=CIRCLE('',#497,17.05);
#273=CIRCLE('',#499,17.55);
#274=CIRCLE('',#501,17.55);
#275=CIRCLE('',#503,17.25);
#276=CIRCLE('',#505,17.25);
#277=EDGE_LOOP('',(#88));
#278=EDGE_LOOP('',(#89));
#279=EDGE_LOOP('',(#90));
#280=EDGE_LOOP('',(#91));
#281=EDGE_LOOP('',(#92));
#282=EDGE_LOOP('',(#93));
#283=EDGE_LOOP('',(#94));
#284=EDGE_LOOP('',(#95));
#285=EDGE_LOOP('',(#96));
#286=EDGE_LOOP('',(#97));
#287=EDGE_LOOP('',(#98));
#288=EDGE_LOOP('',(#99));
#289=EDGE_LOOP('',(#100));
#290=EDGE_LOOP('',(#101));
#291=EDGE_LOOP('',(#102));
#292=EDGE_LOOP('',(#103));
#293=EDGE_LOOP('',(#104));
#294=EDGE_LOOP('',(#105));
#295=EDGE_LOOP('',(#106));
#296=EDGE_LOOP('',(#107));
#297=EDGE_LOOP('',(#108));
#298=EDGE_LOOP('',(#109));
#299=EDGE_LOOP('',(#110,#111,#112,#113));
#300=EDGE_LOOP('',(#114,#115));
#301=EDGE_LOOP('',(#116,#117,#118,#119));
#302=EDGE_LOOP('',(#120,#121,#122,#123,#124,#125));
#303=EDGE_LOOP('',(#126,#127,#128,#129));
#304=EDGE_LOOP('',(#130,#131));
#305=EDGE_LOOP('',(#132,#133,#134,#135));
#306=EDGE_LOOP('',(#136,#137,#138,#139,#140,#141));
#307=EDGE_LOOP('',(#142,#143,#144,#145));
#308=EDGE_LOOP('',(#146));
#309=EDGE_LOOP('',(#147,#148,#149,#150,#151,#152,#153,#154,#155,#156,#157,
#158));
#310=EDGE_LOOP('',(#159));
#311=EDGE_LOOP('',(#160));
#312=EDGE_LOOP('',(#161));
#313=EDGE_LOOP('',(#162));
#314=EDGE_LOOP('',(#163));
#315=EDGE_LOOP('',(#164));
#316=EDGE_LOOP('',(#165));
#317=EDGE_LOOP('',(#166));
#318=EDGE_LOOP('',(#167));
#319=EDGE_LOOP('',(#168));
#320=EDGE_LOOP('',(#169));
#321=EDGE_LOOP('',(#170));
#322=EDGE_LOOP('',(#171));
#323=EDGE_LOOP('',(#172));
#324=EDGE_LOOP('',(#173));
#325=FACE_BOUND('',#277,.T.);
#326=FACE_BOUND('',#278,.T.);
#327=FACE_BOUND('',#279,.T.);
#328=FACE_BOUND('',#280,.T.);
#329=FACE_BOUND('',#281,.T.);
#330=FACE_BOUND('',#282,.T.);
#331=FACE_BOUND('',#283,.T.);
#332=FACE_BOUND('',#284,.T.);
#333=FACE_BOUND('',#285,.T.);
#334=FACE_BOUND('',#286,.T.);
#335=FACE_BOUND('',#287,.T.);
#336=FACE_BOUND('',#288,.T.);
#337=FACE_BOUND('',#289,.T.);
#338=FACE_BOUND('',#290,.T.);
#339=FACE_BOUND('',#291,.T.);
#340=FACE_BOUND('',#292,.T.);
#341=FACE_BOUND('',#293,.T.);
#342=FACE_BOUND('',#294,.T.);
#343=FACE_BOUND('',#295,.T.);
#344=FACE_BOUND('',#296,.T.);
#345=FACE_BOUND('',#297,.T.);
#346=FACE_BOUND('',#298,.T.);
#347=FACE_BOUND('',#299,.T.);
#348=FACE_BOUND('',#300,.T.);
#349=FACE_BOUND('',#301,.T.);
#350=FACE_BOUND('',#302,.T.);
#351=FACE_BOUND('',#303,.T.);
#352=FACE_BOUND('',#304,.T.);
#353=FACE_BOUND('',#305,.T.);
#354=FACE_BOUND('',#306,.T.);
#355=FACE_BOUND('',#307,.T.);
#356=FACE_BOUND('',#308,.T.);
#357=FACE_BOUND('',#309,.T.);
#358=FACE_BOUND('',#310,.T.);
#359=FACE_BOUND('',#311,.T.);
#360=FACE_BOUND('',#312,.T.);
#361=FACE_BOUND('',#313,.T.);
#362=FACE_BOUND('',#314,.T.);
#363=FACE_BOUND('',#315,.T.);
#364=FACE_BOUND('',#316,.T.);
#365=FACE_BOUND('',#317,.T.);
#366=FACE_BOUND('',#318,.T.);
#367=FACE_BOUND('',#319,.T.);
#368=FACE_BOUND('',#320,.T.);
#369=FACE_BOUND('',#321,.T.);
#370=FACE_BOUND('',#322,.T.);
#371=FACE_BOUND('',#323,.T.);
#372=FACE_BOUND('',#324,.T.);
#373=CONICAL_SURFACE('',#449,27.220577136594,1.0471975511966);
#374=CONICAL_SURFACE('',#461,12.5,0.785398163397445);
#375=CONICAL_SURFACE('',#463,12.3,0.785398163397452);
#376=CONICAL_SURFACE('',#471,27.220577136594,1.0471975511966);
#377=CONICAL_SURFACE('',#482,11.5,0.78539816339745);
#378=CONICAL_SURFACE('',#488,11.5,0.78539816339745);
#379=CONICAL_SURFACE('',#498,17.05,0.785398163397438);
#380=ADVANCED_FACE('',(#325,#326),#373,.T.);
#381=ADVANCED_FACE('',(#327,#328),#73,.T.);
#382=ADVANCED_FACE('',(#329,#330),#72,.F.);
#383=ADVANCED_FACE('',(#331,#332),#74,.T.);
#384=ADVANCED_FACE('',(#333,#334),#64,.T.);
#385=ADVANCED_FACE('',(#335,#336),#374,.T.);
#386=ADVANCED_FACE('',(#337,#338),#375,.T.);
#387=ADVANCED_FACE('',(#339),#75,.T.);
#388=ADVANCED_FACE('',(#340),#76,.T.);
#389=ADVANCED_FACE('',(#341),#77,.T.);
#390=ADVANCED_FACE('',(#342,#343),#65,.T.);
#391=ADVANCED_FACE('',(#344,#345),#376,.T.);
#392=ADVANCED_FACE('',(#346),#78,.F.);
#393=ADVANCED_FACE('',(#347),#79,.T.);
#394=ADVANCED_FACE('',(#348),#80,.T.);
#395=ADVANCED_FACE('',(#349),#66,.F.);
#396=ADVANCED_FACE('',(#350),#81,.T.);
#397=ADVANCED_FACE('',(#351),#377,.T.);
#398=ADVANCED_FACE('',(#352),#82,.T.);
#399=ADVANCED_FACE('',(#353),#67,.F.);
#400=ADVANCED_FACE('',(#354),#83,.T.);
#401=ADVANCED_FACE('',(#355),#378,.T.);
#402=ADVANCED_FACE('',(#356,#357),#68,.T.);
#403=ADVANCED_FACE('',(#358,#359),#84,.T.);
#404=ADVANCED_FACE('',(#360,#361),#69,.T.);
#405=ADVANCED_FACE('',(#362,#363),#85,.T.);
#406=ADVANCED_FACE('',(#364,#365),#379,.T.);
#407=ADVANCED_FACE('',(#366,#367),#70,.T.);
#408=ADVANCED_FACE('',(#368,#369),#86,.T.);
#409=ADVANCED_FACE('',(#370,#371),#71,.T.);
#410=ADVANCED_FACE('',(#372),#87,.F.);
#411=CLOSED_SHELL('',(#380,#381,#382,#383,#384,#385,#386,#387,#388));
#412=CLOSED_SHELL('',(#389,#390,#391,#392));
#413=CLOSED_SHELL('',(#393,#394,#395,#396,#397,#398,#399,#400,#401,#402,
#403,#404,#405,#406,#407,#408,#409,#410));
#414=STYLED_ITEM('',(#417),#437);
#415=STYLED_ITEM('',(#418),#438);
#416=STYLED_ITEM('',(#419),#439);
#417=PRESENTATION_STYLE_ASSIGNMENT((#420));
#418=PRESENTATION_STYLE_ASSIGNMENT((#421));
#419=PRESENTATION_STYLE_ASSIGNMENT((#422));
#420=SURFACE_STYLE_USAGE(.BOTH.,#423);
#421=SURFACE_STYLE_USAGE(.BOTH.,#424);
#422=SURFACE_STYLE_USAGE(.BOTH.,#425);
#423=SURFACE_SIDE_STYLE('',(#426));
#424=SURFACE_SIDE_STYLE('',(#427));
#425=SURFACE_SIDE_STYLE('',(#428));
#426=SURFACE_STYLE_FILL_AREA(#429);
#427=SURFACE_STYLE_FILL_AREA(#430);
#428=SURFACE_STYLE_FILL_AREA(#431);
#429=FILL_AREA_STYLE('',(#432));
#430=FILL_AREA_STYLE('',(#433));
#431=FILL_AREA_STYLE('',(#434));
#432=FILL_AREA_STYLE_COLOUR('',#435);
#433=FILL_AREA_STYLE_COLOUR('',#436);
#434=FILL_AREA_STYLE_COLOUR('',#435);
#435=COLOUR_RGB('',0.500007629510948,0.500007629510948,0.500007629510948);
#436=COLOUR_RGB('',0.8,0.8,0.8);
#437=MANIFOLD_SOLID_BREP('solid',#411);
#438=MANIFOLD_SOLID_BREP('solid',#412);
#439=MANIFOLD_SOLID_BREP('solid',#413);
#440=SHAPE_DEFINITION_REPRESENTATION(#795,#444);
#441=SHAPE_DEFINITION_REPRESENTATION(#796,#445);
#442=SHAPE_DEFINITION_REPRESENTATION(#798,#446);
#443=SHAPE_DEFINITION_REPRESENTATION(#800,#447);
#444=SHAPE_REPRESENTATION('1040 56.000',(#448,#466,#474,#507),#784);
#445=SHAPE_REPRESENTATION('1040 56.000_PART1',(#448),#785);
#446=SHAPE_REPRESENTATION('1040 56.000_PART2',(#448),#786);
#447=SHAPE_REPRESENTATION('1040 56.000_PART3',(#448),#787);
#448=AXIS2_PLACEMENT_3D('',#638,#508,#509);
#449=AXIS2_PLACEMENT_3D('',#639,#510,#511);
#450=AXIS2_PLACEMENT_3D('',#640,#512,#513);
#451=AXIS2_PLACEMENT_3D('',#642,#514,#515);
#452=AXIS2_PLACEMENT_3D('',#644,#516,#517);
#453=AXIS2_PLACEMENT_3D('',#645,#518,#519);
#454=AXIS2_PLACEMENT_3D('',#647,#520,#521);
#455=AXIS2_PLACEMENT_3D('',#648,#522,#523);
#456=AXIS2_PLACEMENT_3D('',#650,#524,#525);
#457=AXIS2_PLACEMENT_3D('',#651,#526,#527);
#458=AXIS2_PLACEMENT_3D('',#653,#528,#529);
#459=AXIS2_PLACEMENT_3D('',#654,#530,#531);
#460=AXIS2_PLACEMENT_3D('',#656,#532,#533);
#461=AXIS2_PLACEMENT_3D('',#658,#534,#535);
#462=AXIS2_PLACEMENT_3D('',#659,#536,#537);
#463=AXIS2_PLACEMENT_3D('',#661,#538,#539);
#464=AXIS2_PLACEMENT_3D('',#662,#540,#541);
#465=AXIS2_PLACEMENT_3D('',#663,#542,#543);
#466=AXIS2_PLACEMENT_3D('',#664,#544,#545);
#467=AXIS2_PLACEMENT_3D('',#665,#546,#547);
#468=AXIS2_PLACEMENT_3D('',#666,#548,#549);
#469=AXIS2_PLACEMENT_3D('',#668,#550,#551);
#470=AXIS2_PLACEMENT_3D('',#669,#552,#553);
#471=AXIS2_PLACEMENT_3D('',#671,#554,#555);
#472=AXIS2_PLACEMENT_3D('',#672,#556,#557);
#473=AXIS2_PLACEMENT_3D('',#674,#558,#559);
#474=AXIS2_PLACEMENT_3D('',#675,#560,#561);
#475=AXIS2_PLACEMENT_3D('',#676,#562,#563);
#476=AXIS2_PLACEMENT_3D('',#677,#564,#565);
#477=AXIS2_PLACEMENT_3D('',#682,#567,#568);
#478=AXIS2_PLACEMENT_3D('',#685,#570,#571);
#479=AXIS2_PLACEMENT_3D('',#689,#573,#574);
#480=AXIS2_PLACEMENT_3D('',#690,#575,#576);
#481=AXIS2_PLACEMENT_3D('',#706,#578,#579);
#482=AXIS2_PLACEMENT_3D('',#719,#582,#583);
#483=AXIS2_PLACEMENT_3D('',#720,#584,#585);
#484=AXIS2_PLACEMENT_3D('',#726,#586,#587);
#485=AXIS2_PLACEMENT_3D('',#730,#589,#590);
#486=AXIS2_PLACEMENT_3D('',#731,#591,#592);
#487=AXIS2_PLACEMENT_3D('',#747,#594,#595);
#488=AXIS2_PLACEMENT_3D('',#755,#598,#599);
#489=AXIS2_PLACEMENT_3D('',#756,#600,#601);
#490=AXIS2_PLACEMENT_3D('',#757,#602,#603);
#491=AXIS2_PLACEMENT_3D('',#758,#604,#605);
#492=AXIS2_PLACEMENT_3D('',#760,#606,#607);
#493=AXIS2_PLACEMENT_3D('',#761,#608,#609);
#494=AXIS2_PLACEMENT_3D('',#763,#610,#611);
#495=AXIS2_PLACEMENT_3D('',#764,#612,#613);
#496=AXIS2_PLACEMENT_3D('',#766,#614,#615);
#497=AXIS2_PLACEMENT_3D('',#767,#616,#617);
#498=AXIS2_PLACEMENT_3D('',#769,#618,#619);
#499=AXIS2_PLACEMENT_3D('',#770,#620,#621);
#500=AXIS2_PLACEMENT_3D('',#772,#622,#623);
#501=AXIS2_PLACEMENT_3D('',#773,#624,#625);
#502=AXIS2_PLACEMENT_3D('',#775,#626,#627);
#503=AXIS2_PLACEMENT_3D('',#776,#628,#629);
#504=AXIS2_PLACEMENT_3D('',#778,#630,#631);
#505=AXIS2_PLACEMENT_3D('',#779,#632,#633);
#506=AXIS2_PLACEMENT_3D('',#781,#634,#635);
#507=AXIS2_PLACEMENT_3D('',#782,#636,#637);
#508=DIRECTION('',(0.,0.,1.));
#509=DIRECTION('',(1.,0.,0.));
#510=DIRECTION('',(0.,0.,1.));
#511=DIRECTION('',(1.,0.,1.57767447688437E-17));
#512=DIRECTION('',(0.,0.,-1.));
#513=DIRECTION('',(-1.,0.,0.));
#514=DIRECTION('',(0.,0.,-1.));
#515=DIRECTION('',(1.,0.,0.));
#516=DIRECTION('',(0.,0.,-1.));
#517=DIRECTION('',(-1.,0.,0.));
#518=DIRECTION('',(0.,0.,1.));
#519=DIRECTION('',(1.,0.,0.));
#520=DIRECTION('',(0.,0.,1.));
#521=DIRECTION('',(0.,-1.,0.));
#522=DIRECTION('',(0.,1.64759429117373E-16,1.));
#523=DIRECTION('',(0.,1.,0.));
#524=DIRECTION('',(0.,0.,1.));
#525=DIRECTION('',(0.,-1.,0.));
#526=DIRECTION('',(0.,1.64759429117373E-16,1.));
#527=DIRECTION('',(0.,1.,0.));
#528=DIRECTION('',(0.,0.,1.));
#529=DIRECTION('',(0.,-1.,0.));
#530=DIRECTION('',(0.,-1.64759429117373E-16,-1.));
#531=DIRECTION('',(0.,1.,0.));
#532=DIRECTION('',(0.,1.64759429117373E-16,1.));
#533=DIRECTION('',(0.,1.,0.));
#534=DIRECTION('',(0.,0.,1.));
#535=DIRECTION('',(0.,-1.,0.));
#536=DIRECTION('',(0.,1.64759429117373E-16,1.));
#537=DIRECTION('',(0.,1.,0.));
#538=DIRECTION('',(0.,0.,-1.));
#539=DIRECTION('',(0.,1.,0.));
#540=DIRECTION('',(0.,0.,-1.));
#541=DIRECTION('',(-1.,0.,0.));
#542=DIRECTION('',(0.,0.,1.));
#543=DIRECTION('',(1.,0.,0.));
#544=DIRECTION('',(0.,0.,1.));
#545=DIRECTION('',(1.,0.,0.));
#546=DIRECTION('',(0.,0.,1.));
#547=DIRECTION('',(1.,0.,0.));
#548=DIRECTION('',(0.,0.,-1.));
#549=DIRECTION('',(1.,0.,0.));
#550=DIRECTION('',(0.,0.,-1.));
#551=DIRECTION('',(-1.,0.,0.));
#552=DIRECTION('',(0.,0.,-1.));
#553=DIRECTION('',(-1.,0.,0.));
#554=DIRECTION('',(0.,0.,1.));
#555=DIRECTION('',(1.,0.,1.57767447688437E-17));
#556=DIRECTION('',(0.,0.,-1.));
#557=DIRECTION('',(1.,0.,0.));
#558=DIRECTION('',(0.,0.,1.));
#559=DIRECTION('',(1.,0.,0.));
#560=DIRECTION('',(0.,0.,1.));
#561=DIRECTION('',(1.,0.,0.));
#562=DIRECTION('',(0.,0.,1.));
#563=DIRECTION('',(1.,0.,0.));
#564=DIRECTION('',(0.,0.,1.));
#565=DIRECTION('',(1.,0.,0.));
#566=DIRECTION('',(-1.,0.,0.));
#567=DIRECTION('',(0.,0.,1.));
#568=DIRECTION('',(1.,0.,0.));
#569=DIRECTION('',(1.,0.,0.));
#570=DIRECTION('',(0.,0.,1.));
#571=DIRECTION('',(1.,0.,0.));
#572=DIRECTION('',(1.,0.,0.));
#573=DIRECTION('',(0.,0.,-1.));
#574=DIRECTION('',(1.,0.,0.));
#575=DIRECTION('',(1.,0.,0.));
#576=DIRECTION('',(0.,0.,-1.));
#577=DIRECTION('',(1.,0.,0.));
#578=DIRECTION('',(0.,-1.,0.));
#579=DIRECTION('',(0.,0.,1.));
#580=DIRECTION('',(0.,0.,1.));
#581=DIRECTION('',(0.,0.,-1.));
#582=DIRECTION('',(0.,0.,-1.));
#583=DIRECTION('',(-1.,0.,0.));
#584=DIRECTION('',(0.,0.,1.));
#585=DIRECTION('',(1.,0.,0.));
#586=DIRECTION('',(0.,0.,1.));
#587=DIRECTION('',(1.,0.,0.));
#588=DIRECTION('',(1.,0.,0.));
#589=DIRECTION('',(0.,0.,-1.));
#590=DIRECTION('',(1.,0.,0.));
#591=DIRECTION('',(1.,0.,0.));
#592=DIRECTION('',(0.,0.,-1.));
#593=DIRECTION('',(1.,0.,0.));
#594=DIRECTION('',(0.,1.,0.));
#595=DIRECTION('',(0.,0.,-1.));
#596=DIRECTION('',(0.,0.,1.));
#597=DIRECTION('',(0.,0.,-1.));
#598=DIRECTION('',(0.,0.,-1.));
#599=DIRECTION('',(-1.,0.,0.));
#600=DIRECTION('',(0.,0.,1.));
#601=DIRECTION('',(1.,0.,0.));
#602=DIRECTION('',(0.,0.,1.));
#603=DIRECTION('',(1.,0.,0.));
#604=DIRECTION('',(0.,0.,1.));
#605=DIRECTION('',(1.,0.,0.));
#606=DIRECTION('',(0.,0.,-1.));
#607=DIRECTION('',(-1.,0.,0.));
#608=DIRECTION('',(0.,0.,1.));
#609=DIRECTION('',(1.,0.,0.));
#610=DIRECTION('',(0.,0.,1.));
#611=DIRECTION('',(1.,0.,0.));
#612=DIRECTION('',(0.,0.,1.));
#613=DIRECTION('',(1.,0.,0.));
#614=DIRECTION('',(0.,0.,1.));
#615=DIRECTION('',(1.,0.,0.));
#616=DIRECTION('',(0.,0.,1.));
#617=DIRECTION('',(1.,0.,0.));
#618=DIRECTION('',(0.,0.,-1.));
#619=DIRECTION('',(-1.,0.,-4.77579837051783E-17));
#620=DIRECTION('',(0.,0.,1.));
#621=DIRECTION('',(1.,0.,0.));
#622=DIRECTION('',(0.,0.,1.));
#623=DIRECTION('',(1.,0.,0.));
#624=DIRECTION('',(0.,0.,1.));
#625=DIRECTION('',(1.,0.,0.));
#626=DIRECTION('',(0.,0.,-1.));
#627=DIRECTION('',(-1.,0.,0.));
#628=DIRECTION('',(0.,0.,1.));
#629=DIRECTION('',(1.,0.,0.));
#630=DIRECTION('',(0.,0.,1.));
#631=DIRECTION('',(1.,0.,0.));
#632=DIRECTION('',(0.,0.,-1.));
#633=DIRECTION('',(1.,0.,0.));
#634=DIRECTION('',(0.,0.,1.));
#635=DIRECTION('',(1.,0.,0.));
#636=DIRECTION('',(0.,0.,1.));
#637=DIRECTION('',(1.,0.,0.));
#638=CARTESIAN_POINT('',(0.,0.,0.));
#639=CARTESIAN_POINT('',(0.,0.,-90.));
#640=CARTESIAN_POINT('',(0.,0.,-90.));
#641=CARTESIAN_POINT('',(-27.220577136594,0.,-90.));
#642=CARTESIAN_POINT('',(0.,0.,-89.99));
#643=CARTESIAN_POINT('',(27.2378976446697,0.,-89.99));
#644=CARTESIAN_POINT('',(0.,0.,-90.));
#645=CARTESIAN_POINT('',(0.,-1.73472347597681E-15,-90.));
#646=CARTESIAN_POINT('',(7.71501069557948,-1.73472347597681E-15,-90.));
#647=CARTESIAN_POINT('',(0.,-1.73472347597681E-15,-89.7));
#648=CARTESIAN_POINT('',(0.,-2.55973071058558E-15,-90.1));
#649=CARTESIAN_POINT('',(0.,7.97958582668595,-90.1));
#650=CARTESIAN_POINT('',(0.,-7.97958582668595,-90.1));
#651=CARTESIAN_POINT('',(0.,-2.55973071058558E-15,-90.1));
#652=CARTESIAN_POINT('',(0.,12.3,-90.1));
#653=CARTESIAN_POINT('',(0.,1.55431223447522E-15,-65.13));
#654=CARTESIAN_POINT('',(0.,-2.59268259640906E-15,-90.3));
#655=CARTESIAN_POINT('',(0.,12.5,-90.3));
#656=CARTESIAN_POINT('',(0.,-2.69153825387948E-15,-90.9));
#657=CARTESIAN_POINT('',(0.,12.5,-90.9));
#658=CARTESIAN_POINT('',(0.,-2.69153825387948E-15,-90.9));
#659=CARTESIAN_POINT('',(0.,-2.72449013970296E-15,-91.1));
#660=CARTESIAN_POINT('',(0.,12.3,-91.1));
#661=CARTESIAN_POINT('',(0.,-2.55973071058558E-15,-90.1));
#662=CARTESIAN_POINT('',(0.,0.,-91.1));
#663=CARTESIAN_POINT('',(0.,0.,-89.99));
#664=CARTESIAN_POINT('',(0.,0.,0.));
#665=CARTESIAN_POINT('',(0.,0.,-65.));
#666=CARTESIAN_POINT('',(0.,0.,-65.));
#667=CARTESIAN_POINT('',(28.,0.,-65.));
#668=CARTESIAN_POINT('',(0.,0.,0.));
#669=CARTESIAN_POINT('',(0.,0.,-89.55));
#670=CARTESIAN_POINT('',(-28.,0.,-89.55));
#671=CARTESIAN_POINT('',(0.,0.,-90.));
#672=CARTESIAN_POINT('',(0.,0.,-89.99));
#673=CARTESIAN_POINT('',(27.2378976446697,0.,-89.99));
#674=CARTESIAN_POINT('',(0.,0.,-89.99));
#675=CARTESIAN_POINT('',(0.,0.,0.));
#676=CARTESIAN_POINT('',(0.,0.,0.));
#677=CARTESIAN_POINT('',(0.,0.,0.));
#678=CARTESIAN_POINT('',(3.35410196624968,-11.,-2.42863894945687E-17));
#679=CARTESIAN_POINT('',(3.35410196624968,11.,8.57648756220358E-16));
#680=CARTESIAN_POINT('',(0.,11.,0.));
#681=CARTESIAN_POINT('',(-3.35410196624968,11.,2.168404344971E-16));
#682=CARTESIAN_POINT('',(0.,0.,0.));
#683=CARTESIAN_POINT('',(-3.35410196624968,-11.,8.41862209541442E-16));
#684=CARTESIAN_POINT('',(0.,-11.,0.));
#685=CARTESIAN_POINT('',(-13.5,-11.6,-13.));
#686=CARTESIAN_POINT('',(-13.5,-11.6,-13.));
#687=CARTESIAN_POINT('',(-4.65725240887801,-11.6,-13.));
#688=CARTESIAN_POINT('',(4.65725240887801,-11.6,-13.));
#689=CARTESIAN_POINT('',(0.,0.,-13.));
#690=CARTESIAN_POINT('',(-13.5,-11.6,-12.4));
#691=CARTESIAN_POINT('',(-13.5,-11.,-12.4));
#692=CARTESIAN_POINT('',(-5.93717104351896,-11.,-12.4));
#693=CARTESIAN_POINT('',(5.93717104351896,-11.,-12.4));
#694=CARTESIAN_POINT('',(-4.65725240887801,-11.6,-13.));
#695=CARTESIAN_POINT('',(-4.91365237858091,-11.4970586744366,-13.));
#696=CARTESIAN_POINT('',(-5.29358282976026,-11.3292259545482,-12.9623187796118));
#697=CARTESIAN_POINT('',(-5.75546910213196,-11.0981995347127,-12.7678045975319));
#698=CARTESIAN_POINT('',(-5.93717104351899,-11.,-12.5410984733849));
#699=CARTESIAN_POINT('',(-5.93717104351899,-11.,-12.4));
#700=CARTESIAN_POINT('',(5.93717104351897,-11.,-12.4));
#701=CARTESIAN_POINT('',(5.93717104351897,-11.,-12.541100463197));
#702=CARTESIAN_POINT('',(5.75533516136192,-11.0982913669896,-12.7681775770275));
#703=CARTESIAN_POINT('',(5.29102127262992,-11.3304381978975,-12.9629269870636));
#704=CARTESIAN_POINT('',(4.91361837195797,-11.4970723276631,-13.));
#705=CARTESIAN_POINT('',(4.65725240887801,-11.6,-13.));
#706=CARTESIAN_POINT('',(-13.5,-11.,1.));
#707=CARTESIAN_POINT('',(3.35410196624968,-11.,6.79987425252225E-17));
#708=CARTESIAN_POINT('',(4.24372122829277,-11.,-0.259467279654981));
#709=CARTESIAN_POINT('',(5.10087950475915,-11.,-0.602783527370825));
#710=CARTESIAN_POINT('',(5.93717104351896,-11.,-0.999999999999997));
#711=CARTESIAN_POINT('',(5.93717104351896,-11.,-0.999999999999999));
#712=CARTESIAN_POINT('',(-5.93717104351896,-11.,-0.999999999999998));
#713=CARTESIAN_POINT('',(-5.10087950475915,-11.,-0.602783527370825));
#714=CARTESIAN_POINT('',(-4.24372122829277,-11.,-0.259467279654981));
#715=CARTESIAN_POINT('',(-3.35410196624968,-11.,8.25820117438925E-16));
#716=CARTESIAN_POINT('',(-5.93717104351896,-11.,-0.999999999999999));
#717=CARTESIAN_POINT('',(-5.93717104351896,-11.,-1.42402673401081E-15));
#718=CARTESIAN_POINT('',(5.93717104351896,-11.,-1.42402673401081E-15));
#719=CARTESIAN_POINT('',(0.,0.,0.));
#720=CARTESIAN_POINT('',(0.,0.,-1.));
#721=CARTESIAN_POINT('',(5.93717104351896,11.,-0.999999999999999));
#722=CARTESIAN_POINT('',(5.93717104351896,11.,-0.999999999999998));
#723=CARTESIAN_POINT('',(5.10087950475915,11.,-0.602783527370825));
#724=CARTESIAN_POINT('',(4.24372122829277,11.,-0.259467279654981));
#725=CARTESIAN_POINT('',(3.35410196624968,11.,8.25420747833523E-16));
#726=CARTESIAN_POINT('',(-13.5,-11.6,-13.));
#727=CARTESIAN_POINT('',(-13.5,11.6,-13.));
#728=CARTESIAN_POINT('',(-4.65725240887801,11.6,-13.));
#729=CARTESIAN_POINT('',(4.65725240887801,11.6,-13.));
#730=CARTESIAN_POINT('',(0.,0.,-13.));
#731=CARTESIAN_POINT('',(-13.5,11.6,-12.4));
#732=CARTESIAN_POINT('',(-5.93717104351897,11.,-12.4));
#733=CARTESIAN_POINT('',(-5.93717104351897,11.,-12.541100463197));
#734=CARTESIAN_POINT('',(-5.75533516136192,11.0982913669896,-12.7681775770275));
#735=CARTESIAN_POINT('',(-5.29102127262992,11.3304381978975,-12.9629269870636));
#736=CARTESIAN_POINT('',(-4.91361837195797,11.4970723276631,-13.));
#737=CARTESIAN_POINT('',(-4.65725240887801,11.6,-13.));
#738=CARTESIAN_POINT('',(-5.93717104351896,11.,-12.4));
#739=CARTESIAN_POINT('',(-13.5,11.,-12.4));
#740=CARTESIAN_POINT('',(5.93717104351896,11.,-12.4));
#741=CARTESIAN_POINT('',(4.65725240887801,11.6,-13.));
#742=CARTESIAN_POINT('',(4.91365237858091,11.4970586744366,-13.));
#743=CARTESIAN_POINT('',(5.29358282976026,11.3292259545482,-12.9623187796118));
#744=CARTESIAN_POINT('',(5.75546910213195,11.0981995347127,-12.7678045975319));
#745=CARTESIAN_POINT('',(5.93717104351899,11.,-12.5410984733849));
#746=CARTESIAN_POINT('',(5.93717104351899,11.,-12.4));
#747=CARTESIAN_POINT('',(-13.5,11.,-12.4));
#748=CARTESIAN_POINT('',(-3.35410196624968,11.,4.336808689942E-16));
#749=CARTESIAN_POINT('',(-4.24372122829277,11.,-0.259467279654981));
#750=CARTESIAN_POINT('',(-5.10087950475915,11.,-0.602783527370825));
#751=CARTESIAN_POINT('',(-5.93717104351896,11.,-0.999999999999997));
#752=CARTESIAN_POINT('',(-5.93717104351896,11.,-0.999999999999999));
#753=CARTESIAN_POINT('',(5.93717104351896,11.,-1.42402673401081E-15));
#754=CARTESIAN_POINT('',(-5.93717104351896,11.,-1.42402673401081E-15));
#755=CARTESIAN_POINT('',(0.,0.,0.));
#756=CARTESIAN_POINT('',(0.,0.,-1.));
#757=CARTESIAN_POINT('',(0.,0.,0.));
#758=CARTESIAN_POINT('',(0.,0.,-53.5));
#759=CARTESIAN_POINT('',(12.5,0.,-53.5));
#760=CARTESIAN_POINT('',(0.,12.5,-53.5));
#761=CARTESIAN_POINT('',(0.,0.,-53.5));
#762=CARTESIAN_POINT('',(12.2,0.,-53.5));
#763=CARTESIAN_POINT('',(0.,0.,0.));
#764=CARTESIAN_POINT('',(0.,0.,-56.));
#765=CARTESIAN_POINT('',(12.2,0.,-56.));
#766=CARTESIAN_POINT('',(0.,12.2,-56.));
#767=CARTESIAN_POINT('',(0.,0.,-56.));
#768=CARTESIAN_POINT('',(17.05,0.,-56.));
#769=CARTESIAN_POINT('',(0.,0.,-56.));
#770=CARTESIAN_POINT('',(0.,0.,-56.5));
#771=CARTESIAN_POINT('',(17.55,0.,-56.5));
#772=CARTESIAN_POINT('',(0.,0.,0.));
#773=CARTESIAN_POINT('',(0.,0.,-62.5));
#774=CARTESIAN_POINT('',(17.55,0.,-62.5));
#775=CARTESIAN_POINT('',(0.,17.55,-62.5));
#776=CARTESIAN_POINT('',(0.,0.,-62.5));
#777=CARTESIAN_POINT('',(17.25,0.,-62.5));
#778=CARTESIAN_POINT('',(0.,0.,0.));
#779=CARTESIAN_POINT('',(0.,0.,-65.));
#780=CARTESIAN_POINT('',(17.25,0.,-65.));
#781=CARTESIAN_POINT('',(0.,0.,-65.));
#782=CARTESIAN_POINT('',(0.,0.,0.));
#783=MECHANICAL_DESIGN_GEOMETRIC_PRESENTATION_REPRESENTATION('',(#414,#415,
#416),#784);
#784=(
GEOMETRIC_REPRESENTATION_CONTEXT(3)
GLOBAL_UNCERTAINTY_ASSIGNED_CONTEXT((#788))
GLOBAL_UNIT_ASSIGNED_CONTEXT((#794,#793,#792))
REPRESENTATION_CONTEXT('1040 56.000','TOP_LEVEL_ASSEMBLY_PART')
);
#785=(
GEOMETRIC_REPRESENTATION_CONTEXT(3)
GLOBAL_UNCERTAINTY_ASSIGNED_CONTEXT((#789))
GLOBAL_UNIT_ASSIGNED_CONTEXT((#794,#793,#792))
REPRESENTATION_CONTEXT('1040 56.000_PART1','COMPONENT_PART')
);
#786=(
GEOMETRIC_REPRESENTATION_CONTEXT(3)
GLOBAL_UNCERTAINTY_ASSIGNED_CONTEXT((#790))
GLOBAL_UNIT_ASSIGNED_CONTEXT((#794,#793,#792))
REPRESENTATION_CONTEXT('1040 56.000_PART2','COMPONENT_PART')
);
#787=(
GEOMETRIC_REPRESENTATION_CONTEXT(3)
GLOBAL_UNCERTAINTY_ASSIGNED_CONTEXT((#791))
GLOBAL_UNIT_ASSIGNED_CONTEXT((#794,#793,#792))
REPRESENTATION_CONTEXT('1040 56.000_PART3','COMPONENT_PART')
);
#788=UNCERTAINTY_MEASURE_WITH_UNIT(LENGTH_MEASURE(1.E-5),#794,
'DISTANCE_ACCURACY_VALUE','Maximum Tolerance applied to model');
#789=UNCERTAINTY_MEASURE_WITH_UNIT(LENGTH_MEASURE(1.E-5),#794,
'DISTANCE_ACCURACY_VALUE','Maximum Tolerance applied to model');
#790=UNCERTAINTY_MEASURE_WITH_UNIT(LENGTH_MEASURE(1.E-5),#794,
'DISTANCE_ACCURACY_VALUE','Maximum Tolerance applied to model');
#791=UNCERTAINTY_MEASURE_WITH_UNIT(LENGTH_MEASURE(1.E-5),#794,
'DISTANCE_ACCURACY_VALUE','Maximum Tolerance applied to model');
#792=(
NAMED_UNIT(*)
SI_UNIT($,.STERADIAN.)
SOLID_ANGLE_UNIT()
);
#793=(
NAMED_UNIT(*)
PLANE_ANGLE_UNIT()
SI_UNIT($,.RADIAN.)
);
#794=(
LENGTH_UNIT()
NAMED_UNIT(*)
SI_UNIT(.MILLI.,.METRE.)
);
#795=PRODUCT_DEFINITION_SHAPE('','',#802);
#796=PRODUCT_DEFINITION_SHAPE('','',#803);
#797=PRODUCT_DEFINITION_SHAPE(' ','NAUO PRDDFN',#49);
#798=PRODUCT_DEFINITION_SHAPE('','',#804);
#799=PRODUCT_DEFINITION_SHAPE(' ','NAUO PRDDFN',#50);
#800=PRODUCT_DEFINITION_SHAPE('','',#805);
#801=PRODUCT_DEFINITION_SHAPE(' ','NAUO PRDDFN',#51);
#802=PRODUCT_DEFINITION('','',#810,#806);
#803=PRODUCT_DEFINITION('','',#811,#807);
#804=PRODUCT_DEFINITION('','',#812,#808);
#805=PRODUCT_DEFINITION('','',#813,#809);
#806=PRODUCT_DEFINITION_CONTEXT('',#831,'design');
#807=PRODUCT_DEFINITION_CONTEXT('',#831,'design');
#808=PRODUCT_DEFINITION_CONTEXT('',#831,'design');
#809=PRODUCT_DEFINITION_CONTEXT('',#831,'design');
#810=PRODUCT_DEFINITION_FORMATION_WITH_SPECIFIED_SOURCE('','',#818,
 .NOT_KNOWN.);
#811=PRODUCT_DEFINITION_FORMATION_WITH_SPECIFIED_SOURCE('','',#819,
 .NOT_KNOWN.);
#812=PRODUCT_DEFINITION_FORMATION_WITH_SPECIFIED_SOURCE('','',#820,
 .NOT_KNOWN.);
#813=PRODUCT_DEFINITION_FORMATION_WITH_SPECIFIED_SOURCE('','',#821,
 .NOT_KNOWN.);
#814=PRODUCT_RELATED_PRODUCT_CATEGORY('','',(#818));
#815=PRODUCT_RELATED_PRODUCT_CATEGORY('','',(#819));
#816=PRODUCT_RELATED_PRODUCT_CATEGORY('','',(#820));
#817=PRODUCT_RELATED_PRODUCT_CATEGORY('','',(#821));
#818=PRODUCT('1040 56.000','1040 56.000','1040 56.000',(#826));
#819=PRODUCT('1040 56.000_PART1','1040 56.000_PART1',
'1040 56.000_PART1',(#827));
#820=PRODUCT('1040 56.000_PART2','1040 56.000_PART2',
'1040 56.000_PART2',(#828));
#821=PRODUCT('1040 56.000_PART3','1040 56.000_PART3',
'1040 56.000_PART3',(#829));
#822=PRODUCT_CATEGORY('','');
#823=PRODUCT_CATEGORY('','');
#824=PRODUCT_CATEGORY('','');
#825=PRODUCT_CATEGORY('','');
#826=PRODUCT_CONTEXT('',#831,'mechanical');
#827=PRODUCT_CONTEXT('',#831,'mechanical');
#828=PRODUCT_CONTEXT('',#831,'mechanical');
#829=PRODUCT_CONTEXT('',#831,'mechanical');
#830=APPLICATION_PROTOCOL_DEFINITION('international standard',
'automotive_design',2010,#831);
#831=APPLICATION_CONTEXT(
'core data for automotive mechanical design processes');
ENDSEC;
END-ISO-10303-21;
