ISO-10303-21;
HEADER;
/* Generated by software containing ST-Developer
 * from STEP Tools, Inc. (www.steptools.com) 
 */
/* OPTION: using custom renumber hook */

FILE_DESCRIPTION(
/* description */ ('STEP AP214'),
/* implementation_level */ '2;1');

FILE_NAME(
/* name */ '1058 6.004',
/* time_stamp */ '2026-05-14T15:14:33+02:00',
/* author */ ('License CC BY-ND 4.0'),
/* organization */ ('CADENAS'),
/* preprocessor_version */ 'ST-DEVELOPER v20',
/* originating_system */ 'PARTsolutions',
/* authorisation */ '  ');

FILE_SCHEMA (('AUTOMOTIVE_DESIGN {1 0 10303 214 3 1 1}'));
ENDSEC;

DATA;
#10=PROPERTY_DEFINITION_REPRESENTATION(#14,#12);
#11=PROPERTY_DEFINITION_REPRESENTATION(#15,#13);
#12=REPRESENTATION('',(#16),#501);
#13=REPRESENTATION('',(#17),#501);
#14=PROPERTY_DEFINITION('pmi validation property','',#512);
#15=PROPERTY_DEFINITION('pmi validation property','',#512);
#16=VALUE_REPRESENTATION_ITEM('number of annotations',COUNT_MEASURE(0.));
#17=VALUE_REPRESENTATION_ITEM('number of views',COUNT_MEASURE(0.));
#18=CONTEXT_DEPENDENT_SHAPE_REPRESENTATION(#24,#514);
#19=CONTEXT_DEPENDENT_SHAPE_REPRESENTATION(#25,#516);
#20=CONTEXT_DEPENDENT_SHAPE_REPRESENTATION(#26,#518);
#21=NEXT_ASSEMBLY_USAGE_OCCURRENCE('NAUO1','1058 6.004_PART1',
'1058 6.004_PART1',#519,#520,'');
#22=NEXT_ASSEMBLY_USAGE_OCCURRENCE('NAUO2','1058 6.004_PART2',
'1058 6.004_PART2',#519,#521,'');
#23=NEXT_ASSEMBLY_USAGE_OCCURRENCE('NAUO3','1058 6.004_PART3',
'1058 6.004_PART3',#519,#522,'');
#24=(
REPRESENTATION_RELATIONSHIP(' ',' ',#290,#289)
REPRESENTATION_RELATIONSHIP_WITH_TRANSFORMATION(#27)
SHAPE_REPRESENTATION_RELATIONSHIP()
);
#25=(
REPRESENTATION_RELATIONSHIP(' ',' ',#291,#289)
REPRESENTATION_RELATIONSHIP_WITH_TRANSFORMATION(#28)
SHAPE_REPRESENTATION_RELATIONSHIP()
);
#26=(
REPRESENTATION_RELATIONSHIP(' ',' ',#292,#289)
REPRESENTATION_RELATIONSHIP_WITH_TRANSFORMATION(#29)
SHAPE_REPRESENTATION_RELATIONSHIP()
);
#27=ITEM_DEFINED_TRANSFORMATION(' ',' ',#293,#314);
#28=ITEM_DEFINED_TRANSFORMATION(' ',' ',#293,#328);
#29=ITEM_DEFINED_TRANSFORMATION(' ',' ',#293,#338);
#30=SHAPE_REPRESENTATION_RELATIONSHIP('','',#290,#33);
#31=SHAPE_REPRESENTATION_RELATIONSHIP('','',#291,#34);
#32=SHAPE_REPRESENTATION_RELATIONSHIP('','',#292,#35);
#33=ADVANCED_BREP_SHAPE_REPRESENTATION('',(#282),#502);
#34=ADVANCED_BREP_SHAPE_REPRESENTATION('',(#283),#503);
#35=ADVANCED_BREP_SHAPE_REPRESENTATION('',(#284),#504);
#36=TOROIDAL_SURFACE('',#305,2.351,0.001);
#37=CYLINDRICAL_SURFACE('',#301,2.95);
#38=CYLINDRICAL_SURFACE('',#309,2.35);
#39=CYLINDRICAL_SURFACE('',#311,3.);
#40=CYLINDRICAL_SURFACE('',#327,3.03);
#41=CYLINDRICAL_SURFACE('',#333,0.001);
#42=B_SPLINE_CURVE_WITH_KNOTS('',3,(#438,#439,#440,#441,#442),
 .UNSPECIFIED.,.T.,.F.,(1,1,1,1,1,1,1,1,1),(-1.5,-1.,-0.5,0.,0.5,1.,1.5,
2.,2.5),.UNSPECIFIED.);
#43=CONICAL_SURFACE('',#296,1.7,1.361356815);
#44=CONICAL_SURFACE('',#299,2.95,0.7853981625);
#45=CONICAL_SURFACE('',#303,3.,0.7853981625);
#46=CONICAL_SURFACE('',#308,2.350134,0.523598775);
#47=CONICAL_SURFACE('',#313,3.,0.13962634);
#48=CONICAL_SURFACE('',#315,3.0162349,0.7853981625);
#49=CONICAL_SURFACE('',#320,1.5,1.04719755);
#50=CONICAL_SURFACE('',#323,3.025,0.2449786628);
#51=CONICAL_SURFACE('',#325,2.350134,0.523598775);
#52=CONICAL_SURFACE('',#335,1.5,1.04719755);
#53=CONICAL_SURFACE('',#337,1.5,0.7853981625);
#54=ORIENTED_EDGE('',*,*,#94,.T.);
#55=ORIENTED_EDGE('',*,*,#95,.T.);
#56=ORIENTED_EDGE('',*,*,#96,.T.);
#57=ORIENTED_EDGE('',*,*,#96,.F.);
#58=ORIENTED_EDGE('',*,*,#97,.T.);
#59=ORIENTED_EDGE('',*,*,#95,.F.);
#60=ORIENTED_EDGE('',*,*,#98,.T.);
#61=ORIENTED_EDGE('',*,*,#97,.F.);
#62=ORIENTED_EDGE('',*,*,#99,.T.);
#63=ORIENTED_EDGE('',*,*,#98,.F.);
#64=ORIENTED_EDGE('',*,*,#100,.T.);
#65=ORIENTED_EDGE('',*,*,#101,.F.);
#66=ORIENTED_EDGE('',*,*,#100,.F.);
#67=ORIENTED_EDGE('',*,*,#94,.F.);
#68=ORIENTED_EDGE('',*,*,#102,.F.);
#69=ORIENTED_EDGE('',*,*,#101,.T.);
#70=ORIENTED_EDGE('',*,*,#103,.T.);
#71=ORIENTED_EDGE('',*,*,#99,.F.);
#72=ORIENTED_EDGE('',*,*,#103,.F.);
#73=ORIENTED_EDGE('',*,*,#102,.T.);
#74=ORIENTED_EDGE('',*,*,#104,.F.);
#75=ORIENTED_EDGE('',*,*,#105,.T.);
#76=ORIENTED_EDGE('',*,*,#106,.F.);
#77=ORIENTED_EDGE('',*,*,#104,.T.);
#78=ORIENTED_EDGE('',*,*,#106,.T.);
#79=ORIENTED_EDGE('',*,*,#107,.F.);
#80=ORIENTED_EDGE('',*,*,#105,.F.);
#81=ORIENTED_EDGE('',*,*,#108,.F.);
#82=ORIENTED_EDGE('',*,*,#109,.T.);
#83=ORIENTED_EDGE('',*,*,#107,.T.);
#84=ORIENTED_EDGE('',*,*,#109,.F.);
#85=ORIENTED_EDGE('',*,*,#108,.T.);
#86=ORIENTED_EDGE('',*,*,#110,.T.);
#87=ORIENTED_EDGE('',*,*,#111,.T.);
#88=ORIENTED_EDGE('',*,*,#112,.T.);
#89=ORIENTED_EDGE('',*,*,#110,.F.);
#90=ORIENTED_EDGE('',*,*,#111,.F.);
#91=ORIENTED_EDGE('',*,*,#113,.T.);
#92=ORIENTED_EDGE('',*,*,#113,.F.);
#93=ORIENTED_EDGE('',*,*,#112,.F.);
#94=EDGE_CURVE('',#114,#114,#132,.T.);
#95=EDGE_CURVE('',#115,#115,#133,.T.);
#96=EDGE_CURVE('',#116,#116,#42,.F.);
#97=EDGE_CURVE('',#117,#117,#134,.T.);
#98=EDGE_CURVE('',#118,#118,#135,.T.);
#99=EDGE_CURVE('',#119,#119,#136,.T.);
#100=EDGE_CURVE('',#120,#120,#137,.T.);
#101=EDGE_CURVE('',#120,#120,#138,.T.);
#102=EDGE_CURVE('',#121,#121,#139,.T.);
#103=EDGE_CURVE('',#122,#122,#140,.T.);
#104=EDGE_CURVE('',#123,#123,#141,.T.);
#105=EDGE_CURVE('',#124,#124,#142,.T.);
#106=EDGE_CURVE('',#125,#125,#143,.T.);
#107=EDGE_CURVE('',#126,#126,#144,.T.);
#108=EDGE_CURVE('',#127,#127,#145,.T.);
#109=EDGE_CURVE('',#128,#128,#146,.T.);
#110=EDGE_CURVE('',#129,#129,#147,.T.);
#111=EDGE_CURVE('',#130,#130,#148,.T.);
#112=EDGE_CURVE('',#129,#129,#149,.T.);
#113=EDGE_CURVE('',#131,#131,#150,.T.);
#114=VERTEX_POINT('',#434);
#115=VERTEX_POINT('',#437);
#116=VERTEX_POINT('',#443);
#117=VERTEX_POINT('',#447);
#118=VERTEX_POINT('',#450);
#119=VERTEX_POINT('',#453);
#120=VERTEX_POINT('',#456);
#121=VERTEX_POINT('',#461);
#122=VERTEX_POINT('',#464);
#123=VERTEX_POINT('',#469);
#124=VERTEX_POINT('',#471);
#125=VERTEX_POINT('',#474);
#126=VERTEX_POINT('',#478);
#127=VERTEX_POINT('',#481);
#128=VERTEX_POINT('',#484);
#129=VERTEX_POINT('',#489);
#130=VERTEX_POINT('',#492);
#131=VERTEX_POINT('',#497);
#132=CIRCLE('',#295,2.9803222);
#133=CIRCLE('',#297,1.7);
#134=CIRCLE('',#300,2.95);
#135=CIRCLE('',#302,2.95);
#136=CIRCLE('',#304,3.);
#137=CIRCLE('',#306,2.350134);
#138=CIRCLE('',#307,2.35);
#139=CIRCLE('',#310,2.35);
#140=CIRCLE('',#312,3.);
#141=CIRCLE('',#316,3.0162349);
#142=CIRCLE('',#317,3.02623484825256);
#143=CIRCLE('',#319,2.385734);
#144=CIRCLE('',#322,2.9803222);
#145=CIRCLE('',#324,3.03);
#146=CIRCLE('',#326,3.03);
#147=CIRCLE('',#330,0.001);
#148=CIRCLE('',#332,2.385734);
#149=CIRCLE('',#334,0.001);
#150=CIRCLE('',#336,1.5);
#151=EDGE_LOOP('',(#54));
#152=EDGE_LOOP('',(#55));
#153=EDGE_LOOP('',(#56));
#154=EDGE_LOOP('',(#57));
#155=EDGE_LOOP('',(#58));
#156=EDGE_LOOP('',(#59));
#157=EDGE_LOOP('',(#60));
#158=EDGE_LOOP('',(#61));
#159=EDGE_LOOP('',(#62));
#160=EDGE_LOOP('',(#63));
#161=EDGE_LOOP('',(#64,#65));
#162=EDGE_LOOP('',(#66));
#163=EDGE_LOOP('',(#67));
#164=EDGE_LOOP('',(#68));
#165=EDGE_LOOP('',(#69));
#166=EDGE_LOOP('',(#70));
#167=EDGE_LOOP('',(#71));
#168=EDGE_LOOP('',(#72));
#169=EDGE_LOOP('',(#73));
#170=EDGE_LOOP('',(#74));
#171=EDGE_LOOP('',(#75));
#172=EDGE_LOOP('',(#76));
#173=EDGE_LOOP('',(#77));
#174=EDGE_LOOP('',(#78));
#175=EDGE_LOOP('',(#79));
#176=EDGE_LOOP('',(#80));
#177=EDGE_LOOP('',(#81));
#178=EDGE_LOOP('',(#82));
#179=EDGE_LOOP('',(#83));
#180=EDGE_LOOP('',(#84));
#181=EDGE_LOOP('',(#85));
#182=EDGE_LOOP('',(#86));
#183=EDGE_LOOP('',(#87));
#184=EDGE_LOOP('',(#88,#89));
#185=EDGE_LOOP('',(#90));
#186=EDGE_LOOP('',(#91));
#187=EDGE_LOOP('',(#92));
#188=EDGE_LOOP('',(#93));
#189=FACE_BOUND('',#151,.T.);
#190=FACE_BOUND('',#152,.T.);
#191=FACE_BOUND('',#153,.T.);
#192=FACE_BOUND('',#154,.T.);
#193=FACE_BOUND('',#155,.T.);
#194=FACE_BOUND('',#156,.T.);
#195=FACE_BOUND('',#157,.T.);
#196=FACE_BOUND('',#158,.T.);
#197=FACE_BOUND('',#159,.T.);
#198=FACE_BOUND('',#160,.T.);
#199=FACE_BOUND('',#161,.T.);
#200=FACE_BOUND('',#162,.T.);
#201=FACE_BOUND('',#163,.T.);
#202=FACE_BOUND('',#164,.T.);
#203=FACE_BOUND('',#165,.T.);
#204=FACE_BOUND('',#166,.T.);
#205=FACE_BOUND('',#167,.T.);
#206=FACE_BOUND('',#168,.T.);
#207=FACE_BOUND('',#169,.T.);
#208=FACE_BOUND('',#170,.T.);
#209=FACE_BOUND('',#171,.T.);
#210=FACE_BOUND('',#172,.T.);
#211=FACE_BOUND('',#173,.T.);
#212=FACE_BOUND('',#174,.T.);
#213=FACE_BOUND('',#175,.T.);
#214=FACE_BOUND('',#176,.T.);
#215=FACE_BOUND('',#177,.T.);
#216=FACE_BOUND('',#178,.T.);
#217=FACE_BOUND('',#179,.T.);
#218=FACE_BOUND('',#180,.T.);
#219=FACE_BOUND('',#181,.T.);
#220=FACE_BOUND('',#182,.T.);
#221=FACE_BOUND('',#183,.T.);
#222=FACE_BOUND('',#184,.T.);
#223=FACE_BOUND('',#185,.T.);
#224=FACE_BOUND('',#186,.T.);
#225=FACE_BOUND('',#187,.T.);
#226=FACE_BOUND('',#188,.T.);
#227=PLANE('',#294);
#228=PLANE('',#298);
#229=PLANE('',#318);
#230=PLANE('',#321);
#231=PLANE('',#329);
#232=PLANE('',#331);
#233=ADVANCED_FACE('',(#189),#227,.F.);
#234=ADVANCED_FACE('',(#190,#191),#43,.T.);
#235=ADVANCED_FACE('',(#192),#228,.T.);
#236=ADVANCED_FACE('',(#193,#194),#44,.T.);
#237=ADVANCED_FACE('',(#195,#196),#37,.T.);
#238=ADVANCED_FACE('',(#197,#198),#45,.T.);
#239=ADVANCED_FACE('',(#199),#36,.F.);
#240=ADVANCED_FACE('',(#200,#201),#46,.T.);
#241=ADVANCED_FACE('',(#202,#203),#38,.T.);
#242=ADVANCED_FACE('',(#204,#205),#39,.T.);
#243=ADVANCED_FACE('',(#206,#207),#47,.T.);
#244=ADVANCED_FACE('',(#208,#209),#48,.T.);
#245=ADVANCED_FACE('',(#210),#229,.F.);
#246=ADVANCED_FACE('',(#211,#212),#49,.T.);
#247=ADVANCED_FACE('',(#213),#230,.T.);
#248=ADVANCED_FACE('',(#214,#215),#50,.T.);
#249=ADVANCED_FACE('',(#216,#217),#51,.T.);
#250=ADVANCED_FACE('',(#218,#219),#40,.T.);
#251=ADVANCED_FACE('',(#220),#231,.F.);
#252=ADVANCED_FACE('',(#221),#232,.T.);
#253=ADVANCED_FACE('',(#222),#41,.T.);
#254=ADVANCED_FACE('',(#223,#224),#52,.T.);
#255=ADVANCED_FACE('',(#225,#226),#53,.T.);
#256=CLOSED_SHELL('',(#233,#234,#235,#236,#237,#238,#239,#240,#241,#242,
#243));
#257=CLOSED_SHELL('',(#244,#245,#246,#247,#248,#249,#250));
#258=CLOSED_SHELL('',(#251,#252,#253,#254,#255));
#259=STYLED_ITEM('',(#262),#282);
#260=STYLED_ITEM('',(#263),#283);
#261=STYLED_ITEM('',(#264),#284);
#262=PRESENTATION_STYLE_ASSIGNMENT((#265));
#263=PRESENTATION_STYLE_ASSIGNMENT((#266));
#264=PRESENTATION_STYLE_ASSIGNMENT((#267));
#265=SURFACE_STYLE_USAGE(.BOTH.,#268);
#266=SURFACE_STYLE_USAGE(.BOTH.,#269);
#267=SURFACE_STYLE_USAGE(.BOTH.,#270);
#268=SURFACE_SIDE_STYLE('',(#271));
#269=SURFACE_SIDE_STYLE('',(#272));
#270=SURFACE_SIDE_STYLE('',(#273));
#271=SURFACE_STYLE_FILL_AREA(#274);
#272=SURFACE_STYLE_FILL_AREA(#275);
#273=SURFACE_STYLE_FILL_AREA(#276);
#274=FILL_AREA_STYLE('',(#277));
#275=FILL_AREA_STYLE('',(#278));
#276=FILL_AREA_STYLE('',(#279));
#277=FILL_AREA_STYLE_COLOUR('',#280);
#278=FILL_AREA_STYLE_COLOUR('',#281);
#279=FILL_AREA_STYLE_COLOUR('',#280);
#280=COLOUR_RGB('',0.4999923706,0.4999923706,0.4999923706);
#281=COLOUR_RGB('',0.8000000119,0.8000000119,0.8000000119);
#282=MANIFOLD_SOLID_BREP('1',#256);
#283=MANIFOLD_SOLID_BREP('1',#257);
#284=MANIFOLD_SOLID_BREP('1',#258);
#285=SHAPE_DEFINITION_REPRESENTATION(#512,#289);
#286=SHAPE_DEFINITION_REPRESENTATION(#513,#290);
#287=SHAPE_DEFINITION_REPRESENTATION(#515,#291);
#288=SHAPE_DEFINITION_REPRESENTATION(#517,#292);
#289=SHAPE_REPRESENTATION('1058 6.004',(#293,#314,#328,#338),#501);
#290=SHAPE_REPRESENTATION('1058 6.004_PART1',(#293),#502);
#291=SHAPE_REPRESENTATION('1058 6.004_PART2',(#293),#503);
#292=SHAPE_REPRESENTATION('1058 6.004_PART3',(#293),#504);
#293=AXIS2_PLACEMENT_3D('',#431,#339,#340);
#294=AXIS2_PLACEMENT_3D('',#432,#341,#342);
#295=AXIS2_PLACEMENT_3D('',#433,#343,#344);
#296=AXIS2_PLACEMENT_3D('',#435,#345,#346);
#297=AXIS2_PLACEMENT_3D('',#436,#347,#348);
#298=AXIS2_PLACEMENT_3D('',#444,#349,#350);
#299=AXIS2_PLACEMENT_3D('',#445,#351,#352);
#300=AXIS2_PLACEMENT_3D('',#446,#353,#354);
#301=AXIS2_PLACEMENT_3D('',#448,#355,#356);
#302=AXIS2_PLACEMENT_3D('',#449,#357,#358);
#303=AXIS2_PLACEMENT_3D('',#451,#359,#360);
#304=AXIS2_PLACEMENT_3D('',#452,#361,#362);
#305=AXIS2_PLACEMENT_3D('',#454,#363,#364);
#306=AXIS2_PLACEMENT_3D('',#455,#365,#366);
#307=AXIS2_PLACEMENT_3D('',#457,#367,#368);
#308=AXIS2_PLACEMENT_3D('',#458,#369,#370);
#309=AXIS2_PLACEMENT_3D('',#459,#371,#372);
#310=AXIS2_PLACEMENT_3D('',#460,#373,#374);
#311=AXIS2_PLACEMENT_3D('',#462,#375,#376);
#312=AXIS2_PLACEMENT_3D('',#463,#377,#378);
#313=AXIS2_PLACEMENT_3D('',#465,#379,#380);
#314=AXIS2_PLACEMENT_3D('',#466,#381,#382);
#315=AXIS2_PLACEMENT_3D('',#467,#383,#384);
#316=AXIS2_PLACEMENT_3D('',#468,#385,#386);
#317=AXIS2_PLACEMENT_3D('',#470,#387,#388);
#318=AXIS2_PLACEMENT_3D('',#472,#389,#390);
#319=AXIS2_PLACEMENT_3D('',#473,#391,#392);
#320=AXIS2_PLACEMENT_3D('',#475,#393,#394);
#321=AXIS2_PLACEMENT_3D('',#476,#395,#396);
#322=AXIS2_PLACEMENT_3D('',#477,#397,#398);
#323=AXIS2_PLACEMENT_3D('',#479,#399,#400);
#324=AXIS2_PLACEMENT_3D('',#480,#401,#402);
#325=AXIS2_PLACEMENT_3D('',#482,#403,#404);
#326=AXIS2_PLACEMENT_3D('',#483,#405,#406);
#327=AXIS2_PLACEMENT_3D('',#485,#407,#408);
#328=AXIS2_PLACEMENT_3D('',#486,#409,#410);
#329=AXIS2_PLACEMENT_3D('',#487,#411,#412);
#330=AXIS2_PLACEMENT_3D('',#488,#413,#414);
#331=AXIS2_PLACEMENT_3D('',#490,#415,#416);
#332=AXIS2_PLACEMENT_3D('',#491,#417,#418);
#333=AXIS2_PLACEMENT_3D('',#493,#419,#420);
#334=AXIS2_PLACEMENT_3D('',#494,#421,#422);
#335=AXIS2_PLACEMENT_3D('',#495,#423,#424);
#336=AXIS2_PLACEMENT_3D('',#496,#425,#426);
#337=AXIS2_PLACEMENT_3D('',#498,#427,#428);
#338=AXIS2_PLACEMENT_3D('',#499,#429,#430);
#339=DIRECTION('',(0.,0.,1.));
#340=DIRECTION('',(1.,0.,0.));
#341=DIRECTION('',(0.,0.,1.));
#342=DIRECTION('',(1.,0.,0.));
#343=DIRECTION('',(0.,0.,-1.));
#344=DIRECTION('',(1.,0.,0.));
#345=DIRECTION('',(7.37187335194832E-19,0.,-1.));
#346=DIRECTION('',(-1.,0.,-7.37187335194832E-19));
#347=DIRECTION('',(0.,0.,1.));
#348=DIRECTION('',(1.,0.,0.));
#349=DIRECTION('',(0.,0.,1.));
#350=DIRECTION('',(1.,0.,0.));
#351=DIRECTION('',(-1.88096293945339E-17,0.,-1.));
#352=DIRECTION('',(-1.,0.,1.88096293945339E-17));
#353=DIRECTION('',(0.,0.,1.));
#354=DIRECTION('',(1.,0.,0.));
#355=DIRECTION('',(0.,0.,-1.));
#356=DIRECTION('',(1.,0.,0.));
#357=DIRECTION('',(0.,0.,1.));
#358=DIRECTION('',(1.,0.,0.));
#359=DIRECTION('',(0.,0.,-1.));
#360=DIRECTION('',(-1.,0.,0.));
#361=DIRECTION('',(0.,0.,1.));
#362=DIRECTION('',(1.,0.,0.));
#363=DIRECTION('',(0.,0.,1.));
#364=DIRECTION('',(1.,0.,0.));
#365=DIRECTION('',(0.,0.,1.));
#366=DIRECTION('',(1.,0.,0.));
#367=DIRECTION('',(0.,0.,1.));
#368=DIRECTION('',(1.,0.,0.));
#369=DIRECTION('',(-4.78791725245114E-17,0.,-1.));
#370=DIRECTION('',(-1.,0.,4.78791725245114E-17));
#371=DIRECTION('',(0.,0.,-1.));
#372=DIRECTION('',(1.,0.,0.));
#373=DIRECTION('',(0.,0.,1.));
#374=DIRECTION('',(1.,0.,0.));
#375=DIRECTION('',(0.,0.,-1.));
#376=DIRECTION('',(1.,0.,0.));
#377=DIRECTION('',(0.,0.,1.));
#378=DIRECTION('',(1.,0.,0.));
#379=DIRECTION('',(0.,0.,1.));
#380=DIRECTION('',(1.,0.,0.));
#381=DIRECTION('',(0.,0.,1.));
#382=DIRECTION('',(1.,0.,0.));
#383=DIRECTION('',(-1.38360550163209E-17,0.,1.));
#384=DIRECTION('',(1.,0.,1.38360550163209E-17));
#385=DIRECTION('',(0.,0.,-1.));
#386=DIRECTION('',(-1.,0.,0.));
#387=DIRECTION('',(0.,0.,-1.));
#388=DIRECTION('',(-1.,0.,0.));
#389=DIRECTION('',(0.,0.,1.));
#390=DIRECTION('',(1.,0.,0.));
#391=DIRECTION('',(0.,0.,1.));
#392=DIRECTION('',(1.,0.,0.));
#393=DIRECTION('',(1.60108232735059E-17,0.,1.));
#394=DIRECTION('',(1.,0.,-1.60108232735059E-17));
#395=DIRECTION('',(0.,0.,1.));
#396=DIRECTION('',(1.,0.,0.));
#397=DIRECTION('',(0.,0.,-1.));
#398=DIRECTION('',(1.,0.,0.));
#399=DIRECTION('',(0.,0.,1.));
#400=DIRECTION('',(1.,0.,0.));
#401=DIRECTION('',(0.,0.,1.));
#402=DIRECTION('',(1.,0.,0.));
#403=DIRECTION('',(-4.78791725245114E-17,0.,-1.));
#404=DIRECTION('',(-1.,0.,4.78791725245114E-17));
#405=DIRECTION('',(4.78791725245114E-17,0.,1.));
#406=DIRECTION('',(-1.,0.,4.78791725245114E-17));
#407=DIRECTION('',(0.,0.,-1.));
#408=DIRECTION('',(1.,0.,0.));
#409=DIRECTION('',(0.,0.,1.));
#410=DIRECTION('',(1.,0.,0.));
#411=DIRECTION('',(0.,0.,1.));
#412=DIRECTION('',(1.,0.,0.));
#413=DIRECTION('',(0.,0.,-1.));
#414=DIRECTION('',(1.,0.,0.));
#415=DIRECTION('',(0.,0.,1.));
#416=DIRECTION('',(1.,0.,0.));
#417=DIRECTION('',(0.,0.,1.));
#418=DIRECTION('',(1.,0.,0.));
#419=DIRECTION('',(0.,0.,1.));
#420=DIRECTION('',(-1.,0.,0.));
#421=DIRECTION('',(0.,0.,-1.));
#422=DIRECTION('',(1.,0.,0.));
#423=DIRECTION('',(1.60108232735059E-17,0.,1.));
#424=DIRECTION('',(1.,0.,-1.60108232735059E-17));
#425=DIRECTION('',(0.,0.,1.));
#426=DIRECTION('',(1.,0.,0.));
#427=DIRECTION('',(2.77140046087159E-17,0.,1.));
#428=DIRECTION('',(1.,0.,-2.77140046087159E-17));
#429=DIRECTION('',(0.,0.,1.));
#430=DIRECTION('',(1.,0.,0.));
#431=CARTESIAN_POINT('',(0.,0.,0.));
#432=CARTESIAN_POINT('',(-4.23246823223666E-16,0.,-69.1257410901706));
#433=CARTESIAN_POINT('',(-1.00004232468232E-11,0.,-69.1257410901806));
#434=CARTESIAN_POINT('',(2.98032219999,0.,-69.1257410901806));
#435=CARTESIAN_POINT('',(-4.23246823223666E-16,0.,-0.361300000000005));
#436=CARTESIAN_POINT('',(-1.00004232468232E-11,0.,-0.36130000001));
#437=CARTESIAN_POINT('',(1.69999999999,0.,-0.36130000001));
#438=CARTESIAN_POINT('',(-0.000300000010000423,-1.22464679914735E-20,0.));
#439=CARTESIAN_POINT('',(0.000299999989999577,2.44929359829471E-20,0.));
#440=CARTESIAN_POINT('',(-0.000300000010000423,-1.22464679914735E-20,0.));
#441=CARTESIAN_POINT('',(0.000299999989999577,2.44929359829471E-20,0.));
#442=CARTESIAN_POINT('',(-0.000300000010000423,-1.22464679914735E-20,0.));
#443=CARTESIAN_POINT('',(4.99999949995766E-5,6.12323399573677E-21,2.30788014960728E-5));
#444=CARTESIAN_POINT('',(-4.23246823223666E-16,0.,0.));
#445=CARTESIAN_POINT('',(-4.23246823223666E-16,0.,-1.6113));
#446=CARTESIAN_POINT('',(-1.00004232468232E-11,0.,-1.61130000001));
#447=CARTESIAN_POINT('',(2.94999999999,0.,-1.61130000001));
#448=CARTESIAN_POINT('',(-4.23246823223666E-16,0.,-82.3612787443438));
#449=CARTESIAN_POINT('',(-1.00004232468232E-11,0.,-10.36130000001));
#450=CARTESIAN_POINT('',(2.94999999999,0.,-10.36130000001));
#451=CARTESIAN_POINT('',(-4.23246823223666E-16,0.,-10.4113));
#452=CARTESIAN_POINT('',(-1.00004232468232E-11,0.,-10.41130000001));
#453=CARTESIAN_POINT('',(2.99999999999,0.,-10.41130000001));
#454=CARTESIAN_POINT('',(-4.23246823223666E-16,0.,-68.0337231108942));
#455=CARTESIAN_POINT('',(-1.00004232468232E-11,0.,-68.0342231109042));
#456=CARTESIAN_POINT('',(2.35006699999,0.,-68.0339731109042));
#457=CARTESIAN_POINT('',(-1.00004232468232E-11,0.,-68.0337231109042));
#458=CARTESIAN_POINT('',(-4.23246823223666E-16,0.,-68.0342231108942));
#459=CARTESIAN_POINT('',(-4.23246823223666E-16,0.,-82.3612787443438));
#460=CARTESIAN_POINT('',(-1.00004232468232E-11,0.,-50.0077231109042));
#461=CARTESIAN_POINT('',(2.34999999999,0.,-50.0077231109042));
#462=CARTESIAN_POINT('',(-4.23246823223666E-16,0.,-82.3612787443438));
#463=CARTESIAN_POINT('',(-1.00004232468232E-11,0.,-45.3827327913546));
#464=CARTESIAN_POINT('',(2.99999999999,0.,-45.3827327913546));
#465=CARTESIAN_POINT('',(-4.23246823223666E-16,0.,-45.3827327913446));
#466=CARTESIAN_POINT('',(0.,0.,0.));
#467=CARTESIAN_POINT('',(-4.23246823223666E-16,0.,-79.985980139083));
#468=CARTESIAN_POINT('',(-1.00004232468232E-11,0.,-79.985980139093));
#469=CARTESIAN_POINT('',(-3.01623490001,0.,-79.985980139093));
#470=CARTESIAN_POINT('',(-4.23385183058097E-16,0.,-79.9759801908125));
#471=CARTESIAN_POINT('',(-3.02623484825256,0.,-79.9759801908125));
#472=CARTESIAN_POINT('',(-4.23246823223666E-16,0.,-80.35));
#473=CARTESIAN_POINT('',(-1.00004232468232E-11,0.,-80.35000000001));
#474=CARTESIAN_POINT('',(2.38573399999,0.,-80.35000000001));
#475=CARTESIAN_POINT('',(-4.23246823223666E-16,0.,-80.8613787443438));
#476=CARTESIAN_POINT('',(-4.23246823223666E-16,0.,-69.1257410901706));
#477=CARTESIAN_POINT('',(-1.00004232468232E-11,0.,-69.1257410901806));
#478=CARTESIAN_POINT('',(2.98032219999,0.,-69.1257410901806));
#479=CARTESIAN_POINT('',(-4.23246823223666E-16,0.,-79.9809195838296));
#480=CARTESIAN_POINT('',(-1.00004232468232E-11,0.,-79.9609195838396));
#481=CARTESIAN_POINT('',(3.02999999999,0.,-79.9609195838396));
#482=CARTESIAN_POINT('',(-4.23246823223666E-16,0.,-68.0342231108942));
#483=CARTESIAN_POINT('',(-4.79627539211234E-16,0.,-69.2117855668599));
#484=CARTESIAN_POINT('',(-3.03,0.,-69.2117855668599));
#485=CARTESIAN_POINT('',(-4.23246823223666E-16,0.,-82.3612787443438));
#486=CARTESIAN_POINT('',(0.,0.,0.));
#487=CARTESIAN_POINT('',(-4.23246823223666E-16,3.51623486118666,-82.3612787443438));
#488=CARTESIAN_POINT('',(-1.00004232468232E-11,0.,-82.3612787443538));
#489=CARTESIAN_POINT('',(-0.000500000005000444,-6.12323417943302E-20,-82.360878745695));
#490=CARTESIAN_POINT('',(-4.23246823223666E-16,0.,-80.35));
#491=CARTESIAN_POINT('',(-1.00004232468232E-11,0.,-80.35000000001));
#492=CARTESIAN_POINT('',(2.38573399999,0.,-80.35000000001));
#493=CARTESIAN_POINT('',(-4.23246823223666E-16,0.,-82.3612787443438));
#494=CARTESIAN_POINT('',(-1.00004232468232E-11,0.,-82.3603787443538));
#495=CARTESIAN_POINT('',(-4.23246823223666E-16,0.,-80.8613787443438));
#496=CARTESIAN_POINT('',(-1.00004232468232E-11,0.,-80.8613787443538));
#497=CARTESIAN_POINT('',(1.49999999999,0.,-80.8613787443538));
#498=CARTESIAN_POINT('',(-4.23246823223666E-16,0.,-80.8613787443438));
#499=CARTESIAN_POINT('',(0.,0.,0.));
#500=MECHANICAL_DESIGN_GEOMETRIC_PRESENTATION_REPRESENTATION('',(#259,#260,
#261),#501);
#501=(
GEOMETRIC_REPRESENTATION_CONTEXT(3)
GLOBAL_UNCERTAINTY_ASSIGNED_CONTEXT((#505))
GLOBAL_UNIT_ASSIGNED_CONTEXT((#511,#510,#509))
REPRESENTATION_CONTEXT('1058 6.004','TOP_LEVEL_ASSEMBLY_PART')
);
#502=(
GEOMETRIC_REPRESENTATION_CONTEXT(3)
GLOBAL_UNCERTAINTY_ASSIGNED_CONTEXT((#506))
GLOBAL_UNIT_ASSIGNED_CONTEXT((#511,#510,#509))
REPRESENTATION_CONTEXT('1058 6.004_PART1','COMPONENT_PART')
);
#503=(
GEOMETRIC_REPRESENTATION_CONTEXT(3)
GLOBAL_UNCERTAINTY_ASSIGNED_CONTEXT((#507))
GLOBAL_UNIT_ASSIGNED_CONTEXT((#511,#510,#509))
REPRESENTATION_CONTEXT('1058 6.004_PART2','COMPONENT_PART')
);
#504=(
GEOMETRIC_REPRESENTATION_CONTEXT(3)
GLOBAL_UNCERTAINTY_ASSIGNED_CONTEXT((#508))
GLOBAL_UNIT_ASSIGNED_CONTEXT((#511,#510,#509))
REPRESENTATION_CONTEXT('1058 6.004_PART3','COMPONENT_PART')
);
#505=UNCERTAINTY_MEASURE_WITH_UNIT(LENGTH_MEASURE(1.E-5),#511,
'DISTANCE_ACCURACY_VALUE','Maximum Tolerance applied to model');
#506=UNCERTAINTY_MEASURE_WITH_UNIT(LENGTH_MEASURE(1.E-5),#511,
'DISTANCE_ACCURACY_VALUE','Maximum Tolerance applied to model');
#507=UNCERTAINTY_MEASURE_WITH_UNIT(LENGTH_MEASURE(1.E-5),#511,
'DISTANCE_ACCURACY_VALUE','Maximum Tolerance applied to model');
#508=UNCERTAINTY_MEASURE_WITH_UNIT(LENGTH_MEASURE(1.E-5),#511,
'DISTANCE_ACCURACY_VALUE','Maximum Tolerance applied to model');
#509=(
NAMED_UNIT(*)
SI_UNIT($,.STERADIAN.)
SOLID_ANGLE_UNIT()
);
#510=(
NAMED_UNIT(*)
PLANE_ANGLE_UNIT()
SI_UNIT($,.RADIAN.)
);
#511=(
LENGTH_UNIT()
NAMED_UNIT(*)
SI_UNIT(.MILLI.,.METRE.)
);
#512=PRODUCT_DEFINITION_SHAPE('','',#519);
#513=PRODUCT_DEFINITION_SHAPE('','',#520);
#514=PRODUCT_DEFINITION_SHAPE(' ','NAUO PRDDFN',#21);
#515=PRODUCT_DEFINITION_SHAPE('','',#521);
#516=PRODUCT_DEFINITION_SHAPE(' ','NAUO PRDDFN',#22);
#517=PRODUCT_DEFINITION_SHAPE('','',#522);
#518=PRODUCT_DEFINITION_SHAPE(' ','NAUO PRDDFN',#23);
#519=PRODUCT_DEFINITION('','',#527,#523);
#520=PRODUCT_DEFINITION('','',#528,#524);
#521=PRODUCT_DEFINITION('','',#529,#525);
#522=PRODUCT_DEFINITION('','',#530,#526);
#523=PRODUCT_DEFINITION_CONTEXT('',#548,'design');
#524=PRODUCT_DEFINITION_CONTEXT('',#548,'design');
#525=PRODUCT_DEFINITION_CONTEXT('',#548,'design');
#526=PRODUCT_DEFINITION_CONTEXT('',#548,'design');
#527=PRODUCT_DEFINITION_FORMATION_WITH_SPECIFIED_SOURCE('','',#535,
 .NOT_KNOWN.);
#528=PRODUCT_DEFINITION_FORMATION_WITH_SPECIFIED_SOURCE('','',#536,
 .NOT_KNOWN.);
#529=PRODUCT_DEFINITION_FORMATION_WITH_SPECIFIED_SOURCE('','',#537,
 .NOT_KNOWN.);
#530=PRODUCT_DEFINITION_FORMATION_WITH_SPECIFIED_SOURCE('','',#538,
 .NOT_KNOWN.);
#531=PRODUCT_RELATED_PRODUCT_CATEGORY('','',(#535));
#532=PRODUCT_RELATED_PRODUCT_CATEGORY('','',(#536));
#533=PRODUCT_RELATED_PRODUCT_CATEGORY('','',(#537));
#534=PRODUCT_RELATED_PRODUCT_CATEGORY('','',(#538));
#535=PRODUCT('1058 6.004','1058 6.004','1058 6.004',(#543));
#536=PRODUCT('1058 6.004_PART1','1058 6.004_PART1','1058 6.004_PART1',(#544));
#537=PRODUCT('1058 6.004_PART2','1058 6.004_PART2','1058 6.004_PART2',(#545));
#538=PRODUCT('1058 6.004_PART3','1058 6.004_PART3','1058 6.004_PART3',(#546));
#539=PRODUCT_CATEGORY('','');
#540=PRODUCT_CATEGORY('','');
#541=PRODUCT_CATEGORY('','');
#542=PRODUCT_CATEGORY('','');
#543=PRODUCT_CONTEXT('',#548,'mechanical');
#544=PRODUCT_CONTEXT('',#548,'mechanical');
#545=PRODUCT_CONTEXT('',#548,'mechanical');
#546=PRODUCT_CONTEXT('',#548,'mechanical');
#547=APPLICATION_PROTOCOL_DEFINITION('international standard',
'automotive_design',2010,#548);
#548=APPLICATION_CONTEXT(
'core data for automotive mechanical design processes');
ENDSEC;
END-ISO-10303-21;
