ISO-10303-21;
HEADER;
/* Generated by software containing ST-Developer
 * from STEP Tools, Inc. (www.steptools.com) 
 */
/* OPTION: using custom renumber hook */

FILE_DESCRIPTION(
/* description */ ('STEP AP214'),
/* implementation_level */ '2;1');

FILE_NAME(
/* name */ '1060 7.938',
/* time_stamp */ '2026-05-14T15:15:21+02:00',
/* author */ ('License CC BY-ND 4.0'),
/* organization */ ('CADENAS'),
/* preprocessor_version */ 'ST-DEVELOPER v20',
/* originating_system */ 'PARTsolutions',
/* authorisation */ '  ');

FILE_SCHEMA (('AUTOMOTIVE_DESIGN {1 0 10303 214 3 1 1}'));
ENDSEC;

DATA;
#10=PROPERTY_DEFINITION_REPRESENTATION(#14,#12);
#11=PROPERTY_DEFINITION_REPRESENTATION(#15,#13);
#12=REPRESENTATION('',(#16),#501);
#13=REPRESENTATION('',(#17),#501);
#14=PROPERTY_DEFINITION('pmi validation property','',#512);
#15=PROPERTY_DEFINITION('pmi validation property','',#512);
#16=VALUE_REPRESENTATION_ITEM('number of annotations',COUNT_MEASURE(0.));
#17=VALUE_REPRESENTATION_ITEM('number of views',COUNT_MEASURE(0.));
#18=CONTEXT_DEPENDENT_SHAPE_REPRESENTATION(#24,#514);
#19=CONTEXT_DEPENDENT_SHAPE_REPRESENTATION(#25,#516);
#20=CONTEXT_DEPENDENT_SHAPE_REPRESENTATION(#26,#518);
#21=NEXT_ASSEMBLY_USAGE_OCCURRENCE('NAUO1','1060 7.938_PART1',
'1060 7.938_PART1',#519,#520,'');
#22=NEXT_ASSEMBLY_USAGE_OCCURRENCE('NAUO2','1060 7.938_PART2',
'1060 7.938_PART2',#519,#521,'');
#23=NEXT_ASSEMBLY_USAGE_OCCURRENCE('NAUO3','1060 7.938_PART3',
'1060 7.938_PART3',#519,#522,'');
#24=(
REPRESENTATION_RELATIONSHIP(' ',' ',#290,#289)
REPRESENTATION_RELATIONSHIP_WITH_TRANSFORMATION(#27)
SHAPE_REPRESENTATION_RELATIONSHIP()
);
#25=(
REPRESENTATION_RELATIONSHIP(' ',' ',#291,#289)
REPRESENTATION_RELATIONSHIP_WITH_TRANSFORMATION(#28)
SHAPE_REPRESENTATION_RELATIONSHIP()
);
#26=(
REPRESENTATION_RELATIONSHIP(' ',' ',#292,#289)
REPRESENTATION_RELATIONSHIP_WITH_TRANSFORMATION(#29)
SHAPE_REPRESENTATION_RELATIONSHIP()
);
#27=ITEM_DEFINED_TRANSFORMATION(' ',' ',#293,#314);
#28=ITEM_DEFINED_TRANSFORMATION(' ',' ',#293,#326);
#29=ITEM_DEFINED_TRANSFORMATION(' ',' ',#293,#338);
#30=SHAPE_REPRESENTATION_RELATIONSHIP('','',#290,#33);
#31=SHAPE_REPRESENTATION_RELATIONSHIP('','',#291,#34);
#32=SHAPE_REPRESENTATION_RELATIONSHIP('','',#292,#35);
#33=ADVANCED_BREP_SHAPE_REPRESENTATION('',(#282),#502);
#34=ADVANCED_BREP_SHAPE_REPRESENTATION('',(#283),#503);
#35=ADVANCED_BREP_SHAPE_REPRESENTATION('',(#284),#504);
#36=TOROIDAL_SURFACE('',#305,3.101,0.001);
#37=B_SPLINE_CURVE_WITH_KNOTS('',3,(#441,#442,#443,#444,#445),
 .UNSPECIFIED.,.T.,.F.,(1,1,1,1,1,1,1,1,1),(-1.5,-1.,-0.5,0.,0.5,1.,1.5,
2.,2.5),.UNSPECIFIED.);
#38=PLANE('',#299);
#39=PLANE('',#300);
#40=PLANE('',#315);
#41=PLANE('',#322);
#42=PLANE('',#330);
#43=PLANE('',#332);
#44=CONICAL_SURFACE('',#297,3.9,0.7853981625);
#45=CONICAL_SURFACE('',#302,2.35,1.361356815);
#46=CONICAL_SURFACE('',#303,4.,0.7853981625);
#47=CONICAL_SURFACE('',#308,3.100134,0.523598775);
#48=CONICAL_SURFACE('',#311,4.,0.13962634);
#49=CONICAL_SURFACE('',#320,3.100134,0.523598775);
#50=CONICAL_SURFACE('',#323,3.4,0.1534367901);
#51=CONICAL_SURFACE('',#325,3.1029671,0.7853981625);
#52=CONICAL_SURFACE('',#327,3.1029671,0.7853981625);
#53=CONICAL_SURFACE('',#335,1.9,1.04719755);
#54=CONICAL_SURFACE('',#337,1.9,0.7853981625);
#55=ORIENTED_EDGE('',*,*,#95,.T.);
#56=ORIENTED_EDGE('',*,*,#96,.F.);
#57=ORIENTED_EDGE('',*,*,#96,.T.);
#58=ORIENTED_EDGE('',*,*,#97,.F.);
#59=ORIENTED_EDGE('',*,*,#98,.F.);
#60=ORIENTED_EDGE('',*,*,#99,.T.);
#61=ORIENTED_EDGE('',*,*,#97,.T.);
#62=ORIENTED_EDGE('',*,*,#98,.T.);
#63=ORIENTED_EDGE('',*,*,#100,.T.);
#64=ORIENTED_EDGE('',*,*,#95,.F.);
#65=ORIENTED_EDGE('',*,*,#101,.T.);
#66=ORIENTED_EDGE('',*,*,#102,.F.);
#67=ORIENTED_EDGE('',*,*,#101,.F.);
#68=ORIENTED_EDGE('',*,*,#99,.F.);
#69=ORIENTED_EDGE('',*,*,#103,.F.);
#70=ORIENTED_EDGE('',*,*,#102,.T.);
#71=ORIENTED_EDGE('',*,*,#104,.F.);
#72=ORIENTED_EDGE('',*,*,#103,.T.);
#73=ORIENTED_EDGE('',*,*,#104,.T.);
#74=ORIENTED_EDGE('',*,*,#100,.F.);
#75=ORIENTED_EDGE('',*,*,#105,.T.);
#76=ORIENTED_EDGE('',*,*,#106,.F.);
#77=ORIENTED_EDGE('',*,*,#107,.T.);
#78=ORIENTED_EDGE('',*,*,#108,.T.);
#79=ORIENTED_EDGE('',*,*,#106,.T.);
#80=ORIENTED_EDGE('',*,*,#108,.F.);
#81=ORIENTED_EDGE('',*,*,#109,.F.);
#82=ORIENTED_EDGE('',*,*,#107,.F.);
#83=ORIENTED_EDGE('',*,*,#109,.T.);
#84=ORIENTED_EDGE('',*,*,#105,.F.);
#85=ORIENTED_EDGE('',*,*,#110,.T.);
#86=ORIENTED_EDGE('',*,*,#111,.F.);
#87=ORIENTED_EDGE('',*,*,#112,.T.);
#88=ORIENTED_EDGE('',*,*,#110,.F.);
#89=ORIENTED_EDGE('',*,*,#113,.T.);
#90=ORIENTED_EDGE('',*,*,#112,.F.);
#91=ORIENTED_EDGE('',*,*,#114,.T.);
#92=ORIENTED_EDGE('',*,*,#111,.T.);
#93=ORIENTED_EDGE('',*,*,#114,.F.);
#94=ORIENTED_EDGE('',*,*,#113,.F.);
#95=EDGE_CURVE('',#115,#115,#133,.T.);
#96=EDGE_CURVE('',#116,#116,#134,.T.);
#97=EDGE_CURVE('',#117,#117,#135,.T.);
#98=EDGE_CURVE('',#118,#118,#37,.F.);
#99=EDGE_CURVE('',#119,#119,#136,.T.);
#100=EDGE_CURVE('',#120,#120,#137,.T.);
#101=EDGE_CURVE('',#121,#121,#138,.T.);
#102=EDGE_CURVE('',#121,#121,#139,.T.);
#103=EDGE_CURVE('',#122,#122,#140,.T.);
#104=EDGE_CURVE('',#123,#123,#141,.T.);
#105=EDGE_CURVE('',#124,#124,#142,.T.);
#106=EDGE_CURVE('',#125,#125,#143,.T.);
#107=EDGE_CURVE('',#126,#126,#144,.T.);
#108=EDGE_CURVE('',#127,#127,#145,.T.);
#109=EDGE_CURVE('',#128,#128,#146,.T.);
#110=EDGE_CURVE('',#129,#129,#147,.T.);
#111=EDGE_CURVE('',#130,#130,#148,.T.);
#112=EDGE_CURVE('',#131,#131,#149,.T.);
#113=EDGE_CURVE('',#131,#131,#150,.T.);
#114=EDGE_CURVE('',#132,#132,#151,.T.);
#115=VERTEX_POINT('',#434);
#116=VERTEX_POINT('',#436);
#117=VERTEX_POINT('',#439);
#118=VERTEX_POINT('',#446);
#119=VERTEX_POINT('',#449);
#120=VERTEX_POINT('',#453);
#121=VERTEX_POINT('',#456);
#122=VERTEX_POINT('',#461);
#123=VERTEX_POINT('',#464);
#124=VERTEX_POINT('',#469);
#125=VERTEX_POINT('',#472);
#126=VERTEX_POINT('',#474);
#127=VERTEX_POINT('',#477);
#128=VERTEX_POINT('',#481);
#129=VERTEX_POINT('',#486);
#130=VERTEX_POINT('',#488);
#131=VERTEX_POINT('',#491);
#132=VERTEX_POINT('',#497);
#133=CIRCLE('',#295,3.9);
#134=CIRCLE('',#296,3.9);
#135=CIRCLE('',#298,2.35);
#136=CIRCLE('',#301,3.7339799);
#137=CIRCLE('',#304,4.);
#138=CIRCLE('',#306,3.100134);
#139=CIRCLE('',#307,3.1);
#140=CIRCLE('',#310,3.1);
#141=CIRCLE('',#312,4.);
#142=CIRCLE('',#316,3.1190125);
#143=CIRCLE('',#318,4.005);
#144=CIRCLE('',#319,4.005);
#145=CIRCLE('',#321,3.7339799);
#146=CIRCLE('',#324,3.42296710996787);
#147=CIRCLE('',#328,3.1190125);
#148=CIRCLE('',#329,3.1029671);
#149=CIRCLE('',#331,0.001);
#150=CIRCLE('',#334,0.001);
#151=CIRCLE('',#336,1.9);
#152=EDGE_LOOP('',(#55));
#153=EDGE_LOOP('',(#56));
#154=EDGE_LOOP('',(#57));
#155=EDGE_LOOP('',(#58));
#156=EDGE_LOOP('',(#59));
#157=EDGE_LOOP('',(#60));
#158=EDGE_LOOP('',(#61));
#159=EDGE_LOOP('',(#62));
#160=EDGE_LOOP('',(#63));
#161=EDGE_LOOP('',(#64));
#162=EDGE_LOOP('',(#65,#66));
#163=EDGE_LOOP('',(#67));
#164=EDGE_LOOP('',(#68));
#165=EDGE_LOOP('',(#69));
#166=EDGE_LOOP('',(#70));
#167=EDGE_LOOP('',(#71));
#168=EDGE_LOOP('',(#72));
#169=EDGE_LOOP('',(#73));
#170=EDGE_LOOP('',(#74));
#171=EDGE_LOOP('',(#75));
#172=EDGE_LOOP('',(#76));
#173=EDGE_LOOP('',(#77));
#174=EDGE_LOOP('',(#78));
#175=EDGE_LOOP('',(#79));
#176=EDGE_LOOP('',(#80));
#177=EDGE_LOOP('',(#81));
#178=EDGE_LOOP('',(#82));
#179=EDGE_LOOP('',(#83));
#180=EDGE_LOOP('',(#84));
#181=EDGE_LOOP('',(#85));
#182=EDGE_LOOP('',(#86));
#183=EDGE_LOOP('',(#87));
#184=EDGE_LOOP('',(#88));
#185=EDGE_LOOP('',(#89,#90));
#186=EDGE_LOOP('',(#91));
#187=EDGE_LOOP('',(#92));
#188=EDGE_LOOP('',(#93));
#189=EDGE_LOOP('',(#94));
#190=FACE_BOUND('',#152,.T.);
#191=FACE_BOUND('',#153,.T.);
#192=FACE_BOUND('',#154,.T.);
#193=FACE_BOUND('',#155,.T.);
#194=FACE_BOUND('',#156,.T.);
#195=FACE_BOUND('',#157,.T.);
#196=FACE_BOUND('',#158,.T.);
#197=FACE_BOUND('',#159,.T.);
#198=FACE_BOUND('',#160,.T.);
#199=FACE_BOUND('',#161,.T.);
#200=FACE_BOUND('',#162,.T.);
#201=FACE_BOUND('',#163,.T.);
#202=FACE_BOUND('',#164,.T.);
#203=FACE_BOUND('',#165,.T.);
#204=FACE_BOUND('',#166,.T.);
#205=FACE_BOUND('',#167,.T.);
#206=FACE_BOUND('',#168,.T.);
#207=FACE_BOUND('',#169,.T.);
#208=FACE_BOUND('',#170,.T.);
#209=FACE_BOUND('',#171,.T.);
#210=FACE_BOUND('',#172,.T.);
#211=FACE_BOUND('',#173,.T.);
#212=FACE_BOUND('',#174,.T.);
#213=FACE_BOUND('',#175,.T.);
#214=FACE_BOUND('',#176,.T.);
#215=FACE_BOUND('',#177,.T.);
#216=FACE_BOUND('',#178,.T.);
#217=FACE_BOUND('',#179,.T.);
#218=FACE_BOUND('',#180,.T.);
#219=FACE_BOUND('',#181,.T.);
#220=FACE_BOUND('',#182,.T.);
#221=FACE_BOUND('',#183,.T.);
#222=FACE_BOUND('',#184,.T.);
#223=FACE_BOUND('',#185,.T.);
#224=FACE_BOUND('',#186,.T.);
#225=FACE_BOUND('',#187,.T.);
#226=FACE_BOUND('',#188,.T.);
#227=FACE_BOUND('',#189,.T.);
#228=CYLINDRICAL_SURFACE('',#294,3.9);
#229=CYLINDRICAL_SURFACE('',#309,3.1);
#230=CYLINDRICAL_SURFACE('',#313,4.);
#231=CYLINDRICAL_SURFACE('',#317,4.005);
#232=CYLINDRICAL_SURFACE('',#333,0.001);
#233=ADVANCED_FACE('',(#190,#191),#228,.T.);
#234=ADVANCED_FACE('',(#192,#193),#44,.T.);
#235=ADVANCED_FACE('',(#194),#38,.T.);
#236=ADVANCED_FACE('',(#195),#39,.F.);
#237=ADVANCED_FACE('',(#196,#197),#45,.T.);
#238=ADVANCED_FACE('',(#198,#199),#46,.T.);
#239=ADVANCED_FACE('',(#200),#36,.F.);
#240=ADVANCED_FACE('',(#201,#202),#47,.T.);
#241=ADVANCED_FACE('',(#203,#204),#229,.T.);
#242=ADVANCED_FACE('',(#205,#206),#48,.T.);
#243=ADVANCED_FACE('',(#207,#208),#230,.T.);
#244=ADVANCED_FACE('',(#209),#40,.F.);
#245=ADVANCED_FACE('',(#210,#211),#231,.T.);
#246=ADVANCED_FACE('',(#212,#213),#49,.T.);
#247=ADVANCED_FACE('',(#214),#41,.T.);
#248=ADVANCED_FACE('',(#215,#216),#50,.T.);
#249=ADVANCED_FACE('',(#217,#218),#51,.T.);
#250=ADVANCED_FACE('',(#219,#220),#52,.T.);
#251=ADVANCED_FACE('',(#221),#42,.F.);
#252=ADVANCED_FACE('',(#222),#43,.T.);
#253=ADVANCED_FACE('',(#223),#232,.T.);
#254=ADVANCED_FACE('',(#224,#225),#53,.T.);
#255=ADVANCED_FACE('',(#226,#227),#54,.T.);
#256=CLOSED_SHELL('',(#233,#234,#235,#236,#237,#238,#239,#240,#241,#242,
#243));
#257=CLOSED_SHELL('',(#244,#245,#246,#247,#248,#249));
#258=CLOSED_SHELL('',(#250,#251,#252,#253,#254,#255));
#259=STYLED_ITEM('',(#262),#282);
#260=STYLED_ITEM('',(#263),#283);
#261=STYLED_ITEM('',(#264),#284);
#262=PRESENTATION_STYLE_ASSIGNMENT((#265));
#263=PRESENTATION_STYLE_ASSIGNMENT((#266));
#264=PRESENTATION_STYLE_ASSIGNMENT((#267));
#265=SURFACE_STYLE_USAGE(.BOTH.,#268);
#266=SURFACE_STYLE_USAGE(.BOTH.,#269);
#267=SURFACE_STYLE_USAGE(.BOTH.,#270);
#268=SURFACE_SIDE_STYLE('',(#271));
#269=SURFACE_SIDE_STYLE('',(#272));
#270=SURFACE_SIDE_STYLE('',(#273));
#271=SURFACE_STYLE_FILL_AREA(#274);
#272=SURFACE_STYLE_FILL_AREA(#275);
#273=SURFACE_STYLE_FILL_AREA(#276);
#274=FILL_AREA_STYLE('',(#277));
#275=FILL_AREA_STYLE('',(#278));
#276=FILL_AREA_STYLE('',(#279));
#277=FILL_AREA_STYLE_COLOUR('',#280);
#278=FILL_AREA_STYLE_COLOUR('',#281);
#279=FILL_AREA_STYLE_COLOUR('',#280);
#280=COLOUR_RGB('',0.4999923706,0.4999923706,0.4999923706);
#281=COLOUR_RGB('',0.8000000119,0.8000000119,0.8000000119);
#282=MANIFOLD_SOLID_BREP('1',#256);
#283=MANIFOLD_SOLID_BREP('1',#257);
#284=MANIFOLD_SOLID_BREP('1',#258);
#285=SHAPE_DEFINITION_REPRESENTATION(#512,#289);
#286=SHAPE_DEFINITION_REPRESENTATION(#513,#290);
#287=SHAPE_DEFINITION_REPRESENTATION(#515,#291);
#288=SHAPE_DEFINITION_REPRESENTATION(#517,#292);
#289=SHAPE_REPRESENTATION('1060 7.938',(#293,#314,#326,#338),#501);
#290=SHAPE_REPRESENTATION('1060 7.938_PART1',(#293),#502);
#291=SHAPE_REPRESENTATION('1060 7.938_PART2',(#293),#503);
#292=SHAPE_REPRESENTATION('1060 7.938_PART3',(#293),#504);
#293=AXIS2_PLACEMENT_3D('',#431,#339,#340);
#294=AXIS2_PLACEMENT_3D('',#432,#341,#342);
#295=AXIS2_PLACEMENT_3D('',#433,#343,#344);
#296=AXIS2_PLACEMENT_3D('',#435,#345,#346);
#297=AXIS2_PLACEMENT_3D('',#437,#347,#348);
#298=AXIS2_PLACEMENT_3D('',#438,#349,#350);
#299=AXIS2_PLACEMENT_3D('',#440,#351,#352);
#300=AXIS2_PLACEMENT_3D('',#447,#353,#354);
#301=AXIS2_PLACEMENT_3D('',#448,#355,#356);
#302=AXIS2_PLACEMENT_3D('',#450,#357,#358);
#303=AXIS2_PLACEMENT_3D('',#451,#359,#360);
#304=AXIS2_PLACEMENT_3D('',#452,#361,#362);
#305=AXIS2_PLACEMENT_3D('',#454,#363,#364);
#306=AXIS2_PLACEMENT_3D('',#455,#365,#366);
#307=AXIS2_PLACEMENT_3D('',#457,#367,#368);
#308=AXIS2_PLACEMENT_3D('',#458,#369,#370);
#309=AXIS2_PLACEMENT_3D('',#459,#371,#372);
#310=AXIS2_PLACEMENT_3D('',#460,#373,#374);
#311=AXIS2_PLACEMENT_3D('',#462,#375,#376);
#312=AXIS2_PLACEMENT_3D('',#463,#377,#378);
#313=AXIS2_PLACEMENT_3D('',#465,#379,#380);
#314=AXIS2_PLACEMENT_3D('',#466,#381,#382);
#315=AXIS2_PLACEMENT_3D('',#467,#383,#384);
#316=AXIS2_PLACEMENT_3D('',#468,#385,#386);
#317=AXIS2_PLACEMENT_3D('',#470,#387,#388);
#318=AXIS2_PLACEMENT_3D('',#471,#389,#390);
#319=AXIS2_PLACEMENT_3D('',#473,#391,#392);
#320=AXIS2_PLACEMENT_3D('',#475,#393,#394);
#321=AXIS2_PLACEMENT_3D('',#476,#395,#396);
#322=AXIS2_PLACEMENT_3D('',#478,#397,#398);
#323=AXIS2_PLACEMENT_3D('',#479,#399,#400);
#324=AXIS2_PLACEMENT_3D('',#480,#401,#402);
#325=AXIS2_PLACEMENT_3D('',#482,#403,#404);
#326=AXIS2_PLACEMENT_3D('',#483,#405,#406);
#327=AXIS2_PLACEMENT_3D('',#484,#407,#408);
#328=AXIS2_PLACEMENT_3D('',#485,#409,#410);
#329=AXIS2_PLACEMENT_3D('',#487,#411,#412);
#330=AXIS2_PLACEMENT_3D('',#489,#413,#414);
#331=AXIS2_PLACEMENT_3D('',#490,#415,#416);
#332=AXIS2_PLACEMENT_3D('',#492,#417,#418);
#333=AXIS2_PLACEMENT_3D('',#493,#419,#420);
#334=AXIS2_PLACEMENT_3D('',#494,#421,#422);
#335=AXIS2_PLACEMENT_3D('',#495,#423,#424);
#336=AXIS2_PLACEMENT_3D('',#496,#425,#426);
#337=AXIS2_PLACEMENT_3D('',#498,#427,#428);
#338=AXIS2_PLACEMENT_3D('',#499,#429,#430);
#339=DIRECTION('',(0.,0.,1.));
#340=DIRECTION('',(1.,0.,0.));
#341=DIRECTION('',(0.,0.,-1.));
#342=DIRECTION('',(1.,0.,0.));
#343=DIRECTION('',(0.,0.,1.));
#344=DIRECTION('',(1.,0.,0.));
#345=DIRECTION('',(0.,0.,1.));
#346=DIRECTION('',(1.,0.,0.));
#347=DIRECTION('',(4.14716240894943E-17,0.,-1.));
#348=DIRECTION('',(-1.,0.,-4.14716240894943E-17));
#349=DIRECTION('',(0.,0.,1.));
#350=DIRECTION('',(1.,0.,0.));
#351=DIRECTION('',(0.,0.,1.));
#352=DIRECTION('',(1.,0.,0.));
#353=DIRECTION('',(0.,0.,1.));
#354=DIRECTION('',(1.,0.,0.));
#355=DIRECTION('',(0.,0.,-1.));
#356=DIRECTION('',(1.,0.,0.));
#357=DIRECTION('',(2.00164790582534E-17,0.,-1.));
#358=DIRECTION('',(-1.,0.,-2.00164790582534E-17));
#359=DIRECTION('',(-5.52899912661904E-17,0.,-1.));
#360=DIRECTION('',(-1.,0.,5.52899912661904E-17));
#361=DIRECTION('',(0.,0.,1.));
#362=DIRECTION('',(1.,0.,0.));
#363=DIRECTION('',(0.,0.,1.));
#364=DIRECTION('',(1.,0.,0.));
#365=DIRECTION('',(0.,0.,1.));
#366=DIRECTION('',(1.,0.,0.));
#367=DIRECTION('',(0.,0.,1.));
#368=DIRECTION('',(1.,0.,0.));
#369=DIRECTION('',(0.,0.,-1.));
#370=DIRECTION('',(-1.,0.,0.));
#371=DIRECTION('',(0.,0.,-1.));
#372=DIRECTION('',(1.,0.,0.));
#373=DIRECTION('',(0.,0.,1.));
#374=DIRECTION('',(1.,0.,0.));
#375=DIRECTION('',(-9.60129214445779E-17,0.,1.));
#376=DIRECTION('',(1.,0.,9.60129214445779E-17));
#377=DIRECTION('',(0.,0.,1.));
#378=DIRECTION('',(1.,0.,0.));
#379=DIRECTION('',(0.,0.,-1.));
#380=DIRECTION('',(1.,0.,0.));
#381=DIRECTION('',(0.,0.,1.));
#382=DIRECTION('',(1.,0.,0.));
#383=DIRECTION('',(0.,0.,1.));
#384=DIRECTION('',(1.,0.,0.));
#385=DIRECTION('',(0.,0.,-1.));
#386=DIRECTION('',(1.,0.,0.));
#387=DIRECTION('',(0.,0.,-1.));
#388=DIRECTION('',(1.,0.,0.));
#389=DIRECTION('',(0.,0.,1.));
#390=DIRECTION('',(1.,0.,0.));
#391=DIRECTION('',(0.,0.,1.));
#392=DIRECTION('',(1.,0.,0.));
#393=DIRECTION('',(0.,0.,-1.));
#394=DIRECTION('',(-1.,0.,0.));
#395=DIRECTION('',(0.,0.,-1.));
#396=DIRECTION('',(1.,0.,0.));
#397=DIRECTION('',(0.,0.,1.));
#398=DIRECTION('',(1.,0.,0.));
#399=DIRECTION('',(0.,0.,1.));
#400=DIRECTION('',(1.,0.,0.));
#401=DIRECTION('',(0.,0.,-1.));
#402=DIRECTION('',(-1.,0.,0.));
#403=DIRECTION('',(-1.38348586963304E-17,0.,1.));
#404=DIRECTION('',(1.,0.,1.38348586963304E-17));
#405=DIRECTION('',(0.,0.,1.));
#406=DIRECTION('',(1.,0.,0.));
#407=DIRECTION('',(-1.38348586963304E-17,0.,1.));
#408=DIRECTION('',(1.,0.,1.38348586963304E-17));
#409=DIRECTION('',(0.,0.,-1.));
#410=DIRECTION('',(1.,0.,0.));
#411=DIRECTION('',(0.,0.,-1.));
#412=DIRECTION('',(-1.,0.,0.));
#413=DIRECTION('',(0.,0.,1.));
#414=DIRECTION('',(1.,0.,0.));
#415=DIRECTION('',(0.,0.,-1.));
#416=DIRECTION('',(1.,0.,0.));
#417=DIRECTION('',(0.,0.,1.));
#418=DIRECTION('',(1.,0.,0.));
#419=DIRECTION('',(0.,0.,1.));
#420=DIRECTION('',(-1.,0.,0.));
#421=DIRECTION('',(0.,0.,-1.));
#422=DIRECTION('',(1.,0.,0.));
#423=DIRECTION('',(8.00356489194315E-18,0.,1.));
#424=DIRECTION('',(1.,0.,-8.00356489194315E-18));
#425=DIRECTION('',(0.,0.,1.));
#426=DIRECTION('',(1.,0.,0.));
#427=DIRECTION('',(1.38514700147864E-17,0.,1.));
#428=DIRECTION('',(1.,0.,-1.38514700147864E-17));
#429=DIRECTION('',(0.,0.,1.));
#430=DIRECTION('',(1.,0.,0.));
#431=CARTESIAN_POINT('',(0.,0.,0.));
#432=CARTESIAN_POINT('',(-5.85141954608971E-16,0.,-93.1004787443438));
#433=CARTESIAN_POINT('',(-1.00005851419546E-11,0.,-11.89950000001));
#434=CARTESIAN_POINT('',(3.89999999999,0.,-11.89950000001));
#435=CARTESIAN_POINT('',(-1.00005851419546E-11,0.,-2.04950000001));
#436=CARTESIAN_POINT('',(3.89999999999,0.,-2.04950000001));
#437=CARTESIAN_POINT('',(-5.85141954608971E-16,0.,-2.0495));
#438=CARTESIAN_POINT('',(-1.00005851419546E-11,0.,-0.49950000001));
#439=CARTESIAN_POINT('',(2.34999999999,0.,-0.49950000001));
#440=CARTESIAN_POINT('',(-5.85141954608971E-16,0.,0.));
#441=CARTESIAN_POINT('',(-0.000300000010000585,-1.22464679914735E-20,0.));
#442=CARTESIAN_POINT('',(0.000299999989999415,2.44929359829471E-20,0.));
#443=CARTESIAN_POINT('',(-0.000300000010000585,-1.22464679914735E-20,0.));
#444=CARTESIAN_POINT('',(0.000299999989999415,2.44929359829471E-20,0.));
#445=CARTESIAN_POINT('',(-0.000300000010000585,-1.22464679914735E-20,0.));
#446=CARTESIAN_POINT('',(4.9999994999418E-5,1.83697001502449E-20,-2.70408178536458E-6));
#447=CARTESIAN_POINT('',(-5.85141954608971E-16,0.,-72.18599880383));
#448=CARTESIAN_POINT('',(-1.00005851419546E-11,0.,-72.18599880384));
#449=CARTESIAN_POINT('',(3.73397989999,0.,-72.18599880384));
#450=CARTESIAN_POINT('',(-5.85141954608971E-16,0.,-0.499500000000003));
#451=CARTESIAN_POINT('',(-5.85141954608971E-16,0.,-11.9995));
#452=CARTESIAN_POINT('',(-1.00005851419546E-11,0.,-11.99950000001));
#453=CARTESIAN_POINT('',(3.99999999999,0.,-11.99950000001));
#454=CARTESIAN_POINT('',(-5.85141954608971E-16,0.,-71.0876454359209));
#455=CARTESIAN_POINT('',(-1.00005851419546E-11,0.,-71.0881454359309));
#456=CARTESIAN_POINT('',(3.10006699999,0.,-71.0878954359309));
#457=CARTESIAN_POINT('',(-1.00005851419546E-11,0.,-71.0876454359309));
#458=CARTESIAN_POINT('',(-5.85141954608971E-16,0.,-71.0881454359209));
#459=CARTESIAN_POINT('',(-5.85141954608971E-16,0.,-93.1004787443438));
#460=CARTESIAN_POINT('',(-1.00005851419546E-11,0.,-55.3386454359309));
#461=CARTESIAN_POINT('',(3.09999999999,0.,-55.3386454359309));
#462=CARTESIAN_POINT('',(-5.85141954608971E-16,0.,-48.9348126857752));
#463=CARTESIAN_POINT('',(-1.00005851419546E-11,0.,-48.9348126857852));
#464=CARTESIAN_POINT('',(3.99999999999,0.,-48.9348126857852));
#465=CARTESIAN_POINT('',(-5.85141954608971E-16,0.,-93.1004787443438));
#466=CARTESIAN_POINT('',(0.,0.,0.));
#467=CARTESIAN_POINT('',(-5.85141954608971E-16,0.,-90.49));
#468=CARTESIAN_POINT('',(-1.00005851419546E-11,0.,-90.49000000001));
#469=CARTESIAN_POINT('',(3.11901249999,0.,-90.49000000001));
#470=CARTESIAN_POINT('',(-5.85141954608971E-16,0.,-93.1004787443438));
#471=CARTESIAN_POINT('',(-1.00005851419546E-11,0.,-72.6554193659732));
#472=CARTESIAN_POINT('',(4.00499999999,0.,-72.6554193659732));
#473=CARTESIAN_POINT('',(-1.00005851419546E-11,0.,-86.4225533405694));
#474=CARTESIAN_POINT('',(4.00499999999,0.,-86.4225533405694));
#475=CARTESIAN_POINT('',(-5.85141954608971E-16,0.,-71.0881454359209));
#476=CARTESIAN_POINT('',(-1.00005851419546E-11,0.,-72.18599880384));
#477=CARTESIAN_POINT('',(3.73397989999,0.,-72.18599880384));
#478=CARTESIAN_POINT('',(-5.85141954608971E-16,0.,-72.18599880383));
#479=CARTESIAN_POINT('',(-5.85141954608971E-16,0.,-90.3345533405594));
#480=CARTESIAN_POINT('',(-5.89569109537647E-16,0.,-90.1860453499591));
#481=CARTESIAN_POINT('',(-3.42296710996787,0.,-90.1860453499591));
#482=CARTESIAN_POINT('',(-5.85141954608971E-16,0.,-90.5060453605013));
#483=CARTESIAN_POINT('',(0.,0.,0.));
#484=CARTESIAN_POINT('',(-5.85141954608971E-16,0.,-90.5060453605013));
#485=CARTESIAN_POINT('',(-1.00005851419546E-11,0.,-90.49000000001));
#486=CARTESIAN_POINT('',(3.11901249999,0.,-90.49000000001));
#487=CARTESIAN_POINT('',(-1.00005851419546E-11,0.,-90.5060453605113));
#488=CARTESIAN_POINT('',(-3.10296710001,0.,-90.5060453605113));
#489=CARTESIAN_POINT('',(-5.85141954608971E-16,3.60296710836787,-93.1004787443438));
#490=CARTESIAN_POINT('',(-1.00005851419546E-11,0.,-93.1004787443538));
#491=CARTESIAN_POINT('',(-0.000500000004998864,-6.12323417941206E-20,-93.1000787460539));
#492=CARTESIAN_POINT('',(-5.85141954608971E-16,0.,-90.49));
#493=CARTESIAN_POINT('',(-5.85141954608971E-16,0.,-93.1004787443438));
#494=CARTESIAN_POINT('',(-1.00005851419546E-11,0.,-93.0995787443538));
#495=CARTESIAN_POINT('',(-5.85141954608971E-16,0.,-91.2005787443438));
#496=CARTESIAN_POINT('',(-1.00005851419546E-11,0.,-91.2005787443538));
#497=CARTESIAN_POINT('',(1.89999999999,0.,-91.2005787443538));
#498=CARTESIAN_POINT('',(-5.85141954608971E-16,0.,-91.2005787443438));
#499=CARTESIAN_POINT('',(0.,0.,0.));
#500=MECHANICAL_DESIGN_GEOMETRIC_PRESENTATION_REPRESENTATION('',(#259,#260,
#261),#501);
#501=(
GEOMETRIC_REPRESENTATION_CONTEXT(3)
GLOBAL_UNCERTAINTY_ASSIGNED_CONTEXT((#505))
GLOBAL_UNIT_ASSIGNED_CONTEXT((#511,#510,#509))
REPRESENTATION_CONTEXT('1060 7.938','TOP_LEVEL_ASSEMBLY_PART')
);
#502=(
GEOMETRIC_REPRESENTATION_CONTEXT(3)
GLOBAL_UNCERTAINTY_ASSIGNED_CONTEXT((#506))
GLOBAL_UNIT_ASSIGNED_CONTEXT((#511,#510,#509))
REPRESENTATION_CONTEXT('1060 7.938_PART1','COMPONENT_PART')
);
#503=(
GEOMETRIC_REPRESENTATION_CONTEXT(3)
GLOBAL_UNCERTAINTY_ASSIGNED_CONTEXT((#507))
GLOBAL_UNIT_ASSIGNED_CONTEXT((#511,#510,#509))
REPRESENTATION_CONTEXT('1060 7.938_PART2','COMPONENT_PART')
);
#504=(
GEOMETRIC_REPRESENTATION_CONTEXT(3)
GLOBAL_UNCERTAINTY_ASSIGNED_CONTEXT((#508))
GLOBAL_UNIT_ASSIGNED_CONTEXT((#511,#510,#509))
REPRESENTATION_CONTEXT('1060 7.938_PART3','COMPONENT_PART')
);
#505=UNCERTAINTY_MEASURE_WITH_UNIT(LENGTH_MEASURE(1.E-5),#511,
'DISTANCE_ACCURACY_VALUE','Maximum Tolerance applied to model');
#506=UNCERTAINTY_MEASURE_WITH_UNIT(LENGTH_MEASURE(1.E-5),#511,
'DISTANCE_ACCURACY_VALUE','Maximum Tolerance applied to model');
#507=UNCERTAINTY_MEASURE_WITH_UNIT(LENGTH_MEASURE(1.E-5),#511,
'DISTANCE_ACCURACY_VALUE','Maximum Tolerance applied to model');
#508=UNCERTAINTY_MEASURE_WITH_UNIT(LENGTH_MEASURE(1.E-5),#511,
'DISTANCE_ACCURACY_VALUE','Maximum Tolerance applied to model');
#509=(
NAMED_UNIT(*)
SI_UNIT($,.STERADIAN.)
SOLID_ANGLE_UNIT()
);
#510=(
NAMED_UNIT(*)
PLANE_ANGLE_UNIT()
SI_UNIT($,.RADIAN.)
);
#511=(
LENGTH_UNIT()
NAMED_UNIT(*)
SI_UNIT(.MILLI.,.METRE.)
);
#512=PRODUCT_DEFINITION_SHAPE('','',#519);
#513=PRODUCT_DEFINITION_SHAPE('','',#520);
#514=PRODUCT_DEFINITION_SHAPE(' ','NAUO PRDDFN',#21);
#515=PRODUCT_DEFINITION_SHAPE('','',#521);
#516=PRODUCT_DEFINITION_SHAPE(' ','NAUO PRDDFN',#22);
#517=PRODUCT_DEFINITION_SHAPE('','',#522);
#518=PRODUCT_DEFINITION_SHAPE(' ','NAUO PRDDFN',#23);
#519=PRODUCT_DEFINITION('','',#527,#523);
#520=PRODUCT_DEFINITION('','',#528,#524);
#521=PRODUCT_DEFINITION('','',#529,#525);
#522=PRODUCT_DEFINITION('','',#530,#526);
#523=PRODUCT_DEFINITION_CONTEXT('',#548,'design');
#524=PRODUCT_DEFINITION_CONTEXT('',#548,'design');
#525=PRODUCT_DEFINITION_CONTEXT('',#548,'design');
#526=PRODUCT_DEFINITION_CONTEXT('',#548,'design');
#527=PRODUCT_DEFINITION_FORMATION_WITH_SPECIFIED_SOURCE('','',#535,
 .NOT_KNOWN.);
#528=PRODUCT_DEFINITION_FORMATION_WITH_SPECIFIED_SOURCE('','',#536,
 .NOT_KNOWN.);
#529=PRODUCT_DEFINITION_FORMATION_WITH_SPECIFIED_SOURCE('','',#537,
 .NOT_KNOWN.);
#530=PRODUCT_DEFINITION_FORMATION_WITH_SPECIFIED_SOURCE('','',#538,
 .NOT_KNOWN.);
#531=PRODUCT_RELATED_PRODUCT_CATEGORY('','',(#535));
#532=PRODUCT_RELATED_PRODUCT_CATEGORY('','',(#536));
#533=PRODUCT_RELATED_PRODUCT_CATEGORY('','',(#537));
#534=PRODUCT_RELATED_PRODUCT_CATEGORY('','',(#538));
#535=PRODUCT('1060 7.938','1060 7.938','1060 7.938',(#543));
#536=PRODUCT('1060 7.938_PART1','1060 7.938_PART1','1060 7.938_PART1',(#544));
#537=PRODUCT('1060 7.938_PART2','1060 7.938_PART2','1060 7.938_PART2',(#545));
#538=PRODUCT('1060 7.938_PART3','1060 7.938_PART3','1060 7.938_PART3',(#546));
#539=PRODUCT_CATEGORY('','');
#540=PRODUCT_CATEGORY('','');
#541=PRODUCT_CATEGORY('','');
#542=PRODUCT_CATEGORY('','');
#543=PRODUCT_CONTEXT('',#548,'mechanical');
#544=PRODUCT_CONTEXT('',#548,'mechanical');
#545=PRODUCT_CONTEXT('',#548,'mechanical');
#546=PRODUCT_CONTEXT('',#548,'mechanical');
#547=APPLICATION_PROTOCOL_DEFINITION('international standard',
'automotive_design',2010,#548);
#548=APPLICATION_CONTEXT(
'core data for automotive mechanical design processes');
ENDSEC;
END-ISO-10303-21;
