ISO-10303-21;
HEADER;
/* Generated by software containing ST-Developer
 * from STEP Tools, Inc. (www.steptools.com) 
 */
/* OPTION: using custom renumber hook */

FILE_DESCRIPTION(
/* description */ ('STEP AP214'),
/* implementation_level */ '2;1');

FILE_NAME(
/* name */ '1161 12.005',
/* time_stamp */ '2026-05-14T15:15:55+02:00',
/* author */ ('License CC BY-ND 4.0'),
/* organization */ ('CADENAS'),
/* preprocessor_version */ 'ST-DEVELOPER v20',
/* originating_system */ 'PARTsolutions',
/* authorisation */ '  ');

FILE_SCHEMA (('AUTOMOTIVE_DESIGN {1 0 10303 214 3 1 1}'));
ENDSEC;

DATA;
#10=PROPERTY_DEFINITION_REPRESENTATION(#14,#12);
#11=PROPERTY_DEFINITION_REPRESENTATION(#15,#13);
#12=REPRESENTATION('',(#16),#424);
#13=REPRESENTATION('',(#17),#424);
#14=PROPERTY_DEFINITION('pmi validation property','',#435);
#15=PROPERTY_DEFINITION('pmi validation property','',#435);
#16=VALUE_REPRESENTATION_ITEM('number of annotations',COUNT_MEASURE(0.));
#17=VALUE_REPRESENTATION_ITEM('number of views',COUNT_MEASURE(0.));
#18=TOROIDAL_SURFACE('',#277,5.991,0.001);
#19=CONTEXT_DEPENDENT_SHAPE_REPRESENTATION(#25,#437);
#20=CONTEXT_DEPENDENT_SHAPE_REPRESENTATION(#26,#439);
#21=CONTEXT_DEPENDENT_SHAPE_REPRESENTATION(#27,#441);
#22=NEXT_ASSEMBLY_USAGE_OCCURRENCE('NAUO1','1161 12.005_PART1',
'1161 12.005_PART1',#442,#443,'');
#23=NEXT_ASSEMBLY_USAGE_OCCURRENCE('NAUO2','1161 12.005_PART2',
'1161 12.005_PART2',#442,#444,'');
#24=NEXT_ASSEMBLY_USAGE_OCCURRENCE('NAUO3','1161 12.005_PART3',
'1161 12.005_PART3',#442,#445,'');
#25=(
REPRESENTATION_RELATIONSHIP(' ',' ',#249,#248)
REPRESENTATION_RELATIONSHIP_WITH_TRANSFORMATION(#28)
SHAPE_REPRESENTATION_RELATIONSHIP()
);
#26=(
REPRESENTATION_RELATIONSHIP(' ',' ',#250,#248)
REPRESENTATION_RELATIONSHIP_WITH_TRANSFORMATION(#29)
SHAPE_REPRESENTATION_RELATIONSHIP()
);
#27=(
REPRESENTATION_RELATIONSHIP(' ',' ',#251,#248)
REPRESENTATION_RELATIONSHIP_WITH_TRANSFORMATION(#30)
SHAPE_REPRESENTATION_RELATIONSHIP()
);
#28=ITEM_DEFINED_TRANSFORMATION(' ',' ',#252,#268);
#29=ITEM_DEFINED_TRANSFORMATION(' ',' ',#252,#282);
#30=ITEM_DEFINED_TRANSFORMATION(' ',' ',#252,#290);
#31=SHAPE_REPRESENTATION_RELATIONSHIP('','',#249,#34);
#32=SHAPE_REPRESENTATION_RELATIONSHIP('','',#250,#35);
#33=SHAPE_REPRESENTATION_RELATIONSHIP('','',#251,#36);
#34=ADVANCED_BREP_SHAPE_REPRESENTATION('',(#241),#425);
#35=ADVANCED_BREP_SHAPE_REPRESENTATION('',(#242),#426);
#36=ADVANCED_BREP_SHAPE_REPRESENTATION('',(#243),#427);
#37=CYLINDRICAL_SURFACE('',#261,5.9);
#38=CYLINDRICAL_SURFACE('',#263,5.99);
#39=CYLINDRICAL_SURFACE('',#267,6.);
#40=CYLINDRICAL_SURFACE('',#269,6.035);
#41=CYLINDRICAL_SURFACE('',#272,5.99);
#42=PLANE('',#256);
#43=PLANE('',#262);
#44=PLANE('',#275);
#45=PLANE('',#281);
#46=PLANE('',#283);
#47=PLANE('',#285);
#48=ORIENTED_EDGE('',*,*,#80,.T.);
#49=ORIENTED_EDGE('',*,*,#81,.F.);
#50=ORIENTED_EDGE('',*,*,#82,.T.);
#51=ORIENTED_EDGE('',*,*,#83,.T.);
#52=ORIENTED_EDGE('',*,*,#84,.F.);
#53=ORIENTED_EDGE('',*,*,#84,.T.);
#54=ORIENTED_EDGE('',*,*,#80,.F.);
#55=ORIENTED_EDGE('',*,*,#81,.T.);
#56=ORIENTED_EDGE('',*,*,#85,.F.);
#57=ORIENTED_EDGE('',*,*,#82,.F.);
#58=ORIENTED_EDGE('',*,*,#86,.F.);
#59=ORIENTED_EDGE('',*,*,#85,.T.);
#60=ORIENTED_EDGE('',*,*,#86,.T.);
#61=ORIENTED_EDGE('',*,*,#83,.F.);
#62=ORIENTED_EDGE('',*,*,#87,.F.);
#63=ORIENTED_EDGE('',*,*,#88,.T.);
#64=ORIENTED_EDGE('',*,*,#89,.T.);
#65=ORIENTED_EDGE('',*,*,#90,.T.);
#66=ORIENTED_EDGE('',*,*,#91,.F.);
#67=ORIENTED_EDGE('',*,*,#92,.T.);
#68=ORIENTED_EDGE('',*,*,#90,.F.);
#69=ORIENTED_EDGE('',*,*,#92,.F.);
#70=ORIENTED_EDGE('',*,*,#87,.T.);
#71=ORIENTED_EDGE('',*,*,#88,.F.);
#72=ORIENTED_EDGE('',*,*,#91,.T.);
#73=ORIENTED_EDGE('',*,*,#89,.F.);
#74=ORIENTED_EDGE('',*,*,#93,.T.);
#75=ORIENTED_EDGE('',*,*,#94,.F.);
#76=ORIENTED_EDGE('',*,*,#93,.F.);
#77=ORIENTED_EDGE('',*,*,#95,.T.);
#78=ORIENTED_EDGE('',*,*,#95,.F.);
#79=ORIENTED_EDGE('',*,*,#94,.T.);
#80=EDGE_CURVE('',#96,#96,#111,.T.);
#81=EDGE_CURVE('',#97,#97,#112,.T.);
#82=EDGE_CURVE('',#98,#98,#113,.T.);
#83=EDGE_CURVE('',#99,#99,#114,.T.);
#84=EDGE_CURVE('',#100,#100,#115,.T.);
#85=EDGE_CURVE('',#101,#101,#116,.T.);
#86=EDGE_CURVE('',#102,#102,#117,.T.);
#87=EDGE_CURVE('',#103,#103,#118,.T.);
#88=EDGE_CURVE('',#104,#104,#119,.T.);
#89=EDGE_CURVE('',#105,#105,#120,.T.);
#90=EDGE_CURVE('',#106,#106,#121,.T.);
#91=EDGE_CURVE('',#107,#107,#122,.T.);
#92=EDGE_CURVE('',#106,#106,#123,.T.);
#93=EDGE_CURVE('',#108,#108,#124,.T.);
#94=EDGE_CURVE('',#109,#109,#125,.T.);
#95=EDGE_CURVE('',#110,#110,#126,.T.);
#96=VERTEX_POINT('',#372);
#97=VERTEX_POINT('',#374);
#98=VERTEX_POINT('',#377);
#99=VERTEX_POINT('',#380);
#100=VERTEX_POINT('',#382);
#101=VERTEX_POINT('',#387);
#102=VERTEX_POINT('',#390);
#103=VERTEX_POINT('',#395);
#104=VERTEX_POINT('',#397);
#105=VERTEX_POINT('',#400);
#106=VERTEX_POINT('',#402);
#107=VERTEX_POINT('',#405);
#108=VERTEX_POINT('',#414);
#109=VERTEX_POINT('',#417);
#110=VERTEX_POINT('',#420);
#111=CIRCLE('',#254,5.9);
#112=CIRCLE('',#255,3.75);
#113=CIRCLE('',#257,5.99);
#114=CIRCLE('',#259,6.);
#115=CIRCLE('',#260,5.9);
#116=CIRCLE('',#264,5.99);
#117=CIRCLE('',#266,6.);
#118=CIRCLE('',#270,6.035);
#119=CIRCLE('',#271,6.035);
#120=CIRCLE('',#273,5.99);
#121=CIRCLE('',#274,5.99);
#122=CIRCLE('',#276,5.4679412);
#123=CIRCLE('',#278,5.9902929);
#124=CIRCLE('',#284,5.4679412);
#125=CIRCLE('',#286,5.2011);
#126=CIRCLE('',#288,5.46);
#127=EDGE_LOOP('',(#48));
#128=EDGE_LOOP('',(#49));
#129=EDGE_LOOP('',(#50));
#130=EDGE_LOOP('',(#51));
#131=EDGE_LOOP('',(#52));
#132=EDGE_LOOP('',(#53));
#133=EDGE_LOOP('',(#54));
#134=EDGE_LOOP('',(#55));
#135=EDGE_LOOP('',(#56));
#136=EDGE_LOOP('',(#57));
#137=EDGE_LOOP('',(#58));
#138=EDGE_LOOP('',(#59));
#139=EDGE_LOOP('',(#60));
#140=EDGE_LOOP('',(#61));
#141=EDGE_LOOP('',(#62));
#142=EDGE_LOOP('',(#63));
#143=EDGE_LOOP('',(#64));
#144=EDGE_LOOP('',(#65));
#145=EDGE_LOOP('',(#66));
#146=EDGE_LOOP('',(#67,#68));
#147=EDGE_LOOP('',(#69));
#148=EDGE_LOOP('',(#70));
#149=EDGE_LOOP('',(#71));
#150=EDGE_LOOP('',(#72));
#151=EDGE_LOOP('',(#73));
#152=EDGE_LOOP('',(#74));
#153=EDGE_LOOP('',(#75));
#154=EDGE_LOOP('',(#76));
#155=EDGE_LOOP('',(#77));
#156=EDGE_LOOP('',(#78));
#157=EDGE_LOOP('',(#79));
#158=FACE_BOUND('',#127,.T.);
#159=FACE_BOUND('',#128,.T.);
#160=FACE_BOUND('',#129,.T.);
#161=FACE_BOUND('',#130,.T.);
#162=FACE_BOUND('',#131,.T.);
#163=FACE_BOUND('',#132,.T.);
#164=FACE_BOUND('',#133,.T.);
#165=FACE_BOUND('',#134,.T.);
#166=FACE_BOUND('',#135,.T.);
#167=FACE_BOUND('',#136,.T.);
#168=FACE_BOUND('',#137,.T.);
#169=FACE_BOUND('',#138,.T.);
#170=FACE_BOUND('',#139,.T.);
#171=FACE_BOUND('',#140,.T.);
#172=FACE_BOUND('',#141,.T.);
#173=FACE_BOUND('',#142,.T.);
#174=FACE_BOUND('',#143,.T.);
#175=FACE_BOUND('',#144,.T.);
#176=FACE_BOUND('',#145,.T.);
#177=FACE_BOUND('',#146,.T.);
#178=FACE_BOUND('',#147,.T.);
#179=FACE_BOUND('',#148,.T.);
#180=FACE_BOUND('',#149,.T.);
#181=FACE_BOUND('',#150,.T.);
#182=FACE_BOUND('',#151,.T.);
#183=FACE_BOUND('',#152,.T.);
#184=FACE_BOUND('',#153,.T.);
#185=FACE_BOUND('',#154,.T.);
#186=FACE_BOUND('',#155,.T.);
#187=FACE_BOUND('',#156,.T.);
#188=FACE_BOUND('',#157,.T.);
#189=CONICAL_SURFACE('',#253,5.9,0.7853981625);
#190=CONICAL_SURFACE('',#258,6.,0.7853981625);
#191=CONICAL_SURFACE('',#265,6.,1.5533430325);
#192=CONICAL_SURFACE('',#279,5.9902929,0.7853981625);
#193=CONICAL_SURFACE('',#280,5.46,0.1541721697);
#194=CONICAL_SURFACE('',#287,5.46,0.1541721697);
#195=CONICAL_SURFACE('',#289,0.0002,0.7853981625);
#196=ADVANCED_FACE('',(#158,#159),#189,.T.);
#197=ADVANCED_FACE('',(#160),#42,.F.);
#198=ADVANCED_FACE('',(#161,#162),#190,.T.);
#199=ADVANCED_FACE('',(#163,#164),#37,.T.);
#200=ADVANCED_FACE('',(#165),#43,.F.);
#201=ADVANCED_FACE('',(#166,#167),#38,.T.);
#202=ADVANCED_FACE('',(#168,#169),#191,.T.);
#203=ADVANCED_FACE('',(#170,#171),#39,.T.);
#204=ADVANCED_FACE('',(#172,#173),#40,.T.);
#205=ADVANCED_FACE('',(#174,#175),#41,.T.);
#206=ADVANCED_FACE('',(#176),#44,.F.);
#207=ADVANCED_FACE('',(#177),#18,.F.);
#208=ADVANCED_FACE('',(#178,#179),#192,.T.);
#209=ADVANCED_FACE('',(#180,#181),#193,.T.);
#210=ADVANCED_FACE('',(#182),#45,.T.);
#211=ADVANCED_FACE('',(#183),#46,.T.);
#212=ADVANCED_FACE('',(#184),#47,.F.);
#213=ADVANCED_FACE('',(#185,#186),#194,.T.);
#214=ADVANCED_FACE('',(#187,#188),#195,.T.);
#215=CLOSED_SHELL('',(#196,#197,#198,#199,#200,#201,#202,#203));
#216=CLOSED_SHELL('',(#204,#205,#206,#207,#208,#209,#210));
#217=CLOSED_SHELL('',(#211,#212,#213,#214));
#218=STYLED_ITEM('',(#221),#241);
#219=STYLED_ITEM('',(#222),#242);
#220=STYLED_ITEM('',(#223),#243);
#221=PRESENTATION_STYLE_ASSIGNMENT((#224));
#222=PRESENTATION_STYLE_ASSIGNMENT((#225));
#223=PRESENTATION_STYLE_ASSIGNMENT((#226));
#224=SURFACE_STYLE_USAGE(.BOTH.,#227);
#225=SURFACE_STYLE_USAGE(.BOTH.,#228);
#226=SURFACE_STYLE_USAGE(.BOTH.,#229);
#227=SURFACE_SIDE_STYLE('',(#230));
#228=SURFACE_SIDE_STYLE('',(#231));
#229=SURFACE_SIDE_STYLE('',(#232));
#230=SURFACE_STYLE_FILL_AREA(#233);
#231=SURFACE_STYLE_FILL_AREA(#234);
#232=SURFACE_STYLE_FILL_AREA(#235);
#233=FILL_AREA_STYLE('',(#236));
#234=FILL_AREA_STYLE('',(#237));
#235=FILL_AREA_STYLE('',(#238));
#236=FILL_AREA_STYLE_COLOUR('',#239);
#237=FILL_AREA_STYLE_COLOUR('',#240);
#238=FILL_AREA_STYLE_COLOUR('',#239);
#239=COLOUR_RGB('',0.4999923706,0.4999923706,0.4999923706);
#240=COLOUR_RGB('',0.8000000119,0.8000000119,0.8000000119);
#241=MANIFOLD_SOLID_BREP('1',#215);
#242=MANIFOLD_SOLID_BREP('1',#216);
#243=MANIFOLD_SOLID_BREP('1',#217);
#244=SHAPE_DEFINITION_REPRESENTATION(#435,#248);
#245=SHAPE_DEFINITION_REPRESENTATION(#436,#249);
#246=SHAPE_DEFINITION_REPRESENTATION(#438,#250);
#247=SHAPE_DEFINITION_REPRESENTATION(#440,#251);
#248=SHAPE_REPRESENTATION('1161 12.005',(#252,#268,#282,#290),#424);
#249=SHAPE_REPRESENTATION('1161 12.005_PART1',(#252),#425);
#250=SHAPE_REPRESENTATION('1161 12.005_PART2',(#252),#426);
#251=SHAPE_REPRESENTATION('1161 12.005_PART3',(#252),#427);
#252=AXIS2_PLACEMENT_3D('',#369,#291,#292);
#253=AXIS2_PLACEMENT_3D('',#370,#293,#294);
#254=AXIS2_PLACEMENT_3D('',#371,#295,#296);
#255=AXIS2_PLACEMENT_3D('',#373,#297,#298);
#256=AXIS2_PLACEMENT_3D('',#375,#299,#300);
#257=AXIS2_PLACEMENT_3D('',#376,#301,#302);
#258=AXIS2_PLACEMENT_3D('',#378,#303,#304);
#259=AXIS2_PLACEMENT_3D('',#379,#305,#306);
#260=AXIS2_PLACEMENT_3D('',#381,#307,#308);
#261=AXIS2_PLACEMENT_3D('',#383,#309,#310);
#262=AXIS2_PLACEMENT_3D('',#384,#311,#312);
#263=AXIS2_PLACEMENT_3D('',#385,#313,#314);
#264=AXIS2_PLACEMENT_3D('',#386,#315,#316);
#265=AXIS2_PLACEMENT_3D('',#388,#317,#318);
#266=AXIS2_PLACEMENT_3D('',#389,#319,#320);
#267=AXIS2_PLACEMENT_3D('',#391,#321,#322);
#268=AXIS2_PLACEMENT_3D('',#392,#323,#324);
#269=AXIS2_PLACEMENT_3D('',#393,#325,#326);
#270=AXIS2_PLACEMENT_3D('',#394,#327,#328);
#271=AXIS2_PLACEMENT_3D('',#396,#329,#330);
#272=AXIS2_PLACEMENT_3D('',#398,#331,#332);
#273=AXIS2_PLACEMENT_3D('',#399,#333,#334);
#274=AXIS2_PLACEMENT_3D('',#401,#335,#336);
#275=AXIS2_PLACEMENT_3D('',#403,#337,#338);
#276=AXIS2_PLACEMENT_3D('',#404,#339,#340);
#277=AXIS2_PLACEMENT_3D('',#406,#341,#342);
#278=AXIS2_PLACEMENT_3D('',#407,#343,#344);
#279=AXIS2_PLACEMENT_3D('',#408,#345,#346);
#280=AXIS2_PLACEMENT_3D('',#409,#347,#348);
#281=AXIS2_PLACEMENT_3D('',#410,#349,#350);
#282=AXIS2_PLACEMENT_3D('',#411,#351,#352);
#283=AXIS2_PLACEMENT_3D('',#412,#353,#354);
#284=AXIS2_PLACEMENT_3D('',#413,#355,#356);
#285=AXIS2_PLACEMENT_3D('',#415,#357,#358);
#286=AXIS2_PLACEMENT_3D('',#416,#359,#360);
#287=AXIS2_PLACEMENT_3D('',#418,#361,#362);
#288=AXIS2_PLACEMENT_3D('',#419,#363,#364);
#289=AXIS2_PLACEMENT_3D('',#421,#365,#366);
#290=AXIS2_PLACEMENT_3D('',#422,#367,#368);
#291=DIRECTION('',(0.,0.,1.));
#292=DIRECTION('',(1.,0.,0.));
#293=DIRECTION('',(9.65747237843733E-17,0.,-1.));
#294=DIRECTION('',(-1.,0.,-9.65747237843733E-17));
#295=DIRECTION('',(0.,0.,1.));
#296=DIRECTION('',(1.,0.,0.));
#297=DIRECTION('',(0.,0.,1.));
#298=DIRECTION('',(1.,0.,0.));
#299=DIRECTION('',(0.,0.,1.));
#300=DIRECTION('',(1.,0.,0.));
#301=DIRECTION('',(0.,0.,-1.));
#302=DIRECTION('',(1.,0.,0.));
#303=DIRECTION('',(-5.51800708064255E-17,0.,-1.));
#304=DIRECTION('',(-1.,0.,5.51800708064255E-17));
#305=DIRECTION('',(0.,0.,1.));
#306=DIRECTION('',(1.,0.,0.));
#307=DIRECTION('',(0.,0.,1.));
#308=DIRECTION('',(1.,0.,0.));
#309=DIRECTION('',(0.,0.,-1.));
#310=DIRECTION('',(1.,0.,0.));
#311=DIRECTION('',(0.,0.,-1.));
#312=DIRECTION('',(0.,-1.,0.));
#313=DIRECTION('',(0.,0.,-1.));
#314=DIRECTION('',(1.,0.,0.));
#315=DIRECTION('',(0.,0.,1.));
#316=DIRECTION('',(1.,0.,0.));
#317=DIRECTION('',(4.84424640547267E-19,0.,1.));
#318=DIRECTION('',(1.,0.,-4.84424640547267E-19));
#319=DIRECTION('',(0.,0.,1.));
#320=DIRECTION('',(1.,0.,0.));
#321=DIRECTION('',(0.,0.,-1.));
#322=DIRECTION('',(1.,0.,0.));
#323=DIRECTION('',(0.,0.,1.));
#324=DIRECTION('',(1.,0.,0.));
#325=DIRECTION('',(0.,0.,-1.));
#326=DIRECTION('',(1.,0.,0.));
#327=DIRECTION('',(0.,0.,1.));
#328=DIRECTION('',(1.,0.,0.));
#329=DIRECTION('',(0.,0.,1.));
#330=DIRECTION('',(1.,0.,0.));
#331=DIRECTION('',(0.,0.,-1.));
#332=DIRECTION('',(1.,0.,0.));
#333=DIRECTION('',(0.,0.,-1.));
#334=DIRECTION('',(1.,0.,0.));
#335=DIRECTION('',(0.,0.,1.));
#336=DIRECTION('',(1.,0.,0.));
#337=DIRECTION('',(0.,0.,1.));
#338=DIRECTION('',(1.,0.,0.));
#339=DIRECTION('',(0.,0.,1.));
#340=DIRECTION('',(1.,0.,0.));
#341=DIRECTION('',(0.,0.,1.));
#342=DIRECTION('',(1.,0.,0.));
#343=DIRECTION('',(0.,0.,1.));
#344=DIRECTION('',(1.,0.,0.));
#345=DIRECTION('',(-8.27709048835778E-17,0.,-1.));
#346=DIRECTION('',(-1.,0.,8.27709048835778E-17));
#347=DIRECTION('',(8.62695603995146E-17,0.,1.));
#348=DIRECTION('',(1.,0.,-8.62695603995146E-17));
#349=DIRECTION('',(0.,0.,1.));
#350=DIRECTION('',(1.,0.,0.));
#351=DIRECTION('',(0.,0.,1.));
#352=DIRECTION('',(1.,0.,0.));
#353=DIRECTION('',(0.,0.,1.));
#354=DIRECTION('',(1.,0.,0.));
#355=DIRECTION('',(0.,0.,1.));
#356=DIRECTION('',(1.,0.,0.));
#357=DIRECTION('',(0.,0.,1.));
#358=DIRECTION('',(1.,0.,0.));
#359=DIRECTION('',(0.,0.,1.));
#360=DIRECTION('',(1.,0.,0.));
#361=DIRECTION('',(8.62695603995146E-17,0.,1.));
#362=DIRECTION('',(1.,0.,-8.62695603995146E-17));
#363=DIRECTION('',(0.,0.,1.));
#364=DIRECTION('',(1.,0.,0.));
#365=DIRECTION('',(4.16333550967724E-17,0.,1.));
#366=DIRECTION('',(1.,0.,-4.16333550967724E-17));
#367=DIRECTION('',(0.,0.,1.));
#368=DIRECTION('',(1.,0.,0.));
#369=CARTESIAN_POINT('',(0.,0.,0.));
#370=CARTESIAN_POINT('',(0.,0.,-2.15));
#371=CARTESIAN_POINT('',(0.,0.,-2.15000000001));
#372=CARTESIAN_POINT('',(5.9,0.,-2.15000000001));
#373=CARTESIAN_POINT('',(0.,0.,0.));
#374=CARTESIAN_POINT('',(3.75,0.,0.));
#375=CARTESIAN_POINT('',(0.,0.,-74.993));
#376=CARTESIAN_POINT('',(0.,0.,-74.99300000001));
#377=CARTESIAN_POINT('',(5.99,0.,-74.99300000001));
#378=CARTESIAN_POINT('',(0.,0.,-14.6));
#379=CARTESIAN_POINT('',(0.,0.,-14.60000000001));
#380=CARTESIAN_POINT('',(6.,0.,-14.60000000001));
#381=CARTESIAN_POINT('',(0.,0.,-14.50000000001));
#382=CARTESIAN_POINT('',(5.9,0.,-14.50000000001));
#383=CARTESIAN_POINT('',(0.,0.,-105.201));
#384=CARTESIAN_POINT('',(0.,3.75,-2.87015420111225E-15));
#385=CARTESIAN_POINT('',(0.,0.,-105.201));
#386=CARTESIAN_POINT('',(0.,0.,-74.8961857864476));
#387=CARTESIAN_POINT('',(5.99,0.,-74.8961857864476));
#388=CARTESIAN_POINT('',(0.,0.,-74.8960112357884));
#389=CARTESIAN_POINT('',(0.,0.,-74.8960112357984));
#390=CARTESIAN_POINT('',(6.,0.,-74.8960112357984));
#391=CARTESIAN_POINT('',(0.,0.,-105.201));
#392=CARTESIAN_POINT('',(0.,0.,0.));
#393=CARTESIAN_POINT('',(0.,0.,-105.201));
#394=CARTESIAN_POINT('',(0.,0.,-75.04160000001));
#395=CARTESIAN_POINT('',(6.035,0.,-75.04160000001));
#396=CARTESIAN_POINT('',(0.,0.,-96.04110000001));
#397=CARTESIAN_POINT('',(6.035,0.,-96.04110000001));
#398=CARTESIAN_POINT('',(0.,0.,-105.201));
#399=CARTESIAN_POINT('',(0.,0.,-74.99300000001));
#400=CARTESIAN_POINT('',(5.99,0.,-74.99300000001));
#401=CARTESIAN_POINT('',(0.,0.,-74.9961857864476));
#402=CARTESIAN_POINT('',(5.99014645,0.,-74.9965393398382));
#403=CARTESIAN_POINT('',(0.,0.,-99.69));
#404=CARTESIAN_POINT('',(0.,0.,-99.69000000001));
#405=CARTESIAN_POINT('',(5.4679412,0.,-99.69000000001));
#406=CARTESIAN_POINT('',(0.,0.,-74.9961857864377));
#407=CARTESIAN_POINT('',(0.,0.,-74.9968928932288));
#408=CARTESIAN_POINT('',(0.,0.,-74.9968928932188));
#409=CARTESIAN_POINT('',(0.,0.,-99.7411));
#410=CARTESIAN_POINT('',(0.,0.,-74.993));
#411=CARTESIAN_POINT('',(0.,0.,0.));
#412=CARTESIAN_POINT('',(0.,0.,-99.69));
#413=CARTESIAN_POINT('',(0.,0.,-99.69000000001));
#414=CARTESIAN_POINT('',(5.4679412,0.,-99.69000000001));
#415=CARTESIAN_POINT('',(0.,0.,-100.));
#416=CARTESIAN_POINT('',(0.,0.,-100.00000000001));
#417=CARTESIAN_POINT('',(5.2011,0.,-100.00000000001));
#418=CARTESIAN_POINT('',(0.,0.,-99.7411));
#419=CARTESIAN_POINT('',(0.,0.,-99.74110000001));
#420=CARTESIAN_POINT('',(5.46,0.,-99.74110000001));
#421=CARTESIAN_POINT('',(0.,0.,-105.2009));
#422=CARTESIAN_POINT('',(0.,0.,0.));
#423=MECHANICAL_DESIGN_GEOMETRIC_PRESENTATION_REPRESENTATION('',(#218,#219,
#220),#424);
#424=(
GEOMETRIC_REPRESENTATION_CONTEXT(3)
GLOBAL_UNCERTAINTY_ASSIGNED_CONTEXT((#428))
GLOBAL_UNIT_ASSIGNED_CONTEXT((#434,#433,#432))
REPRESENTATION_CONTEXT('1161 12.005','TOP_LEVEL_ASSEMBLY_PART')
);
#425=(
GEOMETRIC_REPRESENTATION_CONTEXT(3)
GLOBAL_UNCERTAINTY_ASSIGNED_CONTEXT((#429))
GLOBAL_UNIT_ASSIGNED_CONTEXT((#434,#433,#432))
REPRESENTATION_CONTEXT('1161 12.005_PART1','COMPONENT_PART')
);
#426=(
GEOMETRIC_REPRESENTATION_CONTEXT(3)
GLOBAL_UNCERTAINTY_ASSIGNED_CONTEXT((#430))
GLOBAL_UNIT_ASSIGNED_CONTEXT((#434,#433,#432))
REPRESENTATION_CONTEXT('1161 12.005_PART2','COMPONENT_PART')
);
#427=(
GEOMETRIC_REPRESENTATION_CONTEXT(3)
GLOBAL_UNCERTAINTY_ASSIGNED_CONTEXT((#431))
GLOBAL_UNIT_ASSIGNED_CONTEXT((#434,#433,#432))
REPRESENTATION_CONTEXT('1161 12.005_PART3','COMPONENT_PART')
);
#428=UNCERTAINTY_MEASURE_WITH_UNIT(LENGTH_MEASURE(1.E-5),#434,
'DISTANCE_ACCURACY_VALUE','Maximum Tolerance applied to model');
#429=UNCERTAINTY_MEASURE_WITH_UNIT(LENGTH_MEASURE(1.E-5),#434,
'DISTANCE_ACCURACY_VALUE','Maximum Tolerance applied to model');
#430=UNCERTAINTY_MEASURE_WITH_UNIT(LENGTH_MEASURE(1.E-5),#434,
'DISTANCE_ACCURACY_VALUE','Maximum Tolerance applied to model');
#431=UNCERTAINTY_MEASURE_WITH_UNIT(LENGTH_MEASURE(1.E-5),#434,
'DISTANCE_ACCURACY_VALUE','Maximum Tolerance applied to model');
#432=(
NAMED_UNIT(*)
SI_UNIT($,.STERADIAN.)
SOLID_ANGLE_UNIT()
);
#433=(
NAMED_UNIT(*)
PLANE_ANGLE_UNIT()
SI_UNIT($,.RADIAN.)
);
#434=(
LENGTH_UNIT()
NAMED_UNIT(*)
SI_UNIT(.MILLI.,.METRE.)
);
#435=PRODUCT_DEFINITION_SHAPE('','',#442);
#436=PRODUCT_DEFINITION_SHAPE('','',#443);
#437=PRODUCT_DEFINITION_SHAPE(' ','NAUO PRDDFN',#22);
#438=PRODUCT_DEFINITION_SHAPE('','',#444);
#439=PRODUCT_DEFINITION_SHAPE(' ','NAUO PRDDFN',#23);
#440=PRODUCT_DEFINITION_SHAPE('','',#445);
#441=PRODUCT_DEFINITION_SHAPE(' ','NAUO PRDDFN',#24);
#442=PRODUCT_DEFINITION('','',#450,#446);
#443=PRODUCT_DEFINITION('','',#451,#447);
#444=PRODUCT_DEFINITION('','',#452,#448);
#445=PRODUCT_DEFINITION('','',#453,#449);
#446=PRODUCT_DEFINITION_CONTEXT('',#471,'design');
#447=PRODUCT_DEFINITION_CONTEXT('',#471,'design');
#448=PRODUCT_DEFINITION_CONTEXT('',#471,'design');
#449=PRODUCT_DEFINITION_CONTEXT('',#471,'design');
#450=PRODUCT_DEFINITION_FORMATION_WITH_SPECIFIED_SOURCE('','',#458,
 .NOT_KNOWN.);
#451=PRODUCT_DEFINITION_FORMATION_WITH_SPECIFIED_SOURCE('','',#459,
 .NOT_KNOWN.);
#452=PRODUCT_DEFINITION_FORMATION_WITH_SPECIFIED_SOURCE('','',#460,
 .NOT_KNOWN.);
#453=PRODUCT_DEFINITION_FORMATION_WITH_SPECIFIED_SOURCE('','',#461,
 .NOT_KNOWN.);
#454=PRODUCT_RELATED_PRODUCT_CATEGORY('','',(#458));
#455=PRODUCT_RELATED_PRODUCT_CATEGORY('','',(#459));
#456=PRODUCT_RELATED_PRODUCT_CATEGORY('','',(#460));
#457=PRODUCT_RELATED_PRODUCT_CATEGORY('','',(#461));
#458=PRODUCT('1161 12.005','1161 12.005','1161 12.005',(#466));
#459=PRODUCT('1161 12.005_PART1','1161 12.005_PART1',
'1161 12.005_PART1',(#467));
#460=PRODUCT('1161 12.005_PART2','1161 12.005_PART2',
'1161 12.005_PART2',(#468));
#461=PRODUCT('1161 12.005_PART3','1161 12.005_PART3',
'1161 12.005_PART3',(#469));
#462=PRODUCT_CATEGORY('','');
#463=PRODUCT_CATEGORY('','');
#464=PRODUCT_CATEGORY('','');
#465=PRODUCT_CATEGORY('','');
#466=PRODUCT_CONTEXT('',#471,'mechanical');
#467=PRODUCT_CONTEXT('',#471,'mechanical');
#468=PRODUCT_CONTEXT('',#471,'mechanical');
#469=PRODUCT_CONTEXT('',#471,'mechanical');
#470=APPLICATION_PROTOCOL_DEFINITION('international standard',
'automotive_design',2010,#471);
#471=APPLICATION_CONTEXT(
'core data for automotive mechanical design processes');
ENDSEC;
END-ISO-10303-21;
