ISO-10303-21;
HEADER;
/* Generated by software containing ST-Developer
 * from STEP Tools, Inc. (www.steptools.com) 
 */
/* OPTION: using custom renumber hook */

FILE_DESCRIPTION(
/* description */ ('STEP AP214'),
/* implementation_level */ '2;1');

FILE_NAME(
/* name */ '1291 14.006',
/* time_stamp */ '2026-05-14T15:26:30+02:00',
/* author */ ('License CC BY-ND 4.0'),
/* organization */ ('CADENAS'),
/* preprocessor_version */ 'ST-DEVELOPER v20',
/* originating_system */ 'PARTsolutions',
/* authorisation */ '  ');

FILE_SCHEMA (('AUTOMOTIVE_DESIGN {1 0 10303 214 3 1 1}'));
ENDSEC;

DATA;
#10=PROPERTY_DEFINITION_REPRESENTATION(#14,#12);
#11=PROPERTY_DEFINITION_REPRESENTATION(#15,#13);
#12=REPRESENTATION('',(#16),#388);
#13=REPRESENTATION('',(#17),#388);
#14=PROPERTY_DEFINITION('pmi validation property','',#399);
#15=PROPERTY_DEFINITION('pmi validation property','',#399);
#16=VALUE_REPRESENTATION_ITEM('number of annotations',COUNT_MEASURE(0.));
#17=VALUE_REPRESENTATION_ITEM('number of views',COUNT_MEASURE(0.));
#18=CONTEXT_DEPENDENT_SHAPE_REPRESENTATION(#24,#401);
#19=CONTEXT_DEPENDENT_SHAPE_REPRESENTATION(#25,#403);
#20=CONTEXT_DEPENDENT_SHAPE_REPRESENTATION(#26,#405);
#21=NEXT_ASSEMBLY_USAGE_OCCURRENCE('NAUO1','1291 14.006_PART1',
'1291 14.006_PART1',#406,#407,'');
#22=NEXT_ASSEMBLY_USAGE_OCCURRENCE('NAUO2','1291 14.006_PART2',
'1291 14.006_PART2',#406,#408,'');
#23=NEXT_ASSEMBLY_USAGE_OCCURRENCE('NAUO3','1291 14.006_PART3',
'1291 14.006_PART3',#406,#409,'');
#24=(
REPRESENTATION_RELATIONSHIP(' ',' ',#230,#229)
REPRESENTATION_RELATIONSHIP_WITH_TRANSFORMATION(#27)
SHAPE_REPRESENTATION_RELATIONSHIP()
);
#25=(
REPRESENTATION_RELATIONSHIP(' ',' ',#231,#229)
REPRESENTATION_RELATIONSHIP_WITH_TRANSFORMATION(#28)
SHAPE_REPRESENTATION_RELATIONSHIP()
);
#26=(
REPRESENTATION_RELATIONSHIP(' ',' ',#232,#229)
REPRESENTATION_RELATIONSHIP_WITH_TRANSFORMATION(#29)
SHAPE_REPRESENTATION_RELATIONSHIP()
);
#27=ITEM_DEFINED_TRANSFORMATION(' ',' ',#233,#251);
#28=ITEM_DEFINED_TRANSFORMATION(' ',' ',#233,#261);
#29=ITEM_DEFINED_TRANSFORMATION(' ',' ',#233,#267);
#30=SHAPE_REPRESENTATION_RELATIONSHIP('','',#230,#33);
#31=SHAPE_REPRESENTATION_RELATIONSHIP('','',#231,#34);
#32=SHAPE_REPRESENTATION_RELATIONSHIP('','',#232,#35);
#33=ADVANCED_BREP_SHAPE_REPRESENTATION('',(#222),#389);
#34=ADVANCED_BREP_SHAPE_REPRESENTATION('',(#223),#390);
#35=ADVANCED_BREP_SHAPE_REPRESENTATION('',(#224),#391);
#36=CYLINDRICAL_SURFACE('',#241,5.4);
#37=CYLINDRICAL_SURFACE('',#246,5.5);
#38=CYLINDRICAL_SURFACE('',#248,5.4);
#39=CYLINDRICAL_SURFACE('',#252,7.04);
#40=CONICAL_SURFACE('',#236,5.4,0.523598775);
#41=CONICAL_SURFACE('',#238,5.5,0.7853981625);
#42=CONICAL_SURFACE('',#243,5.4,0.7853981625);
#43=CONICAL_SURFACE('',#250,5.5,0.523598775);
#44=CONICAL_SURFACE('',#255,5.4,0.523598775);
#45=CONICAL_SURFACE('',#259,6.325,0.1535437824);
#46=CONICAL_SURFACE('',#264,5.945,0.7853981625);
#47=ORIENTED_EDGE('',*,*,#75,.T.);
#48=ORIENTED_EDGE('',*,*,#76,.F.);
#49=ORIENTED_EDGE('',*,*,#75,.F.);
#50=ORIENTED_EDGE('',*,*,#77,.T.);
#51=ORIENTED_EDGE('',*,*,#78,.F.);
#52=ORIENTED_EDGE('',*,*,#78,.T.);
#53=ORIENTED_EDGE('',*,*,#79,.F.);
#54=ORIENTED_EDGE('',*,*,#79,.T.);
#55=ORIENTED_EDGE('',*,*,#80,.F.);
#56=ORIENTED_EDGE('',*,*,#80,.T.);
#57=ORIENTED_EDGE('',*,*,#81,.T.);
#58=ORIENTED_EDGE('',*,*,#77,.F.);
#59=ORIENTED_EDGE('',*,*,#82,.F.);
#60=ORIENTED_EDGE('',*,*,#76,.T.);
#61=ORIENTED_EDGE('',*,*,#81,.F.);
#62=ORIENTED_EDGE('',*,*,#82,.T.);
#63=ORIENTED_EDGE('',*,*,#83,.F.);
#64=ORIENTED_EDGE('',*,*,#84,.T.);
#65=ORIENTED_EDGE('',*,*,#85,.T.);
#66=ORIENTED_EDGE('',*,*,#83,.T.);
#67=ORIENTED_EDGE('',*,*,#86,.F.);
#68=ORIENTED_EDGE('',*,*,#86,.T.);
#69=ORIENTED_EDGE('',*,*,#84,.F.);
#70=ORIENTED_EDGE('',*,*,#85,.F.);
#71=ORIENTED_EDGE('',*,*,#87,.T.);
#72=ORIENTED_EDGE('',*,*,#88,.T.);
#73=ORIENTED_EDGE('',*,*,#87,.F.);
#74=ORIENTED_EDGE('',*,*,#88,.F.);
#75=EDGE_CURVE('',#89,#89,#103,.T.);
#76=EDGE_CURVE('',#90,#90,#104,.T.);
#77=EDGE_CURVE('',#91,#91,#105,.T.);
#78=EDGE_CURVE('',#92,#92,#106,.T.);
#79=EDGE_CURVE('',#93,#93,#107,.T.);
#80=EDGE_CURVE('',#94,#94,#108,.T.);
#81=EDGE_CURVE('',#95,#95,#109,.T.);
#82=EDGE_CURVE('',#96,#96,#110,.T.);
#83=EDGE_CURVE('',#97,#97,#111,.T.);
#84=EDGE_CURVE('',#98,#98,#112,.T.);
#85=EDGE_CURVE('',#99,#99,#113,.T.);
#86=EDGE_CURVE('',#100,#100,#114,.T.);
#87=EDGE_CURVE('',#101,#101,#115,.T.);
#88=EDGE_CURVE('',#102,#102,#116,.T.);
#89=VERTEX_POINT('',#341);
#90=VERTEX_POINT('',#344);
#91=VERTEX_POINT('',#347);
#92=VERTEX_POINT('',#349);
#93=VERTEX_POINT('',#352);
#94=VERTEX_POINT('',#355);
#95=VERTEX_POINT('',#359);
#96=VERTEX_POINT('',#362);
#97=VERTEX_POINT('',#367);
#98=VERTEX_POINT('',#369);
#99=VERTEX_POINT('',#372);
#100=VERTEX_POINT('',#375);
#101=VERTEX_POINT('',#381);
#102=VERTEX_POINT('',#384);
#103=CIRCLE('',#235,6.712);
#104=CIRCLE('',#237,5.4);
#105=CIRCLE('',#239,5.5);
#106=CIRCLE('',#240,5.4);
#107=CIRCLE('',#242,5.4);
#108=CIRCLE('',#244,3.75);
#109=CIRCLE('',#247,5.5);
#110=CIRCLE('',#249,5.4);
#111=CIRCLE('',#253,7.04);
#112=CIRCLE('',#254,7.04);
#113=CIRCLE('',#256,6.712);
#114=CIRCLE('',#258,6.325);
#115=CIRCLE('',#263,6.325);
#116=CIRCLE('',#265,5.945);
#117=EDGE_LOOP('',(#47));
#118=EDGE_LOOP('',(#48));
#119=EDGE_LOOP('',(#49));
#120=EDGE_LOOP('',(#50));
#121=EDGE_LOOP('',(#51));
#122=EDGE_LOOP('',(#52));
#123=EDGE_LOOP('',(#53));
#124=EDGE_LOOP('',(#54));
#125=EDGE_LOOP('',(#55));
#126=EDGE_LOOP('',(#56));
#127=EDGE_LOOP('',(#57));
#128=EDGE_LOOP('',(#58));
#129=EDGE_LOOP('',(#59));
#130=EDGE_LOOP('',(#60));
#131=EDGE_LOOP('',(#61));
#132=EDGE_LOOP('',(#62));
#133=EDGE_LOOP('',(#63));
#134=EDGE_LOOP('',(#64));
#135=EDGE_LOOP('',(#65));
#136=EDGE_LOOP('',(#66));
#137=EDGE_LOOP('',(#67));
#138=EDGE_LOOP('',(#68));
#139=EDGE_LOOP('',(#69));
#140=EDGE_LOOP('',(#70));
#141=EDGE_LOOP('',(#71));
#142=EDGE_LOOP('',(#72));
#143=EDGE_LOOP('',(#73));
#144=EDGE_LOOP('',(#74));
#145=FACE_BOUND('',#117,.T.);
#146=FACE_BOUND('',#118,.T.);
#147=FACE_BOUND('',#119,.T.);
#148=FACE_BOUND('',#120,.T.);
#149=FACE_BOUND('',#121,.T.);
#150=FACE_BOUND('',#122,.T.);
#151=FACE_BOUND('',#123,.T.);
#152=FACE_BOUND('',#124,.T.);
#153=FACE_BOUND('',#125,.T.);
#154=FACE_BOUND('',#126,.T.);
#155=FACE_BOUND('',#127,.T.);
#156=FACE_BOUND('',#128,.T.);
#157=FACE_BOUND('',#129,.T.);
#158=FACE_BOUND('',#130,.T.);
#159=FACE_BOUND('',#131,.T.);
#160=FACE_BOUND('',#132,.T.);
#161=FACE_BOUND('',#133,.T.);
#162=FACE_BOUND('',#134,.T.);
#163=FACE_BOUND('',#135,.T.);
#164=FACE_BOUND('',#136,.T.);
#165=FACE_BOUND('',#137,.T.);
#166=FACE_BOUND('',#138,.T.);
#167=FACE_BOUND('',#139,.T.);
#168=FACE_BOUND('',#140,.T.);
#169=FACE_BOUND('',#141,.T.);
#170=FACE_BOUND('',#142,.T.);
#171=FACE_BOUND('',#143,.T.);
#172=FACE_BOUND('',#144,.T.);
#173=PLANE('',#234);
#174=PLANE('',#245);
#175=PLANE('',#257);
#176=PLANE('',#260);
#177=PLANE('',#262);
#178=PLANE('',#266);
#179=ADVANCED_FACE('',(#145),#173,.F.);
#180=ADVANCED_FACE('',(#146,#147),#40,.T.);
#181=ADVANCED_FACE('',(#148,#149),#41,.T.);
#182=ADVANCED_FACE('',(#150,#151),#36,.T.);
#183=ADVANCED_FACE('',(#152,#153),#42,.T.);
#184=ADVANCED_FACE('',(#154),#174,.F.);
#185=ADVANCED_FACE('',(#155,#156),#37,.T.);
#186=ADVANCED_FACE('',(#157,#158),#38,.T.);
#187=ADVANCED_FACE('',(#159,#160),#43,.T.);
#188=ADVANCED_FACE('',(#161,#162),#39,.T.);
#189=ADVANCED_FACE('',(#163,#164),#44,.T.);
#190=ADVANCED_FACE('',(#165),#175,.F.);
#191=ADVANCED_FACE('',(#166,#167),#45,.T.);
#192=ADVANCED_FACE('',(#168),#176,.T.);
#193=ADVANCED_FACE('',(#169),#177,.T.);
#194=ADVANCED_FACE('',(#170,#171),#46,.T.);
#195=ADVANCED_FACE('',(#172),#178,.T.);
#196=CLOSED_SHELL('',(#179,#180,#181,#182,#183,#184,#185,#186,#187));
#197=CLOSED_SHELL('',(#188,#189,#190,#191,#192));
#198=CLOSED_SHELL('',(#193,#194,#195));
#199=STYLED_ITEM('',(#202),#222);
#200=STYLED_ITEM('',(#203),#223);
#201=STYLED_ITEM('',(#204),#224);
#202=PRESENTATION_STYLE_ASSIGNMENT((#205));
#203=PRESENTATION_STYLE_ASSIGNMENT((#206));
#204=PRESENTATION_STYLE_ASSIGNMENT((#207));
#205=SURFACE_STYLE_USAGE(.BOTH.,#208);
#206=SURFACE_STYLE_USAGE(.BOTH.,#209);
#207=SURFACE_STYLE_USAGE(.BOTH.,#210);
#208=SURFACE_SIDE_STYLE('',(#211));
#209=SURFACE_SIDE_STYLE('',(#212));
#210=SURFACE_SIDE_STYLE('',(#213));
#211=SURFACE_STYLE_FILL_AREA(#214);
#212=SURFACE_STYLE_FILL_AREA(#215);
#213=SURFACE_STYLE_FILL_AREA(#216);
#214=FILL_AREA_STYLE('',(#217));
#215=FILL_AREA_STYLE('',(#218));
#216=FILL_AREA_STYLE('',(#219));
#217=FILL_AREA_STYLE_COLOUR('',#220);
#218=FILL_AREA_STYLE_COLOUR('',#221);
#219=FILL_AREA_STYLE_COLOUR('',#220);
#220=COLOUR_RGB('',0.4999923706,0.4999923706,0.4999923706);
#221=COLOUR_RGB('',0.8000000119,0.8000000119,0.8000000119);
#222=MANIFOLD_SOLID_BREP('1',#196);
#223=MANIFOLD_SOLID_BREP('1',#197);
#224=MANIFOLD_SOLID_BREP('1',#198);
#225=SHAPE_DEFINITION_REPRESENTATION(#399,#229);
#226=SHAPE_DEFINITION_REPRESENTATION(#400,#230);
#227=SHAPE_DEFINITION_REPRESENTATION(#402,#231);
#228=SHAPE_DEFINITION_REPRESENTATION(#404,#232);
#229=SHAPE_REPRESENTATION('1291 14.006',(#233,#251,#261,#267),#388);
#230=SHAPE_REPRESENTATION('1291 14.006_PART1',(#233),#389);
#231=SHAPE_REPRESENTATION('1291 14.006_PART2',(#233),#390);
#232=SHAPE_REPRESENTATION('1291 14.006_PART3',(#233),#391);
#233=AXIS2_PLACEMENT_3D('',#338,#268,#269);
#234=AXIS2_PLACEMENT_3D('',#339,#270,#271);
#235=AXIS2_PLACEMENT_3D('',#340,#272,#273);
#236=AXIS2_PLACEMENT_3D('',#342,#274,#275);
#237=AXIS2_PLACEMENT_3D('',#343,#276,#277);
#238=AXIS2_PLACEMENT_3D('',#345,#278,#279);
#239=AXIS2_PLACEMENT_3D('',#346,#280,#281);
#240=AXIS2_PLACEMENT_3D('',#348,#282,#283);
#241=AXIS2_PLACEMENT_3D('',#350,#284,#285);
#242=AXIS2_PLACEMENT_3D('',#351,#286,#287);
#243=AXIS2_PLACEMENT_3D('',#353,#288,#289);
#244=AXIS2_PLACEMENT_3D('',#354,#290,#291);
#245=AXIS2_PLACEMENT_3D('',#356,#292,#293);
#246=AXIS2_PLACEMENT_3D('',#357,#294,#295);
#247=AXIS2_PLACEMENT_3D('',#358,#296,#297);
#248=AXIS2_PLACEMENT_3D('',#360,#298,#299);
#249=AXIS2_PLACEMENT_3D('',#361,#300,#301);
#250=AXIS2_PLACEMENT_3D('',#363,#302,#303);
#251=AXIS2_PLACEMENT_3D('',#364,#304,#305);
#252=AXIS2_PLACEMENT_3D('',#365,#306,#307);
#253=AXIS2_PLACEMENT_3D('',#366,#308,#309);
#254=AXIS2_PLACEMENT_3D('',#368,#310,#311);
#255=AXIS2_PLACEMENT_3D('',#370,#312,#313);
#256=AXIS2_PLACEMENT_3D('',#371,#314,#315);
#257=AXIS2_PLACEMENT_3D('',#373,#316,#317);
#258=AXIS2_PLACEMENT_3D('',#374,#318,#319);
#259=AXIS2_PLACEMENT_3D('',#376,#320,#321);
#260=AXIS2_PLACEMENT_3D('',#377,#322,#323);
#261=AXIS2_PLACEMENT_3D('',#378,#324,#325);
#262=AXIS2_PLACEMENT_3D('',#379,#326,#327);
#263=AXIS2_PLACEMENT_3D('',#380,#328,#329);
#264=AXIS2_PLACEMENT_3D('',#382,#330,#331);
#265=AXIS2_PLACEMENT_3D('',#383,#332,#333);
#266=AXIS2_PLACEMENT_3D('',#385,#334,#335);
#267=AXIS2_PLACEMENT_3D('',#386,#336,#337);
#268=DIRECTION('',(0.,0.,1.));
#269=DIRECTION('',(1.,0.,0.));
#270=DIRECTION('',(0.,0.,1.));
#271=DIRECTION('',(1.,0.,0.));
#272=DIRECTION('',(0.,0.,-1.));
#273=DIRECTION('',(1.,0.,0.));
#274=DIRECTION('',(-7.14428900759477E-17,0.,-1.));
#275=DIRECTION('',(-1.,0.,7.14428900759477E-17));
#276=DIRECTION('',(0.,0.,1.));
#277=DIRECTION('',(1.,0.,0.));
#278=DIRECTION('',(3.45046937041638E-18,0.,-1.));
#279=DIRECTION('',(-1.,0.,-3.45046937041638E-18));
#280=DIRECTION('',(0.,0.,1.));
#281=DIRECTION('',(1.,0.,0.));
#282=DIRECTION('',(0.,0.,1.));
#283=DIRECTION('',(1.,0.,0.));
#284=DIRECTION('',(0.,0.,-1.));
#285=DIRECTION('',(1.,0.,0.));
#286=DIRECTION('',(0.,0.,1.));
#287=DIRECTION('',(1.,0.,0.));
#288=DIRECTION('',(-7.35454427725397E-17,0.,-1.));
#289=DIRECTION('',(-1.,0.,7.35454427725397E-17));
#290=DIRECTION('',(0.,0.,1.));
#291=DIRECTION('',(1.,0.,0.));
#292=DIRECTION('',(0.,0.,-1.));
#293=DIRECTION('',(0.,-1.,0.));
#294=DIRECTION('',(0.,0.,-1.));
#295=DIRECTION('',(1.,0.,0.));
#296=DIRECTION('',(0.,0.,1.));
#297=DIRECTION('',(1.,0.,0.));
#298=DIRECTION('',(0.,0.,-1.));
#299=DIRECTION('',(1.,0.,0.));
#300=DIRECTION('',(0.,0.,1.));
#301=DIRECTION('',(1.,0.,0.));
#302=DIRECTION('',(-1.19051054288003E-17,0.,1.));
#303=DIRECTION('',(1.,0.,1.19051054288003E-17));
#304=DIRECTION('',(0.,0.,1.));
#305=DIRECTION('',(1.,0.,0.));
#306=DIRECTION('',(0.,0.,-1.));
#307=DIRECTION('',(1.,0.,0.));
#308=DIRECTION('',(0.,0.,1.));
#309=DIRECTION('',(1.,0.,0.));
#310=DIRECTION('',(0.,0.,1.));
#311=DIRECTION('',(1.,0.,0.));
#312=DIRECTION('',(-7.14428900759477E-17,0.,-1.));
#313=DIRECTION('',(-1.,0.,7.14428900759477E-17));
#314=DIRECTION('',(0.,0.,-1.));
#315=DIRECTION('',(1.,0.,0.));
#316=DIRECTION('',(0.,0.,1.));
#317=DIRECTION('',(1.,0.,0.));
#318=DIRECTION('',(0.,0.,1.));
#319=DIRECTION('',(1.,0.,0.));
#320=DIRECTION('',(0.,0.,1.));
#321=DIRECTION('',(1.,0.,0.));
#322=DIRECTION('',(0.,0.,1.));
#323=DIRECTION('',(1.,0.,0.));
#324=DIRECTION('',(0.,0.,1.));
#325=DIRECTION('',(1.,0.,0.));
#326=DIRECTION('',(0.,0.,1.));
#327=DIRECTION('',(1.,0.,0.));
#328=DIRECTION('',(0.,0.,1.));
#329=DIRECTION('',(1.,0.,0.));
#330=DIRECTION('',(-2.75915438872208E-17,0.,1.));
#331=DIRECTION('',(1.,0.,2.75915438872208E-17));
#332=DIRECTION('',(0.,0.,1.));
#333=DIRECTION('',(1.,0.,0.));
#334=DIRECTION('',(0.,0.,-1.));
#335=DIRECTION('',(0.,-1.,0.));
#336=DIRECTION('',(0.,0.,1.));
#337=DIRECTION('',(1.,0.,0.));
#338=CARTESIAN_POINT('',(0.,0.,0.));
#339=CARTESIAN_POINT('',(0.,0.,-79.4318873351174));
#340=CARTESIAN_POINT('',(0.,0.,-79.4318873351274));
#341=CARTESIAN_POINT('',(6.712,0.,-79.4318873351274));
#342=CARTESIAN_POINT('',(0.,0.,-77.159436675587));
#343=CARTESIAN_POINT('',(0.,0.,-77.159436675597));
#344=CARTESIAN_POINT('',(5.4,0.,-77.159436675597));
#345=CARTESIAN_POINT('',(0.,0.,-14.1));
#346=CARTESIAN_POINT('',(0.,0.,-14.10000000001));
#347=CARTESIAN_POINT('',(5.5,0.,-14.10000000001));
#348=CARTESIAN_POINT('',(0.,0.,-14.00000000001));
#349=CARTESIAN_POINT('',(5.4,0.,-14.00000000001));
#350=CARTESIAN_POINT('',(0.,0.,-2.7896521898052E-15));
#351=CARTESIAN_POINT('',(0.,0.,-1.65000000001));
#352=CARTESIAN_POINT('',(5.4,0.,-1.65000000001));
#353=CARTESIAN_POINT('',(0.,0.,-1.65));
#354=CARTESIAN_POINT('',(0.,0.,-1.00032489202301E-11));
#355=CARTESIAN_POINT('',(3.75,0.,-1.00032489202301E-11));
#356=CARTESIAN_POINT('',(0.,3.75,-3.01928620993763E-15));
#357=CARTESIAN_POINT('',(0.,0.,-2.7896521898052E-15));
#358=CARTESIAN_POINT('',(0.,0.,-59.9002315948402));
#359=CARTESIAN_POINT('',(5.5,0.,-59.9002315948402));
#360=CARTESIAN_POINT('',(0.,0.,-2.7896521898052E-15));
#361=CARTESIAN_POINT('',(0.,0.,-60.073436675597));
#362=CARTESIAN_POINT('',(5.4,0.,-60.073436675597));
#363=CARTESIAN_POINT('',(0.,0.,-59.9002315948302));
#364=CARTESIAN_POINT('',(0.,0.,0.));
#365=CARTESIAN_POINT('',(0.,0.,-2.7896521898052E-15));
#366=CARTESIAN_POINT('',(0.,0.,-80.00000000001));
#367=CARTESIAN_POINT('',(7.04,0.,-80.00000000001));
#368=CARTESIAN_POINT('',(0.,0.,-95.00000000001));
#369=CARTESIAN_POINT('',(7.04,0.,-95.00000000001));
#370=CARTESIAN_POINT('',(0.,0.,-77.159436675587));
#371=CARTESIAN_POINT('',(0.,0.,-79.4318873351274));
#372=CARTESIAN_POINT('',(6.712,0.,-79.4318873351274));
#373=CARTESIAN_POINT('',(0.,0.,-99.62));
#374=CARTESIAN_POINT('',(0.,0.,-99.62000000001));
#375=CARTESIAN_POINT('',(6.325,0.,-99.62000000001));
#376=CARTESIAN_POINT('',(0.,0.,-99.62));
#377=CARTESIAN_POINT('',(0.,0.,-79.4318873351174));
#378=CARTESIAN_POINT('',(0.,0.,0.));
#379=CARTESIAN_POINT('',(0.,0.,-99.62));
#380=CARTESIAN_POINT('',(0.,0.,-99.62000000001));
#381=CARTESIAN_POINT('',(6.325,0.,-99.62000000001));
#382=CARTESIAN_POINT('',(0.,0.,-100.));
#383=CARTESIAN_POINT('',(0.,0.,-100.00000000001));
#384=CARTESIAN_POINT('',(5.945,0.,-100.00000000001));
#385=CARTESIAN_POINT('',(0.,5.94500000000001,-100.));
#386=CARTESIAN_POINT('',(0.,0.,0.));
#387=MECHANICAL_DESIGN_GEOMETRIC_PRESENTATION_REPRESENTATION('',(#199,#200,
#201),#388);
#388=(
GEOMETRIC_REPRESENTATION_CONTEXT(3)
GLOBAL_UNCERTAINTY_ASSIGNED_CONTEXT((#392))
GLOBAL_UNIT_ASSIGNED_CONTEXT((#398,#397,#396))
REPRESENTATION_CONTEXT('1291 14.006','TOP_LEVEL_ASSEMBLY_PART')
);
#389=(
GEOMETRIC_REPRESENTATION_CONTEXT(3)
GLOBAL_UNCERTAINTY_ASSIGNED_CONTEXT((#393))
GLOBAL_UNIT_ASSIGNED_CONTEXT((#398,#397,#396))
REPRESENTATION_CONTEXT('1291 14.006_PART1','COMPONENT_PART')
);
#390=(
GEOMETRIC_REPRESENTATION_CONTEXT(3)
GLOBAL_UNCERTAINTY_ASSIGNED_CONTEXT((#394))
GLOBAL_UNIT_ASSIGNED_CONTEXT((#398,#397,#396))
REPRESENTATION_CONTEXT('1291 14.006_PART2','COMPONENT_PART')
);
#391=(
GEOMETRIC_REPRESENTATION_CONTEXT(3)
GLOBAL_UNCERTAINTY_ASSIGNED_CONTEXT((#395))
GLOBAL_UNIT_ASSIGNED_CONTEXT((#398,#397,#396))
REPRESENTATION_CONTEXT('1291 14.006_PART3','COMPONENT_PART')
);
#392=UNCERTAINTY_MEASURE_WITH_UNIT(LENGTH_MEASURE(1.E-5),#398,
'DISTANCE_ACCURACY_VALUE','Maximum Tolerance applied to model');
#393=UNCERTAINTY_MEASURE_WITH_UNIT(LENGTH_MEASURE(1.E-5),#398,
'DISTANCE_ACCURACY_VALUE','Maximum Tolerance applied to model');
#394=UNCERTAINTY_MEASURE_WITH_UNIT(LENGTH_MEASURE(1.E-5),#398,
'DISTANCE_ACCURACY_VALUE','Maximum Tolerance applied to model');
#395=UNCERTAINTY_MEASURE_WITH_UNIT(LENGTH_MEASURE(1.E-5),#398,
'DISTANCE_ACCURACY_VALUE','Maximum Tolerance applied to model');
#396=(
NAMED_UNIT(*)
SI_UNIT($,.STERADIAN.)
SOLID_ANGLE_UNIT()
);
#397=(
NAMED_UNIT(*)
PLANE_ANGLE_UNIT()
SI_UNIT($,.RADIAN.)
);
#398=(
LENGTH_UNIT()
NAMED_UNIT(*)
SI_UNIT(.MILLI.,.METRE.)
);
#399=PRODUCT_DEFINITION_SHAPE('','',#406);
#400=PRODUCT_DEFINITION_SHAPE('','',#407);
#401=PRODUCT_DEFINITION_SHAPE(' ','NAUO PRDDFN',#21);
#402=PRODUCT_DEFINITION_SHAPE('','',#408);
#403=PRODUCT_DEFINITION_SHAPE(' ','NAUO PRDDFN',#22);
#404=PRODUCT_DEFINITION_SHAPE('','',#409);
#405=PRODUCT_DEFINITION_SHAPE(' ','NAUO PRDDFN',#23);
#406=PRODUCT_DEFINITION('','',#414,#410);
#407=PRODUCT_DEFINITION('','',#415,#411);
#408=PRODUCT_DEFINITION('','',#416,#412);
#409=PRODUCT_DEFINITION('','',#417,#413);
#410=PRODUCT_DEFINITION_CONTEXT('',#435,'design');
#411=PRODUCT_DEFINITION_CONTEXT('',#435,'design');
#412=PRODUCT_DEFINITION_CONTEXT('',#435,'design');
#413=PRODUCT_DEFINITION_CONTEXT('',#435,'design');
#414=PRODUCT_DEFINITION_FORMATION_WITH_SPECIFIED_SOURCE('','',#422,
 .NOT_KNOWN.);
#415=PRODUCT_DEFINITION_FORMATION_WITH_SPECIFIED_SOURCE('','',#423,
 .NOT_KNOWN.);
#416=PRODUCT_DEFINITION_FORMATION_WITH_SPECIFIED_SOURCE('','',#424,
 .NOT_KNOWN.);
#417=PRODUCT_DEFINITION_FORMATION_WITH_SPECIFIED_SOURCE('','',#425,
 .NOT_KNOWN.);
#418=PRODUCT_RELATED_PRODUCT_CATEGORY('','',(#422));
#419=PRODUCT_RELATED_PRODUCT_CATEGORY('','',(#423));
#420=PRODUCT_RELATED_PRODUCT_CATEGORY('','',(#424));
#421=PRODUCT_RELATED_PRODUCT_CATEGORY('','',(#425));
#422=PRODUCT('1291 14.006','1291 14.006','1291 14.006',(#430));
#423=PRODUCT('1291 14.006_PART1','1291 14.006_PART1',
'1291 14.006_PART1',(#431));
#424=PRODUCT('1291 14.006_PART2','1291 14.006_PART2',
'1291 14.006_PART2',(#432));
#425=PRODUCT('1291 14.006_PART3','1291 14.006_PART3',
'1291 14.006_PART3',(#433));
#426=PRODUCT_CATEGORY('','');
#427=PRODUCT_CATEGORY('','');
#428=PRODUCT_CATEGORY('','');
#429=PRODUCT_CATEGORY('','');
#430=PRODUCT_CONTEXT('',#435,'mechanical');
#431=PRODUCT_CONTEXT('',#435,'mechanical');
#432=PRODUCT_CONTEXT('',#435,'mechanical');
#433=PRODUCT_CONTEXT('',#435,'mechanical');
#434=APPLICATION_PROTOCOL_DEFINITION('international standard',
'automotive_design',2010,#435);
#435=APPLICATION_CONTEXT(
'core data for automotive mechanical design processes');
ENDSEC;
END-ISO-10303-21;
