ISO-10303-21;
HEADER;
/* Generated by software containing ST-Developer
 * from STEP Tools, Inc. (www.steptools.com) 
 */
/* OPTION: using custom renumber hook */

FILE_DESCRIPTION(
/* description */ ('STEP AP214'),
/* implementation_level */ '2;1');

FILE_NAME(
/* name */ '1408 5.000',
/* time_stamp */ '2026-05-15T10:59:22+02:00',
/* author */ ('License CC BY-ND 4.0'),
/* organization */ ('CADENAS'),
/* preprocessor_version */ 'ST-DEVELOPER v20',
/* originating_system */ 'PARTsolutions',
/* authorisation */ '  ');

FILE_SCHEMA (('AUTOMOTIVE_DESIGN {1 0 10303 214 3 1 1}'));
ENDSEC;

DATA;
#10=PROPERTY_DEFINITION_REPRESENTATION(#14,#12);
#11=PROPERTY_DEFINITION_REPRESENTATION(#15,#13);
#12=REPRESENTATION('',(#16),#372);
#13=REPRESENTATION('',(#17),#372);
#14=PROPERTY_DEFINITION('pmi validation property','',#383);
#15=PROPERTY_DEFINITION('pmi validation property','',#383);
#16=VALUE_REPRESENTATION_ITEM('number of annotations',COUNT_MEASURE(0.));
#17=VALUE_REPRESENTATION_ITEM('number of views',COUNT_MEASURE(0.));
#18=VERTEX_LOOP('',#101);
#19=CONTEXT_DEPENDENT_SHAPE_REPRESENTATION(#25,#385);
#20=CONTEXT_DEPENDENT_SHAPE_REPRESENTATION(#26,#387);
#21=CONTEXT_DEPENDENT_SHAPE_REPRESENTATION(#27,#389);
#22=NEXT_ASSEMBLY_USAGE_OCCURRENCE('NAUO1','1408 5.000_PART1',
'1408 5.000_PART1',#390,#391,'');
#23=NEXT_ASSEMBLY_USAGE_OCCURRENCE('NAUO2','1408 5.000_PART2',
'1408 5.000_PART2',#390,#392,'');
#24=NEXT_ASSEMBLY_USAGE_OCCURRENCE('NAUO3','1408 5.000_PART3',
'1408 5.000_PART3',#390,#393,'');
#25=(
REPRESENTATION_RELATIONSHIP(' ',' ',#222,#221)
REPRESENTATION_RELATIONSHIP_WITH_TRANSFORMATION(#28)
SHAPE_REPRESENTATION_RELATIONSHIP()
);
#26=(
REPRESENTATION_RELATIONSHIP(' ',' ',#223,#221)
REPRESENTATION_RELATIONSHIP_WITH_TRANSFORMATION(#29)
SHAPE_REPRESENTATION_RELATIONSHIP()
);
#27=(
REPRESENTATION_RELATIONSHIP(' ',' ',#224,#221)
REPRESENTATION_RELATIONSHIP_WITH_TRANSFORMATION(#30)
SHAPE_REPRESENTATION_RELATIONSHIP()
);
#28=ITEM_DEFINED_TRANSFORMATION(' ',' ',#225,#237);
#29=ITEM_DEFINED_TRANSFORMATION(' ',' ',#225,#251);
#30=ITEM_DEFINED_TRANSFORMATION(' ',' ',#225,#257);
#31=SHAPE_REPRESENTATION_RELATIONSHIP('','',#222,#34);
#32=SHAPE_REPRESENTATION_RELATIONSHIP('','',#223,#35);
#33=SHAPE_REPRESENTATION_RELATIONSHIP('','',#224,#36);
#34=ADVANCED_BREP_SHAPE_REPRESENTATION('',(#214),#373);
#35=ADVANCED_BREP_SHAPE_REPRESENTATION('',(#215),#374);
#36=ADVANCED_BREP_SHAPE_REPRESENTATION('',(#216),#375);
#37=PLANE('',#231);
#38=PLANE('',#234);
#39=PLANE('',#241);
#40=PLANE('',#247);
#41=PLANE('',#252);
#42=CONICAL_SURFACE('',#229,2.5,1.04719755);
#43=CONICAL_SURFACE('',#232,2.25,0.7853981625);
#44=CONICAL_SURFACE('',#243,2.5,0.2617993875);
#45=CONICAL_SURFACE('',#248,2.0048507,0.7853981625);
#46=CONICAL_SURFACE('',#250,2.4998254,0.0174532925);
#47=CONICAL_SURFACE('',#254,2.0048507,0.7853981625);
#48=CONICAL_SURFACE('',#256,1.7320508,1.04719755);
#49=ORIENTED_EDGE('',*,*,#75,.T.);
#50=ORIENTED_EDGE('',*,*,#76,.T.);
#51=ORIENTED_EDGE('',*,*,#76,.F.);
#52=ORIENTED_EDGE('',*,*,#77,.F.);
#53=ORIENTED_EDGE('',*,*,#77,.T.);
#54=ORIENTED_EDGE('',*,*,#78,.T.);
#55=ORIENTED_EDGE('',*,*,#75,.F.);
#56=ORIENTED_EDGE('',*,*,#79,.F.);
#57=ORIENTED_EDGE('',*,*,#78,.F.);
#58=ORIENTED_EDGE('',*,*,#79,.T.);
#59=ORIENTED_EDGE('',*,*,#80,.T.);
#60=ORIENTED_EDGE('',*,*,#81,.F.);
#61=ORIENTED_EDGE('',*,*,#82,.F.);
#62=ORIENTED_EDGE('',*,*,#81,.T.);
#63=ORIENTED_EDGE('',*,*,#83,.F.);
#64=ORIENTED_EDGE('',*,*,#84,.F.);
#65=ORIENTED_EDGE('',*,*,#83,.T.);
#66=ORIENTED_EDGE('',*,*,#84,.T.);
#67=ORIENTED_EDGE('',*,*,#85,.F.);
#68=ORIENTED_EDGE('',*,*,#82,.T.);
#69=ORIENTED_EDGE('',*,*,#85,.T.);
#70=ORIENTED_EDGE('',*,*,#80,.F.);
#71=ORIENTED_EDGE('',*,*,#86,.T.);
#72=ORIENTED_EDGE('',*,*,#86,.F.);
#73=ORIENTED_EDGE('',*,*,#87,.T.);
#74=ORIENTED_EDGE('',*,*,#87,.F.);
#75=EDGE_CURVE('',#88,#88,#102,.T.);
#76=EDGE_CURVE('',#89,#89,#103,.T.);
#77=EDGE_CURVE('',#90,#90,#104,.T.);
#78=EDGE_CURVE('',#91,#91,#105,.T.);
#79=EDGE_CURVE('',#92,#92,#106,.T.);
#80=EDGE_CURVE('',#93,#93,#107,.T.);
#81=EDGE_CURVE('',#94,#94,#108,.T.);
#82=EDGE_CURVE('',#95,#95,#109,.T.);
#83=EDGE_CURVE('',#96,#96,#110,.T.);
#84=EDGE_CURVE('',#97,#97,#111,.T.);
#85=EDGE_CURVE('',#98,#98,#112,.T.);
#86=EDGE_CURVE('',#99,#99,#113,.T.);
#87=EDGE_CURVE('',#100,#100,#114,.T.);
#88=VERTEX_POINT('',#327);
#89=VERTEX_POINT('',#329);
#90=VERTEX_POINT('',#332);
#91=VERTEX_POINT('',#336);
#92=VERTEX_POINT('',#339);
#93=VERTEX_POINT('',#344);
#94=VERTEX_POINT('',#346);
#95=VERTEX_POINT('',#349);
#96=VERTEX_POINT('',#352);
#97=VERTEX_POINT('',#355);
#98=VERTEX_POINT('',#359);
#99=VERTEX_POINT('',#364);
#100=VERTEX_POINT('',#367);
#101=VERTEX_POINT('',#369);
#102=CIRCLE('',#227,2.5);
#103=CIRCLE('',#228,2.5);
#104=CIRCLE('',#230,0.000650691584872457);
#105=CIRCLE('',#233,2.25);
#106=CIRCLE('',#235,2.25);
#107=CIRCLE('',#239,2.5);
#108=CIRCLE('',#240,2.5);
#109=CIRCLE('',#242,2.0148507);
#110=CIRCLE('',#244,2.25);
#111=CIRCLE('',#246,2.25);
#112=CIRCLE('',#249,2.49982539918383);
#113=CIRCLE('',#253,2.0148507);
#114=CIRCLE('',#255,2.00485070792651);
#115=EDGE_LOOP('',(#49));
#116=EDGE_LOOP('',(#50));
#117=EDGE_LOOP('',(#51));
#118=EDGE_LOOP('',(#52));
#119=EDGE_LOOP('',(#53));
#120=EDGE_LOOP('',(#54));
#121=EDGE_LOOP('',(#55));
#122=EDGE_LOOP('',(#56));
#123=EDGE_LOOP('',(#57));
#124=EDGE_LOOP('',(#58));
#125=EDGE_LOOP('',(#59));
#126=EDGE_LOOP('',(#60));
#127=EDGE_LOOP('',(#61));
#128=EDGE_LOOP('',(#62));
#129=EDGE_LOOP('',(#63));
#130=EDGE_LOOP('',(#64));
#131=EDGE_LOOP('',(#65));
#132=EDGE_LOOP('',(#66));
#133=EDGE_LOOP('',(#67));
#134=EDGE_LOOP('',(#68));
#135=EDGE_LOOP('',(#69));
#136=EDGE_LOOP('',(#70));
#137=EDGE_LOOP('',(#71));
#138=EDGE_LOOP('',(#72));
#139=EDGE_LOOP('',(#73));
#140=EDGE_LOOP('',(#74));
#141=FACE_BOUND('',#115,.T.);
#142=FACE_BOUND('',#116,.T.);
#143=FACE_BOUND('',#117,.T.);
#144=FACE_BOUND('',#118,.T.);
#145=FACE_BOUND('',#119,.T.);
#146=FACE_BOUND('',#120,.T.);
#147=FACE_BOUND('',#121,.T.);
#148=FACE_BOUND('',#122,.T.);
#149=FACE_BOUND('',#123,.T.);
#150=FACE_BOUND('',#124,.T.);
#151=FACE_BOUND('',#125,.T.);
#152=FACE_BOUND('',#126,.T.);
#153=FACE_BOUND('',#127,.T.);
#154=FACE_BOUND('',#128,.T.);
#155=FACE_BOUND('',#129,.T.);
#156=FACE_BOUND('',#130,.T.);
#157=FACE_BOUND('',#131,.T.);
#158=FACE_BOUND('',#132,.T.);
#159=FACE_BOUND('',#133,.T.);
#160=FACE_BOUND('',#134,.T.);
#161=FACE_BOUND('',#135,.T.);
#162=FACE_BOUND('',#136,.T.);
#163=FACE_BOUND('',#137,.T.);
#164=FACE_BOUND('',#138,.T.);
#165=FACE_BOUND('',#139,.T.);
#166=FACE_BOUND('',#18,.T.);
#167=FACE_BOUND('',#140,.T.);
#168=CYLINDRICAL_SURFACE('',#226,2.5);
#169=CYLINDRICAL_SURFACE('',#236,2.25);
#170=CYLINDRICAL_SURFACE('',#238,2.5);
#171=CYLINDRICAL_SURFACE('',#245,2.25);
#172=ADVANCED_FACE('',(#141,#142),#168,.T.);
#173=ADVANCED_FACE('',(#143,#144),#42,.T.);
#174=ADVANCED_FACE('',(#145),#37,.T.);
#175=ADVANCED_FACE('',(#146,#147),#43,.T.);
#176=ADVANCED_FACE('',(#148),#38,.F.);
#177=ADVANCED_FACE('',(#149,#150),#169,.T.);
#178=ADVANCED_FACE('',(#151,#152),#170,.T.);
#179=ADVANCED_FACE('',(#153),#39,.F.);
#180=ADVANCED_FACE('',(#154,#155),#44,.T.);
#181=ADVANCED_FACE('',(#156,#157),#171,.T.);
#182=ADVANCED_FACE('',(#158),#40,.T.);
#183=ADVANCED_FACE('',(#159,#160),#45,.T.);
#184=ADVANCED_FACE('',(#161,#162),#46,.T.);
#185=ADVANCED_FACE('',(#163),#41,.T.);
#186=ADVANCED_FACE('',(#164,#165),#47,.T.);
#187=ADVANCED_FACE('',(#166,#167),#48,.T.);
#188=CLOSED_SHELL('',(#172,#173,#174,#175,#176,#177));
#189=CLOSED_SHELL('',(#178,#179,#180,#181,#182,#183,#184));
#190=CLOSED_SHELL('',(#185,#186,#187));
#191=STYLED_ITEM('',(#194),#214);
#192=STYLED_ITEM('',(#195),#215);
#193=STYLED_ITEM('',(#196),#216);
#194=PRESENTATION_STYLE_ASSIGNMENT((#197));
#195=PRESENTATION_STYLE_ASSIGNMENT((#198));
#196=PRESENTATION_STYLE_ASSIGNMENT((#199));
#197=SURFACE_STYLE_USAGE(.BOTH.,#200);
#198=SURFACE_STYLE_USAGE(.BOTH.,#201);
#199=SURFACE_STYLE_USAGE(.BOTH.,#202);
#200=SURFACE_SIDE_STYLE('',(#203));
#201=SURFACE_SIDE_STYLE('',(#204));
#202=SURFACE_SIDE_STYLE('',(#205));
#203=SURFACE_STYLE_FILL_AREA(#206);
#204=SURFACE_STYLE_FILL_AREA(#207);
#205=SURFACE_STYLE_FILL_AREA(#208);
#206=FILL_AREA_STYLE('',(#209));
#207=FILL_AREA_STYLE('',(#210));
#208=FILL_AREA_STYLE('',(#211));
#209=FILL_AREA_STYLE_COLOUR('',#212);
#210=FILL_AREA_STYLE_COLOUR('',#213);
#211=FILL_AREA_STYLE_COLOUR('',#212);
#212=COLOUR_RGB('',0.4999923706,0.4999923706,0.4999923706);
#213=COLOUR_RGB('',0.8000000119,0.8000000119,0.8000000119);
#214=MANIFOLD_SOLID_BREP('1',#188);
#215=MANIFOLD_SOLID_BREP('1',#189);
#216=MANIFOLD_SOLID_BREP('1',#190);
#217=SHAPE_DEFINITION_REPRESENTATION(#383,#221);
#218=SHAPE_DEFINITION_REPRESENTATION(#384,#222);
#219=SHAPE_DEFINITION_REPRESENTATION(#386,#223);
#220=SHAPE_DEFINITION_REPRESENTATION(#388,#224);
#221=SHAPE_REPRESENTATION('1408 5.000',(#225,#237,#251,#257),#372);
#222=SHAPE_REPRESENTATION('1408 5.000_PART1',(#225),#373);
#223=SHAPE_REPRESENTATION('1408 5.000_PART2',(#225),#374);
#224=SHAPE_REPRESENTATION('1408 5.000_PART3',(#225),#375);
#225=AXIS2_PLACEMENT_3D('',#324,#258,#259);
#226=AXIS2_PLACEMENT_3D('',#325,#260,#261);
#227=AXIS2_PLACEMENT_3D('',#326,#262,#263);
#228=AXIS2_PLACEMENT_3D('',#328,#264,#265);
#229=AXIS2_PLACEMENT_3D('',#330,#266,#267);
#230=AXIS2_PLACEMENT_3D('',#331,#268,#269);
#231=AXIS2_PLACEMENT_3D('',#333,#270,#271);
#232=AXIS2_PLACEMENT_3D('',#334,#272,#273);
#233=AXIS2_PLACEMENT_3D('',#335,#274,#275);
#234=AXIS2_PLACEMENT_3D('',#337,#276,#277);
#235=AXIS2_PLACEMENT_3D('',#338,#278,#279);
#236=AXIS2_PLACEMENT_3D('',#340,#280,#281);
#237=AXIS2_PLACEMENT_3D('',#341,#282,#283);
#238=AXIS2_PLACEMENT_3D('',#342,#284,#285);
#239=AXIS2_PLACEMENT_3D('',#343,#286,#287);
#240=AXIS2_PLACEMENT_3D('',#345,#288,#289);
#241=AXIS2_PLACEMENT_3D('',#347,#290,#291);
#242=AXIS2_PLACEMENT_3D('',#348,#292,#293);
#243=AXIS2_PLACEMENT_3D('',#350,#294,#295);
#244=AXIS2_PLACEMENT_3D('',#351,#296,#297);
#245=AXIS2_PLACEMENT_3D('',#353,#298,#299);
#246=AXIS2_PLACEMENT_3D('',#354,#300,#301);
#247=AXIS2_PLACEMENT_3D('',#356,#302,#303);
#248=AXIS2_PLACEMENT_3D('',#357,#304,#305);
#249=AXIS2_PLACEMENT_3D('',#358,#306,#307);
#250=AXIS2_PLACEMENT_3D('',#360,#308,#309);
#251=AXIS2_PLACEMENT_3D('',#361,#310,#311);
#252=AXIS2_PLACEMENT_3D('',#362,#312,#313);
#253=AXIS2_PLACEMENT_3D('',#363,#314,#315);
#254=AXIS2_PLACEMENT_3D('',#365,#316,#317);
#255=AXIS2_PLACEMENT_3D('',#366,#318,#319);
#256=AXIS2_PLACEMENT_3D('',#368,#320,#321);
#257=AXIS2_PLACEMENT_3D('',#370,#322,#323);
#258=DIRECTION('',(0.,0.,1.));
#259=DIRECTION('',(1.,0.,0.));
#260=DIRECTION('',(0.,0.,1.));
#261=DIRECTION('',(-1.,0.,0.));
#262=DIRECTION('',(0.,0.,1.));
#263=DIRECTION('',(0.,1.,0.));
#264=DIRECTION('',(0.,0.,-1.));
#265=DIRECTION('',(1.,0.,0.));
#266=DIRECTION('',(-5.48804626124781E-17,0.,-1.));
#267=DIRECTION('',(-1.,0.,5.48804626124781E-17));
#268=DIRECTION('',(0.,0.,1.));
#269=DIRECTION('',(1.,0.,0.));
#270=DIRECTION('',(0.,0.,1.));
#271=DIRECTION('',(1.,0.,0.));
#272=DIRECTION('',(0.,0.,1.));
#273=DIRECTION('',(0.,1.,0.));
#274=DIRECTION('',(0.,0.,1.));
#275=DIRECTION('',(0.,1.,0.));
#276=DIRECTION('',(0.,0.,1.));
#277=DIRECTION('',(1.,0.,0.));
#278=DIRECTION('',(0.,0.,1.));
#279=DIRECTION('',(1.,0.,0.));
#280=DIRECTION('',(0.,0.,-1.));
#281=DIRECTION('',(0.,1.,0.));
#282=DIRECTION('',(0.,0.,1.));
#283=DIRECTION('',(1.,0.,0.));
#284=DIRECTION('',(0.,0.,-1.));
#285=DIRECTION('',(0.,1.,0.));
#286=DIRECTION('',(0.,0.,1.));
#287=DIRECTION('',(1.,0.,0.));
#288=DIRECTION('',(0.,0.,1.));
#289=DIRECTION('',(0.,1.,0.));
#290=DIRECTION('',(0.,0.,1.));
#291=DIRECTION('',(1.,0.,0.));
#292=DIRECTION('',(0.,0.,1.));
#293=DIRECTION('',(1.,0.,0.));
#294=DIRECTION('',(0.,0.,-1.));
#295=DIRECTION('',(0.,-1.,0.));
#296=DIRECTION('',(0.,0.,1.));
#297=DIRECTION('',(0.,1.,0.));
#298=DIRECTION('',(0.,0.,-1.));
#299=DIRECTION('',(0.,1.,0.));
#300=DIRECTION('',(0.,0.,1.));
#301=DIRECTION('',(1.,0.,0.));
#302=DIRECTION('',(0.,0.,1.));
#303=DIRECTION('',(1.,0.,0.));
#304=DIRECTION('',(0.,0.,1.));
#305=DIRECTION('',(0.,1.,0.));
#306=DIRECTION('',(0.,0.,1.));
#307=DIRECTION('',(1.,0.,0.));
#308=DIRECTION('',(0.,0.,1.));
#309=DIRECTION('',(0.,1.,0.));
#310=DIRECTION('',(0.,0.,1.));
#311=DIRECTION('',(1.,0.,0.));
#312=DIRECTION('',(0.,0.,1.));
#313=DIRECTION('',(1.,0.,0.));
#314=DIRECTION('',(0.,0.,1.));
#315=DIRECTION('',(1.,0.,0.));
#316=DIRECTION('',(0.,0.,1.));
#317=DIRECTION('',(0.,1.,0.));
#318=DIRECTION('',(0.,0.,1.));
#319=DIRECTION('',(1.,0.,0.));
#320=DIRECTION('',(0.,0.,1.));
#321=DIRECTION('',(0.,1.,0.));
#322=DIRECTION('',(0.,0.,1.));
#323=DIRECTION('',(1.,0.,0.));
#324=CARTESIAN_POINT('',(0.,0.,0.));
#325=CARTESIAN_POINT('',(1.69041009109258E-15,0.,1.443));
#326=CARTESIAN_POINT('',(1.00016904100911E-11,-1.00062994905546E-11,-34.00000000001));
#327=CARTESIAN_POINT('',(1.00016904100911E-11,2.49999999998999,-34.00000000001));
#328=CARTESIAN_POINT('',(1.00016904100911E-11,0.,0.));
#329=CARTESIAN_POINT('',(2.50000000001,0.,0.));
#330=CARTESIAN_POINT('',(1.69041009109258E-15,0.,0.));
#331=CARTESIAN_POINT('',(1.61127943551895E-15,0.,1.443));
#332=CARTESIAN_POINT('',(0.000650691584874068,0.,1.443));
#333=CARTESIAN_POINT('',(1.69041009109258E-15,0.,1.443));
#334=CARTESIAN_POINT('',(1.69041009109258E-15,-6.34392450884813E-15,-34.25));
#335=CARTESIAN_POINT('',(1.00016904100911E-11,-1.00063439245088E-11,-34.25000000001));
#336=CARTESIAN_POINT('',(1.00016904100911E-11,2.24999999998999,-34.25000000001));
#337=CARTESIAN_POINT('',(1.69041009109258E-15,0.,-61.507));
#338=CARTESIAN_POINT('',(1.00016904100911E-11,-1.00111884696672E-11,-61.50700000001));
#339=CARTESIAN_POINT('',(2.25000000001,-1.00111884696672E-11,-61.50700000001));
#340=CARTESIAN_POINT('',(1.69041009109258E-15,0.,1.443));
#341=CARTESIAN_POINT('',(0.,0.,0.));
#342=CARTESIAN_POINT('',(1.69041009109258E-15,0.,1.443));
#343=CARTESIAN_POINT('',(1.69041009109258E-15,-1.54714628065899E-14,-85.5945213330722));
#344=CARTESIAN_POINT('',(2.5,-1.54714628065899E-14,-85.5945213330722));
#345=CARTESIAN_POINT('',(1.00016904100911E-11,-1.00114639601832E-11,-63.05700000001));
#346=CARTESIAN_POINT('',(1.00016904100911E-11,2.49999999998999,-63.05700000001));
#347=CARTESIAN_POINT('',(1.69041009109258E-15,0.,-86.089498907215));
#348=CARTESIAN_POINT('',(1.00020502985846E-11,-1.00155594375475E-11,-86.089498907225));
#349=CARTESIAN_POINT('',(2.01485070001,-1.00155594375475E-11,-86.089498907225));
#350=CARTESIAN_POINT('',(1.69041009109258E-15,-1.14639601832489E-14,-63.057));
#351=CARTESIAN_POINT('',(1.00016904100911E-11,-1.00112981304086E-11,-62.1239872981178));
#352=CARTESIAN_POINT('',(1.00016904100911E-11,2.24999999998999,-62.1239872981178));
#353=CARTESIAN_POINT('',(1.69041009109258E-15,0.,1.443));
#354=CARTESIAN_POINT('',(1.00016904100911E-11,-1.00111884696672E-11,-61.50700000001));
#355=CARTESIAN_POINT('',(2.25000000001,-1.00111884696672E-11,-61.50700000001));
#356=CARTESIAN_POINT('',(1.69041009109258E-15,0.,-61.507));
#357=CARTESIAN_POINT('',(1.69041009109258E-15,-1.55594375475105E-14,-86.099498907215));
#358=CARTESIAN_POINT('',(1.69041009109258E-15,-1.55594375475105E-14,-85.6045242071427));
#359=CARTESIAN_POINT('',(2.49982539918383,-1.55594375475105E-14,-85.6045242071427));
#360=CARTESIAN_POINT('',(1.69041009109258E-15,-1.54714628065899E-14,-85.6045241603844));
#361=CARTESIAN_POINT('',(0.,0.,0.));
#362=CARTESIAN_POINT('',(1.69041009109258E-15,0.,-86.089498907215));
#363=CARTESIAN_POINT('',(1.00020502985846E-11,-1.00155594375475E-11,-86.089498907225));
#364=CARTESIAN_POINT('',(2.01485070001,-1.00155594375475E-11,-86.089498907225));
#365=CARTESIAN_POINT('',(1.69041009109258E-15,-1.55594375475105E-14,-86.099498907215));
#366=CARTESIAN_POINT('',(1.69041009109258E-15,-1.55874311328826E-14,-86.0994988992885));
#367=CARTESIAN_POINT('',(2.00485070792651,-1.55874311328826E-14,-86.0994988992885));
#368=CARTESIAN_POINT('',(1.69041009109258E-15,-1.55874311328826E-14,-86.257));
#369=CARTESIAN_POINT('',(1.69041009109258E-15,-1.56541446472147E-14,-87.257));
#370=CARTESIAN_POINT('',(0.,0.,0.));
#371=MECHANICAL_DESIGN_GEOMETRIC_PRESENTATION_REPRESENTATION('',(#191,#192,
#193),#372);
#372=(
GEOMETRIC_REPRESENTATION_CONTEXT(3)
GLOBAL_UNCERTAINTY_ASSIGNED_CONTEXT((#376))
GLOBAL_UNIT_ASSIGNED_CONTEXT((#382,#381,#380))
REPRESENTATION_CONTEXT('1408 5.000','TOP_LEVEL_ASSEMBLY_PART')
);
#373=(
GEOMETRIC_REPRESENTATION_CONTEXT(3)
GLOBAL_UNCERTAINTY_ASSIGNED_CONTEXT((#377))
GLOBAL_UNIT_ASSIGNED_CONTEXT((#382,#381,#380))
REPRESENTATION_CONTEXT('1408 5.000_PART1','COMPONENT_PART')
);
#374=(
GEOMETRIC_REPRESENTATION_CONTEXT(3)
GLOBAL_UNCERTAINTY_ASSIGNED_CONTEXT((#378))
GLOBAL_UNIT_ASSIGNED_CONTEXT((#382,#381,#380))
REPRESENTATION_CONTEXT('1408 5.000_PART2','COMPONENT_PART')
);
#375=(
GEOMETRIC_REPRESENTATION_CONTEXT(3)
GLOBAL_UNCERTAINTY_ASSIGNED_CONTEXT((#379))
GLOBAL_UNIT_ASSIGNED_CONTEXT((#382,#381,#380))
REPRESENTATION_CONTEXT('1408 5.000_PART3','COMPONENT_PART')
);
#376=UNCERTAINTY_MEASURE_WITH_UNIT(LENGTH_MEASURE(1.E-5),#382,
'DISTANCE_ACCURACY_VALUE','Maximum Tolerance applied to model');
#377=UNCERTAINTY_MEASURE_WITH_UNIT(LENGTH_MEASURE(1.E-5),#382,
'DISTANCE_ACCURACY_VALUE','Maximum Tolerance applied to model');
#378=UNCERTAINTY_MEASURE_WITH_UNIT(LENGTH_MEASURE(1.E-5),#382,
'DISTANCE_ACCURACY_VALUE','Maximum Tolerance applied to model');
#379=UNCERTAINTY_MEASURE_WITH_UNIT(LENGTH_MEASURE(1.E-5),#382,
'DISTANCE_ACCURACY_VALUE','Maximum Tolerance applied to model');
#380=(
NAMED_UNIT(*)
SI_UNIT($,.STERADIAN.)
SOLID_ANGLE_UNIT()
);
#381=(
NAMED_UNIT(*)
PLANE_ANGLE_UNIT()
SI_UNIT($,.RADIAN.)
);
#382=(
LENGTH_UNIT()
NAMED_UNIT(*)
SI_UNIT(.MILLI.,.METRE.)
);
#383=PRODUCT_DEFINITION_SHAPE('','',#390);
#384=PRODUCT_DEFINITION_SHAPE('','',#391);
#385=PRODUCT_DEFINITION_SHAPE(' ','NAUO PRDDFN',#22);
#386=PRODUCT_DEFINITION_SHAPE('','',#392);
#387=PRODUCT_DEFINITION_SHAPE(' ','NAUO PRDDFN',#23);
#388=PRODUCT_DEFINITION_SHAPE('','',#393);
#389=PRODUCT_DEFINITION_SHAPE(' ','NAUO PRDDFN',#24);
#390=PRODUCT_DEFINITION('','',#398,#394);
#391=PRODUCT_DEFINITION('','',#399,#395);
#392=PRODUCT_DEFINITION('','',#400,#396);
#393=PRODUCT_DEFINITION('','',#401,#397);
#394=PRODUCT_DEFINITION_CONTEXT('',#419,'design');
#395=PRODUCT_DEFINITION_CONTEXT('',#419,'design');
#396=PRODUCT_DEFINITION_CONTEXT('',#419,'design');
#397=PRODUCT_DEFINITION_CONTEXT('',#419,'design');
#398=PRODUCT_DEFINITION_FORMATION_WITH_SPECIFIED_SOURCE('','',#406,
 .NOT_KNOWN.);
#399=PRODUCT_DEFINITION_FORMATION_WITH_SPECIFIED_SOURCE('','',#407,
 .NOT_KNOWN.);
#400=PRODUCT_DEFINITION_FORMATION_WITH_SPECIFIED_SOURCE('','',#408,
 .NOT_KNOWN.);
#401=PRODUCT_DEFINITION_FORMATION_WITH_SPECIFIED_SOURCE('','',#409,
 .NOT_KNOWN.);
#402=PRODUCT_RELATED_PRODUCT_CATEGORY('','',(#406));
#403=PRODUCT_RELATED_PRODUCT_CATEGORY('','',(#407));
#404=PRODUCT_RELATED_PRODUCT_CATEGORY('','',(#408));
#405=PRODUCT_RELATED_PRODUCT_CATEGORY('','',(#409));
#406=PRODUCT('1408 5.000','1408 5.000','1408 5.000',(#414));
#407=PRODUCT('1408 5.000_PART1','1408 5.000_PART1','1408 5.000_PART1',(#415));
#408=PRODUCT('1408 5.000_PART2','1408 5.000_PART2','1408 5.000_PART2',(#416));
#409=PRODUCT('1408 5.000_PART3','1408 5.000_PART3','1408 5.000_PART3',(#417));
#410=PRODUCT_CATEGORY('','');
#411=PRODUCT_CATEGORY('','');
#412=PRODUCT_CATEGORY('','');
#413=PRODUCT_CATEGORY('','');
#414=PRODUCT_CONTEXT('',#419,'mechanical');
#415=PRODUCT_CONTEXT('',#419,'mechanical');
#416=PRODUCT_CONTEXT('',#419,'mechanical');
#417=PRODUCT_CONTEXT('',#419,'mechanical');
#418=APPLICATION_PROTOCOL_DEFINITION('international standard',
'automotive_design',2010,#419);
#419=APPLICATION_CONTEXT(
'core data for automotive mechanical design processes');
ENDSEC;
END-ISO-10303-21;
