ISO-10303-21;
HEADER;
/* Generated by software containing ST-Developer
 * from STEP Tools, Inc. (www.steptools.com) 
 */
/* OPTION: using custom renumber hook */

FILE_DESCRIPTION(
/* description */ ('STEP AP214'),
/* implementation_level */ '2;1');

FILE_NAME(
/* name */ '1410 10.000',
/* time_stamp */ '2026-05-15T10:59:42+02:00',
/* author */ ('License CC BY-ND 4.0'),
/* organization */ ('CADENAS'),
/* preprocessor_version */ 'ST-DEVELOPER v20',
/* originating_system */ 'PARTsolutions',
/* authorisation */ '  ');

FILE_SCHEMA (('AUTOMOTIVE_DESIGN {1 0 10303 214 3 1 1}'));
ENDSEC;

DATA;
#10=PROPERTY_DEFINITION_REPRESENTATION(#14,#12);
#11=PROPERTY_DEFINITION_REPRESENTATION(#15,#13);
#12=REPRESENTATION('',(#16),#791);
#13=REPRESENTATION('',(#17),#791);
#14=PROPERTY_DEFINITION('pmi validation property','',#800);
#15=PROPERTY_DEFINITION('pmi validation property','',#800);
#16=VALUE_REPRESENTATION_ITEM('number of annotations',COUNT_MEASURE(0.));
#17=VALUE_REPRESENTATION_ITEM('number of views',COUNT_MEASURE(0.));
#18=CONTEXT_DEPENDENT_SHAPE_REPRESENTATION(#22,#802);
#19=CONTEXT_DEPENDENT_SHAPE_REPRESENTATION(#23,#804);
#20=NEXT_ASSEMBLY_USAGE_OCCURRENCE('NAUO1','1410 10.000_PART1',
'1410 10.000_PART1',#805,#806,'');
#21=NEXT_ASSEMBLY_USAGE_OCCURRENCE('NAUO2','1410 10.000_PART2',
'1410 10.000_PART2',#805,#807,'');
#22=(
REPRESENTATION_RELATIONSHIP(' ',' ',#435,#434)
REPRESENTATION_RELATIONSHIP_WITH_TRANSFORMATION(#24)
SHAPE_REPRESENTATION_RELATIONSHIP()
);
#23=(
REPRESENTATION_RELATIONSHIP(' ',' ',#436,#434)
REPRESENTATION_RELATIONSHIP_WITH_TRANSFORMATION(#25)
SHAPE_REPRESENTATION_RELATIONSHIP()
);
#24=ITEM_DEFINED_TRANSFORMATION(' ',' ',#437,#480);
#25=ITEM_DEFINED_TRANSFORMATION(' ',' ',#437,#498);
#26=SHAPE_REPRESENTATION_RELATIONSHIP('','',#435,#28);
#27=SHAPE_REPRESENTATION_RELATIONSHIP('','',#436,#29);
#28=ADVANCED_BREP_SHAPE_REPRESENTATION('',(#429),#792);
#29=ADVANCED_BREP_SHAPE_REPRESENTATION('',(#430),#793);
#30=PLANE('',#461);
#31=PLANE('',#463);
#32=PLANE('',#469);
#33=PLANE('',#472);
#34=PLANE('',#475);
#35=PLANE('',#490);
#36=PLANE('',#492);
#37=PLANE('',#495);
#38=B_SPLINE_CURVE_WITH_KNOTS('',3,(#651,#652,#653,#654,#655,#656,#657),
 .UNSPECIFIED.,.F.,.F.,(4,1,1,1,4),(6.19843814604421E-15,0.00154591599968458,
0.00309183199936296,0.00463774799904134,0.00618366399871972),
 .UNSPECIFIED.);
#39=B_SPLINE_CURVE_WITH_KNOTS('',3,(#658,#659,#660,#661,#662,#663,#664),
 .UNSPECIFIED.,.F.,.F.,(4,1,1,1,4),(8.72562237640621E-15,0.001546349876823,
0.00309269975363728,0.00463904963045156,0.00618539950726583),
 .UNSPECIFIED.);
#40=B_SPLINE_CURVE_WITH_KNOTS('',3,(#689,#690,#691,#692,#693),
 .UNSPECIFIED.,.F.,.F.,(4,1,4),(3.99620881558828E-15,0.00101749033835647,
0.00203498067670895),.UNSPECIFIED.);
#41=B_SPLINE_CURVE_WITH_KNOTS('',3,(#695,#696,#697,#698,#699),
 .UNSPECIFIED.,.F.,.F.,(4,1,4),(0.,0.00205990807392411,0.00411981614784821),
 .UNSPECIFIED.);
#42=B_SPLINE_CURVE_WITH_KNOTS('',3,(#701,#702,#703,#704,#705),
 .UNSPECIFIED.,.F.,.F.,(4,1,4),(4.2371710723834E-13,0.001012497278306,0.00202499455618828),
 .UNSPECIFIED.);
#43=B_SPLINE_CURVE_WITH_KNOTS('',3,(#709,#710,#711,#712,#713,#714,#715),
 .UNSPECIFIED.,.F.,.F.,(4,1,1,1,4),(6.19843502383614E-15,0.00154591599968458,
0.00309183199936296,0.00463774799904134,0.00618366399871972),
 .UNSPECIFIED.);
#44=B_SPLINE_CURVE_WITH_KNOTS('',3,(#723,#724,#725,#726,#727),
 .UNSPECIFIED.,.F.,.F.,(4,1,4),(0.,0.00101249727809412,0.00202499455618824),
 .UNSPECIFIED.);
#45=B_SPLINE_CURVE_WITH_KNOTS('',3,(#735,#736,#737,#738,#739,#740,#741),
 .UNSPECIFIED.,.F.,.F.,(4,1,1,1,4),(3.78285393892468E-15,0.0015463498768193,
0.00309269975363481,0.00463904963045032,0.00618539950726583),
 .UNSPECIFIED.);
#46=B_SPLINE_CURVE_WITH_KNOTS('',3,(#748,#749,#750,#751,#752),
 .UNSPECIFIED.,.F.,.F.,(4,1,4),(1.66590068281822E-11,0.00205990808225361,
0.00411981614784821),.UNSPECIFIED.);
#47=B_SPLINE_CURVE_WITH_KNOTS('',3,(#754,#755,#756,#757,#758),
 .UNSPECIFIED.,.F.,.F.,(4,1,4),(3.99620881558828E-15,0.00101749033835647,
0.00203498067670895),.UNSPECIFIED.);
#48=LINE('',#648,#54);
#49=LINE('',#687,#55);
#50=LINE('',#707,#56);
#51=LINE('',#719,#57);
#52=LINE('',#743,#58);
#53=LINE('',#747,#59);
#54=VECTOR('',#523,1000.);
#55=VECTOR('',#554,1000.);
#56=VECTOR('',#555,1000.);
#57=VECTOR('',#560,1000.);
#58=VECTOR('',#577,1000.);
#59=VECTOR('',#582,1000.);
#60=CYLINDRICAL_SURFACE('',#448,5.);
#61=CYLINDRICAL_SURFACE('',#454,4.5);
#62=CYLINDRICAL_SURFACE('',#458,1.33825);
#63=CYLINDRICAL_SURFACE('',#464,4.35);
#64=CYLINDRICAL_SURFACE('',#468,5.);
#65=CYLINDRICAL_SURFACE('',#473,4.35);
#66=CYLINDRICAL_SURFACE('',#478,5.);
#67=CYLINDRICAL_SURFACE('',#484,4.7);
#68=CYLINDRICAL_SURFACE('',#489,4.998);
#69=CYLINDRICAL_SURFACE('',#497,5.);
#70=CONICAL_SURFACE('',#441,4.8229519,0.7853981625);
#71=CONICAL_SURFACE('',#445,5.,0.523598775);
#72=CONICAL_SURFACE('',#449,4.6757359,0.7853981625);
#73=CONICAL_SURFACE('',#451,8.3249354,0.7853981625);
#74=CONICAL_SURFACE('',#456,6.1,0.523598775);
#75=CONICAL_SURFACE('',#462,6.119787,0.0249339676);
#76=CONICAL_SURFACE('',#470,6.119787,0.0249339676);
#77=CONICAL_SURFACE('',#479,0.15,1.431169985);
#78=CONICAL_SURFACE('',#481,4.6757359,0.7853981625);
#79=CONICAL_SURFACE('',#487,4.998,0.523598775);
#80=CONICAL_SURFACE('',#493,4.0807612,0.7853981625);
#81=ORIENTED_EDGE('',*,*,#167,.F.);
#82=ORIENTED_EDGE('',*,*,#168,.T.);
#83=ORIENTED_EDGE('',*,*,#169,.T.);
#84=ORIENTED_EDGE('',*,*,#170,.F.);
#85=ORIENTED_EDGE('',*,*,#171,.F.);
#86=ORIENTED_EDGE('',*,*,#172,.T.);
#87=ORIENTED_EDGE('',*,*,#173,.F.);
#88=ORIENTED_EDGE('',*,*,#174,.T.);
#89=ORIENTED_EDGE('',*,*,#175,.F.);
#90=ORIENTED_EDGE('',*,*,#176,.F.);
#91=ORIENTED_EDGE('',*,*,#167,.T.);
#92=ORIENTED_EDGE('',*,*,#177,.T.);
#93=ORIENTED_EDGE('',*,*,#178,.T.);
#94=ORIENTED_EDGE('',*,*,#179,.T.);
#95=ORIENTED_EDGE('',*,*,#180,.T.);
#96=ORIENTED_EDGE('',*,*,#168,.F.);
#97=ORIENTED_EDGE('',*,*,#181,.T.);
#98=ORIENTED_EDGE('',*,*,#180,.F.);
#99=ORIENTED_EDGE('',*,*,#182,.T.);
#100=ORIENTED_EDGE('',*,*,#183,.T.);
#101=ORIENTED_EDGE('',*,*,#177,.F.);
#102=ORIENTED_EDGE('',*,*,#172,.F.);
#103=ORIENTED_EDGE('',*,*,#169,.F.);
#104=ORIENTED_EDGE('',*,*,#184,.T.);
#105=ORIENTED_EDGE('',*,*,#185,.T.);
#106=ORIENTED_EDGE('',*,*,#186,.F.);
#107=ORIENTED_EDGE('',*,*,#187,.T.);
#108=ORIENTED_EDGE('',*,*,#188,.T.);
#109=ORIENTED_EDGE('',*,*,#174,.F.);
#110=ORIENTED_EDGE('',*,*,#189,.F.);
#111=ORIENTED_EDGE('',*,*,#171,.T.);
#112=ORIENTED_EDGE('',*,*,#175,.T.);
#113=ORIENTED_EDGE('',*,*,#188,.F.);
#114=ORIENTED_EDGE('',*,*,#190,.F.);
#115=ORIENTED_EDGE('',*,*,#191,.T.);
#116=ORIENTED_EDGE('',*,*,#192,.F.);
#117=ORIENTED_EDGE('',*,*,#193,.T.);
#118=ORIENTED_EDGE('',*,*,#190,.T.);
#119=ORIENTED_EDGE('',*,*,#187,.F.);
#120=ORIENTED_EDGE('',*,*,#179,.F.);
#121=ORIENTED_EDGE('',*,*,#173,.T.);
#122=ORIENTED_EDGE('',*,*,#182,.F.);
#123=ORIENTED_EDGE('',*,*,#178,.F.);
#124=ORIENTED_EDGE('',*,*,#194,.T.);
#125=ORIENTED_EDGE('',*,*,#194,.F.);
#126=ORIENTED_EDGE('',*,*,#181,.F.);
#127=ORIENTED_EDGE('',*,*,#195,.F.);
#128=ORIENTED_EDGE('',*,*,#196,.T.);
#129=ORIENTED_EDGE('',*,*,#197,.F.);
#130=ORIENTED_EDGE('',*,*,#184,.F.);
#131=ORIENTED_EDGE('',*,*,#176,.T.);
#132=ORIENTED_EDGE('',*,*,#170,.T.);
#133=ORIENTED_EDGE('',*,*,#198,.T.);
#134=ORIENTED_EDGE('',*,*,#191,.F.);
#135=ORIENTED_EDGE('',*,*,#193,.F.);
#136=ORIENTED_EDGE('',*,*,#199,.T.);
#137=ORIENTED_EDGE('',*,*,#200,.F.);
#138=ORIENTED_EDGE('',*,*,#196,.F.);
#139=ORIENTED_EDGE('',*,*,#197,.T.);
#140=ORIENTED_EDGE('',*,*,#200,.T.);
#141=ORIENTED_EDGE('',*,*,#201,.F.);
#142=ORIENTED_EDGE('',*,*,#185,.F.);
#143=ORIENTED_EDGE('',*,*,#195,.T.);
#144=ORIENTED_EDGE('',*,*,#189,.T.);
#145=ORIENTED_EDGE('',*,*,#198,.F.);
#146=ORIENTED_EDGE('',*,*,#199,.F.);
#147=ORIENTED_EDGE('',*,*,#192,.T.);
#148=ORIENTED_EDGE('',*,*,#186,.T.);
#149=ORIENTED_EDGE('',*,*,#201,.T.);
#150=ORIENTED_EDGE('',*,*,#183,.F.);
#151=ORIENTED_EDGE('',*,*,#202,.F.);
#152=ORIENTED_EDGE('',*,*,#203,.F.);
#153=ORIENTED_EDGE('',*,*,#204,.T.);
#154=ORIENTED_EDGE('',*,*,#205,.F.);
#155=ORIENTED_EDGE('',*,*,#206,.T.);
#156=ORIENTED_EDGE('',*,*,#204,.F.);
#157=ORIENTED_EDGE('',*,*,#203,.T.);
#158=ORIENTED_EDGE('',*,*,#206,.F.);
#159=ORIENTED_EDGE('',*,*,#207,.T.);
#160=ORIENTED_EDGE('',*,*,#202,.T.);
#161=ORIENTED_EDGE('',*,*,#207,.F.);
#162=ORIENTED_EDGE('',*,*,#208,.T.);
#163=ORIENTED_EDGE('',*,*,#209,.F.);
#164=ORIENTED_EDGE('',*,*,#205,.T.);
#165=ORIENTED_EDGE('',*,*,#208,.F.);
#166=ORIENTED_EDGE('',*,*,#209,.T.);
#167=EDGE_CURVE('',#210,#210,#245,.T.);
#168=EDGE_CURVE('',#211,#211,#246,.T.);
#169=EDGE_CURVE('',#212,#212,#247,.T.);
#170=EDGE_CURVE('',#213,#214,#248,.T.);
#171=EDGE_CURVE('',#214,#213,#249,.T.);
#172=EDGE_CURVE('',#215,#215,#250,.T.);
#173=EDGE_CURVE('',#216,#216,#251,.T.);
#174=EDGE_CURVE('',#217,#218,#48,.T.);
#175=EDGE_CURVE('',#213,#218,#38,.T.);
#176=EDGE_CURVE('',#217,#213,#39,.T.);
#177=EDGE_CURVE('',#219,#219,#252,.T.);
#178=EDGE_CURVE('',#220,#220,#253,.T.);
#179=EDGE_CURVE('',#221,#221,#254,.T.);
#180=EDGE_CURVE('',#222,#222,#255,.T.);
#181=EDGE_CURVE('',#223,#223,#256,.T.);
#182=EDGE_CURVE('',#224,#224,#257,.T.);
#183=EDGE_CURVE('',#225,#225,#258,.T.);
#184=EDGE_CURVE('',#217,#226,#49,.T.);
#185=EDGE_CURVE('',#226,#227,#40,.T.);
#186=EDGE_CURVE('',#228,#227,#41,.T.);
#187=EDGE_CURVE('',#228,#229,#42,.T.);
#188=EDGE_CURVE('',#229,#218,#50,.T.);
#189=EDGE_CURVE('',#214,#230,#43,.T.);
#190=EDGE_CURVE('',#231,#229,#259,.T.);
#191=EDGE_CURVE('',#231,#230,#51,.T.);
#192=EDGE_CURVE('',#232,#228,#260,.T.);
#193=EDGE_CURVE('',#232,#231,#44,.T.);
#194=EDGE_CURVE('',#233,#233,#261,.T.);
#195=EDGE_CURVE('',#234,#214,#45,.T.);
#196=EDGE_CURVE('',#234,#235,#52,.T.);
#197=EDGE_CURVE('',#226,#235,#262,.T.);
#198=EDGE_CURVE('',#234,#230,#53,.T.);
#199=EDGE_CURVE('',#232,#236,#46,.T.);
#200=EDGE_CURVE('',#235,#236,#47,.T.);
#201=EDGE_CURVE('',#227,#236,#263,.T.);
#202=EDGE_CURVE('',#237,#237,#264,.T.);
#203=EDGE_CURVE('',#238,#238,#265,.T.);
#204=EDGE_CURVE('',#239,#239,#266,.T.);
#205=EDGE_CURVE('',#240,#240,#267,.T.);
#206=EDGE_CURVE('',#241,#241,#268,.T.);
#207=EDGE_CURVE('',#242,#242,#269,.T.);
#208=EDGE_CURVE('',#243,#243,#270,.T.);
#209=EDGE_CURVE('',#244,#244,#271,.T.);
#210=VERTEX_POINT('',#632);
#211=VERTEX_POINT('',#634);
#212=VERTEX_POINT('',#637);
#213=VERTEX_POINT('',#639);
#214=VERTEX_POINT('',#640);
#215=VERTEX_POINT('',#644);
#216=VERTEX_POINT('',#646);
#217=VERTEX_POINT('',#649);
#218=VERTEX_POINT('',#650);
#219=VERTEX_POINT('',#667);
#220=VERTEX_POINT('',#670);
#221=VERTEX_POINT('',#672);
#222=VERTEX_POINT('',#675);
#223=VERTEX_POINT('',#678);
#224=VERTEX_POINT('',#681);
#225=VERTEX_POINT('',#683);
#226=VERTEX_POINT('',#688);
#227=VERTEX_POINT('',#694);
#228=VERTEX_POINT('',#700);
#229=VERTEX_POINT('',#706);
#230=VERTEX_POINT('',#716);
#231=VERTEX_POINT('',#718);
#232=VERTEX_POINT('',#722);
#233=VERTEX_POINT('',#732);
#234=VERTEX_POINT('',#742);
#235=VERTEX_POINT('',#744);
#236=VERTEX_POINT('',#753);
#237=VERTEX_POINT('',#766);
#238=VERTEX_POINT('',#768);
#239=VERTEX_POINT('',#771);
#240=VERTEX_POINT('',#773);
#241=VERTEX_POINT('',#776);
#242=VERTEX_POINT('',#780);
#243=VERTEX_POINT('',#784);
#244=VERTEX_POINT('',#787);
#245=CIRCLE('',#439,4.6757359);
#246=CIRCLE('',#440,4.5);
#247=CIRCLE('',#442,4.82295192566057);
#248=CIRCLE('',#443,4.35);
#249=CIRCLE('',#444,4.35);
#250=CIRCLE('',#446,5.3084125055879);
#251=CIRCLE('',#447,5.);
#252=CIRCLE('',#450,4.948);
#253=CIRCLE('',#452,5.65734931054434);
#254=CIRCLE('',#453,5.);
#255=CIRCLE('',#455,4.5);
#256=CIRCLE('',#457,6.1);
#257=CIRCLE('',#459,1.33825);
#258=CIRCLE('',#460,1.33825);
#259=CIRCLE('',#465,4.35);
#260=CIRCLE('',#467,3.3170077);
#261=CIRCLE('',#471,6.119787);
#262=CIRCLE('',#474,4.35);
#263=CIRCLE('',#477,3.3170077);
#264=CIRCLE('',#482,4.948);
#265=CIRCLE('',#483,4.998);
#266=CIRCLE('',#485,4.7);
#267=CIRCLE('',#486,4.7);
#268=CIRCLE('',#488,4.998);
#269=CIRCLE('',#491,4.0807612);
#270=CIRCLE('',#494,5.);
#271=CIRCLE('',#496,5.);
#272=EDGE_LOOP('',(#81));
#273=EDGE_LOOP('',(#82));
#274=EDGE_LOOP('',(#83));
#275=EDGE_LOOP('',(#84,#85));
#276=EDGE_LOOP('',(#86));
#277=EDGE_LOOP('',(#87));
#278=EDGE_LOOP('',(#88,#89,#90));
#279=EDGE_LOOP('',(#91));
#280=EDGE_LOOP('',(#92));
#281=EDGE_LOOP('',(#93));
#282=EDGE_LOOP('',(#94));
#283=EDGE_LOOP('',(#95));
#284=EDGE_LOOP('',(#96));
#285=EDGE_LOOP('',(#97));
#286=EDGE_LOOP('',(#98));
#287=EDGE_LOOP('',(#99));
#288=EDGE_LOOP('',(#100));
#289=EDGE_LOOP('',(#101));
#290=EDGE_LOOP('',(#102));
#291=EDGE_LOOP('',(#103));
#292=EDGE_LOOP('',(#104,#105,#106,#107,#108,#109));
#293=EDGE_LOOP('',(#110,#111,#112,#113,#114,#115));
#294=EDGE_LOOP('',(#116,#117,#118,#119));
#295=EDGE_LOOP('',(#120));
#296=EDGE_LOOP('',(#121));
#297=EDGE_LOOP('',(#122));
#298=EDGE_LOOP('',(#123));
#299=EDGE_LOOP('',(#124));
#300=EDGE_LOOP('',(#125));
#301=EDGE_LOOP('',(#126));
#302=EDGE_LOOP('',(#127,#128,#129,#130,#131,#132));
#303=EDGE_LOOP('',(#133,#134,#135,#136,#137,#138));
#304=EDGE_LOOP('',(#139,#140,#141,#142));
#305=EDGE_LOOP('',(#143,#144,#145));
#306=EDGE_LOOP('',(#146,#147,#148,#149));
#307=EDGE_LOOP('',(#150));
#308=EDGE_LOOP('',(#151));
#309=EDGE_LOOP('',(#152));
#310=EDGE_LOOP('',(#153));
#311=EDGE_LOOP('',(#154));
#312=EDGE_LOOP('',(#155));
#313=EDGE_LOOP('',(#156));
#314=EDGE_LOOP('',(#157));
#315=EDGE_LOOP('',(#158));
#316=EDGE_LOOP('',(#159));
#317=EDGE_LOOP('',(#160));
#318=EDGE_LOOP('',(#161));
#319=EDGE_LOOP('',(#162));
#320=EDGE_LOOP('',(#163));
#321=EDGE_LOOP('',(#164));
#322=EDGE_LOOP('',(#165));
#323=EDGE_LOOP('',(#166));
#324=FACE_BOUND('',#272,.T.);
#325=FACE_BOUND('',#273,.T.);
#326=FACE_BOUND('',#274,.T.);
#327=FACE_BOUND('',#275,.T.);
#328=FACE_BOUND('',#276,.T.);
#329=FACE_BOUND('',#277,.T.);
#330=FACE_BOUND('',#278,.T.);
#331=FACE_BOUND('',#279,.T.);
#332=FACE_BOUND('',#280,.T.);
#333=FACE_BOUND('',#281,.T.);
#334=FACE_BOUND('',#282,.T.);
#335=FACE_BOUND('',#283,.T.);
#336=FACE_BOUND('',#284,.T.);
#337=FACE_BOUND('',#285,.T.);
#338=FACE_BOUND('',#286,.T.);
#339=FACE_BOUND('',#287,.T.);
#340=FACE_BOUND('',#288,.T.);
#341=FACE_BOUND('',#289,.T.);
#342=FACE_BOUND('',#290,.T.);
#343=FACE_BOUND('',#291,.T.);
#344=FACE_BOUND('',#292,.T.);
#345=FACE_BOUND('',#293,.T.);
#346=FACE_BOUND('',#294,.T.);
#347=FACE_BOUND('',#295,.T.);
#348=FACE_BOUND('',#296,.T.);
#349=FACE_BOUND('',#297,.T.);
#350=FACE_BOUND('',#298,.T.);
#351=FACE_BOUND('',#299,.T.);
#352=FACE_BOUND('',#300,.T.);
#353=FACE_BOUND('',#301,.T.);
#354=FACE_BOUND('',#302,.T.);
#355=FACE_BOUND('',#303,.T.);
#356=FACE_BOUND('',#304,.T.);
#357=FACE_BOUND('',#305,.T.);
#358=FACE_BOUND('',#306,.T.);
#359=FACE_BOUND('',#307,.T.);
#360=FACE_BOUND('',#308,.T.);
#361=FACE_BOUND('',#309,.T.);
#362=FACE_BOUND('',#310,.T.);
#363=FACE_BOUND('',#311,.T.);
#364=FACE_BOUND('',#312,.T.);
#365=FACE_BOUND('',#313,.T.);
#366=FACE_BOUND('',#314,.T.);
#367=FACE_BOUND('',#315,.T.);
#368=FACE_BOUND('',#316,.T.);
#369=FACE_BOUND('',#317,.T.);
#370=FACE_BOUND('',#318,.T.);
#371=FACE_BOUND('',#319,.T.);
#372=FACE_BOUND('',#320,.T.);
#373=FACE_BOUND('',#321,.T.);
#374=FACE_BOUND('',#322,.T.);
#375=FACE_BOUND('',#323,.T.);
#376=TOROIDAL_SURFACE('',#438,5.1,0.6);
#377=TOROIDAL_SURFACE('',#466,3.15,1.2);
#378=TOROIDAL_SURFACE('',#476,3.15,1.2);
#379=ADVANCED_FACE('',(#324,#325),#376,.F.);
#380=ADVANCED_FACE('',(#326,#327),#70,.T.);
#381=ADVANCED_FACE('',(#328,#329),#71,.T.);
#382=ADVANCED_FACE('',(#330),#60,.F.);
#383=ADVANCED_FACE('',(#331,#332),#72,.T.);
#384=ADVANCED_FACE('',(#333,#334),#73,.T.);
#385=ADVANCED_FACE('',(#335,#336),#61,.T.);
#386=ADVANCED_FACE('',(#337,#338),#74,.T.);
#387=ADVANCED_FACE('',(#339,#340),#62,.T.);
#388=ADVANCED_FACE('',(#341),#30,.F.);
#389=ADVANCED_FACE('',(#342,#343),#75,.T.);
#390=ADVANCED_FACE('',(#344),#31,.T.);
#391=ADVANCED_FACE('',(#345),#63,.T.);
#392=ADVANCED_FACE('',(#346),#377,.T.);
#393=ADVANCED_FACE('',(#347,#348),#64,.T.);
#394=ADVANCED_FACE('',(#349),#32,.F.);
#395=ADVANCED_FACE('',(#350,#351),#76,.T.);
#396=ADVANCED_FACE('',(#352,#353),#33,.F.);
#397=ADVANCED_FACE('',(#354),#65,.T.);
#398=ADVANCED_FACE('',(#355),#34,.F.);
#399=ADVANCED_FACE('',(#356),#378,.T.);
#400=ADVANCED_FACE('',(#357),#66,.F.);
#401=ADVANCED_FACE('',(#358,#359),#77,.T.);
#402=ADVANCED_FACE('',(#360,#361),#78,.T.);
#403=ADVANCED_FACE('',(#362,#363),#67,.T.);
#404=ADVANCED_FACE('',(#364,#365),#79,.T.);
#405=ADVANCED_FACE('',(#366,#367),#68,.T.);
#406=ADVANCED_FACE('',(#368),#35,.T.);
#407=ADVANCED_FACE('',(#369),#36,.T.);
#408=ADVANCED_FACE('',(#370,#371),#80,.T.);
#409=ADVANCED_FACE('',(#372,#373),#37,.T.);
#410=ADVANCED_FACE('',(#374,#375),#69,.T.);
#411=CLOSED_SHELL('',(#379,#380,#381,#382,#383,#384,#385,#386,#387,#388,
#389,#390,#391,#392,#393,#394,#395,#396,#397,#398,#399,#400,#401));
#412=CLOSED_SHELL('',(#402,#403,#404,#405,#406,#407,#408,#409,#410));
#413=STYLED_ITEM('',(#415),#429);
#414=STYLED_ITEM('',(#416),#430);
#415=PRESENTATION_STYLE_ASSIGNMENT((#417));
#416=PRESENTATION_STYLE_ASSIGNMENT((#418));
#417=SURFACE_STYLE_USAGE(.BOTH.,#419);
#418=SURFACE_STYLE_USAGE(.BOTH.,#420);
#419=SURFACE_SIDE_STYLE('',(#421));
#420=SURFACE_SIDE_STYLE('',(#422));
#421=SURFACE_STYLE_FILL_AREA(#423);
#422=SURFACE_STYLE_FILL_AREA(#424);
#423=FILL_AREA_STYLE('',(#425));
#424=FILL_AREA_STYLE('',(#426));
#425=FILL_AREA_STYLE_COLOUR('',#427);
#426=FILL_AREA_STYLE_COLOUR('',#428);
#427=COLOUR_RGB('',0.4999923706,0.4999923706,0.4999923706);
#428=COLOUR_RGB('',0.8000000119,0.8000000119,0.8000000119);
#429=MANIFOLD_SOLID_BREP('1',#411);
#430=MANIFOLD_SOLID_BREP('1',#412);
#431=SHAPE_DEFINITION_REPRESENTATION(#800,#434);
#432=SHAPE_DEFINITION_REPRESENTATION(#801,#435);
#433=SHAPE_DEFINITION_REPRESENTATION(#803,#436);
#434=SHAPE_REPRESENTATION('1410 10.000',(#437,#480,#498),#791);
#435=SHAPE_REPRESENTATION('1410 10.000_PART1',(#437),#792);
#436=SHAPE_REPRESENTATION('1410 10.000_PART2',(#437),#793);
#437=AXIS2_PLACEMENT_3D('',#629,#499,#500);
#438=AXIS2_PLACEMENT_3D('',#630,#501,#502);
#439=AXIS2_PLACEMENT_3D('',#631,#503,#504);
#440=AXIS2_PLACEMENT_3D('',#633,#505,#506);
#441=AXIS2_PLACEMENT_3D('',#635,#507,#508);
#442=AXIS2_PLACEMENT_3D('',#636,#509,#510);
#443=AXIS2_PLACEMENT_3D('',#638,#511,#512);
#444=AXIS2_PLACEMENT_3D('',#641,#513,#514);
#445=AXIS2_PLACEMENT_3D('',#642,#515,#516);
#446=AXIS2_PLACEMENT_3D('',#643,#517,#518);
#447=AXIS2_PLACEMENT_3D('',#645,#519,#520);
#448=AXIS2_PLACEMENT_3D('',#647,#521,#522);
#449=AXIS2_PLACEMENT_3D('',#665,#524,#525);
#450=AXIS2_PLACEMENT_3D('',#666,#526,#527);
#451=AXIS2_PLACEMENT_3D('',#668,#528,#529);
#452=AXIS2_PLACEMENT_3D('',#669,#530,#531);
#453=AXIS2_PLACEMENT_3D('',#671,#532,#533);
#454=AXIS2_PLACEMENT_3D('',#673,#534,#535);
#455=AXIS2_PLACEMENT_3D('',#674,#536,#537);
#456=AXIS2_PLACEMENT_3D('',#676,#538,#539);
#457=AXIS2_PLACEMENT_3D('',#677,#540,#541);
#458=AXIS2_PLACEMENT_3D('',#679,#542,#543);
#459=AXIS2_PLACEMENT_3D('',#680,#544,#545);
#460=AXIS2_PLACEMENT_3D('',#682,#546,#547);
#461=AXIS2_PLACEMENT_3D('',#684,#548,#549);
#462=AXIS2_PLACEMENT_3D('',#685,#550,#551);
#463=AXIS2_PLACEMENT_3D('',#686,#552,#553);
#464=AXIS2_PLACEMENT_3D('',#708,#556,#557);
#465=AXIS2_PLACEMENT_3D('',#717,#558,#559);
#466=AXIS2_PLACEMENT_3D('',#720,#561,#562);
#467=AXIS2_PLACEMENT_3D('',#721,#563,#564);
#468=AXIS2_PLACEMENT_3D('',#728,#565,#566);
#469=AXIS2_PLACEMENT_3D('',#729,#567,#568);
#470=AXIS2_PLACEMENT_3D('',#730,#569,#570);
#471=AXIS2_PLACEMENT_3D('',#731,#571,#572);
#472=AXIS2_PLACEMENT_3D('',#733,#573,#574);
#473=AXIS2_PLACEMENT_3D('',#734,#575,#576);
#474=AXIS2_PLACEMENT_3D('',#745,#578,#579);
#475=AXIS2_PLACEMENT_3D('',#746,#580,#581);
#476=AXIS2_PLACEMENT_3D('',#759,#583,#584);
#477=AXIS2_PLACEMENT_3D('',#760,#585,#586);
#478=AXIS2_PLACEMENT_3D('',#761,#587,#588);
#479=AXIS2_PLACEMENT_3D('',#762,#589,#590);
#480=AXIS2_PLACEMENT_3D('',#763,#591,#592);
#481=AXIS2_PLACEMENT_3D('',#764,#593,#594);
#482=AXIS2_PLACEMENT_3D('',#765,#595,#596);
#483=AXIS2_PLACEMENT_3D('',#767,#597,#598);
#484=AXIS2_PLACEMENT_3D('',#769,#599,#600);
#485=AXIS2_PLACEMENT_3D('',#770,#601,#602);
#486=AXIS2_PLACEMENT_3D('',#772,#603,#604);
#487=AXIS2_PLACEMENT_3D('',#774,#605,#606);
#488=AXIS2_PLACEMENT_3D('',#775,#607,#608);
#489=AXIS2_PLACEMENT_3D('',#777,#609,#610);
#490=AXIS2_PLACEMENT_3D('',#778,#611,#612);
#491=AXIS2_PLACEMENT_3D('',#779,#613,#614);
#492=AXIS2_PLACEMENT_3D('',#781,#615,#616);
#493=AXIS2_PLACEMENT_3D('',#782,#617,#618);
#494=AXIS2_PLACEMENT_3D('',#783,#619,#620);
#495=AXIS2_PLACEMENT_3D('',#785,#621,#622);
#496=AXIS2_PLACEMENT_3D('',#786,#623,#624);
#497=AXIS2_PLACEMENT_3D('',#788,#625,#626);
#498=AXIS2_PLACEMENT_3D('',#789,#627,#628);
#499=DIRECTION('',(0.,0.,1.));
#500=DIRECTION('',(1.,0.,0.));
#501=DIRECTION('',(0.,0.,-1.));
#502=DIRECTION('',(-1.,0.,0.));
#503=DIRECTION('',(0.,0.,-1.));
#504=DIRECTION('',(-1.,0.,0.));
#505=DIRECTION('',(0.,0.,-1.));
#506=DIRECTION('',(-1.,0.,0.));
#507=DIRECTION('',(4.14335314939881E-17,0.,-1.));
#508=DIRECTION('',(-1.,0.,-4.14335314939881E-17));
#509=DIRECTION('',(0.,0.,1.));
#510=DIRECTION('',(1.,0.,0.));
#511=DIRECTION('',(0.,0.,1.));
#512=DIRECTION('',(1.,0.,0.));
#513=DIRECTION('',(0.,0.,1.));
#514=DIRECTION('',(1.,0.,0.));
#515=DIRECTION('',(0.,4.76613081234639E-17,1.));
#516=DIRECTION('',(0.,1.,-4.76613081234639E-17));
#517=DIRECTION('',(0.,0.,-1.));
#518=DIRECTION('',(-1.,0.,0.));
#519=DIRECTION('',(0.,0.,-1.));
#520=DIRECTION('',(0.,-1.,0.));
#521=DIRECTION('',(-1.,0.,0.));
#522=DIRECTION('',(0.,0.,-1.));
#523=DIRECTION('',(1.,0.,0.));
#524=DIRECTION('',(5.52528037116446E-17,0.,-1.));
#525=DIRECTION('',(-1.,0.,-5.52528037116446E-17));
#526=DIRECTION('',(0.,0.,1.));
#527=DIRECTION('',(1.,0.,0.));
#528=DIRECTION('',(0.,0.,-1.));
#529=DIRECTION('',(0.,-1.,0.));
#530=DIRECTION('',(0.,0.,1.));
#531=DIRECTION('',(1.,0.,0.));
#532=DIRECTION('',(0.,0.,-1.));
#533=DIRECTION('',(-1.,0.,0.));
#534=DIRECTION('',(0.,0.,1.));
#535=DIRECTION('',(-1.,0.,0.));
#536=DIRECTION('',(0.,0.,-1.));
#537=DIRECTION('',(-1.,0.,0.));
#538=DIRECTION('',(9.51429010536901E-17,0.,1.));
#539=DIRECTION('',(1.,0.,-9.51429010536901E-17));
#540=DIRECTION('',(0.,0.,-1.));
#541=DIRECTION('',(-1.,0.,0.));
#542=DIRECTION('',(0.,0.,1.));
#543=DIRECTION('',(-1.,0.,0.));
#544=DIRECTION('',(0.,0.,-1.));
#545=DIRECTION('',(-1.,0.,0.));
#546=DIRECTION('',(0.,0.,1.));
#547=DIRECTION('',(-1.,0.,0.));
#548=DIRECTION('',(0.,0.,1.));
#549=DIRECTION('',(1.,0.,0.));
#550=DIRECTION('',(0.,0.,-1.));
#551=DIRECTION('',(-1.,0.,0.));
#552=DIRECTION('',(0.,1.,0.));
#553=DIRECTION('',(1.,0.,0.));
#554=DIRECTION('',(0.,0.,1.));
#555=DIRECTION('',(0.,0.,-1.));
#556=DIRECTION('',(0.,0.,-1.));
#557=DIRECTION('',(1.,0.,0.));
#558=DIRECTION('',(0.,0.,1.));
#559=DIRECTION('',(1.,0.,0.));
#560=DIRECTION('',(0.,0.,-1.));
#561=DIRECTION('',(0.,0.,1.));
#562=DIRECTION('',(1.,0.,0.));
#563=DIRECTION('',(0.,0.,1.));
#564=DIRECTION('',(1.,0.,0.));
#565=DIRECTION('',(0.,0.,1.));
#566=DIRECTION('',(0.,-1.,0.));
#567=DIRECTION('',(0.,0.,-1.));
#568=DIRECTION('',(0.,-1.,0.));
#569=DIRECTION('',(0.,0.,-1.));
#570=DIRECTION('',(-1.,0.,0.));
#571=DIRECTION('',(0.,0.,1.));
#572=DIRECTION('',(1.,0.,0.));
#573=DIRECTION('',(0.,0.,1.));
#574=DIRECTION('',(1.,0.,0.));
#575=DIRECTION('',(0.,0.,-1.));
#576=DIRECTION('',(1.,0.,0.));
#577=DIRECTION('',(0.,0.,1.));
#578=DIRECTION('',(0.,0.,1.));
#579=DIRECTION('',(1.,0.,0.));
#580=DIRECTION('',(0.,1.,0.));
#581=DIRECTION('',(1.,0.,0.));
#582=DIRECTION('',(1.,0.,0.));
#583=DIRECTION('',(0.,0.,1.));
#584=DIRECTION('',(1.,0.,0.));
#585=DIRECTION('',(0.,0.,1.));
#586=DIRECTION('',(1.,0.,0.));
#587=DIRECTION('',(-1.,0.,0.));
#588=DIRECTION('',(0.,0.,-1.));
#589=DIRECTION('',(-7.80141906663949E-18,0.,-1.));
#590=DIRECTION('',(-1.,0.,7.80141906663949E-18));
#591=DIRECTION('',(0.,0.,1.));
#592=DIRECTION('',(1.,0.,0.));
#593=DIRECTION('',(5.52528037116446E-17,0.,-1.));
#594=DIRECTION('',(-1.,0.,-5.52528037116446E-17));
#595=DIRECTION('',(0.,0.,1.));
#596=DIRECTION('',(1.,0.,0.));
#597=DIRECTION('',(0.,0.,-1.));
#598=DIRECTION('',(-1.,0.,0.));
#599=DIRECTION('',(0.,0.,1.));
#600=DIRECTION('',(-1.,0.,0.));
#601=DIRECTION('',(0.,0.,-1.));
#602=DIRECTION('',(-1.,0.,0.));
#603=DIRECTION('',(0.,0.,-1.));
#604=DIRECTION('',(1.,0.,0.));
#605=DIRECTION('',(0.,0.,1.));
#606=DIRECTION('',(1.,0.,0.));
#607=DIRECTION('',(0.,0.,-1.));
#608=DIRECTION('',(-1.,0.,0.));
#609=DIRECTION('',(0.,0.,1.));
#610=DIRECTION('',(-1.,0.,0.));
#611=DIRECTION('',(0.,0.,-1.));
#612=DIRECTION('',(0.,-1.,0.));
#613=DIRECTION('',(0.,0.,-1.));
#614=DIRECTION('',(-1.,0.,0.));
#615=DIRECTION('',(0.,0.,1.));
#616=DIRECTION('',(1.,0.,0.));
#617=DIRECTION('',(-2.76427720643578E-17,0.,1.));
#618=DIRECTION('',(1.,0.,2.76427720643578E-17));
#619=DIRECTION('',(0.,0.,-1.));
#620=DIRECTION('',(-1.,0.,0.));
#621=DIRECTION('',(0.,0.,1.));
#622=DIRECTION('',(1.,0.,0.));
#623=DIRECTION('',(0.,0.,-1.));
#624=DIRECTION('',(-1.,0.,0.));
#625=DIRECTION('',(0.,0.,1.));
#626=DIRECTION('',(-1.,0.,0.));
#627=DIRECTION('',(0.,0.,1.));
#628=DIRECTION('',(1.,0.,0.));
#629=CARTESIAN_POINT('',(0.,0.,0.));
#630=CARTESIAN_POINT('',(7.26302326041165E-14,0.,-67.2534718625762));
#631=CARTESIAN_POINT('',(1.00726302326041E-11,0.,-67.6777359312981));
#632=CARTESIAN_POINT('',(-4.67573589998993,0.,-67.6777359312981));
#633=CARTESIAN_POINT('',(1.00726302326041E-11,0.,-67.2534718625862));
#634=CARTESIAN_POINT('',(-4.49999999998993,0.,-67.2534718625862));
#635=CARTESIAN_POINT('',(7.26302326041165E-14,0.,48.5));
#636=CARTESIAN_POINT('',(7.26302326051797E-14,0.,48.4999999743394));
#637=CARTESIAN_POINT('',(4.82295192566065,0.,48.4999999743394));
#638=CARTESIAN_POINT('',(1.00726302326041E-11,0.,48.9729519002866));
#639=CARTESIAN_POINT('',(5.07262959400609E-12,4.34999999999417,48.9729519002816));
#640=CARTESIAN_POINT('',(5.07263284874122E-12,-4.34999999999417,48.9729519002816));
#641=CARTESIAN_POINT('',(1.00726302326041E-11,0.,48.9729519002866));
#642=CARTESIAN_POINT('',(7.26302326041165E-14,-2.04558592287185E-15,28.5));
#643=CARTESIAN_POINT('',(7.26302326041165E-14,-2.02012591312959E-15,29.034186130106));
#644=CARTESIAN_POINT('',(-5.30841250558783,-2.02012591312959E-15,29.034186130106));
#645=CARTESIAN_POINT('',(1.00726302326041E-11,-1.00020455859229E-11,28.50000000001));
#646=CARTESIAN_POINT('',(1.00726302326041E-11,-5.00000000001,28.50000000001));
#647=CARTESIAN_POINT('',(-9.99999999999993,7.6,52.7726229386693));
#648=CARTESIAN_POINT('',(-10.0000000000099,2.60000000001,52.7726229386793));
#649=CARTESIAN_POINT('',(-3.48747759849556,2.60000000001,52.7726229386793));
#650=CARTESIAN_POINT('',(3.4874775984957,2.60000000001,52.7726229386743));
#651=CARTESIAN_POINT('',(7.26289554080711E-14,4.35,48.9729519002766));
#652=CARTESIAN_POINT('',(0.522494955634271,4.35,48.9729519002766));
#653=CARTESIAN_POINT('',(1.55379633066079,4.1562899627102,49.1255565026058));
#654=CARTESIAN_POINT('',(2.75356744432848,3.43611965486445,49.9030107349825));
#655=CARTESIAN_POINT('',(3.37382134237503,2.76481209006077,51.2165695346184));
#656=CARTESIAN_POINT('',(3.48747759849443,2.6,52.2508753109782));
#657=CARTESIAN_POINT('',(3.48747759849443,2.6,52.7726229386693));
#658=CARTESIAN_POINT('',(-3.48747759849429,2.6,52.7726229386693));
#659=CARTESIAN_POINT('',(-3.48747759849429,2.6,52.2503186215916));
#660=CARTESIAN_POINT('',(-3.37352447176342,2.76495498636465,51.2183157570437));
#661=CARTESIAN_POINT('',(-2.7577192507294,3.4319974123664,49.9091224148674));
#662=CARTESIAN_POINT('',(-1.5615832399559,4.15402444178418,49.1272164803741));
#663=CARTESIAN_POINT('',(-0.523450292144615,4.35,48.9729519002766));
#664=CARTESIAN_POINT('',(7.23700013156622E-14,4.35,48.9729519002766));
#665=CARTESIAN_POINT('',(7.26302326041165E-14,0.,-67.6777359312881));
#666=CARTESIAN_POINT('',(1.00726302326041E-11,0.,-67.95000000001));
#667=CARTESIAN_POINT('',(4.94800000001007,0.,-67.95000000001));
#668=CARTESIAN_POINT('',(7.26302326041165E-14,-3.03021102093925E-15,12.375064637251));
#669=CARTESIAN_POINT('',(7.26302326041165E-14,-3.03021102093925E-15,15.0426507314947));
#670=CARTESIAN_POINT('',(5.65734931054441,-3.03021102093925E-15,15.0426507314947));
#671=CARTESIAN_POINT('',(7.26302326041165E-14,-3.03021102093925E-15,15.7000000432189));
#672=CARTESIAN_POINT('',(-4.99999999999993,-3.03021102093925E-15,15.7000000432189));
#673=CARTESIAN_POINT('',(7.26302326041165E-14,0.,-105.5));
#674=CARTESIAN_POINT('',(1.00726302326041E-11,0.,-6.27128129212019));
#675=CARTESIAN_POINT('',(-4.49999999998993,0.,-6.27128129212019));
#676=CARTESIAN_POINT('',(7.26302326041165E-14,0.,-3.5));
#677=CARTESIAN_POINT('',(1.00726302326041E-11,0.,-3.50000000001));
#678=CARTESIAN_POINT('',(-6.09999999998993,0.,-3.50000000001));
#679=CARTESIAN_POINT('',(7.26302326041165E-14,0.,62.));
#680=CARTESIAN_POINT('',(1.00726302326041E-11,0.,62.00000000001));
#681=CARTESIAN_POINT('',(-1.33824999998993,0.,62.00000000001));
#682=CARTESIAN_POINT('',(1.00726302326041E-11,0.,61.8330023531749));
#683=CARTESIAN_POINT('',(-1.33824999998993,0.,61.8330023531749));
#684=CARTESIAN_POINT('',(7.26302326041165E-14,0.,-67.95));
#685=CARTESIAN_POINT('',(7.26302326041165E-14,0.,-3.5));
#686=CARTESIAN_POINT('',(-9.99999999999993,2.6,52.7726229386693));
#687=CARTESIAN_POINT('',(-3.48747759850429,2.60000000001,-1.62155130688318));
#688=CARTESIAN_POINT('',(-3.48747759849929,2.600000000005,60.3665844088755));
#689=CARTESIAN_POINT('',(-3.48747759849429,2.6,60.3665844088706));
#690=CARTESIAN_POINT('',(-3.48747759849425,2.6,60.7110885416375));
#691=CARTESIAN_POINT('',(-3.08721863484242,2.6,61.345124032437));
#692=CARTESIAN_POINT('',(-2.40047243873138,2.6,61.5251703343778));
#693=CARTESIAN_POINT('',(-2.05974275631261,2.6,61.5549060913604));
#694=CARTESIAN_POINT('',(-2.05974273927595,2.6,61.5549060913654));
#695=CARTESIAN_POINT('',(2.0597427558553,2.6,61.5549060861188));
#696=CARTESIAN_POINT('',(1.37405397473458,2.6,61.6147467053908));
#697=CARTESIAN_POINT('',(0.00232558725174275,2.6,61.6965809522815));
#698=CARTESIAN_POINT('',(-1.37354626315545,2.6,61.6147910137945));
#699=CARTESIAN_POINT('',(-2.05974275585516,2.6,61.5549060861188));
#700=CARTESIAN_POINT('',(2.05974275608402,2.6,61.5549060887396));
#701=CARTESIAN_POINT('',(2.05974275631274,2.6,61.5549060913604));
#702=CARTESIAN_POINT('',(2.40041166962998,2.6,61.5251756377468));
#703=CARTESIAN_POINT('',(3.08388033359341,2.6,61.346916594749));
#704=CARTESIAN_POINT('',(3.48747759849445,2.6,60.7123962027245));
#705=CARTESIAN_POINT('',(3.48747759849446,2.6,60.3665844088705));
#706=CARTESIAN_POINT('',(3.48747759849943,2.600000000005,60.3665844088755));
#707=CARTESIAN_POINT('',(3.48747759850443,2.60000000001,-1.62155130688318));
#708=CARTESIAN_POINT('',(7.26302326041165E-14,0.,-1.62155130687318));
#709=CARTESIAN_POINT('',(7.26354648783481E-14,-4.35,48.9729519002766));
#710=CARTESIAN_POINT('',(0.522494955634271,-4.35,48.9729519002766));
#711=CARTESIAN_POINT('',(1.55379633066079,-4.1562899627102,49.1255565026058));
#712=CARTESIAN_POINT('',(2.75356744432848,-3.43611965486445,49.9030107349825));
#713=CARTESIAN_POINT('',(3.37382134237503,-2.76481209006077,51.2165695346184));
#714=CARTESIAN_POINT('',(3.48747759849443,-2.6,52.2508753109782));
#715=CARTESIAN_POINT('',(3.48747759849443,-2.6,52.7726229386693));
#716=CARTESIAN_POINT('',(3.4874775984957,-2.60000000001,52.7726229386743));
#717=CARTESIAN_POINT('',(1.00726302326041E-11,0.,60.3665844088805));
#718=CARTESIAN_POINT('',(3.48747759849943,-2.600000000005,60.3665844088755));
#719=CARTESIAN_POINT('',(3.48747759850443,-2.60000000001,-1.62155130688318));
#720=CARTESIAN_POINT('',(7.26302326041165E-14,0.,60.3665844088705));
#721=CARTESIAN_POINT('',(1.00726302326041E-11,0.,61.5549060913704));
#722=CARTESIAN_POINT('',(2.0597427392861,-2.6,61.5549060913654));
#723=CARTESIAN_POINT('',(2.05974275631274,-2.6,61.5549060913604));
#724=CARTESIAN_POINT('',(2.40041166970126,-2.6,61.5251756377405));
#725=CARTESIAN_POINT('',(3.08388033321193,-2.6,61.3469165949669));
#726=CARTESIAN_POINT('',(3.48747759849442,-2.6,60.7123962027969));
#727=CARTESIAN_POINT('',(3.48747759849446,-2.6,60.3665844088706));
#728=CARTESIAN_POINT('',(7.26302326041165E-14,1.22124532708767E-15,82.));
#729=CARTESIAN_POINT('',(7.26302326041165E-14,-0.15,62.));
#730=CARTESIAN_POINT('',(7.26302326041165E-14,0.,-3.5));
#731=CARTESIAN_POINT('',(1.00726302326041E-11,0.,-3.50000000001));
#732=CARTESIAN_POINT('',(6.11978700001007,0.,-3.50000000001));
#733=CARTESIAN_POINT('',(7.26302326041165E-14,0.,-3.5));
#734=CARTESIAN_POINT('',(7.26302326041165E-14,0.,-1.62155130687318));
#735=CARTESIAN_POINT('',(-3.48747759849429,-2.6,52.7726229386693));
#736=CARTESIAN_POINT('',(-3.48747759849429,-2.6,52.2503186215912));
#737=CARTESIAN_POINT('',(-3.37352447176458,-2.76495498636312,51.2183157570494));
#738=CARTESIAN_POINT('',(-2.75771925073095,-3.4319974123652,49.9091224148683));
#739=CARTESIAN_POINT('',(-1.56158323995718,-4.15402444178383,49.1272164803745));
#740=CARTESIAN_POINT('',(-0.523450292145034,-4.35,48.9729519002766));
#741=CARTESIAN_POINT('',(7.23700013156622E-14,-4.35,48.9729519002766));
#742=CARTESIAN_POINT('',(-3.48747759849556,-2.60000000001,52.7726229386743));
#743=CARTESIAN_POINT('',(-3.48747759850429,-2.60000000001,-1.62155130688318));
#744=CARTESIAN_POINT('',(-3.48747759849929,-2.600000000005,60.3665844088755));
#745=CARTESIAN_POINT('',(1.00726302326041E-11,0.,60.3665844088805));
#746=CARTESIAN_POINT('',(-9.99999999999993,-2.6,52.7726229386693));
#747=CARTESIAN_POINT('',(-10.0000000000099,-2.60000000001,52.7726229386793));
#748=CARTESIAN_POINT('',(2.0597427558553,-2.6,61.5549060861188));
#749=CARTESIAN_POINT('',(1.37405397750725,-2.6,61.6147467051488));
#750=CARTESIAN_POINT('',(0.00232557059120023,-2.6,61.6965809525247));
#751=CARTESIAN_POINT('',(-1.37354626593017,-2.6,61.6147910135523));
#752=CARTESIAN_POINT('',(-2.05974275585516,-2.6,61.5549060861188));
#753=CARTESIAN_POINT('',(-2.05974273927595,-2.6,61.5549060913654));
#754=CARTESIAN_POINT('',(-3.48747759849429,-2.6,60.3665844088706));
#755=CARTESIAN_POINT('',(-3.48747759849425,-2.6,60.7110885416375));
#756=CARTESIAN_POINT('',(-3.08721863484242,-2.6,61.345124032437));
#757=CARTESIAN_POINT('',(-2.40047243873138,-2.6,61.5251703343778));
#758=CARTESIAN_POINT('',(-2.05974275631261,-2.6,61.5549060913604));
#759=CARTESIAN_POINT('',(7.26302326041165E-14,0.,60.3665844088705));
#760=CARTESIAN_POINT('',(1.00726302326041E-11,0.,61.5549060913704));
#761=CARTESIAN_POINT('',(-9.99999999999993,-7.6,52.7726229386693));
#762=CARTESIAN_POINT('',(7.26302326041165E-14,0.,62.));
#763=CARTESIAN_POINT('',(0.,0.,0.));
#764=CARTESIAN_POINT('',(7.26302326041165E-14,0.,-67.6777359312881));
#765=CARTESIAN_POINT('',(1.00726302326041E-11,0.,-67.95000000001));
#766=CARTESIAN_POINT('',(4.94800000001007,0.,-67.95000000001));
#767=CARTESIAN_POINT('',(1.00726302326041E-11,0.,-68.00000000001));
#768=CARTESIAN_POINT('',(-4.99799999998993,0.,-68.00000000001));
#769=CARTESIAN_POINT('',(7.26302326041165E-14,0.,-105.5));
#770=CARTESIAN_POINT('',(1.00726302326041E-11,0.,-93.02000000001));
#771=CARTESIAN_POINT('',(-4.69999999998993,0.,-93.02000000001));
#772=CARTESIAN_POINT('',(1.00726302326041E-11,0.,-94.00000000001));
#773=CARTESIAN_POINT('',(4.70000000001007,0.,-94.00000000001));
#774=CARTESIAN_POINT('',(7.26302326041165E-14,0.,-92.5038488593445));
#775=CARTESIAN_POINT('',(1.00726302326041E-11,0.,-92.5038488593545));
#776=CARTESIAN_POINT('',(-4.99799999998993,0.,-92.5038488593545));
#777=CARTESIAN_POINT('',(7.26302326041165E-14,0.,-105.5));
#778=CARTESIAN_POINT('',(7.26302326041165E-14,0.,-106.));
#779=CARTESIAN_POINT('',(1.00726302326041E-11,0.,-106.00000000001));
#780=CARTESIAN_POINT('',(-4.08076119998993,0.,-106.00000000001));
#781=CARTESIAN_POINT('',(7.26302326041165E-14,0.,-67.95));
#782=CARTESIAN_POINT('',(7.26302326041165E-14,0.,-106.));
#783=CARTESIAN_POINT('',(1.00726302326041E-11,0.,-105.080761184468));
#784=CARTESIAN_POINT('',(-4.99999999998993,0.,-105.080761184468));
#785=CARTESIAN_POINT('',(7.26302326041165E-14,5.,-94.));
#786=CARTESIAN_POINT('',(1.00726302326041E-11,0.,-94.00000000001));
#787=CARTESIAN_POINT('',(-4.99999999998993,0.,-94.00000000001));
#788=CARTESIAN_POINT('',(7.26302326041165E-14,0.,62.));
#789=CARTESIAN_POINT('',(0.,0.,0.));
#790=MECHANICAL_DESIGN_GEOMETRIC_PRESENTATION_REPRESENTATION('',(#413,#414),
#791);
#791=(
GEOMETRIC_REPRESENTATION_CONTEXT(3)
GLOBAL_UNCERTAINTY_ASSIGNED_CONTEXT((#794))
GLOBAL_UNIT_ASSIGNED_CONTEXT((#799,#798,#797))
REPRESENTATION_CONTEXT('1410 10.000','TOP_LEVEL_ASSEMBLY_PART')
);
#792=(
GEOMETRIC_REPRESENTATION_CONTEXT(3)
GLOBAL_UNCERTAINTY_ASSIGNED_CONTEXT((#795))
GLOBAL_UNIT_ASSIGNED_CONTEXT((#799,#798,#797))
REPRESENTATION_CONTEXT('1410 10.000_PART1','COMPONENT_PART')
);
#793=(
GEOMETRIC_REPRESENTATION_CONTEXT(3)
GLOBAL_UNCERTAINTY_ASSIGNED_CONTEXT((#796))
GLOBAL_UNIT_ASSIGNED_CONTEXT((#799,#798,#797))
REPRESENTATION_CONTEXT('1410 10.000_PART2','COMPONENT_PART')
);
#794=UNCERTAINTY_MEASURE_WITH_UNIT(LENGTH_MEASURE(1.E-5),#799,
'DISTANCE_ACCURACY_VALUE','Maximum Tolerance applied to model');
#795=UNCERTAINTY_MEASURE_WITH_UNIT(LENGTH_MEASURE(1.E-5),#799,
'DISTANCE_ACCURACY_VALUE','Maximum Tolerance applied to model');
#796=UNCERTAINTY_MEASURE_WITH_UNIT(LENGTH_MEASURE(1.E-5),#799,
'DISTANCE_ACCURACY_VALUE','Maximum Tolerance applied to model');
#797=(
NAMED_UNIT(*)
SI_UNIT($,.STERADIAN.)
SOLID_ANGLE_UNIT()
);
#798=(
NAMED_UNIT(*)
PLANE_ANGLE_UNIT()
SI_UNIT($,.RADIAN.)
);
#799=(
LENGTH_UNIT()
NAMED_UNIT(*)
SI_UNIT(.MILLI.,.METRE.)
);
#800=PRODUCT_DEFINITION_SHAPE('','',#805);
#801=PRODUCT_DEFINITION_SHAPE('','',#806);
#802=PRODUCT_DEFINITION_SHAPE(' ','NAUO PRDDFN',#20);
#803=PRODUCT_DEFINITION_SHAPE('','',#807);
#804=PRODUCT_DEFINITION_SHAPE(' ','NAUO PRDDFN',#21);
#805=PRODUCT_DEFINITION('','',#811,#808);
#806=PRODUCT_DEFINITION('','',#812,#809);
#807=PRODUCT_DEFINITION('','',#813,#810);
#808=PRODUCT_DEFINITION_CONTEXT('',#827,'design');
#809=PRODUCT_DEFINITION_CONTEXT('',#827,'design');
#810=PRODUCT_DEFINITION_CONTEXT('',#827,'design');
#811=PRODUCT_DEFINITION_FORMATION_WITH_SPECIFIED_SOURCE('','',#817,
 .NOT_KNOWN.);
#812=PRODUCT_DEFINITION_FORMATION_WITH_SPECIFIED_SOURCE('','',#818,
 .NOT_KNOWN.);
#813=PRODUCT_DEFINITION_FORMATION_WITH_SPECIFIED_SOURCE('','',#819,
 .NOT_KNOWN.);
#814=PRODUCT_RELATED_PRODUCT_CATEGORY('','',(#817));
#815=PRODUCT_RELATED_PRODUCT_CATEGORY('','',(#818));
#816=PRODUCT_RELATED_PRODUCT_CATEGORY('','',(#819));
#817=PRODUCT('1410 10.000','1410 10.000','1410 10.000',(#823));
#818=PRODUCT('1410 10.000_PART1','1410 10.000_PART1',
'1410 10.000_PART1',(#824));
#819=PRODUCT('1410 10.000_PART2','1410 10.000_PART2',
'1410 10.000_PART2',(#825));
#820=PRODUCT_CATEGORY('','');
#821=PRODUCT_CATEGORY('','');
#822=PRODUCT_CATEGORY('','');
#823=PRODUCT_CONTEXT('',#827,'mechanical');
#824=PRODUCT_CONTEXT('',#827,'mechanical');
#825=PRODUCT_CONTEXT('',#827,'mechanical');
#826=APPLICATION_PROTOCOL_DEFINITION('international standard',
'automotive_design',2010,#827);
#827=APPLICATION_CONTEXT(
'core data for automotive mechanical design processes');
ENDSEC;
END-ISO-10303-21;
