ISO-10303-21;
HEADER;
/* Generated by software containing ST-Developer
 * from STEP Tools, Inc. (www.steptools.com) 
 */
/* OPTION: using custom renumber hook */

FILE_DESCRIPTION(
/* description */ ('STEP AP214'),
/* implementation_level */ '2;1');

FILE_NAME(
/* name */ '1428 3.200',
/* time_stamp */ '2026-05-15T11:00:03+02:00',
/* author */ ('License CC BY-ND 4.0'),
/* organization */ ('CADENAS'),
/* preprocessor_version */ 'ST-DEVELOPER v20',
/* originating_system */ 'PARTsolutions',
/* authorisation */ '  ');

FILE_SCHEMA (('AUTOMOTIVE_DESIGN {1 0 10303 214 3 1 1}'));
ENDSEC;

DATA;
#10=PROPERTY_DEFINITION_REPRESENTATION(#14,#12);
#11=PROPERTY_DEFINITION_REPRESENTATION(#15,#13);
#12=REPRESENTATION('',(#16),#292);
#13=REPRESENTATION('',(#17),#292);
#14=PROPERTY_DEFINITION('pmi validation property','',#303);
#15=PROPERTY_DEFINITION('pmi validation property','',#303);
#16=VALUE_REPRESENTATION_ITEM('number of annotations',COUNT_MEASURE(0.));
#17=VALUE_REPRESENTATION_ITEM('number of views',COUNT_MEASURE(0.));
#18=VERTEX_LOOP('',#80);
#19=CONTEXT_DEPENDENT_SHAPE_REPRESENTATION(#25,#305);
#20=CONTEXT_DEPENDENT_SHAPE_REPRESENTATION(#26,#307);
#21=CONTEXT_DEPENDENT_SHAPE_REPRESENTATION(#27,#309);
#22=NEXT_ASSEMBLY_USAGE_OCCURRENCE('NAUO1','1428 3.200_PART1',
'1428 3.200_PART1',#310,#311,'');
#23=NEXT_ASSEMBLY_USAGE_OCCURRENCE('NAUO2','1428 3.200_PART2',
'1428 3.200_PART2',#310,#312,'');
#24=NEXT_ASSEMBLY_USAGE_OCCURRENCE('NAUO3','1428 3.200_PART3',
'1428 3.200_PART3',#310,#313,'');
#25=(
REPRESENTATION_RELATIONSHIP(' ',' ',#178,#177)
REPRESENTATION_RELATIONSHIP_WITH_TRANSFORMATION(#28)
SHAPE_REPRESENTATION_RELATIONSHIP()
);
#26=(
REPRESENTATION_RELATIONSHIP(' ',' ',#179,#177)
REPRESENTATION_RELATIONSHIP_WITH_TRANSFORMATION(#29)
SHAPE_REPRESENTATION_RELATIONSHIP()
);
#27=(
REPRESENTATION_RELATIONSHIP(' ',' ',#180,#177)
REPRESENTATION_RELATIONSHIP_WITH_TRANSFORMATION(#30)
SHAPE_REPRESENTATION_RELATIONSHIP()
);
#28=ITEM_DEFINED_TRANSFORMATION(' ',' ',#181,#189);
#29=ITEM_DEFINED_TRANSFORMATION(' ',' ',#181,#199);
#30=ITEM_DEFINED_TRANSFORMATION(' ',' ',#181,#205);
#31=SHAPE_REPRESENTATION_RELATIONSHIP('','',#178,#34);
#32=SHAPE_REPRESENTATION_RELATIONSHIP('','',#179,#35);
#33=SHAPE_REPRESENTATION_RELATIONSHIP('','',#180,#36);
#34=ADVANCED_BREP_SHAPE_REPRESENTATION('',(#170),#293);
#35=ADVANCED_BREP_SHAPE_REPRESENTATION('',(#171),#294);
#36=ADVANCED_BREP_SHAPE_REPRESENTATION('',(#172),#295);
#37=CONICAL_SURFACE('',#188,1.6,1.04719755);
#38=CONICAL_SURFACE('',#194,1.1048507,0.7853981625);
#39=CONICAL_SURFACE('',#196,1.5998254,0.0174532925);
#40=CONICAL_SURFACE('',#202,1.1048507,0.7853981625);
#41=CONICAL_SURFACE('',#204,1.7320508,1.04719755);
#42=CYLINDRICAL_SURFACE('',#186,1.6);
#43=CYLINDRICAL_SURFACE('',#198,1.6);
#44=ORIENTED_EDGE('',*,*,#62,.F.);
#45=ORIENTED_EDGE('',*,*,#63,.T.);
#46=ORIENTED_EDGE('',*,*,#64,.T.);
#47=ORIENTED_EDGE('',*,*,#62,.T.);
#48=ORIENTED_EDGE('',*,*,#64,.F.);
#49=ORIENTED_EDGE('',*,*,#63,.F.);
#50=ORIENTED_EDGE('',*,*,#65,.F.);
#51=ORIENTED_EDGE('',*,*,#66,.T.);
#52=ORIENTED_EDGE('',*,*,#67,.F.);
#53=ORIENTED_EDGE('',*,*,#65,.T.);
#54=ORIENTED_EDGE('',*,*,#67,.T.);
#55=ORIENTED_EDGE('',*,*,#68,.F.);
#56=ORIENTED_EDGE('',*,*,#66,.F.);
#57=ORIENTED_EDGE('',*,*,#68,.T.);
#58=ORIENTED_EDGE('',*,*,#69,.T.);
#59=ORIENTED_EDGE('',*,*,#69,.F.);
#60=ORIENTED_EDGE('',*,*,#70,.T.);
#61=ORIENTED_EDGE('',*,*,#70,.F.);
#62=EDGE_CURVE('',#71,#71,#81,.T.);
#63=EDGE_CURVE('',#72,#72,#82,.T.);
#64=EDGE_CURVE('',#73,#73,#83,.T.);
#65=EDGE_CURVE('',#74,#74,#84,.T.);
#66=EDGE_CURVE('',#75,#75,#85,.T.);
#67=EDGE_CURVE('',#76,#76,#86,.T.);
#68=EDGE_CURVE('',#77,#77,#87,.T.);
#69=EDGE_CURVE('',#78,#78,#88,.T.);
#70=EDGE_CURVE('',#79,#79,#89,.T.);
#71=VERTEX_POINT('',#259);
#72=VERTEX_POINT('',#262);
#73=VERTEX_POINT('',#265);
#74=VERTEX_POINT('',#270);
#75=VERTEX_POINT('',#273);
#76=VERTEX_POINT('',#276);
#77=VERTEX_POINT('',#279);
#78=VERTEX_POINT('',#284);
#79=VERTEX_POINT('',#287);
#80=VERTEX_POINT('',#289);
#81=CIRCLE('',#183,1.6);
#82=CIRCLE('',#185,0.0005);
#83=CIRCLE('',#187,1.6);
#84=CIRCLE('',#191,1.1148507);
#85=CIRCLE('',#193,1.6);
#86=CIRCLE('',#195,1.59982539918383);
#87=CIRCLE('',#197,1.6);
#88=CIRCLE('',#201,1.1148507);
#89=CIRCLE('',#203,1.10485070452917);
#90=EDGE_LOOP('',(#44));
#91=EDGE_LOOP('',(#45));
#92=EDGE_LOOP('',(#46));
#93=EDGE_LOOP('',(#47));
#94=EDGE_LOOP('',(#48));
#95=EDGE_LOOP('',(#49));
#96=EDGE_LOOP('',(#50));
#97=EDGE_LOOP('',(#51));
#98=EDGE_LOOP('',(#52));
#99=EDGE_LOOP('',(#53));
#100=EDGE_LOOP('',(#54));
#101=EDGE_LOOP('',(#55));
#102=EDGE_LOOP('',(#56));
#103=EDGE_LOOP('',(#57));
#104=EDGE_LOOP('',(#58));
#105=EDGE_LOOP('',(#59));
#106=EDGE_LOOP('',(#60));
#107=EDGE_LOOP('',(#61));
#108=FACE_BOUND('',#90,.T.);
#109=FACE_BOUND('',#91,.T.);
#110=FACE_BOUND('',#92,.T.);
#111=FACE_BOUND('',#93,.T.);
#112=FACE_BOUND('',#94,.T.);
#113=FACE_BOUND('',#95,.T.);
#114=FACE_BOUND('',#96,.T.);
#115=FACE_BOUND('',#97,.T.);
#116=FACE_BOUND('',#98,.T.);
#117=FACE_BOUND('',#99,.T.);
#118=FACE_BOUND('',#100,.T.);
#119=FACE_BOUND('',#101,.T.);
#120=FACE_BOUND('',#102,.T.);
#121=FACE_BOUND('',#103,.T.);
#122=FACE_BOUND('',#104,.T.);
#123=FACE_BOUND('',#105,.T.);
#124=FACE_BOUND('',#106,.T.);
#125=FACE_BOUND('',#18,.T.);
#126=FACE_BOUND('',#107,.T.);
#127=PLANE('',#182);
#128=PLANE('',#184);
#129=PLANE('',#190);
#130=PLANE('',#192);
#131=PLANE('',#200);
#132=ADVANCED_FACE('',(#108),#127,.F.);
#133=ADVANCED_FACE('',(#109),#128,.T.);
#134=ADVANCED_FACE('',(#110,#111),#42,.T.);
#135=ADVANCED_FACE('',(#112,#113),#37,.T.);
#136=ADVANCED_FACE('',(#114),#129,.F.);
#137=ADVANCED_FACE('',(#115),#130,.T.);
#138=ADVANCED_FACE('',(#116,#117),#38,.T.);
#139=ADVANCED_FACE('',(#118,#119),#39,.T.);
#140=ADVANCED_FACE('',(#120,#121),#43,.T.);
#141=ADVANCED_FACE('',(#122),#131,.T.);
#142=ADVANCED_FACE('',(#123,#124),#40,.T.);
#143=ADVANCED_FACE('',(#125,#126),#41,.T.);
#144=CLOSED_SHELL('',(#132,#133,#134,#135));
#145=CLOSED_SHELL('',(#136,#137,#138,#139,#140));
#146=CLOSED_SHELL('',(#141,#142,#143));
#147=STYLED_ITEM('',(#150),#170);
#148=STYLED_ITEM('',(#151),#171);
#149=STYLED_ITEM('',(#152),#172);
#150=PRESENTATION_STYLE_ASSIGNMENT((#153));
#151=PRESENTATION_STYLE_ASSIGNMENT((#154));
#152=PRESENTATION_STYLE_ASSIGNMENT((#155));
#153=SURFACE_STYLE_USAGE(.BOTH.,#156);
#154=SURFACE_STYLE_USAGE(.BOTH.,#157);
#155=SURFACE_STYLE_USAGE(.BOTH.,#158);
#156=SURFACE_SIDE_STYLE('',(#159));
#157=SURFACE_SIDE_STYLE('',(#160));
#158=SURFACE_SIDE_STYLE('',(#161));
#159=SURFACE_STYLE_FILL_AREA(#162);
#160=SURFACE_STYLE_FILL_AREA(#163);
#161=SURFACE_STYLE_FILL_AREA(#164);
#162=FILL_AREA_STYLE('',(#165));
#163=FILL_AREA_STYLE('',(#166));
#164=FILL_AREA_STYLE('',(#167));
#165=FILL_AREA_STYLE_COLOUR('',#168);
#166=FILL_AREA_STYLE_COLOUR('',#169);
#167=FILL_AREA_STYLE_COLOUR('',#168);
#168=COLOUR_RGB('',0.4999923706,0.4999923706,0.4999923706);
#169=COLOUR_RGB('',0.8000000119,0.8000000119,0.8000000119);
#170=MANIFOLD_SOLID_BREP('1',#144);
#171=MANIFOLD_SOLID_BREP('1',#145);
#172=MANIFOLD_SOLID_BREP('1',#146);
#173=SHAPE_DEFINITION_REPRESENTATION(#303,#177);
#174=SHAPE_DEFINITION_REPRESENTATION(#304,#178);
#175=SHAPE_DEFINITION_REPRESENTATION(#306,#179);
#176=SHAPE_DEFINITION_REPRESENTATION(#308,#180);
#177=SHAPE_REPRESENTATION('1428 3.200',(#181,#189,#199,#205),#292);
#178=SHAPE_REPRESENTATION('1428 3.200_PART1',(#181),#293);
#179=SHAPE_REPRESENTATION('1428 3.200_PART2',(#181),#294);
#180=SHAPE_REPRESENTATION('1428 3.200_PART3',(#181),#295);
#181=AXIS2_PLACEMENT_3D('',#256,#206,#207);
#182=AXIS2_PLACEMENT_3D('',#257,#208,#209);
#183=AXIS2_PLACEMENT_3D('',#258,#210,#211);
#184=AXIS2_PLACEMENT_3D('',#260,#212,#213);
#185=AXIS2_PLACEMENT_3D('',#261,#214,#215);
#186=AXIS2_PLACEMENT_3D('',#263,#216,#217);
#187=AXIS2_PLACEMENT_3D('',#264,#218,#219);
#188=AXIS2_PLACEMENT_3D('',#266,#220,#221);
#189=AXIS2_PLACEMENT_3D('',#267,#222,#223);
#190=AXIS2_PLACEMENT_3D('',#268,#224,#225);
#191=AXIS2_PLACEMENT_3D('',#269,#226,#227);
#192=AXIS2_PLACEMENT_3D('',#271,#228,#229);
#193=AXIS2_PLACEMENT_3D('',#272,#230,#231);
#194=AXIS2_PLACEMENT_3D('',#274,#232,#233);
#195=AXIS2_PLACEMENT_3D('',#275,#234,#235);
#196=AXIS2_PLACEMENT_3D('',#277,#236,#237);
#197=AXIS2_PLACEMENT_3D('',#278,#238,#239);
#198=AXIS2_PLACEMENT_3D('',#280,#240,#241);
#199=AXIS2_PLACEMENT_3D('',#281,#242,#243);
#200=AXIS2_PLACEMENT_3D('',#282,#244,#245);
#201=AXIS2_PLACEMENT_3D('',#283,#246,#247);
#202=AXIS2_PLACEMENT_3D('',#285,#248,#249);
#203=AXIS2_PLACEMENT_3D('',#286,#250,#251);
#204=AXIS2_PLACEMENT_3D('',#288,#252,#253);
#205=AXIS2_PLACEMENT_3D('',#290,#254,#255);
#206=DIRECTION('',(0.,0.,1.));
#207=DIRECTION('',(1.,0.,0.));
#208=DIRECTION('',(0.,0.,1.));
#209=DIRECTION('',(1.,0.,0.));
#210=DIRECTION('',(0.,0.,1.));
#211=DIRECTION('',(1.,0.,0.));
#212=DIRECTION('',(0.,0.,1.));
#213=DIRECTION('',(1.,0.,0.));
#214=DIRECTION('',(0.,0.,1.));
#215=DIRECTION('',(1.,0.,0.));
#216=DIRECTION('',(0.,0.,-1.));
#217=DIRECTION('',(0.,1.,0.));
#218=DIRECTION('',(0.,0.,-1.));
#219=DIRECTION('',(1.,0.,0.));
#220=DIRECTION('',(-3.12693354322575E-18,0.,-1.));
#221=DIRECTION('',(-1.,0.,3.12693354322575E-18));
#222=DIRECTION('',(0.,0.,1.));
#223=DIRECTION('',(1.,0.,0.));
#224=DIRECTION('',(0.,0.,1.));
#225=DIRECTION('',(1.,0.,0.));
#226=DIRECTION('',(0.,0.,1.));
#227=DIRECTION('',(1.,0.,0.));
#228=DIRECTION('',(0.,0.,1.));
#229=DIRECTION('',(1.,0.,0.));
#230=DIRECTION('',(0.,0.,1.));
#231=DIRECTION('',(1.,0.,0.));
#232=DIRECTION('',(0.,0.,1.));
#233=DIRECTION('',(0.,1.,0.));
#234=DIRECTION('',(0.,0.,1.));
#235=DIRECTION('',(1.,0.,0.));
#236=DIRECTION('',(0.,0.,1.));
#237=DIRECTION('',(0.,1.,0.));
#238=DIRECTION('',(0.,0.,1.));
#239=DIRECTION('',(1.,0.,0.));
#240=DIRECTION('',(0.,0.,-1.));
#241=DIRECTION('',(0.,1.,0.));
#242=DIRECTION('',(0.,0.,1.));
#243=DIRECTION('',(1.,0.,0.));
#244=DIRECTION('',(0.,0.,1.));
#245=DIRECTION('',(1.,0.,0.));
#246=DIRECTION('',(0.,0.,1.));
#247=DIRECTION('',(1.,0.,0.));
#248=DIRECTION('',(0.,0.,1.));
#249=DIRECTION('',(0.,1.,0.));
#250=DIRECTION('',(0.,0.,1.));
#251=DIRECTION('',(1.,0.,0.));
#252=DIRECTION('',(0.,0.,1.));
#253=DIRECTION('',(0.,1.,0.));
#254=DIRECTION('',(0.,0.,1.));
#255=DIRECTION('',(1.,0.,0.));
#256=CARTESIAN_POINT('',(0.,0.,0.));
#257=CARTESIAN_POINT('',(1.08242475687425E-15,0.,-48.9997604307034));
#258=CARTESIAN_POINT('',(1.00010824247569E-11,-1.00118176639331E-11,-48.9997604307134));
#259=CARTESIAN_POINT('',(1.60000000001,-1.00118176639331E-11,-48.9997604307134));
#260=CARTESIAN_POINT('',(1.08242475687425E-15,0.,0.924));
#261=CARTESIAN_POINT('',(1.00010824247569E-11,0.,0.92400000001));
#262=CARTESIAN_POINT('',(0.,0.,0.92400000001));
#263=CARTESIAN_POINT('',(1.08242475687425E-15,0.,0.923999999999997));
#264=CARTESIAN_POINT('',(1.00010824247569E-11,0.,0.));
#265=CARTESIAN_POINT('',(1.60000000001,0.,0.));
#266=CARTESIAN_POINT('',(1.08242475687425E-15,0.,0.));
#267=CARTESIAN_POINT('',(0.,0.,0.));
#268=CARTESIAN_POINT('',(1.08242475687425E-15,0.,-65.0281141494857));
#269=CARTESIAN_POINT('',(1.00013486929118E-11,-1.00156141702991E-11,-65.0281141494957));
#270=CARTESIAN_POINT('',(1.11485070001,-1.00156141702991E-11,-65.0281141494957));
#271=CARTESIAN_POINT('',(1.08242475687425E-15,0.,-48.9997604307034));
#272=CARTESIAN_POINT('',(1.00010824247569E-11,-1.00118176639331E-11,-48.9997604307134));
#273=CARTESIAN_POINT('',(1.60000000001,-1.00118176639331E-11,-48.9997604307134));
#274=CARTESIAN_POINT('',(1.08242475687425E-15,-1.56141702991037E-14,-65.0381141494857));
#275=CARTESIAN_POINT('',(1.08242475687425E-15,-1.56141702991037E-14,-64.5431394494134));
#276=CARTESIAN_POINT('',(1.59982539918383,-1.56141702991037E-14,-64.5431394494134));
#277=CARTESIAN_POINT('',(1.08242475687425E-15,-1.54970027387485E-14,-64.5431394026551));
#278=CARTESIAN_POINT('',(1.08242475687425E-15,-1.54970027387485E-14,-64.5331365753429));
#279=CARTESIAN_POINT('',(1.6,-1.54970027387485E-14,-64.5331365753429));
#280=CARTESIAN_POINT('',(1.08242475687425E-15,0.,0.923999999999997));
#281=CARTESIAN_POINT('',(0.,0.,0.));
#282=CARTESIAN_POINT('',(1.08242475687425E-15,0.,-65.0281141494857));
#283=CARTESIAN_POINT('',(1.00013486929118E-11,-1.00156141702991E-11,-65.0281141494957));
#284=CARTESIAN_POINT('',(1.11485070001,-1.00156141702991E-11,-65.0281141494957));
#285=CARTESIAN_POINT('',(1.08242475687425E-15,-1.56141702991037E-14,-65.0381141494857));
#286=CARTESIAN_POINT('',(1.08242475687425E-15,-1.55284527312136E-14,-65.0381141449565));
#287=CARTESIAN_POINT('',(1.10485070452917,-1.55284527312136E-14,-65.0381141449565));
#288=CARTESIAN_POINT('',(1.08242475687425E-15,-1.55284527312136E-14,-64.676));
#289=CARTESIAN_POINT('',(1.08242475687425E-15,-1.56541446472147E-14,-65.676));
#290=CARTESIAN_POINT('',(0.,0.,0.));
#291=MECHANICAL_DESIGN_GEOMETRIC_PRESENTATION_REPRESENTATION('',(#147,#148,
#149),#292);
#292=(
GEOMETRIC_REPRESENTATION_CONTEXT(3)
GLOBAL_UNCERTAINTY_ASSIGNED_CONTEXT((#296))
GLOBAL_UNIT_ASSIGNED_CONTEXT((#302,#301,#300))
REPRESENTATION_CONTEXT('1428 3.200','TOP_LEVEL_ASSEMBLY_PART')
);
#293=(
GEOMETRIC_REPRESENTATION_CONTEXT(3)
GLOBAL_UNCERTAINTY_ASSIGNED_CONTEXT((#297))
GLOBAL_UNIT_ASSIGNED_CONTEXT((#302,#301,#300))
REPRESENTATION_CONTEXT('1428 3.200_PART1','COMPONENT_PART')
);
#294=(
GEOMETRIC_REPRESENTATION_CONTEXT(3)
GLOBAL_UNCERTAINTY_ASSIGNED_CONTEXT((#298))
GLOBAL_UNIT_ASSIGNED_CONTEXT((#302,#301,#300))
REPRESENTATION_CONTEXT('1428 3.200_PART2','COMPONENT_PART')
);
#295=(
GEOMETRIC_REPRESENTATION_CONTEXT(3)
GLOBAL_UNCERTAINTY_ASSIGNED_CONTEXT((#299))
GLOBAL_UNIT_ASSIGNED_CONTEXT((#302,#301,#300))
REPRESENTATION_CONTEXT('1428 3.200_PART3','COMPONENT_PART')
);
#296=UNCERTAINTY_MEASURE_WITH_UNIT(LENGTH_MEASURE(1.E-5),#302,
'DISTANCE_ACCURACY_VALUE','Maximum Tolerance applied to model');
#297=UNCERTAINTY_MEASURE_WITH_UNIT(LENGTH_MEASURE(1.E-5),#302,
'DISTANCE_ACCURACY_VALUE','Maximum Tolerance applied to model');
#298=UNCERTAINTY_MEASURE_WITH_UNIT(LENGTH_MEASURE(1.E-5),#302,
'DISTANCE_ACCURACY_VALUE','Maximum Tolerance applied to model');
#299=UNCERTAINTY_MEASURE_WITH_UNIT(LENGTH_MEASURE(1.E-5),#302,
'DISTANCE_ACCURACY_VALUE','Maximum Tolerance applied to model');
#300=(
NAMED_UNIT(*)
SI_UNIT($,.STERADIAN.)
SOLID_ANGLE_UNIT()
);
#301=(
NAMED_UNIT(*)
PLANE_ANGLE_UNIT()
SI_UNIT($,.RADIAN.)
);
#302=(
LENGTH_UNIT()
NAMED_UNIT(*)
SI_UNIT(.MILLI.,.METRE.)
);
#303=PRODUCT_DEFINITION_SHAPE('','',#310);
#304=PRODUCT_DEFINITION_SHAPE('','',#311);
#305=PRODUCT_DEFINITION_SHAPE(' ','NAUO PRDDFN',#22);
#306=PRODUCT_DEFINITION_SHAPE('','',#312);
#307=PRODUCT_DEFINITION_SHAPE(' ','NAUO PRDDFN',#23);
#308=PRODUCT_DEFINITION_SHAPE('','',#313);
#309=PRODUCT_DEFINITION_SHAPE(' ','NAUO PRDDFN',#24);
#310=PRODUCT_DEFINITION('','',#318,#314);
#311=PRODUCT_DEFINITION('','',#319,#315);
#312=PRODUCT_DEFINITION('','',#320,#316);
#313=PRODUCT_DEFINITION('','',#321,#317);
#314=PRODUCT_DEFINITION_CONTEXT('',#339,'design');
#315=PRODUCT_DEFINITION_CONTEXT('',#339,'design');
#316=PRODUCT_DEFINITION_CONTEXT('',#339,'design');
#317=PRODUCT_DEFINITION_CONTEXT('',#339,'design');
#318=PRODUCT_DEFINITION_FORMATION_WITH_SPECIFIED_SOURCE('','',#326,
 .NOT_KNOWN.);
#319=PRODUCT_DEFINITION_FORMATION_WITH_SPECIFIED_SOURCE('','',#327,
 .NOT_KNOWN.);
#320=PRODUCT_DEFINITION_FORMATION_WITH_SPECIFIED_SOURCE('','',#328,
 .NOT_KNOWN.);
#321=PRODUCT_DEFINITION_FORMATION_WITH_SPECIFIED_SOURCE('','',#329,
 .NOT_KNOWN.);
#322=PRODUCT_RELATED_PRODUCT_CATEGORY('','',(#326));
#323=PRODUCT_RELATED_PRODUCT_CATEGORY('','',(#327));
#324=PRODUCT_RELATED_PRODUCT_CATEGORY('','',(#328));
#325=PRODUCT_RELATED_PRODUCT_CATEGORY('','',(#329));
#326=PRODUCT('1428 3.200','1428 3.200','1428 3.200',(#334));
#327=PRODUCT('1428 3.200_PART1','1428 3.200_PART1','1428 3.200_PART1',(#335));
#328=PRODUCT('1428 3.200_PART2','1428 3.200_PART2','1428 3.200_PART2',(#336));
#329=PRODUCT('1428 3.200_PART3','1428 3.200_PART3','1428 3.200_PART3',(#337));
#330=PRODUCT_CATEGORY('','');
#331=PRODUCT_CATEGORY('','');
#332=PRODUCT_CATEGORY('','');
#333=PRODUCT_CATEGORY('','');
#334=PRODUCT_CONTEXT('',#339,'mechanical');
#335=PRODUCT_CONTEXT('',#339,'mechanical');
#336=PRODUCT_CONTEXT('',#339,'mechanical');
#337=PRODUCT_CONTEXT('',#339,'mechanical');
#338=APPLICATION_PROTOCOL_DEFINITION('international standard',
'automotive_design',2010,#339);
#339=APPLICATION_CONTEXT(
'core data for automotive mechanical design processes');
ENDSEC;
END-ISO-10303-21;
