ISO-10303-21;
HEADER;
/* Generated by software containing ST-Developer
 * from STEP Tools, Inc. (www.steptools.com) 
 */
/* OPTION: using custom renumber hook */

FILE_DESCRIPTION(
/* description */ ('STEP AP214'),
/* implementation_level */ '2;1');

FILE_NAME(
/* name */ '1430 8.000',
/* time_stamp */ '2026-05-15T11:00:24+02:00',
/* author */ ('License CC BY-ND 4.0'),
/* organization */ ('CADENAS'),
/* preprocessor_version */ 'ST-DEVELOPER v20',
/* originating_system */ 'PARTsolutions',
/* authorisation */ '  ');

FILE_SCHEMA (('AUTOMOTIVE_DESIGN {1 0 10303 214 3 1 1}'));
ENDSEC;

DATA;
#10=PROPERTY_DEFINITION_REPRESENTATION(#14,#12);
#11=PROPERTY_DEFINITION_REPRESENTATION(#15,#13);
#12=REPRESENTATION('',(#16),#332);
#13=REPRESENTATION('',(#17),#332);
#14=PROPERTY_DEFINITION('pmi validation property','',#343);
#15=PROPERTY_DEFINITION('pmi validation property','',#343);
#16=VALUE_REPRESENTATION_ITEM('number of annotations',COUNT_MEASURE(0.));
#17=VALUE_REPRESENTATION_ITEM('number of views',COUNT_MEASURE(0.));
#18=VERTEX_LOOP('',#90);
#19=CONTEXT_DEPENDENT_SHAPE_REPRESENTATION(#25,#345);
#20=CONTEXT_DEPENDENT_SHAPE_REPRESENTATION(#26,#347);
#21=CONTEXT_DEPENDENT_SHAPE_REPRESENTATION(#27,#349);
#22=NEXT_ASSEMBLY_USAGE_OCCURRENCE('NAUO1','1430 8.000_PART1',
'1430 8.000_PART1',#350,#351,'');
#23=NEXT_ASSEMBLY_USAGE_OCCURRENCE('NAUO2','1430 8.000_PART2',
'1430 8.000_PART2',#350,#352,'');
#24=NEXT_ASSEMBLY_USAGE_OCCURRENCE('NAUO3','1430 8.000_PART3',
'1430 8.000_PART3',#350,#353,'');
#25=(
REPRESENTATION_RELATIONSHIP(' ',' ',#200,#199)
REPRESENTATION_RELATIONSHIP_WITH_TRANSFORMATION(#28)
SHAPE_REPRESENTATION_RELATIONSHIP()
);
#26=(
REPRESENTATION_RELATIONSHIP(' ',' ',#201,#199)
REPRESENTATION_RELATIONSHIP_WITH_TRANSFORMATION(#29)
SHAPE_REPRESENTATION_RELATIONSHIP()
);
#27=(
REPRESENTATION_RELATIONSHIP(' ',' ',#202,#199)
REPRESENTATION_RELATIONSHIP_WITH_TRANSFORMATION(#30)
SHAPE_REPRESENTATION_RELATIONSHIP()
);
#28=ITEM_DEFINED_TRANSFORMATION(' ',' ',#203,#215);
#29=ITEM_DEFINED_TRANSFORMATION(' ',' ',#203,#225);
#30=ITEM_DEFINED_TRANSFORMATION(' ',' ',#203,#231);
#31=SHAPE_REPRESENTATION_RELATIONSHIP('','',#200,#34);
#32=SHAPE_REPRESENTATION_RELATIONSHIP('','',#201,#35);
#33=SHAPE_REPRESENTATION_RELATIONSHIP('','',#202,#36);
#34=ADVANCED_BREP_SHAPE_REPRESENTATION('',(#192),#333);
#35=ADVANCED_BREP_SHAPE_REPRESENTATION('',(#193),#334);
#36=ADVANCED_BREP_SHAPE_REPRESENTATION('',(#194),#335);
#37=CYLINDRICAL_SURFACE('',#209,3.15);
#38=CYLINDRICAL_SURFACE('',#214,4.);
#39=CYLINDRICAL_SURFACE('',#216,4.);
#40=CONICAL_SURFACE('',#206,3.15,1.04719755);
#41=CONICAL_SURFACE('',#211,4.,0.2617993875);
#42=CONICAL_SURFACE('',#222,3.9998254,0.0174532925);
#43=CONICAL_SURFACE('',#224,3.2927187,0.7853981625);
#44=CONICAL_SURFACE('',#228,3.2927187,0.7853981625);
#45=CONICAL_SURFACE('',#230,1.7320508,1.04719755);
#46=ORIENTED_EDGE('',*,*,#68,.F.);
#47=ORIENTED_EDGE('',*,*,#69,.F.);
#48=ORIENTED_EDGE('',*,*,#70,.F.);
#49=ORIENTED_EDGE('',*,*,#69,.T.);
#50=ORIENTED_EDGE('',*,*,#71,.T.);
#51=ORIENTED_EDGE('',*,*,#72,.T.);
#52=ORIENTED_EDGE('',*,*,#71,.F.);
#53=ORIENTED_EDGE('',*,*,#70,.T.);
#54=ORIENTED_EDGE('',*,*,#72,.F.);
#55=ORIENTED_EDGE('',*,*,#68,.T.);
#56=ORIENTED_EDGE('',*,*,#73,.F.);
#57=ORIENTED_EDGE('',*,*,#74,.T.);
#58=ORIENTED_EDGE('',*,*,#75,.F.);
#59=ORIENTED_EDGE('',*,*,#73,.T.);
#60=ORIENTED_EDGE('',*,*,#76,.T.);
#61=ORIENTED_EDGE('',*,*,#74,.F.);
#62=ORIENTED_EDGE('',*,*,#76,.F.);
#63=ORIENTED_EDGE('',*,*,#75,.T.);
#64=ORIENTED_EDGE('',*,*,#77,.T.);
#65=ORIENTED_EDGE('',*,*,#77,.F.);
#66=ORIENTED_EDGE('',*,*,#78,.T.);
#67=ORIENTED_EDGE('',*,*,#78,.F.);
#68=EDGE_CURVE('',#79,#79,#91,.T.);
#69=EDGE_CURVE('',#80,#80,#92,.T.);
#70=EDGE_CURVE('',#81,#81,#93,.T.);
#71=EDGE_CURVE('',#82,#82,#94,.T.);
#72=EDGE_CURVE('',#83,#83,#95,.T.);
#73=EDGE_CURVE('',#84,#84,#96,.T.);
#74=EDGE_CURVE('',#85,#85,#97,.T.);
#75=EDGE_CURVE('',#86,#86,#98,.T.);
#76=EDGE_CURVE('',#87,#87,#99,.T.);
#77=EDGE_CURVE('',#88,#88,#100,.T.);
#78=EDGE_CURVE('',#89,#89,#101,.T.);
#79=VERTEX_POINT('',#293);
#80=VERTEX_POINT('',#296);
#81=VERTEX_POINT('',#298);
#82=VERTEX_POINT('',#301);
#83=VERTEX_POINT('',#304);
#84=VERTEX_POINT('',#310);
#85=VERTEX_POINT('',#312);
#86=VERTEX_POINT('',#315);
#87=VERTEX_POINT('',#319);
#88=VERTEX_POINT('',#324);
#89=VERTEX_POINT('',#327);
#90=VERTEX_POINT('',#329);
#91=CIRCLE('',#205,4.);
#92=CIRCLE('',#207,3.15);
#93=CIRCLE('',#208,0.0005);
#94=CIRCLE('',#210,3.15);
#95=CIRCLE('',#212,4.);
#96=CIRCLE('',#217,4.);
#97=CIRCLE('',#218,4.);
#98=CIRCLE('',#220,3.3027187);
#99=CIRCLE('',#223,3.99982539858026);
#100=CIRCLE('',#227,3.3027187);
#101=CIRCLE('',#229,3.29271875971917);
#102=EDGE_LOOP('',(#46));
#103=EDGE_LOOP('',(#47));
#104=EDGE_LOOP('',(#48));
#105=EDGE_LOOP('',(#49));
#106=EDGE_LOOP('',(#50));
#107=EDGE_LOOP('',(#51));
#108=EDGE_LOOP('',(#52));
#109=EDGE_LOOP('',(#53));
#110=EDGE_LOOP('',(#54));
#111=EDGE_LOOP('',(#55));
#112=EDGE_LOOP('',(#56));
#113=EDGE_LOOP('',(#57));
#114=EDGE_LOOP('',(#58));
#115=EDGE_LOOP('',(#59));
#116=EDGE_LOOP('',(#60));
#117=EDGE_LOOP('',(#61));
#118=EDGE_LOOP('',(#62));
#119=EDGE_LOOP('',(#63));
#120=EDGE_LOOP('',(#64));
#121=EDGE_LOOP('',(#65));
#122=EDGE_LOOP('',(#66));
#123=EDGE_LOOP('',(#67));
#124=FACE_BOUND('',#102,.T.);
#125=FACE_BOUND('',#103,.T.);
#126=FACE_BOUND('',#104,.T.);
#127=FACE_BOUND('',#105,.T.);
#128=FACE_BOUND('',#106,.T.);
#129=FACE_BOUND('',#107,.T.);
#130=FACE_BOUND('',#108,.T.);
#131=FACE_BOUND('',#109,.T.);
#132=FACE_BOUND('',#110,.T.);
#133=FACE_BOUND('',#111,.T.);
#134=FACE_BOUND('',#112,.T.);
#135=FACE_BOUND('',#113,.T.);
#136=FACE_BOUND('',#114,.T.);
#137=FACE_BOUND('',#115,.T.);
#138=FACE_BOUND('',#116,.T.);
#139=FACE_BOUND('',#117,.T.);
#140=FACE_BOUND('',#118,.T.);
#141=FACE_BOUND('',#119,.T.);
#142=FACE_BOUND('',#120,.T.);
#143=FACE_BOUND('',#121,.T.);
#144=FACE_BOUND('',#122,.T.);
#145=FACE_BOUND('',#18,.T.);
#146=FACE_BOUND('',#123,.T.);
#147=PLANE('',#204);
#148=PLANE('',#213);
#149=PLANE('',#219);
#150=PLANE('',#221);
#151=PLANE('',#226);
#152=ADVANCED_FACE('',(#124),#147,.F.);
#153=ADVANCED_FACE('',(#125,#126),#40,.T.);
#154=ADVANCED_FACE('',(#127,#128),#37,.T.);
#155=ADVANCED_FACE('',(#129,#130),#41,.T.);
#156=ADVANCED_FACE('',(#131),#148,.T.);
#157=ADVANCED_FACE('',(#132,#133),#38,.T.);
#158=ADVANCED_FACE('',(#134,#135),#39,.T.);
#159=ADVANCED_FACE('',(#136),#149,.F.);
#160=ADVANCED_FACE('',(#137),#150,.T.);
#161=ADVANCED_FACE('',(#138,#139),#42,.T.);
#162=ADVANCED_FACE('',(#140,#141),#43,.T.);
#163=ADVANCED_FACE('',(#142),#151,.T.);
#164=ADVANCED_FACE('',(#143,#144),#44,.T.);
#165=ADVANCED_FACE('',(#145,#146),#45,.T.);
#166=CLOSED_SHELL('',(#152,#153,#154,#155,#156,#157));
#167=CLOSED_SHELL('',(#158,#159,#160,#161,#162));
#168=CLOSED_SHELL('',(#163,#164,#165));
#169=STYLED_ITEM('',(#172),#192);
#170=STYLED_ITEM('',(#173),#193);
#171=STYLED_ITEM('',(#174),#194);
#172=PRESENTATION_STYLE_ASSIGNMENT((#175));
#173=PRESENTATION_STYLE_ASSIGNMENT((#176));
#174=PRESENTATION_STYLE_ASSIGNMENT((#177));
#175=SURFACE_STYLE_USAGE(.BOTH.,#178);
#176=SURFACE_STYLE_USAGE(.BOTH.,#179);
#177=SURFACE_STYLE_USAGE(.BOTH.,#180);
#178=SURFACE_SIDE_STYLE('',(#181));
#179=SURFACE_SIDE_STYLE('',(#182));
#180=SURFACE_SIDE_STYLE('',(#183));
#181=SURFACE_STYLE_FILL_AREA(#184);
#182=SURFACE_STYLE_FILL_AREA(#185);
#183=SURFACE_STYLE_FILL_AREA(#186);
#184=FILL_AREA_STYLE('',(#187));
#185=FILL_AREA_STYLE('',(#188));
#186=FILL_AREA_STYLE('',(#189));
#187=FILL_AREA_STYLE_COLOUR('',#190);
#188=FILL_AREA_STYLE_COLOUR('',#191);
#189=FILL_AREA_STYLE_COLOUR('',#190);
#190=COLOUR_RGB('',0.4999923706,0.4999923706,0.4999923706);
#191=COLOUR_RGB('',0.8000000119,0.8000000119,0.8000000119);
#192=MANIFOLD_SOLID_BREP('1',#166);
#193=MANIFOLD_SOLID_BREP('1',#167);
#194=MANIFOLD_SOLID_BREP('1',#168);
#195=SHAPE_DEFINITION_REPRESENTATION(#343,#199);
#196=SHAPE_DEFINITION_REPRESENTATION(#344,#200);
#197=SHAPE_DEFINITION_REPRESENTATION(#346,#201);
#198=SHAPE_DEFINITION_REPRESENTATION(#348,#202);
#199=SHAPE_REPRESENTATION('1430 8.000',(#203,#215,#225,#231),#332);
#200=SHAPE_REPRESENTATION('1430 8.000_PART1',(#203),#333);
#201=SHAPE_REPRESENTATION('1430 8.000_PART2',(#203),#334);
#202=SHAPE_REPRESENTATION('1430 8.000_PART3',(#203),#335);
#203=AXIS2_PLACEMENT_3D('',#290,#232,#233);
#204=AXIS2_PLACEMENT_3D('',#291,#234,#235);
#205=AXIS2_PLACEMENT_3D('',#292,#236,#237);
#206=AXIS2_PLACEMENT_3D('',#294,#238,#239);
#207=AXIS2_PLACEMENT_3D('',#295,#240,#241);
#208=AXIS2_PLACEMENT_3D('',#297,#242,#243);
#209=AXIS2_PLACEMENT_3D('',#299,#244,#245);
#210=AXIS2_PLACEMENT_3D('',#300,#246,#247);
#211=AXIS2_PLACEMENT_3D('',#302,#248,#249);
#212=AXIS2_PLACEMENT_3D('',#303,#250,#251);
#213=AXIS2_PLACEMENT_3D('',#305,#252,#253);
#214=AXIS2_PLACEMENT_3D('',#306,#254,#255);
#215=AXIS2_PLACEMENT_3D('',#307,#256,#257);
#216=AXIS2_PLACEMENT_3D('',#308,#258,#259);
#217=AXIS2_PLACEMENT_3D('',#309,#260,#261);
#218=AXIS2_PLACEMENT_3D('',#311,#262,#263);
#219=AXIS2_PLACEMENT_3D('',#313,#264,#265);
#220=AXIS2_PLACEMENT_3D('',#314,#266,#267);
#221=AXIS2_PLACEMENT_3D('',#316,#268,#269);
#222=AXIS2_PLACEMENT_3D('',#317,#270,#271);
#223=AXIS2_PLACEMENT_3D('',#318,#272,#273);
#224=AXIS2_PLACEMENT_3D('',#320,#274,#275);
#225=AXIS2_PLACEMENT_3D('',#321,#276,#277);
#226=AXIS2_PLACEMENT_3D('',#322,#278,#279);
#227=AXIS2_PLACEMENT_3D('',#323,#280,#281);
#228=AXIS2_PLACEMENT_3D('',#325,#282,#283);
#229=AXIS2_PLACEMENT_3D('',#326,#284,#285);
#230=AXIS2_PLACEMENT_3D('',#328,#286,#287);
#231=AXIS2_PLACEMENT_3D('',#330,#288,#289);
#232=DIRECTION('',(0.,0.,1.));
#233=DIRECTION('',(1.,0.,0.));
#234=DIRECTION('',(0.,0.,1.));
#235=DIRECTION('',(1.,0.,0.));
#236=DIRECTION('',(0.,0.,1.));
#237=DIRECTION('',(1.,0.,0.));
#238=DIRECTION('',(-1.92447045707291E-17,0.,-1.));
#239=DIRECTION('',(-1.,0.,1.92447045707291E-17));
#240=DIRECTION('',(0.,0.,-1.));
#241=DIRECTION('',(1.,0.,0.));
#242=DIRECTION('',(0.,0.,1.));
#243=DIRECTION('',(1.,0.,0.));
#244=DIRECTION('',(0.,0.,-1.));
#245=DIRECTION('',(0.,1.,0.));
#246=DIRECTION('',(0.,2.06514699521049E-16,1.));
#247=DIRECTION('',(0.,-1.,2.06514699521049E-16));
#248=DIRECTION('',(0.,0.,-1.));
#249=DIRECTION('',(0.,-1.,0.));
#250=DIRECTION('',(0.,0.,1.));
#251=DIRECTION('',(0.,1.,0.));
#252=DIRECTION('',(0.,0.,1.));
#253=DIRECTION('',(1.,0.,0.));
#254=DIRECTION('',(0.,0.,-1.));
#255=DIRECTION('',(0.,1.,0.));
#256=DIRECTION('',(0.,0.,1.));
#257=DIRECTION('',(1.,0.,0.));
#258=DIRECTION('',(0.,0.,-1.));
#259=DIRECTION('',(0.,1.,0.));
#260=DIRECTION('',(0.,0.,1.));
#261=DIRECTION('',(1.,0.,0.));
#262=DIRECTION('',(0.,0.,1.));
#263=DIRECTION('',(1.,0.,0.));
#264=DIRECTION('',(0.,0.,1.));
#265=DIRECTION('',(1.,0.,0.));
#266=DIRECTION('',(0.,0.,1.));
#267=DIRECTION('',(1.,0.,0.));
#268=DIRECTION('',(0.,0.,1.));
#269=DIRECTION('',(1.,0.,0.));
#270=DIRECTION('',(0.,0.,1.));
#271=DIRECTION('',(0.,1.,0.));
#272=DIRECTION('',(0.,0.,1.));
#273=DIRECTION('',(1.,0.,0.));
#274=DIRECTION('',(0.,0.,1.));
#275=DIRECTION('',(0.,1.,0.));
#276=DIRECTION('',(0.,0.,1.));
#277=DIRECTION('',(1.,0.,0.));
#278=DIRECTION('',(0.,0.,1.));
#279=DIRECTION('',(1.,0.,0.));
#280=DIRECTION('',(0.,0.,1.));
#281=DIRECTION('',(1.,0.,0.));
#282=DIRECTION('',(0.,0.,1.));
#283=DIRECTION('',(0.,1.,0.));
#284=DIRECTION('',(0.,0.,1.));
#285=DIRECTION('',(1.,0.,0.));
#286=DIRECTION('',(0.,0.,1.));
#287=DIRECTION('',(0.,1.,0.));
#288=DIRECTION('',(0.,0.,1.));
#289=DIRECTION('',(1.,0.,0.));
#290=CARTESIAN_POINT('',(0.,0.,0.));
#291=CARTESIAN_POINT('',(2.13087730817561E-15,0.,-45.9996533479473));
#292=CARTESIAN_POINT('',(1.00021308773082E-11,-1.0010362363654E-11,-45.9996533479573));
#293=CARTESIAN_POINT('',(4.00000000001,-1.0010362363654E-11,-45.9996533479573));
#294=CARTESIAN_POINT('',(2.13087730817561E-15,0.,0.));
#295=CARTESIAN_POINT('',(1.00021308773082E-11,0.,0.));
#296=CARTESIAN_POINT('',(3.15000000001,0.,0.));
#297=CARTESIAN_POINT('',(1.00021308773082E-11,0.,1.81900000001));
#298=CARTESIAN_POINT('',(0.,0.,1.81900000001));
#299=CARTESIAN_POINT('',(2.13087730817561E-15,0.,1.819));
#300=CARTESIAN_POINT('',(2.13087730817561E-15,-9.19377768640434E-15,-42.6997568135665));
#301=CARTESIAN_POINT('',(2.13087730817561E-15,-3.15000000000001,-42.6997568135665));
#302=CARTESIAN_POINT('',(2.13087730817561E-15,-1.0334701009412E-14,-45.872));
#303=CARTESIAN_POINT('',(1.00021308773082E-11,-1.00103347010094E-11,-45.87200000001));
#304=CARTESIAN_POINT('',(1.00021308773082E-11,3.99999999998999,-45.87200000001));
#305=CARTESIAN_POINT('',(2.13087730817561E-15,0.,1.819));
#306=CARTESIAN_POINT('',(2.13087730817561E-15,0.,1.819));
#307=CARTESIAN_POINT('',(0.,0.,0.));
#308=CARTESIAN_POINT('',(2.13087730817561E-15,0.,1.819));
#309=CARTESIAN_POINT('',(1.00021308773082E-11,-1.0010362363654E-11,-45.9996533479573));
#310=CARTESIAN_POINT('',(4.00000000001,-1.0010362363654E-11,-45.9996533479573));
#311=CARTESIAN_POINT('',(2.13087730817561E-15,-1.56440647966686E-14,-70.362838382071));
#312=CARTESIAN_POINT('',(4.,-1.56440647966686E-14,-70.362838382071));
#313=CARTESIAN_POINT('',(2.13087730817561E-15,0.,-71.0699479905697));
#314=CARTESIAN_POINT('',(1.00028487477022E-11,-1.00157972957452E-11,-71.0699479905797));
#315=CARTESIAN_POINT('',(3.30271870001,-1.00157972957452E-11,-71.0699479905797));
#316=CARTESIAN_POINT('',(2.13087730817561E-15,0.,-45.9996533479473));
#317=CARTESIAN_POINT('',(2.13087730817561E-15,-1.56440647966686E-14,-70.3728412093832));
#318=CARTESIAN_POINT('',(2.13087730817561E-15,-1.57972957451765E-14,-70.3728412907203));
#319=CARTESIAN_POINT('',(3.99982539858026,-1.57972957451765E-14,-70.3728412907203));
#320=CARTESIAN_POINT('',(2.13087730817561E-15,-1.57972957451765E-14,-71.0799479905697));
#321=CARTESIAN_POINT('',(0.,0.,0.));
#322=CARTESIAN_POINT('',(2.13087730817561E-15,0.,-71.0699479905697));
#323=CARTESIAN_POINT('',(1.00028487477022E-11,-1.00157972957452E-11,-71.0699479905797));
#324=CARTESIAN_POINT('',(3.30271870001,-1.00157972957452E-11,-71.0699479905797));
#325=CARTESIAN_POINT('',(2.13087730817561E-15,-1.57972957451765E-14,-71.0799479905697));
#326=CARTESIAN_POINT('',(2.13087730817561E-15,-1.59925548739721E-14,-71.0799479308505));
#327=CARTESIAN_POINT('',(3.29271875971918,-1.59925548739721E-14,-71.0799479308505));
#328=CARTESIAN_POINT('',(2.13087730817561E-15,-1.59925548739721E-14,-71.981));
#329=CARTESIAN_POINT('',(2.13087730817561E-15,-1.60982338570648E-14,-72.981));
#330=CARTESIAN_POINT('',(0.,0.,0.));
#331=MECHANICAL_DESIGN_GEOMETRIC_PRESENTATION_REPRESENTATION('',(#169,#170,
#171),#332);
#332=(
GEOMETRIC_REPRESENTATION_CONTEXT(3)
GLOBAL_UNCERTAINTY_ASSIGNED_CONTEXT((#336))
GLOBAL_UNIT_ASSIGNED_CONTEXT((#342,#341,#340))
REPRESENTATION_CONTEXT('1430 8.000','TOP_LEVEL_ASSEMBLY_PART')
);
#333=(
GEOMETRIC_REPRESENTATION_CONTEXT(3)
GLOBAL_UNCERTAINTY_ASSIGNED_CONTEXT((#337))
GLOBAL_UNIT_ASSIGNED_CONTEXT((#342,#341,#340))
REPRESENTATION_CONTEXT('1430 8.000_PART1','COMPONENT_PART')
);
#334=(
GEOMETRIC_REPRESENTATION_CONTEXT(3)
GLOBAL_UNCERTAINTY_ASSIGNED_CONTEXT((#338))
GLOBAL_UNIT_ASSIGNED_CONTEXT((#342,#341,#340))
REPRESENTATION_CONTEXT('1430 8.000_PART2','COMPONENT_PART')
);
#335=(
GEOMETRIC_REPRESENTATION_CONTEXT(3)
GLOBAL_UNCERTAINTY_ASSIGNED_CONTEXT((#339))
GLOBAL_UNIT_ASSIGNED_CONTEXT((#342,#341,#340))
REPRESENTATION_CONTEXT('1430 8.000_PART3','COMPONENT_PART')
);
#336=UNCERTAINTY_MEASURE_WITH_UNIT(LENGTH_MEASURE(1.E-5),#342,
'DISTANCE_ACCURACY_VALUE','Maximum Tolerance applied to model');
#337=UNCERTAINTY_MEASURE_WITH_UNIT(LENGTH_MEASURE(1.E-5),#342,
'DISTANCE_ACCURACY_VALUE','Maximum Tolerance applied to model');
#338=UNCERTAINTY_MEASURE_WITH_UNIT(LENGTH_MEASURE(1.E-5),#342,
'DISTANCE_ACCURACY_VALUE','Maximum Tolerance applied to model');
#339=UNCERTAINTY_MEASURE_WITH_UNIT(LENGTH_MEASURE(1.E-5),#342,
'DISTANCE_ACCURACY_VALUE','Maximum Tolerance applied to model');
#340=(
NAMED_UNIT(*)
SI_UNIT($,.STERADIAN.)
SOLID_ANGLE_UNIT()
);
#341=(
NAMED_UNIT(*)
PLANE_ANGLE_UNIT()
SI_UNIT($,.RADIAN.)
);
#342=(
LENGTH_UNIT()
NAMED_UNIT(*)
SI_UNIT(.MILLI.,.METRE.)
);
#343=PRODUCT_DEFINITION_SHAPE('','',#350);
#344=PRODUCT_DEFINITION_SHAPE('','',#351);
#345=PRODUCT_DEFINITION_SHAPE(' ','NAUO PRDDFN',#22);
#346=PRODUCT_DEFINITION_SHAPE('','',#352);
#347=PRODUCT_DEFINITION_SHAPE(' ','NAUO PRDDFN',#23);
#348=PRODUCT_DEFINITION_SHAPE('','',#353);
#349=PRODUCT_DEFINITION_SHAPE(' ','NAUO PRDDFN',#24);
#350=PRODUCT_DEFINITION('','',#358,#354);
#351=PRODUCT_DEFINITION('','',#359,#355);
#352=PRODUCT_DEFINITION('','',#360,#356);
#353=PRODUCT_DEFINITION('','',#361,#357);
#354=PRODUCT_DEFINITION_CONTEXT('',#379,'design');
#355=PRODUCT_DEFINITION_CONTEXT('',#379,'design');
#356=PRODUCT_DEFINITION_CONTEXT('',#379,'design');
#357=PRODUCT_DEFINITION_CONTEXT('',#379,'design');
#358=PRODUCT_DEFINITION_FORMATION_WITH_SPECIFIED_SOURCE('','',#366,
 .NOT_KNOWN.);
#359=PRODUCT_DEFINITION_FORMATION_WITH_SPECIFIED_SOURCE('','',#367,
 .NOT_KNOWN.);
#360=PRODUCT_DEFINITION_FORMATION_WITH_SPECIFIED_SOURCE('','',#368,
 .NOT_KNOWN.);
#361=PRODUCT_DEFINITION_FORMATION_WITH_SPECIFIED_SOURCE('','',#369,
 .NOT_KNOWN.);
#362=PRODUCT_RELATED_PRODUCT_CATEGORY('','',(#366));
#363=PRODUCT_RELATED_PRODUCT_CATEGORY('','',(#367));
#364=PRODUCT_RELATED_PRODUCT_CATEGORY('','',(#368));
#365=PRODUCT_RELATED_PRODUCT_CATEGORY('','',(#369));
#366=PRODUCT('1430 8.000','1430 8.000','1430 8.000',(#374));
#367=PRODUCT('1430 8.000_PART1','1430 8.000_PART1','1430 8.000_PART1',(#375));
#368=PRODUCT('1430 8.000_PART2','1430 8.000_PART2','1430 8.000_PART2',(#376));
#369=PRODUCT('1430 8.000_PART3','1430 8.000_PART3','1430 8.000_PART3',(#377));
#370=PRODUCT_CATEGORY('','');
#371=PRODUCT_CATEGORY('','');
#372=PRODUCT_CATEGORY('','');
#373=PRODUCT_CATEGORY('','');
#374=PRODUCT_CONTEXT('',#379,'mechanical');
#375=PRODUCT_CONTEXT('',#379,'mechanical');
#376=PRODUCT_CONTEXT('',#379,'mechanical');
#377=PRODUCT_CONTEXT('',#379,'mechanical');
#378=APPLICATION_PROTOCOL_DEFINITION('international standard',
'automotive_design',2010,#379);
#379=APPLICATION_CONTEXT(
'core data for automotive mechanical design processes');
ENDSEC;
END-ISO-10303-21;
