ISO-10303-21;
HEADER;
/* Generated by software containing ST-Developer
 * from STEP Tools, Inc. (www.steptools.com) 
 */
/* OPTION: using custom renumber hook */

FILE_DESCRIPTION(
/* description */ ('STEP AP214'),
/* implementation_level */ '2;1');

FILE_NAME(
/* name */ '1575 5.000',
/* time_stamp */ '2026-05-14T15:26:47+02:00',
/* author */ ('License CC BY-ND 4.0'),
/* organization */ ('CADENAS'),
/* preprocessor_version */ 'ST-DEVELOPER v20',
/* originating_system */ 'PARTsolutions',
/* authorisation */ '  ');

FILE_SCHEMA (('AUTOMOTIVE_DESIGN {1 0 10303 214 3 1 1}'));
ENDSEC;

DATA;
#10=PROPERTY_DEFINITION_REPRESENTATION(#14,#12);
#11=PROPERTY_DEFINITION_REPRESENTATION(#15,#13);
#12=REPRESENTATION('',(#16),#461);
#13=REPRESENTATION('',(#17),#461);
#14=PROPERTY_DEFINITION('pmi validation property','',#472);
#15=PROPERTY_DEFINITION('pmi validation property','',#472);
#16=VALUE_REPRESENTATION_ITEM('number of annotations',COUNT_MEASURE(0.));
#17=VALUE_REPRESENTATION_ITEM('number of views',COUNT_MEASURE(0.));
#18=CONTEXT_DEPENDENT_SHAPE_REPRESENTATION(#24,#474);
#19=CONTEXT_DEPENDENT_SHAPE_REPRESENTATION(#25,#476);
#20=CONTEXT_DEPENDENT_SHAPE_REPRESENTATION(#26,#478);
#21=NEXT_ASSEMBLY_USAGE_OCCURRENCE('NAUO1','1575 5.000_PART1',
'1575 5.000_PART1',#479,#480,'');
#22=NEXT_ASSEMBLY_USAGE_OCCURRENCE('NAUO2','1575 5.000_PART2',
'1575 5.000_PART2',#479,#481,'');
#23=NEXT_ASSEMBLY_USAGE_OCCURRENCE('NAUO3','1575 5.000_PART3',
'1575 5.000_PART3',#479,#482,'');
#24=(
REPRESENTATION_RELATIONSHIP(' ',' ',#268,#267)
REPRESENTATION_RELATIONSHIP_WITH_TRANSFORMATION(#27)
SHAPE_REPRESENTATION_RELATIONSHIP()
);
#25=(
REPRESENTATION_RELATIONSHIP(' ',' ',#269,#267)
REPRESENTATION_RELATIONSHIP_WITH_TRANSFORMATION(#28)
SHAPE_REPRESENTATION_RELATIONSHIP()
);
#26=(
REPRESENTATION_RELATIONSHIP(' ',' ',#270,#267)
REPRESENTATION_RELATIONSHIP_WITH_TRANSFORMATION(#29)
SHAPE_REPRESENTATION_RELATIONSHIP()
);
#27=ITEM_DEFINED_TRANSFORMATION(' ',' ',#271,#292);
#28=ITEM_DEFINED_TRANSFORMATION(' ',' ',#271,#302);
#29=ITEM_DEFINED_TRANSFORMATION(' ',' ',#271,#312);
#30=SHAPE_REPRESENTATION_RELATIONSHIP('','',#268,#33);
#31=SHAPE_REPRESENTATION_RELATIONSHIP('','',#269,#34);
#32=SHAPE_REPRESENTATION_RELATIONSHIP('','',#270,#35);
#33=ADVANCED_BREP_SHAPE_REPRESENTATION('',(#260),#462);
#34=ADVANCED_BREP_SHAPE_REPRESENTATION('',(#261),#463);
#35=ADVANCED_BREP_SHAPE_REPRESENTATION('',(#262),#464);
#36=TOROIDAL_SURFACE('',#281,2.001,0.001);
#37=PLANE('',#277);
#38=PLANE('',#278);
#39=PLANE('',#298);
#40=PLANE('',#301);
#41=PLANE('',#306);
#42=PLANE('',#310);
#43=B_SPLINE_CURVE_WITH_KNOTS('',3,(#406,#407,#408,#409,#410),
 .UNSPECIFIED.,.T.,.F.,(1,1,1,1,1,1,1,1,1),(-1.5,-1.,-0.5,0.,0.5,1.,1.5,
2.,2.5),.UNSPECIFIED.);
#44=CONICAL_SURFACE('',#275,1.7,1.361356815);
#45=CONICAL_SURFACE('',#280,2.95,0.7853981625);
#46=CONICAL_SURFACE('',#284,2.000134,0.523598775);
#47=CONICAL_SURFACE('',#287,3.,0.13962634);
#48=CONICAL_SURFACE('',#291,3.,0.7853981625);
#49=CONICAL_SURFACE('',#296,2.000134,0.523598775);
#50=CONICAL_SURFACE('',#299,2.,0.177176528);
#51=CONICAL_SURFACE('',#308,0.0002,0.7853981625);
#52=CONICAL_SURFACE('',#311,2.,0.177176528);
#53=ORIENTED_EDGE('',*,*,#89,.T.);
#54=ORIENTED_EDGE('',*,*,#90,.F.);
#55=ORIENTED_EDGE('',*,*,#91,.T.);
#56=ORIENTED_EDGE('',*,*,#92,.T.);
#57=ORIENTED_EDGE('',*,*,#92,.F.);
#58=ORIENTED_EDGE('',*,*,#93,.T.);
#59=ORIENTED_EDGE('',*,*,#90,.T.);
#60=ORIENTED_EDGE('',*,*,#91,.F.);
#61=ORIENTED_EDGE('',*,*,#94,.T.);
#62=ORIENTED_EDGE('',*,*,#95,.F.);
#63=ORIENTED_EDGE('',*,*,#94,.F.);
#64=ORIENTED_EDGE('',*,*,#93,.F.);
#65=ORIENTED_EDGE('',*,*,#96,.F.);
#66=ORIENTED_EDGE('',*,*,#95,.T.);
#67=ORIENTED_EDGE('',*,*,#97,.F.);
#68=ORIENTED_EDGE('',*,*,#96,.T.);
#69=ORIENTED_EDGE('',*,*,#97,.T.);
#70=ORIENTED_EDGE('',*,*,#98,.F.);
#71=ORIENTED_EDGE('',*,*,#98,.T.);
#72=ORIENTED_EDGE('',*,*,#89,.F.);
#73=ORIENTED_EDGE('',*,*,#99,.F.);
#74=ORIENTED_EDGE('',*,*,#100,.T.);
#75=ORIENTED_EDGE('',*,*,#101,.T.);
#76=ORIENTED_EDGE('',*,*,#99,.T.);
#77=ORIENTED_EDGE('',*,*,#101,.F.);
#78=ORIENTED_EDGE('',*,*,#100,.F.);
#79=ORIENTED_EDGE('',*,*,#102,.T.);
#80=ORIENTED_EDGE('',*,*,#102,.F.);
#81=ORIENTED_EDGE('',*,*,#103,.F.);
#82=ORIENTED_EDGE('',*,*,#104,.F.);
#83=ORIENTED_EDGE('',*,*,#105,.T.);
#84=ORIENTED_EDGE('',*,*,#106,.F.);
#85=ORIENTED_EDGE('',*,*,#103,.T.);
#86=ORIENTED_EDGE('',*,*,#104,.T.);
#87=ORIENTED_EDGE('',*,*,#105,.F.);
#88=ORIENTED_EDGE('',*,*,#106,.T.);
#89=EDGE_CURVE('',#107,#107,#123,.T.);
#90=EDGE_CURVE('',#108,#108,#124,.T.);
#91=EDGE_CURVE('',#109,#109,#125,.T.);
#92=EDGE_CURVE('',#110,#110,#43,.F.);
#93=EDGE_CURVE('',#111,#111,#126,.T.);
#94=EDGE_CURVE('',#112,#112,#127,.T.);
#95=EDGE_CURVE('',#112,#112,#128,.T.);
#96=EDGE_CURVE('',#113,#113,#129,.T.);
#97=EDGE_CURVE('',#114,#114,#130,.T.);
#98=EDGE_CURVE('',#115,#115,#131,.T.);
#99=EDGE_CURVE('',#116,#116,#132,.T.);
#100=EDGE_CURVE('',#117,#117,#133,.T.);
#101=EDGE_CURVE('',#118,#118,#134,.T.);
#102=EDGE_CURVE('',#119,#119,#135,.T.);
#103=EDGE_CURVE('',#120,#120,#136,.T.);
#104=EDGE_CURVE('',#120,#120,#137,.T.);
#105=EDGE_CURVE('',#121,#121,#138,.T.);
#106=EDGE_CURVE('',#122,#122,#139,.T.);
#107=VERTEX_POINT('',#400);
#108=VERTEX_POINT('',#402);
#109=VERTEX_POINT('',#405);
#110=VERTEX_POINT('',#411);
#111=VERTEX_POINT('',#415);
#112=VERTEX_POINT('',#419);
#113=VERTEX_POINT('',#424);
#114=VERTEX_POINT('',#427);
#115=VERTEX_POINT('',#430);
#116=VERTEX_POINT('',#435);
#117=VERTEX_POINT('',#437);
#118=VERTEX_POINT('',#440);
#119=VERTEX_POINT('',#444);
#120=VERTEX_POINT('',#449);
#121=VERTEX_POINT('',#453);
#122=VERTEX_POINT('',#456);
#123=CIRCLE('',#273,2.95);
#124=CIRCLE('',#274,2.95);
#125=CIRCLE('',#276,1.7);
#126=CIRCLE('',#279,2.244476);
#127=CIRCLE('',#282,2.000134);
#128=CIRCLE('',#283,2.);
#129=CIRCLE('',#286,2.);
#130=CIRCLE('',#288,3.);
#131=CIRCLE('',#290,3.);
#132=CIRCLE('',#294,2.53);
#133=CIRCLE('',#295,2.53);
#134=CIRCLE('',#297,2.244476);
#135=CIRCLE('',#300,2.01367592380274);
#136=CIRCLE('',#304,0.001);
#137=CIRCLE('',#305,0.001);
#138=CIRCLE('',#307,2.01367592380274);
#139=CIRCLE('',#309,2.00000000078288);
#140=EDGE_LOOP('',(#53));
#141=EDGE_LOOP('',(#54));
#142=EDGE_LOOP('',(#55));
#143=EDGE_LOOP('',(#56));
#144=EDGE_LOOP('',(#57));
#145=EDGE_LOOP('',(#58));
#146=EDGE_LOOP('',(#59));
#147=EDGE_LOOP('',(#60));
#148=EDGE_LOOP('',(#61,#62));
#149=EDGE_LOOP('',(#63));
#150=EDGE_LOOP('',(#64));
#151=EDGE_LOOP('',(#65));
#152=EDGE_LOOP('',(#66));
#153=EDGE_LOOP('',(#67));
#154=EDGE_LOOP('',(#68));
#155=EDGE_LOOP('',(#69));
#156=EDGE_LOOP('',(#70));
#157=EDGE_LOOP('',(#71));
#158=EDGE_LOOP('',(#72));
#159=EDGE_LOOP('',(#73));
#160=EDGE_LOOP('',(#74));
#161=EDGE_LOOP('',(#75));
#162=EDGE_LOOP('',(#76));
#163=EDGE_LOOP('',(#77));
#164=EDGE_LOOP('',(#78));
#165=EDGE_LOOP('',(#79));
#166=EDGE_LOOP('',(#80));
#167=EDGE_LOOP('',(#81,#82));
#168=EDGE_LOOP('',(#83));
#169=EDGE_LOOP('',(#84));
#170=EDGE_LOOP('',(#85));
#171=EDGE_LOOP('',(#86));
#172=EDGE_LOOP('',(#87));
#173=EDGE_LOOP('',(#88));
#174=FACE_BOUND('',#140,.T.);
#175=FACE_BOUND('',#141,.T.);
#176=FACE_BOUND('',#142,.T.);
#177=FACE_BOUND('',#143,.T.);
#178=FACE_BOUND('',#144,.T.);
#179=FACE_BOUND('',#145,.T.);
#180=FACE_BOUND('',#146,.T.);
#181=FACE_BOUND('',#147,.T.);
#182=FACE_BOUND('',#148,.T.);
#183=FACE_BOUND('',#149,.T.);
#184=FACE_BOUND('',#150,.T.);
#185=FACE_BOUND('',#151,.T.);
#186=FACE_BOUND('',#152,.T.);
#187=FACE_BOUND('',#153,.T.);
#188=FACE_BOUND('',#154,.T.);
#189=FACE_BOUND('',#155,.T.);
#190=FACE_BOUND('',#156,.T.);
#191=FACE_BOUND('',#157,.T.);
#192=FACE_BOUND('',#158,.T.);
#193=FACE_BOUND('',#159,.T.);
#194=FACE_BOUND('',#160,.T.);
#195=FACE_BOUND('',#161,.T.);
#196=FACE_BOUND('',#162,.T.);
#197=FACE_BOUND('',#163,.T.);
#198=FACE_BOUND('',#164,.T.);
#199=FACE_BOUND('',#165,.T.);
#200=FACE_BOUND('',#166,.T.);
#201=FACE_BOUND('',#167,.T.);
#202=FACE_BOUND('',#168,.T.);
#203=FACE_BOUND('',#169,.T.);
#204=FACE_BOUND('',#170,.T.);
#205=FACE_BOUND('',#171,.T.);
#206=FACE_BOUND('',#172,.T.);
#207=FACE_BOUND('',#173,.T.);
#208=CYLINDRICAL_SURFACE('',#272,2.95);
#209=CYLINDRICAL_SURFACE('',#285,2.);
#210=CYLINDRICAL_SURFACE('',#289,3.);
#211=CYLINDRICAL_SURFACE('',#293,2.53);
#212=CYLINDRICAL_SURFACE('',#303,0.001);
#213=ADVANCED_FACE('',(#174,#175),#208,.T.);
#214=ADVANCED_FACE('',(#176,#177),#44,.T.);
#215=ADVANCED_FACE('',(#178),#37,.T.);
#216=ADVANCED_FACE('',(#179),#38,.F.);
#217=ADVANCED_FACE('',(#180,#181),#45,.T.);
#218=ADVANCED_FACE('',(#182),#36,.F.);
#219=ADVANCED_FACE('',(#183,#184),#46,.T.);
#220=ADVANCED_FACE('',(#185,#186),#209,.T.);
#221=ADVANCED_FACE('',(#187,#188),#47,.T.);
#222=ADVANCED_FACE('',(#189,#190),#210,.T.);
#223=ADVANCED_FACE('',(#191,#192),#48,.T.);
#224=ADVANCED_FACE('',(#193,#194),#211,.T.);
#225=ADVANCED_FACE('',(#195,#196),#49,.T.);
#226=ADVANCED_FACE('',(#197),#39,.T.);
#227=ADVANCED_FACE('',(#198,#199),#50,.T.);
#228=ADVANCED_FACE('',(#200),#40,.F.);
#229=ADVANCED_FACE('',(#201),#212,.T.);
#230=ADVANCED_FACE('',(#202),#41,.T.);
#231=ADVANCED_FACE('',(#203,#204),#51,.T.);
#232=ADVANCED_FACE('',(#205),#42,.F.);
#233=ADVANCED_FACE('',(#206,#207),#52,.T.);
#234=CLOSED_SHELL('',(#213,#214,#215,#216,#217,#218,#219,#220,#221,#222,
#223));
#235=CLOSED_SHELL('',(#224,#225,#226,#227,#228));
#236=CLOSED_SHELL('',(#229,#230,#231,#232,#233));
#237=STYLED_ITEM('',(#240),#260);
#238=STYLED_ITEM('',(#241),#261);
#239=STYLED_ITEM('',(#242),#262);
#240=PRESENTATION_STYLE_ASSIGNMENT((#243));
#241=PRESENTATION_STYLE_ASSIGNMENT((#244));
#242=PRESENTATION_STYLE_ASSIGNMENT((#245));
#243=SURFACE_STYLE_USAGE(.BOTH.,#246);
#244=SURFACE_STYLE_USAGE(.BOTH.,#247);
#245=SURFACE_STYLE_USAGE(.BOTH.,#248);
#246=SURFACE_SIDE_STYLE('',(#249));
#247=SURFACE_SIDE_STYLE('',(#250));
#248=SURFACE_SIDE_STYLE('',(#251));
#249=SURFACE_STYLE_FILL_AREA(#252);
#250=SURFACE_STYLE_FILL_AREA(#253);
#251=SURFACE_STYLE_FILL_AREA(#254);
#252=FILL_AREA_STYLE('',(#255));
#253=FILL_AREA_STYLE('',(#256));
#254=FILL_AREA_STYLE('',(#257));
#255=FILL_AREA_STYLE_COLOUR('',#258);
#256=FILL_AREA_STYLE_COLOUR('',#259);
#257=FILL_AREA_STYLE_COLOUR('',#258);
#258=COLOUR_RGB('',0.4999923706,0.4999923706,0.4999923706);
#259=COLOUR_RGB('',0.8000000119,0.8000000119,0.8000000119);
#260=MANIFOLD_SOLID_BREP('1',#234);
#261=MANIFOLD_SOLID_BREP('1',#235);
#262=MANIFOLD_SOLID_BREP('1',#236);
#263=SHAPE_DEFINITION_REPRESENTATION(#472,#267);
#264=SHAPE_DEFINITION_REPRESENTATION(#473,#268);
#265=SHAPE_DEFINITION_REPRESENTATION(#475,#269);
#266=SHAPE_DEFINITION_REPRESENTATION(#477,#270);
#267=SHAPE_REPRESENTATION('1575 5.000',(#271,#292,#302,#312),#461);
#268=SHAPE_REPRESENTATION('1575 5.000_PART1',(#271),#462);
#269=SHAPE_REPRESENTATION('1575 5.000_PART2',(#271),#463);
#270=SHAPE_REPRESENTATION('1575 5.000_PART3',(#271),#464);
#271=AXIS2_PLACEMENT_3D('',#397,#313,#314);
#272=AXIS2_PLACEMENT_3D('',#398,#315,#316);
#273=AXIS2_PLACEMENT_3D('',#399,#317,#318);
#274=AXIS2_PLACEMENT_3D('',#401,#319,#320);
#275=AXIS2_PLACEMENT_3D('',#403,#321,#322);
#276=AXIS2_PLACEMENT_3D('',#404,#323,#324);
#277=AXIS2_PLACEMENT_3D('',#412,#325,#326);
#278=AXIS2_PLACEMENT_3D('',#413,#327,#328);
#279=AXIS2_PLACEMENT_3D('',#414,#329,#330);
#280=AXIS2_PLACEMENT_3D('',#416,#331,#332);
#281=AXIS2_PLACEMENT_3D('',#417,#333,#334);
#282=AXIS2_PLACEMENT_3D('',#418,#335,#336);
#283=AXIS2_PLACEMENT_3D('',#420,#337,#338);
#284=AXIS2_PLACEMENT_3D('',#421,#339,#340);
#285=AXIS2_PLACEMENT_3D('',#422,#341,#342);
#286=AXIS2_PLACEMENT_3D('',#423,#343,#344);
#287=AXIS2_PLACEMENT_3D('',#425,#345,#346);
#288=AXIS2_PLACEMENT_3D('',#426,#347,#348);
#289=AXIS2_PLACEMENT_3D('',#428,#349,#350);
#290=AXIS2_PLACEMENT_3D('',#429,#351,#352);
#291=AXIS2_PLACEMENT_3D('',#431,#353,#354);
#292=AXIS2_PLACEMENT_3D('',#432,#355,#356);
#293=AXIS2_PLACEMENT_3D('',#433,#357,#358);
#294=AXIS2_PLACEMENT_3D('',#434,#359,#360);
#295=AXIS2_PLACEMENT_3D('',#436,#361,#362);
#296=AXIS2_PLACEMENT_3D('',#438,#363,#364);
#297=AXIS2_PLACEMENT_3D('',#439,#365,#366);
#298=AXIS2_PLACEMENT_3D('',#441,#367,#368);
#299=AXIS2_PLACEMENT_3D('',#442,#369,#370);
#300=AXIS2_PLACEMENT_3D('',#443,#371,#372);
#301=AXIS2_PLACEMENT_3D('',#445,#373,#374);
#302=AXIS2_PLACEMENT_3D('',#446,#375,#376);
#303=AXIS2_PLACEMENT_3D('',#447,#377,#378);
#304=AXIS2_PLACEMENT_3D('',#448,#379,#380);
#305=AXIS2_PLACEMENT_3D('',#450,#381,#382);
#306=AXIS2_PLACEMENT_3D('',#451,#383,#384);
#307=AXIS2_PLACEMENT_3D('',#452,#385,#386);
#308=AXIS2_PLACEMENT_3D('',#454,#387,#388);
#309=AXIS2_PLACEMENT_3D('',#455,#389,#390);
#310=AXIS2_PLACEMENT_3D('',#457,#391,#392);
#311=AXIS2_PLACEMENT_3D('',#458,#393,#394);
#312=AXIS2_PLACEMENT_3D('',#459,#395,#396);
#313=DIRECTION('',(0.,0.,1.));
#314=DIRECTION('',(1.,0.,0.));
#315=DIRECTION('',(0.,0.,-1.));
#316=DIRECTION('',(1.,0.,0.));
#317=DIRECTION('',(0.,0.,1.));
#318=DIRECTION('',(1.,0.,0.));
#319=DIRECTION('',(0.,0.,1.));
#320=DIRECTION('',(1.,0.,0.));
#321=DIRECTION('',(7.37187335194832E-19,0.,-1.));
#322=DIRECTION('',(-1.,0.,-7.37187335194832E-19));
#323=DIRECTION('',(0.,0.,1.));
#324=DIRECTION('',(1.,0.,0.));
#325=DIRECTION('',(0.,0.,1.));
#326=DIRECTION('',(1.,0.,0.));
#327=DIRECTION('',(0.,0.,1.));
#328=DIRECTION('',(1.,0.,0.));
#329=DIRECTION('',(0.,0.,-1.));
#330=DIRECTION('',(1.,0.,0.));
#331=DIRECTION('',(-1.88096293945339E-17,0.,-1.));
#332=DIRECTION('',(-1.,0.,1.88096293945339E-17));
#333=DIRECTION('',(0.,0.,1.));
#334=DIRECTION('',(1.,0.,0.));
#335=DIRECTION('',(0.,0.,1.));
#336=DIRECTION('',(1.,0.,0.));
#337=DIRECTION('',(0.,0.,1.));
#338=DIRECTION('',(1.,0.,0.));
#339=DIRECTION('',(3.5931073143348E-17,0.,-1.));
#340=DIRECTION('',(-1.,0.,-3.5931073143348E-17));
#341=DIRECTION('',(0.,0.,-1.));
#342=DIRECTION('',(1.,0.,0.));
#343=DIRECTION('',(0.,0.,1.));
#344=DIRECTION('',(1.,0.,0.));
#345=DIRECTION('',(0.,0.,1.));
#346=DIRECTION('',(1.,0.,0.));
#347=DIRECTION('',(0.,0.,1.));
#348=DIRECTION('',(1.,0.,0.));
#349=DIRECTION('',(0.,0.,-1.));
#350=DIRECTION('',(1.,0.,0.));
#351=DIRECTION('',(0.,0.,1.));
#352=DIRECTION('',(1.,0.,0.));
#353=DIRECTION('',(0.,0.,-1.));
#354=DIRECTION('',(-1.,0.,0.));
#355=DIRECTION('',(0.,0.,1.));
#356=DIRECTION('',(1.,0.,0.));
#357=DIRECTION('',(0.,0.,-1.));
#358=DIRECTION('',(1.,0.,0.));
#359=DIRECTION('',(0.,0.,1.));
#360=DIRECTION('',(1.,0.,0.));
#361=DIRECTION('',(0.,0.,1.));
#362=DIRECTION('',(1.,0.,0.));
#363=DIRECTION('',(3.5931073143348E-17,0.,-1.));
#364=DIRECTION('',(-1.,0.,-3.5931073143348E-17));
#365=DIRECTION('',(0.,0.,-1.));
#366=DIRECTION('',(1.,0.,0.));
#367=DIRECTION('',(0.,0.,1.));
#368=DIRECTION('',(1.,0.,0.));
#369=DIRECTION('',(0.,0.,1.));
#370=DIRECTION('',(1.,0.,0.));
#371=DIRECTION('',(0.,0.,1.));
#372=DIRECTION('',(1.,0.,0.));
#373=DIRECTION('',(0.,0.,1.));
#374=DIRECTION('',(1.,0.,0.));
#375=DIRECTION('',(0.,0.,1.));
#376=DIRECTION('',(1.,0.,0.));
#377=DIRECTION('',(0.,0.,1.));
#378=DIRECTION('',(-1.,0.,0.));
#379=DIRECTION('',(0.,0.,1.));
#380=DIRECTION('',(1.,0.,0.));
#381=DIRECTION('',(0.,0.,-1.));
#382=DIRECTION('',(1.,0.,0.));
#383=DIRECTION('',(0.,0.,1.));
#384=DIRECTION('',(1.,0.,0.));
#385=DIRECTION('',(0.,0.,1.));
#386=DIRECTION('',(1.,0.,0.));
#387=DIRECTION('',(5.551114012903E-17,0.,1.));
#388=DIRECTION('',(1.,0.,-5.551114012903E-17));
#389=DIRECTION('',(0.,0.,1.));
#390=DIRECTION('',(1.,0.,0.));
#391=DIRECTION('',(0.,0.,1.));
#392=DIRECTION('',(1.,0.,0.));
#393=DIRECTION('',(0.,0.,1.));
#394=DIRECTION('',(1.,0.,0.));
#395=DIRECTION('',(0.,0.,1.));
#396=DIRECTION('',(1.,0.,0.));
#397=CARTESIAN_POINT('',(0.,0.,0.));
#398=CARTESIAN_POINT('',(-4.23246823223666E-16,0.,-72.4312787443439));
#399=CARTESIAN_POINT('',(-1.00004232468232E-11,0.,-10.36130000001));
#400=CARTESIAN_POINT('',(2.94999999999,0.,-10.36130000001));
#401=CARTESIAN_POINT('',(-1.00004232468232E-11,0.,-1.61130000001));
#402=CARTESIAN_POINT('',(2.94999999999,0.,-1.61130000001));
#403=CARTESIAN_POINT('',(-4.23246823223666E-16,0.,-0.361300000000005));
#404=CARTESIAN_POINT('',(-1.00004232468232E-11,0.,-0.36130000001));
#405=CARTESIAN_POINT('',(1.69999999999,0.,-0.36130000001));
#406=CARTESIAN_POINT('',(-0.000300000010000423,-1.22464679914735E-20,0.));
#407=CARTESIAN_POINT('',(0.000299999989999577,2.44929359829471E-20,0.));
#408=CARTESIAN_POINT('',(-0.000300000010000423,-1.22464679914735E-20,0.));
#409=CARTESIAN_POINT('',(0.000299999989999577,2.44929359829471E-20,0.));
#410=CARTESIAN_POINT('',(-0.000300000010000423,-1.22464679914735E-20,0.));
#411=CARTESIAN_POINT('',(4.99999949995766E-5,6.12323399573677E-21,2.30788014960728E-5));
#412=CARTESIAN_POINT('',(-4.23246823223666E-16,0.,0.));
#413=CARTESIAN_POINT('',(-4.23246823223666E-16,0.,-56.1777026143977));
#414=CARTESIAN_POINT('',(-1.00004232468232E-11,0.,-56.1777026144077));
#415=CARTESIAN_POINT('',(2.24447599999,0.,-56.1777026144077));
#416=CARTESIAN_POINT('',(-4.23246823223666E-16,0.,-1.6113));
#417=CARTESIAN_POINT('',(-4.23246823223666E-16,0.,-55.7539898925437));
#418=CARTESIAN_POINT('',(-1.00004232468232E-11,0.,-55.7544898925537));
#419=CARTESIAN_POINT('',(2.00006699999,0.,-55.7542398925537));
#420=CARTESIAN_POINT('',(-1.00004232468232E-11,0.,-55.7539898925537));
#421=CARTESIAN_POINT('',(-4.23246823223666E-16,0.,-55.7544898925437));
#422=CARTESIAN_POINT('',(-4.23246823223666E-16,0.,-72.4312787443439));
#423=CARTESIAN_POINT('',(-4.23246823223666E-16,0.,-45.6719899007809));
#424=CARTESIAN_POINT('',(2.,0.,-45.6719899007809));
#425=CARTESIAN_POINT('',(-4.23246823223666E-16,0.,-38.5566201701596));
#426=CARTESIAN_POINT('',(-1.00004232468232E-11,0.,-38.5566201701696));
#427=CARTESIAN_POINT('',(2.99999999999,0.,-38.5566201701696));
#428=CARTESIAN_POINT('',(-4.23246823223666E-16,0.,-72.4312787443439));
#429=CARTESIAN_POINT('',(-1.00004232468232E-11,0.,-10.41130000001));
#430=CARTESIAN_POINT('',(2.99999999999,0.,-10.41130000001));
#431=CARTESIAN_POINT('',(-4.23246823223666E-16,0.,-10.4113));
#432=CARTESIAN_POINT('',(0.,0.,0.));
#433=CARTESIAN_POINT('',(-4.23246823223666E-16,0.,-72.4312787443439));
#434=CARTESIAN_POINT('',(-1.00004232468232E-11,0.,-56.6722447697576));
#435=CARTESIAN_POINT('',(2.52999999999,0.,-56.6722447697576));
#436=CARTESIAN_POINT('',(-1.00004232468232E-11,0.,-67.4713787443539));
#437=CARTESIAN_POINT('',(2.52999999999,0.,-67.4713787443539));
#438=CARTESIAN_POINT('',(-4.23246823223666E-16,0.,-55.7544898925437));
#439=CARTESIAN_POINT('',(-1.00004232468232E-11,0.,-56.1777026144077));
#440=CARTESIAN_POINT('',(2.24447599999,0.,-56.1777026144077));
#441=CARTESIAN_POINT('',(-4.23246823223666E-16,0.,-56.1777026143977));
#442=CARTESIAN_POINT('',(-4.23246823223666E-16,0.,-70.4313787443439));
#443=CARTESIAN_POINT('',(-4.23246823223666E-16,0.,-70.355));
#444=CARTESIAN_POINT('',(2.01367592380274,0.,-70.355));
#445=CARTESIAN_POINT('',(-4.23246823223666E-16,0.,-70.355));
#446=CARTESIAN_POINT('',(0.,0.,0.));
#447=CARTESIAN_POINT('',(-4.23246823223666E-16,0.,-72.4312787443439));
#448=CARTESIAN_POINT('',(-1.00004232468232E-11,0.,-72.4303787443539));
#449=CARTESIAN_POINT('',(-0.000500000005002158,6.12323412621587E-28,-72.4308787443491));
#450=CARTESIAN_POINT('',(-1.00004232468232E-11,0.,-72.4312787443539));
#451=CARTESIAN_POINT('',(-4.23246823223666E-16,0.,-70.355));
#452=CARTESIAN_POINT('',(-4.23246823223666E-16,0.,-70.355));
#453=CARTESIAN_POINT('',(2.01367592380274,0.,-70.355));
#454=CARTESIAN_POINT('',(-4.23246823223666E-16,0.,-72.4311787443439));
#455=CARTESIAN_POINT('',(-3.1223564495092E-16,0.,-70.4313787399716));
#456=CARTESIAN_POINT('',(2.00000000078288,0.,-70.4313787399716));
#457=CARTESIAN_POINT('',(-4.23246823223666E-16,2.26,-72.4312787443439));
#458=CARTESIAN_POINT('',(-4.23246823223666E-16,0.,-70.4313787443439));
#459=CARTESIAN_POINT('',(0.,0.,0.));
#460=MECHANICAL_DESIGN_GEOMETRIC_PRESENTATION_REPRESENTATION('',(#237,#238,
#239),#461);
#461=(
GEOMETRIC_REPRESENTATION_CONTEXT(3)
GLOBAL_UNCERTAINTY_ASSIGNED_CONTEXT((#465))
GLOBAL_UNIT_ASSIGNED_CONTEXT((#471,#470,#469))
REPRESENTATION_CONTEXT('1575 5.000','TOP_LEVEL_ASSEMBLY_PART')
);
#462=(
GEOMETRIC_REPRESENTATION_CONTEXT(3)
GLOBAL_UNCERTAINTY_ASSIGNED_CONTEXT((#466))
GLOBAL_UNIT_ASSIGNED_CONTEXT((#471,#470,#469))
REPRESENTATION_CONTEXT('1575 5.000_PART1','COMPONENT_PART')
);
#463=(
GEOMETRIC_REPRESENTATION_CONTEXT(3)
GLOBAL_UNCERTAINTY_ASSIGNED_CONTEXT((#467))
GLOBAL_UNIT_ASSIGNED_CONTEXT((#471,#470,#469))
REPRESENTATION_CONTEXT('1575 5.000_PART2','COMPONENT_PART')
);
#464=(
GEOMETRIC_REPRESENTATION_CONTEXT(3)
GLOBAL_UNCERTAINTY_ASSIGNED_CONTEXT((#468))
GLOBAL_UNIT_ASSIGNED_CONTEXT((#471,#470,#469))
REPRESENTATION_CONTEXT('1575 5.000_PART3','COMPONENT_PART')
);
#465=UNCERTAINTY_MEASURE_WITH_UNIT(LENGTH_MEASURE(1.E-5),#471,
'DISTANCE_ACCURACY_VALUE','Maximum Tolerance applied to model');
#466=UNCERTAINTY_MEASURE_WITH_UNIT(LENGTH_MEASURE(1.E-5),#471,
'DISTANCE_ACCURACY_VALUE','Maximum Tolerance applied to model');
#467=UNCERTAINTY_MEASURE_WITH_UNIT(LENGTH_MEASURE(1.E-5),#471,
'DISTANCE_ACCURACY_VALUE','Maximum Tolerance applied to model');
#468=UNCERTAINTY_MEASURE_WITH_UNIT(LENGTH_MEASURE(1.E-5),#471,
'DISTANCE_ACCURACY_VALUE','Maximum Tolerance applied to model');
#469=(
NAMED_UNIT(*)
SI_UNIT($,.STERADIAN.)
SOLID_ANGLE_UNIT()
);
#470=(
NAMED_UNIT(*)
PLANE_ANGLE_UNIT()
SI_UNIT($,.RADIAN.)
);
#471=(
LENGTH_UNIT()
NAMED_UNIT(*)
SI_UNIT(.MILLI.,.METRE.)
);
#472=PRODUCT_DEFINITION_SHAPE('','',#479);
#473=PRODUCT_DEFINITION_SHAPE('','',#480);
#474=PRODUCT_DEFINITION_SHAPE(' ','NAUO PRDDFN',#21);
#475=PRODUCT_DEFINITION_SHAPE('','',#481);
#476=PRODUCT_DEFINITION_SHAPE(' ','NAUO PRDDFN',#22);
#477=PRODUCT_DEFINITION_SHAPE('','',#482);
#478=PRODUCT_DEFINITION_SHAPE(' ','NAUO PRDDFN',#23);
#479=PRODUCT_DEFINITION('','',#487,#483);
#480=PRODUCT_DEFINITION('','',#488,#484);
#481=PRODUCT_DEFINITION('','',#489,#485);
#482=PRODUCT_DEFINITION('','',#490,#486);
#483=PRODUCT_DEFINITION_CONTEXT('',#508,'design');
#484=PRODUCT_DEFINITION_CONTEXT('',#508,'design');
#485=PRODUCT_DEFINITION_CONTEXT('',#508,'design');
#486=PRODUCT_DEFINITION_CONTEXT('',#508,'design');
#487=PRODUCT_DEFINITION_FORMATION_WITH_SPECIFIED_SOURCE('','',#495,
 .NOT_KNOWN.);
#488=PRODUCT_DEFINITION_FORMATION_WITH_SPECIFIED_SOURCE('','',#496,
 .NOT_KNOWN.);
#489=PRODUCT_DEFINITION_FORMATION_WITH_SPECIFIED_SOURCE('','',#497,
 .NOT_KNOWN.);
#490=PRODUCT_DEFINITION_FORMATION_WITH_SPECIFIED_SOURCE('','',#498,
 .NOT_KNOWN.);
#491=PRODUCT_RELATED_PRODUCT_CATEGORY('','',(#495));
#492=PRODUCT_RELATED_PRODUCT_CATEGORY('','',(#496));
#493=PRODUCT_RELATED_PRODUCT_CATEGORY('','',(#497));
#494=PRODUCT_RELATED_PRODUCT_CATEGORY('','',(#498));
#495=PRODUCT('1575 5.000','1575 5.000','1575 5.000',(#503));
#496=PRODUCT('1575 5.000_PART1','1575 5.000_PART1','1575 5.000_PART1',(#504));
#497=PRODUCT('1575 5.000_PART2','1575 5.000_PART2','1575 5.000_PART2',(#505));
#498=PRODUCT('1575 5.000_PART3','1575 5.000_PART3','1575 5.000_PART3',(#506));
#499=PRODUCT_CATEGORY('','');
#500=PRODUCT_CATEGORY('','');
#501=PRODUCT_CATEGORY('','');
#502=PRODUCT_CATEGORY('','');
#503=PRODUCT_CONTEXT('',#508,'mechanical');
#504=PRODUCT_CONTEXT('',#508,'mechanical');
#505=PRODUCT_CONTEXT('',#508,'mechanical');
#506=PRODUCT_CONTEXT('',#508,'mechanical');
#507=APPLICATION_PROTOCOL_DEFINITION('international standard',
'automotive_design',2010,#508);
#508=APPLICATION_CONTEXT(
'core data for automotive mechanical design processes');
ENDSEC;
END-ISO-10303-21;
