ISO-10303-21;
HEADER;
/* Generated by software containing ST-Developer
 * from STEP Tools, Inc. (www.steptools.com) 
 */
/* OPTION: using custom renumber hook */

FILE_DESCRIPTION(
/* description */ ('STEP AP214'),
/* implementation_level */ '2;1');

FILE_NAME(
/* name */ '1576 16.000',
/* time_stamp */ '2026-05-14T15:27:12+02:00',
/* author */ ('License CC BY-ND 4.0'),
/* organization */ ('CADENAS'),
/* preprocessor_version */ 'ST-DEVELOPER v20',
/* originating_system */ 'PARTsolutions',
/* authorisation */ '  ');

FILE_SCHEMA (('AUTOMOTIVE_DESIGN {1 0 10303 214 3 1 1}'));
ENDSEC;

DATA;
#10=PROPERTY_DEFINITION_REPRESENTATION(#14,#12);
#11=PROPERTY_DEFINITION_REPRESENTATION(#15,#13);
#12=REPRESENTATION('',(#16),#428);
#13=REPRESENTATION('',(#17),#428);
#14=PROPERTY_DEFINITION('pmi validation property','',#439);
#15=PROPERTY_DEFINITION('pmi validation property','',#439);
#16=VALUE_REPRESENTATION_ITEM('number of annotations',COUNT_MEASURE(0.));
#17=VALUE_REPRESENTATION_ITEM('number of views',COUNT_MEASURE(0.));
#18=CONTEXT_DEPENDENT_SHAPE_REPRESENTATION(#24,#441);
#19=CONTEXT_DEPENDENT_SHAPE_REPRESENTATION(#25,#443);
#20=CONTEXT_DEPENDENT_SHAPE_REPRESENTATION(#26,#445);
#21=NEXT_ASSEMBLY_USAGE_OCCURRENCE('NAUO1','1576 16.000_PART1',
'1576 16.000_PART1',#446,#447,'');
#22=NEXT_ASSEMBLY_USAGE_OCCURRENCE('NAUO2','1576 16.000_PART2',
'1576 16.000_PART2',#446,#448,'');
#23=NEXT_ASSEMBLY_USAGE_OCCURRENCE('NAUO3','1576 16.000_PART3',
'1576 16.000_PART3',#446,#449,'');
#24=(
REPRESENTATION_RELATIONSHIP(' ',' ',#252,#251)
REPRESENTATION_RELATIONSHIP_WITH_TRANSFORMATION(#27)
SHAPE_REPRESENTATION_RELATIONSHIP()
);
#25=(
REPRESENTATION_RELATIONSHIP(' ',' ',#253,#251)
REPRESENTATION_RELATIONSHIP_WITH_TRANSFORMATION(#28)
SHAPE_REPRESENTATION_RELATIONSHIP()
);
#26=(
REPRESENTATION_RELATIONSHIP(' ',' ',#254,#251)
REPRESENTATION_RELATIONSHIP_WITH_TRANSFORMATION(#29)
SHAPE_REPRESENTATION_RELATIONSHIP()
);
#27=ITEM_DEFINED_TRANSFORMATION(' ',' ',#255,#279);
#28=ITEM_DEFINED_TRANSFORMATION(' ',' ',#255,#287);
#29=ITEM_DEFINED_TRANSFORMATION(' ',' ',#255,#293);
#30=SHAPE_REPRESENTATION_RELATIONSHIP('','',#252,#33);
#31=SHAPE_REPRESENTATION_RELATIONSHIP('','',#253,#34);
#32=SHAPE_REPRESENTATION_RELATIONSHIP('','',#254,#35);
#33=ADVANCED_BREP_SHAPE_REPRESENTATION('',(#244),#429);
#34=ADVANCED_BREP_SHAPE_REPRESENTATION('',(#245),#430);
#35=ADVANCED_BREP_SHAPE_REPRESENTATION('',(#246),#431);
#36=TOROIDAL_SURFACE('',#277,6.9,1.);
#37=PLANE('',#266);
#38=PLANE('',#274);
#39=PLANE('',#280);
#40=PLANE('',#286);
#41=PLANE('',#288);
#42=PLANE('',#292);
#43=CYLINDRICAL_SURFACE('',#259,5.9);
#44=CYLINDRICAL_SURFACE('',#264,8.04);
#45=CYLINDRICAL_SURFACE('',#269,5.9);
#46=CYLINDRICAL_SURFACE('',#278,6.);
#47=CYLINDRICAL_SURFACE('',#282,8.04);
#48=ORIENTED_EDGE('',*,*,#80,.F.);
#49=ORIENTED_EDGE('',*,*,#81,.T.);
#50=ORIENTED_EDGE('',*,*,#81,.F.);
#51=ORIENTED_EDGE('',*,*,#82,.T.);
#52=ORIENTED_EDGE('',*,*,#83,.F.);
#53=ORIENTED_EDGE('',*,*,#84,.T.);
#54=ORIENTED_EDGE('',*,*,#84,.F.);
#55=ORIENTED_EDGE('',*,*,#85,.F.);
#56=ORIENTED_EDGE('',*,*,#85,.T.);
#57=ORIENTED_EDGE('',*,*,#86,.F.);
#58=ORIENTED_EDGE('',*,*,#83,.T.);
#59=ORIENTED_EDGE('',*,*,#87,.T.);
#60=ORIENTED_EDGE('',*,*,#88,.F.);
#61=ORIENTED_EDGE('',*,*,#88,.T.);
#62=ORIENTED_EDGE('',*,*,#89,.F.);
#63=ORIENTED_EDGE('',*,*,#89,.T.);
#64=ORIENTED_EDGE('',*,*,#90,.T.);
#65=ORIENTED_EDGE('',*,*,#87,.F.);
#66=ORIENTED_EDGE('',*,*,#86,.T.);
#67=ORIENTED_EDGE('',*,*,#82,.F.);
#68=ORIENTED_EDGE('',*,*,#80,.T.);
#69=ORIENTED_EDGE('',*,*,#90,.F.);
#70=ORIENTED_EDGE('',*,*,#91,.F.);
#71=ORIENTED_EDGE('',*,*,#92,.T.);
#72=ORIENTED_EDGE('',*,*,#93,.T.);
#73=ORIENTED_EDGE('',*,*,#91,.T.);
#74=ORIENTED_EDGE('',*,*,#93,.F.);
#75=ORIENTED_EDGE('',*,*,#92,.F.);
#76=ORIENTED_EDGE('',*,*,#94,.T.);
#77=ORIENTED_EDGE('',*,*,#95,.T.);
#78=ORIENTED_EDGE('',*,*,#94,.F.);
#79=ORIENTED_EDGE('',*,*,#95,.F.);
#80=EDGE_CURVE('',#96,#96,#112,.T.);
#81=EDGE_CURVE('',#97,#97,#113,.T.);
#82=EDGE_CURVE('',#98,#98,#114,.T.);
#83=EDGE_CURVE('',#99,#99,#115,.T.);
#84=EDGE_CURVE('',#100,#100,#116,.T.);
#85=EDGE_CURVE('',#101,#101,#117,.T.);
#86=EDGE_CURVE('',#102,#102,#118,.T.);
#87=EDGE_CURVE('',#103,#103,#119,.T.);
#88=EDGE_CURVE('',#104,#104,#120,.T.);
#89=EDGE_CURVE('',#105,#105,#121,.T.);
#90=EDGE_CURVE('',#106,#106,#122,.T.);
#91=EDGE_CURVE('',#107,#107,#123,.T.);
#92=EDGE_CURVE('',#108,#108,#124,.T.);
#93=EDGE_CURVE('',#109,#109,#125,.T.);
#94=EDGE_CURVE('',#110,#110,#126,.T.);
#95=EDGE_CURVE('',#111,#111,#127,.T.);
#96=VERTEX_POINT('',#375);
#97=VERTEX_POINT('',#377);
#98=VERTEX_POINT('',#380);
#99=VERTEX_POINT('',#383);
#100=VERTEX_POINT('',#385);
#101=VERTEX_POINT('',#388);
#102=VERTEX_POINT('',#392);
#103=VERTEX_POINT('',#395);
#104=VERTEX_POINT('',#397);
#105=VERTEX_POINT('',#400);
#106=VERTEX_POINT('',#404);
#107=VERTEX_POINT('',#410);
#108=VERTEX_POINT('',#413);
#109=VERTEX_POINT('',#415);
#110=VERTEX_POINT('',#421);
#111=VERTEX_POINT('',#424);
#112=CIRCLE('',#257,6.);
#113=CIRCLE('',#258,5.9);
#114=CIRCLE('',#260,5.9);
#115=CIRCLE('',#262,6.9);
#116=CIRCLE('',#263,8.04);
#117=CIRCLE('',#265,8.04);
#118=CIRCLE('',#268,6.4);
#119=CIRCLE('',#270,5.9);
#120=CIRCLE('',#271,5.9);
#121=CIRCLE('',#273,3.75);
#122=CIRCLE('',#276,6.);
#123=CIRCLE('',#281,6.8);
#124=CIRCLE('',#283,8.04);
#125=CIRCLE('',#284,8.04);
#126=CIRCLE('',#289,6.8);
#127=CIRCLE('',#291,6.2);
#128=EDGE_LOOP('',(#48));
#129=EDGE_LOOP('',(#49));
#130=EDGE_LOOP('',(#50));
#131=EDGE_LOOP('',(#51));
#132=EDGE_LOOP('',(#52));
#133=EDGE_LOOP('',(#53));
#134=EDGE_LOOP('',(#54));
#135=EDGE_LOOP('',(#55));
#136=EDGE_LOOP('',(#56));
#137=EDGE_LOOP('',(#57));
#138=EDGE_LOOP('',(#58));
#139=EDGE_LOOP('',(#59));
#140=EDGE_LOOP('',(#60));
#141=EDGE_LOOP('',(#61));
#142=EDGE_LOOP('',(#62));
#143=EDGE_LOOP('',(#63));
#144=EDGE_LOOP('',(#64));
#145=EDGE_LOOP('',(#65));
#146=EDGE_LOOP('',(#66));
#147=EDGE_LOOP('',(#67));
#148=EDGE_LOOP('',(#68));
#149=EDGE_LOOP('',(#69));
#150=EDGE_LOOP('',(#70));
#151=EDGE_LOOP('',(#71));
#152=EDGE_LOOP('',(#72));
#153=EDGE_LOOP('',(#73));
#154=EDGE_LOOP('',(#74));
#155=EDGE_LOOP('',(#75));
#156=EDGE_LOOP('',(#76));
#157=EDGE_LOOP('',(#77));
#158=EDGE_LOOP('',(#78));
#159=EDGE_LOOP('',(#79));
#160=FACE_BOUND('',#128,.T.);
#161=FACE_BOUND('',#129,.T.);
#162=FACE_BOUND('',#130,.T.);
#163=FACE_BOUND('',#131,.T.);
#164=FACE_BOUND('',#132,.T.);
#165=FACE_BOUND('',#133,.T.);
#166=FACE_BOUND('',#134,.T.);
#167=FACE_BOUND('',#135,.T.);
#168=FACE_BOUND('',#136,.T.);
#169=FACE_BOUND('',#137,.T.);
#170=FACE_BOUND('',#138,.T.);
#171=FACE_BOUND('',#139,.T.);
#172=FACE_BOUND('',#140,.T.);
#173=FACE_BOUND('',#141,.T.);
#174=FACE_BOUND('',#142,.T.);
#175=FACE_BOUND('',#143,.T.);
#176=FACE_BOUND('',#144,.T.);
#177=FACE_BOUND('',#145,.T.);
#178=FACE_BOUND('',#146,.T.);
#179=FACE_BOUND('',#147,.T.);
#180=FACE_BOUND('',#148,.T.);
#181=FACE_BOUND('',#149,.T.);
#182=FACE_BOUND('',#150,.T.);
#183=FACE_BOUND('',#151,.T.);
#184=FACE_BOUND('',#152,.T.);
#185=FACE_BOUND('',#153,.T.);
#186=FACE_BOUND('',#154,.T.);
#187=FACE_BOUND('',#155,.T.);
#188=FACE_BOUND('',#156,.T.);
#189=FACE_BOUND('',#157,.T.);
#190=FACE_BOUND('',#158,.T.);
#191=FACE_BOUND('',#159,.T.);
#192=CONICAL_SURFACE('',#256,6.,0.523598775);
#193=CONICAL_SURFACE('',#261,6.9,0.523598775);
#194=CONICAL_SURFACE('',#267,6.4,1.04719755);
#195=CONICAL_SURFACE('',#272,5.9,0.7853981625);
#196=CONICAL_SURFACE('',#275,6.,0.7853981625);
#197=CONICAL_SURFACE('',#285,6.8,0.1660251012);
#198=CONICAL_SURFACE('',#290,6.2,0.7853981625);
#199=ADVANCED_FACE('',(#160,#161),#192,.T.);
#200=ADVANCED_FACE('',(#162,#163),#43,.T.);
#201=ADVANCED_FACE('',(#164,#165),#193,.T.);
#202=ADVANCED_FACE('',(#166,#167),#44,.T.);
#203=ADVANCED_FACE('',(#168),#37,.F.);
#204=ADVANCED_FACE('',(#169,#170),#194,.T.);
#205=ADVANCED_FACE('',(#171,#172),#45,.T.);
#206=ADVANCED_FACE('',(#173,#174),#195,.T.);
#207=ADVANCED_FACE('',(#175),#38,.F.);
#208=ADVANCED_FACE('',(#176,#177),#196,.T.);
#209=ADVANCED_FACE('',(#178,#179),#36,.F.);
#210=ADVANCED_FACE('',(#180,#181),#46,.T.);
#211=ADVANCED_FACE('',(#182),#39,.F.);
#212=ADVANCED_FACE('',(#183,#184),#47,.T.);
#213=ADVANCED_FACE('',(#185,#186),#197,.T.);
#214=ADVANCED_FACE('',(#187),#40,.T.);
#215=ADVANCED_FACE('',(#188),#41,.T.);
#216=ADVANCED_FACE('',(#189,#190),#198,.T.);
#217=ADVANCED_FACE('',(#191),#42,.T.);
#218=CLOSED_SHELL('',(#199,#200,#201,#202,#203,#204,#205,#206,#207,#208,
#209,#210));
#219=CLOSED_SHELL('',(#211,#212,#213,#214));
#220=CLOSED_SHELL('',(#215,#216,#217));
#221=STYLED_ITEM('',(#224),#244);
#222=STYLED_ITEM('',(#225),#245);
#223=STYLED_ITEM('',(#226),#246);
#224=PRESENTATION_STYLE_ASSIGNMENT((#227));
#225=PRESENTATION_STYLE_ASSIGNMENT((#228));
#226=PRESENTATION_STYLE_ASSIGNMENT((#229));
#227=SURFACE_STYLE_USAGE(.BOTH.,#230);
#228=SURFACE_STYLE_USAGE(.BOTH.,#231);
#229=SURFACE_STYLE_USAGE(.BOTH.,#232);
#230=SURFACE_SIDE_STYLE('',(#233));
#231=SURFACE_SIDE_STYLE('',(#234));
#232=SURFACE_SIDE_STYLE('',(#235));
#233=SURFACE_STYLE_FILL_AREA(#236);
#234=SURFACE_STYLE_FILL_AREA(#237);
#235=SURFACE_STYLE_FILL_AREA(#238);
#236=FILL_AREA_STYLE('',(#239));
#237=FILL_AREA_STYLE('',(#240));
#238=FILL_AREA_STYLE('',(#241));
#239=FILL_AREA_STYLE_COLOUR('',#242);
#240=FILL_AREA_STYLE_COLOUR('',#243);
#241=FILL_AREA_STYLE_COLOUR('',#242);
#242=COLOUR_RGB('',0.4999923706,0.4999923706,0.4999923706);
#243=COLOUR_RGB('',0.8000000119,0.8000000119,0.8000000119);
#244=MANIFOLD_SOLID_BREP('1',#218);
#245=MANIFOLD_SOLID_BREP('1',#219);
#246=MANIFOLD_SOLID_BREP('1',#220);
#247=SHAPE_DEFINITION_REPRESENTATION(#439,#251);
#248=SHAPE_DEFINITION_REPRESENTATION(#440,#252);
#249=SHAPE_DEFINITION_REPRESENTATION(#442,#253);
#250=SHAPE_DEFINITION_REPRESENTATION(#444,#254);
#251=SHAPE_REPRESENTATION('1576 16.000',(#255,#279,#287,#293),#428);
#252=SHAPE_REPRESENTATION('1576 16.000_PART1',(#255),#429);
#253=SHAPE_REPRESENTATION('1576 16.000_PART2',(#255),#430);
#254=SHAPE_REPRESENTATION('1576 16.000_PART3',(#255),#431);
#255=AXIS2_PLACEMENT_3D('',#372,#294,#295);
#256=AXIS2_PLACEMENT_3D('',#373,#296,#297);
#257=AXIS2_PLACEMENT_3D('',#374,#298,#299);
#258=AXIS2_PLACEMENT_3D('',#376,#300,#301);
#259=AXIS2_PLACEMENT_3D('',#378,#302,#303);
#260=AXIS2_PLACEMENT_3D('',#379,#304,#305);
#261=AXIS2_PLACEMENT_3D('',#381,#306,#307);
#262=AXIS2_PLACEMENT_3D('',#382,#308,#309);
#263=AXIS2_PLACEMENT_3D('',#384,#310,#311);
#264=AXIS2_PLACEMENT_3D('',#386,#312,#313);
#265=AXIS2_PLACEMENT_3D('',#387,#314,#315);
#266=AXIS2_PLACEMENT_3D('',#389,#316,#317);
#267=AXIS2_PLACEMENT_3D('',#390,#318,#319);
#268=AXIS2_PLACEMENT_3D('',#391,#320,#321);
#269=AXIS2_PLACEMENT_3D('',#393,#322,#323);
#270=AXIS2_PLACEMENT_3D('',#394,#324,#325);
#271=AXIS2_PLACEMENT_3D('',#396,#326,#327);
#272=AXIS2_PLACEMENT_3D('',#398,#328,#329);
#273=AXIS2_PLACEMENT_3D('',#399,#330,#331);
#274=AXIS2_PLACEMENT_3D('',#401,#332,#333);
#275=AXIS2_PLACEMENT_3D('',#402,#334,#335);
#276=AXIS2_PLACEMENT_3D('',#403,#336,#337);
#277=AXIS2_PLACEMENT_3D('',#405,#338,#339);
#278=AXIS2_PLACEMENT_3D('',#406,#340,#341);
#279=AXIS2_PLACEMENT_3D('',#407,#342,#343);
#280=AXIS2_PLACEMENT_3D('',#408,#344,#345);
#281=AXIS2_PLACEMENT_3D('',#409,#346,#347);
#282=AXIS2_PLACEMENT_3D('',#411,#348,#349);
#283=AXIS2_PLACEMENT_3D('',#412,#350,#351);
#284=AXIS2_PLACEMENT_3D('',#414,#352,#353);
#285=AXIS2_PLACEMENT_3D('',#416,#354,#355);
#286=AXIS2_PLACEMENT_3D('',#417,#356,#357);
#287=AXIS2_PLACEMENT_3D('',#418,#358,#359);
#288=AXIS2_PLACEMENT_3D('',#419,#360,#361);
#289=AXIS2_PLACEMENT_3D('',#420,#362,#363);
#290=AXIS2_PLACEMENT_3D('',#422,#364,#365);
#291=AXIS2_PLACEMENT_3D('',#423,#366,#367);
#292=AXIS2_PLACEMENT_3D('',#425,#368,#369);
#293=AXIS2_PLACEMENT_3D('',#426,#370,#371);
#294=DIRECTION('',(0.,0.,1.));
#295=DIRECTION('',(1.,0.,0.));
#296=DIRECTION('',(5.94745067448662E-17,0.,1.));
#297=DIRECTION('',(1.,0.,-5.94745067448662E-17));
#298=DIRECTION('',(0.,0.,1.));
#299=DIRECTION('',(1.,0.,0.));
#300=DIRECTION('',(0.,0.,1.));
#301=DIRECTION('',(1.,0.,0.));
#302=DIRECTION('',(0.,0.,-1.));
#303=DIRECTION('',(1.,0.,0.));
#304=DIRECTION('',(0.,0.,1.));
#305=DIRECTION('',(1.,0.,0.));
#306=DIRECTION('',(-4.7506312070899E-17,0.,-1.));
#307=DIRECTION('',(-1.,0.,4.7506312070899E-17));
#308=DIRECTION('',(0.,0.,1.));
#309=DIRECTION('',(1.,0.,0.));
#310=DIRECTION('',(0.,0.,1.));
#311=DIRECTION('',(1.,0.,0.));
#312=DIRECTION('',(0.,0.,-1.));
#313=DIRECTION('',(1.,0.,0.));
#314=DIRECTION('',(0.,0.,-1.));
#315=DIRECTION('',(1.,0.,0.));
#316=DIRECTION('',(0.,0.,1.));
#317=DIRECTION('',(1.,0.,0.));
#318=DIRECTION('',(2.39485427152604E-17,0.,-1.));
#319=DIRECTION('',(-1.,0.,-2.39485427152604E-17));
#320=DIRECTION('',(0.,0.,1.));
#321=DIRECTION('',(1.,0.,0.));
#322=DIRECTION('',(0.,0.,-1.));
#323=DIRECTION('',(1.,0.,0.));
#324=DIRECTION('',(0.,0.,1.));
#325=DIRECTION('',(1.,0.,0.));
#326=DIRECTION('',(0.,0.,1.));
#327=DIRECTION('',(1.,0.,0.));
#328=DIRECTION('',(9.312562650636E-17,0.,-1.));
#329=DIRECTION('',(-1.,0.,-9.312562650636E-17));
#330=DIRECTION('',(0.,0.,1.));
#331=DIRECTION('',(1.,0.,0.));
#332=DIRECTION('',(0.,0.,-1.));
#333=DIRECTION('',(0.,-1.,0.));
#334=DIRECTION('',(-4.82825619556169E-17,0.,-1.));
#335=DIRECTION('',(-1.,0.,4.82825619556169E-17));
#336=DIRECTION('',(0.,0.,1.));
#337=DIRECTION('',(1.,0.,0.));
#338=DIRECTION('',(0.,0.,1.));
#339=DIRECTION('',(1.,0.,0.));
#340=DIRECTION('',(0.,0.,-1.));
#341=DIRECTION('',(1.,0.,0.));
#342=DIRECTION('',(0.,0.,1.));
#343=DIRECTION('',(1.,0.,0.));
#344=DIRECTION('',(0.,0.,1.));
#345=DIRECTION('',(1.,0.,0.));
#346=DIRECTION('',(0.,0.,1.));
#347=DIRECTION('',(1.,0.,0.));
#348=DIRECTION('',(0.,0.,-1.));
#349=DIRECTION('',(1.,0.,0.));
#350=DIRECTION('',(0.,0.,-1.));
#351=DIRECTION('',(1.,0.,0.));
#352=DIRECTION('',(0.,0.,1.));
#353=DIRECTION('',(1.,0.,0.));
#354=DIRECTION('',(0.,0.,1.));
#355=DIRECTION('',(1.,0.,0.));
#356=DIRECTION('',(0.,0.,1.));
#357=DIRECTION('',(1.,0.,0.));
#358=DIRECTION('',(0.,0.,1.));
#359=DIRECTION('',(1.,0.,0.));
#360=DIRECTION('',(0.,0.,1.));
#361=DIRECTION('',(1.,0.,0.));
#362=DIRECTION('',(0.,0.,1.));
#363=DIRECTION('',(1.,0.,0.));
#364=DIRECTION('',(0.,0.,1.));
#365=DIRECTION('',(1.,0.,0.));
#366=DIRECTION('',(0.,0.,1.));
#367=DIRECTION('',(1.,0.,0.));
#368=DIRECTION('',(0.,0.,-1.));
#369=DIRECTION('',(0.,-1.,0.));
#370=DIRECTION('',(0.,0.,1.));
#371=DIRECTION('',(1.,0.,0.));
#372=CARTESIAN_POINT('',(0.,0.,0.));
#373=CARTESIAN_POINT('',(0.,0.,-55.899906729425));
#374=CARTESIAN_POINT('',(0.,0.,-55.899906729435));
#375=CARTESIAN_POINT('',(6.,0.,-55.899906729435));
#376=CARTESIAN_POINT('',(0.,0.,-56.0731118101919));
#377=CARTESIAN_POINT('',(5.9,0.,-56.0731118101919));
#378=CARTESIAN_POINT('',(0.,0.,-2.7896521898052E-15));
#379=CARTESIAN_POINT('',(0.,0.,-80.8707615410022));
#380=CARTESIAN_POINT('',(5.9,0.,-80.8707615410022));
#381=CARTESIAN_POINT('',(0.,0.,-82.0254620793715));
#382=CARTESIAN_POINT('',(0.,0.,-82.0254620793815));
#383=CARTESIAN_POINT('',(6.9,0.,-82.0254620793815));
#384=CARTESIAN_POINT('',(0.,0.,-84.00000000001));
#385=CARTESIAN_POINT('',(8.04,0.,-84.00000000001));
#386=CARTESIAN_POINT('',(0.,0.,-2.7896521898052E-15));
#387=CARTESIAN_POINT('',(0.,0.,-84.0415692193917));
#388=CARTESIAN_POINT('',(8.04,0.,-84.0415692193917));
#389=CARTESIAN_POINT('',(0.,0.,-84.0415692193817));
#390=CARTESIAN_POINT('',(0.,0.,-81.7367869447767));
#391=CARTESIAN_POINT('',(0.,0.,-81.7367869447867));
#392=CARTESIAN_POINT('',(6.4,0.,-81.7367869447867));
#393=CARTESIAN_POINT('',(0.,0.,-2.7896521898052E-15));
#394=CARTESIAN_POINT('',(0.,0.,-14.50000000001));
#395=CARTESIAN_POINT('',(5.9,0.,-14.50000000001));
#396=CARTESIAN_POINT('',(0.,0.,-2.15000000001));
#397=CARTESIAN_POINT('',(5.9,0.,-2.15000000001));
#398=CARTESIAN_POINT('',(0.,0.,-2.15));
#399=CARTESIAN_POINT('',(0.,0.,-1.00032489202301E-11));
#400=CARTESIAN_POINT('',(3.75,0.,-1.00032489202301E-11));
#401=CARTESIAN_POINT('',(0.,3.75,-3.01928620993763E-15));
#402=CARTESIAN_POINT('',(0.,0.,-14.6));
#403=CARTESIAN_POINT('',(0.,0.,-14.60000000001));
#404=CARTESIAN_POINT('',(6.,0.,-14.60000000001));
#405=CARTESIAN_POINT('',(0.,0.,-80.8707615409922));
#406=CARTESIAN_POINT('',(0.,0.,-2.7896521898052E-15));
#407=CARTESIAN_POINT('',(0.,0.,0.));
#408=CARTESIAN_POINT('',(0.,0.,-109.4));
#409=CARTESIAN_POINT('',(0.,0.,-109.40000000001));
#410=CARTESIAN_POINT('',(6.8,0.,-109.40000000001));
#411=CARTESIAN_POINT('',(0.,0.,-2.7896521898052E-15));
#412=CARTESIAN_POINT('',(0.,0.,-84.0415692193917));
#413=CARTESIAN_POINT('',(8.04,0.,-84.0415692193917));
#414=CARTESIAN_POINT('',(0.,0.,-101.999999991849));
#415=CARTESIAN_POINT('',(8.04,0.,-101.999999991849));
#416=CARTESIAN_POINT('',(0.,0.,-109.4));
#417=CARTESIAN_POINT('',(0.,0.,-84.0415692193817));
#418=CARTESIAN_POINT('',(0.,0.,0.));
#419=CARTESIAN_POINT('',(0.,0.,-109.4));
#420=CARTESIAN_POINT('',(0.,0.,-109.40000000001));
#421=CARTESIAN_POINT('',(6.8,0.,-109.40000000001));
#422=CARTESIAN_POINT('',(0.,0.,-110.));
#423=CARTESIAN_POINT('',(0.,0.,-110.00000000001));
#424=CARTESIAN_POINT('',(6.2,0.,-110.00000000001));
#425=CARTESIAN_POINT('',(0.,6.19999999999998,-110.));
#426=CARTESIAN_POINT('',(0.,0.,0.));
#427=MECHANICAL_DESIGN_GEOMETRIC_PRESENTATION_REPRESENTATION('',(#221,#222,
#223),#428);
#428=(
GEOMETRIC_REPRESENTATION_CONTEXT(3)
GLOBAL_UNCERTAINTY_ASSIGNED_CONTEXT((#432))
GLOBAL_UNIT_ASSIGNED_CONTEXT((#438,#437,#436))
REPRESENTATION_CONTEXT('1576 16.000','TOP_LEVEL_ASSEMBLY_PART')
);
#429=(
GEOMETRIC_REPRESENTATION_CONTEXT(3)
GLOBAL_UNCERTAINTY_ASSIGNED_CONTEXT((#433))
GLOBAL_UNIT_ASSIGNED_CONTEXT((#438,#437,#436))
REPRESENTATION_CONTEXT('1576 16.000_PART1','COMPONENT_PART')
);
#430=(
GEOMETRIC_REPRESENTATION_CONTEXT(3)
GLOBAL_UNCERTAINTY_ASSIGNED_CONTEXT((#434))
GLOBAL_UNIT_ASSIGNED_CONTEXT((#438,#437,#436))
REPRESENTATION_CONTEXT('1576 16.000_PART2','COMPONENT_PART')
);
#431=(
GEOMETRIC_REPRESENTATION_CONTEXT(3)
GLOBAL_UNCERTAINTY_ASSIGNED_CONTEXT((#435))
GLOBAL_UNIT_ASSIGNED_CONTEXT((#438,#437,#436))
REPRESENTATION_CONTEXT('1576 16.000_PART3','COMPONENT_PART')
);
#432=UNCERTAINTY_MEASURE_WITH_UNIT(LENGTH_MEASURE(1.E-5),#438,
'DISTANCE_ACCURACY_VALUE','Maximum Tolerance applied to model');
#433=UNCERTAINTY_MEASURE_WITH_UNIT(LENGTH_MEASURE(1.E-5),#438,
'DISTANCE_ACCURACY_VALUE','Maximum Tolerance applied to model');
#434=UNCERTAINTY_MEASURE_WITH_UNIT(LENGTH_MEASURE(1.E-5),#438,
'DISTANCE_ACCURACY_VALUE','Maximum Tolerance applied to model');
#435=UNCERTAINTY_MEASURE_WITH_UNIT(LENGTH_MEASURE(1.E-5),#438,
'DISTANCE_ACCURACY_VALUE','Maximum Tolerance applied to model');
#436=(
NAMED_UNIT(*)
SI_UNIT($,.STERADIAN.)
SOLID_ANGLE_UNIT()
);
#437=(
NAMED_UNIT(*)
PLANE_ANGLE_UNIT()
SI_UNIT($,.RADIAN.)
);
#438=(
LENGTH_UNIT()
NAMED_UNIT(*)
SI_UNIT(.MILLI.,.METRE.)
);
#439=PRODUCT_DEFINITION_SHAPE('','',#446);
#440=PRODUCT_DEFINITION_SHAPE('','',#447);
#441=PRODUCT_DEFINITION_SHAPE(' ','NAUO PRDDFN',#21);
#442=PRODUCT_DEFINITION_SHAPE('','',#448);
#443=PRODUCT_DEFINITION_SHAPE(' ','NAUO PRDDFN',#22);
#444=PRODUCT_DEFINITION_SHAPE('','',#449);
#445=PRODUCT_DEFINITION_SHAPE(' ','NAUO PRDDFN',#23);
#446=PRODUCT_DEFINITION('','',#454,#450);
#447=PRODUCT_DEFINITION('','',#455,#451);
#448=PRODUCT_DEFINITION('','',#456,#452);
#449=PRODUCT_DEFINITION('','',#457,#453);
#450=PRODUCT_DEFINITION_CONTEXT('',#475,'design');
#451=PRODUCT_DEFINITION_CONTEXT('',#475,'design');
#452=PRODUCT_DEFINITION_CONTEXT('',#475,'design');
#453=PRODUCT_DEFINITION_CONTEXT('',#475,'design');
#454=PRODUCT_DEFINITION_FORMATION_WITH_SPECIFIED_SOURCE('','',#462,
 .NOT_KNOWN.);
#455=PRODUCT_DEFINITION_FORMATION_WITH_SPECIFIED_SOURCE('','',#463,
 .NOT_KNOWN.);
#456=PRODUCT_DEFINITION_FORMATION_WITH_SPECIFIED_SOURCE('','',#464,
 .NOT_KNOWN.);
#457=PRODUCT_DEFINITION_FORMATION_WITH_SPECIFIED_SOURCE('','',#465,
 .NOT_KNOWN.);
#458=PRODUCT_RELATED_PRODUCT_CATEGORY('','',(#462));
#459=PRODUCT_RELATED_PRODUCT_CATEGORY('','',(#463));
#460=PRODUCT_RELATED_PRODUCT_CATEGORY('','',(#464));
#461=PRODUCT_RELATED_PRODUCT_CATEGORY('','',(#465));
#462=PRODUCT('1576 16.000','1576 16.000','1576 16.000',(#470));
#463=PRODUCT('1576 16.000_PART1','1576 16.000_PART1',
'1576 16.000_PART1',(#471));
#464=PRODUCT('1576 16.000_PART2','1576 16.000_PART2',
'1576 16.000_PART2',(#472));
#465=PRODUCT('1576 16.000_PART3','1576 16.000_PART3',
'1576 16.000_PART3',(#473));
#466=PRODUCT_CATEGORY('','');
#467=PRODUCT_CATEGORY('','');
#468=PRODUCT_CATEGORY('','');
#469=PRODUCT_CATEGORY('','');
#470=PRODUCT_CONTEXT('',#475,'mechanical');
#471=PRODUCT_CONTEXT('',#475,'mechanical');
#472=PRODUCT_CONTEXT('',#475,'mechanical');
#473=PRODUCT_CONTEXT('',#475,'mechanical');
#474=APPLICATION_PROTOCOL_DEFINITION('international standard',
'automotive_design',2010,#475);
#475=APPLICATION_CONTEXT(
'core data for automotive mechanical design processes');
ENDSEC;
END-ISO-10303-21;
