ISO-10303-21;
HEADER;
/* Generated by software containing ST-Developer
 * from STEP Tools, Inc. (www.steptools.com) 
 */
/* OPTION: using custom renumber hook */

FILE_DESCRIPTION(
/* description */ ('STEP AP214'),
/* implementation_level */ '2;1');

FILE_NAME(
/* name */ '1676 1.990',
/* time_stamp */ '2026-05-15T10:44:16+02:00',
/* author */ ('License CC BY-ND 4.0'),
/* organization */ ('CADENAS'),
/* preprocessor_version */ 'ST-DEVELOPER v20',
/* originating_system */ 'PARTsolutions',
/* authorisation */ '  ');

FILE_SCHEMA (('AUTOMOTIVE_DESIGN {1 0 10303 214 3 1 1}'));
ENDSEC;

DATA;
#10=PROPERTY_DEFINITION_REPRESENTATION(#14,#12);
#11=PROPERTY_DEFINITION_REPRESENTATION(#15,#13);
#12=REPRESENTATION('',(#16),#372);
#13=REPRESENTATION('',(#17),#372);
#14=PROPERTY_DEFINITION('pmi validation property','',#383);
#15=PROPERTY_DEFINITION('pmi validation property','',#383);
#16=VALUE_REPRESENTATION_ITEM('number of annotations',COUNT_MEASURE(0.));
#17=VALUE_REPRESENTATION_ITEM('number of views',COUNT_MEASURE(0.));
#18=CYLINDRICAL_SURFACE('',#239,0.994999999999991);
#19=CYLINDRICAL_SURFACE('',#247,0.849999999999994);
#20=CYLINDRICAL_SURFACE('',#253,2.);
#21=CONTEXT_DEPENDENT_SHAPE_REPRESENTATION(#27,#385);
#22=CONTEXT_DEPENDENT_SHAPE_REPRESENTATION(#28,#387);
#23=CONTEXT_DEPENDENT_SHAPE_REPRESENTATION(#29,#389);
#24=NEXT_ASSEMBLY_USAGE_OCCURRENCE('NAUO1','1676 1.990_PART1',
'1676 1.990_PART1',#390,#391,'');
#25=NEXT_ASSEMBLY_USAGE_OCCURRENCE('NAUO2','1676 1.990_PART2',
'1676 1.990_PART2',#390,#392,'');
#26=NEXT_ASSEMBLY_USAGE_OCCURRENCE('NAUO3','1676 1.990_PART3',
'1676 1.990_PART3',#390,#393,'');
#27=(
REPRESENTATION_RELATIONSHIP(' ',' ',#222,#221)
REPRESENTATION_RELATIONSHIP_WITH_TRANSFORMATION(#30)
SHAPE_REPRESENTATION_RELATIONSHIP()
);
#28=(
REPRESENTATION_RELATIONSHIP(' ',' ',#223,#221)
REPRESENTATION_RELATIONSHIP_WITH_TRANSFORMATION(#31)
SHAPE_REPRESENTATION_RELATIONSHIP()
);
#29=(
REPRESENTATION_RELATIONSHIP(' ',' ',#224,#221)
REPRESENTATION_RELATIONSHIP_WITH_TRANSFORMATION(#32)
SHAPE_REPRESENTATION_RELATIONSHIP()
);
#30=ITEM_DEFINED_TRANSFORMATION(' ',' ',#225,#231);
#31=ITEM_DEFINED_TRANSFORMATION(' ',' ',#225,#243);
#32=ITEM_DEFINED_TRANSFORMATION(' ',' ',#225,#257);
#33=SHAPE_REPRESENTATION_RELATIONSHIP('','',#222,#36);
#34=SHAPE_REPRESENTATION_RELATIONSHIP('','',#223,#37);
#35=SHAPE_REPRESENTATION_RELATIONSHIP('','',#224,#38);
#36=ADVANCED_BREP_SHAPE_REPRESENTATION('',(#214),#373);
#37=ADVANCED_BREP_SHAPE_REPRESENTATION('',(#215),#374);
#38=ADVANCED_BREP_SHAPE_REPRESENTATION('',(#216),#375);
#39=VERTEX_LOOP('',#89);
#40=CONICAL_SURFACE('',#228,3.08148791101958E-30,1.04719755119659);
#41=CONICAL_SURFACE('',#230,0.744825449350702,0.523598775598311);
#42=CONICAL_SURFACE('',#234,0.744825449350702,0.523598775598311);
#43=CONICAL_SURFACE('',#237,0.99482544935071,0.0174532925199156);
#44=CONICAL_SURFACE('',#241,0.99499999999999,0.261799387799153);
#45=CONICAL_SURFACE('',#244,0.849999999999993,0.785398163397445);
#46=CONICAL_SURFACE('',#249,0.99499999999999,0.261799387799153);
#47=CONICAL_SURFACE('',#255,2.,0.785398163397448);
#48=ORIENTED_EDGE('',*,*,#74,.T.);
#49=ORIENTED_EDGE('',*,*,#75,.F.);
#50=ORIENTED_EDGE('',*,*,#75,.T.);
#51=ORIENTED_EDGE('',*,*,#74,.F.);
#52=ORIENTED_EDGE('',*,*,#76,.T.);
#53=ORIENTED_EDGE('',*,*,#77,.T.);
#54=ORIENTED_EDGE('',*,*,#78,.F.);
#55=ORIENTED_EDGE('',*,*,#79,.F.);
#56=ORIENTED_EDGE('',*,*,#78,.T.);
#57=ORIENTED_EDGE('',*,*,#80,.F.);
#58=ORIENTED_EDGE('',*,*,#79,.T.);
#59=ORIENTED_EDGE('',*,*,#80,.T.);
#60=ORIENTED_EDGE('',*,*,#76,.F.);
#61=ORIENTED_EDGE('',*,*,#77,.F.);
#62=ORIENTED_EDGE('',*,*,#81,.F.);
#63=ORIENTED_EDGE('',*,*,#82,.T.);
#64=ORIENTED_EDGE('',*,*,#82,.F.);
#65=ORIENTED_EDGE('',*,*,#83,.T.);
#66=ORIENTED_EDGE('',*,*,#84,.T.);
#67=ORIENTED_EDGE('',*,*,#83,.F.);
#68=ORIENTED_EDGE('',*,*,#85,.T.);
#69=ORIENTED_EDGE('',*,*,#86,.T.);
#70=ORIENTED_EDGE('',*,*,#81,.T.);
#71=ORIENTED_EDGE('',*,*,#85,.F.);
#72=ORIENTED_EDGE('',*,*,#86,.F.);
#73=ORIENTED_EDGE('',*,*,#84,.F.);
#74=EDGE_CURVE('',#87,#87,#101,.T.);
#75=EDGE_CURVE('',#88,#88,#102,.T.);
#76=EDGE_CURVE('',#90,#90,#103,.T.);
#77=EDGE_CURVE('',#91,#91,#104,.T.);
#78=EDGE_CURVE('',#92,#92,#105,.T.);
#79=EDGE_CURVE('',#93,#93,#106,.T.);
#80=EDGE_CURVE('',#94,#94,#107,.T.);
#81=EDGE_CURVE('',#95,#95,#108,.T.);
#82=EDGE_CURVE('',#96,#96,#109,.T.);
#83=EDGE_CURVE('',#97,#97,#110,.T.);
#84=EDGE_CURVE('',#98,#98,#111,.T.);
#85=EDGE_CURVE('',#99,#99,#112,.T.);
#86=EDGE_CURVE('',#100,#100,#113,.T.);
#87=VERTEX_POINT('',#327);
#88=VERTEX_POINT('',#330);
#89=VERTEX_POINT('',#331);
#90=VERTEX_POINT('',#336);
#91=VERTEX_POINT('',#339);
#92=VERTEX_POINT('',#341);
#93=VERTEX_POINT('',#344);
#94=VERTEX_POINT('',#347);
#95=VERTEX_POINT('',#353);
#96=VERTEX_POINT('',#355);
#97=VERTEX_POINT('',#358);
#98=VERTEX_POINT('',#361);
#99=VERTEX_POINT('',#364);
#100=VERTEX_POINT('',#367);
#101=CIRCLE('',#227,0.750598952042597);
#102=CIRCLE('',#229,0.744825449350702);
#103=CIRCLE('',#233,0.928012701892208);
#104=CIRCLE('',#235,0.750598952042597);
#105=CIRCLE('',#236,0.99482544935071);
#106=CIRCLE('',#238,0.994999999999992);
#107=CIRCLE('',#240,0.99499999999999);
#108=CIRCLE('',#245,2.);
#109=CIRCLE('',#246,0.849999999999993);
#110=CIRCLE('',#248,0.849999999999995);
#111=CIRCLE('',#250,0.928012701892208);
#112=CIRCLE('',#252,1.25);
#113=CIRCLE('',#254,2.);
#114=EDGE_LOOP('',(#48));
#115=EDGE_LOOP('',(#49));
#116=EDGE_LOOP('',(#50));
#117=EDGE_LOOP('',(#51));
#118=EDGE_LOOP('',(#52));
#119=EDGE_LOOP('',(#53));
#120=EDGE_LOOP('',(#54));
#121=EDGE_LOOP('',(#55));
#122=EDGE_LOOP('',(#56));
#123=EDGE_LOOP('',(#57));
#124=EDGE_LOOP('',(#58));
#125=EDGE_LOOP('',(#59));
#126=EDGE_LOOP('',(#60));
#127=EDGE_LOOP('',(#61));
#128=EDGE_LOOP('',(#62));
#129=EDGE_LOOP('',(#63));
#130=EDGE_LOOP('',(#64));
#131=EDGE_LOOP('',(#65));
#132=EDGE_LOOP('',(#66));
#133=EDGE_LOOP('',(#67));
#134=EDGE_LOOP('',(#68));
#135=EDGE_LOOP('',(#69));
#136=EDGE_LOOP('',(#70));
#137=EDGE_LOOP('',(#71));
#138=EDGE_LOOP('',(#72));
#139=EDGE_LOOP('',(#73));
#140=FACE_BOUND('',#114,.T.);
#141=FACE_BOUND('',#115,.T.);
#142=FACE_BOUND('',#39,.T.);
#143=FACE_BOUND('',#116,.T.);
#144=FACE_BOUND('',#117,.T.);
#145=FACE_BOUND('',#118,.T.);
#146=FACE_BOUND('',#119,.T.);
#147=FACE_BOUND('',#120,.T.);
#148=FACE_BOUND('',#121,.T.);
#149=FACE_BOUND('',#122,.T.);
#150=FACE_BOUND('',#123,.T.);
#151=FACE_BOUND('',#124,.T.);
#152=FACE_BOUND('',#125,.T.);
#153=FACE_BOUND('',#126,.T.);
#154=FACE_BOUND('',#127,.T.);
#155=FACE_BOUND('',#128,.T.);
#156=FACE_BOUND('',#129,.T.);
#157=FACE_BOUND('',#130,.T.);
#158=FACE_BOUND('',#131,.T.);
#159=FACE_BOUND('',#132,.T.);
#160=FACE_BOUND('',#133,.T.);
#161=FACE_BOUND('',#134,.T.);
#162=FACE_BOUND('',#135,.T.);
#163=FACE_BOUND('',#136,.T.);
#164=FACE_BOUND('',#137,.T.);
#165=FACE_BOUND('',#138,.T.);
#166=FACE_BOUND('',#139,.T.);
#167=PLANE('',#226);
#168=PLANE('',#232);
#169=PLANE('',#242);
#170=PLANE('',#251);
#171=PLANE('',#256);
#172=ADVANCED_FACE('',(#140),#167,.T.);
#173=ADVANCED_FACE('',(#141,#142),#40,.T.);
#174=ADVANCED_FACE('',(#143,#144),#41,.T.);
#175=ADVANCED_FACE('',(#145),#168,.T.);
#176=ADVANCED_FACE('',(#146,#147),#42,.T.);
#177=ADVANCED_FACE('',(#148,#149),#43,.T.);
#178=ADVANCED_FACE('',(#150,#151),#18,.T.);
#179=ADVANCED_FACE('',(#152,#153),#44,.T.);
#180=ADVANCED_FACE('',(#154),#169,.F.);
#181=ADVANCED_FACE('',(#155,#156),#45,.T.);
#182=ADVANCED_FACE('',(#157,#158),#19,.T.);
#183=ADVANCED_FACE('',(#159,#160),#46,.T.);
#184=ADVANCED_FACE('',(#161),#170,.T.);
#185=ADVANCED_FACE('',(#162,#163),#20,.T.);
#186=ADVANCED_FACE('',(#164,#165),#47,.T.);
#187=ADVANCED_FACE('',(#166),#171,.F.);
#188=CLOSED_SHELL('',(#172,#173,#174));
#189=CLOSED_SHELL('',(#175,#176,#177,#178,#179,#180));
#190=CLOSED_SHELL('',(#181,#182,#183,#184,#185,#186,#187));
#191=STYLED_ITEM('',(#194),#214);
#192=STYLED_ITEM('',(#195),#215);
#193=STYLED_ITEM('',(#196),#216);
#194=PRESENTATION_STYLE_ASSIGNMENT((#197));
#195=PRESENTATION_STYLE_ASSIGNMENT((#198));
#196=PRESENTATION_STYLE_ASSIGNMENT((#199));
#197=SURFACE_STYLE_USAGE(.BOTH.,#200);
#198=SURFACE_STYLE_USAGE(.BOTH.,#201);
#199=SURFACE_STYLE_USAGE(.BOTH.,#202);
#200=SURFACE_SIDE_STYLE('',(#203));
#201=SURFACE_SIDE_STYLE('',(#204));
#202=SURFACE_SIDE_STYLE('',(#205));
#203=SURFACE_STYLE_FILL_AREA(#206);
#204=SURFACE_STYLE_FILL_AREA(#207);
#205=SURFACE_STYLE_FILL_AREA(#208);
#206=FILL_AREA_STYLE('',(#209));
#207=FILL_AREA_STYLE('',(#210));
#208=FILL_AREA_STYLE('',(#211));
#209=FILL_AREA_STYLE_COLOUR('',#212);
#210=FILL_AREA_STYLE_COLOUR('',#213);
#211=FILL_AREA_STYLE_COLOUR('',#212);
#212=COLOUR_RGB('',0.500007629510948,0.500007629510948,0.500007629510948);
#213=COLOUR_RGB('',0.8,0.8,0.8);
#214=MANIFOLD_SOLID_BREP('solid',#188);
#215=MANIFOLD_SOLID_BREP('solid',#189);
#216=MANIFOLD_SOLID_BREP('solid',#190);
#217=SHAPE_DEFINITION_REPRESENTATION(#383,#221);
#218=SHAPE_DEFINITION_REPRESENTATION(#384,#222);
#219=SHAPE_DEFINITION_REPRESENTATION(#386,#223);
#220=SHAPE_DEFINITION_REPRESENTATION(#388,#224);
#221=SHAPE_REPRESENTATION('1676 1.990',(#225,#231,#243,#257),#372);
#222=SHAPE_REPRESENTATION('1676 1.990_PART1',(#225),#373);
#223=SHAPE_REPRESENTATION('1676 1.990_PART2',(#225),#374);
#224=SHAPE_REPRESENTATION('1676 1.990_PART3',(#225),#375);
#225=AXIS2_PLACEMENT_3D('',#324,#258,#259);
#226=AXIS2_PLACEMENT_3D('',#325,#260,#261);
#227=AXIS2_PLACEMENT_3D('',#326,#262,#263);
#228=AXIS2_PLACEMENT_3D('',#328,#264,#265);
#229=AXIS2_PLACEMENT_3D('',#329,#266,#267);
#230=AXIS2_PLACEMENT_3D('',#332,#268,#269);
#231=AXIS2_PLACEMENT_3D('',#333,#270,#271);
#232=AXIS2_PLACEMENT_3D('',#334,#272,#273);
#233=AXIS2_PLACEMENT_3D('',#335,#274,#275);
#234=AXIS2_PLACEMENT_3D('',#337,#276,#277);
#235=AXIS2_PLACEMENT_3D('',#338,#278,#279);
#236=AXIS2_PLACEMENT_3D('',#340,#280,#281);
#237=AXIS2_PLACEMENT_3D('',#342,#282,#283);
#238=AXIS2_PLACEMENT_3D('',#343,#284,#285);
#239=AXIS2_PLACEMENT_3D('',#345,#286,#287);
#240=AXIS2_PLACEMENT_3D('',#346,#288,#289);
#241=AXIS2_PLACEMENT_3D('',#348,#290,#291);
#242=AXIS2_PLACEMENT_3D('',#349,#292,#293);
#243=AXIS2_PLACEMENT_3D('',#350,#294,#295);
#244=AXIS2_PLACEMENT_3D('',#351,#296,#297);
#245=AXIS2_PLACEMENT_3D('',#352,#298,#299);
#246=AXIS2_PLACEMENT_3D('',#354,#300,#301);
#247=AXIS2_PLACEMENT_3D('',#356,#302,#303);
#248=AXIS2_PLACEMENT_3D('',#357,#304,#305);
#249=AXIS2_PLACEMENT_3D('',#359,#306,#307);
#250=AXIS2_PLACEMENT_3D('',#360,#308,#309);
#251=AXIS2_PLACEMENT_3D('',#362,#310,#311);
#252=AXIS2_PLACEMENT_3D('',#363,#312,#313);
#253=AXIS2_PLACEMENT_3D('',#365,#314,#315);
#254=AXIS2_PLACEMENT_3D('',#366,#316,#317);
#255=AXIS2_PLACEMENT_3D('',#368,#318,#319);
#256=AXIS2_PLACEMENT_3D('',#369,#320,#321);
#257=AXIS2_PLACEMENT_3D('',#370,#322,#323);
#258=DIRECTION('',(0.,0.,1.));
#259=DIRECTION('',(1.,0.,0.));
#260=DIRECTION('',(0.,0.,1.));
#261=DIRECTION('',(1.,0.,0.));
#262=DIRECTION('',(0.,0.,1.));
#263=DIRECTION('',(1.,0.,0.));
#264=DIRECTION('',(0.,0.,1.));
#265=DIRECTION('',(0.,1.,0.));
#266=DIRECTION('',(0.,3.09983062321083E-16,1.));
#267=DIRECTION('',(0.,1.,0.));
#268=DIRECTION('',(0.,0.,1.));
#269=DIRECTION('',(0.,1.,0.));
#270=DIRECTION('',(0.,0.,1.));
#271=DIRECTION('',(1.,0.,0.));
#272=DIRECTION('',(0.,0.,1.));
#273=DIRECTION('',(1.,0.,0.));
#274=DIRECTION('',(0.,0.,1.));
#275=DIRECTION('',(1.,0.,0.));
#276=DIRECTION('',(0.,0.,1.));
#277=DIRECTION('',(0.,1.,0.));
#278=DIRECTION('',(0.,0.,1.));
#279=DIRECTION('',(1.,0.,0.));
#280=DIRECTION('',(0.,3.09983062321083E-16,1.));
#281=DIRECTION('',(0.,1.,0.));
#282=DIRECTION('',(0.,0.,1.));
#283=DIRECTION('',(0.,1.,0.));
#284=DIRECTION('',(0.,3.09983062321083E-16,1.));
#285=DIRECTION('',(0.,1.,0.));
#286=DIRECTION('',(0.,0.,1.));
#287=DIRECTION('',(0.,1.,0.));
#288=DIRECTION('',(0.,3.09983062321083E-16,1.));
#289=DIRECTION('',(0.,1.,0.));
#290=DIRECTION('',(0.,0.,-1.));
#291=DIRECTION('',(0.,-1.,0.));
#292=DIRECTION('',(0.,0.,1.));
#293=DIRECTION('',(1.,0.,0.));
#294=DIRECTION('',(0.,0.,1.));
#295=DIRECTION('',(1.,0.,0.));
#296=DIRECTION('',(0.,0.,1.));
#297=DIRECTION('',(0.,1.,0.));
#298=DIRECTION('',(0.,3.09983062321083E-16,1.));
#299=DIRECTION('',(0.,1.,0.));
#300=DIRECTION('',(0.,3.09983062321083E-16,1.));
#301=DIRECTION('',(0.,1.,0.));
#302=DIRECTION('',(0.,0.,1.));
#303=DIRECTION('',(0.,1.,0.));
#304=DIRECTION('',(0.,3.09983062321083E-16,1.));
#305=DIRECTION('',(0.,1.,0.));
#306=DIRECTION('',(0.,0.,-1.));
#307=DIRECTION('',(0.,-1.,0.));
#308=DIRECTION('',(0.,0.,1.));
#309=DIRECTION('',(1.,0.,0.));
#310=DIRECTION('',(0.,0.,1.));
#311=DIRECTION('',(1.,0.,0.));
#312=DIRECTION('',(0.,0.,1.));
#313=DIRECTION('',(1.,0.,0.));
#314=DIRECTION('',(0.,0.,-1.));
#315=DIRECTION('',(-1.,0.,0.));
#316=DIRECTION('',(0.,0.,-1.));
#317=DIRECTION('',(1.,0.,0.));
#318=DIRECTION('',(0.,0.,-1.));
#319=DIRECTION('',(-1.,0.,8.33169334145548E-17));
#320=DIRECTION('',(0.,0.,1.));
#321=DIRECTION('',(1.,0.,0.));
#322=DIRECTION('',(0.,0.,1.));
#323=DIRECTION('',(1.,0.,0.));
#324=CARTESIAN_POINT('',(0.,0.,0.));
#325=CARTESIAN_POINT('',(0.,0.,-50.0599748263181));
#326=CARTESIAN_POINT('',(1.37433627710691E-16,-1.55208441270016E-14,-50.0599748263181));
#327=CARTESIAN_POINT('',(0.750598952042597,-1.55208441270016E-14,-50.0599748263181));
#328=CARTESIAN_POINT('',(0.,-1.56541446472147E-14,-50.5));
#329=CARTESIAN_POINT('',(0.,-1.55208441270016E-14,-50.0699748263181));
#330=CARTESIAN_POINT('',(0.,0.744825449350687,-50.0699748263181));
#331=CARTESIAN_POINT('',(0.,-1.56541446472147E-14,-50.5));
#332=CARTESIAN_POINT('',(0.,-1.55208441270016E-14,-50.0699748263181));
#333=CARTESIAN_POINT('',(0.,0.,0.));
#334=CARTESIAN_POINT('',(0.,0.,-41.95));
#335=CARTESIAN_POINT('',(-4.15298556081251E-19,-1.30812852299497E-14,-41.95));
#336=CARTESIAN_POINT('',(0.928012701892208,-1.30812852299497E-14,-41.95));
#337=CARTESIAN_POINT('',(0.,-1.55208441270016E-14,-50.0699748263181));
#338=CARTESIAN_POINT('',(1.37433627710691E-16,-1.55208441270016E-14,-50.0599748263181));
#339=CARTESIAN_POINT('',(0.750598952042597,-1.55208441270016E-14,-50.0599748263181));
#340=CARTESIAN_POINT('',(0.,-1.53866175236452E-14,-49.6369621244259));
#341=CARTESIAN_POINT('',(0.,0.994825449350695,-49.6369621244259));
#342=CARTESIAN_POINT('',(0.,-1.53866175236452E-14,-49.6369621244259));
#343=CARTESIAN_POINT('',(0.,-1.53835176930219E-14,-49.6269621244259));
#344=CARTESIAN_POINT('',(0.,0.994999999999977,-49.6269621244259));
#345=CARTESIAN_POINT('',(0.,0.,-2.7896521898052E-15));
#346=CARTESIAN_POINT('',(0.,-1.30812852299497E-14,-42.2));
#347=CARTESIAN_POINT('',(0.,0.994999999999977,-42.2));
#348=CARTESIAN_POINT('',(0.,-1.30812852299497E-14,-42.2));
#349=CARTESIAN_POINT('',(0.,0.,-50.0599748263181));
#350=CARTESIAN_POINT('',(0.,0.,0.));
#351=CARTESIAN_POINT('',(0.,-9.03600626665958E-15,-29.15));
#352=CARTESIAN_POINT('',(0.,-8.67952574499033E-15,-28.));
#353=CARTESIAN_POINT('',(0.,1.99999999999999,-28.));
#354=CARTESIAN_POINT('',(0.,-9.03600626665958E-15,-29.15));
#355=CARTESIAN_POINT('',(0.,0.849999999999984,-29.15));
#356=CARTESIAN_POINT('',(0.,0.,-2.7896521898052E-15));
#357=CARTESIAN_POINT('',(0.,-1.29135387119299E-14,-41.6588526329025));
#358=CARTESIAN_POINT('',(0.,0.849999999999982,-41.6588526329025));
#359=CARTESIAN_POINT('',(0.,-1.30812852299497E-14,-42.2));
#360=CARTESIAN_POINT('',(-4.15298556081251E-19,-1.30812852299497E-14,-41.95));
#361=CARTESIAN_POINT('',(0.928012701892208,-1.30812852299497E-14,-41.95));
#362=CARTESIAN_POINT('',(0.,0.,0.));
#363=CARTESIAN_POINT('',(0.,0.,0.));
#364=CARTESIAN_POINT('',(1.25,0.,0.));
#365=CARTESIAN_POINT('',(0.,0.,0.));
#366=CARTESIAN_POINT('',(0.,0.,-0.750000000000001));
#367=CARTESIAN_POINT('',(2.,0.,-0.750000000000001));
#368=CARTESIAN_POINT('',(0.,0.,-0.750000000000001));
#369=CARTESIAN_POINT('',(0.,0.,-41.95));
#370=CARTESIAN_POINT('',(0.,0.,0.));
#371=MECHANICAL_DESIGN_GEOMETRIC_PRESENTATION_REPRESENTATION('',(#191,#192,
#193),#372);
#372=(
GEOMETRIC_REPRESENTATION_CONTEXT(3)
GLOBAL_UNCERTAINTY_ASSIGNED_CONTEXT((#376))
GLOBAL_UNIT_ASSIGNED_CONTEXT((#382,#381,#380))
REPRESENTATION_CONTEXT('1676 1.990','TOP_LEVEL_ASSEMBLY_PART')
);
#373=(
GEOMETRIC_REPRESENTATION_CONTEXT(3)
GLOBAL_UNCERTAINTY_ASSIGNED_CONTEXT((#377))
GLOBAL_UNIT_ASSIGNED_CONTEXT((#382,#381,#380))
REPRESENTATION_CONTEXT('1676 1.990_PART1','COMPONENT_PART')
);
#374=(
GEOMETRIC_REPRESENTATION_CONTEXT(3)
GLOBAL_UNCERTAINTY_ASSIGNED_CONTEXT((#378))
GLOBAL_UNIT_ASSIGNED_CONTEXT((#382,#381,#380))
REPRESENTATION_CONTEXT('1676 1.990_PART2','COMPONENT_PART')
);
#375=(
GEOMETRIC_REPRESENTATION_CONTEXT(3)
GLOBAL_UNCERTAINTY_ASSIGNED_CONTEXT((#379))
GLOBAL_UNIT_ASSIGNED_CONTEXT((#382,#381,#380))
REPRESENTATION_CONTEXT('1676 1.990_PART3','COMPONENT_PART')
);
#376=UNCERTAINTY_MEASURE_WITH_UNIT(LENGTH_MEASURE(1.E-5),#382,
'DISTANCE_ACCURACY_VALUE','Maximum Tolerance applied to model');
#377=UNCERTAINTY_MEASURE_WITH_UNIT(LENGTH_MEASURE(1.E-5),#382,
'DISTANCE_ACCURACY_VALUE','Maximum Tolerance applied to model');
#378=UNCERTAINTY_MEASURE_WITH_UNIT(LENGTH_MEASURE(1.E-5),#382,
'DISTANCE_ACCURACY_VALUE','Maximum Tolerance applied to model');
#379=UNCERTAINTY_MEASURE_WITH_UNIT(LENGTH_MEASURE(1.E-5),#382,
'DISTANCE_ACCURACY_VALUE','Maximum Tolerance applied to model');
#380=(
NAMED_UNIT(*)
SI_UNIT($,.STERADIAN.)
SOLID_ANGLE_UNIT()
);
#381=(
NAMED_UNIT(*)
PLANE_ANGLE_UNIT()
SI_UNIT($,.RADIAN.)
);
#382=(
LENGTH_UNIT()
NAMED_UNIT(*)
SI_UNIT(.MILLI.,.METRE.)
);
#383=PRODUCT_DEFINITION_SHAPE('','',#390);
#384=PRODUCT_DEFINITION_SHAPE('','',#391);
#385=PRODUCT_DEFINITION_SHAPE(' ','NAUO PRDDFN',#24);
#386=PRODUCT_DEFINITION_SHAPE('','',#392);
#387=PRODUCT_DEFINITION_SHAPE(' ','NAUO PRDDFN',#25);
#388=PRODUCT_DEFINITION_SHAPE('','',#393);
#389=PRODUCT_DEFINITION_SHAPE(' ','NAUO PRDDFN',#26);
#390=PRODUCT_DEFINITION('','',#398,#394);
#391=PRODUCT_DEFINITION('','',#399,#395);
#392=PRODUCT_DEFINITION('','',#400,#396);
#393=PRODUCT_DEFINITION('','',#401,#397);
#394=PRODUCT_DEFINITION_CONTEXT('',#419,'design');
#395=PRODUCT_DEFINITION_CONTEXT('',#419,'design');
#396=PRODUCT_DEFINITION_CONTEXT('',#419,'design');
#397=PRODUCT_DEFINITION_CONTEXT('',#419,'design');
#398=PRODUCT_DEFINITION_FORMATION_WITH_SPECIFIED_SOURCE('','',#406,
 .NOT_KNOWN.);
#399=PRODUCT_DEFINITION_FORMATION_WITH_SPECIFIED_SOURCE('','',#407,
 .NOT_KNOWN.);
#400=PRODUCT_DEFINITION_FORMATION_WITH_SPECIFIED_SOURCE('','',#408,
 .NOT_KNOWN.);
#401=PRODUCT_DEFINITION_FORMATION_WITH_SPECIFIED_SOURCE('','',#409,
 .NOT_KNOWN.);
#402=PRODUCT_RELATED_PRODUCT_CATEGORY('','',(#406));
#403=PRODUCT_RELATED_PRODUCT_CATEGORY('','',(#407));
#404=PRODUCT_RELATED_PRODUCT_CATEGORY('','',(#408));
#405=PRODUCT_RELATED_PRODUCT_CATEGORY('','',(#409));
#406=PRODUCT('1676 1.990','1676 1.990','1676 1.990',(#414));
#407=PRODUCT('1676 1.990_PART1','1676 1.990_PART1','1676 1.990_PART1',(#415));
#408=PRODUCT('1676 1.990_PART2','1676 1.990_PART2','1676 1.990_PART2',(#416));
#409=PRODUCT('1676 1.990_PART3','1676 1.990_PART3','1676 1.990_PART3',(#417));
#410=PRODUCT_CATEGORY('','');
#411=PRODUCT_CATEGORY('','');
#412=PRODUCT_CATEGORY('','');
#413=PRODUCT_CATEGORY('','');
#414=PRODUCT_CONTEXT('',#419,'mechanical');
#415=PRODUCT_CONTEXT('',#419,'mechanical');
#416=PRODUCT_CONTEXT('',#419,'mechanical');
#417=PRODUCT_CONTEXT('',#419,'mechanical');
#418=APPLICATION_PROTOCOL_DEFINITION('international standard',
'automotive_design',2010,#419);
#419=APPLICATION_CONTEXT(
'core data for automotive mechanical design processes');
ENDSEC;
END-ISO-10303-21;
