ISO-10303-21;
HEADER;
/* Generated by software containing ST-Developer
 * from STEP Tools, Inc. (www.steptools.com) 
 */
/* OPTION: using custom renumber hook */

FILE_DESCRIPTION(
/* description */ ('STEP AP214'),
/* implementation_level */ '2;1');

FILE_NAME(
/* name */ '1678 8.000',
/* time_stamp */ '2026-05-15T11:04:56+02:00',
/* author */ ('License CC BY-ND 4.0'),
/* organization */ ('CADENAS'),
/* preprocessor_version */ 'ST-DEVELOPER v20',
/* originating_system */ 'PARTsolutions',
/* authorisation */ '  ');

FILE_SCHEMA (('AUTOMOTIVE_DESIGN {1 0 10303 214 3 1 1}'));
ENDSEC;

DATA;
#10=PROPERTY_DEFINITION_REPRESENTATION(#14,#12);
#11=PROPERTY_DEFINITION_REPRESENTATION(#15,#13);
#12=REPRESENTATION('',(#16),#368);
#13=REPRESENTATION('',(#17),#368);
#14=PROPERTY_DEFINITION('pmi validation property','',#379);
#15=PROPERTY_DEFINITION('pmi validation property','',#379);
#16=VALUE_REPRESENTATION_ITEM('number of annotations',COUNT_MEASURE(0.));
#17=VALUE_REPRESENTATION_ITEM('number of views',COUNT_MEASURE(0.));
#18=CONTEXT_DEPENDENT_SHAPE_REPRESENTATION(#24,#381);
#19=CONTEXT_DEPENDENT_SHAPE_REPRESENTATION(#25,#383);
#20=CONTEXT_DEPENDENT_SHAPE_REPRESENTATION(#26,#385);
#21=NEXT_ASSEMBLY_USAGE_OCCURRENCE('NAUO1','1678 8.000_PART1',
'1678 8.000_PART1',#386,#387,'');
#22=NEXT_ASSEMBLY_USAGE_OCCURRENCE('NAUO2','1678 8.000_PART2',
'1678 8.000_PART2',#386,#388,'');
#23=NEXT_ASSEMBLY_USAGE_OCCURRENCE('NAUO3','1678 8.000_PART3',
'1678 8.000_PART3',#386,#389,'');
#24=(
REPRESENTATION_RELATIONSHIP(' ',' ',#219,#218)
REPRESENTATION_RELATIONSHIP_WITH_TRANSFORMATION(#27)
SHAPE_REPRESENTATION_RELATIONSHIP()
);
#25=(
REPRESENTATION_RELATIONSHIP(' ',' ',#220,#218)
REPRESENTATION_RELATIONSHIP_WITH_TRANSFORMATION(#28)
SHAPE_REPRESENTATION_RELATIONSHIP()
);
#26=(
REPRESENTATION_RELATIONSHIP(' ',' ',#221,#218)
REPRESENTATION_RELATIONSHIP_WITH_TRANSFORMATION(#29)
SHAPE_REPRESENTATION_RELATIONSHIP()
);
#27=ITEM_DEFINED_TRANSFORMATION(' ',' ',#222,#236);
#28=ITEM_DEFINED_TRANSFORMATION(' ',' ',#222,#248);
#29=ITEM_DEFINED_TRANSFORMATION(' ',' ',#222,#254);
#30=SHAPE_REPRESENTATION_RELATIONSHIP('','',#219,#33);
#31=SHAPE_REPRESENTATION_RELATIONSHIP('','',#220,#34);
#32=SHAPE_REPRESENTATION_RELATIONSHIP('','',#221,#35);
#33=ADVANCED_BREP_SHAPE_REPRESENTATION('',(#211),#369);
#34=ADVANCED_BREP_SHAPE_REPRESENTATION('',(#212),#370);
#35=ADVANCED_BREP_SHAPE_REPRESENTATION('',(#213),#371);
#36=CYLINDRICAL_SURFACE('',#230,4.);
#37=CYLINDRICAL_SURFACE('',#233,3.);
#38=CYLINDRICAL_SURFACE('',#247,4.);
#39=PLANE('',#226);
#40=PLANE('',#232);
#41=PLANE('',#237);
#42=PLANE('',#241);
#43=PLANE('',#249);
#44=PLANE('',#253);
#45=ORIENTED_EDGE('',*,*,#71,.F.);
#46=ORIENTED_EDGE('',*,*,#72,.F.);
#47=ORIENTED_EDGE('',*,*,#73,.F.);
#48=ORIENTED_EDGE('',*,*,#74,.F.);
#49=ORIENTED_EDGE('',*,*,#73,.T.);
#50=ORIENTED_EDGE('',*,*,#75,.T.);
#51=ORIENTED_EDGE('',*,*,#71,.T.);
#52=ORIENTED_EDGE('',*,*,#72,.T.);
#53=ORIENTED_EDGE('',*,*,#74,.T.);
#54=ORIENTED_EDGE('',*,*,#76,.F.);
#55=ORIENTED_EDGE('',*,*,#76,.T.);
#56=ORIENTED_EDGE('',*,*,#75,.F.);
#57=ORIENTED_EDGE('',*,*,#77,.F.);
#58=ORIENTED_EDGE('',*,*,#78,.F.);
#59=ORIENTED_EDGE('',*,*,#77,.T.);
#60=ORIENTED_EDGE('',*,*,#79,.T.);
#61=ORIENTED_EDGE('',*,*,#78,.T.);
#62=ORIENTED_EDGE('',*,*,#80,.F.);
#63=ORIENTED_EDGE('',*,*,#79,.F.);
#64=ORIENTED_EDGE('',*,*,#81,.T.);
#65=ORIENTED_EDGE('',*,*,#80,.T.);
#66=ORIENTED_EDGE('',*,*,#81,.F.);
#67=ORIENTED_EDGE('',*,*,#82,.T.);
#68=ORIENTED_EDGE('',*,*,#82,.F.);
#69=ORIENTED_EDGE('',*,*,#83,.T.);
#70=ORIENTED_EDGE('',*,*,#83,.F.);
#71=EDGE_CURVE('',#84,#84,#97,.T.);
#72=EDGE_CURVE('',#85,#85,#98,.T.);
#73=EDGE_CURVE('',#86,#86,#99,.T.);
#74=EDGE_CURVE('',#87,#87,#100,.T.);
#75=EDGE_CURVE('',#88,#88,#101,.T.);
#76=EDGE_CURVE('',#89,#89,#102,.T.);
#77=EDGE_CURVE('',#90,#90,#103,.T.);
#78=EDGE_CURVE('',#91,#91,#104,.T.);
#79=EDGE_CURVE('',#92,#92,#105,.T.);
#80=EDGE_CURVE('',#93,#93,#106,.T.);
#81=EDGE_CURVE('',#94,#94,#107,.T.);
#82=EDGE_CURVE('',#95,#95,#108,.T.);
#83=EDGE_CURVE('',#96,#96,#109,.T.);
#84=VERTEX_POINT('',#324);
#85=VERTEX_POINT('',#326);
#86=VERTEX_POINT('',#329);
#87=VERTEX_POINT('',#332);
#88=VERTEX_POINT('',#335);
#89=VERTEX_POINT('',#339);
#90=VERTEX_POINT('',#344);
#91=VERTEX_POINT('',#347);
#92=VERTEX_POINT('',#350);
#93=VERTEX_POINT('',#353);
#94=VERTEX_POINT('',#356);
#95=VERTEX_POINT('',#361);
#96=VERTEX_POINT('',#364);
#97=CIRCLE('',#224,4.);
#98=CIRCLE('',#225,3.4);
#99=CIRCLE('',#227,3.95);
#100=CIRCLE('',#229,3.);
#101=CIRCLE('',#231,4.);
#102=CIRCLE('',#234,3.);
#103=CIRCLE('',#238,3.15112050802784);
#104=CIRCLE('',#240,3.9998254);
#105=CIRCLE('',#242,3.95);
#106=CIRCLE('',#244,4.);
#107=CIRCLE('',#246,4.);
#108=CIRCLE('',#250,3.15112050802784);
#109=CIRCLE('',#252,3.1338);
#110=EDGE_LOOP('',(#45));
#111=EDGE_LOOP('',(#46));
#112=EDGE_LOOP('',(#47));
#113=EDGE_LOOP('',(#48));
#114=EDGE_LOOP('',(#49));
#115=EDGE_LOOP('',(#50));
#116=EDGE_LOOP('',(#51));
#117=EDGE_LOOP('',(#52));
#118=EDGE_LOOP('',(#53));
#119=EDGE_LOOP('',(#54));
#120=EDGE_LOOP('',(#55));
#121=EDGE_LOOP('',(#56));
#122=EDGE_LOOP('',(#57));
#123=EDGE_LOOP('',(#58));
#124=EDGE_LOOP('',(#59));
#125=EDGE_LOOP('',(#60));
#126=EDGE_LOOP('',(#61));
#127=EDGE_LOOP('',(#62));
#128=EDGE_LOOP('',(#63));
#129=EDGE_LOOP('',(#64));
#130=EDGE_LOOP('',(#65));
#131=EDGE_LOOP('',(#66));
#132=EDGE_LOOP('',(#67));
#133=EDGE_LOOP('',(#68));
#134=EDGE_LOOP('',(#69));
#135=EDGE_LOOP('',(#70));
#136=FACE_BOUND('',#110,.T.);
#137=FACE_BOUND('',#111,.T.);
#138=FACE_BOUND('',#112,.T.);
#139=FACE_BOUND('',#113,.T.);
#140=FACE_BOUND('',#114,.T.);
#141=FACE_BOUND('',#115,.T.);
#142=FACE_BOUND('',#116,.T.);
#143=FACE_BOUND('',#117,.T.);
#144=FACE_BOUND('',#118,.T.);
#145=FACE_BOUND('',#119,.T.);
#146=FACE_BOUND('',#120,.T.);
#147=FACE_BOUND('',#121,.T.);
#148=FACE_BOUND('',#122,.T.);
#149=FACE_BOUND('',#123,.T.);
#150=FACE_BOUND('',#124,.T.);
#151=FACE_BOUND('',#125,.T.);
#152=FACE_BOUND('',#126,.T.);
#153=FACE_BOUND('',#127,.T.);
#154=FACE_BOUND('',#128,.T.);
#155=FACE_BOUND('',#129,.T.);
#156=FACE_BOUND('',#130,.T.);
#157=FACE_BOUND('',#131,.T.);
#158=FACE_BOUND('',#132,.T.);
#159=FACE_BOUND('',#133,.T.);
#160=FACE_BOUND('',#134,.T.);
#161=FACE_BOUND('',#135,.T.);
#162=CONICAL_SURFACE('',#223,4.,0.7853981625);
#163=CONICAL_SURFACE('',#228,4.,0.7853981625);
#164=CONICAL_SURFACE('',#235,3.,0.7853981625);
#165=CONICAL_SURFACE('',#239,3.1338,1.04719755);
#166=CONICAL_SURFACE('',#243,3.9998254,0.0174532925);
#167=CONICAL_SURFACE('',#245,4.,0.7853981625);
#168=CONICAL_SURFACE('',#251,3.1338,1.04719755);
#169=ADVANCED_FACE('',(#136,#137),#162,.T.);
#170=ADVANCED_FACE('',(#138),#39,.F.);
#171=ADVANCED_FACE('',(#139,#140),#163,.T.);
#172=ADVANCED_FACE('',(#141,#142),#36,.T.);
#173=ADVANCED_FACE('',(#143),#40,.T.);
#174=ADVANCED_FACE('',(#144,#145),#37,.T.);
#175=ADVANCED_FACE('',(#146,#147),#164,.T.);
#176=ADVANCED_FACE('',(#148),#41,.F.);
#177=ADVANCED_FACE('',(#149,#150),#165,.T.);
#178=ADVANCED_FACE('',(#151),#42,.T.);
#179=ADVANCED_FACE('',(#152,#153),#166,.T.);
#180=ADVANCED_FACE('',(#154,#155),#167,.T.);
#181=ADVANCED_FACE('',(#156,#157),#38,.T.);
#182=ADVANCED_FACE('',(#158),#43,.T.);
#183=ADVANCED_FACE('',(#159,#160),#168,.T.);
#184=ADVANCED_FACE('',(#161),#44,.F.);
#185=CLOSED_SHELL('',(#169,#170,#171,#172,#173,#174,#175));
#186=CLOSED_SHELL('',(#176,#177,#178,#179,#180,#181));
#187=CLOSED_SHELL('',(#182,#183,#184));
#188=STYLED_ITEM('',(#191),#211);
#189=STYLED_ITEM('',(#192),#212);
#190=STYLED_ITEM('',(#193),#213);
#191=PRESENTATION_STYLE_ASSIGNMENT((#194));
#192=PRESENTATION_STYLE_ASSIGNMENT((#195));
#193=PRESENTATION_STYLE_ASSIGNMENT((#196));
#194=SURFACE_STYLE_USAGE(.BOTH.,#197);
#195=SURFACE_STYLE_USAGE(.BOTH.,#198);
#196=SURFACE_STYLE_USAGE(.BOTH.,#199);
#197=SURFACE_SIDE_STYLE('',(#200));
#198=SURFACE_SIDE_STYLE('',(#201));
#199=SURFACE_SIDE_STYLE('',(#202));
#200=SURFACE_STYLE_FILL_AREA(#203);
#201=SURFACE_STYLE_FILL_AREA(#204);
#202=SURFACE_STYLE_FILL_AREA(#205);
#203=FILL_AREA_STYLE('',(#206));
#204=FILL_AREA_STYLE('',(#207));
#205=FILL_AREA_STYLE('',(#208));
#206=FILL_AREA_STYLE_COLOUR('',#209);
#207=FILL_AREA_STYLE_COLOUR('',#210);
#208=FILL_AREA_STYLE_COLOUR('',#209);
#209=COLOUR_RGB('',0.4999923706,0.4999923706,0.4999923706);
#210=COLOUR_RGB('',0.8000000119,0.8000000119,0.8000000119);
#211=MANIFOLD_SOLID_BREP('1',#185);
#212=MANIFOLD_SOLID_BREP('1',#186);
#213=MANIFOLD_SOLID_BREP('1',#187);
#214=SHAPE_DEFINITION_REPRESENTATION(#379,#218);
#215=SHAPE_DEFINITION_REPRESENTATION(#380,#219);
#216=SHAPE_DEFINITION_REPRESENTATION(#382,#220);
#217=SHAPE_DEFINITION_REPRESENTATION(#384,#221);
#218=SHAPE_REPRESENTATION('1678 8.000',(#222,#236,#248,#254),#368);
#219=SHAPE_REPRESENTATION('1678 8.000_PART1',(#222),#369);
#220=SHAPE_REPRESENTATION('1678 8.000_PART2',(#222),#370);
#221=SHAPE_REPRESENTATION('1678 8.000_PART3',(#222),#371);
#222=AXIS2_PLACEMENT_3D('',#321,#255,#256);
#223=AXIS2_PLACEMENT_3D('',#322,#257,#258);
#224=AXIS2_PLACEMENT_3D('',#323,#259,#260);
#225=AXIS2_PLACEMENT_3D('',#325,#261,#262);
#226=AXIS2_PLACEMENT_3D('',#327,#263,#264);
#227=AXIS2_PLACEMENT_3D('',#328,#265,#266);
#228=AXIS2_PLACEMENT_3D('',#330,#267,#268);
#229=AXIS2_PLACEMENT_3D('',#331,#269,#270);
#230=AXIS2_PLACEMENT_3D('',#333,#271,#272);
#231=AXIS2_PLACEMENT_3D('',#334,#273,#274);
#232=AXIS2_PLACEMENT_3D('',#336,#275,#276);
#233=AXIS2_PLACEMENT_3D('',#337,#277,#278);
#234=AXIS2_PLACEMENT_3D('',#338,#279,#280);
#235=AXIS2_PLACEMENT_3D('',#340,#281,#282);
#236=AXIS2_PLACEMENT_3D('',#341,#283,#284);
#237=AXIS2_PLACEMENT_3D('',#342,#285,#286);
#238=AXIS2_PLACEMENT_3D('',#343,#287,#288);
#239=AXIS2_PLACEMENT_3D('',#345,#289,#290);
#240=AXIS2_PLACEMENT_3D('',#346,#291,#292);
#241=AXIS2_PLACEMENT_3D('',#348,#293,#294);
#242=AXIS2_PLACEMENT_3D('',#349,#295,#296);
#243=AXIS2_PLACEMENT_3D('',#351,#297,#298);
#244=AXIS2_PLACEMENT_3D('',#352,#299,#300);
#245=AXIS2_PLACEMENT_3D('',#354,#301,#302);
#246=AXIS2_PLACEMENT_3D('',#355,#303,#304);
#247=AXIS2_PLACEMENT_3D('',#357,#305,#306);
#248=AXIS2_PLACEMENT_3D('',#358,#307,#308);
#249=AXIS2_PLACEMENT_3D('',#359,#309,#310);
#250=AXIS2_PLACEMENT_3D('',#360,#311,#312);
#251=AXIS2_PLACEMENT_3D('',#362,#313,#314);
#252=AXIS2_PLACEMENT_3D('',#363,#315,#316);
#253=AXIS2_PLACEMENT_3D('',#365,#317,#318);
#254=AXIS2_PLACEMENT_3D('',#366,#319,#320);
#255=DIRECTION('',(0.,0.,1.));
#256=DIRECTION('',(1.,0.,0.));
#257=DIRECTION('',(-6.67367472705222E-17,0.,-1.));
#258=DIRECTION('',(-1.,0.,6.67367472705222E-17));
#259=DIRECTION('',(0.,0.,-1.));
#260=DIRECTION('',(1.,0.,0.));
#261=DIRECTION('',(0.,0.,1.));
#262=DIRECTION('',(1.,0.,0.));
#263=DIRECTION('',(0.,0.,1.));
#264=DIRECTION('',(1.,0.,0.));
#265=DIRECTION('',(0.,0.,1.));
#266=DIRECTION('',(1.,0.,0.));
#267=DIRECTION('',(0.,0.,-1.));
#268=DIRECTION('',(0.,-1.,0.));
#269=DIRECTION('',(0.,0.,1.));
#270=DIRECTION('',(-1.,0.,0.));
#271=DIRECTION('',(0.,0.,1.));
#272=DIRECTION('',(-1.,0.,0.));
#273=DIRECTION('',(0.,0.,1.));
#274=DIRECTION('',(1.,0.,0.));
#275=DIRECTION('',(0.,0.,1.));
#276=DIRECTION('',(1.,0.,0.));
#277=DIRECTION('',(0.,0.,-1.));
#278=DIRECTION('',(0.,1.,0.));
#279=DIRECTION('',(0.,0.,1.));
#280=DIRECTION('',(0.,1.,0.));
#281=DIRECTION('',(0.,0.,1.));
#282=DIRECTION('',(0.,1.,0.));
#283=DIRECTION('',(0.,0.,1.));
#284=DIRECTION('',(1.,0.,0.));
#285=DIRECTION('',(0.,0.,1.));
#286=DIRECTION('',(1.,0.,0.));
#287=DIRECTION('',(0.,0.,1.));
#288=DIRECTION('',(1.,0.,0.));
#289=DIRECTION('',(0.,0.,1.));
#290=DIRECTION('',(0.,1.,0.));
#291=DIRECTION('',(0.,0.,1.));
#292=DIRECTION('',(0.,1.,0.));
#293=DIRECTION('',(0.,0.,1.));
#294=DIRECTION('',(1.,0.,0.));
#295=DIRECTION('',(0.,0.,1.));
#296=DIRECTION('',(1.,0.,0.));
#297=DIRECTION('',(0.,0.,1.));
#298=DIRECTION('',(0.,1.,0.));
#299=DIRECTION('',(0.,0.,1.));
#300=DIRECTION('',(1.,0.,0.));
#301=DIRECTION('',(0.,0.,-1.));
#302=DIRECTION('',(0.,-1.,0.));
#303=DIRECTION('',(0.,0.,1.));
#304=DIRECTION('',(0.,1.,0.));
#305=DIRECTION('',(0.,0.,-1.));
#306=DIRECTION('',(0.,1.,0.));
#307=DIRECTION('',(0.,0.,1.));
#308=DIRECTION('',(1.,0.,0.));
#309=DIRECTION('',(0.,0.,1.));
#310=DIRECTION('',(1.,0.,0.));
#311=DIRECTION('',(0.,0.,1.));
#312=DIRECTION('',(1.,0.,0.));
#313=DIRECTION('',(0.,0.,1.));
#314=DIRECTION('',(0.,1.,0.));
#315=DIRECTION('',(0.,0.,1.));
#316=DIRECTION('',(0.,1.,0.));
#317=DIRECTION('',(0.,0.,1.));
#318=DIRECTION('',(1.,0.,0.));
#319=DIRECTION('',(0.,0.,1.));
#320=DIRECTION('',(1.,0.,0.));
#321=CARTESIAN_POINT('',(0.,0.,0.));
#322=CARTESIAN_POINT('',(0.,0.,-0.600000000000001));
#323=CARTESIAN_POINT('',(0.,0.,-0.600000000010001));
#324=CARTESIAN_POINT('',(4.,0.,-0.600000000010001));
#325=CARTESIAN_POINT('',(0.,0.,0.));
#326=CARTESIAN_POINT('',(3.4,0.,0.));
#327=CARTESIAN_POINT('',(0.,0.,-84.95));
#328=CARTESIAN_POINT('',(1.00006259019705E-11,-1.00136414532036E-11,-84.95000000001));
#329=CARTESIAN_POINT('',(3.95000000001,-1.00136414532036E-11,-84.95000000001));
#330=CARTESIAN_POINT('',(0.,-1.36414532035626E-14,-85.));
#331=CARTESIAN_POINT('',(0.,-1.36414532035626E-14,-83.9999999982051));
#332=CARTESIAN_POINT('',(-3.,-1.36414532035626E-14,-83.9999999982051));
#333=CARTESIAN_POINT('',(0.,0.,0.));
#334=CARTESIAN_POINT('',(0.,-5.93804433566841E-15,-35.9999999982051));
#335=CARTESIAN_POINT('',(4.,-5.93804433566841E-15,-35.9999999982051));
#336=CARTESIAN_POINT('',(0.,0.,0.));
#337=CARTESIAN_POINT('',(0.,0.,-2.7896521898052E-15));
#338=CARTESIAN_POINT('',(0.,-1.00059380443357E-11,-37.00000000001));
#339=CARTESIAN_POINT('',(0.,2.99999999998999,-37.00000000001));
#340=CARTESIAN_POINT('',(0.,-5.93804433566841E-15,-37.));
#341=CARTESIAN_POINT('',(0.,0.,0.));
#342=CARTESIAN_POINT('',(0.,0.,-100.99));
#343=CARTESIAN_POINT('',(0.,-1.62092561595273E-14,-100.99));
#344=CARTESIAN_POINT('',(3.15112050802784,-1.62092561595273E-14,-100.99));
#345=CARTESIAN_POINT('',(0.,-1.62092561595273E-14,-101.));
#346=CARTESIAN_POINT('',(0.,-1.00161290123172E-11,-100.50000000001));
#347=CARTESIAN_POINT('',(0.,3.99982539998998,-100.50000000001));
#348=CARTESIAN_POINT('',(0.,0.,-84.95));
#349=CARTESIAN_POINT('',(1.00006259019705E-11,-1.00136414532036E-11,-84.95000000001));
#350=CARTESIAN_POINT('',(3.95000000001,-1.00136414532036E-11,-84.95000000001));
#351=CARTESIAN_POINT('',(0.,-1.61290123171534E-14,-100.5));
#352=CARTESIAN_POINT('',(0.,-1.61290123171534E-14,-100.489997172688));
#353=CARTESIAN_POINT('',(4.,-1.61290123171534E-14,-100.489997172688));
#354=CARTESIAN_POINT('',(0.,-1.36414532035626E-14,-85.));
#355=CARTESIAN_POINT('',(0.,-1.00136414532036E-11,-85.00000000001));
#356=CARTESIAN_POINT('',(0.,3.99999999998999,-85.00000000001));
#357=CARTESIAN_POINT('',(0.,0.,-2.7896521898052E-15));
#358=CARTESIAN_POINT('',(0.,0.,0.));
#359=CARTESIAN_POINT('',(0.,0.,-100.99));
#360=CARTESIAN_POINT('',(0.,-1.62092561595273E-14,-100.99));
#361=CARTESIAN_POINT('',(3.15112050802784,-1.62092561595273E-14,-100.99));
#362=CARTESIAN_POINT('',(0.,-1.62092561595273E-14,-101.));
#363=CARTESIAN_POINT('',(0.,-1.00162092561595E-11,-101.00000000001));
#364=CARTESIAN_POINT('',(0.,3.13379999998998,-101.00000000001));
#365=CARTESIAN_POINT('',(0.,-1.60982338570648E-14,-101.));
#366=CARTESIAN_POINT('',(0.,0.,0.));
#367=MECHANICAL_DESIGN_GEOMETRIC_PRESENTATION_REPRESENTATION('',(#188,#189,
#190),#368);
#368=(
GEOMETRIC_REPRESENTATION_CONTEXT(3)
GLOBAL_UNCERTAINTY_ASSIGNED_CONTEXT((#372))
GLOBAL_UNIT_ASSIGNED_CONTEXT((#378,#377,#376))
REPRESENTATION_CONTEXT('1678 8.000','TOP_LEVEL_ASSEMBLY_PART')
);
#369=(
GEOMETRIC_REPRESENTATION_CONTEXT(3)
GLOBAL_UNCERTAINTY_ASSIGNED_CONTEXT((#373))
GLOBAL_UNIT_ASSIGNED_CONTEXT((#378,#377,#376))
REPRESENTATION_CONTEXT('1678 8.000_PART1','COMPONENT_PART')
);
#370=(
GEOMETRIC_REPRESENTATION_CONTEXT(3)
GLOBAL_UNCERTAINTY_ASSIGNED_CONTEXT((#374))
GLOBAL_UNIT_ASSIGNED_CONTEXT((#378,#377,#376))
REPRESENTATION_CONTEXT('1678 8.000_PART2','COMPONENT_PART')
);
#371=(
GEOMETRIC_REPRESENTATION_CONTEXT(3)
GLOBAL_UNCERTAINTY_ASSIGNED_CONTEXT((#375))
GLOBAL_UNIT_ASSIGNED_CONTEXT((#378,#377,#376))
REPRESENTATION_CONTEXT('1678 8.000_PART3','COMPONENT_PART')
);
#372=UNCERTAINTY_MEASURE_WITH_UNIT(LENGTH_MEASURE(1.E-5),#378,
'DISTANCE_ACCURACY_VALUE','Maximum Tolerance applied to model');
#373=UNCERTAINTY_MEASURE_WITH_UNIT(LENGTH_MEASURE(1.E-5),#378,
'DISTANCE_ACCURACY_VALUE','Maximum Tolerance applied to model');
#374=UNCERTAINTY_MEASURE_WITH_UNIT(LENGTH_MEASURE(1.E-5),#378,
'DISTANCE_ACCURACY_VALUE','Maximum Tolerance applied to model');
#375=UNCERTAINTY_MEASURE_WITH_UNIT(LENGTH_MEASURE(1.E-5),#378,
'DISTANCE_ACCURACY_VALUE','Maximum Tolerance applied to model');
#376=(
NAMED_UNIT(*)
SI_UNIT($,.STERADIAN.)
SOLID_ANGLE_UNIT()
);
#377=(
NAMED_UNIT(*)
PLANE_ANGLE_UNIT()
SI_UNIT($,.RADIAN.)
);
#378=(
LENGTH_UNIT()
NAMED_UNIT(*)
SI_UNIT(.MILLI.,.METRE.)
);
#379=PRODUCT_DEFINITION_SHAPE('','',#386);
#380=PRODUCT_DEFINITION_SHAPE('','',#387);
#381=PRODUCT_DEFINITION_SHAPE(' ','NAUO PRDDFN',#21);
#382=PRODUCT_DEFINITION_SHAPE('','',#388);
#383=PRODUCT_DEFINITION_SHAPE(' ','NAUO PRDDFN',#22);
#384=PRODUCT_DEFINITION_SHAPE('','',#389);
#385=PRODUCT_DEFINITION_SHAPE(' ','NAUO PRDDFN',#23);
#386=PRODUCT_DEFINITION('','',#394,#390);
#387=PRODUCT_DEFINITION('','',#395,#391);
#388=PRODUCT_DEFINITION('','',#396,#392);
#389=PRODUCT_DEFINITION('','',#397,#393);
#390=PRODUCT_DEFINITION_CONTEXT('',#415,'design');
#391=PRODUCT_DEFINITION_CONTEXT('',#415,'design');
#392=PRODUCT_DEFINITION_CONTEXT('',#415,'design');
#393=PRODUCT_DEFINITION_CONTEXT('',#415,'design');
#394=PRODUCT_DEFINITION_FORMATION_WITH_SPECIFIED_SOURCE('','',#402,
 .NOT_KNOWN.);
#395=PRODUCT_DEFINITION_FORMATION_WITH_SPECIFIED_SOURCE('','',#403,
 .NOT_KNOWN.);
#396=PRODUCT_DEFINITION_FORMATION_WITH_SPECIFIED_SOURCE('','',#404,
 .NOT_KNOWN.);
#397=PRODUCT_DEFINITION_FORMATION_WITH_SPECIFIED_SOURCE('','',#405,
 .NOT_KNOWN.);
#398=PRODUCT_RELATED_PRODUCT_CATEGORY('','',(#402));
#399=PRODUCT_RELATED_PRODUCT_CATEGORY('','',(#403));
#400=PRODUCT_RELATED_PRODUCT_CATEGORY('','',(#404));
#401=PRODUCT_RELATED_PRODUCT_CATEGORY('','',(#405));
#402=PRODUCT('1678 8.000','1678 8.000','1678 8.000',(#410));
#403=PRODUCT('1678 8.000_PART1','1678 8.000_PART1','1678 8.000_PART1',(#411));
#404=PRODUCT('1678 8.000_PART2','1678 8.000_PART2','1678 8.000_PART2',(#412));
#405=PRODUCT('1678 8.000_PART3','1678 8.000_PART3','1678 8.000_PART3',(#413));
#406=PRODUCT_CATEGORY('','');
#407=PRODUCT_CATEGORY('','');
#408=PRODUCT_CATEGORY('','');
#409=PRODUCT_CATEGORY('','');
#410=PRODUCT_CONTEXT('',#415,'mechanical');
#411=PRODUCT_CONTEXT('',#415,'mechanical');
#412=PRODUCT_CONTEXT('',#415,'mechanical');
#413=PRODUCT_CONTEXT('',#415,'mechanical');
#414=APPLICATION_PROTOCOL_DEFINITION('international standard',
'automotive_design',2010,#415);
#415=APPLICATION_CONTEXT(
'core data for automotive mechanical design processes');
ENDSEC;
END-ISO-10303-21;
