ISO-10303-21;
HEADER;
/* Generated by software containing ST-Developer
 * from STEP Tools, Inc. (www.steptools.com) 
 */
/* OPTION: using custom renumber hook */

FILE_DESCRIPTION(
/* description */ ('STEP AP214'),
/* implementation_level */ '2;1');

FILE_NAME(
/* name */ '1680 28.000',
/* time_stamp */ '2026-05-15T11:05:07+02:00',
/* author */ ('License CC BY-ND 4.0'),
/* organization */ ('CADENAS'),
/* preprocessor_version */ 'ST-DEVELOPER v20',
/* originating_system */ 'PARTsolutions',
/* authorisation */ '  ');

FILE_SCHEMA (('AUTOMOTIVE_DESIGN {1 0 10303 214 3 1 1}'));
ENDSEC;

DATA;
#10=PROPERTY_DEFINITION_REPRESENTATION(#14,#12);
#11=PROPERTY_DEFINITION_REPRESENTATION(#15,#13);
#12=REPRESENTATION('',(#16),#396);
#13=REPRESENTATION('',(#17),#396);
#14=PROPERTY_DEFINITION('pmi validation property','',#405);
#15=PROPERTY_DEFINITION('pmi validation property','',#405);
#16=VALUE_REPRESENTATION_ITEM('number of annotations',COUNT_MEASURE(0.));
#17=VALUE_REPRESENTATION_ITEM('number of views',COUNT_MEASURE(0.));
#18=CONTEXT_DEPENDENT_SHAPE_REPRESENTATION(#22,#407);
#19=CONTEXT_DEPENDENT_SHAPE_REPRESENTATION(#23,#409);
#20=NEXT_ASSEMBLY_USAGE_OCCURRENCE('NAUO1','1680 28.000_PART1',
'1680 28.000_PART1',#410,#411,'');
#21=NEXT_ASSEMBLY_USAGE_OCCURRENCE('NAUO2','1680 28.000_PART2',
'1680 28.000_PART2',#410,#412,'');
#22=(
REPRESENTATION_RELATIONSHIP(' ',' ',#230,#229)
REPRESENTATION_RELATIONSHIP_WITH_TRANSFORMATION(#24)
SHAPE_REPRESENTATION_RELATIONSHIP()
);
#23=(
REPRESENTATION_RELATIONSHIP(' ',' ',#231,#229)
REPRESENTATION_RELATIONSHIP_WITH_TRANSFORMATION(#25)
SHAPE_REPRESENTATION_RELATIONSHIP()
);
#24=ITEM_DEFINED_TRANSFORMATION(' ',' ',#232,#256);
#25=ITEM_DEFINED_TRANSFORMATION(' ',' ',#232,#268);
#26=SHAPE_REPRESENTATION_RELATIONSHIP('','',#230,#28);
#27=SHAPE_REPRESENTATION_RELATIONSHIP('','',#231,#29);
#28=ADVANCED_BREP_SHAPE_REPRESENTATION('',(#224),#397);
#29=ADVANCED_BREP_SHAPE_REPRESENTATION('',(#225),#398);
#30=CYLINDRICAL_SURFACE('',#244,10.75);
#31=CYLINDRICAL_SURFACE('',#247,12.5);
#32=CYLINDRICAL_SURFACE('',#253,10.5);
#33=CYLINDRICAL_SURFACE('',#255,10.5);
#34=CYLINDRICAL_SURFACE('',#257,14.);
#35=CONICAL_SURFACE('',#238,10.75,0.523598775);
#36=CONICAL_SURFACE('',#241,10.5,0.523598775);
#37=CONICAL_SURFACE('',#245,12.5,0.7853981625);
#38=CONICAL_SURFACE('',#249,12.5,0.523598775);
#39=CONICAL_SURFACE('',#254,10.5002929,0.7853981625);
#40=CONICAL_SURFACE('',#260,12.5277568,1.04719755);
#41=CONICAL_SURFACE('',#267,10.5002929,0.7853981625);
#42=TOROIDAL_SURFACE('',#235,10.501,0.001);
#43=ORIENTED_EDGE('',*,*,#75,.T.);
#44=ORIENTED_EDGE('',*,*,#76,.F.);
#45=ORIENTED_EDGE('',*,*,#77,.T.);
#46=ORIENTED_EDGE('',*,*,#78,.F.);
#47=ORIENTED_EDGE('',*,*,#79,.T.);
#48=ORIENTED_EDGE('',*,*,#80,.F.);
#49=ORIENTED_EDGE('',*,*,#81,.T.);
#50=ORIENTED_EDGE('',*,*,#81,.F.);
#51=ORIENTED_EDGE('',*,*,#78,.T.);
#52=ORIENTED_EDGE('',*,*,#82,.F.);
#53=ORIENTED_EDGE('',*,*,#75,.F.);
#54=ORIENTED_EDGE('',*,*,#83,.T.);
#55=ORIENTED_EDGE('',*,*,#82,.T.);
#56=ORIENTED_EDGE('',*,*,#83,.F.);
#57=ORIENTED_EDGE('',*,*,#84,.F.);
#58=ORIENTED_EDGE('',*,*,#85,.F.);
#59=ORIENTED_EDGE('',*,*,#84,.T.);
#60=ORIENTED_EDGE('',*,*,#80,.T.);
#61=ORIENTED_EDGE('',*,*,#76,.T.);
#62=ORIENTED_EDGE('',*,*,#85,.T.);
#63=ORIENTED_EDGE('',*,*,#77,.F.);
#64=ORIENTED_EDGE('',*,*,#79,.F.);
#65=ORIENTED_EDGE('',*,*,#86,.F.);
#66=ORIENTED_EDGE('',*,*,#87,.T.);
#67=ORIENTED_EDGE('',*,*,#88,.F.);
#68=ORIENTED_EDGE('',*,*,#86,.T.);
#69=ORIENTED_EDGE('',*,*,#88,.T.);
#70=ORIENTED_EDGE('',*,*,#89,.T.);
#71=ORIENTED_EDGE('',*,*,#87,.F.);
#72=ORIENTED_EDGE('',*,*,#90,.T.);
#73=ORIENTED_EDGE('',*,*,#89,.F.);
#74=ORIENTED_EDGE('',*,*,#90,.F.);
#75=EDGE_CURVE('',#91,#91,#106,.T.);
#76=EDGE_CURVE('',#92,#92,#107,.T.);
#77=EDGE_CURVE('',#92,#92,#108,.T.);
#78=EDGE_CURVE('',#93,#93,#109,.T.);
#79=EDGE_CURVE('',#94,#94,#110,.T.);
#80=EDGE_CURVE('',#95,#95,#111,.T.);
#81=EDGE_CURVE('',#96,#96,#112,.T.);
#82=EDGE_CURVE('',#97,#97,#113,.T.);
#83=EDGE_CURVE('',#98,#98,#114,.T.);
#84=EDGE_CURVE('',#99,#99,#115,.T.);
#85=EDGE_CURVE('',#100,#100,#116,.T.);
#86=EDGE_CURVE('',#101,#101,#117,.T.);
#87=EDGE_CURVE('',#102,#102,#118,.T.);
#88=EDGE_CURVE('',#103,#103,#119,.T.);
#89=EDGE_CURVE('',#104,#104,#120,.T.);
#90=EDGE_CURVE('',#105,#105,#121,.T.);
#91=VERTEX_POINT('',#346);
#92=VERTEX_POINT('',#349);
#93=VERTEX_POINT('',#353);
#94=VERTEX_POINT('',#355);
#95=VERTEX_POINT('',#358);
#96=VERTEX_POINT('',#360);
#97=VERTEX_POINT('',#364);
#98=VERTEX_POINT('',#367);
#99=VERTEX_POINT('',#370);
#100=VERTEX_POINT('',#373);
#101=VERTEX_POINT('',#380);
#102=VERTEX_POINT('',#382);
#103=VERTEX_POINT('',#385);
#104=VERTEX_POINT('',#389);
#105=VERTEX_POINT('',#392);
#106=CIRCLE('',#234,11.5000000017949);
#107=CIRCLE('',#236,10.5002929);
#108=CIRCLE('',#237,10.5);
#109=CIRCLE('',#239,10.75);
#110=CIRCLE('',#240,10.5);
#111=CIRCLE('',#242,10.5);
#112=CIRCLE('',#243,10.75);
#113=CIRCLE('',#246,12.5);
#114=CIRCLE('',#248,12.5);
#115=CIRCLE('',#250,10.5);
#116=CIRCLE('',#252,13.15);
#117=CIRCLE('',#258,14.);
#118=CIRCLE('',#259,14.);
#119=CIRCLE('',#261,12.5277568);
#120=CIRCLE('',#264,13.15);
#121=CIRCLE('',#266,13.2);
#122=EDGE_LOOP('',(#43));
#123=EDGE_LOOP('',(#44,#45));
#124=EDGE_LOOP('',(#46));
#125=EDGE_LOOP('',(#47));
#126=EDGE_LOOP('',(#48));
#127=EDGE_LOOP('',(#49));
#128=EDGE_LOOP('',(#50));
#129=EDGE_LOOP('',(#51));
#130=EDGE_LOOP('',(#52));
#131=EDGE_LOOP('',(#53));
#132=EDGE_LOOP('',(#54));
#133=EDGE_LOOP('',(#55));
#134=EDGE_LOOP('',(#56));
#135=EDGE_LOOP('',(#57));
#136=EDGE_LOOP('',(#58));
#137=EDGE_LOOP('',(#59));
#138=EDGE_LOOP('',(#60));
#139=EDGE_LOOP('',(#61));
#140=EDGE_LOOP('',(#62));
#141=EDGE_LOOP('',(#63));
#142=EDGE_LOOP('',(#64));
#143=EDGE_LOOP('',(#65));
#144=EDGE_LOOP('',(#66));
#145=EDGE_LOOP('',(#67));
#146=EDGE_LOOP('',(#68));
#147=EDGE_LOOP('',(#69));
#148=EDGE_LOOP('',(#70));
#149=EDGE_LOOP('',(#71));
#150=EDGE_LOOP('',(#72));
#151=EDGE_LOOP('',(#73));
#152=EDGE_LOOP('',(#74));
#153=FACE_BOUND('',#122,.T.);
#154=FACE_BOUND('',#123,.T.);
#155=FACE_BOUND('',#124,.T.);
#156=FACE_BOUND('',#125,.T.);
#157=FACE_BOUND('',#126,.T.);
#158=FACE_BOUND('',#127,.T.);
#159=FACE_BOUND('',#128,.T.);
#160=FACE_BOUND('',#129,.T.);
#161=FACE_BOUND('',#130,.T.);
#162=FACE_BOUND('',#131,.T.);
#163=FACE_BOUND('',#132,.T.);
#164=FACE_BOUND('',#133,.T.);
#165=FACE_BOUND('',#134,.T.);
#166=FACE_BOUND('',#135,.T.);
#167=FACE_BOUND('',#136,.T.);
#168=FACE_BOUND('',#137,.T.);
#169=FACE_BOUND('',#138,.T.);
#170=FACE_BOUND('',#139,.T.);
#171=FACE_BOUND('',#140,.T.);
#172=FACE_BOUND('',#141,.T.);
#173=FACE_BOUND('',#142,.T.);
#174=FACE_BOUND('',#143,.T.);
#175=FACE_BOUND('',#144,.T.);
#176=FACE_BOUND('',#145,.T.);
#177=FACE_BOUND('',#146,.T.);
#178=FACE_BOUND('',#147,.T.);
#179=FACE_BOUND('',#148,.T.);
#180=FACE_BOUND('',#149,.T.);
#181=FACE_BOUND('',#150,.T.);
#182=FACE_BOUND('',#151,.T.);
#183=FACE_BOUND('',#152,.T.);
#184=PLANE('',#233);
#185=PLANE('',#251);
#186=PLANE('',#262);
#187=PLANE('',#263);
#188=PLANE('',#265);
#189=ADVANCED_FACE('',(#153),#184,.T.);
#190=ADVANCED_FACE('',(#154),#42,.F.);
#191=ADVANCED_FACE('',(#155,#156),#35,.T.);
#192=ADVANCED_FACE('',(#157,#158),#36,.T.);
#193=ADVANCED_FACE('',(#159,#160),#30,.T.);
#194=ADVANCED_FACE('',(#161,#162),#37,.T.);
#195=ADVANCED_FACE('',(#163,#164),#31,.T.);
#196=ADVANCED_FACE('',(#165,#166),#38,.T.);
#197=ADVANCED_FACE('',(#167),#185,.F.);
#198=ADVANCED_FACE('',(#168,#169),#32,.T.);
#199=ADVANCED_FACE('',(#170,#171),#39,.T.);
#200=ADVANCED_FACE('',(#172,#173),#33,.T.);
#201=ADVANCED_FACE('',(#174,#175),#34,.T.);
#202=ADVANCED_FACE('',(#176,#177),#40,.T.);
#203=ADVANCED_FACE('',(#178),#186,.T.);
#204=ADVANCED_FACE('',(#179),#187,.T.);
#205=ADVANCED_FACE('',(#180,#181),#188,.T.);
#206=ADVANCED_FACE('',(#182,#183),#41,.T.);
#207=CLOSED_SHELL('',(#189,#190,#191,#192,#193,#194,#195,#196,#197,#198,
#199,#200));
#208=CLOSED_SHELL('',(#201,#202,#203,#204,#205,#206));
#209=STYLED_ITEM('',(#211),#224);
#210=STYLED_ITEM('',(#212),#225);
#211=PRESENTATION_STYLE_ASSIGNMENT((#213));
#212=PRESENTATION_STYLE_ASSIGNMENT((#214));
#213=SURFACE_STYLE_USAGE(.BOTH.,#215);
#214=SURFACE_STYLE_USAGE(.BOTH.,#216);
#215=SURFACE_SIDE_STYLE('',(#217));
#216=SURFACE_SIDE_STYLE('',(#218));
#217=SURFACE_STYLE_FILL_AREA(#219);
#218=SURFACE_STYLE_FILL_AREA(#220);
#219=FILL_AREA_STYLE('',(#221));
#220=FILL_AREA_STYLE('',(#222));
#221=FILL_AREA_STYLE_COLOUR('',#223);
#222=FILL_AREA_STYLE_COLOUR('',#223);
#223=COLOUR_RGB('',0.4999923706,0.4999923706,0.4999923706);
#224=MANIFOLD_SOLID_BREP('1',#207);
#225=MANIFOLD_SOLID_BREP('1',#208);
#226=SHAPE_DEFINITION_REPRESENTATION(#405,#229);
#227=SHAPE_DEFINITION_REPRESENTATION(#406,#230);
#228=SHAPE_DEFINITION_REPRESENTATION(#408,#231);
#229=SHAPE_REPRESENTATION('1680 28.000',(#232,#256,#268),#396);
#230=SHAPE_REPRESENTATION('1680 28.000_PART1',(#232),#397);
#231=SHAPE_REPRESENTATION('1680 28.000_PART2',(#232),#398);
#232=AXIS2_PLACEMENT_3D('',#343,#269,#270);
#233=AXIS2_PLACEMENT_3D('',#344,#271,#272);
#234=AXIS2_PLACEMENT_3D('',#345,#273,#274);
#235=AXIS2_PLACEMENT_3D('',#347,#275,#276);
#236=AXIS2_PLACEMENT_3D('',#348,#277,#278);
#237=AXIS2_PLACEMENT_3D('',#350,#279,#280);
#238=AXIS2_PLACEMENT_3D('',#351,#281,#282);
#239=AXIS2_PLACEMENT_3D('',#352,#283,#284);
#240=AXIS2_PLACEMENT_3D('',#354,#285,#286);
#241=AXIS2_PLACEMENT_3D('',#356,#287,#288);
#242=AXIS2_PLACEMENT_3D('',#357,#289,#290);
#243=AXIS2_PLACEMENT_3D('',#359,#291,#292);
#244=AXIS2_PLACEMENT_3D('',#361,#293,#294);
#245=AXIS2_PLACEMENT_3D('',#362,#295,#296);
#246=AXIS2_PLACEMENT_3D('',#363,#297,#298);
#247=AXIS2_PLACEMENT_3D('',#365,#299,#300);
#248=AXIS2_PLACEMENT_3D('',#366,#301,#302);
#249=AXIS2_PLACEMENT_3D('',#368,#303,#304);
#250=AXIS2_PLACEMENT_3D('',#369,#305,#306);
#251=AXIS2_PLACEMENT_3D('',#371,#307,#308);
#252=AXIS2_PLACEMENT_3D('',#372,#309,#310);
#253=AXIS2_PLACEMENT_3D('',#374,#311,#312);
#254=AXIS2_PLACEMENT_3D('',#375,#313,#314);
#255=AXIS2_PLACEMENT_3D('',#376,#315,#316);
#256=AXIS2_PLACEMENT_3D('',#377,#317,#318);
#257=AXIS2_PLACEMENT_3D('',#378,#319,#320);
#258=AXIS2_PLACEMENT_3D('',#379,#321,#322);
#259=AXIS2_PLACEMENT_3D('',#381,#323,#324);
#260=AXIS2_PLACEMENT_3D('',#383,#325,#326);
#261=AXIS2_PLACEMENT_3D('',#384,#327,#328);
#262=AXIS2_PLACEMENT_3D('',#386,#329,#330);
#263=AXIS2_PLACEMENT_3D('',#387,#331,#332);
#264=AXIS2_PLACEMENT_3D('',#388,#333,#334);
#265=AXIS2_PLACEMENT_3D('',#390,#335,#336);
#266=AXIS2_PLACEMENT_3D('',#391,#337,#338);
#267=AXIS2_PLACEMENT_3D('',#393,#339,#340);
#268=AXIS2_PLACEMENT_3D('',#394,#341,#342);
#269=DIRECTION('',(0.,0.,1.));
#270=DIRECTION('',(1.,0.,0.));
#271=DIRECTION('',(0.,0.,1.));
#272=DIRECTION('',(1.,0.,0.));
#273=DIRECTION('',(0.,0.,1.));
#274=DIRECTION('',(1.,0.,0.));
#275=DIRECTION('',(0.,0.,-1.));
#276=DIRECTION('',(-1.,0.,0.));
#277=DIRECTION('',(0.,0.,-1.));
#278=DIRECTION('',(-1.,0.,0.));
#279=DIRECTION('',(0.,0.,-1.));
#280=DIRECTION('',(-1.,0.,0.));
#281=DIRECTION('',(-4.71953118706724E-17,0.,1.));
#282=DIRECTION('',(1.,0.,4.71953118706724E-17));
#283=DIRECTION('',(0.,0.,1.));
#284=DIRECTION('',(1.,0.,0.));
#285=DIRECTION('',(0.,0.,1.));
#286=DIRECTION('',(1.,0.,0.));
#287=DIRECTION('',(4.72153830156264E-17,0.,-1.));
#288=DIRECTION('',(-1.,0.,-4.72153830156264E-17));
#289=DIRECTION('',(0.,0.,1.));
#290=DIRECTION('',(1.,0.,0.));
#291=DIRECTION('',(0.,0.,1.));
#292=DIRECTION('',(1.,0.,0.));
#293=DIRECTION('',(0.,0.,-1.));
#294=DIRECTION('',(1.,0.,0.));
#295=DIRECTION('',(0.,0.,-1.));
#296=DIRECTION('',(-1.,0.,0.));
#297=DIRECTION('',(0.,0.,-1.));
#298=DIRECTION('',(1.,0.,0.));
#299=DIRECTION('',(0.,0.,1.));
#300=DIRECTION('',(-1.,0.,0.));
#301=DIRECTION('',(0.,0.,1.));
#302=DIRECTION('',(1.,0.,0.));
#303=DIRECTION('',(7.05829353619553E-17,0.,1.));
#304=DIRECTION('',(1.,0.,-7.05829353619553E-17));
#305=DIRECTION('',(0.,0.,-1.));
#306=DIRECTION('',(-1.,0.,0.));
#307=DIRECTION('',(0.,0.,1.));
#308=DIRECTION('',(1.,0.,0.));
#309=DIRECTION('',(0.,0.,1.));
#310=DIRECTION('',(1.,0.,0.));
#311=DIRECTION('',(0.,0.,1.));
#312=DIRECTION('',(-1.,0.,0.));
#313=DIRECTION('',(2.74671623658416E-17,0.,-1.));
#314=DIRECTION('',(-1.,0.,-2.74671623658416E-17));
#315=DIRECTION('',(0.,0.,1.));
#316=DIRECTION('',(-1.,0.,0.));
#317=DIRECTION('',(0.,0.,1.));
#318=DIRECTION('',(1.,0.,0.));
#319=DIRECTION('',(0.,0.,1.));
#320=DIRECTION('',(-1.,0.,0.));
#321=DIRECTION('',(0.,0.,-1.));
#322=DIRECTION('',(-1.,0.,0.));
#323=DIRECTION('',(0.,0.,-1.));
#324=DIRECTION('',(-1.,0.,0.));
#325=DIRECTION('',(-3.18192326585804E-17,0.,1.));
#326=DIRECTION('',(1.,0.,3.18192326585804E-17));
#327=DIRECTION('',(0.,0.,-1.));
#328=DIRECTION('',(-1.,0.,0.));
#329=DIRECTION('',(0.,0.,-1.));
#330=DIRECTION('',(0.,-1.,0.));
#331=DIRECTION('',(0.,0.,1.));
#332=DIRECTION('',(1.,0.,0.));
#333=DIRECTION('',(0.,0.,1.));
#334=DIRECTION('',(1.,0.,0.));
#335=DIRECTION('',(0.,0.,1.));
#336=DIRECTION('',(1.,0.,0.));
#337=DIRECTION('',(0.,0.,-1.));
#338=DIRECTION('',(-1.,0.,0.));
#339=DIRECTION('',(2.74671623658416E-17,0.,-1.));
#340=DIRECTION('',(-1.,0.,-2.74671623658416E-17));
#341=DIRECTION('',(0.,0.,1.));
#342=DIRECTION('',(1.,0.,0.));
#343=CARTESIAN_POINT('',(0.,0.,0.));
#344=CARTESIAN_POINT('',(0.,0.,0.));
#345=CARTESIAN_POINT('',(0.,0.,0.));
#346=CARTESIAN_POINT('',(11.5000000017949,0.,0.));
#347=CARTESIAN_POINT('',(0.,0.,-152.299585786438));
#348=CARTESIAN_POINT('',(0.,0.,-152.300292893229));
#349=CARTESIAN_POINT('',(-10.50014645,0.,-152.299939339838));
#350=CARTESIAN_POINT('',(0.,0.,-152.299585786448));
#351=CARTESIAN_POINT('',(0.,0.,-143.066987298108));
#352=CARTESIAN_POINT('',(0.,0.,-143.066987298118));
#353=CARTESIAN_POINT('',(10.75,0.,-143.066987298118));
#354=CARTESIAN_POINT('',(0.,0.,-143.50000000001));
#355=CARTESIAN_POINT('',(10.5,0.,-143.50000000001));
#356=CARTESIAN_POINT('',(0.,0.,-137.633974596216));
#357=CARTESIAN_POINT('',(0.,0.,-137.633974596226));
#358=CARTESIAN_POINT('',(10.5,0.,-137.633974596226));
#359=CARTESIAN_POINT('',(0.,0.,-138.066987298118));
#360=CARTESIAN_POINT('',(10.75,0.,-138.066987298118));
#361=CARTESIAN_POINT('',(0.,0.,0.));
#362=CARTESIAN_POINT('',(0.,0.,-1.));
#363=CARTESIAN_POINT('',(0.,0.,-1.00000000001));
#364=CARTESIAN_POINT('',(12.5,0.,-1.00000000001));
#365=CARTESIAN_POINT('',(0.,0.,0.));
#366=CARTESIAN_POINT('',(0.,0.,-56.00000000001));
#367=CARTESIAN_POINT('',(12.5,0.,-56.00000000001));
#368=CARTESIAN_POINT('',(0.,0.,-56.));
#369=CARTESIAN_POINT('',(0.,0.,-59.4641016151478));
#370=CARTESIAN_POINT('',(-10.5,0.,-59.4641016151478));
#371=CARTESIAN_POINT('',(0.,0.,-154.95));
#372=CARTESIAN_POINT('',(0.,0.,-154.95000000001));
#373=CARTESIAN_POINT('',(13.15,0.,-154.95000000001));
#374=CARTESIAN_POINT('',(0.,0.,-179.5));
#375=CARTESIAN_POINT('',(0.,0.,-152.300292893219));
#376=CARTESIAN_POINT('',(0.,0.,-179.5));
#377=CARTESIAN_POINT('',(0.,0.,0.));
#378=CARTESIAN_POINT('',(0.,0.,0.));
#379=CARTESIAN_POINT('',(0.,0.,-179.15000000001));
#380=CARTESIAN_POINT('',(-14.,0.,-179.15000000001));
#381=CARTESIAN_POINT('',(0.,0.,-155.00000000001));
#382=CARTESIAN_POINT('',(-14.,0.,-155.00000000001));
#383=CARTESIAN_POINT('',(0.,0.,-180.));
#384=CARTESIAN_POINT('',(0.,0.,-180.00000000001));
#385=CARTESIAN_POINT('',(-12.5277568,0.,-180.00000000001));
#386=CARTESIAN_POINT('',(0.,0.,-180.));
#387=CARTESIAN_POINT('',(0.,0.,-154.95));
#388=CARTESIAN_POINT('',(0.,0.,-154.95000000001));
#389=CARTESIAN_POINT('',(13.15,0.,-154.95000000001));
#390=CARTESIAN_POINT('',(0.,14.,-155.));
#391=CARTESIAN_POINT('',(0.,0.,-155.00000000001));
#392=CARTESIAN_POINT('',(-13.2,0.,-155.00000000001));
#393=CARTESIAN_POINT('',(0.,0.,-152.300292893219));
#394=CARTESIAN_POINT('',(0.,0.,0.));
#395=MECHANICAL_DESIGN_GEOMETRIC_PRESENTATION_REPRESENTATION('',(#209,#210),
#396);
#396=(
GEOMETRIC_REPRESENTATION_CONTEXT(3)
GLOBAL_UNCERTAINTY_ASSIGNED_CONTEXT((#399))
GLOBAL_UNIT_ASSIGNED_CONTEXT((#404,#403,#402))
REPRESENTATION_CONTEXT('1680 28.000','TOP_LEVEL_ASSEMBLY_PART')
);
#397=(
GEOMETRIC_REPRESENTATION_CONTEXT(3)
GLOBAL_UNCERTAINTY_ASSIGNED_CONTEXT((#400))
GLOBAL_UNIT_ASSIGNED_CONTEXT((#404,#403,#402))
REPRESENTATION_CONTEXT('1680 28.000_PART1','COMPONENT_PART')
);
#398=(
GEOMETRIC_REPRESENTATION_CONTEXT(3)
GLOBAL_UNCERTAINTY_ASSIGNED_CONTEXT((#401))
GLOBAL_UNIT_ASSIGNED_CONTEXT((#404,#403,#402))
REPRESENTATION_CONTEXT('1680 28.000_PART2','COMPONENT_PART')
);
#399=UNCERTAINTY_MEASURE_WITH_UNIT(LENGTH_MEASURE(1.E-5),#404,
'DISTANCE_ACCURACY_VALUE','Maximum Tolerance applied to model');
#400=UNCERTAINTY_MEASURE_WITH_UNIT(LENGTH_MEASURE(1.E-5),#404,
'DISTANCE_ACCURACY_VALUE','Maximum Tolerance applied to model');
#401=UNCERTAINTY_MEASURE_WITH_UNIT(LENGTH_MEASURE(1.E-5),#404,
'DISTANCE_ACCURACY_VALUE','Maximum Tolerance applied to model');
#402=(
NAMED_UNIT(*)
SI_UNIT($,.STERADIAN.)
SOLID_ANGLE_UNIT()
);
#403=(
NAMED_UNIT(*)
PLANE_ANGLE_UNIT()
SI_UNIT($,.RADIAN.)
);
#404=(
LENGTH_UNIT()
NAMED_UNIT(*)
SI_UNIT(.MILLI.,.METRE.)
);
#405=PRODUCT_DEFINITION_SHAPE('','',#410);
#406=PRODUCT_DEFINITION_SHAPE('','',#411);
#407=PRODUCT_DEFINITION_SHAPE(' ','NAUO PRDDFN',#20);
#408=PRODUCT_DEFINITION_SHAPE('','',#412);
#409=PRODUCT_DEFINITION_SHAPE(' ','NAUO PRDDFN',#21);
#410=PRODUCT_DEFINITION('','',#416,#413);
#411=PRODUCT_DEFINITION('','',#417,#414);
#412=PRODUCT_DEFINITION('','',#418,#415);
#413=PRODUCT_DEFINITION_CONTEXT('',#432,'design');
#414=PRODUCT_DEFINITION_CONTEXT('',#432,'design');
#415=PRODUCT_DEFINITION_CONTEXT('',#432,'design');
#416=PRODUCT_DEFINITION_FORMATION_WITH_SPECIFIED_SOURCE('','',#422,
 .NOT_KNOWN.);
#417=PRODUCT_DEFINITION_FORMATION_WITH_SPECIFIED_SOURCE('','',#423,
 .NOT_KNOWN.);
#418=PRODUCT_DEFINITION_FORMATION_WITH_SPECIFIED_SOURCE('','',#424,
 .NOT_KNOWN.);
#419=PRODUCT_RELATED_PRODUCT_CATEGORY('','',(#422));
#420=PRODUCT_RELATED_PRODUCT_CATEGORY('','',(#423));
#421=PRODUCT_RELATED_PRODUCT_CATEGORY('','',(#424));
#422=PRODUCT('1680 28.000','1680 28.000','1680 28.000',(#428));
#423=PRODUCT('1680 28.000_PART1','1680 28.000_PART1',
'1680 28.000_PART1',(#429));
#424=PRODUCT('1680 28.000_PART2','1680 28.000_PART2',
'1680 28.000_PART2',(#430));
#425=PRODUCT_CATEGORY('','');
#426=PRODUCT_CATEGORY('','');
#427=PRODUCT_CATEGORY('','');
#428=PRODUCT_CONTEXT('',#432,'mechanical');
#429=PRODUCT_CONTEXT('',#432,'mechanical');
#430=PRODUCT_CONTEXT('',#432,'mechanical');
#431=APPLICATION_PROTOCOL_DEFINITION('international standard',
'automotive_design',2010,#432);
#432=APPLICATION_CONTEXT(
'core data for automotive mechanical design processes');
ENDSEC;
END-ISO-10303-21;
