ISO-10303-21;
HEADER;
/* Generated by software containing ST-Developer
 * from STEP Tools, Inc. (www.steptools.com) 
 */
/* OPTION: using custom renumber hook */

FILE_DESCRIPTION(
/* description */ ('STEP AP214'),
/* implementation_level */ '2;1');

FILE_NAME(
/* name */ '1839 5.000',
/* time_stamp */ '2026-05-14T15:27:50+02:00',
/* author */ ('License CC BY-ND 4.0'),
/* organization */ ('CADENAS'),
/* preprocessor_version */ 'ST-DEVELOPER v20',
/* originating_system */ 'PARTsolutions',
/* authorisation */ '  ');

FILE_SCHEMA (('AUTOMOTIVE_DESIGN {1 0 10303 214 3 1 1}'));
ENDSEC;

DATA;
#10=PROPERTY_DEFINITION_REPRESENTATION(#14,#12);
#11=PROPERTY_DEFINITION_REPRESENTATION(#15,#13);
#12=REPRESENTATION('',(#16),#490);
#13=REPRESENTATION('',(#17),#490);
#14=PROPERTY_DEFINITION('pmi validation property','',#499);
#15=PROPERTY_DEFINITION('pmi validation property','',#499);
#16=VALUE_REPRESENTATION_ITEM('number of annotations',COUNT_MEASURE(0.));
#17=VALUE_REPRESENTATION_ITEM('number of views',COUNT_MEASURE(0.));
#18=TOROIDAL_SURFACE('',#319,2.521,0.001);
#19=CONTEXT_DEPENDENT_SHAPE_REPRESENTATION(#23,#501);
#20=CONTEXT_DEPENDENT_SHAPE_REPRESENTATION(#24,#503);
#21=NEXT_ASSEMBLY_USAGE_OCCURRENCE('NAUO1','1839 5.000_PART1',
'1839 5.000_PART1',#504,#505,'');
#22=NEXT_ASSEMBLY_USAGE_OCCURRENCE('NAUO2','1839 5.000_PART2',
'1839 5.000_PART2',#504,#506,'');
#23=(
REPRESENTATION_RELATIONSHIP(' ',' ',#280,#279)
REPRESENTATION_RELATIONSHIP_WITH_TRANSFORMATION(#25)
SHAPE_REPRESENTATION_RELATIONSHIP()
);
#24=(
REPRESENTATION_RELATIONSHIP(' ',' ',#281,#279)
REPRESENTATION_RELATIONSHIP_WITH_TRANSFORMATION(#26)
SHAPE_REPRESENTATION_RELATIONSHIP()
);
#25=ITEM_DEFINED_TRANSFORMATION(' ',' ',#282,#299);
#26=ITEM_DEFINED_TRANSFORMATION(' ',' ',#282,#327);
#27=SHAPE_REPRESENTATION_RELATIONSHIP('','',#280,#29);
#28=SHAPE_REPRESENTATION_RELATIONSHIP('','',#281,#30);
#29=ADVANCED_BREP_SHAPE_REPRESENTATION('',(#274),#491);
#30=ADVANCED_BREP_SHAPE_REPRESENTATION('',(#275),#492);
#31=PLANE('',#293);
#32=PLANE('',#296);
#33=PLANE('',#311);
#34=PLANE('',#314);
#35=PLANE('',#315);
#36=PLANE('',#322);
#37=B_SPLINE_CURVE_WITH_KNOTS('',3,(#436,#437,#438,#439,#440),
 .UNSPECIFIED.,.T.,.F.,(1,1,1,1,1,1,1,1,1),(-1.5,-1.,-0.5,0.,0.5,1.,1.5,
2.,2.5),.UNSPECIFIED.);
#38=CYLINDRICAL_SURFACE('',#286,2.95);
#39=CYLINDRICAL_SURFACE('',#288,3.);
#40=CYLINDRICAL_SURFACE('',#298,2.52);
#41=CYLINDRICAL_SURFACE('',#303,2.53);
#42=CYLINDRICAL_SURFACE('',#312,0.001);
#43=CYLINDRICAL_SURFACE('',#317,2.52);
#44=CYLINDRICAL_SURFACE('',#324,2.1);
#45=ORIENTED_EDGE('',*,*,#87,.T.);
#46=ORIENTED_EDGE('',*,*,#88,.F.);
#47=ORIENTED_EDGE('',*,*,#89,.T.);
#48=ORIENTED_EDGE('',*,*,#87,.F.);
#49=ORIENTED_EDGE('',*,*,#90,.T.);
#50=ORIENTED_EDGE('',*,*,#91,.F.);
#51=ORIENTED_EDGE('',*,*,#91,.T.);
#52=ORIENTED_EDGE('',*,*,#89,.F.);
#53=ORIENTED_EDGE('',*,*,#88,.T.);
#54=ORIENTED_EDGE('',*,*,#92,.T.);
#55=ORIENTED_EDGE('',*,*,#92,.F.);
#56=ORIENTED_EDGE('',*,*,#90,.F.);
#57=ORIENTED_EDGE('',*,*,#93,.T.);
#58=ORIENTED_EDGE('',*,*,#94,.T.);
#59=ORIENTED_EDGE('',*,*,#93,.F.);
#60=ORIENTED_EDGE('',*,*,#94,.F.);
#61=ORIENTED_EDGE('',*,*,#95,.F.);
#62=ORIENTED_EDGE('',*,*,#96,.T.);
#63=ORIENTED_EDGE('',*,*,#97,.F.);
#64=ORIENTED_EDGE('',*,*,#98,.T.);
#65=ORIENTED_EDGE('',*,*,#99,.F.);
#66=ORIENTED_EDGE('',*,*,#100,.F.);
#67=ORIENTED_EDGE('',*,*,#99,.T.);
#68=ORIENTED_EDGE('',*,*,#101,.T.);
#69=ORIENTED_EDGE('',*,*,#96,.F.);
#70=ORIENTED_EDGE('',*,*,#97,.T.);
#71=ORIENTED_EDGE('',*,*,#100,.T.);
#72=ORIENTED_EDGE('',*,*,#102,.F.);
#73=ORIENTED_EDGE('',*,*,#102,.T.);
#74=ORIENTED_EDGE('',*,*,#103,.F.);
#75=ORIENTED_EDGE('',*,*,#103,.T.);
#76=ORIENTED_EDGE('',*,*,#104,.T.);
#77=ORIENTED_EDGE('',*,*,#95,.T.);
#78=ORIENTED_EDGE('',*,*,#104,.F.);
#79=ORIENTED_EDGE('',*,*,#101,.F.);
#80=ORIENTED_EDGE('',*,*,#105,.T.);
#81=ORIENTED_EDGE('',*,*,#106,.T.);
#82=ORIENTED_EDGE('',*,*,#105,.F.);
#83=ORIENTED_EDGE('',*,*,#106,.F.);
#84=ORIENTED_EDGE('',*,*,#107,.F.);
#85=ORIENTED_EDGE('',*,*,#107,.T.);
#86=ORIENTED_EDGE('',*,*,#98,.F.);
#87=EDGE_CURVE('',#108,#108,#126,.T.);
#88=EDGE_CURVE('',#109,#109,#127,.T.);
#89=EDGE_CURVE('',#110,#110,#128,.T.);
#90=EDGE_CURVE('',#111,#111,#129,.T.);
#91=EDGE_CURVE('',#112,#112,#130,.T.);
#92=EDGE_CURVE('',#113,#113,#37,.F.);
#93=EDGE_CURVE('',#114,#114,#131,.T.);
#94=EDGE_CURVE('',#115,#115,#132,.T.);
#95=EDGE_CURVE('',#116,#116,#133,.T.);
#96=EDGE_CURVE('',#117,#117,#134,.T.);
#97=EDGE_CURVE('',#117,#117,#135,.T.);
#98=EDGE_CURVE('',#118,#118,#136,.T.);
#99=EDGE_CURVE('',#119,#119,#137,.T.);
#100=EDGE_CURVE('',#120,#120,#138,.T.);
#101=EDGE_CURVE('',#121,#121,#139,.T.);
#102=EDGE_CURVE('',#120,#120,#140,.T.);
#103=EDGE_CURVE('',#122,#122,#141,.T.);
#104=EDGE_CURVE('',#123,#123,#142,.T.);
#105=EDGE_CURVE('',#124,#124,#143,.T.);
#106=EDGE_CURVE('',#124,#124,#144,.T.);
#107=EDGE_CURVE('',#125,#125,#145,.T.);
#108=VERTEX_POINT('',#423);
#109=VERTEX_POINT('',#425);
#110=VERTEX_POINT('',#428);
#111=VERTEX_POINT('',#431);
#112=VERTEX_POINT('',#433);
#113=VERTEX_POINT('',#441);
#114=VERTEX_POINT('',#445);
#115=VERTEX_POINT('',#448);
#116=VERTEX_POINT('',#453);
#117=VERTEX_POINT('',#455);
#118=VERTEX_POINT('',#459);
#119=VERTEX_POINT('',#462);
#120=VERTEX_POINT('',#464);
#121=VERTEX_POINT('',#467);
#122=VERTEX_POINT('',#474);
#123=VERTEX_POINT('',#477);
#124=VERTEX_POINT('',#481);
#125=VERTEX_POINT('',#486);
#126=CIRCLE('',#284,2.95);
#127=CIRCLE('',#285,1.7);
#128=CIRCLE('',#287,2.95);
#129=CIRCLE('',#289,3.);
#130=CIRCLE('',#290,3.);
#131=CIRCLE('',#295,2.52);
#132=CIRCLE('',#297,2.52);
#133=CIRCLE('',#301,2.5209825);
#134=CIRCLE('',#302,2.5295);
#135=CIRCLE('',#304,2.53);
#136=CIRCLE('',#305,2.53);
#137=CIRCLE('',#307,0.05);
#138=CIRCLE('',#308,0.001);
#139=CIRCLE('',#310,2.09790959999715);
#140=CIRCLE('',#313,0.001);
#141=CIRCLE('',#316,2.52);
#142=CIRCLE('',#318,2.52);
#143=CIRCLE('',#321,2.09978373429923);
#144=CIRCLE('',#323,2.1);
#145=CIRCLE('',#325,2.1);
#146=EDGE_LOOP('',(#45));
#147=EDGE_LOOP('',(#46));
#148=EDGE_LOOP('',(#47));
#149=EDGE_LOOP('',(#48));
#150=EDGE_LOOP('',(#49));
#151=EDGE_LOOP('',(#50));
#152=EDGE_LOOP('',(#51));
#153=EDGE_LOOP('',(#52));
#154=EDGE_LOOP('',(#53));
#155=EDGE_LOOP('',(#54));
#156=EDGE_LOOP('',(#55));
#157=EDGE_LOOP('',(#56));
#158=EDGE_LOOP('',(#57));
#159=EDGE_LOOP('',(#58));
#160=EDGE_LOOP('',(#59));
#161=EDGE_LOOP('',(#60));
#162=EDGE_LOOP('',(#61));
#163=EDGE_LOOP('',(#62));
#164=EDGE_LOOP('',(#63));
#165=EDGE_LOOP('',(#64));
#166=EDGE_LOOP('',(#65));
#167=EDGE_LOOP('',(#66));
#168=EDGE_LOOP('',(#67));
#169=EDGE_LOOP('',(#68));
#170=EDGE_LOOP('',(#69,#70));
#171=EDGE_LOOP('',(#71,#72));
#172=EDGE_LOOP('',(#73));
#173=EDGE_LOOP('',(#74));
#174=EDGE_LOOP('',(#75));
#175=EDGE_LOOP('',(#76));
#176=EDGE_LOOP('',(#77));
#177=EDGE_LOOP('',(#78));
#178=EDGE_LOOP('',(#79));
#179=EDGE_LOOP('',(#80));
#180=EDGE_LOOP('',(#81,#82));
#181=EDGE_LOOP('',(#83));
#182=EDGE_LOOP('',(#84));
#183=EDGE_LOOP('',(#85));
#184=EDGE_LOOP('',(#86));
#185=FACE_BOUND('',#146,.T.);
#186=FACE_BOUND('',#147,.T.);
#187=FACE_BOUND('',#148,.T.);
#188=FACE_BOUND('',#149,.T.);
#189=FACE_BOUND('',#150,.T.);
#190=FACE_BOUND('',#151,.T.);
#191=FACE_BOUND('',#152,.T.);
#192=FACE_BOUND('',#153,.T.);
#193=FACE_BOUND('',#154,.T.);
#194=FACE_BOUND('',#155,.T.);
#195=FACE_BOUND('',#156,.T.);
#196=FACE_BOUND('',#157,.T.);
#197=FACE_BOUND('',#158,.T.);
#198=FACE_BOUND('',#159,.T.);
#199=FACE_BOUND('',#160,.T.);
#200=FACE_BOUND('',#161,.T.);
#201=FACE_BOUND('',#162,.T.);
#202=FACE_BOUND('',#163,.T.);
#203=FACE_BOUND('',#164,.T.);
#204=FACE_BOUND('',#165,.T.);
#205=FACE_BOUND('',#166,.T.);
#206=FACE_BOUND('',#167,.T.);
#207=FACE_BOUND('',#168,.T.);
#208=FACE_BOUND('',#169,.T.);
#209=FACE_BOUND('',#170,.T.);
#210=FACE_BOUND('',#171,.T.);
#211=FACE_BOUND('',#172,.T.);
#212=FACE_BOUND('',#173,.T.);
#213=FACE_BOUND('',#174,.T.);
#214=FACE_BOUND('',#175,.T.);
#215=FACE_BOUND('',#176,.T.);
#216=FACE_BOUND('',#177,.T.);
#217=FACE_BOUND('',#178,.T.);
#218=FACE_BOUND('',#179,.T.);
#219=FACE_BOUND('',#180,.T.);
#220=FACE_BOUND('',#181,.T.);
#221=FACE_BOUND('',#182,.T.);
#222=FACE_BOUND('',#183,.T.);
#223=FACE_BOUND('',#184,.T.);
#224=CONICAL_SURFACE('',#283,2.95,0.7853981625);
#225=CONICAL_SURFACE('',#291,3.,0.7853981625);
#226=CONICAL_SURFACE('',#292,1.7,1.361356815);
#227=CONICAL_SURFACE('',#294,3.,0.523598775);
#228=CONICAL_SURFACE('',#300,2.5209825,1.5533430325);
#229=CONICAL_SURFACE('',#306,0.05,0.7853981625);
#230=CONICAL_SURFACE('',#309,0.05,1.04719755);
#231=CONICAL_SURFACE('',#320,2.0979096,0.0001745329);
#232=CONICAL_SURFACE('',#326,2.1,0.1772856402);
#233=ADVANCED_FACE('',(#185,#186),#224,.T.);
#234=ADVANCED_FACE('',(#187,#188),#38,.T.);
#235=ADVANCED_FACE('',(#189,#190),#39,.T.);
#236=ADVANCED_FACE('',(#191,#192),#225,.T.);
#237=ADVANCED_FACE('',(#193,#194),#226,.T.);
#238=ADVANCED_FACE('',(#195),#31,.T.);
#239=ADVANCED_FACE('',(#196,#197),#227,.T.);
#240=ADVANCED_FACE('',(#198),#32,.F.);
#241=ADVANCED_FACE('',(#199,#200),#40,.T.);
#242=ADVANCED_FACE('',(#201,#202),#228,.T.);
#243=ADVANCED_FACE('',(#203,#204),#41,.T.);
#244=ADVANCED_FACE('',(#205,#206),#229,.T.);
#245=ADVANCED_FACE('',(#207,#208),#230,.T.);
#246=ADVANCED_FACE('',(#209),#33,.T.);
#247=ADVANCED_FACE('',(#210),#42,.T.);
#248=ADVANCED_FACE('',(#211),#34,.F.);
#249=ADVANCED_FACE('',(#212),#35,.T.);
#250=ADVANCED_FACE('',(#213,#214),#43,.T.);
#251=ADVANCED_FACE('',(#215,#216),#18,.F.);
#252=ADVANCED_FACE('',(#217,#218),#231,.T.);
#253=ADVANCED_FACE('',(#219),#36,.T.);
#254=ADVANCED_FACE('',(#220,#221),#44,.T.);
#255=ADVANCED_FACE('',(#222,#223),#232,.T.);
#256=CLOSED_SHELL('',(#233,#234,#235,#236,#237,#238,#239,#240,#241));
#257=CLOSED_SHELL('',(#242,#243,#244,#245,#246,#247,#248,#249,#250,#251,
#252,#253,#254,#255));
#258=STYLED_ITEM('',(#260),#274);
#259=STYLED_ITEM('',(#261),#275);
#260=PRESENTATION_STYLE_ASSIGNMENT((#262));
#261=PRESENTATION_STYLE_ASSIGNMENT((#263));
#262=SURFACE_STYLE_USAGE(.BOTH.,#264);
#263=SURFACE_STYLE_USAGE(.BOTH.,#265);
#264=SURFACE_SIDE_STYLE('',(#266));
#265=SURFACE_SIDE_STYLE('',(#267));
#266=SURFACE_STYLE_FILL_AREA(#268);
#267=SURFACE_STYLE_FILL_AREA(#269);
#268=FILL_AREA_STYLE('',(#270));
#269=FILL_AREA_STYLE('',(#271));
#270=FILL_AREA_STYLE_COLOUR('',#272);
#271=FILL_AREA_STYLE_COLOUR('',#273);
#272=COLOUR_RGB('',0.4999923706,0.4999923706,0.4999923706);
#273=COLOUR_RGB('',0.8000000119,0.8000000119,0.8000000119);
#274=MANIFOLD_SOLID_BREP('1',#256);
#275=MANIFOLD_SOLID_BREP('1',#257);
#276=SHAPE_DEFINITION_REPRESENTATION(#499,#279);
#277=SHAPE_DEFINITION_REPRESENTATION(#500,#280);
#278=SHAPE_DEFINITION_REPRESENTATION(#502,#281);
#279=SHAPE_REPRESENTATION('1839 5.000',(#282,#299,#327),#490);
#280=SHAPE_REPRESENTATION('1839 5.000_PART1',(#282),#491);
#281=SHAPE_REPRESENTATION('1839 5.000_PART2',(#282),#492);
#282=AXIS2_PLACEMENT_3D('',#420,#328,#329);
#283=AXIS2_PLACEMENT_3D('',#421,#330,#331);
#284=AXIS2_PLACEMENT_3D('',#422,#332,#333);
#285=AXIS2_PLACEMENT_3D('',#424,#334,#335);
#286=AXIS2_PLACEMENT_3D('',#426,#336,#337);
#287=AXIS2_PLACEMENT_3D('',#427,#338,#339);
#288=AXIS2_PLACEMENT_3D('',#429,#340,#341);
#289=AXIS2_PLACEMENT_3D('',#430,#342,#343);
#290=AXIS2_PLACEMENT_3D('',#432,#344,#345);
#291=AXIS2_PLACEMENT_3D('',#434,#346,#347);
#292=AXIS2_PLACEMENT_3D('',#435,#348,#349);
#293=AXIS2_PLACEMENT_3D('',#442,#350,#351);
#294=AXIS2_PLACEMENT_3D('',#443,#352,#353);
#295=AXIS2_PLACEMENT_3D('',#444,#354,#355);
#296=AXIS2_PLACEMENT_3D('',#446,#356,#357);
#297=AXIS2_PLACEMENT_3D('',#447,#358,#359);
#298=AXIS2_PLACEMENT_3D('',#449,#360,#361);
#299=AXIS2_PLACEMENT_3D('',#450,#362,#363);
#300=AXIS2_PLACEMENT_3D('',#451,#364,#365);
#301=AXIS2_PLACEMENT_3D('',#452,#366,#367);
#302=AXIS2_PLACEMENT_3D('',#454,#368,#369);
#303=AXIS2_PLACEMENT_3D('',#456,#370,#371);
#304=AXIS2_PLACEMENT_3D('',#457,#372,#373);
#305=AXIS2_PLACEMENT_3D('',#458,#374,#375);
#306=AXIS2_PLACEMENT_3D('',#460,#376,#377);
#307=AXIS2_PLACEMENT_3D('',#461,#378,#379);
#308=AXIS2_PLACEMENT_3D('',#463,#380,#381);
#309=AXIS2_PLACEMENT_3D('',#465,#382,#383);
#310=AXIS2_PLACEMENT_3D('',#466,#384,#385);
#311=AXIS2_PLACEMENT_3D('',#468,#386,#387);
#312=AXIS2_PLACEMENT_3D('',#469,#388,#389);
#313=AXIS2_PLACEMENT_3D('',#470,#390,#391);
#314=AXIS2_PLACEMENT_3D('',#471,#392,#393);
#315=AXIS2_PLACEMENT_3D('',#472,#394,#395);
#316=AXIS2_PLACEMENT_3D('',#473,#396,#397);
#317=AXIS2_PLACEMENT_3D('',#475,#398,#399);
#318=AXIS2_PLACEMENT_3D('',#476,#400,#401);
#319=AXIS2_PLACEMENT_3D('',#478,#402,#403);
#320=AXIS2_PLACEMENT_3D('',#479,#404,#405);
#321=AXIS2_PLACEMENT_3D('',#480,#406,#407);
#322=AXIS2_PLACEMENT_3D('',#482,#408,#409);
#323=AXIS2_PLACEMENT_3D('',#483,#410,#411);
#324=AXIS2_PLACEMENT_3D('',#484,#412,#413);
#325=AXIS2_PLACEMENT_3D('',#485,#414,#415);
#326=AXIS2_PLACEMENT_3D('',#487,#416,#417);
#327=AXIS2_PLACEMENT_3D('',#488,#418,#419);
#328=DIRECTION('',(0.,0.,1.));
#329=DIRECTION('',(1.,0.,0.));
#330=DIRECTION('',(-1.88096293945339E-17,0.,-1.));
#331=DIRECTION('',(-1.,0.,1.88096293945339E-17));
#332=DIRECTION('',(0.,0.,1.));
#333=DIRECTION('',(1.,0.,0.));
#334=DIRECTION('',(0.,0.,1.));
#335=DIRECTION('',(1.,0.,0.));
#336=DIRECTION('',(0.,0.,-1.));
#337=DIRECTION('',(1.,0.,0.));
#338=DIRECTION('',(0.,0.,1.));
#339=DIRECTION('',(1.,0.,0.));
#340=DIRECTION('',(0.,0.,-1.));
#341=DIRECTION('',(1.,0.,0.));
#342=DIRECTION('',(0.,0.,1.));
#343=DIRECTION('',(1.,0.,0.));
#344=DIRECTION('',(0.,0.,1.));
#345=DIRECTION('',(1.,0.,0.));
#346=DIRECTION('',(0.,0.,-1.));
#347=DIRECTION('',(-1.,0.,0.));
#348=DIRECTION('',(7.37187335194832E-19,0.,-1.));
#349=DIRECTION('',(-1.,0.,-7.37187335194832E-19));
#350=DIRECTION('',(0.,0.,1.));
#351=DIRECTION('',(1.,0.,0.));
#352=DIRECTION('',(3.58691687018419E-17,0.,1.));
#353=DIRECTION('',(1.,0.,-3.58691687018419E-17));
#354=DIRECTION('',(0.,0.,1.));
#355=DIRECTION('',(1.,0.,0.));
#356=DIRECTION('',(0.,0.,1.));
#357=DIRECTION('',(1.,0.,0.));
#358=DIRECTION('',(0.,0.,-1.));
#359=DIRECTION('',(1.,0.,0.));
#360=DIRECTION('',(0.,0.,-1.));
#361=DIRECTION('',(1.,0.,0.));
#362=DIRECTION('',(0.,0.,1.));
#363=DIRECTION('',(1.,0.,0.));
#364=DIRECTION('',(1.81670271244386E-18,0.,-1.));
#365=DIRECTION('',(-1.,0.,-1.81670271244386E-18));
#366=DIRECTION('',(0.,0.,1.));
#367=DIRECTION('',(1.,0.,0.));
#368=DIRECTION('',(0.,0.,1.));
#369=DIRECTION('',(1.,0.,0.));
#370=DIRECTION('',(0.,0.,-1.));
#371=DIRECTION('',(1.,0.,0.));
#372=DIRECTION('',(0.,0.,1.));
#373=DIRECTION('',(1.,0.,0.));
#374=DIRECTION('',(0.,0.,1.));
#375=DIRECTION('',(1.,0.,0.));
#376=DIRECTION('',(-1.38770939531183E-17,0.,1.));
#377=DIRECTION('',(1.,0.,1.38770939531183E-17));
#378=DIRECTION('',(0.,0.,1.));
#379=DIRECTION('',(1.,0.,0.));
#380=DIRECTION('',(0.,0.,-1.));
#381=DIRECTION('',(1.,0.,0.));
#382=DIRECTION('',(-8.01211323681137E-18,0.,1.));
#383=DIRECTION('',(1.,0.,8.01211323681137E-18));
#384=DIRECTION('',(0.,0.,-1.));
#385=DIRECTION('',(-1.,0.,0.));
#386=DIRECTION('',(0.,0.,1.));
#387=DIRECTION('',(1.,0.,0.));
#388=DIRECTION('',(0.,0.,1.));
#389=DIRECTION('',(-1.,0.,0.));
#390=DIRECTION('',(0.,0.,-1.));
#391=DIRECTION('',(1.,0.,0.));
#392=DIRECTION('',(0.,0.,1.));
#393=DIRECTION('',(1.,0.,0.));
#394=DIRECTION('',(0.,0.,1.));
#395=DIRECTION('',(1.,0.,0.));
#396=DIRECTION('',(0.,0.,-1.));
#397=DIRECTION('',(1.,0.,0.));
#398=DIRECTION('',(0.,0.,-1.));
#399=DIRECTION('',(1.,0.,0.));
#400=DIRECTION('',(0.,0.,1.));
#401=DIRECTION('',(1.,0.,0.));
#402=DIRECTION('',(0.,0.,1.));
#403=DIRECTION('',(1.,0.,0.));
#404=DIRECTION('',(0.,0.,1.));
#405=DIRECTION('',(1.,0.,0.));
#406=DIRECTION('',(0.,0.,-1.));
#407=DIRECTION('',(-1.,0.,0.));
#408=DIRECTION('',(0.,0.,-1.));
#409=DIRECTION('',(0.,-1.,0.));
#410=DIRECTION('',(0.,0.,-1.));
#411=DIRECTION('',(-1.,0.,0.));
#412=DIRECTION('',(0.,0.,-1.));
#413=DIRECTION('',(1.,0.,0.));
#414=DIRECTION('',(0.,0.,1.));
#415=DIRECTION('',(1.,0.,0.));
#416=DIRECTION('',(0.,0.,1.));
#417=DIRECTION('',(1.,0.,0.));
#418=DIRECTION('',(0.,0.,1.));
#419=DIRECTION('',(1.,0.,0.));
#420=CARTESIAN_POINT('',(0.,0.,0.));
#421=CARTESIAN_POINT('',(-4.23246823223666E-16,0.,-1.6113));
#422=CARTESIAN_POINT('',(-1.00004232468232E-11,0.,-1.61130000001));
#423=CARTESIAN_POINT('',(2.94999999999,0.,-1.61130000001));
#424=CARTESIAN_POINT('',(-1.00004232468232E-11,0.,-0.36130000001));
#425=CARTESIAN_POINT('',(1.69999999999,0.,-0.36130000001));
#426=CARTESIAN_POINT('',(-4.23246823223666E-16,0.,-75.3713));
#427=CARTESIAN_POINT('',(-1.00004232468232E-11,0.,-10.36130000001));
#428=CARTESIAN_POINT('',(2.94999999999,0.,-10.36130000001));
#429=CARTESIAN_POINT('',(-4.23246823223666E-16,0.,-75.3713));
#430=CARTESIAN_POINT('',(-1.00004232468232E-11,0.,-44.4672990401583));
#431=CARTESIAN_POINT('',(2.99999999999,0.,-44.4672990401583));
#432=CARTESIAN_POINT('',(-1.00004232468232E-11,0.,-10.41130000001));
#433=CARTESIAN_POINT('',(2.99999999999,0.,-10.41130000001));
#434=CARTESIAN_POINT('',(-4.23246823223666E-16,0.,-10.4113));
#435=CARTESIAN_POINT('',(-4.23246823223666E-16,0.,-0.361300000000005));
#436=CARTESIAN_POINT('',(-0.000300000010000423,-1.22464679914735E-20,0.));
#437=CARTESIAN_POINT('',(0.000299999989999577,2.44929359829471E-20,0.));
#438=CARTESIAN_POINT('',(-0.000300000010000423,-1.22464679914735E-20,0.));
#439=CARTESIAN_POINT('',(0.000299999989999577,2.44929359829471E-20,0.));
#440=CARTESIAN_POINT('',(-0.000300000010000423,-1.22464679914735E-20,0.));
#441=CARTESIAN_POINT('',(4.99999949995766E-5,6.12323399573677E-21,2.30788014960728E-5));
#442=CARTESIAN_POINT('',(-4.23246823223666E-16,0.,0.));
#443=CARTESIAN_POINT('',(-4.23246823223666E-16,0.,-44.4672990401483));
#444=CARTESIAN_POINT('',(-1.00004232468232E-11,0.,-45.2986834277914));
#445=CARTESIAN_POINT('',(2.51999999999,0.,-45.2986834277914));
#446=CARTESIAN_POINT('',(-4.23246823223666E-16,0.,-45.3613));
#447=CARTESIAN_POINT('',(-1.00004232468232E-11,0.,-45.36130000001));
#448=CARTESIAN_POINT('',(2.51999999999,0.,-45.36130000001));
#449=CARTESIAN_POINT('',(-4.23246823223666E-16,0.,-75.3713));
#450=CARTESIAN_POINT('',(0.,0.,0.));
#451=CARTESIAN_POINT('',(-4.23246823223666E-16,0.,-45.3996832754765));
#452=CARTESIAN_POINT('',(-1.00004232468232E-11,0.,-45.3996832754865));
#453=CARTESIAN_POINT('',(2.52098249999,0.,-45.3996832754865));
#454=CARTESIAN_POINT('',(-1.00004232468232E-11,0.,-45.3998319481713));
#455=CARTESIAN_POINT('',(2.52974999999,0.,-45.3998363119375));
#456=CARTESIAN_POINT('',(-4.23246823223666E-16,0.,-75.3713));
#457=CARTESIAN_POINT('',(-1.00004232468232E-11,0.,-45.3998406757038));
#458=CARTESIAN_POINT('',(-1.00004232468232E-11,0.,-60.9998319481713));
#459=CARTESIAN_POINT('',(2.52999999999,0.,-60.9998319481713));
#460=CARTESIAN_POINT('',(-4.23246823223666E-16,0.,-75.3214));
#461=CARTESIAN_POINT('',(-1.00004232468232E-11,0.,-75.32140000001));
#462=CARTESIAN_POINT('',(0.0499999999899996,0.,-75.32140000001));
#463=CARTESIAN_POINT('',(-1.00004232468232E-11,0.,-75.37040000001));
#464=CARTESIAN_POINT('',(-0.000500000005000423,-6.1232341794338E-20,-75.3709000000499));
#465=CARTESIAN_POINT('',(-4.23246823223666E-16,0.,-75.3214));
#466=CARTESIAN_POINT('',(-4.32720034741233E-16,0.,-74.1390388378983));
#467=CARTESIAN_POINT('',(-2.09790959999715,0.,-74.1390388378983));
#468=CARTESIAN_POINT('',(-4.23246823223666E-16,2.52950000000001,-45.3998363119275));
#469=CARTESIAN_POINT('',(-4.23246823223666E-16,0.,-75.3713));
#470=CARTESIAN_POINT('',(-1.00004232468232E-11,0.,-75.37130000001));
#471=CARTESIAN_POINT('',(-4.23246823223666E-16,2.59790963394522,-75.3713));
#472=CARTESIAN_POINT('',(-4.23246823223666E-16,0.,-45.3613));
#473=CARTESIAN_POINT('',(-1.00004232468232E-11,0.,-45.36130000001));
#474=CARTESIAN_POINT('',(2.51999999999,0.,-45.36130000001));
#475=CARTESIAN_POINT('',(-4.23246823223666E-16,0.,-75.3713));
#476=CARTESIAN_POINT('',(-1.00004232468232E-11,0.,-45.3986834277914));
#477=CARTESIAN_POINT('',(2.51999999999,0.,-45.3986834277914));
#478=CARTESIAN_POINT('',(-4.23246823223666E-16,0.,-45.3986834277814));
#479=CARTESIAN_POINT('',(-4.23246823223666E-16,0.,-74.1390388215657));
#480=CARTESIAN_POINT('',(-4.23246823223666E-16,0.,-63.4010388215657));
#481=CARTESIAN_POINT('',(-2.09989190001,0.,-63.4010388215757));
#482=CARTESIAN_POINT('',(-4.23246823223666E-16,2.09978376851505,-63.4010388215657));
#483=CARTESIAN_POINT('',(-1.00004232468232E-11,0.,-63.4010388215757));
#484=CARTESIAN_POINT('',(-4.23246823223666E-16,0.,-75.3713));
#485=CARTESIAN_POINT('',(-1.00004232468232E-11,0.,-63.3998319481713));
#486=CARTESIAN_POINT('',(2.09999999999,0.,-63.3998319481713));
#487=CARTESIAN_POINT('',(-4.23246823223666E-16,0.,-63.3998319481613));
#488=CARTESIAN_POINT('',(0.,0.,0.));
#489=MECHANICAL_DESIGN_GEOMETRIC_PRESENTATION_REPRESENTATION('',(#258,#259),
#490);
#490=(
GEOMETRIC_REPRESENTATION_CONTEXT(3)
GLOBAL_UNCERTAINTY_ASSIGNED_CONTEXT((#493))
GLOBAL_UNIT_ASSIGNED_CONTEXT((#498,#497,#496))
REPRESENTATION_CONTEXT('1839 5.000','TOP_LEVEL_ASSEMBLY_PART')
);
#491=(
GEOMETRIC_REPRESENTATION_CONTEXT(3)
GLOBAL_UNCERTAINTY_ASSIGNED_CONTEXT((#494))
GLOBAL_UNIT_ASSIGNED_CONTEXT((#498,#497,#496))
REPRESENTATION_CONTEXT('1839 5.000_PART1','COMPONENT_PART')
);
#492=(
GEOMETRIC_REPRESENTATION_CONTEXT(3)
GLOBAL_UNCERTAINTY_ASSIGNED_CONTEXT((#495))
GLOBAL_UNIT_ASSIGNED_CONTEXT((#498,#497,#496))
REPRESENTATION_CONTEXT('1839 5.000_PART2','COMPONENT_PART')
);
#493=UNCERTAINTY_MEASURE_WITH_UNIT(LENGTH_MEASURE(1.E-5),#498,
'DISTANCE_ACCURACY_VALUE','Maximum Tolerance applied to model');
#494=UNCERTAINTY_MEASURE_WITH_UNIT(LENGTH_MEASURE(1.E-5),#498,
'DISTANCE_ACCURACY_VALUE','Maximum Tolerance applied to model');
#495=UNCERTAINTY_MEASURE_WITH_UNIT(LENGTH_MEASURE(1.E-5),#498,
'DISTANCE_ACCURACY_VALUE','Maximum Tolerance applied to model');
#496=(
NAMED_UNIT(*)
SI_UNIT($,.STERADIAN.)
SOLID_ANGLE_UNIT()
);
#497=(
NAMED_UNIT(*)
PLANE_ANGLE_UNIT()
SI_UNIT($,.RADIAN.)
);
#498=(
LENGTH_UNIT()
NAMED_UNIT(*)
SI_UNIT(.MILLI.,.METRE.)
);
#499=PRODUCT_DEFINITION_SHAPE('','',#504);
#500=PRODUCT_DEFINITION_SHAPE('','',#505);
#501=PRODUCT_DEFINITION_SHAPE(' ','NAUO PRDDFN',#21);
#502=PRODUCT_DEFINITION_SHAPE('','',#506);
#503=PRODUCT_DEFINITION_SHAPE(' ','NAUO PRDDFN',#22);
#504=PRODUCT_DEFINITION('','',#510,#507);
#505=PRODUCT_DEFINITION('','',#511,#508);
#506=PRODUCT_DEFINITION('','',#512,#509);
#507=PRODUCT_DEFINITION_CONTEXT('',#526,'design');
#508=PRODUCT_DEFINITION_CONTEXT('',#526,'design');
#509=PRODUCT_DEFINITION_CONTEXT('',#526,'design');
#510=PRODUCT_DEFINITION_FORMATION_WITH_SPECIFIED_SOURCE('','',#516,
 .NOT_KNOWN.);
#511=PRODUCT_DEFINITION_FORMATION_WITH_SPECIFIED_SOURCE('','',#517,
 .NOT_KNOWN.);
#512=PRODUCT_DEFINITION_FORMATION_WITH_SPECIFIED_SOURCE('','',#518,
 .NOT_KNOWN.);
#513=PRODUCT_RELATED_PRODUCT_CATEGORY('','',(#516));
#514=PRODUCT_RELATED_PRODUCT_CATEGORY('','',(#517));
#515=PRODUCT_RELATED_PRODUCT_CATEGORY('','',(#518));
#516=PRODUCT('1839 5.000','1839 5.000','1839 5.000',(#522));
#517=PRODUCT('1839 5.000_PART1','1839 5.000_PART1','1839 5.000_PART1',(#523));
#518=PRODUCT('1839 5.000_PART2','1839 5.000_PART2','1839 5.000_PART2',(#524));
#519=PRODUCT_CATEGORY('','');
#520=PRODUCT_CATEGORY('','');
#521=PRODUCT_CATEGORY('','');
#522=PRODUCT_CONTEXT('',#526,'mechanical');
#523=PRODUCT_CONTEXT('',#526,'mechanical');
#524=PRODUCT_CONTEXT('',#526,'mechanical');
#525=APPLICATION_PROTOCOL_DEFINITION('international standard',
'automotive_design',2010,#526);
#526=APPLICATION_CONTEXT(
'core data for automotive mechanical design processes');
ENDSEC;
END-ISO-10303-21;
