ISO-10303-21;
HEADER;
/* Generated by software containing ST-Developer
 * from STEP Tools, Inc. (www.steptools.com) 
 */
/* OPTION: using custom renumber hook */

FILE_DESCRIPTION(
/* description */ ('STEP AP203'),
/* implementation_level */ '2;1');

FILE_NAME(
/* name */ '19969 10.000',
/* time_stamp */ '2026-05-15T14:38:39+02:00',
/* author */ ('License CC BY-ND 4.0'),
/* organization */ ('CADENAS'),
/* preprocessor_version */ 'ST-DEVELOPER v20',
/* originating_system */ 'PARTsolutions',
/* authorisation */ '  ');

FILE_SCHEMA (('CONFIG_CONTROL_DESIGN'));
ENDSEC;

DATA;
#10=PROPERTY_DEFINITION_REPRESENTATION(#14,#12);
#11=PROPERTY_DEFINITION_REPRESENTATION(#15,#13);
#12=REPRESENTATION('',(#16),#322);
#13=REPRESENTATION('',(#17),#322);
#14=PROPERTY_DEFINITION('pmi validation property','',#331);
#15=PROPERTY_DEFINITION('pmi validation property','',#331);
#16=VALUE_REPRESENTATION_ITEM('number of annotations',COUNT_MEASURE(0.));
#17=VALUE_REPRESENTATION_ITEM('number of views',COUNT_MEASURE(0.));
#18=ELLIPSE('',#208,7.07106781186549,5.00000000000001);
#19=ELLIPSE('',#209,7.07106781186549,5.00000000000001);
#20=LINE('',#304,#24);
#21=LINE('',#309,#25);
#22=LINE('',#316,#26);
#23=LINE('',#318,#27);
#24=VECTOR('',#255,1000.);
#25=VECTOR('',#258,1000.);
#26=VECTOR('',#267,1000.);
#27=VECTOR('',#270,1000.);
#28=CONICAL_SURFACE('',#199,5.,1.55334303429578);
#29=CONICAL_SURFACE('',#203,4.999,1.04719755119323);
#30=CONICAL_SURFACE('',#211,5.,0.785398163397448);
#31=CONTEXT_DEPENDENT_SHAPE_REPRESENTATION(#35,#333);
#32=CONTEXT_DEPENDENT_SHAPE_REPRESENTATION(#36,#335);
#33=NEXT_ASSEMBLY_USAGE_OCCURRENCE('NAUO1','19969 10.000_PART1',
'19969 10.000_PART1',#336,#337,'');
#34=NEXT_ASSEMBLY_USAGE_OCCURRENCE('NAUO2','19969 10.000_PART2',
'19969 10.000_PART2',#336,#338,'');
#35=(
REPRESENTATION_RELATIONSHIP(' ',' ',#187,#186)
REPRESENTATION_RELATIONSHIP_WITH_TRANSFORMATION(#37)
SHAPE_REPRESENTATION_RELATIONSHIP()
);
#36=(
REPRESENTATION_RELATIONSHIP(' ',' ',#188,#186)
REPRESENTATION_RELATIONSHIP_WITH_TRANSFORMATION(#38)
SHAPE_REPRESENTATION_RELATIONSHIP()
);
#37=ITEM_DEFINED_TRANSFORMATION(' ',' ',#189,#195);
#38=ITEM_DEFINED_TRANSFORMATION(' ',' ',#189,#216);
#39=SHAPE_REPRESENTATION_RELATIONSHIP('','',#187,#41);
#40=SHAPE_REPRESENTATION_RELATIONSHIP('','',#188,#42);
#41=ADVANCED_BREP_SHAPE_REPRESENTATION('',(#181),#323);
#42=ADVANCED_BREP_SHAPE_REPRESENTATION('',(#182),#324);
#43=CYLINDRICAL_SURFACE('',#194,5.00000000000001);
#44=CYLINDRICAL_SURFACE('',#196,5.00000000000001);
#45=CYLINDRICAL_SURFACE('',#201,4.999);
#46=CYLINDRICAL_SURFACE('',#207,5.00000000000001);
#47=SPHERICAL_SURFACE('',#192,5.);
#48=ORIENTED_EDGE('',*,*,#78,.F.);
#49=ORIENTED_EDGE('',*,*,#79,.F.);
#50=ORIENTED_EDGE('',*,*,#79,.T.);
#51=ORIENTED_EDGE('',*,*,#78,.T.);
#52=ORIENTED_EDGE('',*,*,#80,.F.);
#53=ORIENTED_EDGE('',*,*,#81,.T.);
#54=ORIENTED_EDGE('',*,*,#82,.T.);
#55=ORIENTED_EDGE('',*,*,#81,.F.);
#56=ORIENTED_EDGE('',*,*,#83,.T.);
#57=ORIENTED_EDGE('',*,*,#82,.F.);
#58=ORIENTED_EDGE('',*,*,#84,.F.);
#59=ORIENTED_EDGE('',*,*,#83,.F.);
#60=ORIENTED_EDGE('',*,*,#85,.T.);
#61=ORIENTED_EDGE('',*,*,#86,.F.);
#62=ORIENTED_EDGE('',*,*,#87,.F.);
#63=ORIENTED_EDGE('',*,*,#88,.F.);
#64=ORIENTED_EDGE('',*,*,#89,.F.);
#65=ORIENTED_EDGE('',*,*,#90,.T.);
#66=ORIENTED_EDGE('',*,*,#84,.T.);
#67=ORIENTED_EDGE('',*,*,#85,.F.);
#68=ORIENTED_EDGE('',*,*,#90,.F.);
#69=ORIENTED_EDGE('',*,*,#87,.T.);
#70=ORIENTED_EDGE('',*,*,#91,.F.);
#71=ORIENTED_EDGE('',*,*,#86,.T.);
#72=ORIENTED_EDGE('',*,*,#92,.F.);
#73=ORIENTED_EDGE('',*,*,#88,.T.);
#74=ORIENTED_EDGE('',*,*,#91,.T.);
#75=ORIENTED_EDGE('',*,*,#92,.T.);
#76=ORIENTED_EDGE('',*,*,#89,.T.);
#77=ORIENTED_EDGE('',*,*,#80,.T.);
#78=EDGE_CURVE('',#93,#93,#106,.T.);
#79=EDGE_CURVE('',#94,#94,#107,.T.);
#80=EDGE_CURVE('',#95,#95,#108,.T.);
#81=EDGE_CURVE('',#96,#96,#109,.T.);
#82=EDGE_CURVE('',#97,#97,#110,.T.);
#83=EDGE_CURVE('',#98,#98,#111,.T.);
#84=EDGE_CURVE('',#99,#99,#112,.T.);
#85=EDGE_CURVE('',#100,#100,#113,.T.);
#86=EDGE_CURVE('',#101,#102,#20,.T.);
#87=EDGE_CURVE('',#103,#101,#18,.T.);
#88=EDGE_CURVE('',#104,#103,#21,.T.);
#89=EDGE_CURVE('',#102,#104,#19,.T.);
#90=EDGE_CURVE('',#105,#105,#114,.T.);
#91=EDGE_CURVE('',#103,#101,#22,.T.);
#92=EDGE_CURVE('',#104,#102,#23,.T.);
#93=VERTEX_POINT('',#280);
#94=VERTEX_POINT('',#283);
#95=VERTEX_POINT('',#288);
#96=VERTEX_POINT('',#290);
#97=VERTEX_POINT('',#293);
#98=VERTEX_POINT('',#296);
#99=VERTEX_POINT('',#299);
#100=VERTEX_POINT('',#302);
#101=VERTEX_POINT('',#305);
#102=VERTEX_POINT('',#306);
#103=VERTEX_POINT('',#308);
#104=VERTEX_POINT('',#310);
#105=VERTEX_POINT('',#313);
#106=CIRCLE('',#191,5.00000000000001);
#107=CIRCLE('',#193,5.);
#108=CIRCLE('',#197,5.00000000000001);
#109=CIRCLE('',#198,5.);
#110=CIRCLE('',#200,4.999);
#111=CIRCLE('',#202,4.999);
#112=CIRCLE('',#204,5.00000000000001);
#113=CIRCLE('',#206,4.4);
#114=CIRCLE('',#210,5.00000000000001);
#115=EDGE_LOOP('',(#48));
#116=EDGE_LOOP('',(#49));
#117=EDGE_LOOP('',(#50));
#118=EDGE_LOOP('',(#51));
#119=EDGE_LOOP('',(#52));
#120=EDGE_LOOP('',(#53));
#121=EDGE_LOOP('',(#54));
#122=EDGE_LOOP('',(#55));
#123=EDGE_LOOP('',(#56));
#124=EDGE_LOOP('',(#57));
#125=EDGE_LOOP('',(#58));
#126=EDGE_LOOP('',(#59));
#127=EDGE_LOOP('',(#60));
#128=EDGE_LOOP('',(#61,#62,#63,#64));
#129=EDGE_LOOP('',(#65));
#130=EDGE_LOOP('',(#66));
#131=EDGE_LOOP('',(#67));
#132=EDGE_LOOP('',(#68));
#133=EDGE_LOOP('',(#69,#70));
#134=EDGE_LOOP('',(#71,#72,#73,#74));
#135=EDGE_LOOP('',(#75,#76));
#136=EDGE_LOOP('',(#77));
#137=FACE_BOUND('',#115,.T.);
#138=FACE_BOUND('',#116,.T.);
#139=FACE_BOUND('',#117,.T.);
#140=FACE_BOUND('',#118,.T.);
#141=FACE_BOUND('',#119,.T.);
#142=FACE_BOUND('',#120,.T.);
#143=FACE_BOUND('',#121,.T.);
#144=FACE_BOUND('',#122,.T.);
#145=FACE_BOUND('',#123,.T.);
#146=FACE_BOUND('',#124,.T.);
#147=FACE_BOUND('',#125,.T.);
#148=FACE_BOUND('',#126,.T.);
#149=FACE_BOUND('',#127,.T.);
#150=FACE_BOUND('',#128,.T.);
#151=FACE_BOUND('',#129,.T.);
#152=FACE_BOUND('',#130,.T.);
#153=FACE_BOUND('',#131,.T.);
#154=FACE_BOUND('',#132,.T.);
#155=FACE_BOUND('',#133,.T.);
#156=FACE_BOUND('',#134,.T.);
#157=FACE_BOUND('',#135,.T.);
#158=FACE_BOUND('',#136,.T.);
#159=PLANE('',#190);
#160=PLANE('',#205);
#161=PLANE('',#212);
#162=PLANE('',#213);
#163=PLANE('',#214);
#164=PLANE('',#215);
#165=ADVANCED_FACE('',(#137),#159,.T.);
#166=ADVANCED_FACE('',(#138),#47,.T.);
#167=ADVANCED_FACE('',(#139,#140),#43,.T.);
#168=ADVANCED_FACE('',(#141,#142),#44,.T.);
#169=ADVANCED_FACE('',(#143,#144),#28,.T.);
#170=ADVANCED_FACE('',(#145,#146),#45,.T.);
#171=ADVANCED_FACE('',(#147,#148),#29,.T.);
#172=ADVANCED_FACE('',(#149),#160,.T.);
#173=ADVANCED_FACE('',(#150,#151,#152),#46,.T.);
#174=ADVANCED_FACE('',(#153,#154),#30,.T.);
#175=ADVANCED_FACE('',(#155),#161,.F.);
#176=ADVANCED_FACE('',(#156),#162,.F.);
#177=ADVANCED_FACE('',(#157),#163,.F.);
#178=ADVANCED_FACE('',(#158),#164,.F.);
#179=CLOSED_SHELL('',(#165,#166,#167));
#180=CLOSED_SHELL('',(#168,#169,#170,#171,#172,#173,#174,#175,#176,#177,
#178));
#181=MANIFOLD_SOLID_BREP('solid',#179);
#182=MANIFOLD_SOLID_BREP('solid',#180);
#183=SHAPE_DEFINITION_REPRESENTATION(#331,#186);
#184=SHAPE_DEFINITION_REPRESENTATION(#332,#187);
#185=SHAPE_DEFINITION_REPRESENTATION(#334,#188);
#186=SHAPE_REPRESENTATION('19969 10.000',(#189,#195,#216),#322);
#187=SHAPE_REPRESENTATION('19969 10.000_PART1',(#189),#323);
#188=SHAPE_REPRESENTATION('19969 10.000_PART2',(#189),#324);
#189=AXIS2_PLACEMENT_3D('',#277,#217,#218);
#190=AXIS2_PLACEMENT_3D('',#278,#219,#220);
#191=AXIS2_PLACEMENT_3D('',#279,#221,#222);
#192=AXIS2_PLACEMENT_3D('',#281,#223,#224);
#193=AXIS2_PLACEMENT_3D('',#282,#225,#226);
#194=AXIS2_PLACEMENT_3D('',#284,#227,#228);
#195=AXIS2_PLACEMENT_3D('',#285,#229,#230);
#196=AXIS2_PLACEMENT_3D('',#286,#231,#232);
#197=AXIS2_PLACEMENT_3D('',#287,#233,#234);
#198=AXIS2_PLACEMENT_3D('',#289,#235,#236);
#199=AXIS2_PLACEMENT_3D('',#291,#237,#238);
#200=AXIS2_PLACEMENT_3D('',#292,#239,#240);
#201=AXIS2_PLACEMENT_3D('',#294,#241,#242);
#202=AXIS2_PLACEMENT_3D('',#295,#243,#244);
#203=AXIS2_PLACEMENT_3D('',#297,#245,#246);
#204=AXIS2_PLACEMENT_3D('',#298,#247,#248);
#205=AXIS2_PLACEMENT_3D('',#300,#249,#250);
#206=AXIS2_PLACEMENT_3D('',#301,#251,#252);
#207=AXIS2_PLACEMENT_3D('',#303,#253,#254);
#208=AXIS2_PLACEMENT_3D('',#307,#256,#257);
#209=AXIS2_PLACEMENT_3D('',#311,#259,#260);
#210=AXIS2_PLACEMENT_3D('',#312,#261,#262);
#211=AXIS2_PLACEMENT_3D('',#314,#263,#264);
#212=AXIS2_PLACEMENT_3D('',#315,#265,#266);
#213=AXIS2_PLACEMENT_3D('',#317,#268,#269);
#214=AXIS2_PLACEMENT_3D('',#319,#271,#272);
#215=AXIS2_PLACEMENT_3D('',#320,#273,#274);
#216=AXIS2_PLACEMENT_3D('',#321,#275,#276);
#217=DIRECTION('',(0.,0.,1.));
#218=DIRECTION('',(1.,0.,0.));
#219=DIRECTION('',(0.,0.,1.));
#220=DIRECTION('',(1.,0.,0.));
#221=DIRECTION('',(0.,0.,-1.));
#222=DIRECTION('',(1.,0.,0.));
#223=DIRECTION('',(0.,1.62738445065953E-16,1.));
#224=DIRECTION('',(0.,1.,0.));
#225=DIRECTION('',(0.,1.01506105108586E-16,1.));
#226=DIRECTION('',(0.,1.,0.));
#227=DIRECTION('',(0.,0.,-1.));
#228=DIRECTION('',(0.,-1.,0.));
#229=DIRECTION('',(0.,0.,1.));
#230=DIRECTION('',(1.,0.,0.));
#231=DIRECTION('',(0.,0.,-1.));
#232=DIRECTION('',(0.,-1.,0.));
#233=DIRECTION('',(0.,0.,-1.));
#234=DIRECTION('',(1.,0.,0.));
#235=DIRECTION('',(0.,2.368475785867E-16,-1.));
#236=DIRECTION('',(0.,-1.,0.));
#237=DIRECTION('',(0.,0.,-1.));
#238=DIRECTION('',(0.,-1.,0.));
#239=DIRECTION('',(0.,2.368475785867E-16,-1.));
#240=DIRECTION('',(0.,-1.,0.));
#241=DIRECTION('',(0.,0.,-1.));
#242=DIRECTION('',(0.,-1.,0.));
#243=DIRECTION('',(0.,2.368475785867E-16,-1.));
#244=DIRECTION('',(0.,-1.,0.));
#245=DIRECTION('',(0.,0.,1.));
#246=DIRECTION('',(0.,1.,0.));
#247=DIRECTION('',(0.,-2.368475785867E-16,1.));
#248=DIRECTION('',(0.,-1.,-2.368475785867E-16));
#249=DIRECTION('',(0.,0.,1.));
#250=DIRECTION('',(1.,0.,0.));
#251=DIRECTION('',(0.,0.,1.));
#252=DIRECTION('',(1.,0.,0.));
#253=DIRECTION('',(0.,0.,-1.));
#254=DIRECTION('',(0.,-1.,0.));
#255=DIRECTION('',(0.,-2.368475785867E-16,1.));
#256=DIRECTION('',(-0.707106781186548,0.,0.707106781186547));
#257=DIRECTION('',(-0.707106781186547,3.34953057852538E-16,-0.707106781186548));
#258=DIRECTION('',(0.,2.368475785867E-16,-1.));
#259=DIRECTION('',(-0.707106781186548,0.,-0.707106781186547));
#260=DIRECTION('',(0.707106781186547,3.34953057852538E-16,-0.707106781186548));
#261=DIRECTION('',(0.,0.,-1.));
#262=DIRECTION('',(-1.,0.,0.));
#263=DIRECTION('',(0.,0.,-1.));
#264=DIRECTION('',(-1.,0.,6.61309384809567E-17));
#265=DIRECTION('',(0.707106781186548,0.,-0.707106781186548));
#266=DIRECTION('',(-0.707106781186548,0.,-0.707106781186547));
#267=DIRECTION('',(0.,-1.,0.));
#268=DIRECTION('',(1.,0.,0.));
#269=DIRECTION('',(0.,0.,-1.));
#270=DIRECTION('',(0.,-1.,0.));
#271=DIRECTION('',(0.707106781186548,0.,0.707106781186548));
#272=DIRECTION('',(0.707106781186548,0.,-0.707106781186547));
#273=DIRECTION('',(0.,0.,1.));
#274=DIRECTION('',(1.,0.,0.));
#275=DIRECTION('',(0.,0.,1.));
#276=DIRECTION('',(1.,0.,0.));
#277=CARTESIAN_POINT('',(0.,0.,0.));
#278=CARTESIAN_POINT('',(0.,0.,-48.));
#279=CARTESIAN_POINT('',(0.,-1.23160740865084E-14,-48.));
#280=CARTESIAN_POINT('',(5.00000000000001,-1.23160740865084E-14,-48.));
#281=CARTESIAN_POINT('',(0.,-8.10268032007132E-15,-65.));
#282=CARTESIAN_POINT('',(0.,-6.59789683205807E-15,-65.));
#283=CARTESIAN_POINT('',(0.,4.99999999999999,-65.));
#284=CARTESIAN_POINT('',(0.,-1.4210854715202E-14,-40.));
#285=CARTESIAN_POINT('',(0.,0.,0.));
#286=CARTESIAN_POINT('',(0.,-1.4210854715202E-14,-40.));
#287=CARTESIAN_POINT('',(0.,-1.23160740865084E-14,-48.));
#288=CARTESIAN_POINT('',(5.00000000000001,-1.23160740865084E-14,-48.));
#289=CARTESIAN_POINT('',(0.,-1.4208345361213E-14,-40.0105948053341));
#290=CARTESIAN_POINT('',(0.,-5.00000000000001,-40.0105948053341));
#291=CARTESIAN_POINT('',(0.,-1.4208345361213E-14,-40.0105948053341));
#292=CARTESIAN_POINT('',(0.,-1.42083494954029E-14,-40.0105773502692));
#293=CARTESIAN_POINT('',(0.,-4.99900000000001,-40.0105773502692));
#294=CARTESIAN_POINT('',(0.,-1.4210854715202E-14,-40.));
#295=CARTESIAN_POINT('',(0.,-1.42107179711887E-14,-40.0005773502692));
#296=CARTESIAN_POINT('',(0.,-4.99900000000001,-40.0005773502692));
#297=CARTESIAN_POINT('',(0.,-1.42107179711887E-14,-40.0005773502692));
#298=CARTESIAN_POINT('',(0.,-1.4210854715202E-14,-40.));
#299=CARTESIAN_POINT('',(0.,-5.00000000000002,-40.));
#300=CARTESIAN_POINT('',(0.,0.,0.));
#301=CARTESIAN_POINT('',(0.,0.,0.));
#302=CARTESIAN_POINT('',(4.4,0.,0.));
#303=CARTESIAN_POINT('',(0.,-1.4210854715202E-14,-40.));
#304=CARTESIAN_POINT('',(-3.5,-3.57071421427145,-40.));
#305=CARTESIAN_POINT('',(-3.50000000000001,-3.57071421427144,-23.5));
#306=CARTESIAN_POINT('',(-3.5,-3.57071421427144,-16.5));
#307=CARTESIAN_POINT('',(0.,-1.8947806286936E-14,-20.));
#308=CARTESIAN_POINT('',(-3.5,3.57071421427142,-23.5));
#309=CARTESIAN_POINT('',(-3.5,3.57071421427142,-40.));
#310=CARTESIAN_POINT('',(-3.5,3.57071421427142,-16.5));
#311=CARTESIAN_POINT('',(0.,-1.8947806286936E-14,-20.));
#312=CARTESIAN_POINT('',(0.,0.,-0.600000000000009));
#313=CARTESIAN_POINT('',(-5.00000000000001,0.,-0.600000000000009));
#314=CARTESIAN_POINT('',(0.,0.,-0.6));
#315=CARTESIAN_POINT('',(-5.00000000000001,5.,-25.));
#316=CARTESIAN_POINT('',(-3.50000000000001,5.,-23.5));
#317=CARTESIAN_POINT('',(-3.5,5.,-20.));
#318=CARTESIAN_POINT('',(-3.5,5.,-16.5));
#319=CARTESIAN_POINT('',(-3.5,5.,-16.5));
#320=CARTESIAN_POINT('',(0.,0.,-48.));
#321=CARTESIAN_POINT('',(0.,0.,0.));
#322=(
GEOMETRIC_REPRESENTATION_CONTEXT(3)
GLOBAL_UNCERTAINTY_ASSIGNED_CONTEXT((#325))
GLOBAL_UNIT_ASSIGNED_CONTEXT((#330,#329,#328))
REPRESENTATION_CONTEXT('19969 10.000','TOP_LEVEL_ASSEMBLY_PART')
);
#323=(
GEOMETRIC_REPRESENTATION_CONTEXT(3)
GLOBAL_UNCERTAINTY_ASSIGNED_CONTEXT((#326))
GLOBAL_UNIT_ASSIGNED_CONTEXT((#330,#329,#328))
REPRESENTATION_CONTEXT('19969 10.000_PART1','COMPONENT_PART')
);
#324=(
GEOMETRIC_REPRESENTATION_CONTEXT(3)
GLOBAL_UNCERTAINTY_ASSIGNED_CONTEXT((#327))
GLOBAL_UNIT_ASSIGNED_CONTEXT((#330,#329,#328))
REPRESENTATION_CONTEXT('19969 10.000_PART2','COMPONENT_PART')
);
#325=UNCERTAINTY_MEASURE_WITH_UNIT(LENGTH_MEASURE(1.E-5),#330,
'DISTANCE_ACCURACY_VALUE','Maximum Tolerance applied to model');
#326=UNCERTAINTY_MEASURE_WITH_UNIT(LENGTH_MEASURE(1.E-5),#330,
'DISTANCE_ACCURACY_VALUE','Maximum Tolerance applied to model');
#327=UNCERTAINTY_MEASURE_WITH_UNIT(LENGTH_MEASURE(1.E-5),#330,
'DISTANCE_ACCURACY_VALUE','Maximum Tolerance applied to model');
#328=(
NAMED_UNIT(*)
SI_UNIT($,.STERADIAN.)
SOLID_ANGLE_UNIT()
);
#329=(
NAMED_UNIT(*)
PLANE_ANGLE_UNIT()
SI_UNIT($,.RADIAN.)
);
#330=(
LENGTH_UNIT()
NAMED_UNIT(*)
SI_UNIT(.MILLI.,.METRE.)
);
#331=PRODUCT_DEFINITION_SHAPE('','',#336);
#332=PRODUCT_DEFINITION_SHAPE('','',#337);
#333=PRODUCT_DEFINITION_SHAPE(' ','NAUO PRDDFN',#33);
#334=PRODUCT_DEFINITION_SHAPE('','',#338);
#335=PRODUCT_DEFINITION_SHAPE(' ','NAUO PRDDFN',#34);
#336=PRODUCT_DEFINITION('','',#342,#339);
#337=PRODUCT_DEFINITION('','',#343,#340);
#338=PRODUCT_DEFINITION('','',#344,#341);
#339=DESIGN_CONTEXT('',#358,'design');
#340=DESIGN_CONTEXT('',#358,'design');
#341=DESIGN_CONTEXT('',#358,'design');
#342=PRODUCT_DEFINITION_FORMATION_WITH_SPECIFIED_SOURCE('','',#348,
 .NOT_KNOWN.);
#343=PRODUCT_DEFINITION_FORMATION_WITH_SPECIFIED_SOURCE('','',#349,
 .NOT_KNOWN.);
#344=PRODUCT_DEFINITION_FORMATION_WITH_SPECIFIED_SOURCE('','',#350,
 .NOT_KNOWN.);
#345=PRODUCT_RELATED_PRODUCT_CATEGORY('','',(#348));
#346=PRODUCT_RELATED_PRODUCT_CATEGORY('','',(#349));
#347=PRODUCT_RELATED_PRODUCT_CATEGORY('','',(#350));
#348=PRODUCT('19969 10.000','19969 10.000','19969 10.000',(#354));
#349=PRODUCT('19969 10.000_PART1','19969 10.000_PART1',
'19969 10.000_PART1',(#355));
#350=PRODUCT('19969 10.000_PART2','19969 10.000_PART2',
'19969 10.000_PART2',(#356));
#351=PRODUCT_CATEGORY('','');
#352=PRODUCT_CATEGORY('','');
#353=PRODUCT_CATEGORY('','');
#354=MECHANICAL_CONTEXT('',#358,'mechanical');
#355=MECHANICAL_CONTEXT('',#358,'mechanical');
#356=MECHANICAL_CONTEXT('',#358,'mechanical');
#357=APPLICATION_PROTOCOL_DEFINITION('international standard',
'config_control_design',2010,#358);
#358=APPLICATION_CONTEXT(
'configuration controlled 3D designs of mechanical parts and assemblie
s');
ENDSEC;
END-ISO-10303-21;
