ISO-10303-21;
HEADER;
/* Generated by software containing ST-Developer
 * from STEP Tools, Inc. (www.steptools.com) 
 */
/* OPTION: using custom renumber hook */

FILE_DESCRIPTION(
/* description */ ('STEP AP214'),
/* implementation_level */ '2;1');

FILE_NAME(
/* name */ '2428 12.000',
/* time_stamp */ '2026-05-14T15:35:49+02:00',
/* author */ ('License CC BY-ND 4.0'),
/* organization */ ('CADENAS'),
/* preprocessor_version */ 'ST-DEVELOPER v20',
/* originating_system */ 'PARTsolutions',
/* authorisation */ '  ');

FILE_SCHEMA (('AUTOMOTIVE_DESIGN {1 0 10303 214 3 1 1}'));
ENDSEC;

DATA;
#10=PROPERTY_DEFINITION_REPRESENTATION(#14,#12);
#11=PROPERTY_DEFINITION_REPRESENTATION(#15,#13);
#12=REPRESENTATION('',(#16),#500);
#13=REPRESENTATION('',(#17),#500);
#14=PROPERTY_DEFINITION('pmi validation property','',#511);
#15=PROPERTY_DEFINITION('pmi validation property','',#511);
#16=VALUE_REPRESENTATION_ITEM('number of annotations',COUNT_MEASURE(0.));
#17=VALUE_REPRESENTATION_ITEM('number of views',COUNT_MEASURE(0.));
#18=CONTEXT_DEPENDENT_SHAPE_REPRESENTATION(#24,#513);
#19=CONTEXT_DEPENDENT_SHAPE_REPRESENTATION(#25,#515);
#20=CONTEXT_DEPENDENT_SHAPE_REPRESENTATION(#26,#517);
#21=NEXT_ASSEMBLY_USAGE_OCCURRENCE('NAUO1','2428 12.000_PART1',
'2428 12.000_PART1',#518,#519,'');
#22=NEXT_ASSEMBLY_USAGE_OCCURRENCE('NAUO2','2428 12.000_PART2',
'2428 12.000_PART2',#518,#520,'');
#23=NEXT_ASSEMBLY_USAGE_OCCURRENCE('NAUO3','2428 12.000_PART3',
'2428 12.000_PART3',#518,#521,'');
#24=(
REPRESENTATION_RELATIONSHIP(' ',' ',#290,#289)
REPRESENTATION_RELATIONSHIP_WITH_TRANSFORMATION(#27)
SHAPE_REPRESENTATION_RELATIONSHIP()
);
#25=(
REPRESENTATION_RELATIONSHIP(' ',' ',#291,#289)
REPRESENTATION_RELATIONSHIP_WITH_TRANSFORMATION(#28)
SHAPE_REPRESENTATION_RELATIONSHIP()
);
#26=(
REPRESENTATION_RELATIONSHIP(' ',' ',#292,#289)
REPRESENTATION_RELATIONSHIP_WITH_TRANSFORMATION(#29)
SHAPE_REPRESENTATION_RELATIONSHIP()
);
#27=ITEM_DEFINED_TRANSFORMATION(' ',' ',#293,#315);
#28=ITEM_DEFINED_TRANSFORMATION(' ',' ',#293,#327);
#29=ITEM_DEFINED_TRANSFORMATION(' ',' ',#293,#339);
#30=SHAPE_REPRESENTATION_RELATIONSHIP('','',#290,#33);
#31=SHAPE_REPRESENTATION_RELATIONSHIP('','',#291,#34);
#32=SHAPE_REPRESENTATION_RELATIONSHIP('','',#292,#35);
#33=ADVANCED_BREP_SHAPE_REPRESENTATION('',(#282),#501);
#34=ADVANCED_BREP_SHAPE_REPRESENTATION('',(#283),#502);
#35=ADVANCED_BREP_SHAPE_REPRESENTATION('',(#284),#503);
#36=TOROIDAL_SURFACE('',#307,4.401,0.001);
#37=PLANE('',#299);
#38=PLANE('',#314);
#39=PLANE('',#319);
#40=PLANE('',#323);
#41=PLANE('',#337);
#42=PLANE('',#338);
#43=CONICAL_SURFACE('',#297,4.5,0.7853981625);
#44=CONICAL_SURFACE('',#306,4.5,0.523598775);
#45=CONICAL_SURFACE('',#309,4.400134,0.523598775);
#46=CONICAL_SURFACE('',#310,4.4,0.7853981625);
#47=CONICAL_SURFACE('',#312,2.75,1.361356815);
#48=CONICAL_SURFACE('',#321,4.400134,0.523598775);
#49=CONICAL_SURFACE('',#324,5.055,0.151081021);
#50=CONICAL_SURFACE('',#326,4.562389,0.7853981625);
#51=CONICAL_SURFACE('',#328,4.562389,0.7853981625);
#52=CONICAL_SURFACE('',#334,2.5,1.04719755);
#53=CONICAL_SURFACE('',#336,2.5,0.7853981625);
#54=ORIENTED_EDGE('',*,*,#94,.T.);
#55=ORIENTED_EDGE('',*,*,#95,.F.);
#56=ORIENTED_EDGE('',*,*,#96,.T.);
#57=ORIENTED_EDGE('',*,*,#94,.F.);
#58=ORIENTED_EDGE('',*,*,#97,.T.);
#59=ORIENTED_EDGE('',*,*,#98,.F.);
#60=ORIENTED_EDGE('',*,*,#99,.T.);
#61=ORIENTED_EDGE('',*,*,#100,.T.);
#62=ORIENTED_EDGE('',*,*,#96,.F.);
#63=ORIENTED_EDGE('',*,*,#100,.F.);
#64=ORIENTED_EDGE('',*,*,#98,.T.);
#65=ORIENTED_EDGE('',*,*,#101,.T.);
#66=ORIENTED_EDGE('',*,*,#99,.F.);
#67=ORIENTED_EDGE('',*,*,#101,.F.);
#68=ORIENTED_EDGE('',*,*,#97,.F.);
#69=ORIENTED_EDGE('',*,*,#95,.T.);
#70=ORIENTED_EDGE('',*,*,#102,.F.);
#71=ORIENTED_EDGE('',*,*,#102,.T.);
#72=ORIENTED_EDGE('',*,*,#103,.T.);
#73=ORIENTED_EDGE('',*,*,#103,.F.);
#74=ORIENTED_EDGE('',*,*,#104,.F.);
#75=ORIENTED_EDGE('',*,*,#105,.T.);
#76=ORIENTED_EDGE('',*,*,#106,.T.);
#77=ORIENTED_EDGE('',*,*,#107,.T.);
#78=ORIENTED_EDGE('',*,*,#104,.T.);
#79=ORIENTED_EDGE('',*,*,#107,.F.);
#80=ORIENTED_EDGE('',*,*,#108,.F.);
#81=ORIENTED_EDGE('',*,*,#105,.F.);
#82=ORIENTED_EDGE('',*,*,#108,.T.);
#83=ORIENTED_EDGE('',*,*,#106,.F.);
#84=ORIENTED_EDGE('',*,*,#109,.T.);
#85=ORIENTED_EDGE('',*,*,#110,.F.);
#86=ORIENTED_EDGE('',*,*,#111,.T.);
#87=ORIENTED_EDGE('',*,*,#112,.F.);
#88=ORIENTED_EDGE('',*,*,#113,.T.);
#89=ORIENTED_EDGE('',*,*,#110,.T.);
#90=ORIENTED_EDGE('',*,*,#113,.F.);
#91=ORIENTED_EDGE('',*,*,#111,.F.);
#92=ORIENTED_EDGE('',*,*,#112,.T.);
#93=ORIENTED_EDGE('',*,*,#109,.F.);
#94=EDGE_CURVE('',#114,#114,#132,.T.);
#95=EDGE_CURVE('',#115,#115,#133,.T.);
#96=EDGE_CURVE('',#116,#116,#134,.T.);
#97=EDGE_CURVE('',#117,#117,#135,.T.);
#98=EDGE_CURVE('',#118,#118,#136,.T.);
#99=EDGE_CURVE('',#119,#119,#137,.T.);
#100=EDGE_CURVE('',#120,#120,#138,.T.);
#101=EDGE_CURVE('',#119,#119,#139,.T.);
#102=EDGE_CURVE('',#121,#121,#140,.T.);
#103=EDGE_CURVE('',#122,#122,#141,.T.);
#104=EDGE_CURVE('',#123,#123,#142,.T.);
#105=EDGE_CURVE('',#124,#124,#143,.T.);
#106=EDGE_CURVE('',#125,#125,#144,.T.);
#107=EDGE_CURVE('',#126,#126,#145,.T.);
#108=EDGE_CURVE('',#127,#127,#146,.T.);
#109=EDGE_CURVE('',#128,#128,#147,.T.);
#110=EDGE_CURVE('',#129,#129,#148,.T.);
#111=EDGE_CURVE('',#130,#130,#149,.T.);
#112=EDGE_CURVE('',#130,#130,#150,.T.);
#113=EDGE_CURVE('',#131,#131,#151,.T.);
#114=VERTEX_POINT('',#437);
#115=VERTEX_POINT('',#439);
#116=VERTEX_POINT('',#442);
#117=VERTEX_POINT('',#445);
#118=VERTEX_POINT('',#448);
#119=VERTEX_POINT('',#450);
#120=VERTEX_POINT('',#453);
#121=VERTEX_POINT('',#460);
#122=VERTEX_POINT('',#463);
#123=VERTEX_POINT('',#468);
#124=VERTEX_POINT('',#470);
#125=VERTEX_POINT('',#473);
#126=VERTEX_POINT('',#476);
#127=VERTEX_POINT('',#480);
#128=VERTEX_POINT('',#485);
#129=VERTEX_POINT('',#487);
#130=VERTEX_POINT('',#490);
#131=VERTEX_POINT('',#494);
#132=CIRCLE('',#295,4.4);
#133=CIRCLE('',#296,4.4);
#134=CIRCLE('',#298,4.5);
#135=CIRCLE('',#300,5.5666146);
#136=CIRCLE('',#302,4.4);
#137=CIRCLE('',#303,4.4);
#138=CIRCLE('',#305,4.5);
#139=CIRCLE('',#308,4.400134);
#140=CIRCLE('',#311,2.75);
#141=CIRCLE('',#313,0.0001);
#142=CIRCLE('',#317,6.04);
#143=CIRCLE('',#318,6.04);
#144=CIRCLE('',#320,4.5822469);
#145=CIRCLE('',#322,5.5666146);
#146=CIRCLE('',#325,5.092389);
#147=CIRCLE('',#329,4.5822469);
#148=CIRCLE('',#330,4.562389);
#149=CIRCLE('',#332,0.001);
#150=CIRCLE('',#333,0.001);
#151=CIRCLE('',#335,2.5);
#152=EDGE_LOOP('',(#54));
#153=EDGE_LOOP('',(#55));
#154=EDGE_LOOP('',(#56));
#155=EDGE_LOOP('',(#57));
#156=EDGE_LOOP('',(#58));
#157=EDGE_LOOP('',(#59));
#158=EDGE_LOOP('',(#60));
#159=EDGE_LOOP('',(#61));
#160=EDGE_LOOP('',(#62));
#161=EDGE_LOOP('',(#63));
#162=EDGE_LOOP('',(#64));
#163=EDGE_LOOP('',(#65,#66));
#164=EDGE_LOOP('',(#67));
#165=EDGE_LOOP('',(#68));
#166=EDGE_LOOP('',(#69));
#167=EDGE_LOOP('',(#70));
#168=EDGE_LOOP('',(#71));
#169=EDGE_LOOP('',(#72));
#170=EDGE_LOOP('',(#73));
#171=EDGE_LOOP('',(#74));
#172=EDGE_LOOP('',(#75));
#173=EDGE_LOOP('',(#76));
#174=EDGE_LOOP('',(#77));
#175=EDGE_LOOP('',(#78));
#176=EDGE_LOOP('',(#79));
#177=EDGE_LOOP('',(#80));
#178=EDGE_LOOP('',(#81));
#179=EDGE_LOOP('',(#82));
#180=EDGE_LOOP('',(#83));
#181=EDGE_LOOP('',(#84));
#182=EDGE_LOOP('',(#85));
#183=EDGE_LOOP('',(#86,#87));
#184=EDGE_LOOP('',(#88));
#185=EDGE_LOOP('',(#89));
#186=EDGE_LOOP('',(#90));
#187=EDGE_LOOP('',(#91));
#188=EDGE_LOOP('',(#92));
#189=EDGE_LOOP('',(#93));
#190=FACE_BOUND('',#152,.T.);
#191=FACE_BOUND('',#153,.T.);
#192=FACE_BOUND('',#154,.T.);
#193=FACE_BOUND('',#155,.T.);
#194=FACE_BOUND('',#156,.T.);
#195=FACE_BOUND('',#157,.T.);
#196=FACE_BOUND('',#158,.T.);
#197=FACE_BOUND('',#159,.T.);
#198=FACE_BOUND('',#160,.T.);
#199=FACE_BOUND('',#161,.T.);
#200=FACE_BOUND('',#162,.T.);
#201=FACE_BOUND('',#163,.T.);
#202=FACE_BOUND('',#164,.T.);
#203=FACE_BOUND('',#165,.T.);
#204=FACE_BOUND('',#166,.T.);
#205=FACE_BOUND('',#167,.T.);
#206=FACE_BOUND('',#168,.T.);
#207=FACE_BOUND('',#169,.T.);
#208=FACE_BOUND('',#170,.T.);
#209=FACE_BOUND('',#171,.T.);
#210=FACE_BOUND('',#172,.T.);
#211=FACE_BOUND('',#173,.T.);
#212=FACE_BOUND('',#174,.T.);
#213=FACE_BOUND('',#175,.T.);
#214=FACE_BOUND('',#176,.T.);
#215=FACE_BOUND('',#177,.T.);
#216=FACE_BOUND('',#178,.T.);
#217=FACE_BOUND('',#179,.T.);
#218=FACE_BOUND('',#180,.T.);
#219=FACE_BOUND('',#181,.T.);
#220=FACE_BOUND('',#182,.T.);
#221=FACE_BOUND('',#183,.T.);
#222=FACE_BOUND('',#184,.T.);
#223=FACE_BOUND('',#185,.T.);
#224=FACE_BOUND('',#186,.T.);
#225=FACE_BOUND('',#187,.T.);
#226=FACE_BOUND('',#188,.T.);
#227=FACE_BOUND('',#189,.T.);
#228=CYLINDRICAL_SURFACE('',#294,4.4);
#229=CYLINDRICAL_SURFACE('',#301,4.4);
#230=CYLINDRICAL_SURFACE('',#304,4.5);
#231=CYLINDRICAL_SURFACE('',#316,6.04);
#232=CYLINDRICAL_SURFACE('',#331,0.001);
#233=ADVANCED_FACE('',(#190,#191),#228,.T.);
#234=ADVANCED_FACE('',(#192,#193),#43,.T.);
#235=ADVANCED_FACE('',(#194),#37,.F.);
#236=ADVANCED_FACE('',(#195,#196),#229,.T.);
#237=ADVANCED_FACE('',(#197,#198),#230,.T.);
#238=ADVANCED_FACE('',(#199,#200),#44,.T.);
#239=ADVANCED_FACE('',(#201),#36,.F.);
#240=ADVANCED_FACE('',(#202,#203),#45,.T.);
#241=ADVANCED_FACE('',(#204,#205),#46,.T.);
#242=ADVANCED_FACE('',(#206,#207),#47,.T.);
#243=ADVANCED_FACE('',(#208),#38,.T.);
#244=ADVANCED_FACE('',(#209,#210),#231,.T.);
#245=ADVANCED_FACE('',(#211),#39,.F.);
#246=ADVANCED_FACE('',(#212,#213),#48,.T.);
#247=ADVANCED_FACE('',(#214),#40,.T.);
#248=ADVANCED_FACE('',(#215,#216),#49,.T.);
#249=ADVANCED_FACE('',(#217,#218),#50,.T.);
#250=ADVANCED_FACE('',(#219,#220),#51,.T.);
#251=ADVANCED_FACE('',(#221),#232,.T.);
#252=ADVANCED_FACE('',(#222,#223),#52,.T.);
#253=ADVANCED_FACE('',(#224,#225),#53,.T.);
#254=ADVANCED_FACE('',(#226),#41,.F.);
#255=ADVANCED_FACE('',(#227),#42,.T.);
#256=CLOSED_SHELL('',(#233,#234,#235,#236,#237,#238,#239,#240,#241,#242,
#243));
#257=CLOSED_SHELL('',(#244,#245,#246,#247,#248,#249));
#258=CLOSED_SHELL('',(#250,#251,#252,#253,#254,#255));
#259=STYLED_ITEM('',(#262),#282);
#260=STYLED_ITEM('',(#263),#283);
#261=STYLED_ITEM('',(#264),#284);
#262=PRESENTATION_STYLE_ASSIGNMENT((#265));
#263=PRESENTATION_STYLE_ASSIGNMENT((#266));
#264=PRESENTATION_STYLE_ASSIGNMENT((#267));
#265=SURFACE_STYLE_USAGE(.BOTH.,#268);
#266=SURFACE_STYLE_USAGE(.BOTH.,#269);
#267=SURFACE_STYLE_USAGE(.BOTH.,#270);
#268=SURFACE_SIDE_STYLE('',(#271));
#269=SURFACE_SIDE_STYLE('',(#272));
#270=SURFACE_SIDE_STYLE('',(#273));
#271=SURFACE_STYLE_FILL_AREA(#274);
#272=SURFACE_STYLE_FILL_AREA(#275);
#273=SURFACE_STYLE_FILL_AREA(#276);
#274=FILL_AREA_STYLE('',(#277));
#275=FILL_AREA_STYLE('',(#278));
#276=FILL_AREA_STYLE('',(#279));
#277=FILL_AREA_STYLE_COLOUR('',#280);
#278=FILL_AREA_STYLE_COLOUR('',#281);
#279=FILL_AREA_STYLE_COLOUR('',#280);
#280=COLOUR_RGB('',0.4999923706,0.4999923706,0.4999923706);
#281=COLOUR_RGB('',0.8000000119,0.8000000119,0.8000000119);
#282=MANIFOLD_SOLID_BREP('1',#256);
#283=MANIFOLD_SOLID_BREP('1',#257);
#284=MANIFOLD_SOLID_BREP('1',#258);
#285=SHAPE_DEFINITION_REPRESENTATION(#511,#289);
#286=SHAPE_DEFINITION_REPRESENTATION(#512,#290);
#287=SHAPE_DEFINITION_REPRESENTATION(#514,#291);
#288=SHAPE_DEFINITION_REPRESENTATION(#516,#292);
#289=SHAPE_REPRESENTATION('2428 12.000',(#293,#315,#327,#339),#500);
#290=SHAPE_REPRESENTATION('2428 12.000_PART1',(#293),#501);
#291=SHAPE_REPRESENTATION('2428 12.000_PART2',(#293),#502);
#292=SHAPE_REPRESENTATION('2428 12.000_PART3',(#293),#503);
#293=AXIS2_PLACEMENT_3D('',#434,#340,#341);
#294=AXIS2_PLACEMENT_3D('',#435,#342,#343);
#295=AXIS2_PLACEMENT_3D('',#436,#344,#345);
#296=AXIS2_PLACEMENT_3D('',#438,#346,#347);
#297=AXIS2_PLACEMENT_3D('',#440,#348,#349);
#298=AXIS2_PLACEMENT_3D('',#441,#350,#351);
#299=AXIS2_PLACEMENT_3D('',#443,#352,#353);
#300=AXIS2_PLACEMENT_3D('',#444,#354,#355);
#301=AXIS2_PLACEMENT_3D('',#446,#356,#357);
#302=AXIS2_PLACEMENT_3D('',#447,#358,#359);
#303=AXIS2_PLACEMENT_3D('',#449,#360,#361);
#304=AXIS2_PLACEMENT_3D('',#451,#362,#363);
#305=AXIS2_PLACEMENT_3D('',#452,#364,#365);
#306=AXIS2_PLACEMENT_3D('',#454,#366,#367);
#307=AXIS2_PLACEMENT_3D('',#455,#368,#369);
#308=AXIS2_PLACEMENT_3D('',#456,#370,#371);
#309=AXIS2_PLACEMENT_3D('',#457,#372,#373);
#310=AXIS2_PLACEMENT_3D('',#458,#374,#375);
#311=AXIS2_PLACEMENT_3D('',#459,#376,#377);
#312=AXIS2_PLACEMENT_3D('',#461,#378,#379);
#313=AXIS2_PLACEMENT_3D('',#462,#380,#381);
#314=AXIS2_PLACEMENT_3D('',#464,#382,#383);
#315=AXIS2_PLACEMENT_3D('',#465,#384,#385);
#316=AXIS2_PLACEMENT_3D('',#466,#386,#387);
#317=AXIS2_PLACEMENT_3D('',#467,#388,#389);
#318=AXIS2_PLACEMENT_3D('',#469,#390,#391);
#319=AXIS2_PLACEMENT_3D('',#471,#392,#393);
#320=AXIS2_PLACEMENT_3D('',#472,#394,#395);
#321=AXIS2_PLACEMENT_3D('',#474,#396,#397);
#322=AXIS2_PLACEMENT_3D('',#475,#398,#399);
#323=AXIS2_PLACEMENT_3D('',#477,#400,#401);
#324=AXIS2_PLACEMENT_3D('',#478,#402,#403);
#325=AXIS2_PLACEMENT_3D('',#479,#404,#405);
#326=AXIS2_PLACEMENT_3D('',#481,#406,#407);
#327=AXIS2_PLACEMENT_3D('',#482,#408,#409);
#328=AXIS2_PLACEMENT_3D('',#483,#410,#411);
#329=AXIS2_PLACEMENT_3D('',#484,#412,#413);
#330=AXIS2_PLACEMENT_3D('',#486,#414,#415);
#331=AXIS2_PLACEMENT_3D('',#488,#416,#417);
#332=AXIS2_PLACEMENT_3D('',#489,#418,#419);
#333=AXIS2_PLACEMENT_3D('',#491,#420,#421);
#334=AXIS2_PLACEMENT_3D('',#492,#422,#423);
#335=AXIS2_PLACEMENT_3D('',#493,#424,#425);
#336=AXIS2_PLACEMENT_3D('',#495,#426,#427);
#337=AXIS2_PLACEMENT_3D('',#496,#428,#429);
#338=AXIS2_PLACEMENT_3D('',#497,#430,#431);
#339=AXIS2_PLACEMENT_3D('',#498,#432,#433);
#340=DIRECTION('',(0.,0.,1.));
#341=DIRECTION('',(1.,0.,0.));
#342=DIRECTION('',(0.,0.,-1.));
#343=DIRECTION('',(1.,0.,0.));
#344=DIRECTION('',(0.,0.,1.));
#345=DIRECTION('',(1.,0.,0.));
#346=DIRECTION('',(0.,0.,1.));
#347=DIRECTION('',(1.,0.,0.));
#348=DIRECTION('',(-6.73511354535527E-17,0.,-1.));
#349=DIRECTION('',(-1.,0.,6.73511354535527E-17));
#350=DIRECTION('',(0.,0.,1.));
#351=DIRECTION('',(1.,0.,0.));
#352=DIRECTION('',(0.,0.,1.));
#353=DIRECTION('',(1.,0.,0.));
#354=DIRECTION('',(0.,0.,-1.));
#355=DIRECTION('',(1.,0.,0.));
#356=DIRECTION('',(0.,0.,-1.));
#357=DIRECTION('',(1.,0.,0.));
#358=DIRECTION('',(0.,0.,1.));
#359=DIRECTION('',(1.,0.,0.));
#360=DIRECTION('',(0.,0.,1.));
#361=DIRECTION('',(1.,0.,0.));
#362=DIRECTION('',(0.,0.,-1.));
#363=DIRECTION('',(1.,0.,0.));
#364=DIRECTION('',(0.,0.,1.));
#365=DIRECTION('',(1.,0.,0.));
#366=DIRECTION('',(-3.57766986010237E-17,0.,1.));
#367=DIRECTION('',(1.,0.,3.57766986010237E-17));
#368=DIRECTION('',(0.,0.,1.));
#369=DIRECTION('',(1.,0.,0.));
#370=DIRECTION('',(0.,0.,1.));
#371=DIRECTION('',(1.,0.,0.));
#372=DIRECTION('',(9.54209071954651E-17,0.,-1.));
#373=DIRECTION('',(-1.,0.,-9.54209071954651E-17));
#374=DIRECTION('',(-8.1174834100866E-17,0.,-1.));
#375=DIRECTION('',(-1.,0.,8.1174834100866E-17));
#376=DIRECTION('',(0.,0.,1.));
#377=DIRECTION('',(1.,0.,0.));
#378=DIRECTION('',(-3.01718750753989E-18,0.,-1.));
#379=DIRECTION('',(-1.,0.,3.01718750753989E-18));
#380=DIRECTION('',(0.,0.,-1.));
#381=DIRECTION('',(-1.,0.,0.));
#382=DIRECTION('',(0.,0.,1.));
#383=DIRECTION('',(1.,0.,0.));
#384=DIRECTION('',(0.,0.,1.));
#385=DIRECTION('',(1.,0.,0.));
#386=DIRECTION('',(0.,0.,-1.));
#387=DIRECTION('',(1.,0.,0.));
#388=DIRECTION('',(0.,0.,1.));
#389=DIRECTION('',(1.,0.,0.));
#390=DIRECTION('',(0.,0.,1.));
#391=DIRECTION('',(1.,0.,0.));
#392=DIRECTION('',(0.,0.,1.));
#393=DIRECTION('',(1.,0.,0.));
#394=DIRECTION('',(0.,0.,-1.));
#395=DIRECTION('',(1.,0.,0.));
#396=DIRECTION('',(9.54209071954651E-17,0.,-1.));
#397=DIRECTION('',(-1.,0.,-9.54209071954651E-17));
#398=DIRECTION('',(0.,0.,-1.));
#399=DIRECTION('',(1.,0.,0.));
#400=DIRECTION('',(0.,0.,1.));
#401=DIRECTION('',(1.,0.,0.));
#402=DIRECTION('',(0.,0.,1.));
#403=DIRECTION('',(1.,0.,0.));
#404=DIRECTION('',(0.,0.,-1.));
#405=DIRECTION('',(-1.,0.,0.));
#406=DIRECTION('',(4.1444278501599E-17,0.,1.));
#407=DIRECTION('',(1.,0.,-4.1444278501599E-17));
#408=DIRECTION('',(0.,0.,1.));
#409=DIRECTION('',(1.,0.,0.));
#410=DIRECTION('',(4.1444278501599E-17,0.,1.));
#411=DIRECTION('',(1.,0.,-4.1444278501599E-17));
#412=DIRECTION('',(0.,0.,-1.));
#413=DIRECTION('',(1.,0.,0.));
#414=DIRECTION('',(0.,0.,-1.));
#415=DIRECTION('',(-1.,0.,0.));
#416=DIRECTION('',(0.,0.,1.));
#417=DIRECTION('',(-1.,0.,0.));
#418=DIRECTION('',(0.,0.,-1.));
#419=DIRECTION('',(1.,0.,0.));
#420=DIRECTION('',(0.,0.,-1.));
#421=DIRECTION('',(1.,0.,0.));
#422=DIRECTION('',(-3.20031854870029E-17,0.,1.));
#423=DIRECTION('',(1.,0.,3.20031854870029E-17));
#424=DIRECTION('',(0.,0.,1.));
#425=DIRECTION('',(1.,0.,0.));
#426=DIRECTION('',(-5.53727194326765E-17,0.,1.));
#427=DIRECTION('',(1.,0.,5.53727194326765E-17));
#428=DIRECTION('',(0.,0.,1.));
#429=DIRECTION('',(1.,0.,0.));
#430=DIRECTION('',(0.,0.,1.));
#431=DIRECTION('',(1.,0.,0.));
#432=DIRECTION('',(0.,0.,1.));
#433=DIRECTION('',(1.,0.,0.));
#434=CARTESIAN_POINT('',(0.,0.,0.));
#435=CARTESIAN_POINT('',(-6.84715660598485E-16,0.,-114.280478744344));
#436=CARTESIAN_POINT('',(-1.00006847156606E-11,0.,-13.18450000001));
#437=CARTESIAN_POINT('',(4.39999999999,0.,-13.18450000001));
#438=CARTESIAN_POINT('',(-1.00006847156606E-11,0.,-2.23450000001));
#439=CARTESIAN_POINT('',(4.39999999999,0.,-2.23450000001));
#440=CARTESIAN_POINT('',(-6.84715660598485E-16,0.,-13.2845));
#441=CARTESIAN_POINT('',(-1.00006847156606E-11,0.,-13.28450000001));
#442=CARTESIAN_POINT('',(4.49999999999,0.,-13.28450000001));
#443=CARTESIAN_POINT('',(-6.84715660598485E-16,0.,-86.0163873351174));
#444=CARTESIAN_POINT('',(-1.00006847156606E-11,0.,-86.0163873351274));
#445=CARTESIAN_POINT('',(5.56661459999,0.,-86.0163873351274));
#446=CARTESIAN_POINT('',(-6.84715660598485E-16,0.,-114.280478744344));
#447=CARTESIAN_POINT('',(-1.00006847156606E-11,0.,-61.3834835583727));
#448=CARTESIAN_POINT('',(4.39999999999,0.,-61.3834835583727));
#449=CARTESIAN_POINT('',(-1.00006847156606E-11,0.,-83.9954835583727));
#450=CARTESIAN_POINT('',(4.40006699999,0.,-83.9957335583727));
#451=CARTESIAN_POINT('',(-6.84715660598485E-16,0.,-114.280478744344));
#452=CARTESIAN_POINT('',(-1.00006847156606E-11,0.,-61.2102784776159));
#453=CARTESIAN_POINT('',(4.49999999999,0.,-61.2102784776159));
#454=CARTESIAN_POINT('',(-6.84715660598485E-16,0.,-61.2102784776059));
#455=CARTESIAN_POINT('',(-6.84715660598485E-16,0.,-83.9954835583627));
#456=CARTESIAN_POINT('',(-1.00006847156606E-11,0.,-83.9959835583727));
#457=CARTESIAN_POINT('',(-6.84715660598485E-16,0.,-83.9959835583627));
#458=CARTESIAN_POINT('',(-6.84715660598485E-16,0.,-2.2345));
#459=CARTESIAN_POINT('',(-1.00006847156606E-11,0.,-0.58450000001));
#460=CARTESIAN_POINT('',(2.74999999999,0.,-0.58450000001));
#461=CARTESIAN_POINT('',(-6.84715660598485E-16,0.,-0.584500000000002));
#462=CARTESIAN_POINT('',(-1.00006847156606E-11,0.,0.));
#463=CARTESIAN_POINT('',(9.99999899993153E-5,1.22464679914735E-20,0.));
#464=CARTESIAN_POINT('',(-6.84715660598485E-16,0.,0.));
#465=CARTESIAN_POINT('',(0.,0.,0.));
#466=CARTESIAN_POINT('',(-6.84715660598485E-16,0.,-114.280478744344));
#467=CARTESIAN_POINT('',(-1.00006847156606E-11,0.,-86.8363148319781));
#468=CARTESIAN_POINT('',(6.03999999999,0.,-86.8363148319781));
#469=CARTESIAN_POINT('',(-1.00006847156606E-11,0.,-103.835448806574));
#470=CARTESIAN_POINT('',(6.03999999999,0.,-103.835448806574));
#471=CARTESIAN_POINT('',(-6.84715660598485E-16,0.,-110.57));
#472=CARTESIAN_POINT('',(-1.00006847156606E-11,0.,-110.57000000001));
#473=CARTESIAN_POINT('',(4.58224689999,0.,-110.57000000001));
#474=CARTESIAN_POINT('',(-6.84715660598485E-16,0.,-83.9959835583627));
#475=CARTESIAN_POINT('',(-1.00006847156606E-11,0.,-86.0163873351274));
#476=CARTESIAN_POINT('',(5.56661459999,0.,-86.0163873351274));
#477=CARTESIAN_POINT('',(-6.84715660598485E-16,0.,-86.0163873351174));
#478=CARTESIAN_POINT('',(-6.84715660598485E-16,0.,-110.305448806564));
#479=CARTESIAN_POINT('',(-1.00006847156606E-11,0.,-110.059857879197));
#480=CARTESIAN_POINT('',(-5.09238900001,0.,-110.059857879197));
#481=CARTESIAN_POINT('',(-6.84715660598485E-16,0.,-110.589857879187));
#482=CARTESIAN_POINT('',(0.,0.,0.));
#483=CARTESIAN_POINT('',(-6.84715660598485E-16,0.,-110.589857879187));
#484=CARTESIAN_POINT('',(-1.00006847156606E-11,0.,-110.57000000001));
#485=CARTESIAN_POINT('',(4.58224689999,0.,-110.57000000001));
#486=CARTESIAN_POINT('',(-1.00006847156606E-11,0.,-110.589857879197));
#487=CARTESIAN_POINT('',(-4.56238900001,0.,-110.589857879197));
#488=CARTESIAN_POINT('',(-6.84715660598485E-16,0.,-114.280478744344));
#489=CARTESIAN_POINT('',(-1.00006847156606E-11,0.,-114.279578744354));
#490=CARTESIAN_POINT('',(0.000999999989999315,0.,-114.280028744354));
#491=CARTESIAN_POINT('',(-1.00006847156606E-11,0.,-114.280478744354));
#492=CARTESIAN_POINT('',(-6.84715660598485E-16,0.,-111.780578744344));
#493=CARTESIAN_POINT('',(-1.00006847156606E-11,0.,-111.780578744354));
#494=CARTESIAN_POINT('',(2.49999999999,0.,-111.780578744354));
#495=CARTESIAN_POINT('',(-6.84715660598485E-16,0.,-111.780578744344));
#496=CARTESIAN_POINT('',(-6.84715660598485E-16,5.06238903608453,-114.280478744344));
#497=CARTESIAN_POINT('',(-6.84715660598485E-16,0.,-110.57));
#498=CARTESIAN_POINT('',(0.,0.,0.));
#499=MECHANICAL_DESIGN_GEOMETRIC_PRESENTATION_REPRESENTATION('',(#259,#260,
#261),#500);
#500=(
GEOMETRIC_REPRESENTATION_CONTEXT(3)
GLOBAL_UNCERTAINTY_ASSIGNED_CONTEXT((#504))
GLOBAL_UNIT_ASSIGNED_CONTEXT((#510,#509,#508))
REPRESENTATION_CONTEXT('2428 12.000','TOP_LEVEL_ASSEMBLY_PART')
);
#501=(
GEOMETRIC_REPRESENTATION_CONTEXT(3)
GLOBAL_UNCERTAINTY_ASSIGNED_CONTEXT((#505))
GLOBAL_UNIT_ASSIGNED_CONTEXT((#510,#509,#508))
REPRESENTATION_CONTEXT('2428 12.000_PART1','COMPONENT_PART')
);
#502=(
GEOMETRIC_REPRESENTATION_CONTEXT(3)
GLOBAL_UNCERTAINTY_ASSIGNED_CONTEXT((#506))
GLOBAL_UNIT_ASSIGNED_CONTEXT((#510,#509,#508))
REPRESENTATION_CONTEXT('2428 12.000_PART2','COMPONENT_PART')
);
#503=(
GEOMETRIC_REPRESENTATION_CONTEXT(3)
GLOBAL_UNCERTAINTY_ASSIGNED_CONTEXT((#507))
GLOBAL_UNIT_ASSIGNED_CONTEXT((#510,#509,#508))
REPRESENTATION_CONTEXT('2428 12.000_PART3','COMPONENT_PART')
);
#504=UNCERTAINTY_MEASURE_WITH_UNIT(LENGTH_MEASURE(1.E-5),#510,
'DISTANCE_ACCURACY_VALUE','Maximum Tolerance applied to model');
#505=UNCERTAINTY_MEASURE_WITH_UNIT(LENGTH_MEASURE(1.E-5),#510,
'DISTANCE_ACCURACY_VALUE','Maximum Tolerance applied to model');
#506=UNCERTAINTY_MEASURE_WITH_UNIT(LENGTH_MEASURE(1.E-5),#510,
'DISTANCE_ACCURACY_VALUE','Maximum Tolerance applied to model');
#507=UNCERTAINTY_MEASURE_WITH_UNIT(LENGTH_MEASURE(1.E-5),#510,
'DISTANCE_ACCURACY_VALUE','Maximum Tolerance applied to model');
#508=(
NAMED_UNIT(*)
SI_UNIT($,.STERADIAN.)
SOLID_ANGLE_UNIT()
);
#509=(
NAMED_UNIT(*)
PLANE_ANGLE_UNIT()
SI_UNIT($,.RADIAN.)
);
#510=(
LENGTH_UNIT()
NAMED_UNIT(*)
SI_UNIT(.MILLI.,.METRE.)
);
#511=PRODUCT_DEFINITION_SHAPE('','',#518);
#512=PRODUCT_DEFINITION_SHAPE('','',#519);
#513=PRODUCT_DEFINITION_SHAPE(' ','NAUO PRDDFN',#21);
#514=PRODUCT_DEFINITION_SHAPE('','',#520);
#515=PRODUCT_DEFINITION_SHAPE(' ','NAUO PRDDFN',#22);
#516=PRODUCT_DEFINITION_SHAPE('','',#521);
#517=PRODUCT_DEFINITION_SHAPE(' ','NAUO PRDDFN',#23);
#518=PRODUCT_DEFINITION('','',#526,#522);
#519=PRODUCT_DEFINITION('','',#527,#523);
#520=PRODUCT_DEFINITION('','',#528,#524);
#521=PRODUCT_DEFINITION('','',#529,#525);
#522=PRODUCT_DEFINITION_CONTEXT('',#547,'design');
#523=PRODUCT_DEFINITION_CONTEXT('',#547,'design');
#524=PRODUCT_DEFINITION_CONTEXT('',#547,'design');
#525=PRODUCT_DEFINITION_CONTEXT('',#547,'design');
#526=PRODUCT_DEFINITION_FORMATION_WITH_SPECIFIED_SOURCE('','',#534,
 .NOT_KNOWN.);
#527=PRODUCT_DEFINITION_FORMATION_WITH_SPECIFIED_SOURCE('','',#535,
 .NOT_KNOWN.);
#528=PRODUCT_DEFINITION_FORMATION_WITH_SPECIFIED_SOURCE('','',#536,
 .NOT_KNOWN.);
#529=PRODUCT_DEFINITION_FORMATION_WITH_SPECIFIED_SOURCE('','',#537,
 .NOT_KNOWN.);
#530=PRODUCT_RELATED_PRODUCT_CATEGORY('','',(#534));
#531=PRODUCT_RELATED_PRODUCT_CATEGORY('','',(#535));
#532=PRODUCT_RELATED_PRODUCT_CATEGORY('','',(#536));
#533=PRODUCT_RELATED_PRODUCT_CATEGORY('','',(#537));
#534=PRODUCT('2428 12.000','2428 12.000','2428 12.000',(#542));
#535=PRODUCT('2428 12.000_PART1','2428 12.000_PART1',
'2428 12.000_PART1',(#543));
#536=PRODUCT('2428 12.000_PART2','2428 12.000_PART2',
'2428 12.000_PART2',(#544));
#537=PRODUCT('2428 12.000_PART3','2428 12.000_PART3',
'2428 12.000_PART3',(#545));
#538=PRODUCT_CATEGORY('','');
#539=PRODUCT_CATEGORY('','');
#540=PRODUCT_CATEGORY('','');
#541=PRODUCT_CATEGORY('','');
#542=PRODUCT_CONTEXT('',#547,'mechanical');
#543=PRODUCT_CONTEXT('',#547,'mechanical');
#544=PRODUCT_CONTEXT('',#547,'mechanical');
#545=PRODUCT_CONTEXT('',#547,'mechanical');
#546=APPLICATION_PROTOCOL_DEFINITION('international standard',
'automotive_design',2010,#547);
#547=APPLICATION_CONTEXT(
'core data for automotive mechanical design processes');
ENDSEC;
END-ISO-10303-21;
