ISO-10303-21;
HEADER;
/* Generated by software containing ST-Developer
 * from STEP Tools, Inc. (www.steptools.com) 
 */
/* OPTION: using custom renumber hook */

FILE_DESCRIPTION(
/* description */ ('STEP AP214'),
/* implementation_level */ '2;1');

FILE_NAME(
/* name */ '2465 4.000',
/* time_stamp */ '2026-05-14T15:36:29+02:00',
/* author */ ('License CC BY-ND 4.0'),
/* organization */ ('CADENAS'),
/* preprocessor_version */ 'ST-DEVELOPER v20',
/* originating_system */ 'PARTsolutions',
/* authorisation */ '  ');

FILE_SCHEMA (('AUTOMOTIVE_DESIGN {1 0 10303 214 3 1 1}'));
ENDSEC;

DATA;
#10=PROPERTY_DEFINITION_REPRESENTATION(#14,#12);
#11=PROPERTY_DEFINITION_REPRESENTATION(#15,#13);
#12=REPRESENTATION('',(#16),#440);
#13=REPRESENTATION('',(#17),#440);
#14=PROPERTY_DEFINITION('pmi validation property','',#451);
#15=PROPERTY_DEFINITION('pmi validation property','',#451);
#16=VALUE_REPRESENTATION_ITEM('number of annotations',COUNT_MEASURE(0.));
#17=VALUE_REPRESENTATION_ITEM('number of views',COUNT_MEASURE(0.));
#18=CONTEXT_DEPENDENT_SHAPE_REPRESENTATION(#24,#453);
#19=CONTEXT_DEPENDENT_SHAPE_REPRESENTATION(#25,#455);
#20=CONTEXT_DEPENDENT_SHAPE_REPRESENTATION(#26,#457);
#21=NEXT_ASSEMBLY_USAGE_OCCURRENCE('NAUO1','2465 4.000_PART1',
'2465 4.000_PART1',#458,#459,'');
#22=NEXT_ASSEMBLY_USAGE_OCCURRENCE('NAUO2','2465 4.000_PART2',
'2465 4.000_PART2',#458,#460,'');
#23=NEXT_ASSEMBLY_USAGE_OCCURRENCE('NAUO3','2465 4.000_PART3',
'2465 4.000_PART3',#458,#461,'');
#24=(
REPRESENTATION_RELATIONSHIP(' ',' ',#257,#256)
REPRESENTATION_RELATIONSHIP_WITH_TRANSFORMATION(#27)
SHAPE_REPRESENTATION_RELATIONSHIP()
);
#25=(
REPRESENTATION_RELATIONSHIP(' ',' ',#258,#256)
REPRESENTATION_RELATIONSHIP_WITH_TRANSFORMATION(#28)
SHAPE_REPRESENTATION_RELATIONSHIP()
);
#26=(
REPRESENTATION_RELATIONSHIP(' ',' ',#259,#256)
REPRESENTATION_RELATIONSHIP_WITH_TRANSFORMATION(#29)
SHAPE_REPRESENTATION_RELATIONSHIP()
);
#27=ITEM_DEFINED_TRANSFORMATION(' ',' ',#260,#280);
#28=ITEM_DEFINED_TRANSFORMATION(' ',' ',#260,#290);
#29=ITEM_DEFINED_TRANSFORMATION(' ',' ',#260,#300);
#30=SHAPE_REPRESENTATION_RELATIONSHIP('','',#257,#33);
#31=SHAPE_REPRESENTATION_RELATIONSHIP('','',#258,#34);
#32=SHAPE_REPRESENTATION_RELATIONSHIP('','',#259,#35);
#33=ADVANCED_BREP_SHAPE_REPRESENTATION('',(#249),#441);
#34=ADVANCED_BREP_SHAPE_REPRESENTATION('',(#250),#442);
#35=ADVANCED_BREP_SHAPE_REPRESENTATION('',(#251),#443);
#36=TOROIDAL_SURFACE('',#277,1.501,0.001);
#37=CYLINDRICAL_SURFACE('',#273,2.2);
#38=CYLINDRICAL_SURFACE('',#274,1.5);
#39=CYLINDRICAL_SURFACE('',#276,2.25);
#40=CYLINDRICAL_SURFACE('',#281,2.025);
#41=CYLINDRICAL_SURFACE('',#291,0.001);
#42=CONICAL_SURFACE('',#265,2.25,0.13962634);
#43=CONICAL_SURFACE('',#268,2.25,0.7853981625);
#44=CONICAL_SURFACE('',#271,2.2,0.7853981625);
#45=CONICAL_SURFACE('',#279,1.500134,0.523598775);
#46=CONICAL_SURFACE('',#284,1.500134,0.523598775);
#47=CONICAL_SURFACE('',#287,1.6,0.1506359081);
#48=CONICAL_SURFACE('',#296,0.0002,0.7853981625);
#49=CONICAL_SURFACE('',#299,1.6,0.1506359081);
#50=ORIENTED_EDGE('',*,*,#84,.T.);
#51=ORIENTED_EDGE('',*,*,#85,.T.);
#52=ORIENTED_EDGE('',*,*,#86,.F.);
#53=ORIENTED_EDGE('',*,*,#87,.T.);
#54=ORIENTED_EDGE('',*,*,#88,.T.);
#55=ORIENTED_EDGE('',*,*,#89,.F.);
#56=ORIENTED_EDGE('',*,*,#90,.T.);
#57=ORIENTED_EDGE('',*,*,#85,.F.);
#58=ORIENTED_EDGE('',*,*,#89,.T.);
#59=ORIENTED_EDGE('',*,*,#90,.F.);
#60=ORIENTED_EDGE('',*,*,#87,.F.);
#61=ORIENTED_EDGE('',*,*,#91,.T.);
#62=ORIENTED_EDGE('',*,*,#86,.T.);
#63=ORIENTED_EDGE('',*,*,#88,.F.);
#64=ORIENTED_EDGE('',*,*,#92,.T.);
#65=ORIENTED_EDGE('',*,*,#91,.F.);
#66=ORIENTED_EDGE('',*,*,#92,.F.);
#67=ORIENTED_EDGE('',*,*,#84,.F.);
#68=ORIENTED_EDGE('',*,*,#93,.F.);
#69=ORIENTED_EDGE('',*,*,#94,.T.);
#70=ORIENTED_EDGE('',*,*,#95,.T.);
#71=ORIENTED_EDGE('',*,*,#93,.T.);
#72=ORIENTED_EDGE('',*,*,#95,.F.);
#73=ORIENTED_EDGE('',*,*,#94,.F.);
#74=ORIENTED_EDGE('',*,*,#96,.T.);
#75=ORIENTED_EDGE('',*,*,#96,.F.);
#76=ORIENTED_EDGE('',*,*,#97,.F.);
#77=ORIENTED_EDGE('',*,*,#98,.F.);
#78=ORIENTED_EDGE('',*,*,#99,.T.);
#79=ORIENTED_EDGE('',*,*,#100,.F.);
#80=ORIENTED_EDGE('',*,*,#97,.T.);
#81=ORIENTED_EDGE('',*,*,#98,.T.);
#82=ORIENTED_EDGE('',*,*,#99,.F.);
#83=ORIENTED_EDGE('',*,*,#100,.T.);
#84=EDGE_CURVE('',#101,#101,#116,.T.);
#85=EDGE_CURVE('',#102,#102,#117,.T.);
#86=EDGE_CURVE('',#103,#103,#118,.T.);
#87=EDGE_CURVE('',#104,#104,#119,.T.);
#88=EDGE_CURVE('',#105,#105,#120,.T.);
#89=EDGE_CURVE('',#106,#106,#121,.T.);
#90=EDGE_CURVE('',#107,#107,#122,.T.);
#91=EDGE_CURVE('',#108,#108,#123,.T.);
#92=EDGE_CURVE('',#108,#108,#124,.T.);
#93=EDGE_CURVE('',#109,#109,#125,.T.);
#94=EDGE_CURVE('',#110,#110,#126,.T.);
#95=EDGE_CURVE('',#111,#111,#127,.T.);
#96=EDGE_CURVE('',#112,#112,#128,.T.);
#97=EDGE_CURVE('',#113,#113,#129,.T.);
#98=EDGE_CURVE('',#113,#113,#130,.T.);
#99=EDGE_CURVE('',#114,#114,#131,.T.);
#100=EDGE_CURVE('',#115,#115,#132,.T.);
#101=VERTEX_POINT('',#386);
#102=VERTEX_POINT('',#389);
#103=VERTEX_POINT('',#392);
#104=VERTEX_POINT('',#394);
#105=VERTEX_POINT('',#397);
#106=VERTEX_POINT('',#399);
#107=VERTEX_POINT('',#402);
#108=VERTEX_POINT('',#406);
#109=VERTEX_POINT('',#414);
#110=VERTEX_POINT('',#416);
#111=VERTEX_POINT('',#419);
#112=VERTEX_POINT('',#423);
#113=VERTEX_POINT('',#428);
#114=VERTEX_POINT('',#432);
#115=VERTEX_POINT('',#435);
#116=CIRCLE('',#262,1.9477324);
#117=CIRCLE('',#264,0.05);
#118=CIRCLE('',#266,2.25);
#119=CIRCLE('',#267,1.5);
#120=CIRCLE('',#269,2.25);
#121=CIRCLE('',#270,2.2);
#122=CIRCLE('',#272,2.2);
#123=CIRCLE('',#275,1.5);
#124=CIRCLE('',#278,1.500134);
#125=CIRCLE('',#282,2.025);
#126=CIRCLE('',#283,2.025);
#127=CIRCLE('',#285,1.9477324);
#128=CIRCLE('',#288,1.60472053570801);
#129=CIRCLE('',#292,0.001);
#130=CIRCLE('',#293,0.001);
#131=CIRCLE('',#295,1.60472053570801);
#132=CIRCLE('',#297,1.60000000051384);
#133=EDGE_LOOP('',(#50));
#134=EDGE_LOOP('',(#51));
#135=EDGE_LOOP('',(#52));
#136=EDGE_LOOP('',(#53));
#137=EDGE_LOOP('',(#54));
#138=EDGE_LOOP('',(#55));
#139=EDGE_LOOP('',(#56));
#140=EDGE_LOOP('',(#57));
#141=EDGE_LOOP('',(#58));
#142=EDGE_LOOP('',(#59));
#143=EDGE_LOOP('',(#60));
#144=EDGE_LOOP('',(#61));
#145=EDGE_LOOP('',(#62));
#146=EDGE_LOOP('',(#63));
#147=EDGE_LOOP('',(#64,#65));
#148=EDGE_LOOP('',(#66));
#149=EDGE_LOOP('',(#67));
#150=EDGE_LOOP('',(#68));
#151=EDGE_LOOP('',(#69));
#152=EDGE_LOOP('',(#70));
#153=EDGE_LOOP('',(#71));
#154=EDGE_LOOP('',(#72));
#155=EDGE_LOOP('',(#73));
#156=EDGE_LOOP('',(#74));
#157=EDGE_LOOP('',(#75));
#158=EDGE_LOOP('',(#76,#77));
#159=EDGE_LOOP('',(#78));
#160=EDGE_LOOP('',(#79));
#161=EDGE_LOOP('',(#80));
#162=EDGE_LOOP('',(#81));
#163=EDGE_LOOP('',(#82));
#164=EDGE_LOOP('',(#83));
#165=FACE_BOUND('',#133,.T.);
#166=FACE_BOUND('',#134,.T.);
#167=FACE_BOUND('',#135,.T.);
#168=FACE_BOUND('',#136,.T.);
#169=FACE_BOUND('',#137,.T.);
#170=FACE_BOUND('',#138,.T.);
#171=FACE_BOUND('',#139,.T.);
#172=FACE_BOUND('',#140,.T.);
#173=FACE_BOUND('',#141,.T.);
#174=FACE_BOUND('',#142,.T.);
#175=FACE_BOUND('',#143,.T.);
#176=FACE_BOUND('',#144,.T.);
#177=FACE_BOUND('',#145,.T.);
#178=FACE_BOUND('',#146,.T.);
#179=FACE_BOUND('',#147,.T.);
#180=FACE_BOUND('',#148,.T.);
#181=FACE_BOUND('',#149,.T.);
#182=FACE_BOUND('',#150,.T.);
#183=FACE_BOUND('',#151,.T.);
#184=FACE_BOUND('',#152,.T.);
#185=FACE_BOUND('',#153,.T.);
#186=FACE_BOUND('',#154,.T.);
#187=FACE_BOUND('',#155,.T.);
#188=FACE_BOUND('',#156,.T.);
#189=FACE_BOUND('',#157,.T.);
#190=FACE_BOUND('',#158,.T.);
#191=FACE_BOUND('',#159,.T.);
#192=FACE_BOUND('',#160,.T.);
#193=FACE_BOUND('',#161,.T.);
#194=FACE_BOUND('',#162,.T.);
#195=FACE_BOUND('',#163,.T.);
#196=FACE_BOUND('',#164,.T.);
#197=PLANE('',#261);
#198=PLANE('',#263);
#199=PLANE('',#286);
#200=PLANE('',#289);
#201=PLANE('',#294);
#202=PLANE('',#298);
#203=ADVANCED_FACE('',(#165),#197,.F.);
#204=ADVANCED_FACE('',(#166),#198,.F.);
#205=ADVANCED_FACE('',(#167,#168),#42,.T.);
#206=ADVANCED_FACE('',(#169,#170),#43,.T.);
#207=ADVANCED_FACE('',(#171,#172),#44,.T.);
#208=ADVANCED_FACE('',(#173,#174),#37,.T.);
#209=ADVANCED_FACE('',(#175,#176),#38,.T.);
#210=ADVANCED_FACE('',(#177,#178),#39,.T.);
#211=ADVANCED_FACE('',(#179),#36,.F.);
#212=ADVANCED_FACE('',(#180,#181),#45,.T.);
#213=ADVANCED_FACE('',(#182,#183),#40,.T.);
#214=ADVANCED_FACE('',(#184,#185),#46,.T.);
#215=ADVANCED_FACE('',(#186),#199,.T.);
#216=ADVANCED_FACE('',(#187,#188),#47,.T.);
#217=ADVANCED_FACE('',(#189),#200,.F.);
#218=ADVANCED_FACE('',(#190),#41,.T.);
#219=ADVANCED_FACE('',(#191),#201,.T.);
#220=ADVANCED_FACE('',(#192,#193),#48,.T.);
#221=ADVANCED_FACE('',(#194),#202,.F.);
#222=ADVANCED_FACE('',(#195,#196),#49,.T.);
#223=CLOSED_SHELL('',(#203,#204,#205,#206,#207,#208,#209,#210,#211,#212));
#224=CLOSED_SHELL('',(#213,#214,#215,#216,#217));
#225=CLOSED_SHELL('',(#218,#219,#220,#221,#222));
#226=STYLED_ITEM('',(#229),#249);
#227=STYLED_ITEM('',(#230),#250);
#228=STYLED_ITEM('',(#231),#251);
#229=PRESENTATION_STYLE_ASSIGNMENT((#232));
#230=PRESENTATION_STYLE_ASSIGNMENT((#233));
#231=PRESENTATION_STYLE_ASSIGNMENT((#234));
#232=SURFACE_STYLE_USAGE(.BOTH.,#235);
#233=SURFACE_STYLE_USAGE(.BOTH.,#236);
#234=SURFACE_STYLE_USAGE(.BOTH.,#237);
#235=SURFACE_SIDE_STYLE('',(#238));
#236=SURFACE_SIDE_STYLE('',(#239));
#237=SURFACE_SIDE_STYLE('',(#240));
#238=SURFACE_STYLE_FILL_AREA(#241);
#239=SURFACE_STYLE_FILL_AREA(#242);
#240=SURFACE_STYLE_FILL_AREA(#243);
#241=FILL_AREA_STYLE('',(#244));
#242=FILL_AREA_STYLE('',(#245));
#243=FILL_AREA_STYLE('',(#246));
#244=FILL_AREA_STYLE_COLOUR('',#247);
#245=FILL_AREA_STYLE_COLOUR('',#248);
#246=FILL_AREA_STYLE_COLOUR('',#247);
#247=COLOUR_RGB('',0.4999923706,0.4999923706,0.4999923706);
#248=COLOUR_RGB('',0.8000000119,0.8000000119,0.8000000119);
#249=MANIFOLD_SOLID_BREP('1',#223);
#250=MANIFOLD_SOLID_BREP('1',#224);
#251=MANIFOLD_SOLID_BREP('1',#225);
#252=SHAPE_DEFINITION_REPRESENTATION(#451,#256);
#253=SHAPE_DEFINITION_REPRESENTATION(#452,#257);
#254=SHAPE_DEFINITION_REPRESENTATION(#454,#258);
#255=SHAPE_DEFINITION_REPRESENTATION(#456,#259);
#256=SHAPE_REPRESENTATION('2465 4.000',(#260,#280,#290,#300),#440);
#257=SHAPE_REPRESENTATION('2465 4.000_PART1',(#260),#441);
#258=SHAPE_REPRESENTATION('2465 4.000_PART2',(#260),#442);
#259=SHAPE_REPRESENTATION('2465 4.000_PART3',(#260),#443);
#260=AXIS2_PLACEMENT_3D('',#383,#301,#302);
#261=AXIS2_PLACEMENT_3D('',#384,#303,#304);
#262=AXIS2_PLACEMENT_3D('',#385,#305,#306);
#263=AXIS2_PLACEMENT_3D('',#387,#307,#308);
#264=AXIS2_PLACEMENT_3D('',#388,#309,#310);
#265=AXIS2_PLACEMENT_3D('',#390,#311,#312);
#266=AXIS2_PLACEMENT_3D('',#391,#313,#314);
#267=AXIS2_PLACEMENT_3D('',#393,#315,#316);
#268=AXIS2_PLACEMENT_3D('',#395,#317,#318);
#269=AXIS2_PLACEMENT_3D('',#396,#319,#320);
#270=AXIS2_PLACEMENT_3D('',#398,#321,#322);
#271=AXIS2_PLACEMENT_3D('',#400,#323,#324);
#272=AXIS2_PLACEMENT_3D('',#401,#325,#326);
#273=AXIS2_PLACEMENT_3D('',#403,#327,#328);
#274=AXIS2_PLACEMENT_3D('',#404,#329,#330);
#275=AXIS2_PLACEMENT_3D('',#405,#331,#332);
#276=AXIS2_PLACEMENT_3D('',#407,#333,#334);
#277=AXIS2_PLACEMENT_3D('',#408,#335,#336);
#278=AXIS2_PLACEMENT_3D('',#409,#337,#338);
#279=AXIS2_PLACEMENT_3D('',#410,#339,#340);
#280=AXIS2_PLACEMENT_3D('',#411,#341,#342);
#281=AXIS2_PLACEMENT_3D('',#412,#343,#344);
#282=AXIS2_PLACEMENT_3D('',#413,#345,#346);
#283=AXIS2_PLACEMENT_3D('',#415,#347,#348);
#284=AXIS2_PLACEMENT_3D('',#417,#349,#350);
#285=AXIS2_PLACEMENT_3D('',#418,#351,#352);
#286=AXIS2_PLACEMENT_3D('',#420,#353,#354);
#287=AXIS2_PLACEMENT_3D('',#421,#355,#356);
#288=AXIS2_PLACEMENT_3D('',#422,#357,#358);
#289=AXIS2_PLACEMENT_3D('',#424,#359,#360);
#290=AXIS2_PLACEMENT_3D('',#425,#361,#362);
#291=AXIS2_PLACEMENT_3D('',#426,#363,#364);
#292=AXIS2_PLACEMENT_3D('',#427,#365,#366);
#293=AXIS2_PLACEMENT_3D('',#429,#367,#368);
#294=AXIS2_PLACEMENT_3D('',#430,#369,#370);
#295=AXIS2_PLACEMENT_3D('',#431,#371,#372);
#296=AXIS2_PLACEMENT_3D('',#433,#373,#374);
#297=AXIS2_PLACEMENT_3D('',#434,#375,#376);
#298=AXIS2_PLACEMENT_3D('',#436,#377,#378);
#299=AXIS2_PLACEMENT_3D('',#437,#379,#380);
#300=AXIS2_PLACEMENT_3D('',#438,#381,#382);
#301=DIRECTION('',(0.,0.,1.));
#302=DIRECTION('',(1.,0.,0.));
#303=DIRECTION('',(0.,0.,1.));
#304=DIRECTION('',(1.,0.,0.));
#305=DIRECTION('',(0.,0.,-1.));
#306=DIRECTION('',(1.,0.,0.));
#307=DIRECTION('',(0.,0.,-1.));
#308=DIRECTION('',(0.,-1.,0.));
#309=DIRECTION('',(0.,0.,1.));
#310=DIRECTION('',(1.,0.,0.));
#311=DIRECTION('',(0.,0.,1.));
#312=DIRECTION('',(1.,0.,0.));
#313=DIRECTION('',(0.,0.,1.));
#314=DIRECTION('',(1.,0.,0.));
#315=DIRECTION('',(0.,0.,1.));
#316=DIRECTION('',(1.,0.,0.));
#317=DIRECTION('',(5.36557024248261E-17,0.,-1.));
#318=DIRECTION('',(-1.,0.,-5.36557024248261E-17));
#319=DIRECTION('',(0.,0.,1.));
#320=DIRECTION('',(1.,0.,0.));
#321=DIRECTION('',(0.,0.,1.));
#322=DIRECTION('',(1.,0.,0.));
#323=DIRECTION('',(1.21164082337235E-17,0.,-1.));
#324=DIRECTION('',(-1.,0.,-1.21164082337235E-17));
#325=DIRECTION('',(0.,0.,1.));
#326=DIRECTION('',(1.,0.,0.));
#327=DIRECTION('',(0.,0.,-1.));
#328=DIRECTION('',(1.,0.,0.));
#329=DIRECTION('',(0.,0.,-1.));
#330=DIRECTION('',(1.,0.,0.));
#331=DIRECTION('',(0.,0.,1.));
#332=DIRECTION('',(1.,0.,0.));
#333=DIRECTION('',(0.,0.,-1.));
#334=DIRECTION('',(1.,0.,0.));
#335=DIRECTION('',(0.,0.,1.));
#336=DIRECTION('',(1.,0.,0.));
#337=DIRECTION('',(0.,0.,1.));
#338=DIRECTION('',(1.,0.,0.));
#339=DIRECTION('',(-8.3911589353373E-17,0.,-1.));
#340=DIRECTION('',(-1.,0.,8.3911589353373E-17));
#341=DIRECTION('',(0.,0.,1.));
#342=DIRECTION('',(1.,0.,0.));
#343=DIRECTION('',(0.,0.,-1.));
#344=DIRECTION('',(1.,0.,0.));
#345=DIRECTION('',(0.,0.,1.));
#346=DIRECTION('',(1.,0.,0.));
#347=DIRECTION('',(0.,0.,1.));
#348=DIRECTION('',(1.,0.,0.));
#349=DIRECTION('',(-8.3911589353373E-17,0.,-1.));
#350=DIRECTION('',(-1.,0.,8.3911589353373E-17));
#351=DIRECTION('',(0.,0.,-1.));
#352=DIRECTION('',(1.,0.,0.));
#353=DIRECTION('',(0.,0.,1.));
#354=DIRECTION('',(1.,0.,0.));
#355=DIRECTION('',(0.,0.,1.));
#356=DIRECTION('',(1.,0.,0.));
#357=DIRECTION('',(0.,0.,1.));
#358=DIRECTION('',(1.,0.,0.));
#359=DIRECTION('',(0.,0.,1.));
#360=DIRECTION('',(1.,0.,0.));
#361=DIRECTION('',(0.,0.,1.));
#362=DIRECTION('',(1.,0.,0.));
#363=DIRECTION('',(0.,0.,1.));
#364=DIRECTION('',(-1.,0.,0.));
#365=DIRECTION('',(0.,0.,1.));
#366=DIRECTION('',(1.,0.,0.));
#367=DIRECTION('',(0.,0.,-1.));
#368=DIRECTION('',(1.,0.,0.));
#369=DIRECTION('',(0.,0.,1.));
#370=DIRECTION('',(1.,0.,0.));
#371=DIRECTION('',(0.,0.,1.));
#372=DIRECTION('',(1.,0.,0.));
#373=DIRECTION('',(-1.38777850322575E-17,0.,1.));
#374=DIRECTION('',(1.,0.,1.38777850322575E-17));
#375=DIRECTION('',(0.,0.,1.));
#376=DIRECTION('',(1.,0.,0.));
#377=DIRECTION('',(0.,0.,1.));
#378=DIRECTION('',(1.,0.,0.));
#379=DIRECTION('',(0.,0.,1.));
#380=DIRECTION('',(1.,0.,0.));
#381=DIRECTION('',(0.,0.,1.));
#382=DIRECTION('',(1.,0.,0.));
#383=CARTESIAN_POINT('',(0.,0.,0.));
#384=CARTESIAN_POINT('',(2.63577457031068E-15,0.,-50.8181346652053));
#385=CARTESIAN_POINT('',(1.00026357745703E-11,0.,-50.8181346652153));
#386=CARTESIAN_POINT('',(1.94773240001,0.,-50.8181346652153));
#387=CARTESIAN_POINT('',(2.63577457031068E-15,0.0500000000000032,2.25));
#388=CARTESIAN_POINT('',(1.00026357745703E-11,0.,2.25000000001));
#389=CARTESIAN_POINT('',(0.0500000000100026,0.,2.25000000001));
#390=CARTESIAN_POINT('',(2.63577457031068E-15,0.,-36.6718441104496));
#391=CARTESIAN_POINT('',(1.00026357745703E-11,0.,-36.6718441104596));
#392=CARTESIAN_POINT('',(2.25000000001,0.,-36.6718441104596));
#393=CARTESIAN_POINT('',(1.00026357745703E-11,0.,-42.0083714022477));
#394=CARTESIAN_POINT('',(1.50000000001,0.,-42.0083714022477));
#395=CARTESIAN_POINT('',(2.63577457031068E-15,0.,-7.6));
#396=CARTESIAN_POINT('',(1.00026357745703E-11,0.,-7.60000000001));
#397=CARTESIAN_POINT('',(2.25000000001,0.,-7.60000000001));
#398=CARTESIAN_POINT('',(1.00026357745703E-11,0.,-7.55000000001));
#399=CARTESIAN_POINT('',(2.20000000001,0.,-7.55000000001));
#400=CARTESIAN_POINT('',(2.63577457031068E-15,0.,0.100000000000001));
#401=CARTESIAN_POINT('',(1.00026357745703E-11,0.,0.100000000010001));
#402=CARTESIAN_POINT('',(2.20000000001,0.,0.100000000010001));
#403=CARTESIAN_POINT('',(2.63577457031068E-15,0.,-64.551));
#404=CARTESIAN_POINT('',(2.63577457031068E-15,0.,-64.551));
#405=CARTESIAN_POINT('',(1.00026357745703E-11,0.,-50.0423714022477));
#406=CARTESIAN_POINT('',(1.50006700001,0.,-50.0426214022477));
#407=CARTESIAN_POINT('',(2.63577457031068E-15,0.,-64.551));
#408=CARTESIAN_POINT('',(2.63577457031068E-15,0.,-50.0423714022377));
#409=CARTESIAN_POINT('',(1.00026357745703E-11,0.,-50.0428714022477));
#410=CARTESIAN_POINT('',(2.63577457031068E-15,0.,-50.0428714022377));
#411=CARTESIAN_POINT('',(0.,0.,0.));
#412=CARTESIAN_POINT('',(2.63577457031068E-15,0.,-64.551));
#413=CARTESIAN_POINT('',(1.00026357745703E-11,0.,-50.9519660254138));
#414=CARTESIAN_POINT('',(2.02500000001,0.,-50.9519660254138));
#415=CARTESIAN_POINT('',(1.00026357745703E-11,0.,-60.15110000001));
#416=CARTESIAN_POINT('',(2.02500000001,0.,-60.15110000001));
#417=CARTESIAN_POINT('',(2.63577457031068E-15,0.,-50.0428714022377));
#418=CARTESIAN_POINT('',(1.00026357745703E-11,0.,-50.8181346652153));
#419=CARTESIAN_POINT('',(1.94773240001,0.,-50.8181346652153));
#420=CARTESIAN_POINT('',(2.63577457031068E-15,0.,-50.8181346652053));
#421=CARTESIAN_POINT('',(2.63577457031068E-15,0.,-62.9511));
#422=CARTESIAN_POINT('',(2.63577457031068E-15,0.,-62.92));
#423=CARTESIAN_POINT('',(1.60472053570801,0.,-62.92));
#424=CARTESIAN_POINT('',(2.63577457031068E-15,0.,-62.92));
#425=CARTESIAN_POINT('',(0.,0.,0.));
#426=CARTESIAN_POINT('',(2.63577457031068E-15,0.,-64.551));
#427=CARTESIAN_POINT('',(1.00026357745703E-11,0.,-64.55010000001));
#428=CARTESIAN_POINT('',(0.00100000001000264,0.,-64.55055000001));
#429=CARTESIAN_POINT('',(1.00026357745703E-11,0.,-64.55100000001));
#430=CARTESIAN_POINT('',(2.63577457031068E-15,0.,-62.92));
#431=CARTESIAN_POINT('',(2.63577457031068E-15,0.,-62.92));
#432=CARTESIAN_POINT('',(1.60472053570801,0.,-62.92));
#433=CARTESIAN_POINT('',(2.63577457031068E-15,0.,-64.5509));
#434=CARTESIAN_POINT('',(2.61357288976909E-15,0.,-62.9510999966147));
#435=CARTESIAN_POINT('',(1.60000000051385,0.,-62.9510999966147));
#436=CARTESIAN_POINT('',(2.63577457031068E-15,2.08999999999999,-64.551));
#437=CARTESIAN_POINT('',(2.63577457031068E-15,0.,-62.9511));
#438=CARTESIAN_POINT('',(0.,0.,0.));
#439=MECHANICAL_DESIGN_GEOMETRIC_PRESENTATION_REPRESENTATION('',(#226,#227,
#228),#440);
#440=(
GEOMETRIC_REPRESENTATION_CONTEXT(3)
GLOBAL_UNCERTAINTY_ASSIGNED_CONTEXT((#444))
GLOBAL_UNIT_ASSIGNED_CONTEXT((#450,#449,#448))
REPRESENTATION_CONTEXT('2465 4.000','TOP_LEVEL_ASSEMBLY_PART')
);
#441=(
GEOMETRIC_REPRESENTATION_CONTEXT(3)
GLOBAL_UNCERTAINTY_ASSIGNED_CONTEXT((#445))
GLOBAL_UNIT_ASSIGNED_CONTEXT((#450,#449,#448))
REPRESENTATION_CONTEXT('2465 4.000_PART1','COMPONENT_PART')
);
#442=(
GEOMETRIC_REPRESENTATION_CONTEXT(3)
GLOBAL_UNCERTAINTY_ASSIGNED_CONTEXT((#446))
GLOBAL_UNIT_ASSIGNED_CONTEXT((#450,#449,#448))
REPRESENTATION_CONTEXT('2465 4.000_PART2','COMPONENT_PART')
);
#443=(
GEOMETRIC_REPRESENTATION_CONTEXT(3)
GLOBAL_UNCERTAINTY_ASSIGNED_CONTEXT((#447))
GLOBAL_UNIT_ASSIGNED_CONTEXT((#450,#449,#448))
REPRESENTATION_CONTEXT('2465 4.000_PART3','COMPONENT_PART')
);
#444=UNCERTAINTY_MEASURE_WITH_UNIT(LENGTH_MEASURE(1.E-5),#450,
'DISTANCE_ACCURACY_VALUE','Maximum Tolerance applied to model');
#445=UNCERTAINTY_MEASURE_WITH_UNIT(LENGTH_MEASURE(1.E-5),#450,
'DISTANCE_ACCURACY_VALUE','Maximum Tolerance applied to model');
#446=UNCERTAINTY_MEASURE_WITH_UNIT(LENGTH_MEASURE(1.E-5),#450,
'DISTANCE_ACCURACY_VALUE','Maximum Tolerance applied to model');
#447=UNCERTAINTY_MEASURE_WITH_UNIT(LENGTH_MEASURE(1.E-5),#450,
'DISTANCE_ACCURACY_VALUE','Maximum Tolerance applied to model');
#448=(
NAMED_UNIT(*)
SI_UNIT($,.STERADIAN.)
SOLID_ANGLE_UNIT()
);
#449=(
NAMED_UNIT(*)
PLANE_ANGLE_UNIT()
SI_UNIT($,.RADIAN.)
);
#450=(
LENGTH_UNIT()
NAMED_UNIT(*)
SI_UNIT(.MILLI.,.METRE.)
);
#451=PRODUCT_DEFINITION_SHAPE('','',#458);
#452=PRODUCT_DEFINITION_SHAPE('','',#459);
#453=PRODUCT_DEFINITION_SHAPE(' ','NAUO PRDDFN',#21);
#454=PRODUCT_DEFINITION_SHAPE('','',#460);
#455=PRODUCT_DEFINITION_SHAPE(' ','NAUO PRDDFN',#22);
#456=PRODUCT_DEFINITION_SHAPE('','',#461);
#457=PRODUCT_DEFINITION_SHAPE(' ','NAUO PRDDFN',#23);
#458=PRODUCT_DEFINITION('','',#466,#462);
#459=PRODUCT_DEFINITION('','',#467,#463);
#460=PRODUCT_DEFINITION('','',#468,#464);
#461=PRODUCT_DEFINITION('','',#469,#465);
#462=PRODUCT_DEFINITION_CONTEXT('',#487,'design');
#463=PRODUCT_DEFINITION_CONTEXT('',#487,'design');
#464=PRODUCT_DEFINITION_CONTEXT('',#487,'design');
#465=PRODUCT_DEFINITION_CONTEXT('',#487,'design');
#466=PRODUCT_DEFINITION_FORMATION_WITH_SPECIFIED_SOURCE('','',#474,
 .NOT_KNOWN.);
#467=PRODUCT_DEFINITION_FORMATION_WITH_SPECIFIED_SOURCE('','',#475,
 .NOT_KNOWN.);
#468=PRODUCT_DEFINITION_FORMATION_WITH_SPECIFIED_SOURCE('','',#476,
 .NOT_KNOWN.);
#469=PRODUCT_DEFINITION_FORMATION_WITH_SPECIFIED_SOURCE('','',#477,
 .NOT_KNOWN.);
#470=PRODUCT_RELATED_PRODUCT_CATEGORY('','',(#474));
#471=PRODUCT_RELATED_PRODUCT_CATEGORY('','',(#475));
#472=PRODUCT_RELATED_PRODUCT_CATEGORY('','',(#476));
#473=PRODUCT_RELATED_PRODUCT_CATEGORY('','',(#477));
#474=PRODUCT('2465 4.000','2465 4.000','2465 4.000',(#482));
#475=PRODUCT('2465 4.000_PART1','2465 4.000_PART1','2465 4.000_PART1',(#483));
#476=PRODUCT('2465 4.000_PART2','2465 4.000_PART2','2465 4.000_PART2',(#484));
#477=PRODUCT('2465 4.000_PART3','2465 4.000_PART3','2465 4.000_PART3',(#485));
#478=PRODUCT_CATEGORY('','');
#479=PRODUCT_CATEGORY('','');
#480=PRODUCT_CATEGORY('','');
#481=PRODUCT_CATEGORY('','');
#482=PRODUCT_CONTEXT('',#487,'mechanical');
#483=PRODUCT_CONTEXT('',#487,'mechanical');
#484=PRODUCT_CONTEXT('',#487,'mechanical');
#485=PRODUCT_CONTEXT('',#487,'mechanical');
#486=APPLICATION_PROTOCOL_DEFINITION('international standard',
'automotive_design',2010,#487);
#487=APPLICATION_CONTEXT(
'core data for automotive mechanical design processes');
ENDSEC;
END-ISO-10303-21;
