ISO-10303-21;
HEADER;
/* Generated by software containing ST-Developer
 * from STEP Tools, Inc. (www.steptools.com) 
 */
/* OPTION: using custom renumber hook */

FILE_DESCRIPTION(
/* description */ ('STEP AP214'),
/* implementation_level */ '2;1');

FILE_NAME(
/* name */ '2466 8.000',
/* time_stamp */ '2026-05-14T15:36:55+02:00',
/* author */ ('License CC BY-ND 4.0'),
/* organization */ ('CADENAS'),
/* preprocessor_version */ 'ST-DEVELOPER v20',
/* originating_system */ 'PARTsolutions',
/* authorisation */ '  ');

FILE_SCHEMA (('AUTOMOTIVE_DESIGN {1 0 10303 214 3 1 1}'));
ENDSEC;

DATA;
#10=PROPERTY_DEFINITION_REPRESENTATION(#14,#12);
#11=PROPERTY_DEFINITION_REPRESENTATION(#15,#13);
#12=REPRESENTATION('',(#16),#500);
#13=REPRESENTATION('',(#17),#500);
#14=PROPERTY_DEFINITION('pmi validation property','',#511);
#15=PROPERTY_DEFINITION('pmi validation property','',#511);
#16=VALUE_REPRESENTATION_ITEM('number of annotations',COUNT_MEASURE(0.));
#17=VALUE_REPRESENTATION_ITEM('number of views',COUNT_MEASURE(0.));
#18=TOROIDAL_SURFACE('',#321,3.151,0.000999999999998697);
#19=CONTEXT_DEPENDENT_SHAPE_REPRESENTATION(#25,#513);
#20=CONTEXT_DEPENDENT_SHAPE_REPRESENTATION(#26,#515);
#21=CONTEXT_DEPENDENT_SHAPE_REPRESENTATION(#27,#517);
#22=NEXT_ASSEMBLY_USAGE_OCCURRENCE('NAUO1','2466 8.000_PART1',
'2466 8.000_PART1',#518,#519,'');
#23=NEXT_ASSEMBLY_USAGE_OCCURRENCE('NAUO2','2466 8.000_PART2',
'2466 8.000_PART2',#518,#520,'');
#24=NEXT_ASSEMBLY_USAGE_OCCURRENCE('NAUO3','2466 8.000_PART3',
'2466 8.000_PART3',#518,#521,'');
#25=(
REPRESENTATION_RELATIONSHIP(' ',' ',#290,#289)
REPRESENTATION_RELATIONSHIP_WITH_TRANSFORMATION(#28)
SHAPE_REPRESENTATION_RELATIONSHIP()
);
#26=(
REPRESENTATION_RELATIONSHIP(' ',' ',#291,#289)
REPRESENTATION_RELATIONSHIP_WITH_TRANSFORMATION(#29)
SHAPE_REPRESENTATION_RELATIONSHIP()
);
#27=(
REPRESENTATION_RELATIONSHIP(' ',' ',#292,#289)
REPRESENTATION_RELATIONSHIP_WITH_TRANSFORMATION(#30)
SHAPE_REPRESENTATION_RELATIONSHIP()
);
#28=ITEM_DEFINED_TRANSFORMATION(' ',' ',#293,#305);
#29=ITEM_DEFINED_TRANSFORMATION(' ',' ',#293,#317);
#30=ITEM_DEFINED_TRANSFORMATION(' ',' ',#293,#339);
#31=SHAPE_REPRESENTATION_RELATIONSHIP('','',#290,#34);
#32=SHAPE_REPRESENTATION_RELATIONSHIP('','',#291,#35);
#33=SHAPE_REPRESENTATION_RELATIONSHIP('','',#292,#36);
#34=ADVANCED_BREP_SHAPE_REPRESENTATION('',(#282),#501);
#35=ADVANCED_BREP_SHAPE_REPRESENTATION('',(#283),#502);
#36=ADVANCED_BREP_SHAPE_REPRESENTATION('',(#284),#503);
#37=CONICAL_SURFACE('',#300,1.9,0.785398163397452);
#38=CONICAL_SURFACE('',#302,1.9,1.0471975511966);
#39=CONICAL_SURFACE('',#304,2.97208520073763,0.78539816339744);
#40=CONICAL_SURFACE('',#308,2.97208520073763,0.78539816339744);
#41=CONICAL_SURFACE('',#311,3.325,0.152486673874904);
#42=CONICAL_SURFACE('',#315,3.15013397459622,0.523598775598299);
#43=CONICAL_SURFACE('',#318,3.15013397459622,0.523598775598299);
#44=CONICAL_SURFACE('',#325,3.99999999999999,0.139626340159547);
#45=CONICAL_SURFACE('',#329,3.99999999999999,0.785398163397473);
#46=CONICAL_SURFACE('',#333,3.9,0.78539816339745);
#47=CONICAL_SURFACE('',#337,2.35,1.36135681655558);
#48=CYLINDRICAL_SURFACE('',#298,0.000999999999999668);
#49=CYLINDRICAL_SURFACE('',#313,4.035);
#50=CYLINDRICAL_SURFACE('',#323,3.15);
#51=CYLINDRICAL_SURFACE('',#327,3.99999999999999);
#52=CYLINDRICAL_SURFACE('',#331,3.9);
#53=ORIENTED_EDGE('',*,*,#93,.F.);
#54=ORIENTED_EDGE('',*,*,#94,.T.);
#55=ORIENTED_EDGE('',*,*,#95,.T.);
#56=ORIENTED_EDGE('',*,*,#94,.F.);
#57=ORIENTED_EDGE('',*,*,#95,.F.);
#58=ORIENTED_EDGE('',*,*,#96,.F.);
#59=ORIENTED_EDGE('',*,*,#97,.T.);
#60=ORIENTED_EDGE('',*,*,#96,.T.);
#61=ORIENTED_EDGE('',*,*,#97,.F.);
#62=ORIENTED_EDGE('',*,*,#93,.T.);
#63=ORIENTED_EDGE('',*,*,#98,.F.);
#64=ORIENTED_EDGE('',*,*,#99,.F.);
#65=ORIENTED_EDGE('',*,*,#100,.T.);
#66=ORIENTED_EDGE('',*,*,#101,.F.);
#67=ORIENTED_EDGE('',*,*,#100,.F.);
#68=ORIENTED_EDGE('',*,*,#101,.T.);
#69=ORIENTED_EDGE('',*,*,#102,.F.);
#70=ORIENTED_EDGE('',*,*,#102,.T.);
#71=ORIENTED_EDGE('',*,*,#98,.T.);
#72=ORIENTED_EDGE('',*,*,#99,.T.);
#73=ORIENTED_EDGE('',*,*,#103,.F.);
#74=ORIENTED_EDGE('',*,*,#104,.F.);
#75=ORIENTED_EDGE('',*,*,#104,.T.);
#76=ORIENTED_EDGE('',*,*,#105,.F.);
#77=ORIENTED_EDGE('',*,*,#105,.T.);
#78=ORIENTED_EDGE('',*,*,#106,.F.);
#79=ORIENTED_EDGE('',*,*,#106,.T.);
#80=ORIENTED_EDGE('',*,*,#107,.F.);
#81=ORIENTED_EDGE('',*,*,#108,.F.);
#82=ORIENTED_EDGE('',*,*,#107,.T.);
#83=ORIENTED_EDGE('',*,*,#109,.F.);
#84=ORIENTED_EDGE('',*,*,#108,.T.);
#85=ORIENTED_EDGE('',*,*,#110,.F.);
#86=ORIENTED_EDGE('',*,*,#109,.T.);
#87=ORIENTED_EDGE('',*,*,#111,.F.);
#88=ORIENTED_EDGE('',*,*,#110,.T.);
#89=ORIENTED_EDGE('',*,*,#112,.F.);
#90=ORIENTED_EDGE('',*,*,#112,.T.);
#91=ORIENTED_EDGE('',*,*,#111,.T.);
#92=ORIENTED_EDGE('',*,*,#103,.T.);
#93=EDGE_CURVE('',#113,#113,#131,.T.);
#94=EDGE_CURVE('',#114,#114,#132,.T.);
#95=EDGE_CURVE('',#114,#114,#133,.T.);
#96=EDGE_CURVE('',#115,#115,#134,.T.);
#97=EDGE_CURVE('',#116,#116,#135,.T.);
#98=EDGE_CURVE('',#117,#117,#136,.T.);
#99=EDGE_CURVE('',#118,#118,#137,.T.);
#100=EDGE_CURVE('',#119,#119,#138,.T.);
#101=EDGE_CURVE('',#120,#120,#139,.T.);
#102=EDGE_CURVE('',#121,#121,#140,.T.);
#103=EDGE_CURVE('',#122,#122,#141,.T.);
#104=EDGE_CURVE('',#123,#123,#142,.T.);
#105=EDGE_CURVE('',#123,#123,#143,.T.);
#106=EDGE_CURVE('',#124,#124,#144,.T.);
#107=EDGE_CURVE('',#125,#125,#145,.T.);
#108=EDGE_CURVE('',#126,#126,#146,.T.);
#109=EDGE_CURVE('',#127,#127,#147,.T.);
#110=EDGE_CURVE('',#128,#128,#148,.T.);
#111=EDGE_CURVE('',#129,#129,#149,.T.);
#112=EDGE_CURVE('',#130,#130,#150,.T.);
#113=VERTEX_POINT('',#437);
#114=VERTEX_POINT('',#440);
#115=VERTEX_POINT('',#445);
#116=VERTEX_POINT('',#448);
#117=VERTEX_POINT('',#453);
#118=VERTEX_POINT('',#456);
#119=VERTEX_POINT('',#458);
#120=VERTEX_POINT('',#461);
#121=VERTEX_POINT('',#464);
#122=VERTEX_POINT('',#470);
#123=VERTEX_POINT('',#472);
#124=VERTEX_POINT('',#477);
#125=VERTEX_POINT('',#480);
#126=VERTEX_POINT('',#483);
#127=VERTEX_POINT('',#486);
#128=VERTEX_POINT('',#489);
#129=VERTEX_POINT('',#492);
#130=VERTEX_POINT('',#495);
#131=CIRCLE('',#295,3.16369526584139);
#132=CIRCLE('',#297,0.000999999999999668);
#133=CIRCLE('',#299,0.000999999999999668);
#134=CIRCLE('',#301,1.9);
#135=CIRCLE('',#303,2.97208520073763);
#136=CIRCLE('',#307,3.93927900361376);
#137=CIRCLE('',#309,3.16369526584139);
#138=CIRCLE('',#310,3.35208520073763);
#139=CIRCLE('',#312,4.035);
#140=CIRCLE('',#314,4.035);
#141=CIRCLE('',#319,3.93927900361376);
#142=CIRCLE('',#320,3.15013397459622);
#143=CIRCLE('',#322,3.15);
#144=CIRCLE('',#324,3.15);
#145=CIRCLE('',#326,3.99999999999999);
#146=CIRCLE('',#328,3.99999999999999);
#147=CIRCLE('',#330,3.9);
#148=CIRCLE('',#332,3.9);
#149=CIRCLE('',#334,2.35);
#150=CIRCLE('',#336,9.99999999982126E-5);
#151=EDGE_LOOP('',(#53));
#152=EDGE_LOOP('',(#54));
#153=EDGE_LOOP('',(#55,#56));
#154=EDGE_LOOP('',(#57));
#155=EDGE_LOOP('',(#58));
#156=EDGE_LOOP('',(#59));
#157=EDGE_LOOP('',(#60));
#158=EDGE_LOOP('',(#61));
#159=EDGE_LOOP('',(#62));
#160=EDGE_LOOP('',(#63));
#161=EDGE_LOOP('',(#64));
#162=EDGE_LOOP('',(#65));
#163=EDGE_LOOP('',(#66));
#164=EDGE_LOOP('',(#67));
#165=EDGE_LOOP('',(#68));
#166=EDGE_LOOP('',(#69));
#167=EDGE_LOOP('',(#70));
#168=EDGE_LOOP('',(#71));
#169=EDGE_LOOP('',(#72));
#170=EDGE_LOOP('',(#73));
#171=EDGE_LOOP('',(#74));
#172=EDGE_LOOP('',(#75,#76));
#173=EDGE_LOOP('',(#77));
#174=EDGE_LOOP('',(#78));
#175=EDGE_LOOP('',(#79));
#176=EDGE_LOOP('',(#80));
#177=EDGE_LOOP('',(#81));
#178=EDGE_LOOP('',(#82));
#179=EDGE_LOOP('',(#83));
#180=EDGE_LOOP('',(#84));
#181=EDGE_LOOP('',(#85));
#182=EDGE_LOOP('',(#86));
#183=EDGE_LOOP('',(#87));
#184=EDGE_LOOP('',(#88));
#185=EDGE_LOOP('',(#89));
#186=EDGE_LOOP('',(#90));
#187=EDGE_LOOP('',(#91));
#188=EDGE_LOOP('',(#92));
#189=FACE_BOUND('',#151,.T.);
#190=FACE_BOUND('',#152,.T.);
#191=FACE_BOUND('',#153,.T.);
#192=FACE_BOUND('',#154,.T.);
#193=FACE_BOUND('',#155,.T.);
#194=FACE_BOUND('',#156,.T.);
#195=FACE_BOUND('',#157,.T.);
#196=FACE_BOUND('',#158,.T.);
#197=FACE_BOUND('',#159,.T.);
#198=FACE_BOUND('',#160,.T.);
#199=FACE_BOUND('',#161,.T.);
#200=FACE_BOUND('',#162,.T.);
#201=FACE_BOUND('',#163,.T.);
#202=FACE_BOUND('',#164,.T.);
#203=FACE_BOUND('',#165,.T.);
#204=FACE_BOUND('',#166,.T.);
#205=FACE_BOUND('',#167,.T.);
#206=FACE_BOUND('',#168,.T.);
#207=FACE_BOUND('',#169,.T.);
#208=FACE_BOUND('',#170,.T.);
#209=FACE_BOUND('',#171,.T.);
#210=FACE_BOUND('',#172,.T.);
#211=FACE_BOUND('',#173,.T.);
#212=FACE_BOUND('',#174,.T.);
#213=FACE_BOUND('',#175,.T.);
#214=FACE_BOUND('',#176,.T.);
#215=FACE_BOUND('',#177,.T.);
#216=FACE_BOUND('',#178,.T.);
#217=FACE_BOUND('',#179,.T.);
#218=FACE_BOUND('',#180,.T.);
#219=FACE_BOUND('',#181,.T.);
#220=FACE_BOUND('',#182,.T.);
#221=FACE_BOUND('',#183,.T.);
#222=FACE_BOUND('',#184,.T.);
#223=FACE_BOUND('',#185,.T.);
#224=FACE_BOUND('',#186,.T.);
#225=FACE_BOUND('',#187,.T.);
#226=FACE_BOUND('',#188,.T.);
#227=PLANE('',#294);
#228=PLANE('',#296);
#229=PLANE('',#306);
#230=PLANE('',#316);
#231=PLANE('',#335);
#232=PLANE('',#338);
#233=ADVANCED_FACE('',(#189),#227,.T.);
#234=ADVANCED_FACE('',(#190),#228,.F.);
#235=ADVANCED_FACE('',(#191),#48,.T.);
#236=ADVANCED_FACE('',(#192,#193),#37,.T.);
#237=ADVANCED_FACE('',(#194,#195),#38,.T.);
#238=ADVANCED_FACE('',(#196,#197),#39,.T.);
#239=ADVANCED_FACE('',(#198),#229,.T.);
#240=ADVANCED_FACE('',(#199,#200),#40,.T.);
#241=ADVANCED_FACE('',(#201,#202),#41,.T.);
#242=ADVANCED_FACE('',(#203,#204),#49,.T.);
#243=ADVANCED_FACE('',(#205,#206),#42,.T.);
#244=ADVANCED_FACE('',(#207),#230,.F.);
#245=ADVANCED_FACE('',(#208,#209),#43,.T.);
#246=ADVANCED_FACE('',(#210),#18,.F.);
#247=ADVANCED_FACE('',(#211,#212),#50,.T.);
#248=ADVANCED_FACE('',(#213,#214),#44,.T.);
#249=ADVANCED_FACE('',(#215,#216),#51,.T.);
#250=ADVANCED_FACE('',(#217,#218),#45,.T.);
#251=ADVANCED_FACE('',(#219,#220),#52,.T.);
#252=ADVANCED_FACE('',(#221,#222),#46,.T.);
#253=ADVANCED_FACE('',(#223),#231,.T.);
#254=ADVANCED_FACE('',(#224,#225),#47,.T.);
#255=ADVANCED_FACE('',(#226),#232,.F.);
#256=CLOSED_SHELL('',(#233,#234,#235,#236,#237,#238));
#257=CLOSED_SHELL('',(#239,#240,#241,#242,#243,#244));
#258=CLOSED_SHELL('',(#245,#246,#247,#248,#249,#250,#251,#252,#253,#254,
#255));
#259=STYLED_ITEM('',(#262),#282);
#260=STYLED_ITEM('',(#263),#283);
#261=STYLED_ITEM('',(#264),#284);
#262=PRESENTATION_STYLE_ASSIGNMENT((#265));
#263=PRESENTATION_STYLE_ASSIGNMENT((#266));
#264=PRESENTATION_STYLE_ASSIGNMENT((#267));
#265=SURFACE_STYLE_USAGE(.BOTH.,#268);
#266=SURFACE_STYLE_USAGE(.BOTH.,#269);
#267=SURFACE_STYLE_USAGE(.BOTH.,#270);
#268=SURFACE_SIDE_STYLE('',(#271));
#269=SURFACE_SIDE_STYLE('',(#272));
#270=SURFACE_SIDE_STYLE('',(#273));
#271=SURFACE_STYLE_FILL_AREA(#274);
#272=SURFACE_STYLE_FILL_AREA(#275);
#273=SURFACE_STYLE_FILL_AREA(#276);
#274=FILL_AREA_STYLE('',(#277));
#275=FILL_AREA_STYLE('',(#278));
#276=FILL_AREA_STYLE('',(#279));
#277=FILL_AREA_STYLE_COLOUR('',#280);
#278=FILL_AREA_STYLE_COLOUR('',#281);
#279=FILL_AREA_STYLE_COLOUR('',#280);
#280=COLOUR_RGB('',0.500007629510948,0.500007629510948,0.500007629510948);
#281=COLOUR_RGB('',0.8,0.8,0.8);
#282=MANIFOLD_SOLID_BREP('solid',#256);
#283=MANIFOLD_SOLID_BREP('solid',#257);
#284=MANIFOLD_SOLID_BREP('solid',#258);
#285=SHAPE_DEFINITION_REPRESENTATION(#511,#289);
#286=SHAPE_DEFINITION_REPRESENTATION(#512,#290);
#287=SHAPE_DEFINITION_REPRESENTATION(#514,#291);
#288=SHAPE_DEFINITION_REPRESENTATION(#516,#292);
#289=SHAPE_REPRESENTATION('2466 8.000',(#293,#305,#317,#339),#500);
#290=SHAPE_REPRESENTATION('2466 8.000_PART1',(#293),#501);
#291=SHAPE_REPRESENTATION('2466 8.000_PART2',(#293),#502);
#292=SHAPE_REPRESENTATION('2466 8.000_PART3',(#293),#503);
#293=AXIS2_PLACEMENT_3D('',#434,#340,#341);
#294=AXIS2_PLACEMENT_3D('',#435,#342,#343);
#295=AXIS2_PLACEMENT_3D('',#436,#344,#345);
#296=AXIS2_PLACEMENT_3D('',#438,#346,#347);
#297=AXIS2_PLACEMENT_3D('',#439,#348,#349);
#298=AXIS2_PLACEMENT_3D('',#441,#350,#351);
#299=AXIS2_PLACEMENT_3D('',#442,#352,#353);
#300=AXIS2_PLACEMENT_3D('',#443,#354,#355);
#301=AXIS2_PLACEMENT_3D('',#444,#356,#357);
#302=AXIS2_PLACEMENT_3D('',#446,#358,#359);
#303=AXIS2_PLACEMENT_3D('',#447,#360,#361);
#304=AXIS2_PLACEMENT_3D('',#449,#362,#363);
#305=AXIS2_PLACEMENT_3D('',#450,#364,#365);
#306=AXIS2_PLACEMENT_3D('',#451,#366,#367);
#307=AXIS2_PLACEMENT_3D('',#452,#368,#369);
#308=AXIS2_PLACEMENT_3D('',#454,#370,#371);
#309=AXIS2_PLACEMENT_3D('',#455,#372,#373);
#310=AXIS2_PLACEMENT_3D('',#457,#374,#375);
#311=AXIS2_PLACEMENT_3D('',#459,#376,#377);
#312=AXIS2_PLACEMENT_3D('',#460,#378,#379);
#313=AXIS2_PLACEMENT_3D('',#462,#380,#381);
#314=AXIS2_PLACEMENT_3D('',#463,#382,#383);
#315=AXIS2_PLACEMENT_3D('',#465,#384,#385);
#316=AXIS2_PLACEMENT_3D('',#466,#386,#387);
#317=AXIS2_PLACEMENT_3D('',#467,#388,#389);
#318=AXIS2_PLACEMENT_3D('',#468,#390,#391);
#319=AXIS2_PLACEMENT_3D('',#469,#392,#393);
#320=AXIS2_PLACEMENT_3D('',#471,#394,#395);
#321=AXIS2_PLACEMENT_3D('',#473,#396,#397);
#322=AXIS2_PLACEMENT_3D('',#474,#398,#399);
#323=AXIS2_PLACEMENT_3D('',#475,#400,#401);
#324=AXIS2_PLACEMENT_3D('',#476,#402,#403);
#325=AXIS2_PLACEMENT_3D('',#478,#404,#405);
#326=AXIS2_PLACEMENT_3D('',#479,#406,#407);
#327=AXIS2_PLACEMENT_3D('',#481,#408,#409);
#328=AXIS2_PLACEMENT_3D('',#482,#410,#411);
#329=AXIS2_PLACEMENT_3D('',#484,#412,#413);
#330=AXIS2_PLACEMENT_3D('',#485,#414,#415);
#331=AXIS2_PLACEMENT_3D('',#487,#416,#417);
#332=AXIS2_PLACEMENT_3D('',#488,#418,#419);
#333=AXIS2_PLACEMENT_3D('',#490,#420,#421);
#334=AXIS2_PLACEMENT_3D('',#491,#422,#423);
#335=AXIS2_PLACEMENT_3D('',#493,#424,#425);
#336=AXIS2_PLACEMENT_3D('',#494,#426,#427);
#337=AXIS2_PLACEMENT_3D('',#496,#428,#429);
#338=AXIS2_PLACEMENT_3D('',#497,#430,#431);
#339=AXIS2_PLACEMENT_3D('',#498,#432,#433);
#340=DIRECTION('',(0.,0.,1.));
#341=DIRECTION('',(1.,0.,0.));
#342=DIRECTION('',(0.,0.,1.));
#343=DIRECTION('',(1.,0.,0.));
#344=DIRECTION('',(0.,0.,-1.));
#345=DIRECTION('',(1.,0.,0.));
#346=DIRECTION('',(0.,0.,1.));
#347=DIRECTION('',(1.,0.,0.));
#348=DIRECTION('',(0.,0.,-1.));
#349=DIRECTION('',(1.,0.,0.));
#350=DIRECTION('',(0.,0.,-1.));
#351=DIRECTION('',(-1.,0.,0.));
#352=DIRECTION('',(0.,0.,-1.));
#353=DIRECTION('',(1.,0.,0.));
#354=DIRECTION('',(0.,0.,1.));
#355=DIRECTION('',(1.,0.,-4.15544100443588E-17));
#356=DIRECTION('',(0.,0.,1.));
#357=DIRECTION('',(1.,0.,0.));
#358=DIRECTION('',(0.,0.,1.));
#359=DIRECTION('',(1.,0.,-2.40106946758289E-17));
#360=DIRECTION('',(0.,0.,-1.));
#361=DIRECTION('',(-1.,0.,0.));
#362=DIRECTION('',(0.,0.,1.));
#363=DIRECTION('',(1.,0.,4.15099921899735E-17));
#364=DIRECTION('',(0.,0.,1.));
#365=DIRECTION('',(1.,0.,0.));
#366=DIRECTION('',(0.,0.,1.));
#367=DIRECTION('',(1.,0.,0.));
#368=DIRECTION('',(0.,0.,-1.));
#369=DIRECTION('',(1.,0.,0.));
#370=DIRECTION('',(0.,0.,1.));
#371=DIRECTION('',(1.,0.,4.15099921899735E-17));
#372=DIRECTION('',(0.,0.,-1.));
#373=DIRECTION('',(1.,0.,0.));
#374=DIRECTION('',(0.,0.,-1.));
#375=DIRECTION('',(-1.,0.,0.));
#376=DIRECTION('',(0.,0.,1.));
#377=DIRECTION('',(1.,0.,2.65172798689079E-16));
#378=DIRECTION('',(0.,0.,1.));
#379=DIRECTION('',(1.,0.,0.));
#380=DIRECTION('',(0.,0.,1.));
#381=DIRECTION('',(1.,0.,0.));
#382=DIRECTION('',(0.,0.,1.));
#383=DIRECTION('',(1.,0.,0.));
#384=DIRECTION('',(0.,0.,-1.));
#385=DIRECTION('',(-1.,0.,-1.91252756858307E-16));
#386=DIRECTION('',(0.,0.,1.));
#387=DIRECTION('',(1.,0.,0.));
#388=DIRECTION('',(0.,0.,1.));
#389=DIRECTION('',(1.,0.,0.));
#390=DIRECTION('',(0.,0.,-1.));
#391=DIRECTION('',(-1.,0.,-1.91252756858307E-16));
#392=DIRECTION('',(0.,0.,-1.));
#393=DIRECTION('',(1.,0.,0.));
#394=DIRECTION('',(0.,0.,1.));
#395=DIRECTION('',(1.,0.,0.));
#396=DIRECTION('',(0.,0.,1.));
#397=DIRECTION('',(1.,0.,0.));
#398=DIRECTION('',(0.,0.,1.));
#399=DIRECTION('',(1.,0.,0.));
#400=DIRECTION('',(0.,0.,1.));
#401=DIRECTION('',(1.,0.,0.));
#402=DIRECTION('',(0.,0.,1.));
#403=DIRECTION('',(1.,0.,0.));
#404=DIRECTION('',(0.,0.,1.));
#405=DIRECTION('',(1.,0.,1.92025842889156E-16));
#406=DIRECTION('',(0.,0.,1.));
#407=DIRECTION('',(1.,0.,0.));
#408=DIRECTION('',(0.,0.,1.));
#409=DIRECTION('',(1.,0.,0.));
#410=DIRECTION('',(0.,0.,1.));
#411=DIRECTION('',(1.,0.,0.));
#412=DIRECTION('',(0.,0.,-1.));
#413=DIRECTION('',(-1.,0.,5.52899912661904E-17));
#414=DIRECTION('',(0.,0.,1.));
#415=DIRECTION('',(1.,0.,0.));
#416=DIRECTION('',(0.,0.,1.));
#417=DIRECTION('',(1.,0.,0.));
#418=DIRECTION('',(0.,0.,1.));
#419=DIRECTION('',(1.,0.,0.));
#420=DIRECTION('',(0.,0.,-1.));
#421=DIRECTION('',(-1.,0.,-4.14716240894943E-17));
#422=DIRECTION('',(0.,0.,1.));
#423=DIRECTION('',(1.,0.,0.));
#424=DIRECTION('',(0.,0.,1.));
#425=DIRECTION('',(1.,0.,0.));
#426=DIRECTION('',(0.,0.,-1.));
#427=DIRECTION('',(-1.,0.,0.));
#428=DIRECTION('',(0.,0.,-1.));
#429=DIRECTION('',(-1.,0.,-2.00164790582534E-17));
#430=DIRECTION('',(0.,0.,1.));
#431=DIRECTION('',(1.,0.,0.));
#432=DIRECTION('',(0.,0.,1.));
#433=DIRECTION('',(1.,0.,0.));
#434=CARTESIAN_POINT('',(0.,0.,0.));
#435=CARTESIAN_POINT('',(-5.85141954608971E-16,0.,-89.99));
#436=CARTESIAN_POINT('',(-5.85141954608971E-16,0.,-89.99));
#437=CARTESIAN_POINT('',(3.16369526584139,0.,-89.99));
#438=CARTESIAN_POINT('',(-5.85141954608971E-16,3.47208520073763,-92.7004787443438));
#439=CARTESIAN_POINT('',(-5.85141954608971E-16,0.,-92.7004787443438));
#440=CARTESIAN_POINT('',(0.000999999999999083,0.,-92.7000287443438));
#441=CARTESIAN_POINT('',(-5.85141954608971E-16,0.,-92.7004787443438));
#442=CARTESIAN_POINT('',(-5.85141954608971E-16,0.,-92.6995787443438));
#443=CARTESIAN_POINT('',(-5.85141954608971E-16,0.,-90.8005787443438));
#444=CARTESIAN_POINT('',(-5.85141954608971E-16,0.,-90.8005787443438));
#445=CARTESIAN_POINT('',(1.9,0.,-90.8005787443438));
#446=CARTESIAN_POINT('',(-5.85141954608971E-16,0.,-90.8005787443438));
#447=CARTESIAN_POINT('',(-5.85141954608971E-16,0.,-90.1816100651038));
#448=CARTESIAN_POINT('',(-2.97208520073763,0.,-90.1816100651038));
#449=CARTESIAN_POINT('',(-5.85141954608971E-16,0.,-90.1816100651038));
#450=CARTESIAN_POINT('',(0.,0.,0.));
#451=CARTESIAN_POINT('',(-5.85141954608971E-16,0.,-73.1929270070603));
#452=CARTESIAN_POINT('',(-5.85141954608971E-16,0.,-73.1929270070603));
#453=CARTESIAN_POINT('',(3.93927900361376,0.,-73.1929270070603));
#454=CARTESIAN_POINT('',(-5.85141954608971E-16,0.,-90.1816100651038));
#455=CARTESIAN_POINT('',(-5.85141954608971E-16,0.,-89.99));
#456=CARTESIAN_POINT('',(3.16369526584139,0.,-89.99));
#457=CARTESIAN_POINT('',(-5.85141954608971E-16,0.,-89.8016100651038));
#458=CARTESIAN_POINT('',(-3.35208520073763,0.,-89.8016100651038));
#459=CARTESIAN_POINT('',(-5.85141954608971E-16,0.,-89.9778546107486));
#460=CARTESIAN_POINT('',(-5.85141954608971E-16,0.,-85.3578546107486));
#461=CARTESIAN_POINT('',(4.035,0.,-85.3578546107486));
#462=CARTESIAN_POINT('',(-5.85141954608971E-16,0.,-92.7004787443438));
#463=CARTESIAN_POINT('',(-5.85141954608971E-16,0.,-73.3587206361524));
#464=CARTESIAN_POINT('',(4.035,0.,-73.3587206361524));
#465=CARTESIAN_POINT('',(-5.85141954608971E-16,0.,-71.8260877222615));
#466=CARTESIAN_POINT('',(-5.85141954608971E-16,0.,-89.99));
#467=CARTESIAN_POINT('',(0.,0.,0.));
#468=CARTESIAN_POINT('',(-5.85141954608971E-16,0.,-71.8260877222615));
#469=CARTESIAN_POINT('',(-5.85141954608971E-16,0.,-73.1929270070603));
#470=CARTESIAN_POINT('',(3.93927900361376,0.,-73.1929270070603));
#471=CARTESIAN_POINT('',(-5.85141954608971E-16,0.,-71.8260877222615));
#472=CARTESIAN_POINT('',(3.15006698729811,0.,-71.8258377222615));
#473=CARTESIAN_POINT('',(-5.85141954608971E-16,0.,-71.8255877222615));
#474=CARTESIAN_POINT('',(-5.85141954608971E-16,0.,-71.8255877222615));
#475=CARTESIAN_POINT('',(-5.85141954608971E-16,0.,-92.7004787443438));
#476=CARTESIAN_POINT('',(-5.85141954608971E-16,0.,-55.5255877222615));
#477=CARTESIAN_POINT('',(3.15,0.,-55.5255877222615));
#478=CARTESIAN_POINT('',(-5.85141954608971E-16,0.,-49.477523458235));
#479=CARTESIAN_POINT('',(-5.85141954608971E-16,0.,-49.477523458235));
#480=CARTESIAN_POINT('',(3.99999999999999,0.,-49.477523458235));
#481=CARTESIAN_POINT('',(-5.85141954608971E-16,0.,-92.7004787443438));
#482=CARTESIAN_POINT('',(-5.85141954608971E-16,0.,-11.9995));
#483=CARTESIAN_POINT('',(3.99999999999999,0.,-11.9995));
#484=CARTESIAN_POINT('',(-5.85141954608971E-16,0.,-11.9995));
#485=CARTESIAN_POINT('',(-5.85141954608971E-16,0.,-11.8995));
#486=CARTESIAN_POINT('',(3.9,0.,-11.8995));
#487=CARTESIAN_POINT('',(-5.85141954608971E-16,0.,-92.7004787443438));
#488=CARTESIAN_POINT('',(-5.85141954608971E-16,0.,-2.0495));
#489=CARTESIAN_POINT('',(3.9,0.,-2.0495));
#490=CARTESIAN_POINT('',(-5.85141954608971E-16,0.,-2.0495));
#491=CARTESIAN_POINT('',(-5.85141954608971E-16,0.,-0.4995));
#492=CARTESIAN_POINT('',(2.35,0.,-0.4995));
#493=CARTESIAN_POINT('',(-5.85141954608971E-16,9.99999999982126E-5,-1.33357316155647E-5));
#494=CARTESIAN_POINT('',(-5.85141954608971E-16,0.,-1.33357316162153E-5));
#495=CARTESIAN_POINT('',(-9.99999999987977E-5,0.,-1.33357316162153E-5));
#496=CARTESIAN_POINT('',(-5.85141954608971E-16,0.,-0.499500000000003));
#497=CARTESIAN_POINT('',(-5.85141954608971E-16,0.,-73.1929270070603));
#498=CARTESIAN_POINT('',(0.,0.,0.));
#499=MECHANICAL_DESIGN_GEOMETRIC_PRESENTATION_REPRESENTATION('',(#259,#260,
#261),#500);
#500=(
GEOMETRIC_REPRESENTATION_CONTEXT(3)
GLOBAL_UNCERTAINTY_ASSIGNED_CONTEXT((#504))
GLOBAL_UNIT_ASSIGNED_CONTEXT((#510,#509,#508))
REPRESENTATION_CONTEXT('2466 8.000','TOP_LEVEL_ASSEMBLY_PART')
);
#501=(
GEOMETRIC_REPRESENTATION_CONTEXT(3)
GLOBAL_UNCERTAINTY_ASSIGNED_CONTEXT((#505))
GLOBAL_UNIT_ASSIGNED_CONTEXT((#510,#509,#508))
REPRESENTATION_CONTEXT('2466 8.000_PART1','COMPONENT_PART')
);
#502=(
GEOMETRIC_REPRESENTATION_CONTEXT(3)
GLOBAL_UNCERTAINTY_ASSIGNED_CONTEXT((#506))
GLOBAL_UNIT_ASSIGNED_CONTEXT((#510,#509,#508))
REPRESENTATION_CONTEXT('2466 8.000_PART2','COMPONENT_PART')
);
#503=(
GEOMETRIC_REPRESENTATION_CONTEXT(3)
GLOBAL_UNCERTAINTY_ASSIGNED_CONTEXT((#507))
GLOBAL_UNIT_ASSIGNED_CONTEXT((#510,#509,#508))
REPRESENTATION_CONTEXT('2466 8.000_PART3','COMPONENT_PART')
);
#504=UNCERTAINTY_MEASURE_WITH_UNIT(LENGTH_MEASURE(1.E-5),#510,
'DISTANCE_ACCURACY_VALUE','Maximum Tolerance applied to model');
#505=UNCERTAINTY_MEASURE_WITH_UNIT(LENGTH_MEASURE(1.E-5),#510,
'DISTANCE_ACCURACY_VALUE','Maximum Tolerance applied to model');
#506=UNCERTAINTY_MEASURE_WITH_UNIT(LENGTH_MEASURE(1.E-5),#510,
'DISTANCE_ACCURACY_VALUE','Maximum Tolerance applied to model');
#507=UNCERTAINTY_MEASURE_WITH_UNIT(LENGTH_MEASURE(1.E-5),#510,
'DISTANCE_ACCURACY_VALUE','Maximum Tolerance applied to model');
#508=(
NAMED_UNIT(*)
SI_UNIT($,.STERADIAN.)
SOLID_ANGLE_UNIT()
);
#509=(
NAMED_UNIT(*)
PLANE_ANGLE_UNIT()
SI_UNIT($,.RADIAN.)
);
#510=(
LENGTH_UNIT()
NAMED_UNIT(*)
SI_UNIT(.MILLI.,.METRE.)
);
#511=PRODUCT_DEFINITION_SHAPE('','',#518);
#512=PRODUCT_DEFINITION_SHAPE('','',#519);
#513=PRODUCT_DEFINITION_SHAPE(' ','NAUO PRDDFN',#22);
#514=PRODUCT_DEFINITION_SHAPE('','',#520);
#515=PRODUCT_DEFINITION_SHAPE(' ','NAUO PRDDFN',#23);
#516=PRODUCT_DEFINITION_SHAPE('','',#521);
#517=PRODUCT_DEFINITION_SHAPE(' ','NAUO PRDDFN',#24);
#518=PRODUCT_DEFINITION('','',#526,#522);
#519=PRODUCT_DEFINITION('','',#527,#523);
#520=PRODUCT_DEFINITION('','',#528,#524);
#521=PRODUCT_DEFINITION('','',#529,#525);
#522=PRODUCT_DEFINITION_CONTEXT('',#547,'design');
#523=PRODUCT_DEFINITION_CONTEXT('',#547,'design');
#524=PRODUCT_DEFINITION_CONTEXT('',#547,'design');
#525=PRODUCT_DEFINITION_CONTEXT('',#547,'design');
#526=PRODUCT_DEFINITION_FORMATION_WITH_SPECIFIED_SOURCE('','',#534,
 .NOT_KNOWN.);
#527=PRODUCT_DEFINITION_FORMATION_WITH_SPECIFIED_SOURCE('','',#535,
 .NOT_KNOWN.);
#528=PRODUCT_DEFINITION_FORMATION_WITH_SPECIFIED_SOURCE('','',#536,
 .NOT_KNOWN.);
#529=PRODUCT_DEFINITION_FORMATION_WITH_SPECIFIED_SOURCE('','',#537,
 .NOT_KNOWN.);
#530=PRODUCT_RELATED_PRODUCT_CATEGORY('','',(#534));
#531=PRODUCT_RELATED_PRODUCT_CATEGORY('','',(#535));
#532=PRODUCT_RELATED_PRODUCT_CATEGORY('','',(#536));
#533=PRODUCT_RELATED_PRODUCT_CATEGORY('','',(#537));
#534=PRODUCT('2466 8.000','2466 8.000','2466 8.000',(#542));
#535=PRODUCT('2466 8.000_PART1','2466 8.000_PART1','2466 8.000_PART1',(#543));
#536=PRODUCT('2466 8.000_PART2','2466 8.000_PART2','2466 8.000_PART2',(#544));
#537=PRODUCT('2466 8.000_PART3','2466 8.000_PART3','2466 8.000_PART3',(#545));
#538=PRODUCT_CATEGORY('','');
#539=PRODUCT_CATEGORY('','');
#540=PRODUCT_CATEGORY('','');
#541=PRODUCT_CATEGORY('','');
#542=PRODUCT_CONTEXT('',#547,'mechanical');
#543=PRODUCT_CONTEXT('',#547,'mechanical');
#544=PRODUCT_CONTEXT('',#547,'mechanical');
#545=PRODUCT_CONTEXT('',#547,'mechanical');
#546=APPLICATION_PROTOCOL_DEFINITION('international standard',
'automotive_design',2010,#547);
#547=APPLICATION_CONTEXT(
'core data for automotive mechanical design processes');
ENDSEC;
END-ISO-10303-21;
