ISO-10303-21;
HEADER;
/* Generated by software containing ST-Developer
 * from STEP Tools, Inc. (www.steptools.com) 
 */
/* OPTION: using custom renumber hook */

FILE_DESCRIPTION(
/* description */ ('STEP AP214'),
/* implementation_level */ '2;1');

FILE_NAME(
/* name */ '2517 6.000',
/* time_stamp */ '2026-05-14T15:39:21+02:00',
/* author */ ('License CC BY-ND 4.0'),
/* organization */ ('CADENAS'),
/* preprocessor_version */ 'ST-DEVELOPER v20',
/* originating_system */ 'PARTsolutions',
/* authorisation */ '  ');

FILE_SCHEMA (('AUTOMOTIVE_DESIGN {1 0 10303 214 3 1 1}'));
ENDSEC;

DATA;
#10=PROPERTY_DEFINITION_REPRESENTATION(#14,#12);
#11=PROPERTY_DEFINITION_REPRESENTATION(#15,#13);
#12=REPRESENTATION('',(#16),#444);
#13=REPRESENTATION('',(#17),#444);
#14=PROPERTY_DEFINITION('pmi validation property','',#455);
#15=PROPERTY_DEFINITION('pmi validation property','',#455);
#16=VALUE_REPRESENTATION_ITEM('number of annotations',COUNT_MEASURE(0.));
#17=VALUE_REPRESENTATION_ITEM('number of views',COUNT_MEASURE(0.));
#18=CONTEXT_DEPENDENT_SHAPE_REPRESENTATION(#24,#457);
#19=CONTEXT_DEPENDENT_SHAPE_REPRESENTATION(#25,#459);
#20=CONTEXT_DEPENDENT_SHAPE_REPRESENTATION(#26,#461);
#21=NEXT_ASSEMBLY_USAGE_OCCURRENCE('NAUO1','2517 6.000_PART1',
'2517 6.000_PART1',#462,#463,'');
#22=NEXT_ASSEMBLY_USAGE_OCCURRENCE('NAUO2','2517 6.000_PART2',
'2517 6.000_PART2',#462,#464,'');
#23=NEXT_ASSEMBLY_USAGE_OCCURRENCE('NAUO3','2517 6.000_PART3',
'2517 6.000_PART3',#462,#465,'');
#24=(
REPRESENTATION_RELATIONSHIP(' ',' ',#260,#259)
REPRESENTATION_RELATIONSHIP_WITH_TRANSFORMATION(#27)
SHAPE_REPRESENTATION_RELATIONSHIP()
);
#25=(
REPRESENTATION_RELATIONSHIP(' ',' ',#261,#259)
REPRESENTATION_RELATIONSHIP_WITH_TRANSFORMATION(#28)
SHAPE_REPRESENTATION_RELATIONSHIP()
);
#26=(
REPRESENTATION_RELATIONSHIP(' ',' ',#262,#259)
REPRESENTATION_RELATIONSHIP_WITH_TRANSFORMATION(#29)
SHAPE_REPRESENTATION_RELATIONSHIP()
);
#27=ITEM_DEFINED_TRANSFORMATION(' ',' ',#263,#285);
#28=ITEM_DEFINED_TRANSFORMATION(' ',' ',#263,#295);
#29=ITEM_DEFINED_TRANSFORMATION(' ',' ',#263,#303);
#30=SHAPE_REPRESENTATION_RELATIONSHIP('','',#260,#33);
#31=SHAPE_REPRESENTATION_RELATIONSHIP('','',#261,#34);
#32=SHAPE_REPRESENTATION_RELATIONSHIP('','',#262,#35);
#33=ADVANCED_BREP_SHAPE_REPRESENTATION('',(#252),#445);
#34=ADVANCED_BREP_SHAPE_REPRESENTATION('',(#253),#446);
#35=ADVANCED_BREP_SHAPE_REPRESENTATION('',(#254),#447);
#36=TOROIDAL_SURFACE('',#276,2.351,0.001);
#37=CYLINDRICAL_SURFACE('',#271,2.95);
#38=CYLINDRICAL_SURFACE('',#280,2.35);
#39=CYLINDRICAL_SURFACE('',#282,3.);
#40=CYLINDRICAL_SURFACE('',#286,3.03);
#41=CONICAL_SURFACE('',#266,2.95,0.7853981625);
#42=CONICAL_SURFACE('',#273,1.7,1.361356815);
#43=CONICAL_SURFACE('',#274,3.,0.7853981625);
#44=CONICAL_SURFACE('',#279,2.350134,0.523598775);
#45=CONICAL_SURFACE('',#284,3.,0.13962634);
#46=CONICAL_SURFACE('',#289,2.350134,0.523598775);
#47=CONICAL_SURFACE('',#293,2.46,0.1528524151);
#48=CONICAL_SURFACE('',#300,2.46,0.1528524151);
#49=CONICAL_SURFACE('',#302,0.5001,0.7853981625);
#50=ORIENTED_EDGE('',*,*,#84,.T.);
#51=ORIENTED_EDGE('',*,*,#85,.T.);
#52=ORIENTED_EDGE('',*,*,#86,.F.);
#53=ORIENTED_EDGE('',*,*,#87,.F.);
#54=ORIENTED_EDGE('',*,*,#88,.T.);
#55=ORIENTED_EDGE('',*,*,#85,.F.);
#56=ORIENTED_EDGE('',*,*,#86,.T.);
#57=ORIENTED_EDGE('',*,*,#87,.T.);
#58=ORIENTED_EDGE('',*,*,#89,.T.);
#59=ORIENTED_EDGE('',*,*,#88,.F.);
#60=ORIENTED_EDGE('',*,*,#90,.T.);
#61=ORIENTED_EDGE('',*,*,#91,.F.);
#62=ORIENTED_EDGE('',*,*,#90,.F.);
#63=ORIENTED_EDGE('',*,*,#84,.F.);
#64=ORIENTED_EDGE('',*,*,#92,.F.);
#65=ORIENTED_EDGE('',*,*,#91,.T.);
#66=ORIENTED_EDGE('',*,*,#93,.T.);
#67=ORIENTED_EDGE('',*,*,#89,.F.);
#68=ORIENTED_EDGE('',*,*,#93,.F.);
#69=ORIENTED_EDGE('',*,*,#92,.T.);
#70=ORIENTED_EDGE('',*,*,#94,.F.);
#71=ORIENTED_EDGE('',*,*,#95,.T.);
#72=ORIENTED_EDGE('',*,*,#96,.T.);
#73=ORIENTED_EDGE('',*,*,#94,.T.);
#74=ORIENTED_EDGE('',*,*,#97,.F.);
#75=ORIENTED_EDGE('',*,*,#95,.F.);
#76=ORIENTED_EDGE('',*,*,#97,.T.);
#77=ORIENTED_EDGE('',*,*,#96,.F.);
#78=ORIENTED_EDGE('',*,*,#98,.T.);
#79=ORIENTED_EDGE('',*,*,#99,.F.);
#80=ORIENTED_EDGE('',*,*,#98,.F.);
#81=ORIENTED_EDGE('',*,*,#100,.T.);
#82=ORIENTED_EDGE('',*,*,#100,.F.);
#83=ORIENTED_EDGE('',*,*,#99,.T.);
#84=EDGE_CURVE('',#101,#101,#117,.T.);
#85=EDGE_CURVE('',#102,#102,#118,.T.);
#86=EDGE_CURVE('',#103,#103,#119,.T.);
#87=EDGE_CURVE('',#104,#104,#120,.F.);
#88=EDGE_CURVE('',#105,#105,#121,.T.);
#89=EDGE_CURVE('',#106,#106,#122,.T.);
#90=EDGE_CURVE('',#107,#107,#123,.T.);
#91=EDGE_CURVE('',#107,#107,#124,.T.);
#92=EDGE_CURVE('',#108,#108,#125,.T.);
#93=EDGE_CURVE('',#109,#109,#126,.T.);
#94=EDGE_CURVE('',#110,#110,#127,.T.);
#95=EDGE_CURVE('',#111,#111,#128,.T.);
#96=EDGE_CURVE('',#112,#112,#129,.T.);
#97=EDGE_CURVE('',#113,#113,#130,.T.);
#98=EDGE_CURVE('',#114,#114,#131,.T.);
#99=EDGE_CURVE('',#115,#115,#132,.T.);
#100=EDGE_CURVE('',#116,#116,#133,.T.);
#101=VERTEX_POINT('',#389);
#102=VERTEX_POINT('',#392);
#103=VERTEX_POINT('',#394);
#104=VERTEX_POINT('',#397);
#105=VERTEX_POINT('',#400);
#106=VERTEX_POINT('',#404);
#107=VERTEX_POINT('',#407);
#108=VERTEX_POINT('',#412);
#109=VERTEX_POINT('',#415);
#110=VERTEX_POINT('',#420);
#111=VERTEX_POINT('',#422);
#112=VERTEX_POINT('',#425);
#113=VERTEX_POINT('',#428);
#114=VERTEX_POINT('',#434);
#115=VERTEX_POINT('',#437);
#116=VERTEX_POINT('',#440);
#117=CIRCLE('',#265,2.89466699714859);
#118=CIRCLE('',#267,2.95);
#119=CIRCLE('',#268,1.7);
#120=CIRCLE('',#270,1.50005322187656);
#121=CIRCLE('',#272,2.95);
#122=CIRCLE('',#275,3.);
#123=CIRCLE('',#277,2.35013399364875);
#124=CIRCLE('',#278,2.35);
#125=CIRCLE('',#281,2.35);
#126=CIRCLE('',#283,3.);
#127=CIRCLE('',#287,3.03);
#128=CIRCLE('',#288,3.03);
#129=CIRCLE('',#290,2.89466699714859);
#130=CIRCLE('',#292,2.46777645519868);
#131=CIRCLE('',#297,2.46777645519868);
#132=CIRCLE('',#299,2.1579787);
#133=CIRCLE('',#301,2.46000000064063);
#134=EDGE_LOOP('',(#50));
#135=EDGE_LOOP('',(#51));
#136=EDGE_LOOP('',(#52));
#137=EDGE_LOOP('',(#53));
#138=EDGE_LOOP('',(#54));
#139=EDGE_LOOP('',(#55));
#140=EDGE_LOOP('',(#56));
#141=EDGE_LOOP('',(#57));
#142=EDGE_LOOP('',(#58));
#143=EDGE_LOOP('',(#59));
#144=EDGE_LOOP('',(#60,#61));
#145=EDGE_LOOP('',(#62));
#146=EDGE_LOOP('',(#63));
#147=EDGE_LOOP('',(#64));
#148=EDGE_LOOP('',(#65));
#149=EDGE_LOOP('',(#66));
#150=EDGE_LOOP('',(#67));
#151=EDGE_LOOP('',(#68));
#152=EDGE_LOOP('',(#69));
#153=EDGE_LOOP('',(#70));
#154=EDGE_LOOP('',(#71));
#155=EDGE_LOOP('',(#72));
#156=EDGE_LOOP('',(#73));
#157=EDGE_LOOP('',(#74));
#158=EDGE_LOOP('',(#75));
#159=EDGE_LOOP('',(#76));
#160=EDGE_LOOP('',(#77));
#161=EDGE_LOOP('',(#78));
#162=EDGE_LOOP('',(#79));
#163=EDGE_LOOP('',(#80));
#164=EDGE_LOOP('',(#81));
#165=EDGE_LOOP('',(#82));
#166=EDGE_LOOP('',(#83));
#167=FACE_BOUND('',#134,.T.);
#168=FACE_BOUND('',#135,.T.);
#169=FACE_BOUND('',#136,.T.);
#170=FACE_BOUND('',#137,.T.);
#171=FACE_BOUND('',#138,.T.);
#172=FACE_BOUND('',#139,.T.);
#173=FACE_BOUND('',#140,.T.);
#174=FACE_BOUND('',#141,.T.);
#175=FACE_BOUND('',#142,.T.);
#176=FACE_BOUND('',#143,.T.);
#177=FACE_BOUND('',#144,.T.);
#178=FACE_BOUND('',#145,.T.);
#179=FACE_BOUND('',#146,.T.);
#180=FACE_BOUND('',#147,.T.);
#181=FACE_BOUND('',#148,.T.);
#182=FACE_BOUND('',#149,.T.);
#183=FACE_BOUND('',#150,.T.);
#184=FACE_BOUND('',#151,.T.);
#185=FACE_BOUND('',#152,.T.);
#186=FACE_BOUND('',#153,.T.);
#187=FACE_BOUND('',#154,.T.);
#188=FACE_BOUND('',#155,.T.);
#189=FACE_BOUND('',#156,.T.);
#190=FACE_BOUND('',#157,.T.);
#191=FACE_BOUND('',#158,.T.);
#192=FACE_BOUND('',#159,.T.);
#193=FACE_BOUND('',#160,.T.);
#194=FACE_BOUND('',#161,.T.);
#195=FACE_BOUND('',#162,.T.);
#196=FACE_BOUND('',#163,.T.);
#197=FACE_BOUND('',#164,.T.);
#198=FACE_BOUND('',#165,.T.);
#199=FACE_BOUND('',#166,.T.);
#200=PLANE('',#264);
#201=PLANE('',#269);
#202=PLANE('',#291);
#203=PLANE('',#294);
#204=PLANE('',#296);
#205=PLANE('',#298);
#206=ADVANCED_FACE('',(#167),#200,.F.);
#207=ADVANCED_FACE('',(#168,#169),#41,.T.);
#208=ADVANCED_FACE('',(#170),#201,.T.);
#209=ADVANCED_FACE('',(#171,#172),#37,.T.);
#210=ADVANCED_FACE('',(#173,#174),#42,.T.);
#211=ADVANCED_FACE('',(#175,#176),#43,.T.);
#212=ADVANCED_FACE('',(#177),#36,.F.);
#213=ADVANCED_FACE('',(#178,#179),#44,.T.);
#214=ADVANCED_FACE('',(#180,#181),#38,.T.);
#215=ADVANCED_FACE('',(#182,#183),#39,.T.);
#216=ADVANCED_FACE('',(#184,#185),#45,.T.);
#217=ADVANCED_FACE('',(#186,#187),#40,.T.);
#218=ADVANCED_FACE('',(#188,#189),#46,.T.);
#219=ADVANCED_FACE('',(#190),#202,.F.);
#220=ADVANCED_FACE('',(#191,#192),#47,.T.);
#221=ADVANCED_FACE('',(#193),#203,.T.);
#222=ADVANCED_FACE('',(#194),#204,.T.);
#223=ADVANCED_FACE('',(#195),#205,.F.);
#224=ADVANCED_FACE('',(#196,#197),#48,.T.);
#225=ADVANCED_FACE('',(#198,#199),#49,.T.);
#226=CLOSED_SHELL('',(#206,#207,#208,#209,#210,#211,#212,#213,#214,#215,
#216));
#227=CLOSED_SHELL('',(#217,#218,#219,#220,#221));
#228=CLOSED_SHELL('',(#222,#223,#224,#225));
#229=STYLED_ITEM('',(#232),#252);
#230=STYLED_ITEM('',(#233),#253);
#231=STYLED_ITEM('',(#234),#254);
#232=PRESENTATION_STYLE_ASSIGNMENT((#235));
#233=PRESENTATION_STYLE_ASSIGNMENT((#236));
#234=PRESENTATION_STYLE_ASSIGNMENT((#237));
#235=SURFACE_STYLE_USAGE(.BOTH.,#238);
#236=SURFACE_STYLE_USAGE(.BOTH.,#239);
#237=SURFACE_STYLE_USAGE(.BOTH.,#240);
#238=SURFACE_SIDE_STYLE('',(#241));
#239=SURFACE_SIDE_STYLE('',(#242));
#240=SURFACE_SIDE_STYLE('',(#243));
#241=SURFACE_STYLE_FILL_AREA(#244);
#242=SURFACE_STYLE_FILL_AREA(#245);
#243=SURFACE_STYLE_FILL_AREA(#246);
#244=FILL_AREA_STYLE('',(#247));
#245=FILL_AREA_STYLE('',(#248));
#246=FILL_AREA_STYLE('',(#249));
#247=FILL_AREA_STYLE_COLOUR('',#250);
#248=FILL_AREA_STYLE_COLOUR('',#251);
#249=FILL_AREA_STYLE_COLOUR('',#250);
#250=COLOUR_RGB('',0.4999923706,0.4999923706,0.4999923706);
#251=COLOUR_RGB('',0.8000000119,0.8000000119,0.8000000119);
#252=MANIFOLD_SOLID_BREP('1',#226);
#253=MANIFOLD_SOLID_BREP('1',#227);
#254=MANIFOLD_SOLID_BREP('1',#228);
#255=SHAPE_DEFINITION_REPRESENTATION(#455,#259);
#256=SHAPE_DEFINITION_REPRESENTATION(#456,#260);
#257=SHAPE_DEFINITION_REPRESENTATION(#458,#261);
#258=SHAPE_DEFINITION_REPRESENTATION(#460,#262);
#259=SHAPE_REPRESENTATION('2517 6.000',(#263,#285,#295,#303),#444);
#260=SHAPE_REPRESENTATION('2517 6.000_PART1',(#263),#445);
#261=SHAPE_REPRESENTATION('2517 6.000_PART2',(#263),#446);
#262=SHAPE_REPRESENTATION('2517 6.000_PART3',(#263),#447);
#263=AXIS2_PLACEMENT_3D('',#386,#304,#305);
#264=AXIS2_PLACEMENT_3D('',#387,#306,#307);
#265=AXIS2_PLACEMENT_3D('',#388,#308,#309);
#266=AXIS2_PLACEMENT_3D('',#390,#310,#311);
#267=AXIS2_PLACEMENT_3D('',#391,#312,#313);
#268=AXIS2_PLACEMENT_3D('',#393,#314,#315);
#269=AXIS2_PLACEMENT_3D('',#395,#316,#317);
#270=AXIS2_PLACEMENT_3D('',#396,#318,#319);
#271=AXIS2_PLACEMENT_3D('',#398,#320,#321);
#272=AXIS2_PLACEMENT_3D('',#399,#322,#323);
#273=AXIS2_PLACEMENT_3D('',#401,#324,#325);
#274=AXIS2_PLACEMENT_3D('',#402,#326,#327);
#275=AXIS2_PLACEMENT_3D('',#403,#328,#329);
#276=AXIS2_PLACEMENT_3D('',#405,#330,#331);
#277=AXIS2_PLACEMENT_3D('',#406,#332,#333);
#278=AXIS2_PLACEMENT_3D('',#408,#334,#335);
#279=AXIS2_PLACEMENT_3D('',#409,#336,#337);
#280=AXIS2_PLACEMENT_3D('',#410,#338,#339);
#281=AXIS2_PLACEMENT_3D('',#411,#340,#341);
#282=AXIS2_PLACEMENT_3D('',#413,#342,#343);
#283=AXIS2_PLACEMENT_3D('',#414,#344,#345);
#284=AXIS2_PLACEMENT_3D('',#416,#346,#347);
#285=AXIS2_PLACEMENT_3D('',#417,#348,#349);
#286=AXIS2_PLACEMENT_3D('',#418,#350,#351);
#287=AXIS2_PLACEMENT_3D('',#419,#352,#353);
#288=AXIS2_PLACEMENT_3D('',#421,#354,#355);
#289=AXIS2_PLACEMENT_3D('',#423,#356,#357);
#290=AXIS2_PLACEMENT_3D('',#424,#358,#359);
#291=AXIS2_PLACEMENT_3D('',#426,#360,#361);
#292=AXIS2_PLACEMENT_3D('',#427,#362,#363);
#293=AXIS2_PLACEMENT_3D('',#429,#364,#365);
#294=AXIS2_PLACEMENT_3D('',#430,#366,#367);
#295=AXIS2_PLACEMENT_3D('',#431,#368,#369);
#296=AXIS2_PLACEMENT_3D('',#432,#370,#371);
#297=AXIS2_PLACEMENT_3D('',#433,#372,#373);
#298=AXIS2_PLACEMENT_3D('',#435,#374,#375);
#299=AXIS2_PLACEMENT_3D('',#436,#376,#377);
#300=AXIS2_PLACEMENT_3D('',#438,#378,#379);
#301=AXIS2_PLACEMENT_3D('',#439,#380,#381);
#302=AXIS2_PLACEMENT_3D('',#441,#382,#383);
#303=AXIS2_PLACEMENT_3D('',#442,#384,#385);
#304=DIRECTION('',(0.,0.,1.));
#305=DIRECTION('',(1.,0.,0.));
#306=DIRECTION('',(0.,0.,1.));
#307=DIRECTION('',(1.,0.,0.));
#308=DIRECTION('',(0.,0.,-1.));
#309=DIRECTION('',(1.,0.,0.));
#310=DIRECTION('',(-8.21570019531367E-17,0.,-1.));
#311=DIRECTION('',(-1.,0.,8.21570019531367E-17));
#312=DIRECTION('',(0.,0.,1.));
#313=DIRECTION('',(1.,0.,0.));
#314=DIRECTION('',(0.,0.,1.));
#315=DIRECTION('',(1.,0.,0.));
#316=DIRECTION('',(0.,0.,1.));
#317=DIRECTION('',(1.,0.,0.));
#318=DIRECTION('',(0.,0.,1.));
#319=DIRECTION('',(1.,0.,0.));
#320=DIRECTION('',(0.,0.,-1.));
#321=DIRECTION('',(1.,0.,0.));
#322=DIRECTION('',(0.,0.,1.));
#323=DIRECTION('',(1.,0.,0.));
#324=DIRECTION('',(-1.19821738349441E-17,0.,-1.));
#325=DIRECTION('',(-1.,0.,1.19821738349441E-17));
#326=DIRECTION('',(9.68539527963407E-17,0.,-1.));
#327=DIRECTION('',(-1.,0.,-9.68539527963407E-17));
#328=DIRECTION('',(0.,0.,1.));
#329=DIRECTION('',(1.,0.,0.));
#330=DIRECTION('',(0.,0.,1.));
#331=DIRECTION('',(1.,0.,0.));
#332=DIRECTION('',(0.,0.,1.));
#333=DIRECTION('',(1.,0.,0.));
#334=DIRECTION('',(0.,0.,1.));
#335=DIRECTION('',(1.,0.,0.));
#336=DIRECTION('',(0.,0.,-1.));
#337=DIRECTION('',(-1.,0.,0.));
#338=DIRECTION('',(0.,0.,-1.));
#339=DIRECTION('',(1.,0.,0.));
#340=DIRECTION('',(0.,0.,1.));
#341=DIRECTION('',(1.,0.,0.));
#342=DIRECTION('',(0.,0.,-1.));
#343=DIRECTION('',(1.,0.,0.));
#344=DIRECTION('',(0.,0.,1.));
#345=DIRECTION('',(1.,0.,0.));
#346=DIRECTION('',(0.,0.,1.));
#347=DIRECTION('',(1.,0.,0.));
#348=DIRECTION('',(0.,0.,1.));
#349=DIRECTION('',(1.,0.,0.));
#350=DIRECTION('',(0.,0.,-1.));
#351=DIRECTION('',(1.,0.,0.));
#352=DIRECTION('',(0.,0.,1.));
#353=DIRECTION('',(-1.,0.,0.));
#354=DIRECTION('',(0.,0.,1.));
#355=DIRECTION('',(1.,0.,0.));
#356=DIRECTION('',(0.,0.,-1.));
#357=DIRECTION('',(-1.,0.,0.));
#358=DIRECTION('',(0.,0.,-1.));
#359=DIRECTION('',(1.,0.,0.));
#360=DIRECTION('',(0.,0.,1.));
#361=DIRECTION('',(1.,0.,0.));
#362=DIRECTION('',(0.,0.,1.));
#363=DIRECTION('',(1.,0.,0.));
#364=DIRECTION('',(0.,0.,1.));
#365=DIRECTION('',(1.,0.,0.));
#366=DIRECTION('',(0.,0.,1.));
#367=DIRECTION('',(1.,0.,0.));
#368=DIRECTION('',(0.,0.,1.));
#369=DIRECTION('',(1.,0.,0.));
#370=DIRECTION('',(0.,0.,1.));
#371=DIRECTION('',(1.,0.,0.));
#372=DIRECTION('',(0.,0.,1.));
#373=DIRECTION('',(1.,0.,0.));
#374=DIRECTION('',(0.,0.,1.));
#375=DIRECTION('',(1.,0.,0.));
#376=DIRECTION('',(0.,0.,1.));
#377=DIRECTION('',(1.,0.,0.));
#378=DIRECTION('',(0.,0.,1.));
#379=DIRECTION('',(1.,0.,0.));
#380=DIRECTION('',(0.,0.,1.));
#381=DIRECTION('',(1.,0.,0.));
#382=DIRECTION('',(4.16125529856955E-17,0.,1.));
#383=DIRECTION('',(1.,0.,-4.16125529856955E-17));
#384=DIRECTION('',(0.,0.,1.));
#385=DIRECTION('',(1.,0.,0.));
#386=CARTESIAN_POINT('',(0.,0.,0.));
#387=CARTESIAN_POINT('',(-4.97868529947573E-17,0.,-63.8069410901706));
#388=CARTESIAN_POINT('',(-4.97868529947573E-17,0.,-63.8069410901706));
#389=CARTESIAN_POINT('',(2.89466699714859,0.,-63.8069410901706));
#390=CARTESIAN_POINT('',(-4.97868529947573E-17,0.,-1.2925));
#391=CARTESIAN_POINT('',(-1.0000049786853E-11,0.,-1.29250000001));
#392=CARTESIAN_POINT('',(2.94999999999,0.,-1.29250000001));
#393=CARTESIAN_POINT('',(-1.0000049786853E-11,0.,-0.04250000001));
#394=CARTESIAN_POINT('',(1.69999999999,0.,-0.04250000001));
#395=CARTESIAN_POINT('',(-4.97868529947573E-17,1.5,0.));
#396=CARTESIAN_POINT('',(3.42644478792086E-17,0.,0.));
#397=CARTESIAN_POINT('',(1.50005322187656,0.,0.));
#398=CARTESIAN_POINT('',(-4.97868529947573E-17,0.,-81.7004787443438));
#399=CARTESIAN_POINT('',(-1.0000049786853E-11,0.,-9.64250000001));
#400=CARTESIAN_POINT('',(2.94999999999,0.,-9.64250000001));
#401=CARTESIAN_POINT('',(-4.97868529947573E-17,0.,-0.0425000000000018));
#402=CARTESIAN_POINT('',(-4.97868529947573E-17,0.,-9.69250000000001));
#403=CARTESIAN_POINT('',(-1.0000049786853E-11,0.,-9.69250000001001));
#404=CARTESIAN_POINT('',(2.99999999999,0.,-9.69250000001001));
#405=CARTESIAN_POINT('',(-4.97868529947573E-17,0.,-62.8632822714083));
#406=CARTESIAN_POINT('',(-4.97868529947573E-17,0.,-62.8637822604076));
#407=CARTESIAN_POINT('',(2.35006699999,0.,-62.8635322714183));
#408=CARTESIAN_POINT('',(-1.0000049786853E-11,0.,-62.8632822714183));
#409=CARTESIAN_POINT('',(-4.97868529947573E-17,0.,-62.8637822714083));
#410=CARTESIAN_POINT('',(-4.97868529947573E-17,0.,-81.7004787443438));
#411=CARTESIAN_POINT('',(-1.0000049786853E-11,0.,-50.0412822714183));
#412=CARTESIAN_POINT('',(2.34999999999,0.,-50.0412822714183));
#413=CARTESIAN_POINT('',(-4.97868529947573E-17,0.,-81.7004787443438));
#414=CARTESIAN_POINT('',(-1.0000049786853E-11,0.,-45.4162919518687));
#415=CARTESIAN_POINT('',(2.99999999999,0.,-45.4162919518687));
#416=CARTESIAN_POINT('',(-4.97868529947573E-17,0.,-45.4162919518587));
#417=CARTESIAN_POINT('',(0.,0.,0.));
#418=CARTESIAN_POINT('',(-4.97868529947573E-17,0.,-81.7004787443438));
#419=CARTESIAN_POINT('',(-4.97868529947573E-17,0.,-64.041344727374));
#420=CARTESIAN_POINT('',(-3.03,0.,-64.041344727374));
#421=CARTESIAN_POINT('',(-1.0000049786853E-11,0.,-76.0404787443538));
#422=CARTESIAN_POINT('',(3.02999999999,0.,-76.0404787443538));
#423=CARTESIAN_POINT('',(-4.97868529947573E-17,0.,-62.8637822714083));
#424=CARTESIAN_POINT('',(-4.97868529947573E-17,0.,-63.8069410901706));
#425=CARTESIAN_POINT('',(2.89466699714859,0.,-63.8069410901706));
#426=CARTESIAN_POINT('',(-4.97868529947573E-17,0.,-79.69));
#427=CARTESIAN_POINT('',(-4.97868529947573E-17,0.,-79.69));
#428=CARTESIAN_POINT('',(2.46777645519868,0.,-79.69));
#429=CARTESIAN_POINT('',(-4.97868529947573E-17,0.,-79.7404787443438));
#430=CARTESIAN_POINT('',(-4.97868529947573E-17,0.,-63.8069410901706));
#431=CARTESIAN_POINT('',(0.,0.,0.));
#432=CARTESIAN_POINT('',(-4.97868529947573E-17,0.,-79.69));
#433=CARTESIAN_POINT('',(-4.97868529947573E-17,0.,-79.69));
#434=CARTESIAN_POINT('',(2.46777645519868,0.,-79.69));
#435=CARTESIAN_POINT('',(-4.97868529947573E-17,0.,-80.0425));
#436=CARTESIAN_POINT('',(-1.0000049786853E-11,0.,-80.04250000001));
#437=CARTESIAN_POINT('',(2.15797869999,0.,-80.04250000001));
#438=CARTESIAN_POINT('',(-4.97868529947573E-17,0.,-79.7404787443438));
#439=CARTESIAN_POINT('',(3.17695897749507E-17,0.,-79.7404787401854));
#440=CARTESIAN_POINT('',(2.46000000064063,0.,-79.7404787401854));
#441=CARTESIAN_POINT('',(-4.97868529947573E-17,0.,-81.7003787443438));
#442=CARTESIAN_POINT('',(0.,0.,0.));
#443=MECHANICAL_DESIGN_GEOMETRIC_PRESENTATION_REPRESENTATION('',(#229,#230,
#231),#444);
#444=(
GEOMETRIC_REPRESENTATION_CONTEXT(3)
GLOBAL_UNCERTAINTY_ASSIGNED_CONTEXT((#448))
GLOBAL_UNIT_ASSIGNED_CONTEXT((#454,#453,#452))
REPRESENTATION_CONTEXT('2517 6.000','TOP_LEVEL_ASSEMBLY_PART')
);
#445=(
GEOMETRIC_REPRESENTATION_CONTEXT(3)
GLOBAL_UNCERTAINTY_ASSIGNED_CONTEXT((#449))
GLOBAL_UNIT_ASSIGNED_CONTEXT((#454,#453,#452))
REPRESENTATION_CONTEXT('2517 6.000_PART1','COMPONENT_PART')
);
#446=(
GEOMETRIC_REPRESENTATION_CONTEXT(3)
GLOBAL_UNCERTAINTY_ASSIGNED_CONTEXT((#450))
GLOBAL_UNIT_ASSIGNED_CONTEXT((#454,#453,#452))
REPRESENTATION_CONTEXT('2517 6.000_PART2','COMPONENT_PART')
);
#447=(
GEOMETRIC_REPRESENTATION_CONTEXT(3)
GLOBAL_UNCERTAINTY_ASSIGNED_CONTEXT((#451))
GLOBAL_UNIT_ASSIGNED_CONTEXT((#454,#453,#452))
REPRESENTATION_CONTEXT('2517 6.000_PART3','COMPONENT_PART')
);
#448=UNCERTAINTY_MEASURE_WITH_UNIT(LENGTH_MEASURE(1.E-5),#454,
'DISTANCE_ACCURACY_VALUE','Maximum Tolerance applied to model');
#449=UNCERTAINTY_MEASURE_WITH_UNIT(LENGTH_MEASURE(1.E-5),#454,
'DISTANCE_ACCURACY_VALUE','Maximum Tolerance applied to model');
#450=UNCERTAINTY_MEASURE_WITH_UNIT(LENGTH_MEASURE(1.E-5),#454,
'DISTANCE_ACCURACY_VALUE','Maximum Tolerance applied to model');
#451=UNCERTAINTY_MEASURE_WITH_UNIT(LENGTH_MEASURE(1.E-5),#454,
'DISTANCE_ACCURACY_VALUE','Maximum Tolerance applied to model');
#452=(
NAMED_UNIT(*)
SI_UNIT($,.STERADIAN.)
SOLID_ANGLE_UNIT()
);
#453=(
NAMED_UNIT(*)
PLANE_ANGLE_UNIT()
SI_UNIT($,.RADIAN.)
);
#454=(
LENGTH_UNIT()
NAMED_UNIT(*)
SI_UNIT(.MILLI.,.METRE.)
);
#455=PRODUCT_DEFINITION_SHAPE('','',#462);
#456=PRODUCT_DEFINITION_SHAPE('','',#463);
#457=PRODUCT_DEFINITION_SHAPE(' ','NAUO PRDDFN',#21);
#458=PRODUCT_DEFINITION_SHAPE('','',#464);
#459=PRODUCT_DEFINITION_SHAPE(' ','NAUO PRDDFN',#22);
#460=PRODUCT_DEFINITION_SHAPE('','',#465);
#461=PRODUCT_DEFINITION_SHAPE(' ','NAUO PRDDFN',#23);
#462=PRODUCT_DEFINITION('','',#470,#466);
#463=PRODUCT_DEFINITION('','',#471,#467);
#464=PRODUCT_DEFINITION('','',#472,#468);
#465=PRODUCT_DEFINITION('','',#473,#469);
#466=PRODUCT_DEFINITION_CONTEXT('',#491,'design');
#467=PRODUCT_DEFINITION_CONTEXT('',#491,'design');
#468=PRODUCT_DEFINITION_CONTEXT('',#491,'design');
#469=PRODUCT_DEFINITION_CONTEXT('',#491,'design');
#470=PRODUCT_DEFINITION_FORMATION_WITH_SPECIFIED_SOURCE('','',#478,
 .NOT_KNOWN.);
#471=PRODUCT_DEFINITION_FORMATION_WITH_SPECIFIED_SOURCE('','',#479,
 .NOT_KNOWN.);
#472=PRODUCT_DEFINITION_FORMATION_WITH_SPECIFIED_SOURCE('','',#480,
 .NOT_KNOWN.);
#473=PRODUCT_DEFINITION_FORMATION_WITH_SPECIFIED_SOURCE('','',#481,
 .NOT_KNOWN.);
#474=PRODUCT_RELATED_PRODUCT_CATEGORY('','',(#478));
#475=PRODUCT_RELATED_PRODUCT_CATEGORY('','',(#479));
#476=PRODUCT_RELATED_PRODUCT_CATEGORY('','',(#480));
#477=PRODUCT_RELATED_PRODUCT_CATEGORY('','',(#481));
#478=PRODUCT('2517 6.000','2517 6.000','2517 6.000',(#486));
#479=PRODUCT('2517 6.000_PART1','2517 6.000_PART1','2517 6.000_PART1',(#487));
#480=PRODUCT('2517 6.000_PART2','2517 6.000_PART2','2517 6.000_PART2',(#488));
#481=PRODUCT('2517 6.000_PART3','2517 6.000_PART3','2517 6.000_PART3',(#489));
#482=PRODUCT_CATEGORY('','');
#483=PRODUCT_CATEGORY('','');
#484=PRODUCT_CATEGORY('','');
#485=PRODUCT_CATEGORY('','');
#486=PRODUCT_CONTEXT('',#491,'mechanical');
#487=PRODUCT_CONTEXT('',#491,'mechanical');
#488=PRODUCT_CONTEXT('',#491,'mechanical');
#489=PRODUCT_CONTEXT('',#491,'mechanical');
#490=APPLICATION_PROTOCOL_DEFINITION('international standard',
'automotive_design',2010,#491);
#491=APPLICATION_CONTEXT(
'core data for automotive mechanical design processes');
ENDSEC;
END-ISO-10303-21;
