ISO-10303-21;
HEADER;
/* Generated by software containing ST-Developer
 * from STEP Tools, Inc. (www.steptools.com) 
 */
/* OPTION: using custom renumber hook */

FILE_DESCRIPTION(
/* description */ ('STEP AP214'),
/* implementation_level */ '2;1');

FILE_NAME(
/* name */ '2519 8.000',
/* time_stamp */ '2026-05-14T15:40:24+02:00',
/* author */ ('License CC BY-ND 4.0'),
/* organization */ ('CADENAS'),
/* preprocessor_version */ 'ST-DEVELOPER v20',
/* originating_system */ 'PARTsolutions',
/* authorisation */ '  ');

FILE_SCHEMA (('AUTOMOTIVE_DESIGN {1 0 10303 214 3 1 1}'));
ENDSEC;

DATA;
#10=PROPERTY_DEFINITION_REPRESENTATION(#14,#12);
#11=PROPERTY_DEFINITION_REPRESENTATION(#15,#13);
#12=REPRESENTATION('',(#16),#444);
#13=REPRESENTATION('',(#17),#444);
#14=PROPERTY_DEFINITION('pmi validation property','',#455);
#15=PROPERTY_DEFINITION('pmi validation property','',#455);
#16=VALUE_REPRESENTATION_ITEM('number of annotations',COUNT_MEASURE(0.));
#17=VALUE_REPRESENTATION_ITEM('number of views',COUNT_MEASURE(0.));
#18=TOROIDAL_SURFACE('',#285,3.151,0.00100000000000216);
#19=CYLINDRICAL_SURFACE('',#277,4.035);
#20=CYLINDRICAL_SURFACE('',#287,3.15);
#21=CYLINDRICAL_SURFACE('',#291,3.99999999999999);
#22=CYLINDRICAL_SURFACE('',#295,3.9);
#23=CONTEXT_DEPENDENT_SHAPE_REPRESENTATION(#29,#457);
#24=CONTEXT_DEPENDENT_SHAPE_REPRESENTATION(#30,#459);
#25=CONTEXT_DEPENDENT_SHAPE_REPRESENTATION(#31,#461);
#26=NEXT_ASSEMBLY_USAGE_OCCURRENCE('NAUO1','2519 8.000_PART1',
'2519 8.000_PART1',#462,#463,'');
#27=NEXT_ASSEMBLY_USAGE_OCCURRENCE('NAUO2','2519 8.000_PART2',
'2519 8.000_PART2',#462,#464,'');
#28=NEXT_ASSEMBLY_USAGE_OCCURRENCE('NAUO3','2519 8.000_PART3',
'2519 8.000_PART3',#462,#465,'');
#29=(
REPRESENTATION_RELATIONSHIP(' ',' ',#260,#259)
REPRESENTATION_RELATIONSHIP_WITH_TRANSFORMATION(#32)
SHAPE_REPRESENTATION_RELATIONSHIP()
);
#30=(
REPRESENTATION_RELATIONSHIP(' ',' ',#261,#259)
REPRESENTATION_RELATIONSHIP_WITH_TRANSFORMATION(#33)
SHAPE_REPRESENTATION_RELATIONSHIP()
);
#31=(
REPRESENTATION_RELATIONSHIP(' ',' ',#262,#259)
REPRESENTATION_RELATIONSHIP_WITH_TRANSFORMATION(#34)
SHAPE_REPRESENTATION_RELATIONSHIP()
);
#32=ITEM_DEFINED_TRANSFORMATION(' ',' ',#263,#271);
#33=ITEM_DEFINED_TRANSFORMATION(' ',' ',#263,#281);
#34=ITEM_DEFINED_TRANSFORMATION(' ',' ',#263,#303);
#35=SHAPE_REPRESENTATION_RELATIONSHIP('','',#260,#38);
#36=SHAPE_REPRESENTATION_RELATIONSHIP('','',#261,#39);
#37=SHAPE_REPRESENTATION_RELATIONSHIP('','',#262,#40);
#38=ADVANCED_BREP_SHAPE_REPRESENTATION('',(#252),#445);
#39=ADVANCED_BREP_SHAPE_REPRESENTATION('',(#253),#446);
#40=ADVANCED_BREP_SHAPE_REPRESENTATION('',(#254),#447);
#41=CONICAL_SURFACE('',#268,0.6501,0.78539816339745);
#42=CONICAL_SURFACE('',#270,3.32499999999999,0.152486673874907);
#43=CONICAL_SURFACE('',#274,3.32499999999999,0.152486673874907);
#44=CONICAL_SURFACE('',#279,3.15013397459622,0.523598775598301);
#45=CONICAL_SURFACE('',#282,3.15013397459622,0.523598775598301);
#46=CONICAL_SURFACE('',#289,4.,0.139626340159547);
#47=CONICAL_SURFACE('',#293,3.99999999999999,0.785398163397473);
#48=CONICAL_SURFACE('',#297,3.9,0.78539816339745);
#49=CONICAL_SURFACE('',#301,2.35,1.36135681655558);
#50=ORIENTED_EDGE('',*,*,#84,.T.);
#51=ORIENTED_EDGE('',*,*,#85,.F.);
#52=ORIENTED_EDGE('',*,*,#85,.T.);
#53=ORIENTED_EDGE('',*,*,#86,.F.);
#54=ORIENTED_EDGE('',*,*,#86,.T.);
#55=ORIENTED_EDGE('',*,*,#84,.F.);
#56=ORIENTED_EDGE('',*,*,#87,.F.);
#57=ORIENTED_EDGE('',*,*,#88,.T.);
#58=ORIENTED_EDGE('',*,*,#89,.F.);
#59=ORIENTED_EDGE('',*,*,#89,.T.);
#60=ORIENTED_EDGE('',*,*,#90,.F.);
#61=ORIENTED_EDGE('',*,*,#90,.T.);
#62=ORIENTED_EDGE('',*,*,#87,.T.);
#63=ORIENTED_EDGE('',*,*,#88,.F.);
#64=ORIENTED_EDGE('',*,*,#91,.F.);
#65=ORIENTED_EDGE('',*,*,#92,.F.);
#66=ORIENTED_EDGE('',*,*,#92,.T.);
#67=ORIENTED_EDGE('',*,*,#93,.F.);
#68=ORIENTED_EDGE('',*,*,#93,.T.);
#69=ORIENTED_EDGE('',*,*,#94,.F.);
#70=ORIENTED_EDGE('',*,*,#94,.T.);
#71=ORIENTED_EDGE('',*,*,#95,.F.);
#72=ORIENTED_EDGE('',*,*,#96,.F.);
#73=ORIENTED_EDGE('',*,*,#95,.T.);
#74=ORIENTED_EDGE('',*,*,#97,.F.);
#75=ORIENTED_EDGE('',*,*,#96,.T.);
#76=ORIENTED_EDGE('',*,*,#98,.F.);
#77=ORIENTED_EDGE('',*,*,#97,.T.);
#78=ORIENTED_EDGE('',*,*,#99,.F.);
#79=ORIENTED_EDGE('',*,*,#98,.T.);
#80=ORIENTED_EDGE('',*,*,#100,.F.);
#81=ORIENTED_EDGE('',*,*,#100,.T.);
#82=ORIENTED_EDGE('',*,*,#99,.T.);
#83=ORIENTED_EDGE('',*,*,#91,.T.);
#84=EDGE_CURVE('',#101,#101,#117,.T.);
#85=EDGE_CURVE('',#102,#102,#118,.T.);
#86=EDGE_CURVE('',#103,#103,#119,.T.);
#87=EDGE_CURVE('',#104,#104,#120,.T.);
#88=EDGE_CURVE('',#105,#105,#121,.T.);
#89=EDGE_CURVE('',#106,#106,#122,.T.);
#90=EDGE_CURVE('',#107,#107,#123,.T.);
#91=EDGE_CURVE('',#108,#108,#124,.T.);
#92=EDGE_CURVE('',#109,#109,#125,.T.);
#93=EDGE_CURVE('',#109,#109,#126,.T.);
#94=EDGE_CURVE('',#110,#110,#127,.T.);
#95=EDGE_CURVE('',#111,#111,#128,.T.);
#96=EDGE_CURVE('',#112,#112,#129,.T.);
#97=EDGE_CURVE('',#113,#113,#130,.T.);
#98=EDGE_CURVE('',#114,#114,#131,.T.);
#99=EDGE_CURVE('',#115,#115,#132,.T.);
#100=EDGE_CURVE('',#116,#116,#133,.T.);
#101=VERTEX_POINT('',#389);
#102=VERTEX_POINT('',#392);
#103=VERTEX_POINT('',#395);
#104=VERTEX_POINT('',#400);
#105=VERTEX_POINT('',#403);
#106=VERTEX_POINT('',#405);
#107=VERTEX_POINT('',#408);
#108=VERTEX_POINT('',#414);
#109=VERTEX_POINT('',#416);
#110=VERTEX_POINT('',#421);
#111=VERTEX_POINT('',#424);
#112=VERTEX_POINT('',#427);
#113=VERTEX_POINT('',#430);
#114=VERTEX_POINT('',#433);
#115=VERTEX_POINT('',#436);
#116=VERTEX_POINT('',#439);
#117=CIRCLE('',#265,3.35825301049439);
#118=CIRCLE('',#267,2.99197874434386);
#119=CIRCLE('',#269,3.32499999999999);
#120=CIRCLE('',#273,3.83037680930689);
#121=CIRCLE('',#275,3.35825301049439);
#122=CIRCLE('',#276,4.035);
#123=CIRCLE('',#278,4.035);
#124=CIRCLE('',#283,3.83037680930689);
#125=CIRCLE('',#284,3.15013397459622);
#126=CIRCLE('',#286,3.15);
#127=CIRCLE('',#288,3.15);
#128=CIRCLE('',#290,4.);
#129=CIRCLE('',#292,3.99999999999999);
#130=CIRCLE('',#294,3.9);
#131=CIRCLE('',#296,3.9);
#132=CIRCLE('',#298,2.35);
#133=CIRCLE('',#300,1.6);
#134=EDGE_LOOP('',(#50));
#135=EDGE_LOOP('',(#51));
#136=EDGE_LOOP('',(#52));
#137=EDGE_LOOP('',(#53));
#138=EDGE_LOOP('',(#54));
#139=EDGE_LOOP('',(#55));
#140=EDGE_LOOP('',(#56));
#141=EDGE_LOOP('',(#57));
#142=EDGE_LOOP('',(#58));
#143=EDGE_LOOP('',(#59));
#144=EDGE_LOOP('',(#60));
#145=EDGE_LOOP('',(#61));
#146=EDGE_LOOP('',(#62));
#147=EDGE_LOOP('',(#63));
#148=EDGE_LOOP('',(#64));
#149=EDGE_LOOP('',(#65));
#150=EDGE_LOOP('',(#66,#67));
#151=EDGE_LOOP('',(#68));
#152=EDGE_LOOP('',(#69));
#153=EDGE_LOOP('',(#70));
#154=EDGE_LOOP('',(#71));
#155=EDGE_LOOP('',(#72));
#156=EDGE_LOOP('',(#73));
#157=EDGE_LOOP('',(#74));
#158=EDGE_LOOP('',(#75));
#159=EDGE_LOOP('',(#76));
#160=EDGE_LOOP('',(#77));
#161=EDGE_LOOP('',(#78));
#162=EDGE_LOOP('',(#79));
#163=EDGE_LOOP('',(#80));
#164=EDGE_LOOP('',(#81));
#165=EDGE_LOOP('',(#82));
#166=EDGE_LOOP('',(#83));
#167=FACE_BOUND('',#134,.T.);
#168=FACE_BOUND('',#135,.T.);
#169=FACE_BOUND('',#136,.T.);
#170=FACE_BOUND('',#137,.T.);
#171=FACE_BOUND('',#138,.T.);
#172=FACE_BOUND('',#139,.T.);
#173=FACE_BOUND('',#140,.T.);
#174=FACE_BOUND('',#141,.T.);
#175=FACE_BOUND('',#142,.T.);
#176=FACE_BOUND('',#143,.T.);
#177=FACE_BOUND('',#144,.T.);
#178=FACE_BOUND('',#145,.T.);
#179=FACE_BOUND('',#146,.T.);
#180=FACE_BOUND('',#147,.T.);
#181=FACE_BOUND('',#148,.T.);
#182=FACE_BOUND('',#149,.T.);
#183=FACE_BOUND('',#150,.T.);
#184=FACE_BOUND('',#151,.T.);
#185=FACE_BOUND('',#152,.T.);
#186=FACE_BOUND('',#153,.T.);
#187=FACE_BOUND('',#154,.T.);
#188=FACE_BOUND('',#155,.T.);
#189=FACE_BOUND('',#156,.T.);
#190=FACE_BOUND('',#157,.T.);
#191=FACE_BOUND('',#158,.T.);
#192=FACE_BOUND('',#159,.T.);
#193=FACE_BOUND('',#160,.T.);
#194=FACE_BOUND('',#161,.T.);
#195=FACE_BOUND('',#162,.T.);
#196=FACE_BOUND('',#163,.T.);
#197=FACE_BOUND('',#164,.T.);
#198=FACE_BOUND('',#165,.T.);
#199=FACE_BOUND('',#166,.T.);
#200=PLANE('',#264);
#201=PLANE('',#266);
#202=PLANE('',#272);
#203=PLANE('',#280);
#204=PLANE('',#299);
#205=PLANE('',#302);
#206=ADVANCED_FACE('',(#167),#200,.T.);
#207=ADVANCED_FACE('',(#168),#201,.F.);
#208=ADVANCED_FACE('',(#169,#170),#41,.T.);
#209=ADVANCED_FACE('',(#171,#172),#42,.T.);
#210=ADVANCED_FACE('',(#173),#202,.T.);
#211=ADVANCED_FACE('',(#174,#175),#43,.T.);
#212=ADVANCED_FACE('',(#176,#177),#19,.T.);
#213=ADVANCED_FACE('',(#178,#179),#44,.T.);
#214=ADVANCED_FACE('',(#180),#203,.F.);
#215=ADVANCED_FACE('',(#181,#182),#45,.T.);
#216=ADVANCED_FACE('',(#183),#18,.F.);
#217=ADVANCED_FACE('',(#184,#185),#20,.T.);
#218=ADVANCED_FACE('',(#186,#187),#46,.T.);
#219=ADVANCED_FACE('',(#188,#189),#21,.T.);
#220=ADVANCED_FACE('',(#190,#191),#47,.T.);
#221=ADVANCED_FACE('',(#192,#193),#22,.T.);
#222=ADVANCED_FACE('',(#194,#195),#48,.T.);
#223=ADVANCED_FACE('',(#196),#204,.T.);
#224=ADVANCED_FACE('',(#197,#198),#49,.T.);
#225=ADVANCED_FACE('',(#199),#205,.F.);
#226=CLOSED_SHELL('',(#206,#207,#208,#209));
#227=CLOSED_SHELL('',(#210,#211,#212,#213,#214));
#228=CLOSED_SHELL('',(#215,#216,#217,#218,#219,#220,#221,#222,#223,#224,
#225));
#229=STYLED_ITEM('',(#232),#252);
#230=STYLED_ITEM('',(#233),#253);
#231=STYLED_ITEM('',(#234),#254);
#232=PRESENTATION_STYLE_ASSIGNMENT((#235));
#233=PRESENTATION_STYLE_ASSIGNMENT((#236));
#234=PRESENTATION_STYLE_ASSIGNMENT((#237));
#235=SURFACE_STYLE_USAGE(.BOTH.,#238);
#236=SURFACE_STYLE_USAGE(.BOTH.,#239);
#237=SURFACE_STYLE_USAGE(.BOTH.,#240);
#238=SURFACE_SIDE_STYLE('',(#241));
#239=SURFACE_SIDE_STYLE('',(#242));
#240=SURFACE_SIDE_STYLE('',(#243));
#241=SURFACE_STYLE_FILL_AREA(#244);
#242=SURFACE_STYLE_FILL_AREA(#245);
#243=SURFACE_STYLE_FILL_AREA(#246);
#244=FILL_AREA_STYLE('',(#247));
#245=FILL_AREA_STYLE('',(#248));
#246=FILL_AREA_STYLE('',(#249));
#247=FILL_AREA_STYLE_COLOUR('',#250);
#248=FILL_AREA_STYLE_COLOUR('',#251);
#249=FILL_AREA_STYLE_COLOUR('',#250);
#250=COLOUR_RGB('',0.499992370489052,0.499992370489052,0.499992370489052);
#251=COLOUR_RGB('',0.8,0.8,0.8);
#252=MANIFOLD_SOLID_BREP('solid',#226);
#253=MANIFOLD_SOLID_BREP('solid',#227);
#254=MANIFOLD_SOLID_BREP('solid',#228);
#255=SHAPE_DEFINITION_REPRESENTATION(#455,#259);
#256=SHAPE_DEFINITION_REPRESENTATION(#456,#260);
#257=SHAPE_DEFINITION_REPRESENTATION(#458,#261);
#258=SHAPE_DEFINITION_REPRESENTATION(#460,#262);
#259=SHAPE_REPRESENTATION('2519 8.000',(#263,#271,#281,#303),#444);
#260=SHAPE_REPRESENTATION('2519 8.000_PART1',(#263),#445);
#261=SHAPE_REPRESENTATION('2519 8.000_PART2',(#263),#446);
#262=SHAPE_REPRESENTATION('2519 8.000_PART3',(#263),#447);
#263=AXIS2_PLACEMENT_3D('',#386,#304,#305);
#264=AXIS2_PLACEMENT_3D('',#387,#306,#307);
#265=AXIS2_PLACEMENT_3D('',#388,#308,#309);
#266=AXIS2_PLACEMENT_3D('',#390,#310,#311);
#267=AXIS2_PLACEMENT_3D('',#391,#312,#313);
#268=AXIS2_PLACEMENT_3D('',#393,#314,#315);
#269=AXIS2_PLACEMENT_3D('',#394,#316,#317);
#270=AXIS2_PLACEMENT_3D('',#396,#318,#319);
#271=AXIS2_PLACEMENT_3D('',#397,#320,#321);
#272=AXIS2_PLACEMENT_3D('',#398,#322,#323);
#273=AXIS2_PLACEMENT_3D('',#399,#324,#325);
#274=AXIS2_PLACEMENT_3D('',#401,#326,#327);
#275=AXIS2_PLACEMENT_3D('',#402,#328,#329);
#276=AXIS2_PLACEMENT_3D('',#404,#330,#331);
#277=AXIS2_PLACEMENT_3D('',#406,#332,#333);
#278=AXIS2_PLACEMENT_3D('',#407,#334,#335);
#279=AXIS2_PLACEMENT_3D('',#409,#336,#337);
#280=AXIS2_PLACEMENT_3D('',#410,#338,#339);
#281=AXIS2_PLACEMENT_3D('',#411,#340,#341);
#282=AXIS2_PLACEMENT_3D('',#412,#342,#343);
#283=AXIS2_PLACEMENT_3D('',#413,#344,#345);
#284=AXIS2_PLACEMENT_3D('',#415,#346,#347);
#285=AXIS2_PLACEMENT_3D('',#417,#348,#349);
#286=AXIS2_PLACEMENT_3D('',#418,#350,#351);
#287=AXIS2_PLACEMENT_3D('',#419,#352,#353);
#288=AXIS2_PLACEMENT_3D('',#420,#354,#355);
#289=AXIS2_PLACEMENT_3D('',#422,#356,#357);
#290=AXIS2_PLACEMENT_3D('',#423,#358,#359);
#291=AXIS2_PLACEMENT_3D('',#425,#360,#361);
#292=AXIS2_PLACEMENT_3D('',#426,#362,#363);
#293=AXIS2_PLACEMENT_3D('',#428,#364,#365);
#294=AXIS2_PLACEMENT_3D('',#429,#366,#367);
#295=AXIS2_PLACEMENT_3D('',#431,#368,#369);
#296=AXIS2_PLACEMENT_3D('',#432,#370,#371);
#297=AXIS2_PLACEMENT_3D('',#434,#372,#373);
#298=AXIS2_PLACEMENT_3D('',#435,#374,#375);
#299=AXIS2_PLACEMENT_3D('',#437,#376,#377);
#300=AXIS2_PLACEMENT_3D('',#438,#378,#379);
#301=AXIS2_PLACEMENT_3D('',#440,#380,#381);
#302=AXIS2_PLACEMENT_3D('',#441,#382,#383);
#303=AXIS2_PLACEMENT_3D('',#442,#384,#385);
#304=DIRECTION('',(0.,0.,1.));
#305=DIRECTION('',(1.,0.,0.));
#306=DIRECTION('',(0.,0.,1.));
#307=DIRECTION('',(1.,0.,0.));
#308=DIRECTION('',(0.,0.,1.));
#309=DIRECTION('',(1.,0.,0.));
#310=DIRECTION('',(0.,0.,1.));
#311=DIRECTION('',(1.,0.,0.));
#312=DIRECTION('',(0.,0.,1.));
#313=DIRECTION('',(1.,0.,0.));
#314=DIRECTION('',(0.,0.,1.));
#315=DIRECTION('',(1.,0.,-2.77375434386394E-17));
#316=DIRECTION('',(0.,0.,1.));
#317=DIRECTION('',(1.,0.,0.));
#318=DIRECTION('',(0.,0.,1.));
#319=DIRECTION('',(1.,0.,1.76781865792716E-16));
#320=DIRECTION('',(0.,0.,1.));
#321=DIRECTION('',(1.,0.,0.));
#322=DIRECTION('',(0.,0.,1.));
#323=DIRECTION('',(1.,0.,0.));
#324=DIRECTION('',(0.,0.,-1.));
#325=DIRECTION('',(1.,0.,0.));
#326=DIRECTION('',(0.,0.,1.));
#327=DIRECTION('',(1.,0.,1.76781865792716E-16));
#328=DIRECTION('',(0.,0.,1.));
#329=DIRECTION('',(1.,0.,0.));
#330=DIRECTION('',(0.,0.,1.));
#331=DIRECTION('',(1.,0.,0.));
#332=DIRECTION('',(0.,0.,1.));
#333=DIRECTION('',(1.,0.,0.));
#334=DIRECTION('',(0.,0.,1.));
#335=DIRECTION('',(1.,0.,0.));
#336=DIRECTION('',(0.,0.,-1.));
#337=DIRECTION('',(-1.,0.,1.67346162251018E-16));
#338=DIRECTION('',(0.,0.,1.));
#339=DIRECTION('',(1.,0.,0.));
#340=DIRECTION('',(0.,0.,1.));
#341=DIRECTION('',(1.,0.,0.));
#342=DIRECTION('',(0.,0.,-1.));
#343=DIRECTION('',(-1.,0.,1.67346162251018E-16));
#344=DIRECTION('',(0.,0.,-1.));
#345=DIRECTION('',(1.,0.,0.));
#346=DIRECTION('',(0.,0.,1.));
#347=DIRECTION('',(1.,0.,0.));
#348=DIRECTION('',(0.,0.,1.));
#349=DIRECTION('',(1.,0.,0.));
#350=DIRECTION('',(0.,0.,1.));
#351=DIRECTION('',(1.,0.,0.));
#352=DIRECTION('',(0.,0.,1.));
#353=DIRECTION('',(1.,0.,0.));
#354=DIRECTION('',(0.,0.,1.));
#355=DIRECTION('',(1.,0.,0.));
#356=DIRECTION('',(0.,0.,1.));
#357=DIRECTION('',(1.,0.,1.44019382166867E-16));
#358=DIRECTION('',(0.,0.,1.));
#359=DIRECTION('',(1.,0.,0.));
#360=DIRECTION('',(0.,0.,1.));
#361=DIRECTION('',(1.,0.,0.));
#362=DIRECTION('',(0.,0.,1.));
#363=DIRECTION('',(1.,0.,0.));
#364=DIRECTION('',(0.,0.,-1.));
#365=DIRECTION('',(-1.,0.,7.94793624451487E-17));
#366=DIRECTION('',(0.,0.,1.));
#367=DIRECTION('',(1.,0.,0.));
#368=DIRECTION('',(0.,0.,1.));
#369=DIRECTION('',(1.,0.,0.));
#370=DIRECTION('',(0.,0.,1.));
#371=DIRECTION('',(1.,0.,0.));
#372=DIRECTION('',(0.,0.,-1.));
#373=DIRECTION('',(-1.,0.,2.37597846346061E-17));
#374=DIRECTION('',(0.,0.,1.));
#375=DIRECTION('',(1.,0.,0.));
#376=DIRECTION('',(0.,0.,1.));
#377=DIRECTION('',(1.,0.,0.));
#378=DIRECTION('',(0.,0.,-1.));
#379=DIRECTION('',(-1.,0.,0.));
#380=DIRECTION('',(0.,0.,-1.));
#381=DIRECTION('',(-1.,0.,-6.16733287439279E-18));
#382=DIRECTION('',(0.,0.,1.));
#383=DIRECTION('',(1.,0.,0.));
#384=DIRECTION('',(0.,0.,1.));
#385=DIRECTION('',(1.,0.,0.));
#386=CARTESIAN_POINT('',(0.,0.,0.));
#387=CARTESIAN_POINT('',(-1.86729985114454E-16,0.,-89.61));
#388=CARTESIAN_POINT('',(-1.86729985114454E-16,0.,-89.61));
#389=CARTESIAN_POINT('',(3.35825301049439,0.,-89.61));
#390=CARTESIAN_POINT('',(-1.86729985114454E-16,0.,-90.1594));
#391=CARTESIAN_POINT('',(-1.86729985114454E-16,0.,-90.1594));
#392=CARTESIAN_POINT('',(2.99197874434386,0.,-90.1594));
#393=CARTESIAN_POINT('',(-1.86729985114454E-16,0.,-92.5012787443439));
#394=CARTESIAN_POINT('',(-1.86729985114454E-16,0.,-89.8263787443439));
#395=CARTESIAN_POINT('',(3.32499999999999,0.,-89.8263787443439));
#396=CARTESIAN_POINT('',(-1.86729985114454E-16,0.,-89.8263787443439));
#397=CARTESIAN_POINT('',(0.,0.,0.));
#398=CARTESIAN_POINT('',(-1.86729985114454E-16,0.,-72.8528270070603));
#399=CARTESIAN_POINT('',(-1.86729985114454E-16,0.,-72.8528270070603));
#400=CARTESIAN_POINT('',(3.83037680930689,0.,-72.8528270070603));
#401=CARTESIAN_POINT('',(-1.86729985114454E-16,0.,-89.8263787443439));
#402=CARTESIAN_POINT('',(-1.86729985114454E-16,0.,-89.61));
#403=CARTESIAN_POINT('',(3.35825301049439,0.,-89.61));
#404=CARTESIAN_POINT('',(-1.86729985114454E-16,0.,-85.2063787443439));
#405=CARTESIAN_POINT('',(4.035,0.,-85.2063787443439));
#406=CARTESIAN_POINT('',(-1.86729985114454E-16,0.,-92.5013787443438));
#407=CARTESIAN_POINT('',(-1.86729985114454E-16,0.,-73.2072447697477));
#408=CARTESIAN_POINT('',(4.035,0.,-73.2072447697477));
#409=CARTESIAN_POINT('',(-1.86729985114454E-16,0.,-71.6746118558568));
#410=CARTESIAN_POINT('',(-1.86729985114454E-16,0.,-89.61));
#411=CARTESIAN_POINT('',(0.,0.,0.));
#412=CARTESIAN_POINT('',(-1.86729985114454E-16,0.,-71.6746118558568));
#413=CARTESIAN_POINT('',(-1.86729985114454E-16,0.,-72.8528270070603));
#414=CARTESIAN_POINT('',(3.83037680930689,0.,-72.8528270070603));
#415=CARTESIAN_POINT('',(-1.86729985114454E-16,0.,-71.6746118558568));
#416=CARTESIAN_POINT('',(3.15006698729811,0.,-71.6743618558568));
#417=CARTESIAN_POINT('',(-1.86729985114454E-16,0.,-71.6741118558568));
#418=CARTESIAN_POINT('',(-1.86729985114454E-16,0.,-71.6741118558568));
#419=CARTESIAN_POINT('',(-1.86729985114454E-16,0.,-92.5013787443438));
#420=CARTESIAN_POINT('',(-1.86729985114454E-16,0.,-55.2071118558567));
#421=CARTESIAN_POINT('',(3.15,0.,-55.2071118558567));
#422=CARTESIAN_POINT('',(-1.86729985114454E-16,0.,-49.1590475918302));
#423=CARTESIAN_POINT('',(-1.86729985114454E-16,0.,-49.1590475918302));
#424=CARTESIAN_POINT('',(4.,0.,-49.1590475918302));
#425=CARTESIAN_POINT('',(-1.86729985114454E-16,0.,-92.5013787443438));
#426=CARTESIAN_POINT('',(-1.86729985114454E-16,0.,-11.3594));
#427=CARTESIAN_POINT('',(3.99999999999999,0.,-11.3594));
#428=CARTESIAN_POINT('',(-1.86729985114454E-16,0.,-11.3594));
#429=CARTESIAN_POINT('',(-1.86729985114454E-16,0.,-11.2594));
#430=CARTESIAN_POINT('',(3.9,0.,-11.2594));
#431=CARTESIAN_POINT('',(-1.86729985114454E-16,0.,-92.5013787443438));
#432=CARTESIAN_POINT('',(-1.86729985114454E-16,0.,-1.7094));
#433=CARTESIAN_POINT('',(3.9,0.,-1.7094));
#434=CARTESIAN_POINT('',(-1.86729985114454E-16,0.,-1.7094));
#435=CARTESIAN_POINT('',(-1.86729985114454E-16,0.,-0.1594));
#436=CARTESIAN_POINT('',(2.35,0.,-0.1594));
#437=CARTESIAN_POINT('',(-1.86729985114454E-16,1.6,1.74212525137437E-5));
#438=CARTESIAN_POINT('',(-1.86729985114454E-16,0.,1.74212525143943E-5));
#439=CARTESIAN_POINT('',(-1.6,0.,1.74212525143943E-5));
#440=CARTESIAN_POINT('',(-1.86729985114454E-16,0.,-0.159400000000003));
#441=CARTESIAN_POINT('',(-1.86729985114454E-16,0.,-72.8528270070603));
#442=CARTESIAN_POINT('',(0.,0.,0.));
#443=MECHANICAL_DESIGN_GEOMETRIC_PRESENTATION_REPRESENTATION('',(#229,#230,
#231),#444);
#444=(
GEOMETRIC_REPRESENTATION_CONTEXT(3)
GLOBAL_UNCERTAINTY_ASSIGNED_CONTEXT((#448))
GLOBAL_UNIT_ASSIGNED_CONTEXT((#454,#453,#452))
REPRESENTATION_CONTEXT('2519 8.000','TOP_LEVEL_ASSEMBLY_PART')
);
#445=(
GEOMETRIC_REPRESENTATION_CONTEXT(3)
GLOBAL_UNCERTAINTY_ASSIGNED_CONTEXT((#449))
GLOBAL_UNIT_ASSIGNED_CONTEXT((#454,#453,#452))
REPRESENTATION_CONTEXT('2519 8.000_PART1','COMPONENT_PART')
);
#446=(
GEOMETRIC_REPRESENTATION_CONTEXT(3)
GLOBAL_UNCERTAINTY_ASSIGNED_CONTEXT((#450))
GLOBAL_UNIT_ASSIGNED_CONTEXT((#454,#453,#452))
REPRESENTATION_CONTEXT('2519 8.000_PART2','COMPONENT_PART')
);
#447=(
GEOMETRIC_REPRESENTATION_CONTEXT(3)
GLOBAL_UNCERTAINTY_ASSIGNED_CONTEXT((#451))
GLOBAL_UNIT_ASSIGNED_CONTEXT((#454,#453,#452))
REPRESENTATION_CONTEXT('2519 8.000_PART3','COMPONENT_PART')
);
#448=UNCERTAINTY_MEASURE_WITH_UNIT(LENGTH_MEASURE(1.E-5),#454,
'DISTANCE_ACCURACY_VALUE','Maximum Tolerance applied to model');
#449=UNCERTAINTY_MEASURE_WITH_UNIT(LENGTH_MEASURE(1.E-5),#454,
'DISTANCE_ACCURACY_VALUE','Maximum Tolerance applied to model');
#450=UNCERTAINTY_MEASURE_WITH_UNIT(LENGTH_MEASURE(1.E-5),#454,
'DISTANCE_ACCURACY_VALUE','Maximum Tolerance applied to model');
#451=UNCERTAINTY_MEASURE_WITH_UNIT(LENGTH_MEASURE(1.E-5),#454,
'DISTANCE_ACCURACY_VALUE','Maximum Tolerance applied to model');
#452=(
NAMED_UNIT(*)
SI_UNIT($,.STERADIAN.)
SOLID_ANGLE_UNIT()
);
#453=(
NAMED_UNIT(*)
PLANE_ANGLE_UNIT()
SI_UNIT($,.RADIAN.)
);
#454=(
LENGTH_UNIT()
NAMED_UNIT(*)
SI_UNIT(.MILLI.,.METRE.)
);
#455=PRODUCT_DEFINITION_SHAPE('','',#462);
#456=PRODUCT_DEFINITION_SHAPE('','',#463);
#457=PRODUCT_DEFINITION_SHAPE(' ','NAUO PRDDFN',#26);
#458=PRODUCT_DEFINITION_SHAPE('','',#464);
#459=PRODUCT_DEFINITION_SHAPE(' ','NAUO PRDDFN',#27);
#460=PRODUCT_DEFINITION_SHAPE('','',#465);
#461=PRODUCT_DEFINITION_SHAPE(' ','NAUO PRDDFN',#28);
#462=PRODUCT_DEFINITION('','',#470,#466);
#463=PRODUCT_DEFINITION('','',#471,#467);
#464=PRODUCT_DEFINITION('','',#472,#468);
#465=PRODUCT_DEFINITION('','',#473,#469);
#466=PRODUCT_DEFINITION_CONTEXT('',#491,'design');
#467=PRODUCT_DEFINITION_CONTEXT('',#491,'design');
#468=PRODUCT_DEFINITION_CONTEXT('',#491,'design');
#469=PRODUCT_DEFINITION_CONTEXT('',#491,'design');
#470=PRODUCT_DEFINITION_FORMATION_WITH_SPECIFIED_SOURCE('','',#478,
 .NOT_KNOWN.);
#471=PRODUCT_DEFINITION_FORMATION_WITH_SPECIFIED_SOURCE('','',#479,
 .NOT_KNOWN.);
#472=PRODUCT_DEFINITION_FORMATION_WITH_SPECIFIED_SOURCE('','',#480,
 .NOT_KNOWN.);
#473=PRODUCT_DEFINITION_FORMATION_WITH_SPECIFIED_SOURCE('','',#481,
 .NOT_KNOWN.);
#474=PRODUCT_RELATED_PRODUCT_CATEGORY('','',(#478));
#475=PRODUCT_RELATED_PRODUCT_CATEGORY('','',(#479));
#476=PRODUCT_RELATED_PRODUCT_CATEGORY('','',(#480));
#477=PRODUCT_RELATED_PRODUCT_CATEGORY('','',(#481));
#478=PRODUCT('2519 8.000','2519 8.000','2519 8.000',(#486));
#479=PRODUCT('2519 8.000_PART1','2519 8.000_PART1','2519 8.000_PART1',(#487));
#480=PRODUCT('2519 8.000_PART2','2519 8.000_PART2','2519 8.000_PART2',(#488));
#481=PRODUCT('2519 8.000_PART3','2519 8.000_PART3','2519 8.000_PART3',(#489));
#482=PRODUCT_CATEGORY('','');
#483=PRODUCT_CATEGORY('','');
#484=PRODUCT_CATEGORY('','');
#485=PRODUCT_CATEGORY('','');
#486=PRODUCT_CONTEXT('',#491,'mechanical');
#487=PRODUCT_CONTEXT('',#491,'mechanical');
#488=PRODUCT_CONTEXT('',#491,'mechanical');
#489=PRODUCT_CONTEXT('',#491,'mechanical');
#490=APPLICATION_PROTOCOL_DEFINITION('international standard',
'automotive_design',2010,#491);
#491=APPLICATION_CONTEXT(
'core data for automotive mechanical design processes');
ENDSEC;
END-ISO-10303-21;
