ISO-10303-21;
HEADER;
/* Generated by software containing ST-Developer
 * from STEP Tools, Inc. (www.steptools.com) 
 */
/* OPTION: using custom renumber hook */

FILE_DESCRIPTION(
/* description */ ('STEP AP214'),
/* implementation_level */ '2;1');

FILE_NAME(
/* name */ '2870 10.000',
/* time_stamp */ '2026-05-14T18:28:31+02:00',
/* author */ ('License CC BY-ND 4.0'),
/* organization */ ('CADENAS'),
/* preprocessor_version */ 'ST-DEVELOPER v20',
/* originating_system */ 'PARTsolutions',
/* authorisation */ '  ');

FILE_SCHEMA (('AUTOMOTIVE_DESIGN {1 0 10303 214 3 1 1}'));
ENDSEC;

DATA;
#10=PROPERTY_DEFINITION_REPRESENTATION(#14,#12);
#11=PROPERTY_DEFINITION_REPRESENTATION(#15,#13);
#12=REPRESENTATION('',(#16),#500);
#13=REPRESENTATION('',(#17),#500);
#14=PROPERTY_DEFINITION('pmi validation property','',#511);
#15=PROPERTY_DEFINITION('pmi validation property','',#511);
#16=VALUE_REPRESENTATION_ITEM('number of annotations',COUNT_MEASURE(0.));
#17=VALUE_REPRESENTATION_ITEM('number of views',COUNT_MEASURE(0.));
#18=CONTEXT_DEPENDENT_SHAPE_REPRESENTATION(#24,#513);
#19=CONTEXT_DEPENDENT_SHAPE_REPRESENTATION(#25,#515);
#20=CONTEXT_DEPENDENT_SHAPE_REPRESENTATION(#26,#517);
#21=NEXT_ASSEMBLY_USAGE_OCCURRENCE('NAUO1','2870 10.000_PART1',
'2870 10.000_PART1',#518,#519,'');
#22=NEXT_ASSEMBLY_USAGE_OCCURRENCE('NAUO2','2870 10.000_PART2',
'2870 10.000_PART2',#518,#520,'');
#23=NEXT_ASSEMBLY_USAGE_OCCURRENCE('NAUO3','2870 10.000_PART3',
'2870 10.000_PART3',#518,#521,'');
#24=(
REPRESENTATION_RELATIONSHIP(' ',' ',#290,#289)
REPRESENTATION_RELATIONSHIP_WITH_TRANSFORMATION(#27)
SHAPE_REPRESENTATION_RELATIONSHIP()
);
#25=(
REPRESENTATION_RELATIONSHIP(' ',' ',#291,#289)
REPRESENTATION_RELATIONSHIP_WITH_TRANSFORMATION(#28)
SHAPE_REPRESENTATION_RELATIONSHIP()
);
#26=(
REPRESENTATION_RELATIONSHIP(' ',' ',#292,#289)
REPRESENTATION_RELATIONSHIP_WITH_TRANSFORMATION(#29)
SHAPE_REPRESENTATION_RELATIONSHIP()
);
#27=ITEM_DEFINED_TRANSFORMATION(' ',' ',#293,#315);
#28=ITEM_DEFINED_TRANSFORMATION(' ',' ',#293,#327);
#29=ITEM_DEFINED_TRANSFORMATION(' ',' ',#293,#339);
#30=SHAPE_REPRESENTATION_RELATIONSHIP('','',#290,#33);
#31=SHAPE_REPRESENTATION_RELATIONSHIP('','',#291,#34);
#32=SHAPE_REPRESENTATION_RELATIONSHIP('','',#292,#35);
#33=ADVANCED_BREP_SHAPE_REPRESENTATION('',(#282),#501);
#34=ADVANCED_BREP_SHAPE_REPRESENTATION('',(#283),#502);
#35=ADVANCED_BREP_SHAPE_REPRESENTATION('',(#284),#503);
#36=TOROIDAL_SURFACE('',#312,3.491,0.001);
#37=CONICAL_SURFACE('',#301,3.4,0.7853981625);
#38=CONICAL_SURFACE('',#306,3.5,1.5533430325);
#39=CONICAL_SURFACE('',#310,3.5,0.7853981625);
#40=CONICAL_SURFACE('',#311,2.,1.361356815);
#41=CONICAL_SURFACE('',#314,3.490134,0.523598775);
#42=CONICAL_SURFACE('',#319,4.1,0.1669012678);
#43=CONICAL_SURFACE('',#321,3.490134,0.523598775);
#44=CONICAL_SURFACE('',#325,3.6854937,0.7853981625);
#45=CONICAL_SURFACE('',#331,3.6854937,0.7853981625);
#46=CONICAL_SURFACE('',#334,2.2,1.04719755);
#47=CONICAL_SURFACE('',#336,2.2,0.7853981625);
#48=CYLINDRICAL_SURFACE('',#298,3.4);
#49=CYLINDRICAL_SURFACE('',#303,3.49);
#50=CYLINDRICAL_SURFACE('',#308,3.5);
#51=CYLINDRICAL_SURFACE('',#316,5.035);
#52=CYLINDRICAL_SURFACE('',#328,0.001);
#53=ORIENTED_EDGE('',*,*,#93,.T.);
#54=ORIENTED_EDGE('',*,*,#94,.F.);
#55=ORIENTED_EDGE('',*,*,#95,.T.);
#56=ORIENTED_EDGE('',*,*,#96,.F.);
#57=ORIENTED_EDGE('',*,*,#96,.T.);
#58=ORIENTED_EDGE('',*,*,#97,.F.);
#59=ORIENTED_EDGE('',*,*,#98,.F.);
#60=ORIENTED_EDGE('',*,*,#99,.T.);
#61=ORIENTED_EDGE('',*,*,#100,.F.);
#62=ORIENTED_EDGE('',*,*,#98,.T.);
#63=ORIENTED_EDGE('',*,*,#100,.T.);
#64=ORIENTED_EDGE('',*,*,#101,.F.);
#65=ORIENTED_EDGE('',*,*,#101,.T.);
#66=ORIENTED_EDGE('',*,*,#95,.F.);
#67=ORIENTED_EDGE('',*,*,#97,.T.);
#68=ORIENTED_EDGE('',*,*,#94,.T.);
#69=ORIENTED_EDGE('',*,*,#102,.T.);
#70=ORIENTED_EDGE('',*,*,#99,.F.);
#71=ORIENTED_EDGE('',*,*,#102,.F.);
#72=ORIENTED_EDGE('',*,*,#93,.F.);
#73=ORIENTED_EDGE('',*,*,#103,.F.);
#74=ORIENTED_EDGE('',*,*,#104,.T.);
#75=ORIENTED_EDGE('',*,*,#105,.F.);
#76=ORIENTED_EDGE('',*,*,#104,.F.);
#77=ORIENTED_EDGE('',*,*,#106,.T.);
#78=ORIENTED_EDGE('',*,*,#103,.T.);
#79=ORIENTED_EDGE('',*,*,#107,.T.);
#80=ORIENTED_EDGE('',*,*,#105,.T.);
#81=ORIENTED_EDGE('',*,*,#107,.F.);
#82=ORIENTED_EDGE('',*,*,#106,.F.);
#83=ORIENTED_EDGE('',*,*,#108,.T.);
#84=ORIENTED_EDGE('',*,*,#109,.F.);
#85=ORIENTED_EDGE('',*,*,#110,.T.);
#86=ORIENTED_EDGE('',*,*,#111,.F.);
#87=ORIENTED_EDGE('',*,*,#112,.T.);
#88=ORIENTED_EDGE('',*,*,#111,.T.);
#89=ORIENTED_EDGE('',*,*,#112,.F.);
#90=ORIENTED_EDGE('',*,*,#108,.F.);
#91=ORIENTED_EDGE('',*,*,#109,.T.);
#92=ORIENTED_EDGE('',*,*,#110,.F.);
#93=EDGE_CURVE('',#113,#113,#131,.T.);
#94=EDGE_CURVE('',#114,#114,#132,.T.);
#95=EDGE_CURVE('',#115,#115,#133,.T.);
#96=EDGE_CURVE('',#116,#116,#134,.T.);
#97=EDGE_CURVE('',#117,#117,#135,.T.);
#98=EDGE_CURVE('',#118,#118,#136,.T.);
#99=EDGE_CURVE('',#119,#119,#137,.T.);
#100=EDGE_CURVE('',#120,#120,#138,.T.);
#101=EDGE_CURVE('',#121,#121,#139,.T.);
#102=EDGE_CURVE('',#119,#119,#140,.T.);
#103=EDGE_CURVE('',#122,#122,#141,.T.);
#104=EDGE_CURVE('',#123,#123,#142,.T.);
#105=EDGE_CURVE('',#124,#124,#143,.T.);
#106=EDGE_CURVE('',#125,#125,#144,.T.);
#107=EDGE_CURVE('',#126,#126,#145,.T.);
#108=EDGE_CURVE('',#127,#127,#146,.T.);
#109=EDGE_CURVE('',#127,#127,#147,.T.);
#110=EDGE_CURVE('',#128,#128,#148,.T.);
#111=EDGE_CURVE('',#129,#129,#149,.T.);
#112=EDGE_CURVE('',#130,#130,#150,.T.);
#113=VERTEX_POINT('',#437);
#114=VERTEX_POINT('',#440);
#115=VERTEX_POINT('',#443);
#116=VERTEX_POINT('',#445);
#117=VERTEX_POINT('',#448);
#118=VERTEX_POINT('',#451);
#119=VERTEX_POINT('',#453);
#120=VERTEX_POINT('',#456);
#121=VERTEX_POINT('',#459);
#122=VERTEX_POINT('',#468);
#123=VERTEX_POINT('',#470);
#124=VERTEX_POINT('',#473);
#125=VERTEX_POINT('',#476);
#126=VERTEX_POINT('',#479);
#127=VERTEX_POINT('',#485);
#128=VERTEX_POINT('',#489);
#129=VERTEX_POINT('',#491);
#130=VERTEX_POINT('',#494);
#131=CIRCLE('',#295,4.57790092914491);
#132=CIRCLE('',#297,0.0001);
#133=CIRCLE('',#299,3.4);
#134=CIRCLE('',#300,3.4);
#135=CIRCLE('',#302,2.);
#136=CIRCLE('',#304,3.49);
#137=CIRCLE('',#305,3.49);
#138=CIRCLE('',#307,3.5);
#139=CIRCLE('',#309,3.5);
#140=CIRCLE('',#313,3.49013399364875);
#141=CIRCLE('',#317,5.035);
#142=CIRCLE('',#318,5.035);
#143=CIRCLE('',#320,4.13549373303686);
#144=CIRCLE('',#322,4.57790092914491);
#145=CIRCLE('',#324,3.7390223);
#146=CIRCLE('',#329,0.001);
#147=CIRCLE('',#330,0.001);
#148=CIRCLE('',#332,3.7390223);
#149=CIRCLE('',#333,3.6854937);
#150=CIRCLE('',#335,2.2);
#151=EDGE_LOOP('',(#53));
#152=EDGE_LOOP('',(#54));
#153=EDGE_LOOP('',(#55));
#154=EDGE_LOOP('',(#56));
#155=EDGE_LOOP('',(#57));
#156=EDGE_LOOP('',(#58));
#157=EDGE_LOOP('',(#59));
#158=EDGE_LOOP('',(#60));
#159=EDGE_LOOP('',(#61));
#160=EDGE_LOOP('',(#62));
#161=EDGE_LOOP('',(#63));
#162=EDGE_LOOP('',(#64));
#163=EDGE_LOOP('',(#65));
#164=EDGE_LOOP('',(#66));
#165=EDGE_LOOP('',(#67));
#166=EDGE_LOOP('',(#68));
#167=EDGE_LOOP('',(#69,#70));
#168=EDGE_LOOP('',(#71));
#169=EDGE_LOOP('',(#72));
#170=EDGE_LOOP('',(#73));
#171=EDGE_LOOP('',(#74));
#172=EDGE_LOOP('',(#75));
#173=EDGE_LOOP('',(#76));
#174=EDGE_LOOP('',(#77));
#175=EDGE_LOOP('',(#78));
#176=EDGE_LOOP('',(#79));
#177=EDGE_LOOP('',(#80));
#178=EDGE_LOOP('',(#81));
#179=EDGE_LOOP('',(#82));
#180=EDGE_LOOP('',(#83,#84));
#181=EDGE_LOOP('',(#85));
#182=EDGE_LOOP('',(#86));
#183=EDGE_LOOP('',(#87));
#184=EDGE_LOOP('',(#88));
#185=EDGE_LOOP('',(#89));
#186=EDGE_LOOP('',(#90));
#187=EDGE_LOOP('',(#91));
#188=EDGE_LOOP('',(#92));
#189=FACE_BOUND('',#151,.T.);
#190=FACE_BOUND('',#152,.T.);
#191=FACE_BOUND('',#153,.T.);
#192=FACE_BOUND('',#154,.T.);
#193=FACE_BOUND('',#155,.T.);
#194=FACE_BOUND('',#156,.T.);
#195=FACE_BOUND('',#157,.T.);
#196=FACE_BOUND('',#158,.T.);
#197=FACE_BOUND('',#159,.T.);
#198=FACE_BOUND('',#160,.T.);
#199=FACE_BOUND('',#161,.T.);
#200=FACE_BOUND('',#162,.T.);
#201=FACE_BOUND('',#163,.T.);
#202=FACE_BOUND('',#164,.T.);
#203=FACE_BOUND('',#165,.T.);
#204=FACE_BOUND('',#166,.T.);
#205=FACE_BOUND('',#167,.T.);
#206=FACE_BOUND('',#168,.T.);
#207=FACE_BOUND('',#169,.T.);
#208=FACE_BOUND('',#170,.T.);
#209=FACE_BOUND('',#171,.T.);
#210=FACE_BOUND('',#172,.T.);
#211=FACE_BOUND('',#173,.T.);
#212=FACE_BOUND('',#174,.T.);
#213=FACE_BOUND('',#175,.T.);
#214=FACE_BOUND('',#176,.T.);
#215=FACE_BOUND('',#177,.T.);
#216=FACE_BOUND('',#178,.T.);
#217=FACE_BOUND('',#179,.T.);
#218=FACE_BOUND('',#180,.T.);
#219=FACE_BOUND('',#181,.T.);
#220=FACE_BOUND('',#182,.T.);
#221=FACE_BOUND('',#183,.T.);
#222=FACE_BOUND('',#184,.T.);
#223=FACE_BOUND('',#185,.T.);
#224=FACE_BOUND('',#186,.T.);
#225=FACE_BOUND('',#187,.T.);
#226=FACE_BOUND('',#188,.T.);
#227=PLANE('',#294);
#228=PLANE('',#296);
#229=PLANE('',#323);
#230=PLANE('',#326);
#231=PLANE('',#337);
#232=PLANE('',#338);
#233=ADVANCED_FACE('',(#189),#227,.F.);
#234=ADVANCED_FACE('',(#190),#228,.T.);
#235=ADVANCED_FACE('',(#191,#192),#48,.T.);
#236=ADVANCED_FACE('',(#193,#194),#37,.T.);
#237=ADVANCED_FACE('',(#195,#196),#49,.T.);
#238=ADVANCED_FACE('',(#197,#198),#38,.T.);
#239=ADVANCED_FACE('',(#199,#200),#50,.T.);
#240=ADVANCED_FACE('',(#201,#202),#39,.T.);
#241=ADVANCED_FACE('',(#203,#204),#40,.T.);
#242=ADVANCED_FACE('',(#205),#36,.F.);
#243=ADVANCED_FACE('',(#206,#207),#41,.T.);
#244=ADVANCED_FACE('',(#208,#209),#51,.T.);
#245=ADVANCED_FACE('',(#210,#211),#42,.T.);
#246=ADVANCED_FACE('',(#212,#213),#43,.T.);
#247=ADVANCED_FACE('',(#214),#229,.F.);
#248=ADVANCED_FACE('',(#215,#216),#44,.T.);
#249=ADVANCED_FACE('',(#217),#230,.T.);
#250=ADVANCED_FACE('',(#218),#52,.T.);
#251=ADVANCED_FACE('',(#219,#220),#45,.T.);
#252=ADVANCED_FACE('',(#221,#222),#46,.T.);
#253=ADVANCED_FACE('',(#223,#224),#47,.T.);
#254=ADVANCED_FACE('',(#225),#231,.F.);
#255=ADVANCED_FACE('',(#226),#232,.T.);
#256=CLOSED_SHELL('',(#233,#234,#235,#236,#237,#238,#239,#240,#241,#242,
#243));
#257=CLOSED_SHELL('',(#244,#245,#246,#247,#248,#249));
#258=CLOSED_SHELL('',(#250,#251,#252,#253,#254,#255));
#259=STYLED_ITEM('',(#262),#282);
#260=STYLED_ITEM('',(#263),#283);
#261=STYLED_ITEM('',(#264),#284);
#262=PRESENTATION_STYLE_ASSIGNMENT((#265));
#263=PRESENTATION_STYLE_ASSIGNMENT((#266));
#264=PRESENTATION_STYLE_ASSIGNMENT((#267));
#265=SURFACE_STYLE_USAGE(.BOTH.,#268);
#266=SURFACE_STYLE_USAGE(.BOTH.,#269);
#267=SURFACE_STYLE_USAGE(.BOTH.,#270);
#268=SURFACE_SIDE_STYLE('',(#271));
#269=SURFACE_SIDE_STYLE('',(#272));
#270=SURFACE_SIDE_STYLE('',(#273));
#271=SURFACE_STYLE_FILL_AREA(#274);
#272=SURFACE_STYLE_FILL_AREA(#275);
#273=SURFACE_STYLE_FILL_AREA(#276);
#274=FILL_AREA_STYLE('',(#277));
#275=FILL_AREA_STYLE('',(#278));
#276=FILL_AREA_STYLE('',(#279));
#277=FILL_AREA_STYLE_COLOUR('',#280);
#278=FILL_AREA_STYLE_COLOUR('',#281);
#279=FILL_AREA_STYLE_COLOUR('',#280);
#280=COLOUR_RGB('',0.4999923706,0.4999923706,0.4999923706);
#281=COLOUR_RGB('',0.8000000119,0.8000000119,0.8000000119);
#282=MANIFOLD_SOLID_BREP('1',#256);
#283=MANIFOLD_SOLID_BREP('1',#257);
#284=MANIFOLD_SOLID_BREP('1',#258);
#285=SHAPE_DEFINITION_REPRESENTATION(#511,#289);
#286=SHAPE_DEFINITION_REPRESENTATION(#512,#290);
#287=SHAPE_DEFINITION_REPRESENTATION(#514,#291);
#288=SHAPE_DEFINITION_REPRESENTATION(#516,#292);
#289=SHAPE_REPRESENTATION('2870 10.000',(#293,#315,#327,#339),#500);
#290=SHAPE_REPRESENTATION('2870 10.000_PART1',(#293),#501);
#291=SHAPE_REPRESENTATION('2870 10.000_PART2',(#293),#502);
#292=SHAPE_REPRESENTATION('2870 10.000_PART3',(#293),#503);
#293=AXIS2_PLACEMENT_3D('',#434,#340,#341);
#294=AXIS2_PLACEMENT_3D('',#435,#342,#343);
#295=AXIS2_PLACEMENT_3D('',#436,#344,#345);
#296=AXIS2_PLACEMENT_3D('',#438,#346,#347);
#297=AXIS2_PLACEMENT_3D('',#439,#348,#349);
#298=AXIS2_PLACEMENT_3D('',#441,#350,#351);
#299=AXIS2_PLACEMENT_3D('',#442,#352,#353);
#300=AXIS2_PLACEMENT_3D('',#444,#354,#355);
#301=AXIS2_PLACEMENT_3D('',#446,#356,#357);
#302=AXIS2_PLACEMENT_3D('',#447,#358,#359);
#303=AXIS2_PLACEMENT_3D('',#449,#360,#361);
#304=AXIS2_PLACEMENT_3D('',#450,#362,#363);
#305=AXIS2_PLACEMENT_3D('',#452,#364,#365);
#306=AXIS2_PLACEMENT_3D('',#454,#366,#367);
#307=AXIS2_PLACEMENT_3D('',#455,#368,#369);
#308=AXIS2_PLACEMENT_3D('',#457,#370,#371);
#309=AXIS2_PLACEMENT_3D('',#458,#372,#373);
#310=AXIS2_PLACEMENT_3D('',#460,#374,#375);
#311=AXIS2_PLACEMENT_3D('',#461,#376,#377);
#312=AXIS2_PLACEMENT_3D('',#462,#378,#379);
#313=AXIS2_PLACEMENT_3D('',#463,#380,#381);
#314=AXIS2_PLACEMENT_3D('',#464,#382,#383);
#315=AXIS2_PLACEMENT_3D('',#465,#384,#385);
#316=AXIS2_PLACEMENT_3D('',#466,#386,#387);
#317=AXIS2_PLACEMENT_3D('',#467,#388,#389);
#318=AXIS2_PLACEMENT_3D('',#469,#390,#391);
#319=AXIS2_PLACEMENT_3D('',#471,#392,#393);
#320=AXIS2_PLACEMENT_3D('',#472,#394,#395);
#321=AXIS2_PLACEMENT_3D('',#474,#396,#397);
#322=AXIS2_PLACEMENT_3D('',#475,#398,#399);
#323=AXIS2_PLACEMENT_3D('',#477,#400,#401);
#324=AXIS2_PLACEMENT_3D('',#478,#402,#403);
#325=AXIS2_PLACEMENT_3D('',#480,#404,#405);
#326=AXIS2_PLACEMENT_3D('',#481,#406,#407);
#327=AXIS2_PLACEMENT_3D('',#482,#408,#409);
#328=AXIS2_PLACEMENT_3D('',#483,#410,#411);
#329=AXIS2_PLACEMENT_3D('',#484,#412,#413);
#330=AXIS2_PLACEMENT_3D('',#486,#414,#415);
#331=AXIS2_PLACEMENT_3D('',#487,#416,#417);
#332=AXIS2_PLACEMENT_3D('',#488,#418,#419);
#333=AXIS2_PLACEMENT_3D('',#490,#420,#421);
#334=AXIS2_PLACEMENT_3D('',#492,#422,#423);
#335=AXIS2_PLACEMENT_3D('',#493,#424,#425);
#336=AXIS2_PLACEMENT_3D('',#495,#426,#427);
#337=AXIS2_PLACEMENT_3D('',#496,#428,#429);
#338=AXIS2_PLACEMENT_3D('',#497,#430,#431);
#339=AXIS2_PLACEMENT_3D('',#498,#432,#433);
#340=DIRECTION('',(0.,0.,1.));
#341=DIRECTION('',(1.,0.,0.));
#342=DIRECTION('',(0.,0.,1.));
#343=DIRECTION('',(1.,0.,0.));
#344=DIRECTION('',(0.,0.,-1.));
#345=DIRECTION('',(1.,0.,0.));
#346=DIRECTION('',(0.,0.,1.));
#347=DIRECTION('',(1.,0.,0.));
#348=DIRECTION('',(0.,0.,-1.));
#349=DIRECTION('',(-1.,0.,0.));
#350=DIRECTION('',(0.,0.,-1.));
#351=DIRECTION('',(1.,0.,0.));
#352=DIRECTION('',(0.,0.,1.));
#353=DIRECTION('',(1.,0.,0.));
#354=DIRECTION('',(0.,0.,1.));
#355=DIRECTION('',(1.,0.,0.));
#356=DIRECTION('',(2.55004696737671E-17,0.,-1.));
#357=DIRECTION('',(-1.,0.,-2.55004696737671E-17));
#358=DIRECTION('',(0.,0.,1.));
#359=DIRECTION('',(1.,0.,0.));
#360=DIRECTION('',(0.,0.,-1.));
#361=DIRECTION('',(1.,0.,0.));
#362=DIRECTION('',(0.,0.,1.));
#363=DIRECTION('',(1.,0.,0.));
#364=DIRECTION('',(0.,0.,1.));
#365=DIRECTION('',(1.,0.,0.));
#366=DIRECTION('',(-2.42222889188153E-19,0.,1.));
#367=DIRECTION('',(1.,0.,2.42222889188153E-19));
#368=DIRECTION('',(0.,0.,1.));
#369=DIRECTION('',(1.,0.,0.));
#370=DIRECTION('',(0.,0.,-1.));
#371=DIRECTION('',(1.,0.,0.));
#372=DIRECTION('',(0.,0.,1.));
#373=DIRECTION('',(1.,0.,0.));
#374=DIRECTION('',(-5.70462129618654E-17,0.,-1.));
#375=DIRECTION('',(-1.,0.,5.70462129618654E-17));
#376=DIRECTION('',(-1.00089837736825E-17,0.,-1.));
#377=DIRECTION('',(-1.,0.,1.00089837736825E-17));
#378=DIRECTION('',(0.,0.,1.));
#379=DIRECTION('',(1.,0.,0.));
#380=DIRECTION('',(0.,0.,1.));
#381=DIRECTION('',(1.,0.,0.));
#382=DIRECTION('',(0.,0.,-1.));
#383=DIRECTION('',(-1.,0.,0.));
#384=DIRECTION('',(0.,0.,1.));
#385=DIRECTION('',(1.,0.,0.));
#386=DIRECTION('',(0.,0.,-1.));
#387=DIRECTION('',(1.,0.,0.));
#388=DIRECTION('',(0.,0.,1.));
#389=DIRECTION('',(-1.,0.,0.));
#390=DIRECTION('',(0.,0.,1.));
#391=DIRECTION('',(1.,0.,0.));
#392=DIRECTION('',(0.,0.,1.));
#393=DIRECTION('',(1.,0.,0.));
#394=DIRECTION('',(0.,0.,-1.));
#395=DIRECTION('',(-1.,0.,0.));
#396=DIRECTION('',(0.,0.,-1.));
#397=DIRECTION('',(-1.,0.,0.));
#398=DIRECTION('',(0.,0.,-1.));
#399=DIRECTION('',(1.,0.,0.));
#400=DIRECTION('',(0.,0.,1.));
#401=DIRECTION('',(1.,0.,0.));
#402=DIRECTION('',(0.,0.,-1.));
#403=DIRECTION('',(1.,0.,0.));
#404=DIRECTION('',(-5.53073164633548E-17,0.,1.));
#405=DIRECTION('',(1.,0.,5.53073164633548E-17));
#406=DIRECTION('',(0.,0.,1.));
#407=DIRECTION('',(1.,0.,0.));
#408=DIRECTION('',(0.,0.,1.));
#409=DIRECTION('',(1.,0.,0.));
#410=DIRECTION('',(0.,0.,1.));
#411=DIRECTION('',(-1.,0.,0.));
#412=DIRECTION('',(0.,0.,-1.));
#413=DIRECTION('',(1.,0.,0.));
#414=DIRECTION('',(0.,0.,-1.));
#415=DIRECTION('',(1.,0.,0.));
#416=DIRECTION('',(-5.53073164633548E-17,0.,1.));
#417=DIRECTION('',(1.,0.,5.53073164633548E-17));
#418=DIRECTION('',(0.,0.,-1.));
#419=DIRECTION('',(1.,0.,0.));
#420=DIRECTION('',(0.,0.,-1.));
#421=DIRECTION('',(-1.,0.,0.));
#422=DIRECTION('',(-8.00218039239021E-18,0.,1.));
#423=DIRECTION('',(1.,0.,8.00218039239021E-18));
#424=DIRECTION('',(0.,0.,1.));
#425=DIRECTION('',(1.,0.,0.));
#426=DIRECTION('',(-1.38473236956839E-17,0.,1.));
#427=DIRECTION('',(1.,0.,1.38473236956839E-17));
#428=DIRECTION('',(0.,0.,1.));
#429=DIRECTION('',(1.,0.,0.));
#430=DIRECTION('',(0.,0.,1.));
#431=DIRECTION('',(1.,0.,0.));
#432=DIRECTION('',(0.,0.,1.));
#433=DIRECTION('',(1.,0.,0.));
#434=CARTESIAN_POINT('',(0.,0.,0.));
#435=CARTESIAN_POINT('',(-4.97985675484031E-16,0.,-79.8933604020764));
#436=CARTESIAN_POINT('',(-4.97985675484031E-16,0.,-79.8933604020764));
#437=CARTESIAN_POINT('',(4.57790092914491,0.,-79.8933604020764));
#438=CARTESIAN_POINT('',(-4.97985675484031E-16,0.,0.));
#439=CARTESIAN_POINT('',(-1.00004979856755E-11,0.,0.));
#440=CARTESIAN_POINT('',(9.9999989999502E-5,1.22464679914735E-20,0.));
#441=CARTESIAN_POINT('',(-4.97985675484031E-16,0.,-103.531078744344));
#442=CARTESIAN_POINT('',(-1.00004979856755E-11,0.,-10.62510000001));
#443=CARTESIAN_POINT('',(3.39999999999,0.,-10.62510000001));
#444=CARTESIAN_POINT('',(-1.00004979856755E-11,0.,-1.82510000001));
#445=CARTESIAN_POINT('',(3.39999999999,0.,-1.82510000001));
#446=CARTESIAN_POINT('',(-4.97985675484031E-16,0.,-1.8251));
#447=CARTESIAN_POINT('',(-1.00004979856755E-11,0.,-0.42510000001));
#448=CARTESIAN_POINT('',(1.99999999999,0.,-0.42510000001));
#449=CARTESIAN_POINT('',(-4.97985675484031E-16,0.,-103.531078744344));
#450=CARTESIAN_POINT('',(-1.00004979856755E-11,0.,-77.908792811411));
#451=CARTESIAN_POINT('',(3.48999999999,0.,-77.908792811411));
#452=CARTESIAN_POINT('',(-1.00004979856755E-11,0.,-78.008792811411));
#453=CARTESIAN_POINT('',(3.49006699999,0.,-78.009042811411));
#454=CARTESIAN_POINT('',(-4.97985675484031E-16,0.,-77.9086182607517));
#455=CARTESIAN_POINT('',(-1.00004979856755E-11,0.,-77.9086182607617));
#456=CARTESIAN_POINT('',(3.49999999999,0.,-77.9086182607617));
#457=CARTESIAN_POINT('',(-4.97985675484031E-16,0.,-103.531078744344));
#458=CARTESIAN_POINT('',(-1.00004979856755E-11,0.,-10.72510000001));
#459=CARTESIAN_POINT('',(3.49999999999,0.,-10.72510000001));
#460=CARTESIAN_POINT('',(-4.97985675484031E-16,0.,-10.7251));
#461=CARTESIAN_POINT('',(-4.97985675484031E-16,0.,-0.425100000000003));
#462=CARTESIAN_POINT('',(-4.97985675484031E-16,0.,-78.008792811401));
#463=CARTESIAN_POINT('',(-4.97985675484031E-16,0.,-78.0092928004003));
#464=CARTESIAN_POINT('',(-4.97985675484031E-16,0.,-78.009292811401));
#465=CARTESIAN_POINT('',(0.,0.,0.));
#466=CARTESIAN_POINT('',(-4.97985675484031E-16,0.,-103.531078744344));
#467=CARTESIAN_POINT('',(-4.97985675484031E-16,0.,-80.6850792179839));
#468=CARTESIAN_POINT('',(-5.035,0.,-80.6850792179839));
#469=CARTESIAN_POINT('',(-4.97985675484031E-16,0.,-94.6842132262287));
#470=CARTESIAN_POINT('',(5.035,0.,-94.6842132262287));
#471=CARTESIAN_POINT('',(-4.97985675484031E-16,0.,-100.234213232884));
#472=CARTESIAN_POINT('',(-5.22873969764393E-16,0.,-100.023528507118));
#473=CARTESIAN_POINT('',(-4.13549373303686,0.,-100.023528507118));
#474=CARTESIAN_POINT('',(-4.97985675484031E-16,0.,-78.009292811401));
#475=CARTESIAN_POINT('',(-4.97985675484031E-16,0.,-79.8933604020764));
#476=CARTESIAN_POINT('',(4.57790092914491,0.,-79.8933604020764));
#477=CARTESIAN_POINT('',(-4.97985675484031E-16,0.,-100.42));
#478=CARTESIAN_POINT('',(-1.00004979856755E-11,0.,-100.42000000001));
#479=CARTESIAN_POINT('',(3.73902229999,0.,-100.42000000001));
#480=CARTESIAN_POINT('',(-4.97985675484031E-16,0.,-100.473528540963));
#481=CARTESIAN_POINT('',(-4.97985675484031E-16,0.,-79.8933604020764));
#482=CARTESIAN_POINT('',(0.,0.,0.));
#483=CARTESIAN_POINT('',(-4.97985675484031E-16,0.,-103.531078744344));
#484=CARTESIAN_POINT('',(-1.00004979856755E-11,0.,-103.530178744354));
#485=CARTESIAN_POINT('',(-0.000500000005000483,-6.12323417943435E-20,-103.530678746323));
#486=CARTESIAN_POINT('',(-1.00004979856755E-11,0.,-103.531078744354));
#487=CARTESIAN_POINT('',(-4.97985675484031E-16,0.,-100.473528540963));
#488=CARTESIAN_POINT('',(-1.00004979856755E-11,0.,-100.42000000001));
#489=CARTESIAN_POINT('',(3.73902229999,0.,-100.42000000001));
#490=CARTESIAN_POINT('',(-1.00004979856755E-11,0.,-100.473528540973));
#491=CARTESIAN_POINT('',(-3.68549370001,0.,-100.473528540973));
#492=CARTESIAN_POINT('',(-4.97985675484031E-16,0.,-101.331178744344));
#493=CARTESIAN_POINT('',(-1.00004979856755E-11,0.,-101.331178744354));
#494=CARTESIAN_POINT('',(2.19999999999,0.,-101.331178744354));
#495=CARTESIAN_POINT('',(-4.97985675484031E-16,0.,-101.331178744344));
#496=CARTESIAN_POINT('',(-4.97985675484031E-16,4.18549372737763,-103.531078744344));
#497=CARTESIAN_POINT('',(-4.97985675484031E-16,0.,-100.42));
#498=CARTESIAN_POINT('',(0.,0.,0.));
#499=MECHANICAL_DESIGN_GEOMETRIC_PRESENTATION_REPRESENTATION('',(#259,#260,
#261),#500);
#500=(
GEOMETRIC_REPRESENTATION_CONTEXT(3)
GLOBAL_UNCERTAINTY_ASSIGNED_CONTEXT((#504))
GLOBAL_UNIT_ASSIGNED_CONTEXT((#510,#509,#508))
REPRESENTATION_CONTEXT('2870 10.000','TOP_LEVEL_ASSEMBLY_PART')
);
#501=(
GEOMETRIC_REPRESENTATION_CONTEXT(3)
GLOBAL_UNCERTAINTY_ASSIGNED_CONTEXT((#505))
GLOBAL_UNIT_ASSIGNED_CONTEXT((#510,#509,#508))
REPRESENTATION_CONTEXT('2870 10.000_PART1','COMPONENT_PART')
);
#502=(
GEOMETRIC_REPRESENTATION_CONTEXT(3)
GLOBAL_UNCERTAINTY_ASSIGNED_CONTEXT((#506))
GLOBAL_UNIT_ASSIGNED_CONTEXT((#510,#509,#508))
REPRESENTATION_CONTEXT('2870 10.000_PART2','COMPONENT_PART')
);
#503=(
GEOMETRIC_REPRESENTATION_CONTEXT(3)
GLOBAL_UNCERTAINTY_ASSIGNED_CONTEXT((#507))
GLOBAL_UNIT_ASSIGNED_CONTEXT((#510,#509,#508))
REPRESENTATION_CONTEXT('2870 10.000_PART3','COMPONENT_PART')
);
#504=UNCERTAINTY_MEASURE_WITH_UNIT(LENGTH_MEASURE(1.E-5),#510,
'DISTANCE_ACCURACY_VALUE','Maximum Tolerance applied to model');
#505=UNCERTAINTY_MEASURE_WITH_UNIT(LENGTH_MEASURE(1.E-5),#510,
'DISTANCE_ACCURACY_VALUE','Maximum Tolerance applied to model');
#506=UNCERTAINTY_MEASURE_WITH_UNIT(LENGTH_MEASURE(1.E-5),#510,
'DISTANCE_ACCURACY_VALUE','Maximum Tolerance applied to model');
#507=UNCERTAINTY_MEASURE_WITH_UNIT(LENGTH_MEASURE(1.E-5),#510,
'DISTANCE_ACCURACY_VALUE','Maximum Tolerance applied to model');
#508=(
NAMED_UNIT(*)
SI_UNIT($,.STERADIAN.)
SOLID_ANGLE_UNIT()
);
#509=(
NAMED_UNIT(*)
PLANE_ANGLE_UNIT()
SI_UNIT($,.RADIAN.)
);
#510=(
LENGTH_UNIT()
NAMED_UNIT(*)
SI_UNIT(.MILLI.,.METRE.)
);
#511=PRODUCT_DEFINITION_SHAPE('','',#518);
#512=PRODUCT_DEFINITION_SHAPE('','',#519);
#513=PRODUCT_DEFINITION_SHAPE(' ','NAUO PRDDFN',#21);
#514=PRODUCT_DEFINITION_SHAPE('','',#520);
#515=PRODUCT_DEFINITION_SHAPE(' ','NAUO PRDDFN',#22);
#516=PRODUCT_DEFINITION_SHAPE('','',#521);
#517=PRODUCT_DEFINITION_SHAPE(' ','NAUO PRDDFN',#23);
#518=PRODUCT_DEFINITION('','',#526,#522);
#519=PRODUCT_DEFINITION('','',#527,#523);
#520=PRODUCT_DEFINITION('','',#528,#524);
#521=PRODUCT_DEFINITION('','',#529,#525);
#522=PRODUCT_DEFINITION_CONTEXT('',#547,'design');
#523=PRODUCT_DEFINITION_CONTEXT('',#547,'design');
#524=PRODUCT_DEFINITION_CONTEXT('',#547,'design');
#525=PRODUCT_DEFINITION_CONTEXT('',#547,'design');
#526=PRODUCT_DEFINITION_FORMATION_WITH_SPECIFIED_SOURCE('','',#534,
 .NOT_KNOWN.);
#527=PRODUCT_DEFINITION_FORMATION_WITH_SPECIFIED_SOURCE('','',#535,
 .NOT_KNOWN.);
#528=PRODUCT_DEFINITION_FORMATION_WITH_SPECIFIED_SOURCE('','',#536,
 .NOT_KNOWN.);
#529=PRODUCT_DEFINITION_FORMATION_WITH_SPECIFIED_SOURCE('','',#537,
 .NOT_KNOWN.);
#530=PRODUCT_RELATED_PRODUCT_CATEGORY('','',(#534));
#531=PRODUCT_RELATED_PRODUCT_CATEGORY('','',(#535));
#532=PRODUCT_RELATED_PRODUCT_CATEGORY('','',(#536));
#533=PRODUCT_RELATED_PRODUCT_CATEGORY('','',(#537));
#534=PRODUCT('2870 10.000','2870 10.000','2870 10.000',(#542));
#535=PRODUCT('2870 10.000_PART1','2870 10.000_PART1',
'2870 10.000_PART1',(#543));
#536=PRODUCT('2870 10.000_PART2','2870 10.000_PART2',
'2870 10.000_PART2',(#544));
#537=PRODUCT('2870 10.000_PART3','2870 10.000_PART3',
'2870 10.000_PART3',(#545));
#538=PRODUCT_CATEGORY('','');
#539=PRODUCT_CATEGORY('','');
#540=PRODUCT_CATEGORY('','');
#541=PRODUCT_CATEGORY('','');
#542=PRODUCT_CONTEXT('',#547,'mechanical');
#543=PRODUCT_CONTEXT('',#547,'mechanical');
#544=PRODUCT_CONTEXT('',#547,'mechanical');
#545=PRODUCT_CONTEXT('',#547,'mechanical');
#546=APPLICATION_PROTOCOL_DEFINITION('international standard',
'automotive_design',2010,#547);
#547=APPLICATION_CONTEXT(
'core data for automotive mechanical design processes');
ENDSEC;
END-ISO-10303-21;
