ISO-10303-21;
HEADER;
/* Generated by software containing ST-Developer
 * from STEP Tools, Inc. (www.steptools.com) 
 */
/* OPTION: using custom renumber hook */

FILE_DESCRIPTION(
/* description */ ('STEP AP203'),
/* implementation_level */ '2;1');

FILE_NAME(
/* name */ '3018 3.000',
/* time_stamp */ '2026-05-15T14:40:31+02:00',
/* author */ ('License CC BY-ND 4.0'),
/* organization */ ('CADENAS'),
/* preprocessor_version */ 'ST-DEVELOPER v20',
/* originating_system */ 'PARTsolutions',
/* authorisation */ '  ');

FILE_SCHEMA (('CONFIG_CONTROL_DESIGN'));
ENDSEC;

DATA;
#10=PROPERTY_DEFINITION_REPRESENTATION(#14,#12);
#11=PROPERTY_DEFINITION_REPRESENTATION(#15,#13);
#12=REPRESENTATION('',(#16),#244);
#13=REPRESENTATION('',(#17),#244);
#14=PROPERTY_DEFINITION('pmi validation property','',#253);
#15=PROPERTY_DEFINITION('pmi validation property','',#253);
#16=VALUE_REPRESENTATION_ITEM('number of annotations',COUNT_MEASURE(0.));
#17=VALUE_REPRESENTATION_ITEM('number of views',COUNT_MEASURE(0.));
#18=CONICAL_SURFACE('',#153,1.5,1.55334303426814);
#19=CONICAL_SURFACE('',#157,1.49899999999999,0.0465828377357295);
#20=CONICAL_SURFACE('',#163,3.,0.785398163397448);
#21=CONTEXT_DEPENDENT_SHAPE_REPRESENTATION(#25,#255);
#22=CONTEXT_DEPENDENT_SHAPE_REPRESENTATION(#26,#257);
#23=NEXT_ASSEMBLY_USAGE_OCCURRENCE('NAUO1','3018 3.000_PART1',
'3018 3.000_PART1',#258,#259,'');
#24=NEXT_ASSEMBLY_USAGE_OCCURRENCE('NAUO2','3018 3.000_PART2',
'3018 3.000_PART2',#258,#260,'');
#25=(
REPRESENTATION_RELATIONSHIP(' ',' ',#141,#140)
REPRESENTATION_RELATIONSHIP_WITH_TRANSFORMATION(#27)
SHAPE_REPRESENTATION_RELATIONSHIP()
);
#26=(
REPRESENTATION_RELATIONSHIP(' ',' ',#142,#140)
REPRESENTATION_RELATIONSHIP_WITH_TRANSFORMATION(#28)
SHAPE_REPRESENTATION_RELATIONSHIP()
);
#27=ITEM_DEFINED_TRANSFORMATION(' ',' ',#143,#149);
#28=ITEM_DEFINED_TRANSFORMATION(' ',' ',#143,#165);
#29=SHAPE_REPRESENTATION_RELATIONSHIP('','',#141,#31);
#30=SHAPE_REPRESENTATION_RELATIONSHIP('','',#142,#32);
#31=ADVANCED_BREP_SHAPE_REPRESENTATION('',(#135),#245);
#32=ADVANCED_BREP_SHAPE_REPRESENTATION('',(#136),#246);
#33=CYLINDRICAL_SURFACE('',#148,1.5);
#34=CYLINDRICAL_SURFACE('',#150,1.5);
#35=CYLINDRICAL_SURFACE('',#155,1.49899999999999);
#36=CYLINDRICAL_SURFACE('',#161,3.);
#37=SPHERICAL_SURFACE('',#146,1.5);
#38=ORIENTED_EDGE('',*,*,#56,.F.);
#39=ORIENTED_EDGE('',*,*,#57,.F.);
#40=ORIENTED_EDGE('',*,*,#57,.T.);
#41=ORIENTED_EDGE('',*,*,#56,.T.);
#42=ORIENTED_EDGE('',*,*,#58,.F.);
#43=ORIENTED_EDGE('',*,*,#59,.T.);
#44=ORIENTED_EDGE('',*,*,#60,.T.);
#45=ORIENTED_EDGE('',*,*,#59,.F.);
#46=ORIENTED_EDGE('',*,*,#61,.T.);
#47=ORIENTED_EDGE('',*,*,#60,.F.);
#48=ORIENTED_EDGE('',*,*,#62,.F.);
#49=ORIENTED_EDGE('',*,*,#61,.F.);
#50=ORIENTED_EDGE('',*,*,#63,.T.);
#51=ORIENTED_EDGE('',*,*,#64,.T.);
#52=ORIENTED_EDGE('',*,*,#62,.T.);
#53=ORIENTED_EDGE('',*,*,#63,.F.);
#54=ORIENTED_EDGE('',*,*,#64,.F.);
#55=ORIENTED_EDGE('',*,*,#58,.T.);
#56=EDGE_CURVE('',#65,#65,#74,.T.);
#57=EDGE_CURVE('',#66,#66,#75,.T.);
#58=EDGE_CURVE('',#67,#67,#76,.T.);
#59=EDGE_CURVE('',#68,#68,#77,.T.);
#60=EDGE_CURVE('',#69,#69,#78,.T.);
#61=EDGE_CURVE('',#70,#70,#79,.T.);
#62=EDGE_CURVE('',#71,#71,#80,.T.);
#63=EDGE_CURVE('',#72,#72,#81,.T.);
#64=EDGE_CURVE('',#73,#73,#82,.T.);
#65=VERTEX_POINT('',#215);
#66=VERTEX_POINT('',#218);
#67=VERTEX_POINT('',#223);
#68=VERTEX_POINT('',#225);
#69=VERTEX_POINT('',#228);
#70=VERTEX_POINT('',#231);
#71=VERTEX_POINT('',#234);
#72=VERTEX_POINT('',#237);
#73=VERTEX_POINT('',#240);
#74=CIRCLE('',#145,1.5);
#75=CIRCLE('',#147,1.5);
#76=CIRCLE('',#151,1.5);
#77=CIRCLE('',#152,1.5);
#78=CIRCLE('',#154,1.49899999999999);
#79=CIRCLE('',#156,1.49899999999999);
#80=CIRCLE('',#158,3.);
#81=CIRCLE('',#160,2.4);
#82=CIRCLE('',#162,3.);
#83=EDGE_LOOP('',(#38));
#84=EDGE_LOOP('',(#39));
#85=EDGE_LOOP('',(#40));
#86=EDGE_LOOP('',(#41));
#87=EDGE_LOOP('',(#42));
#88=EDGE_LOOP('',(#43));
#89=EDGE_LOOP('',(#44));
#90=EDGE_LOOP('',(#45));
#91=EDGE_LOOP('',(#46));
#92=EDGE_LOOP('',(#47));
#93=EDGE_LOOP('',(#48));
#94=EDGE_LOOP('',(#49));
#95=EDGE_LOOP('',(#50));
#96=EDGE_LOOP('',(#51));
#97=EDGE_LOOP('',(#52));
#98=EDGE_LOOP('',(#53));
#99=EDGE_LOOP('',(#54));
#100=EDGE_LOOP('',(#55));
#101=FACE_BOUND('',#83,.T.);
#102=FACE_BOUND('',#84,.T.);
#103=FACE_BOUND('',#85,.T.);
#104=FACE_BOUND('',#86,.T.);
#105=FACE_BOUND('',#87,.T.);
#106=FACE_BOUND('',#88,.T.);
#107=FACE_BOUND('',#89,.T.);
#108=FACE_BOUND('',#90,.T.);
#109=FACE_BOUND('',#91,.T.);
#110=FACE_BOUND('',#92,.T.);
#111=FACE_BOUND('',#93,.T.);
#112=FACE_BOUND('',#94,.T.);
#113=FACE_BOUND('',#95,.T.);
#114=FACE_BOUND('',#96,.T.);
#115=FACE_BOUND('',#97,.T.);
#116=FACE_BOUND('',#98,.T.);
#117=FACE_BOUND('',#99,.T.);
#118=FACE_BOUND('',#100,.T.);
#119=PLANE('',#144);
#120=PLANE('',#159);
#121=PLANE('',#164);
#122=ADVANCED_FACE('',(#101),#119,.T.);
#123=ADVANCED_FACE('',(#102),#37,.T.);
#124=ADVANCED_FACE('',(#103,#104),#33,.T.);
#125=ADVANCED_FACE('',(#105,#106),#34,.T.);
#126=ADVANCED_FACE('',(#107,#108),#18,.T.);
#127=ADVANCED_FACE('',(#109,#110),#35,.T.);
#128=ADVANCED_FACE('',(#111,#112),#19,.T.);
#129=ADVANCED_FACE('',(#113),#120,.T.);
#130=ADVANCED_FACE('',(#114,#115),#36,.T.);
#131=ADVANCED_FACE('',(#116,#117),#20,.T.);
#132=ADVANCED_FACE('',(#118),#121,.F.);
#133=CLOSED_SHELL('',(#122,#123,#124));
#134=CLOSED_SHELL('',(#125,#126,#127,#128,#129,#130,#131,#132));
#135=MANIFOLD_SOLID_BREP('solid',#133);
#136=MANIFOLD_SOLID_BREP('solid',#134);
#137=SHAPE_DEFINITION_REPRESENTATION(#253,#140);
#138=SHAPE_DEFINITION_REPRESENTATION(#254,#141);
#139=SHAPE_DEFINITION_REPRESENTATION(#256,#142);
#140=SHAPE_REPRESENTATION('3018 3.000',(#143,#149,#165),#244);
#141=SHAPE_REPRESENTATION('3018 3.000_PART1',(#143),#245);
#142=SHAPE_REPRESENTATION('3018 3.000_PART2',(#143),#246);
#143=AXIS2_PLACEMENT_3D('',#212,#166,#167);
#144=AXIS2_PLACEMENT_3D('',#213,#168,#169);
#145=AXIS2_PLACEMENT_3D('',#214,#170,#171);
#146=AXIS2_PLACEMENT_3D('',#216,#172,#173);
#147=AXIS2_PLACEMENT_3D('',#217,#174,#175);
#148=AXIS2_PLACEMENT_3D('',#219,#176,#177);
#149=AXIS2_PLACEMENT_3D('',#220,#178,#179);
#150=AXIS2_PLACEMENT_3D('',#221,#180,#181);
#151=AXIS2_PLACEMENT_3D('',#222,#182,#183);
#152=AXIS2_PLACEMENT_3D('',#224,#184,#185);
#153=AXIS2_PLACEMENT_3D('',#226,#186,#187);
#154=AXIS2_PLACEMENT_3D('',#227,#188,#189);
#155=AXIS2_PLACEMENT_3D('',#229,#190,#191);
#156=AXIS2_PLACEMENT_3D('',#230,#192,#193);
#157=AXIS2_PLACEMENT_3D('',#232,#194,#195);
#158=AXIS2_PLACEMENT_3D('',#233,#196,#197);
#159=AXIS2_PLACEMENT_3D('',#235,#198,#199);
#160=AXIS2_PLACEMENT_3D('',#236,#200,#201);
#161=AXIS2_PLACEMENT_3D('',#238,#202,#203);
#162=AXIS2_PLACEMENT_3D('',#239,#204,#205);
#163=AXIS2_PLACEMENT_3D('',#241,#206,#207);
#164=AXIS2_PLACEMENT_3D('',#242,#208,#209);
#165=AXIS2_PLACEMENT_3D('',#243,#210,#211);
#166=DIRECTION('',(0.,0.,1.));
#167=DIRECTION('',(1.,0.,0.));
#168=DIRECTION('',(0.,0.,1.));
#169=DIRECTION('',(1.,0.,0.));
#170=DIRECTION('',(0.,0.,-1.));
#171=DIRECTION('',(1.,0.,0.));
#172=DIRECTION('',(0.,1.55971371392048E-16,1.));
#173=DIRECTION('',(0.,1.,0.));
#174=DIRECTION('',(0.,9.473903143468E-17,1.));
#175=DIRECTION('',(0.,1.,0.));
#176=DIRECTION('',(0.,0.,-1.));
#177=DIRECTION('',(0.,-1.,0.));
#178=DIRECTION('',(0.,0.,1.));
#179=DIRECTION('',(1.,0.,0.));
#180=DIRECTION('',(0.,0.,-1.));
#181=DIRECTION('',(0.,-1.,0.));
#182=DIRECTION('',(0.,0.,-1.));
#183=DIRECTION('',(1.,0.,0.));
#184=DIRECTION('',(0.,3.64380890133385E-16,-1.));
#185=DIRECTION('',(0.,-1.,0.));
#186=DIRECTION('',(0.,0.,-1.));
#187=DIRECTION('',(0.,-1.,0.));
#188=DIRECTION('',(0.,3.64380890133385E-16,-1.));
#189=DIRECTION('',(0.,-1.,0.));
#190=DIRECTION('',(0.,0.,-1.));
#191=DIRECTION('',(0.,-1.,0.));
#192=DIRECTION('',(0.,3.64380890133385E-16,-1.));
#193=DIRECTION('',(0.,-1.,0.));
#194=DIRECTION('',(0.,0.,1.));
#195=DIRECTION('',(0.,1.,0.));
#196=DIRECTION('',(0.,0.,1.));
#197=DIRECTION('',(1.,0.,0.));
#198=DIRECTION('',(0.,0.,1.));
#199=DIRECTION('',(1.,0.,0.));
#200=DIRECTION('',(0.,0.,1.));
#201=DIRECTION('',(1.,0.,0.));
#202=DIRECTION('',(0.,0.,-1.));
#203=DIRECTION('',(-1.,0.,0.));
#204=DIRECTION('',(0.,0.,-1.));
#205=DIRECTION('',(1.,0.,0.));
#206=DIRECTION('',(0.,0.,-1.));
#207=DIRECTION('',(-1.,0.,6.68032844063851E-17));
#208=DIRECTION('',(0.,0.,1.));
#209=DIRECTION('',(1.,0.,0.));
#210=DIRECTION('',(0.,0.,1.));
#211=DIRECTION('',(1.,0.,0.));
#212=CARTESIAN_POINT('',(0.,0.,0.));
#213=CARTESIAN_POINT('',(0.,0.,-71.));
#214=CARTESIAN_POINT('',(0.,-8.56295091813454E-15,-71.));
#215=CARTESIAN_POINT('',(1.5,-8.56295091813454E-15,-71.));
#216=CARTESIAN_POINT('',(0.,-9.16226159269603E-15,-73.5));
#217=CARTESIAN_POINT('',(0.,-6.96331881044898E-15,-73.5));
#218=CARTESIAN_POINT('',(0.,1.49999999999999,-73.5));
#219=CARTESIAN_POINT('',(0.,-2.1316282072803E-14,-36.));
#220=CARTESIAN_POINT('',(0.,0.,0.));
#221=CARTESIAN_POINT('',(0.,-2.1316282072803E-14,-36.));
#222=CARTESIAN_POINT('',(0.,-8.56295091813454E-15,-71.));
#223=CARTESIAN_POINT('',(1.5,-8.56295091813454E-15,-71.));
#224=CARTESIAN_POINT('',(0.,-9.57998366380792E-15,-68.2088746330767));
#225=CARTESIAN_POINT('',(0.,-1.50000000000001,-68.2088746330767));
#226=CARTESIAN_POINT('',(0.,-9.57998366380792E-15,-68.2088746330767));
#227=CARTESIAN_POINT('',(0.,-9.57999002410002E-15,-68.2088571780118));
#228=CARTESIAN_POINT('',(0.,-1.499,-68.2088571780118));
#229=CARTESIAN_POINT('',(0.,-2.1316282072803E-14,-36.));
#230=CARTESIAN_POINT('',(0.,-9.58363383300144E-15,-68.1988571780115));
#231=CARTESIAN_POINT('',(0.,-1.499,-68.1988571780115));
#232=CARTESIAN_POINT('',(0.,-9.58363383300144E-15,-68.1988571780115));
#233=CARTESIAN_POINT('',(0.,0.,-36.));
#234=CARTESIAN_POINT('',(3.,0.,-36.));
#235=CARTESIAN_POINT('',(0.,0.,0.));
#236=CARTESIAN_POINT('',(0.,0.,0.));
#237=CARTESIAN_POINT('',(2.4,0.,0.));
#238=CARTESIAN_POINT('',(0.,0.,0.));
#239=CARTESIAN_POINT('',(0.,0.,-0.600000000000001));
#240=CARTESIAN_POINT('',(3.,0.,-0.600000000000001));
#241=CARTESIAN_POINT('',(0.,0.,-0.600000000000001));
#242=CARTESIAN_POINT('',(0.,0.,-71.));
#243=CARTESIAN_POINT('',(0.,0.,0.));
#244=(
GEOMETRIC_REPRESENTATION_CONTEXT(3)
GLOBAL_UNCERTAINTY_ASSIGNED_CONTEXT((#247))
GLOBAL_UNIT_ASSIGNED_CONTEXT((#252,#251,#250))
REPRESENTATION_CONTEXT('3018 3.000','TOP_LEVEL_ASSEMBLY_PART')
);
#245=(
GEOMETRIC_REPRESENTATION_CONTEXT(3)
GLOBAL_UNCERTAINTY_ASSIGNED_CONTEXT((#248))
GLOBAL_UNIT_ASSIGNED_CONTEXT((#252,#251,#250))
REPRESENTATION_CONTEXT('3018 3.000_PART1','COMPONENT_PART')
);
#246=(
GEOMETRIC_REPRESENTATION_CONTEXT(3)
GLOBAL_UNCERTAINTY_ASSIGNED_CONTEXT((#249))
GLOBAL_UNIT_ASSIGNED_CONTEXT((#252,#251,#250))
REPRESENTATION_CONTEXT('3018 3.000_PART2','COMPONENT_PART')
);
#247=UNCERTAINTY_MEASURE_WITH_UNIT(LENGTH_MEASURE(1.E-5),#252,
'DISTANCE_ACCURACY_VALUE','Maximum Tolerance applied to model');
#248=UNCERTAINTY_MEASURE_WITH_UNIT(LENGTH_MEASURE(1.E-5),#252,
'DISTANCE_ACCURACY_VALUE','Maximum Tolerance applied to model');
#249=UNCERTAINTY_MEASURE_WITH_UNIT(LENGTH_MEASURE(1.E-5),#252,
'DISTANCE_ACCURACY_VALUE','Maximum Tolerance applied to model');
#250=(
NAMED_UNIT(*)
SI_UNIT($,.STERADIAN.)
SOLID_ANGLE_UNIT()
);
#251=(
NAMED_UNIT(*)
PLANE_ANGLE_UNIT()
SI_UNIT($,.RADIAN.)
);
#252=(
LENGTH_UNIT()
NAMED_UNIT(*)
SI_UNIT(.MILLI.,.METRE.)
);
#253=PRODUCT_DEFINITION_SHAPE('','',#258);
#254=PRODUCT_DEFINITION_SHAPE('','',#259);
#255=PRODUCT_DEFINITION_SHAPE(' ','NAUO PRDDFN',#23);
#256=PRODUCT_DEFINITION_SHAPE('','',#260);
#257=PRODUCT_DEFINITION_SHAPE(' ','NAUO PRDDFN',#24);
#258=PRODUCT_DEFINITION('','',#264,#261);
#259=PRODUCT_DEFINITION('','',#265,#262);
#260=PRODUCT_DEFINITION('','',#266,#263);
#261=DESIGN_CONTEXT('',#280,'design');
#262=DESIGN_CONTEXT('',#280,'design');
#263=DESIGN_CONTEXT('',#280,'design');
#264=PRODUCT_DEFINITION_FORMATION_WITH_SPECIFIED_SOURCE('','',#270,
 .NOT_KNOWN.);
#265=PRODUCT_DEFINITION_FORMATION_WITH_SPECIFIED_SOURCE('','',#271,
 .NOT_KNOWN.);
#266=PRODUCT_DEFINITION_FORMATION_WITH_SPECIFIED_SOURCE('','',#272,
 .NOT_KNOWN.);
#267=PRODUCT_RELATED_PRODUCT_CATEGORY('','',(#270));
#268=PRODUCT_RELATED_PRODUCT_CATEGORY('','',(#271));
#269=PRODUCT_RELATED_PRODUCT_CATEGORY('','',(#272));
#270=PRODUCT('3018 3.000','3018 3.000','3018 3.000',(#276));
#271=PRODUCT('3018 3.000_PART1','3018 3.000_PART1','3018 3.000_PART1',(#277));
#272=PRODUCT('3018 3.000_PART2','3018 3.000_PART2','3018 3.000_PART2',(#278));
#273=PRODUCT_CATEGORY('','');
#274=PRODUCT_CATEGORY('','');
#275=PRODUCT_CATEGORY('','');
#276=MECHANICAL_CONTEXT('',#280,'mechanical');
#277=MECHANICAL_CONTEXT('',#280,'mechanical');
#278=MECHANICAL_CONTEXT('',#280,'mechanical');
#279=APPLICATION_PROTOCOL_DEFINITION('international standard',
'config_control_design',2010,#280);
#280=APPLICATION_CONTEXT(
'configuration controlled 3D designs of mechanical parts and assemblie
s');
ENDSEC;
END-ISO-10303-21;
