ISO-10303-21;
HEADER;
/* Generated by software containing ST-Developer
 * from STEP Tools, Inc. (www.steptools.com) 
 */
/* OPTION: using custom renumber hook */

FILE_DESCRIPTION(
/* description */ ('STEP AP203'),
/* implementation_level */ '2;1');

FILE_NAME(
/* name */ '3026 10.000',
/* time_stamp */ '2026-05-15T14:41:13+02:00',
/* author */ ('License CC BY-ND 4.0'),
/* organization */ ('CADENAS'),
/* preprocessor_version */ 'ST-DEVELOPER v20',
/* originating_system */ 'PARTsolutions',
/* authorisation */ '  ');

FILE_SCHEMA (('CONFIG_CONTROL_DESIGN'));
ENDSEC;

DATA;
#10=PROPERTY_DEFINITION_REPRESENTATION(#14,#12);
#11=PROPERTY_DEFINITION_REPRESENTATION(#15,#13);
#12=REPRESENTATION('',(#16),#322);
#13=REPRESENTATION('',(#17),#322);
#14=PROPERTY_DEFINITION('pmi validation property','',#331);
#15=PROPERTY_DEFINITION('pmi validation property','',#331);
#16=VALUE_REPRESENTATION_ITEM('number of annotations',COUNT_MEASURE(0.));
#17=VALUE_REPRESENTATION_ITEM('number of views',COUNT_MEASURE(0.));
#18=SPHERICAL_SURFACE('',#214,5.);
#19=CONTEXT_DEPENDENT_SHAPE_REPRESENTATION(#23,#333);
#20=CONTEXT_DEPENDENT_SHAPE_REPRESENTATION(#24,#335);
#21=NEXT_ASSEMBLY_USAGE_OCCURRENCE('NAUO1','3026 10.000_PART1',
'3026 10.000_PART1',#336,#337,'');
#22=NEXT_ASSEMBLY_USAGE_OCCURRENCE('NAUO2','3026 10.000_PART2',
'3026 10.000_PART2',#336,#338,'');
#23=(
REPRESENTATION_RELATIONSHIP(' ',' ',#187,#186)
REPRESENTATION_RELATIONSHIP_WITH_TRANSFORMATION(#25)
SHAPE_REPRESENTATION_RELATIONSHIP()
);
#24=(
REPRESENTATION_RELATIONSHIP(' ',' ',#188,#186)
REPRESENTATION_RELATIONSHIP_WITH_TRANSFORMATION(#26)
SHAPE_REPRESENTATION_RELATIONSHIP()
);
#25=ITEM_DEFINED_TRANSFORMATION(' ',' ',#189,#210);
#26=ITEM_DEFINED_TRANSFORMATION(' ',' ',#189,#216);
#27=SHAPE_REPRESENTATION_RELATIONSHIP('','',#187,#29);
#28=SHAPE_REPRESENTATION_RELATIONSHIP('','',#188,#30);
#29=ADVANCED_BREP_SHAPE_REPRESENTATION('',(#181),#323);
#30=ADVANCED_BREP_SHAPE_REPRESENTATION('',(#182),#324);
#31=CONICAL_SURFACE('',#200,4.999,1.04719755);
#32=CONICAL_SURFACE('',#204,5.,1.5533430325);
#33=CONICAL_SURFACE('',#207,5.,0.7853981625);
#34=ELLIPSE('',#195,7.07106781186547,5.);
#35=ELLIPSE('',#196,7.07106781186547,5.);
#36=LINE('',#286,#40);
#37=LINE('',#291,#41);
#38=LINE('',#298,#42);
#39=LINE('',#311,#43);
#40=VECTOR('',#229,1000.);
#41=VECTOR('',#232,1000.);
#42=VECTOR('',#241,1000.);
#43=VECTOR('',#260,1000.);
#44=CYLINDRICAL_SURFACE('',#192,5.);
#45=CYLINDRICAL_SURFACE('',#202,4.999);
#46=CYLINDRICAL_SURFACE('',#206,5.);
#47=CYLINDRICAL_SURFACE('',#211,5.);
#48=ORIENTED_EDGE('',*,*,#78,.T.);
#49=ORIENTED_EDGE('',*,*,#79,.T.);
#50=ORIENTED_EDGE('',*,*,#80,.T.);
#51=ORIENTED_EDGE('',*,*,#81,.F.);
#52=ORIENTED_EDGE('',*,*,#82,.F.);
#53=ORIENTED_EDGE('',*,*,#83,.F.);
#54=ORIENTED_EDGE('',*,*,#84,.F.);
#55=ORIENTED_EDGE('',*,*,#85,.T.);
#56=ORIENTED_EDGE('',*,*,#86,.T.);
#57=ORIENTED_EDGE('',*,*,#84,.T.);
#58=ORIENTED_EDGE('',*,*,#87,.F.);
#59=ORIENTED_EDGE('',*,*,#79,.F.);
#60=ORIENTED_EDGE('',*,*,#88,.F.);
#61=ORIENTED_EDGE('',*,*,#87,.T.);
#62=ORIENTED_EDGE('',*,*,#89,.F.);
#63=ORIENTED_EDGE('',*,*,#88,.T.);
#64=ORIENTED_EDGE('',*,*,#89,.T.);
#65=ORIENTED_EDGE('',*,*,#85,.F.);
#66=ORIENTED_EDGE('',*,*,#80,.F.);
#67=ORIENTED_EDGE('',*,*,#78,.F.);
#68=ORIENTED_EDGE('',*,*,#81,.T.);
#69=ORIENTED_EDGE('',*,*,#86,.F.);
#70=ORIENTED_EDGE('',*,*,#83,.T.);
#71=ORIENTED_EDGE('',*,*,#90,.T.);
#72=ORIENTED_EDGE('',*,*,#82,.T.);
#73=ORIENTED_EDGE('',*,*,#90,.F.);
#74=ORIENTED_EDGE('',*,*,#91,.T.);
#75=ORIENTED_EDGE('',*,*,#92,.T.);
#76=ORIENTED_EDGE('',*,*,#92,.F.);
#77=ORIENTED_EDGE('',*,*,#91,.F.);
#78=EDGE_CURVE('',#93,#93,#106,.T.);
#79=EDGE_CURVE('',#94,#94,#107,.T.);
#80=EDGE_CURVE('',#95,#95,#108,.T.);
#81=EDGE_CURVE('',#96,#97,#36,.T.);
#82=EDGE_CURVE('',#98,#96,#34,.T.);
#83=EDGE_CURVE('',#99,#98,#37,.T.);
#84=EDGE_CURVE('',#97,#99,#35,.T.);
#85=EDGE_CURVE('',#100,#100,#109,.T.);
#86=EDGE_CURVE('',#99,#97,#38,.T.);
#87=EDGE_CURVE('',#101,#101,#110,.T.);
#88=EDGE_CURVE('',#102,#102,#111,.T.);
#89=EDGE_CURVE('',#103,#103,#112,.T.);
#90=EDGE_CURVE('',#98,#96,#39,.T.);
#91=EDGE_CURVE('',#104,#104,#113,.T.);
#92=EDGE_CURVE('',#105,#105,#114,.T.);
#93=VERTEX_POINT('',#280);
#94=VERTEX_POINT('',#283);
#95=VERTEX_POINT('',#285);
#96=VERTEX_POINT('',#287);
#97=VERTEX_POINT('',#288);
#98=VERTEX_POINT('',#290);
#99=VERTEX_POINT('',#292);
#100=VERTEX_POINT('',#296);
#101=VERTEX_POINT('',#301);
#102=VERTEX_POINT('',#304);
#103=VERTEX_POINT('',#307);
#104=VERTEX_POINT('',#316);
#105=VERTEX_POINT('',#318);
#106=CIRCLE('',#191,4.4);
#107=CIRCLE('',#193,5.);
#108=CIRCLE('',#194,5.);
#109=CIRCLE('',#198,5.);
#110=CIRCLE('',#201,4.999);
#111=CIRCLE('',#203,4.999);
#112=CIRCLE('',#205,5.);
#113=CIRCLE('',#212,5.);
#114=CIRCLE('',#213,5.);
#115=EDGE_LOOP('',(#48));
#116=EDGE_LOOP('',(#49));
#117=EDGE_LOOP('',(#50));
#118=EDGE_LOOP('',(#51,#52,#53,#54));
#119=EDGE_LOOP('',(#55));
#120=EDGE_LOOP('',(#56,#57));
#121=EDGE_LOOP('',(#58));
#122=EDGE_LOOP('',(#59));
#123=EDGE_LOOP('',(#60));
#124=EDGE_LOOP('',(#61));
#125=EDGE_LOOP('',(#62));
#126=EDGE_LOOP('',(#63));
#127=EDGE_LOOP('',(#64));
#128=EDGE_LOOP('',(#65));
#129=EDGE_LOOP('',(#66));
#130=EDGE_LOOP('',(#67));
#131=EDGE_LOOP('',(#68,#69,#70,#71));
#132=EDGE_LOOP('',(#72,#73));
#133=EDGE_LOOP('',(#74));
#134=EDGE_LOOP('',(#75));
#135=EDGE_LOOP('',(#76));
#136=EDGE_LOOP('',(#77));
#137=FACE_BOUND('',#115,.T.);
#138=FACE_BOUND('',#116,.T.);
#139=FACE_BOUND('',#117,.T.);
#140=FACE_BOUND('',#118,.T.);
#141=FACE_BOUND('',#119,.T.);
#142=FACE_BOUND('',#120,.T.);
#143=FACE_BOUND('',#121,.T.);
#144=FACE_BOUND('',#122,.T.);
#145=FACE_BOUND('',#123,.T.);
#146=FACE_BOUND('',#124,.T.);
#147=FACE_BOUND('',#125,.T.);
#148=FACE_BOUND('',#126,.T.);
#149=FACE_BOUND('',#127,.T.);
#150=FACE_BOUND('',#128,.T.);
#151=FACE_BOUND('',#129,.T.);
#152=FACE_BOUND('',#130,.T.);
#153=FACE_BOUND('',#131,.T.);
#154=FACE_BOUND('',#132,.T.);
#155=FACE_BOUND('',#133,.T.);
#156=FACE_BOUND('',#134,.T.);
#157=FACE_BOUND('',#135,.T.);
#158=FACE_BOUND('',#136,.T.);
#159=PLANE('',#190);
#160=PLANE('',#197);
#161=PLANE('',#199);
#162=PLANE('',#208);
#163=PLANE('',#209);
#164=PLANE('',#215);
#165=ADVANCED_FACE('',(#137),#159,.T.);
#166=ADVANCED_FACE('',(#138,#139,#140),#44,.T.);
#167=ADVANCED_FACE('',(#141),#160,.F.);
#168=ADVANCED_FACE('',(#142),#161,.F.);
#169=ADVANCED_FACE('',(#143,#144),#31,.T.);
#170=ADVANCED_FACE('',(#145,#146),#45,.T.);
#171=ADVANCED_FACE('',(#147,#148),#32,.T.);
#172=ADVANCED_FACE('',(#149,#150),#46,.T.);
#173=ADVANCED_FACE('',(#151,#152),#33,.T.);
#174=ADVANCED_FACE('',(#153),#162,.F.);
#175=ADVANCED_FACE('',(#154),#163,.F.);
#176=ADVANCED_FACE('',(#155,#156),#47,.T.);
#177=ADVANCED_FACE('',(#157),#18,.T.);
#178=ADVANCED_FACE('',(#158),#164,.T.);
#179=CLOSED_SHELL('',(#165,#166,#167,#168,#169,#170,#171,#172,#173,#174,
#175));
#180=CLOSED_SHELL('',(#176,#177,#178));
#181=MANIFOLD_SOLID_BREP('1',#179);
#182=MANIFOLD_SOLID_BREP('1',#180);
#183=SHAPE_DEFINITION_REPRESENTATION(#331,#186);
#184=SHAPE_DEFINITION_REPRESENTATION(#332,#187);
#185=SHAPE_DEFINITION_REPRESENTATION(#334,#188);
#186=SHAPE_REPRESENTATION('3026 10.000',(#189,#210,#216),#322);
#187=SHAPE_REPRESENTATION('3026 10.000_PART1',(#189),#323);
#188=SHAPE_REPRESENTATION('3026 10.000_PART2',(#189),#324);
#189=AXIS2_PLACEMENT_3D('',#277,#217,#218);
#190=AXIS2_PLACEMENT_3D('',#278,#219,#220);
#191=AXIS2_PLACEMENT_3D('',#279,#221,#222);
#192=AXIS2_PLACEMENT_3D('',#281,#223,#224);
#193=AXIS2_PLACEMENT_3D('',#282,#225,#226);
#194=AXIS2_PLACEMENT_3D('',#284,#227,#228);
#195=AXIS2_PLACEMENT_3D('',#289,#230,#231);
#196=AXIS2_PLACEMENT_3D('',#293,#233,#234);
#197=AXIS2_PLACEMENT_3D('',#294,#235,#236);
#198=AXIS2_PLACEMENT_3D('',#295,#237,#238);
#199=AXIS2_PLACEMENT_3D('',#297,#239,#240);
#200=AXIS2_PLACEMENT_3D('',#299,#242,#243);
#201=AXIS2_PLACEMENT_3D('',#300,#244,#245);
#202=AXIS2_PLACEMENT_3D('',#302,#246,#247);
#203=AXIS2_PLACEMENT_3D('',#303,#248,#249);
#204=AXIS2_PLACEMENT_3D('',#305,#250,#251);
#205=AXIS2_PLACEMENT_3D('',#306,#252,#253);
#206=AXIS2_PLACEMENT_3D('',#308,#254,#255);
#207=AXIS2_PLACEMENT_3D('',#309,#256,#257);
#208=AXIS2_PLACEMENT_3D('',#310,#258,#259);
#209=AXIS2_PLACEMENT_3D('',#312,#261,#262);
#210=AXIS2_PLACEMENT_3D('',#313,#263,#264);
#211=AXIS2_PLACEMENT_3D('',#314,#265,#266);
#212=AXIS2_PLACEMENT_3D('',#315,#267,#268);
#213=AXIS2_PLACEMENT_3D('',#317,#269,#270);
#214=AXIS2_PLACEMENT_3D('',#319,#271,#272);
#215=AXIS2_PLACEMENT_3D('',#320,#273,#274);
#216=AXIS2_PLACEMENT_3D('',#321,#275,#276);
#217=DIRECTION('',(0.,0.,1.));
#218=DIRECTION('',(1.,0.,0.));
#219=DIRECTION('',(0.,0.,1.));
#220=DIRECTION('',(1.,0.,0.));
#221=DIRECTION('',(0.,0.,1.));
#222=DIRECTION('',(1.,0.,0.));
#223=DIRECTION('',(0.,0.,1.));
#224=DIRECTION('',(-1.,0.,0.));
#225=DIRECTION('',(0.,0.,1.));
#226=DIRECTION('',(1.,0.,0.));
#227=DIRECTION('',(0.,0.,-1.));
#228=DIRECTION('',(1.,0.,0.));
#229=DIRECTION('',(0.,0.,1.));
#230=DIRECTION('',(-0.707106781186548,0.,0.707106781186548));
#231=DIRECTION('',(0.707106781186548,0.,0.707106781186548));
#232=DIRECTION('',(0.,0.,-1.));
#233=DIRECTION('',(-0.707106781186548,0.,-0.707106781186548));
#234=DIRECTION('',(-0.707106781186548,0.,0.707106781186548));
#235=DIRECTION('',(0.,0.,1.));
#236=DIRECTION('',(1.,0.,0.));
#237=DIRECTION('',(0.,0.,-1.));
#238=DIRECTION('',(1.,0.,0.));
#239=DIRECTION('',(0.707106781186548,0.,0.707106781186548));
#240=DIRECTION('',(0.,-1.,0.));
#241=DIRECTION('',(0.,-1.,0.));
#242=DIRECTION('',(0.,0.,1.));
#243=DIRECTION('',(0.,1.,0.));
#244=DIRECTION('',(0.,0.,-1.));
#245=DIRECTION('',(0.,-1.,0.));
#246=DIRECTION('',(0.,0.,1.));
#247=DIRECTION('',(0.,-1.,0.));
#248=DIRECTION('',(0.,0.,-1.));
#249=DIRECTION('',(0.,-1.,0.));
#250=DIRECTION('',(0.,0.,-1.));
#251=DIRECTION('',(0.,-1.,0.));
#252=DIRECTION('',(0.,0.,-1.));
#253=DIRECTION('',(0.,-1.,0.));
#254=DIRECTION('',(0.,0.,1.));
#255=DIRECTION('',(-1.,0.,0.));
#256=DIRECTION('',(-6.61309384809567E-17,0.,-1.));
#257=DIRECTION('',(-1.,0.,6.61309384809567E-17));
#258=DIRECTION('',(1.,0.,0.));
#259=DIRECTION('',(0.,1.,0.));
#260=DIRECTION('',(0.,-1.,0.));
#261=DIRECTION('',(0.707106781186548,0.,-0.707106781186548));
#262=DIRECTION('',(0.,-1.,0.));
#263=DIRECTION('',(0.,0.,1.));
#264=DIRECTION('',(1.,0.,0.));
#265=DIRECTION('',(0.,0.,1.));
#266=DIRECTION('',(0.,-1.,0.));
#267=DIRECTION('',(0.,0.,-1.));
#268=DIRECTION('',(1.,0.,0.));
#269=DIRECTION('',(0.,0.,1.));
#270=DIRECTION('',(1.,0.,0.));
#271=DIRECTION('',(0.,0.,1.));
#272=DIRECTION('',(0.,1.,0.));
#273=DIRECTION('',(0.,0.,1.));
#274=DIRECTION('',(1.,0.,0.));
#275=DIRECTION('',(0.,0.,1.));
#276=DIRECTION('',(1.,0.,0.));
#277=CARTESIAN_POINT('',(0.,0.,0.));
#278=CARTESIAN_POINT('',(0.,0.,0.));
#279=CARTESIAN_POINT('',(0.,0.,0.));
#280=CARTESIAN_POINT('',(4.4,0.,0.));
#281=CARTESIAN_POINT('',(0.,0.,0.));
#282=CARTESIAN_POINT('',(0.,0.,-40.00000000001));
#283=CARTESIAN_POINT('',(5.,0.,-40.00000000001));
#284=CARTESIAN_POINT('',(0.,0.,-0.60000000001));
#285=CARTESIAN_POINT('',(5.,0.,-0.60000000001));
#286=CARTESIAN_POINT('',(-3.50000000001,-3.57071421428142,0.));
#287=CARTESIAN_POINT('',(-3.50000000001,-3.57071421139557,-23.500000000015));
#288=CARTESIAN_POINT('',(-3.50000000001,-3.57071421139557,-16.500000000005));
#289=CARTESIAN_POINT('',(0.,0.,-20.));
#290=CARTESIAN_POINT('',(-3.50000000001,3.57071421139557,-23.500000000015));
#291=CARTESIAN_POINT('',(-3.50000000001,3.57071421428142,0.));
#292=CARTESIAN_POINT('',(-3.50000000001,3.57071421139557,-16.500000000005));
#293=CARTESIAN_POINT('',(0.,0.,-20.));
#294=CARTESIAN_POINT('',(0.,0.,-50.));
#295=CARTESIAN_POINT('',(0.,-1.0011990408666E-11,-50.00000000001));
#296=CARTESIAN_POINT('',(5.,-1.0011990408666E-11,-50.00000000001));
#297=CARTESIAN_POINT('',(-3.5,5.,-16.5));
#298=CARTESIAN_POINT('',(-3.50000000001,5.00000000001,-16.50000000001));
#299=CARTESIAN_POINT('',(0.,-1.42107265176896E-14,-40.0005773502692));
#300=CARTESIAN_POINT('',(0.,-1.00142107265177E-11,-40.0005773502792));
#301=CARTESIAN_POINT('',(0.,-4.99900000001001,-40.0005773502792));
#302=CARTESIAN_POINT('',(0.,-1.4210854715202E-14,-40.));
#303=CARTESIAN_POINT('',(0.,-1.00142085060716E-11,-40.0105773502792));
#304=CARTESIAN_POINT('',(0.,-4.99900000001001,-40.0105773502792));
#305=CARTESIAN_POINT('',(0.,-1.42085021958373E-14,-40.0105948053341));
#306=CARTESIAN_POINT('',(0.,-1.00142085021958E-11,-40.0105948053441));
#307=CARTESIAN_POINT('',(0.,-5.00000000001002,-40.0105948053441));
#308=CARTESIAN_POINT('',(0.,0.,0.));
#309=CARTESIAN_POINT('',(0.,0.,-0.6));
#310=CARTESIAN_POINT('',(-3.5,5.,-20.));
#311=CARTESIAN_POINT('',(-3.50000000001001,5.00000000001,-23.50000000001));
#312=CARTESIAN_POINT('',(-5.00000000000001,5.,-25.));
#313=CARTESIAN_POINT('',(0.,0.,0.));
#314=CARTESIAN_POINT('',(0.,-1.4210854715202E-14,-40.));
#315=CARTESIAN_POINT('',(0.,-1.0011990408666E-11,-50.00000000001));
#316=CARTESIAN_POINT('',(5.,-1.0011990408666E-11,-50.00000000001));
#317=CARTESIAN_POINT('',(0.,0.,-67.00000000001));
#318=CARTESIAN_POINT('',(5.,0.,-67.00000000001));
#319=CARTESIAN_POINT('',(0.,0.,-67.));
#320=CARTESIAN_POINT('',(0.,0.,-50.));
#321=CARTESIAN_POINT('',(0.,0.,0.));
#322=(
GEOMETRIC_REPRESENTATION_CONTEXT(3)
GLOBAL_UNCERTAINTY_ASSIGNED_CONTEXT((#325))
GLOBAL_UNIT_ASSIGNED_CONTEXT((#330,#329,#328))
REPRESENTATION_CONTEXT('3026 10.000','TOP_LEVEL_ASSEMBLY_PART')
);
#323=(
GEOMETRIC_REPRESENTATION_CONTEXT(3)
GLOBAL_UNCERTAINTY_ASSIGNED_CONTEXT((#326))
GLOBAL_UNIT_ASSIGNED_CONTEXT((#330,#329,#328))
REPRESENTATION_CONTEXT('3026 10.000_PART1','COMPONENT_PART')
);
#324=(
GEOMETRIC_REPRESENTATION_CONTEXT(3)
GLOBAL_UNCERTAINTY_ASSIGNED_CONTEXT((#327))
GLOBAL_UNIT_ASSIGNED_CONTEXT((#330,#329,#328))
REPRESENTATION_CONTEXT('3026 10.000_PART2','COMPONENT_PART')
);
#325=UNCERTAINTY_MEASURE_WITH_UNIT(LENGTH_MEASURE(1.E-5),#330,
'DISTANCE_ACCURACY_VALUE','Maximum Tolerance applied to model');
#326=UNCERTAINTY_MEASURE_WITH_UNIT(LENGTH_MEASURE(1.E-5),#330,
'DISTANCE_ACCURACY_VALUE','Maximum Tolerance applied to model');
#327=UNCERTAINTY_MEASURE_WITH_UNIT(LENGTH_MEASURE(1.E-5),#330,
'DISTANCE_ACCURACY_VALUE','Maximum Tolerance applied to model');
#328=(
NAMED_UNIT(*)
SI_UNIT($,.STERADIAN.)
SOLID_ANGLE_UNIT()
);
#329=(
NAMED_UNIT(*)
PLANE_ANGLE_UNIT()
SI_UNIT($,.RADIAN.)
);
#330=(
LENGTH_UNIT()
NAMED_UNIT(*)
SI_UNIT(.MILLI.,.METRE.)
);
#331=PRODUCT_DEFINITION_SHAPE('','',#336);
#332=PRODUCT_DEFINITION_SHAPE('','',#337);
#333=PRODUCT_DEFINITION_SHAPE(' ','NAUO PRDDFN',#21);
#334=PRODUCT_DEFINITION_SHAPE('','',#338);
#335=PRODUCT_DEFINITION_SHAPE(' ','NAUO PRDDFN',#22);
#336=PRODUCT_DEFINITION('','',#342,#339);
#337=PRODUCT_DEFINITION('','',#343,#340);
#338=PRODUCT_DEFINITION('','',#344,#341);
#339=DESIGN_CONTEXT('',#358,'design');
#340=DESIGN_CONTEXT('',#358,'design');
#341=DESIGN_CONTEXT('',#358,'design');
#342=PRODUCT_DEFINITION_FORMATION_WITH_SPECIFIED_SOURCE('','',#348,
 .NOT_KNOWN.);
#343=PRODUCT_DEFINITION_FORMATION_WITH_SPECIFIED_SOURCE('','',#349,
 .NOT_KNOWN.);
#344=PRODUCT_DEFINITION_FORMATION_WITH_SPECIFIED_SOURCE('','',#350,
 .NOT_KNOWN.);
#345=PRODUCT_RELATED_PRODUCT_CATEGORY('','',(#348));
#346=PRODUCT_RELATED_PRODUCT_CATEGORY('','',(#349));
#347=PRODUCT_RELATED_PRODUCT_CATEGORY('','',(#350));
#348=PRODUCT('3026 10.000','3026 10.000','3026 10.000',(#354));
#349=PRODUCT('3026 10.000_PART1','3026 10.000_PART1',
'3026 10.000_PART1',(#355));
#350=PRODUCT('3026 10.000_PART2','3026 10.000_PART2',
'3026 10.000_PART2',(#356));
#351=PRODUCT_CATEGORY('','');
#352=PRODUCT_CATEGORY('','');
#353=PRODUCT_CATEGORY('','');
#354=MECHANICAL_CONTEXT('',#358,'mechanical');
#355=MECHANICAL_CONTEXT('',#358,'mechanical');
#356=MECHANICAL_CONTEXT('',#358,'mechanical');
#357=APPLICATION_PROTOCOL_DEFINITION('international standard',
'config_control_design',2010,#358);
#358=APPLICATION_CONTEXT(
'configuration controlled 3D designs of mechanical parts and assemblie
s');
ENDSEC;
END-ISO-10303-21;
