ISO-10303-21;
HEADER;
/* Generated by software containing ST-Developer
 * from STEP Tools, Inc. (www.steptools.com) 
 */
/* OPTION: using custom renumber hook */

FILE_DESCRIPTION(
/* description */ ('STEP AP203'),
/* implementation_level */ '2;1');

FILE_NAME(
/* name */ '3050 8.000',
/* time_stamp */ '2026-05-15T14:42:52+02:00',
/* author */ ('License CC BY-ND 4.0'),
/* organization */ ('CADENAS'),
/* preprocessor_version */ 'ST-DEVELOPER v20',
/* originating_system */ 'PARTsolutions',
/* authorisation */ '  ');

FILE_SCHEMA (('CONFIG_CONTROL_DESIGN'));
ENDSEC;

DATA;
#10=PROPERTY_DEFINITION_REPRESENTATION(#14,#12);
#11=PROPERTY_DEFINITION_REPRESENTATION(#15,#13);
#12=REPRESENTATION('',(#16),#322);
#13=REPRESENTATION('',(#17),#322);
#14=PROPERTY_DEFINITION('pmi validation property','',#331);
#15=PROPERTY_DEFINITION('pmi validation property','',#331);
#16=VALUE_REPRESENTATION_ITEM('number of annotations',COUNT_MEASURE(0.));
#17=VALUE_REPRESENTATION_ITEM('number of views',COUNT_MEASURE(0.));
#18=SPHERICAL_SURFACE('',#214,4.);
#19=CONTEXT_DEPENDENT_SHAPE_REPRESENTATION(#23,#333);
#20=CONTEXT_DEPENDENT_SHAPE_REPRESENTATION(#24,#335);
#21=NEXT_ASSEMBLY_USAGE_OCCURRENCE('NAUO1','3050 8.000_PART1',
'3050 8.000_PART1',#336,#337,'');
#22=NEXT_ASSEMBLY_USAGE_OCCURRENCE('NAUO2','3050 8.000_PART2',
'3050 8.000_PART2',#336,#338,'');
#23=(
REPRESENTATION_RELATIONSHIP(' ',' ',#187,#186)
REPRESENTATION_RELATIONSHIP_WITH_TRANSFORMATION(#25)
SHAPE_REPRESENTATION_RELATIONSHIP()
);
#24=(
REPRESENTATION_RELATIONSHIP(' ',' ',#188,#186)
REPRESENTATION_RELATIONSHIP_WITH_TRANSFORMATION(#26)
SHAPE_REPRESENTATION_RELATIONSHIP()
);
#25=ITEM_DEFINED_TRANSFORMATION(' ',' ',#189,#210);
#26=ITEM_DEFINED_TRANSFORMATION(' ',' ',#189,#216);
#27=SHAPE_REPRESENTATION_RELATIONSHIP('','',#187,#29);
#28=SHAPE_REPRESENTATION_RELATIONSHIP('','',#188,#30);
#29=ADVANCED_BREP_SHAPE_REPRESENTATION('',(#181),#323);
#30=ADVANCED_BREP_SHAPE_REPRESENTATION('',(#182),#324);
#31=ELLIPSE('',#201,5.65685424949238,4.);
#32=ELLIPSE('',#202,5.65685424949238,4.);
#33=LINE('',#295,#37);
#34=LINE('',#300,#38);
#35=LINE('',#304,#39);
#36=LINE('',#311,#40);
#37=VECTOR('',#241,1000.);
#38=VECTOR('',#244,1000.);
#39=VECTOR('',#249,1000.);
#40=VECTOR('',#260,1000.);
#41=CONICAL_SURFACE('',#197,3.999,1.04719755);
#42=CONICAL_SURFACE('',#204,4.,1.5533430325);
#43=CONICAL_SURFACE('',#207,4.,0.7853981625);
#44=PLANE('',#193);
#45=PLANE('',#195);
#46=PLANE('',#203);
#47=PLANE('',#208);
#48=PLANE('',#209);
#49=PLANE('',#215);
#50=ORIENTED_EDGE('',*,*,#80,.F.);
#51=ORIENTED_EDGE('',*,*,#81,.T.);
#52=ORIENTED_EDGE('',*,*,#82,.T.);
#53=ORIENTED_EDGE('',*,*,#83,.T.);
#54=ORIENTED_EDGE('',*,*,#81,.F.);
#55=ORIENTED_EDGE('',*,*,#84,.F.);
#56=ORIENTED_EDGE('',*,*,#84,.T.);
#57=ORIENTED_EDGE('',*,*,#85,.T.);
#58=ORIENTED_EDGE('',*,*,#86,.F.);
#59=ORIENTED_EDGE('',*,*,#87,.F.);
#60=ORIENTED_EDGE('',*,*,#88,.F.);
#61=ORIENTED_EDGE('',*,*,#89,.F.);
#62=ORIENTED_EDGE('',*,*,#90,.T.);
#63=ORIENTED_EDGE('',*,*,#89,.T.);
#64=ORIENTED_EDGE('',*,*,#91,.F.);
#65=ORIENTED_EDGE('',*,*,#80,.T.);
#66=ORIENTED_EDGE('',*,*,#91,.T.);
#67=ORIENTED_EDGE('',*,*,#82,.F.);
#68=ORIENTED_EDGE('',*,*,#85,.F.);
#69=ORIENTED_EDGE('',*,*,#83,.F.);
#70=ORIENTED_EDGE('',*,*,#86,.T.);
#71=ORIENTED_EDGE('',*,*,#90,.F.);
#72=ORIENTED_EDGE('',*,*,#88,.T.);
#73=ORIENTED_EDGE('',*,*,#92,.T.);
#74=ORIENTED_EDGE('',*,*,#87,.T.);
#75=ORIENTED_EDGE('',*,*,#92,.F.);
#76=ORIENTED_EDGE('',*,*,#93,.T.);
#77=ORIENTED_EDGE('',*,*,#94,.T.);
#78=ORIENTED_EDGE('',*,*,#94,.F.);
#79=ORIENTED_EDGE('',*,*,#93,.F.);
#80=EDGE_CURVE('',#95,#95,#108,.T.);
#81=EDGE_CURVE('',#96,#96,#109,.T.);
#82=EDGE_CURVE('',#97,#97,#110,.T.);
#83=EDGE_CURVE('',#98,#98,#111,.T.);
#84=EDGE_CURVE('',#99,#99,#112,.T.);
#85=EDGE_CURVE('',#100,#100,#113,.T.);
#86=EDGE_CURVE('',#101,#102,#33,.T.);
#87=EDGE_CURVE('',#103,#101,#31,.T.);
#88=EDGE_CURVE('',#104,#103,#34,.T.);
#89=EDGE_CURVE('',#102,#104,#32,.T.);
#90=EDGE_CURVE('',#104,#102,#35,.T.);
#91=EDGE_CURVE('',#105,#105,#114,.T.);
#92=EDGE_CURVE('',#103,#101,#36,.T.);
#93=EDGE_CURVE('',#106,#106,#115,.T.);
#94=EDGE_CURVE('',#107,#107,#116,.T.);
#95=VERTEX_POINT('',#280);
#96=VERTEX_POINT('',#282);
#97=VERTEX_POINT('',#285);
#98=VERTEX_POINT('',#288);
#99=VERTEX_POINT('',#291);
#100=VERTEX_POINT('',#294);
#101=VERTEX_POINT('',#296);
#102=VERTEX_POINT('',#297);
#103=VERTEX_POINT('',#299);
#104=VERTEX_POINT('',#301);
#105=VERTEX_POINT('',#307);
#106=VERTEX_POINT('',#316);
#107=VERTEX_POINT('',#318);
#108=CIRCLE('',#191,3.999);
#109=CIRCLE('',#192,3.999);
#110=CIRCLE('',#194,4.);
#111=CIRCLE('',#196,3.4);
#112=CIRCLE('',#198,4.);
#113=CIRCLE('',#200,4.);
#114=CIRCLE('',#205,4.);
#115=CIRCLE('',#212,4.);
#116=CIRCLE('',#213,4.);
#117=EDGE_LOOP('',(#50));
#118=EDGE_LOOP('',(#51));
#119=EDGE_LOOP('',(#52));
#120=EDGE_LOOP('',(#53));
#121=EDGE_LOOP('',(#54));
#122=EDGE_LOOP('',(#55));
#123=EDGE_LOOP('',(#56));
#124=EDGE_LOOP('',(#57));
#125=EDGE_LOOP('',(#58,#59,#60,#61));
#126=EDGE_LOOP('',(#62,#63));
#127=EDGE_LOOP('',(#64));
#128=EDGE_LOOP('',(#65));
#129=EDGE_LOOP('',(#66));
#130=EDGE_LOOP('',(#67));
#131=EDGE_LOOP('',(#68));
#132=EDGE_LOOP('',(#69));
#133=EDGE_LOOP('',(#70,#71,#72,#73));
#134=EDGE_LOOP('',(#74,#75));
#135=EDGE_LOOP('',(#76));
#136=EDGE_LOOP('',(#77));
#137=EDGE_LOOP('',(#78));
#138=EDGE_LOOP('',(#79));
#139=FACE_BOUND('',#117,.T.);
#140=FACE_BOUND('',#118,.T.);
#141=FACE_BOUND('',#119,.T.);
#142=FACE_BOUND('',#120,.T.);
#143=FACE_BOUND('',#121,.T.);
#144=FACE_BOUND('',#122,.T.);
#145=FACE_BOUND('',#123,.T.);
#146=FACE_BOUND('',#124,.T.);
#147=FACE_BOUND('',#125,.T.);
#148=FACE_BOUND('',#126,.T.);
#149=FACE_BOUND('',#127,.T.);
#150=FACE_BOUND('',#128,.T.);
#151=FACE_BOUND('',#129,.T.);
#152=FACE_BOUND('',#130,.T.);
#153=FACE_BOUND('',#131,.T.);
#154=FACE_BOUND('',#132,.T.);
#155=FACE_BOUND('',#133,.T.);
#156=FACE_BOUND('',#134,.T.);
#157=FACE_BOUND('',#135,.T.);
#158=FACE_BOUND('',#136,.T.);
#159=FACE_BOUND('',#137,.T.);
#160=FACE_BOUND('',#138,.T.);
#161=CYLINDRICAL_SURFACE('',#190,3.999);
#162=CYLINDRICAL_SURFACE('',#199,4.);
#163=CYLINDRICAL_SURFACE('',#206,4.);
#164=CYLINDRICAL_SURFACE('',#211,4.);
#165=ADVANCED_FACE('',(#139,#140),#161,.T.);
#166=ADVANCED_FACE('',(#141),#44,.F.);
#167=ADVANCED_FACE('',(#142),#45,.T.);
#168=ADVANCED_FACE('',(#143,#144),#41,.T.);
#169=ADVANCED_FACE('',(#145,#146,#147),#162,.T.);
#170=ADVANCED_FACE('',(#148),#46,.F.);
#171=ADVANCED_FACE('',(#149,#150),#42,.T.);
#172=ADVANCED_FACE('',(#151,#152),#163,.T.);
#173=ADVANCED_FACE('',(#153,#154),#43,.T.);
#174=ADVANCED_FACE('',(#155),#47,.F.);
#175=ADVANCED_FACE('',(#156),#48,.F.);
#176=ADVANCED_FACE('',(#157,#158),#164,.T.);
#177=ADVANCED_FACE('',(#159),#18,.T.);
#178=ADVANCED_FACE('',(#160),#49,.T.);
#179=CLOSED_SHELL('',(#165,#166,#167,#168,#169,#170,#171,#172,#173,#174,
#175));
#180=CLOSED_SHELL('',(#176,#177,#178));
#181=MANIFOLD_SOLID_BREP('1',#179);
#182=MANIFOLD_SOLID_BREP('1',#180);
#183=SHAPE_DEFINITION_REPRESENTATION(#331,#186);
#184=SHAPE_DEFINITION_REPRESENTATION(#332,#187);
#185=SHAPE_DEFINITION_REPRESENTATION(#334,#188);
#186=SHAPE_REPRESENTATION('3050 8.000',(#189,#210,#216),#322);
#187=SHAPE_REPRESENTATION('3050 8.000_PART1',(#189),#323);
#188=SHAPE_REPRESENTATION('3050 8.000_PART2',(#189),#324);
#189=AXIS2_PLACEMENT_3D('',#277,#217,#218);
#190=AXIS2_PLACEMENT_3D('',#278,#219,#220);
#191=AXIS2_PLACEMENT_3D('',#279,#221,#222);
#192=AXIS2_PLACEMENT_3D('',#281,#223,#224);
#193=AXIS2_PLACEMENT_3D('',#283,#225,#226);
#194=AXIS2_PLACEMENT_3D('',#284,#227,#228);
#195=AXIS2_PLACEMENT_3D('',#286,#229,#230);
#196=AXIS2_PLACEMENT_3D('',#287,#231,#232);
#197=AXIS2_PLACEMENT_3D('',#289,#233,#234);
#198=AXIS2_PLACEMENT_3D('',#290,#235,#236);
#199=AXIS2_PLACEMENT_3D('',#292,#237,#238);
#200=AXIS2_PLACEMENT_3D('',#293,#239,#240);
#201=AXIS2_PLACEMENT_3D('',#298,#242,#243);
#202=AXIS2_PLACEMENT_3D('',#302,#245,#246);
#203=AXIS2_PLACEMENT_3D('',#303,#247,#248);
#204=AXIS2_PLACEMENT_3D('',#305,#250,#251);
#205=AXIS2_PLACEMENT_3D('',#306,#252,#253);
#206=AXIS2_PLACEMENT_3D('',#308,#254,#255);
#207=AXIS2_PLACEMENT_3D('',#309,#256,#257);
#208=AXIS2_PLACEMENT_3D('',#310,#258,#259);
#209=AXIS2_PLACEMENT_3D('',#312,#261,#262);
#210=AXIS2_PLACEMENT_3D('',#313,#263,#264);
#211=AXIS2_PLACEMENT_3D('',#314,#265,#266);
#212=AXIS2_PLACEMENT_3D('',#315,#267,#268);
#213=AXIS2_PLACEMENT_3D('',#317,#269,#270);
#214=AXIS2_PLACEMENT_3D('',#319,#271,#272);
#215=AXIS2_PLACEMENT_3D('',#320,#273,#274);
#216=AXIS2_PLACEMENT_3D('',#321,#275,#276);
#217=DIRECTION('',(0.,0.,1.));
#218=DIRECTION('',(1.,0.,0.));
#219=DIRECTION('',(0.,0.,1.));
#220=DIRECTION('',(0.,-1.,0.));
#221=DIRECTION('',(0.,0.,-1.));
#222=DIRECTION('',(0.,-1.,0.));
#223=DIRECTION('',(0.,0.,-1.));
#224=DIRECTION('',(0.,-1.,0.));
#225=DIRECTION('',(0.,0.,1.));
#226=DIRECTION('',(1.,0.,0.));
#227=DIRECTION('',(0.,0.,-1.));
#228=DIRECTION('',(1.,0.,0.));
#229=DIRECTION('',(0.,0.,1.));
#230=DIRECTION('',(1.,0.,0.));
#231=DIRECTION('',(0.,0.,1.));
#232=DIRECTION('',(1.,0.,0.));
#233=DIRECTION('',(0.,0.,1.));
#234=DIRECTION('',(0.,1.,0.));
#235=DIRECTION('',(0.,0.,1.));
#236=DIRECTION('',(1.,0.,0.));
#237=DIRECTION('',(0.,0.,1.));
#238=DIRECTION('',(-1.,0.,0.));
#239=DIRECTION('',(0.,0.,-1.));
#240=DIRECTION('',(1.,0.,0.));
#241=DIRECTION('',(0.,0.,1.));
#242=DIRECTION('',(-0.707106781186548,0.,0.707106781186548));
#243=DIRECTION('',(0.707106781186548,0.,0.707106781186548));
#244=DIRECTION('',(0.,0.,-1.));
#245=DIRECTION('',(-0.707106781186548,0.,-0.707106781186548));
#246=DIRECTION('',(-0.707106781186548,0.,0.707106781186548));
#247=DIRECTION('',(0.707106781186548,0.,0.707106781186548));
#248=DIRECTION('',(0.,-1.,0.));
#249=DIRECTION('',(0.,-1.,0.));
#250=DIRECTION('',(0.,0.,-1.));
#251=DIRECTION('',(0.,-1.,0.));
#252=DIRECTION('',(0.,0.,-1.));
#253=DIRECTION('',(0.,-1.,0.));
#254=DIRECTION('',(0.,0.,1.));
#255=DIRECTION('',(-1.,0.,0.));
#256=DIRECTION('',(-6.67367472705222E-17,0.,-1.));
#257=DIRECTION('',(-1.,0.,6.67367472705222E-17));
#258=DIRECTION('',(1.,0.,0.));
#259=DIRECTION('',(0.,1.,0.));
#260=DIRECTION('',(0.,-1.,0.));
#261=DIRECTION('',(0.707106781186548,0.,-0.707106781186548));
#262=DIRECTION('',(0.,-1.,0.));
#263=DIRECTION('',(0.,0.,1.));
#264=DIRECTION('',(1.,0.,0.));
#265=DIRECTION('',(0.,0.,1.));
#266=DIRECTION('',(0.,-1.,0.));
#267=DIRECTION('',(0.,0.,-1.));
#268=DIRECTION('',(1.,0.,0.));
#269=DIRECTION('',(0.,0.,1.));
#270=DIRECTION('',(0.,1.,0.));
#271=DIRECTION('',(0.,0.,1.));
#272=DIRECTION('',(0.,1.,0.));
#273=DIRECTION('',(0.,0.,1.));
#274=DIRECTION('',(1.,0.,0.));
#275=DIRECTION('',(0.,0.,1.));
#276=DIRECTION('',(1.,0.,0.));
#277=CARTESIAN_POINT('',(0.,0.,0.));
#278=CARTESIAN_POINT('',(0.,-1.4210854715202E-14,-36.));
#279=CARTESIAN_POINT('',(0.,-1.00142080711376E-11,-36.0105773502792));
#280=CARTESIAN_POINT('',(0.,-3.99900000001001,-36.0105773502792));
#281=CARTESIAN_POINT('',(0.,-1.00142107027774E-11,-36.0005773502792));
#282=CARTESIAN_POINT('',(0.,-3.99900000001001,-36.0005773502792));
#283=CARTESIAN_POINT('',(0.,0.,-44.));
#284=CARTESIAN_POINT('',(0.,-1.00121055429055E-11,-44.00000000001));
#285=CARTESIAN_POINT('',(4.,-1.00121055429055E-11,-44.00000000001));
#286=CARTESIAN_POINT('',(0.,0.,0.));
#287=CARTESIAN_POINT('',(0.,0.,0.));
#288=CARTESIAN_POINT('',(3.4,0.,0.));
#289=CARTESIAN_POINT('',(0.,-1.42107027774095E-14,-36.0005773502692));
#290=CARTESIAN_POINT('',(0.,0.,-36.00000000001));
#291=CARTESIAN_POINT('',(4.,0.,-36.00000000001));
#292=CARTESIAN_POINT('',(0.,0.,0.));
#293=CARTESIAN_POINT('',(0.,0.,-0.600000000010001));
#294=CARTESIAN_POINT('',(4.,0.,-0.600000000010001));
#295=CARTESIAN_POINT('',(-2.90000000001001,-2.75499546280117,0.));
#296=CARTESIAN_POINT('',(-2.90000000001001,-2.75499544498579,-20.7500000000133));
#297=CARTESIAN_POINT('',(-2.90000000001001,-2.75499544498579,-15.2500000000067));
#298=CARTESIAN_POINT('',(0.,0.,-17.85));
#299=CARTESIAN_POINT('',(-2.90000000001001,2.75499544498578,-20.7500000000133));
#300=CARTESIAN_POINT('',(-2.90000000001001,2.75499546280117,0.));
#301=CARTESIAN_POINT('',(-2.90000000001001,2.75499544943963,-15.250000000005));
#302=CARTESIAN_POINT('',(0.,0.,-18.15));
#303=CARTESIAN_POINT('',(-2.90000000000001,4.,-15.25));
#304=CARTESIAN_POINT('',(-2.90000000001001,4.00000000001,-15.25000000001));
#305=CARTESIAN_POINT('',(0.,-1.42080665441031E-14,-36.0105948053341));
#306=CARTESIAN_POINT('',(0.,-1.00142080665441E-11,-36.0105948053441));
#307=CARTESIAN_POINT('',(0.,-4.00000000001001,-36.0105948053441));
#308=CARTESIAN_POINT('',(0.,0.,0.));
#309=CARTESIAN_POINT('',(0.,0.,-0.600000000000001));
#310=CARTESIAN_POINT('',(-2.90000000000001,4.,-18.));
#311=CARTESIAN_POINT('',(-2.90000000001001,4.00000000001,-20.75000000001));
#312=CARTESIAN_POINT('',(-4.00000000000001,4.,-21.85));
#313=CARTESIAN_POINT('',(0.,0.,0.));
#314=CARTESIAN_POINT('',(0.,-1.4210854715202E-14,-36.));
#315=CARTESIAN_POINT('',(0.,-1.00121055429055E-11,-44.00000000001));
#316=CARTESIAN_POINT('',(4.,-1.00121055429055E-11,-44.00000000001));
#317=CARTESIAN_POINT('',(0.,-1.00066542891127E-11,-59.00000000001));
#318=CARTESIAN_POINT('',(0.,3.99999999998999,-59.00000000001));
#319=CARTESIAN_POINT('',(0.,-7.35474059821858E-15,-59.));
#320=CARTESIAN_POINT('',(0.,0.,-44.));
#321=CARTESIAN_POINT('',(0.,0.,0.));
#322=(
GEOMETRIC_REPRESENTATION_CONTEXT(3)
GLOBAL_UNCERTAINTY_ASSIGNED_CONTEXT((#325))
GLOBAL_UNIT_ASSIGNED_CONTEXT((#330,#329,#328))
REPRESENTATION_CONTEXT('3050 8.000','TOP_LEVEL_ASSEMBLY_PART')
);
#323=(
GEOMETRIC_REPRESENTATION_CONTEXT(3)
GLOBAL_UNCERTAINTY_ASSIGNED_CONTEXT((#326))
GLOBAL_UNIT_ASSIGNED_CONTEXT((#330,#329,#328))
REPRESENTATION_CONTEXT('3050 8.000_PART1','COMPONENT_PART')
);
#324=(
GEOMETRIC_REPRESENTATION_CONTEXT(3)
GLOBAL_UNCERTAINTY_ASSIGNED_CONTEXT((#327))
GLOBAL_UNIT_ASSIGNED_CONTEXT((#330,#329,#328))
REPRESENTATION_CONTEXT('3050 8.000_PART2','COMPONENT_PART')
);
#325=UNCERTAINTY_MEASURE_WITH_UNIT(LENGTH_MEASURE(1.E-5),#330,
'DISTANCE_ACCURACY_VALUE','Maximum Tolerance applied to model');
#326=UNCERTAINTY_MEASURE_WITH_UNIT(LENGTH_MEASURE(1.E-5),#330,
'DISTANCE_ACCURACY_VALUE','Maximum Tolerance applied to model');
#327=UNCERTAINTY_MEASURE_WITH_UNIT(LENGTH_MEASURE(1.E-5),#330,
'DISTANCE_ACCURACY_VALUE','Maximum Tolerance applied to model');
#328=(
NAMED_UNIT(*)
SI_UNIT($,.STERADIAN.)
SOLID_ANGLE_UNIT()
);
#329=(
NAMED_UNIT(*)
PLANE_ANGLE_UNIT()
SI_UNIT($,.RADIAN.)
);
#330=(
LENGTH_UNIT()
NAMED_UNIT(*)
SI_UNIT(.MILLI.,.METRE.)
);
#331=PRODUCT_DEFINITION_SHAPE('','',#336);
#332=PRODUCT_DEFINITION_SHAPE('','',#337);
#333=PRODUCT_DEFINITION_SHAPE(' ','NAUO PRDDFN',#21);
#334=PRODUCT_DEFINITION_SHAPE('','',#338);
#335=PRODUCT_DEFINITION_SHAPE(' ','NAUO PRDDFN',#22);
#336=PRODUCT_DEFINITION('','',#342,#339);
#337=PRODUCT_DEFINITION('','',#343,#340);
#338=PRODUCT_DEFINITION('','',#344,#341);
#339=DESIGN_CONTEXT('',#358,'design');
#340=DESIGN_CONTEXT('',#358,'design');
#341=DESIGN_CONTEXT('',#358,'design');
#342=PRODUCT_DEFINITION_FORMATION_WITH_SPECIFIED_SOURCE('','',#348,
 .NOT_KNOWN.);
#343=PRODUCT_DEFINITION_FORMATION_WITH_SPECIFIED_SOURCE('','',#349,
 .NOT_KNOWN.);
#344=PRODUCT_DEFINITION_FORMATION_WITH_SPECIFIED_SOURCE('','',#350,
 .NOT_KNOWN.);
#345=PRODUCT_RELATED_PRODUCT_CATEGORY('','',(#348));
#346=PRODUCT_RELATED_PRODUCT_CATEGORY('','',(#349));
#347=PRODUCT_RELATED_PRODUCT_CATEGORY('','',(#350));
#348=PRODUCT('3050 8.000','3050 8.000','3050 8.000',(#354));
#349=PRODUCT('3050 8.000_PART1','3050 8.000_PART1','3050 8.000_PART1',(#355));
#350=PRODUCT('3050 8.000_PART2','3050 8.000_PART2','3050 8.000_PART2',(#356));
#351=PRODUCT_CATEGORY('','');
#352=PRODUCT_CATEGORY('','');
#353=PRODUCT_CATEGORY('','');
#354=MECHANICAL_CONTEXT('',#358,'mechanical');
#355=MECHANICAL_CONTEXT('',#358,'mechanical');
#356=MECHANICAL_CONTEXT('',#358,'mechanical');
#357=APPLICATION_PROTOCOL_DEFINITION('international standard',
'config_control_design',2010,#358);
#358=APPLICATION_CONTEXT(
'configuration controlled 3D designs of mechanical parts and assemblie
s');
ENDSEC;
END-ISO-10303-21;
