ISO-10303-21;
HEADER;
/* Generated by software containing ST-Developer
 * from STEP Tools, Inc. (www.steptools.com) 
 */
/* OPTION: using custom renumber hook */

FILE_DESCRIPTION(
/* description */ ('STEP AP203'),
/* implementation_level */ '2;1');

FILE_NAME(
/* name */ '3090 12.706',
/* time_stamp */ '2026-05-15T14:43:31+02:00',
/* author */ ('License CC BY-ND 4.0'),
/* organization */ ('CADENAS'),
/* preprocessor_version */ 'ST-DEVELOPER v20',
/* originating_system */ 'PARTsolutions',
/* authorisation */ '  ');

FILE_SCHEMA (('CONFIG_CONTROL_DESIGN'));
ENDSEC;

DATA;
#10=PROPERTY_DEFINITION_REPRESENTATION(#14,#12);
#11=PROPERTY_DEFINITION_REPRESENTATION(#15,#13);
#12=REPRESENTATION('',(#16),#284);
#13=REPRESENTATION('',(#17),#284);
#14=PROPERTY_DEFINITION('pmi validation property','',#293);
#15=PROPERTY_DEFINITION('pmi validation property','',#293);
#16=VALUE_REPRESENTATION_ITEM('number of annotations',COUNT_MEASURE(0.));
#17=VALUE_REPRESENTATION_ITEM('number of views',COUNT_MEASURE(0.));
#18=CONTEXT_DEPENDENT_SHAPE_REPRESENTATION(#22,#295);
#19=CONTEXT_DEPENDENT_SHAPE_REPRESENTATION(#23,#297);
#20=NEXT_ASSEMBLY_USAGE_OCCURRENCE('NAUO1','3090 12.706_PART1',
'3090 12.706_PART1',#298,#299,'');
#21=NEXT_ASSEMBLY_USAGE_OCCURRENCE('NAUO2','3090 12.706_PART2',
'3090 12.706_PART2',#298,#300,'');
#22=(
REPRESENTATION_RELATIONSHIP(' ',' ',#163,#162)
REPRESENTATION_RELATIONSHIP_WITH_TRANSFORMATION(#24)
SHAPE_REPRESENTATION_RELATIONSHIP()
);
#23=(
REPRESENTATION_RELATIONSHIP(' ',' ',#164,#162)
REPRESENTATION_RELATIONSHIP_WITH_TRANSFORMATION(#25)
SHAPE_REPRESENTATION_RELATIONSHIP()
);
#24=ITEM_DEFINED_TRANSFORMATION(' ',' ',#165,#175);
#25=ITEM_DEFINED_TRANSFORMATION(' ',' ',#165,#191);
#26=SHAPE_REPRESENTATION_RELATIONSHIP('','',#163,#28);
#27=SHAPE_REPRESENTATION_RELATIONSHIP('','',#164,#29);
#28=ADVANCED_BREP_SHAPE_REPRESENTATION('',(#157),#285);
#29=ADVANCED_BREP_SHAPE_REPRESENTATION('',(#158),#286);
#30=CYLINDRICAL_SURFACE('',#174,6.35000000000002);
#31=CYLINDRICAL_SURFACE('',#176,6.35000000000002);
#32=CYLINDRICAL_SURFACE('',#181,6.349);
#33=CYLINDRICAL_SURFACE('',#187,6.35000000000002);
#34=TOROIDAL_SURFACE('',#172,4.77499999999998,1.575);
#35=CONICAL_SURFACE('',#170,6.3400095177842,1.52716309549444);
#36=CONICAL_SURFACE('',#179,6.35000000000001,1.55334303428215);
#37=CONICAL_SURFACE('',#183,6.349,1.04719755120884);
#38=CONICAL_SURFACE('',#189,6.35,0.785398163397448);
#39=ORIENTED_EDGE('',*,*,#61,.F.);
#40=ORIENTED_EDGE('',*,*,#62,.T.);
#41=ORIENTED_EDGE('',*,*,#62,.F.);
#42=ORIENTED_EDGE('',*,*,#63,.F.);
#43=ORIENTED_EDGE('',*,*,#63,.T.);
#44=ORIENTED_EDGE('',*,*,#64,.F.);
#45=ORIENTED_EDGE('',*,*,#64,.T.);
#46=ORIENTED_EDGE('',*,*,#61,.T.);
#47=ORIENTED_EDGE('',*,*,#65,.F.);
#48=ORIENTED_EDGE('',*,*,#66,.T.);
#49=ORIENTED_EDGE('',*,*,#67,.T.);
#50=ORIENTED_EDGE('',*,*,#66,.F.);
#51=ORIENTED_EDGE('',*,*,#68,.T.);
#52=ORIENTED_EDGE('',*,*,#67,.F.);
#53=ORIENTED_EDGE('',*,*,#69,.F.);
#54=ORIENTED_EDGE('',*,*,#68,.F.);
#55=ORIENTED_EDGE('',*,*,#70,.T.);
#56=ORIENTED_EDGE('',*,*,#71,.T.);
#57=ORIENTED_EDGE('',*,*,#69,.T.);
#58=ORIENTED_EDGE('',*,*,#70,.F.);
#59=ORIENTED_EDGE('',*,*,#71,.F.);
#60=ORIENTED_EDGE('',*,*,#65,.T.);
#61=EDGE_CURVE('',#72,#72,#83,.T.);
#62=EDGE_CURVE('',#73,#73,#84,.T.);
#63=EDGE_CURVE('',#74,#74,#85,.T.);
#64=EDGE_CURVE('',#75,#75,#86,.T.);
#65=EDGE_CURVE('',#76,#76,#87,.T.);
#66=EDGE_CURVE('',#77,#77,#88,.T.);
#67=EDGE_CURVE('',#78,#78,#89,.T.);
#68=EDGE_CURVE('',#79,#79,#90,.T.);
#69=EDGE_CURVE('',#80,#80,#91,.T.);
#70=EDGE_CURVE('',#81,#81,#92,.T.);
#71=EDGE_CURVE('',#82,#82,#93,.T.);
#72=VERTEX_POINT('',#249);
#73=VERTEX_POINT('',#252);
#74=VERTEX_POINT('',#255);
#75=VERTEX_POINT('',#258);
#76=VERTEX_POINT('',#263);
#77=VERTEX_POINT('',#265);
#78=VERTEX_POINT('',#268);
#79=VERTEX_POINT('',#271);
#80=VERTEX_POINT('',#274);
#81=VERTEX_POINT('',#277);
#82=VERTEX_POINT('',#280);
#83=CIRCLE('',#167,6.35000000000002);
#84=CIRCLE('',#169,0.31750000000001);
#85=CIRCLE('',#171,4.70629946489958);
#86=CIRCLE('',#173,6.34999999999999);
#87=CIRCLE('',#177,6.35000000000002);
#88=CIRCLE('',#178,6.35000000000001);
#89=CIRCLE('',#180,6.349);
#90=CIRCLE('',#182,6.349);
#91=CIRCLE('',#184,6.35000000000002);
#92=CIRCLE('',#186,5.35);
#93=CIRCLE('',#188,6.35000000000002);
#94=EDGE_LOOP('',(#39));
#95=EDGE_LOOP('',(#40));
#96=EDGE_LOOP('',(#41));
#97=EDGE_LOOP('',(#42));
#98=EDGE_LOOP('',(#43));
#99=EDGE_LOOP('',(#44));
#100=EDGE_LOOP('',(#45));
#101=EDGE_LOOP('',(#46));
#102=EDGE_LOOP('',(#47));
#103=EDGE_LOOP('',(#48));
#104=EDGE_LOOP('',(#49));
#105=EDGE_LOOP('',(#50));
#106=EDGE_LOOP('',(#51));
#107=EDGE_LOOP('',(#52));
#108=EDGE_LOOP('',(#53));
#109=EDGE_LOOP('',(#54));
#110=EDGE_LOOP('',(#55));
#111=EDGE_LOOP('',(#56));
#112=EDGE_LOOP('',(#57));
#113=EDGE_LOOP('',(#58));
#114=EDGE_LOOP('',(#59));
#115=EDGE_LOOP('',(#60));
#116=FACE_BOUND('',#94,.T.);
#117=FACE_BOUND('',#95,.T.);
#118=FACE_BOUND('',#96,.T.);
#119=FACE_BOUND('',#97,.T.);
#120=FACE_BOUND('',#98,.T.);
#121=FACE_BOUND('',#99,.T.);
#122=FACE_BOUND('',#100,.T.);
#123=FACE_BOUND('',#101,.T.);
#124=FACE_BOUND('',#102,.T.);
#125=FACE_BOUND('',#103,.T.);
#126=FACE_BOUND('',#104,.T.);
#127=FACE_BOUND('',#105,.T.);
#128=FACE_BOUND('',#106,.T.);
#129=FACE_BOUND('',#107,.T.);
#130=FACE_BOUND('',#108,.T.);
#131=FACE_BOUND('',#109,.T.);
#132=FACE_BOUND('',#110,.T.);
#133=FACE_BOUND('',#111,.T.);
#134=FACE_BOUND('',#112,.T.);
#135=FACE_BOUND('',#113,.T.);
#136=FACE_BOUND('',#114,.T.);
#137=FACE_BOUND('',#115,.T.);
#138=PLANE('',#166);
#139=PLANE('',#168);
#140=PLANE('',#185);
#141=PLANE('',#190);
#142=ADVANCED_FACE('',(#116),#138,.T.);
#143=ADVANCED_FACE('',(#117),#139,.T.);
#144=ADVANCED_FACE('',(#118,#119),#35,.F.);
#145=ADVANCED_FACE('',(#120,#121),#34,.T.);
#146=ADVANCED_FACE('',(#122,#123),#30,.T.);
#147=ADVANCED_FACE('',(#124,#125),#31,.T.);
#148=ADVANCED_FACE('',(#126,#127),#36,.T.);
#149=ADVANCED_FACE('',(#128,#129),#32,.T.);
#150=ADVANCED_FACE('',(#130,#131),#37,.T.);
#151=ADVANCED_FACE('',(#132),#140,.T.);
#152=ADVANCED_FACE('',(#133,#134),#33,.T.);
#153=ADVANCED_FACE('',(#135,#136),#38,.T.);
#154=ADVANCED_FACE('',(#137),#141,.F.);
#155=CLOSED_SHELL('',(#142,#143,#144,#145,#146));
#156=CLOSED_SHELL('',(#147,#148,#149,#150,#151,#152,#153,#154));
#157=MANIFOLD_SOLID_BREP('solid',#155);
#158=MANIFOLD_SOLID_BREP('solid',#156);
#159=SHAPE_DEFINITION_REPRESENTATION(#293,#162);
#160=SHAPE_DEFINITION_REPRESENTATION(#294,#163);
#161=SHAPE_DEFINITION_REPRESENTATION(#296,#164);
#162=SHAPE_REPRESENTATION('3090 12.706',(#165,#175,#191),#284);
#163=SHAPE_REPRESENTATION('3090 12.706_PART1',(#165),#285);
#164=SHAPE_REPRESENTATION('3090 12.706_PART2',(#165),#286);
#165=AXIS2_PLACEMENT_3D('',#246,#192,#193);
#166=AXIS2_PLACEMENT_3D('',#247,#194,#195);
#167=AXIS2_PLACEMENT_3D('',#248,#196,#197);
#168=AXIS2_PLACEMENT_3D('',#250,#198,#199);
#169=AXIS2_PLACEMENT_3D('',#251,#200,#201);
#170=AXIS2_PLACEMENT_3D('',#253,#202,#203);
#171=AXIS2_PLACEMENT_3D('',#254,#204,#205);
#172=AXIS2_PLACEMENT_3D('',#256,#206,#207);
#173=AXIS2_PLACEMENT_3D('',#257,#208,#209);
#174=AXIS2_PLACEMENT_3D('',#259,#210,#211);
#175=AXIS2_PLACEMENT_3D('',#260,#212,#213);
#176=AXIS2_PLACEMENT_3D('',#261,#214,#215);
#177=AXIS2_PLACEMENT_3D('',#262,#216,#217);
#178=AXIS2_PLACEMENT_3D('',#264,#218,#219);
#179=AXIS2_PLACEMENT_3D('',#266,#220,#221);
#180=AXIS2_PLACEMENT_3D('',#267,#222,#223);
#181=AXIS2_PLACEMENT_3D('',#269,#224,#225);
#182=AXIS2_PLACEMENT_3D('',#270,#226,#227);
#183=AXIS2_PLACEMENT_3D('',#272,#228,#229);
#184=AXIS2_PLACEMENT_3D('',#273,#230,#231);
#185=AXIS2_PLACEMENT_3D('',#275,#232,#233);
#186=AXIS2_PLACEMENT_3D('',#276,#234,#235);
#187=AXIS2_PLACEMENT_3D('',#278,#236,#237);
#188=AXIS2_PLACEMENT_3D('',#279,#238,#239);
#189=AXIS2_PLACEMENT_3D('',#281,#240,#241);
#190=AXIS2_PLACEMENT_3D('',#282,#242,#243);
#191=AXIS2_PLACEMENT_3D('',#283,#244,#245);
#192=DIRECTION('',(0.,0.,1.));
#193=DIRECTION('',(1.,0.,0.));
#194=DIRECTION('',(0.,0.,1.));
#195=DIRECTION('',(1.,0.,0.));
#196=DIRECTION('',(0.,0.,-1.));
#197=DIRECTION('',(1.,0.,0.));
#198=DIRECTION('',(0.,0.,-1.));
#199=DIRECTION('',(-1.,0.,0.));
#200=DIRECTION('',(0.,0.,-1.));
#201=DIRECTION('',(-1.,0.,0.));
#202=DIRECTION('',(0.,0.,-1.));
#203=DIRECTION('',(-1.,0.,1.21149924629559E-18));
#204=DIRECTION('',(0.,0.,1.));
#205=DIRECTION('',(1.,0.,0.));
#206=DIRECTION('',(0.,0.,1.));
#207=DIRECTION('',(1.,0.,0.));
#208=DIRECTION('',(0.,0.,1.));
#209=DIRECTION('',(1.,0.,0.));
#210=DIRECTION('',(0.,0.,-1.));
#211=DIRECTION('',(-1.,0.,0.));
#212=DIRECTION('',(0.,0.,1.));
#213=DIRECTION('',(1.,0.,0.));
#214=DIRECTION('',(0.,0.,-1.));
#215=DIRECTION('',(-1.,0.,0.));
#216=DIRECTION('',(0.,0.,-1.));
#217=DIRECTION('',(1.,0.,0.));
#218=DIRECTION('',(0.,0.,-1.));
#219=DIRECTION('',(-1.,0.,0.));
#220=DIRECTION('',(0.,0.,-1.));
#221=DIRECTION('',(-1.,0.,-7.2663252173335E-19));
#222=DIRECTION('',(0.,0.,-1.));
#223=DIRECTION('',(-1.,0.,0.));
#224=DIRECTION('',(0.,0.,-1.));
#225=DIRECTION('',(-1.,0.,0.));
#226=DIRECTION('',(0.,0.,-1.));
#227=DIRECTION('',(-1.,0.,0.));
#228=DIRECTION('',(0.,0.,1.));
#229=DIRECTION('',(1.,0.,7.98308176692178E-18));
#230=DIRECTION('',(0.,0.,1.));
#231=DIRECTION('',(1.,0.,0.));
#232=DIRECTION('',(0.,0.,1.));
#233=DIRECTION('',(1.,0.,0.));
#234=DIRECTION('',(0.,0.,1.));
#235=DIRECTION('',(1.,0.,0.));
#236=DIRECTION('',(0.,0.,-1.));
#237=DIRECTION('',(-1.,0.,0.));
#238=DIRECTION('',(0.,0.,-1.));
#239=DIRECTION('',(-1.,0.,0.));
#240=DIRECTION('',(0.,0.,-1.));
#241=DIRECTION('',(-1.,0.,-1.09890814918787E-16));
#242=DIRECTION('',(0.,0.,1.));
#243=DIRECTION('',(1.,0.,0.));
#244=DIRECTION('',(0.,0.,1.));
#245=DIRECTION('',(1.,0.,0.));
#246=CARTESIAN_POINT('',(0.,0.,0.));
#247=CARTESIAN_POINT('',(0.,0.,-76.4));
#248=CARTESIAN_POINT('',(0.,-2.1316282072803E-14,-76.4));
#249=CARTESIAN_POINT('',(6.35000000000002,-2.1316282072803E-14,-76.4));
#250=CARTESIAN_POINT('',(0.,-2.1316282072803E-14,-152.191518997612));
#251=CARTESIAN_POINT('',(0.,-2.1316282072803E-14,-152.191518997612));
#252=CARTESIAN_POINT('',(-0.31750000000001,-2.1316282072803E-14,-152.191518997612));
#253=CARTESIAN_POINT('',(0.,-2.1316282072803E-14,-152.454467441834));
#254=CARTESIAN_POINT('',(0.,0.,-152.383138120486));
#255=CARTESIAN_POINT('',(4.70629946489958,0.,-152.383138120486));
#256=CARTESIAN_POINT('',(0.,0.,-150.809637171494));
#257=CARTESIAN_POINT('',(0.,0.,-150.809637171494));
#258=CARTESIAN_POINT('',(6.34999999999999,0.,-150.809637171494));
#259=CARTESIAN_POINT('',(0.,-2.1316282072803E-14,-64.716));
#260=CARTESIAN_POINT('',(0.,0.,0.));
#261=CARTESIAN_POINT('',(0.,-2.1316282072803E-14,-64.716));
#262=CARTESIAN_POINT('',(0.,-2.1316282072803E-14,-76.4));
#263=CARTESIAN_POINT('',(6.35000000000002,-2.1316282072803E-14,-76.4));
#264=CARTESIAN_POINT('',(0.,-2.1316282072803E-14,-64.7265948053341));
#265=CARTESIAN_POINT('',(-6.35000000000001,-2.1316282072803E-14,-64.7265948053341));
#266=CARTESIAN_POINT('',(0.,-2.1316282072803E-14,-64.7265948053341));
#267=CARTESIAN_POINT('',(0.,-2.1316282072803E-14,-64.7265773502692));
#268=CARTESIAN_POINT('',(-6.349,-2.1316282072803E-14,-64.7265773502692));
#269=CARTESIAN_POINT('',(0.,-2.1316282072803E-14,-64.716));
#270=CARTESIAN_POINT('',(0.,-2.1316282072803E-14,-64.7165773502692));
#271=CARTESIAN_POINT('',(-6.349,-2.1316282072803E-14,-64.7165773502692));
#272=CARTESIAN_POINT('',(0.,-2.1316282072803E-14,-64.7165773502692));
#273=CARTESIAN_POINT('',(0.,-2.1316282072803E-14,-64.716));
#274=CARTESIAN_POINT('',(6.35000000000002,-2.1316282072803E-14,-64.716));
#275=CARTESIAN_POINT('',(0.,0.,0.));
#276=CARTESIAN_POINT('',(0.,0.,0.));
#277=CARTESIAN_POINT('',(5.35,0.,0.));
#278=CARTESIAN_POINT('',(0.,-2.1316282072803E-14,-64.716));
#279=CARTESIAN_POINT('',(0.,0.,-1.00000000000002));
#280=CARTESIAN_POINT('',(-6.35000000000002,0.,-1.00000000000002));
#281=CARTESIAN_POINT('',(0.,0.,-1.));
#282=CARTESIAN_POINT('',(0.,0.,-76.4));
#283=CARTESIAN_POINT('',(0.,0.,0.));
#284=(
GEOMETRIC_REPRESENTATION_CONTEXT(3)
GLOBAL_UNCERTAINTY_ASSIGNED_CONTEXT((#287))
GLOBAL_UNIT_ASSIGNED_CONTEXT((#292,#291,#290))
REPRESENTATION_CONTEXT('3090 12.706','TOP_LEVEL_ASSEMBLY_PART')
);
#285=(
GEOMETRIC_REPRESENTATION_CONTEXT(3)
GLOBAL_UNCERTAINTY_ASSIGNED_CONTEXT((#288))
GLOBAL_UNIT_ASSIGNED_CONTEXT((#292,#291,#290))
REPRESENTATION_CONTEXT('3090 12.706_PART1','COMPONENT_PART')
);
#286=(
GEOMETRIC_REPRESENTATION_CONTEXT(3)
GLOBAL_UNCERTAINTY_ASSIGNED_CONTEXT((#289))
GLOBAL_UNIT_ASSIGNED_CONTEXT((#292,#291,#290))
REPRESENTATION_CONTEXT('3090 12.706_PART2','COMPONENT_PART')
);
#287=UNCERTAINTY_MEASURE_WITH_UNIT(LENGTH_MEASURE(1.E-5),#292,
'DISTANCE_ACCURACY_VALUE','Maximum Tolerance applied to model');
#288=UNCERTAINTY_MEASURE_WITH_UNIT(LENGTH_MEASURE(1.E-5),#292,
'DISTANCE_ACCURACY_VALUE','Maximum Tolerance applied to model');
#289=UNCERTAINTY_MEASURE_WITH_UNIT(LENGTH_MEASURE(1.E-5),#292,
'DISTANCE_ACCURACY_VALUE','Maximum Tolerance applied to model');
#290=(
NAMED_UNIT(*)
SI_UNIT($,.STERADIAN.)
SOLID_ANGLE_UNIT()
);
#291=(
NAMED_UNIT(*)
PLANE_ANGLE_UNIT()
SI_UNIT($,.RADIAN.)
);
#292=(
LENGTH_UNIT()
NAMED_UNIT(*)
SI_UNIT(.MILLI.,.METRE.)
);
#293=PRODUCT_DEFINITION_SHAPE('','',#298);
#294=PRODUCT_DEFINITION_SHAPE('','',#299);
#295=PRODUCT_DEFINITION_SHAPE(' ','NAUO PRDDFN',#20);
#296=PRODUCT_DEFINITION_SHAPE('','',#300);
#297=PRODUCT_DEFINITION_SHAPE(' ','NAUO PRDDFN',#21);
#298=PRODUCT_DEFINITION('','',#304,#301);
#299=PRODUCT_DEFINITION('','',#305,#302);
#300=PRODUCT_DEFINITION('','',#306,#303);
#301=DESIGN_CONTEXT('',#320,'design');
#302=DESIGN_CONTEXT('',#320,'design');
#303=DESIGN_CONTEXT('',#320,'design');
#304=PRODUCT_DEFINITION_FORMATION_WITH_SPECIFIED_SOURCE('','',#310,
 .NOT_KNOWN.);
#305=PRODUCT_DEFINITION_FORMATION_WITH_SPECIFIED_SOURCE('','',#311,
 .NOT_KNOWN.);
#306=PRODUCT_DEFINITION_FORMATION_WITH_SPECIFIED_SOURCE('','',#312,
 .NOT_KNOWN.);
#307=PRODUCT_RELATED_PRODUCT_CATEGORY('','',(#310));
#308=PRODUCT_RELATED_PRODUCT_CATEGORY('','',(#311));
#309=PRODUCT_RELATED_PRODUCT_CATEGORY('','',(#312));
#310=PRODUCT('3090 12.706','3090 12.706','3090 12.706',(#316));
#311=PRODUCT('3090 12.706_PART1','3090 12.706_PART1',
'3090 12.706_PART1',(#317));
#312=PRODUCT('3090 12.706_PART2','3090 12.706_PART2',
'3090 12.706_PART2',(#318));
#313=PRODUCT_CATEGORY('','');
#314=PRODUCT_CATEGORY('','');
#315=PRODUCT_CATEGORY('','');
#316=MECHANICAL_CONTEXT('',#320,'mechanical');
#317=MECHANICAL_CONTEXT('',#320,'mechanical');
#318=MECHANICAL_CONTEXT('',#320,'mechanical');
#319=APPLICATION_PROTOCOL_DEFINITION('international standard',
'config_control_design',2010,#320);
#320=APPLICATION_CONTEXT(
'configuration controlled 3D designs of mechanical parts and assemblie
s');
ENDSEC;
END-ISO-10303-21;
