ISO-10303-21;
HEADER;
/* Generated by software containing ST-Developer
 * from STEP Tools, Inc. (www.steptools.com) 
 */
/* OPTION: using custom renumber hook */

FILE_DESCRIPTION(
/* description */ ('STEP AP203'),
/* implementation_level */ '2;1');

FILE_NAME(
/* name */ '3111 10.020',
/* time_stamp */ '2026-05-15T14:44:11+02:00',
/* author */ ('License CC BY-ND 4.0'),
/* organization */ ('CADENAS'),
/* preprocessor_version */ 'ST-DEVELOPER v20',
/* originating_system */ 'PARTsolutions',
/* authorisation */ '  ');

FILE_SCHEMA (('CONFIG_CONTROL_DESIGN'));
ENDSEC;

DATA;
#10=PROPERTY_DEFINITION_REPRESENTATION(#14,#12);
#11=PROPERTY_DEFINITION_REPRESENTATION(#15,#13);
#12=REPRESENTATION('',(#16),#248);
#13=REPRESENTATION('',(#17),#248);
#14=PROPERTY_DEFINITION('pmi validation property','',#257);
#15=PROPERTY_DEFINITION('pmi validation property','',#257);
#16=VALUE_REPRESENTATION_ITEM('number of annotations',COUNT_MEASURE(0.));
#17=VALUE_REPRESENTATION_ITEM('number of views',COUNT_MEASURE(0.));
#18=VERTEX_LOOP('',#74);
#19=TOROIDAL_SURFACE('',#165,3.,2.);
#20=CONTEXT_DEPENDENT_SHAPE_REPRESENTATION(#24,#259);
#21=CONTEXT_DEPENDENT_SHAPE_REPRESENTATION(#25,#261);
#22=NEXT_ASSEMBLY_USAGE_OCCURRENCE('NAUO1','3111 10.020_PART1',
'3111 10.020_PART1',#262,#263,'');
#23=NEXT_ASSEMBLY_USAGE_OCCURRENCE('NAUO2','3111 10.020_PART2',
'3111 10.020_PART2',#262,#264,'');
#24=(
REPRESENTATION_RELATIONSHIP(' ',' ',#144,#143)
REPRESENTATION_RELATIONSHIP_WITH_TRANSFORMATION(#26)
SHAPE_REPRESENTATION_RELATIONSHIP()
);
#25=(
REPRESENTATION_RELATIONSHIP(' ',' ',#145,#143)
REPRESENTATION_RELATIONSHIP_WITH_TRANSFORMATION(#27)
SHAPE_REPRESENTATION_RELATIONSHIP()
);
#26=ITEM_DEFINED_TRANSFORMATION(' ',' ',#146,#160);
#27=ITEM_DEFINED_TRANSFORMATION(' ',' ',#146,#168);
#28=SHAPE_REPRESENTATION_RELATIONSHIP('','',#144,#30);
#29=SHAPE_REPRESENTATION_RELATIONSHIP('','',#145,#31);
#30=ADVANCED_BREP_SHAPE_REPRESENTATION('',(#138),#249);
#31=ADVANCED_BREP_SHAPE_REPRESENTATION('',(#139),#250);
#32=CYLINDRICAL_SURFACE('',#156,5.);
#33=CYLINDRICAL_SURFACE('',#157,4.75);
#34=CYLINDRICAL_SURFACE('',#161,5.);
#35=PLANE('',#150);
#36=PLANE('',#154);
#37=PLANE('',#164);
#38=ORIENTED_EDGE('',*,*,#56,.F.);
#39=ORIENTED_EDGE('',*,*,#57,.F.);
#40=ORIENTED_EDGE('',*,*,#58,.T.);
#41=ORIENTED_EDGE('',*,*,#59,.F.);
#42=ORIENTED_EDGE('',*,*,#58,.F.);
#43=ORIENTED_EDGE('',*,*,#60,.T.);
#44=ORIENTED_EDGE('',*,*,#57,.T.);
#45=ORIENTED_EDGE('',*,*,#59,.T.);
#46=ORIENTED_EDGE('',*,*,#61,.F.);
#47=ORIENTED_EDGE('',*,*,#56,.T.);
#48=ORIENTED_EDGE('',*,*,#60,.F.);
#49=ORIENTED_EDGE('',*,*,#61,.T.);
#50=ORIENTED_EDGE('',*,*,#62,.T.);
#51=ORIENTED_EDGE('',*,*,#63,.T.);
#52=ORIENTED_EDGE('',*,*,#63,.F.);
#53=ORIENTED_EDGE('',*,*,#62,.F.);
#54=ORIENTED_EDGE('',*,*,#64,.T.);
#55=ORIENTED_EDGE('',*,*,#64,.F.);
#56=EDGE_CURVE('',#65,#65,#75,.T.);
#57=EDGE_CURVE('',#66,#66,#76,.T.);
#58=EDGE_CURVE('',#67,#67,#77,.T.);
#59=EDGE_CURVE('',#68,#68,#78,.T.);
#60=EDGE_CURVE('',#69,#69,#79,.T.);
#61=EDGE_CURVE('',#70,#70,#80,.T.);
#62=EDGE_CURVE('',#71,#71,#81,.T.);
#63=EDGE_CURVE('',#72,#72,#82,.T.);
#64=EDGE_CURVE('',#73,#73,#83,.T.);
#65=VERTEX_POINT('',#218);
#66=VERTEX_POINT('',#220);
#67=VERTEX_POINT('',#223);
#68=VERTEX_POINT('',#226);
#69=VERTEX_POINT('',#229);
#70=VERTEX_POINT('',#233);
#71=VERTEX_POINT('',#238);
#72=VERTEX_POINT('',#240);
#73=VERTEX_POINT('',#244);
#74=VERTEX_POINT('',#246);
#75=CIRCLE('',#148,4.75);
#76=CIRCLE('',#149,5.);
#77=CIRCLE('',#151,4.4);
#78=CIRCLE('',#153,5.);
#79=CIRCLE('',#155,5.);
#80=CIRCLE('',#158,4.75);
#81=CIRCLE('',#162,5.);
#82=CIRCLE('',#163,5.);
#83=CIRCLE('',#166,2.91276122144475);
#84=EDGE_LOOP('',(#38));
#85=EDGE_LOOP('',(#39));
#86=EDGE_LOOP('',(#40));
#87=EDGE_LOOP('',(#41));
#88=EDGE_LOOP('',(#42));
#89=EDGE_LOOP('',(#43));
#90=EDGE_LOOP('',(#44));
#91=EDGE_LOOP('',(#45));
#92=EDGE_LOOP('',(#46));
#93=EDGE_LOOP('',(#47));
#94=EDGE_LOOP('',(#48));
#95=EDGE_LOOP('',(#49));
#96=EDGE_LOOP('',(#50));
#97=EDGE_LOOP('',(#51));
#98=EDGE_LOOP('',(#52));
#99=EDGE_LOOP('',(#53));
#100=EDGE_LOOP('',(#54));
#101=EDGE_LOOP('',(#55));
#102=FACE_BOUND('',#84,.T.);
#103=FACE_BOUND('',#85,.T.);
#104=FACE_BOUND('',#86,.T.);
#105=FACE_BOUND('',#87,.T.);
#106=FACE_BOUND('',#88,.T.);
#107=FACE_BOUND('',#89,.T.);
#108=FACE_BOUND('',#90,.T.);
#109=FACE_BOUND('',#91,.T.);
#110=FACE_BOUND('',#92,.T.);
#111=FACE_BOUND('',#93,.T.);
#112=FACE_BOUND('',#94,.T.);
#113=FACE_BOUND('',#95,.T.);
#114=FACE_BOUND('',#96,.T.);
#115=FACE_BOUND('',#97,.T.);
#116=FACE_BOUND('',#98,.T.);
#117=FACE_BOUND('',#99,.T.);
#118=FACE_BOUND('',#100,.T.);
#119=FACE_BOUND('',#101,.T.);
#120=FACE_BOUND('',#18,.T.);
#121=CONICAL_SURFACE('',#147,4.75,0.2617993875);
#122=CONICAL_SURFACE('',#152,5.,0.7853981625);
#123=CONICAL_SURFACE('',#159,5.,1.3089969375);
#124=CONICAL_SURFACE('',#167,22.9037646,1.5271630937);
#125=ADVANCED_FACE('',(#102,#103),#121,.T.);
#126=ADVANCED_FACE('',(#104),#35,.T.);
#127=ADVANCED_FACE('',(#105,#106),#122,.T.);
#128=ADVANCED_FACE('',(#107),#36,.F.);
#129=ADVANCED_FACE('',(#108,#109),#32,.T.);
#130=ADVANCED_FACE('',(#110,#111),#33,.T.);
#131=ADVANCED_FACE('',(#112,#113),#123,.T.);
#132=ADVANCED_FACE('',(#114,#115),#34,.T.);
#133=ADVANCED_FACE('',(#116),#37,.T.);
#134=ADVANCED_FACE('',(#117,#118),#19,.T.);
#135=ADVANCED_FACE('',(#119,#120),#124,.F.);
#136=CLOSED_SHELL('',(#125,#126,#127,#128,#129,#130,#131));
#137=CLOSED_SHELL('',(#132,#133,#134,#135));
#138=MANIFOLD_SOLID_BREP('1',#136);
#139=MANIFOLD_SOLID_BREP('1',#137);
#140=SHAPE_DEFINITION_REPRESENTATION(#257,#143);
#141=SHAPE_DEFINITION_REPRESENTATION(#258,#144);
#142=SHAPE_DEFINITION_REPRESENTATION(#260,#145);
#143=SHAPE_REPRESENTATION('3111 10.020',(#146,#160,#168),#248);
#144=SHAPE_REPRESENTATION('3111 10.020_PART1',(#146),#249);
#145=SHAPE_REPRESENTATION('3111 10.020_PART2',(#146),#250);
#146=AXIS2_PLACEMENT_3D('',#215,#169,#170);
#147=AXIS2_PLACEMENT_3D('',#216,#171,#172);
#148=AXIS2_PLACEMENT_3D('',#217,#173,#174);
#149=AXIS2_PLACEMENT_3D('',#219,#175,#176);
#150=AXIS2_PLACEMENT_3D('',#221,#177,#178);
#151=AXIS2_PLACEMENT_3D('',#222,#179,#180);
#152=AXIS2_PLACEMENT_3D('',#224,#181,#182);
#153=AXIS2_PLACEMENT_3D('',#225,#183,#184);
#154=AXIS2_PLACEMENT_3D('',#227,#185,#186);
#155=AXIS2_PLACEMENT_3D('',#228,#187,#188);
#156=AXIS2_PLACEMENT_3D('',#230,#189,#190);
#157=AXIS2_PLACEMENT_3D('',#231,#191,#192);
#158=AXIS2_PLACEMENT_3D('',#232,#193,#194);
#159=AXIS2_PLACEMENT_3D('',#234,#195,#196);
#160=AXIS2_PLACEMENT_3D('',#235,#197,#198);
#161=AXIS2_PLACEMENT_3D('',#236,#199,#200);
#162=AXIS2_PLACEMENT_3D('',#237,#201,#202);
#163=AXIS2_PLACEMENT_3D('',#239,#203,#204);
#164=AXIS2_PLACEMENT_3D('',#241,#205,#206);
#165=AXIS2_PLACEMENT_3D('',#242,#207,#208);
#166=AXIS2_PLACEMENT_3D('',#243,#209,#210);
#167=AXIS2_PLACEMENT_3D('',#245,#211,#212);
#168=AXIS2_PLACEMENT_3D('',#247,#213,#214);
#169=DIRECTION('',(0.,0.,1.));
#170=DIRECTION('',(1.,0.,0.));
#171=DIRECTION('',(0.,0.,1.));
#172=DIRECTION('',(0.,1.,0.));
#173=DIRECTION('',(0.,0.,-1.));
#174=DIRECTION('',(0.,-1.,0.));
#175=DIRECTION('',(0.,0.,1.));
#176=DIRECTION('',(1.,0.,0.));
#177=DIRECTION('',(0.,0.,1.));
#178=DIRECTION('',(1.,0.,0.));
#179=DIRECTION('',(0.,0.,1.));
#180=DIRECTION('',(1.,0.,0.));
#181=DIRECTION('',(-6.61309384809567E-17,0.,-1.));
#182=DIRECTION('',(-1.,0.,6.61309384809567E-17));
#183=DIRECTION('',(0.,0.,-1.));
#184=DIRECTION('',(1.,0.,0.));
#185=DIRECTION('',(0.,0.,1.));
#186=DIRECTION('',(1.,0.,0.));
#187=DIRECTION('',(0.,0.,-1.));
#188=DIRECTION('',(1.,0.,0.));
#189=DIRECTION('',(0.,0.,1.));
#190=DIRECTION('',(-1.,0.,0.));
#191=DIRECTION('',(0.,0.,1.));
#192=DIRECTION('',(0.,-1.,0.));
#193=DIRECTION('',(0.,0.,-1.));
#194=DIRECTION('',(0.,-1.,0.));
#195=DIRECTION('',(0.,0.,-1.));
#196=DIRECTION('',(0.,-1.,0.));
#197=DIRECTION('',(0.,0.,1.));
#198=DIRECTION('',(1.,0.,0.));
#199=DIRECTION('',(0.,0.,1.));
#200=DIRECTION('',(0.,-1.,0.));
#201=DIRECTION('',(0.,0.,1.));
#202=DIRECTION('',(1.,0.,0.));
#203=DIRECTION('',(0.,0.,-1.));
#204=DIRECTION('',(1.,0.,0.));
#205=DIRECTION('',(0.,0.,1.));
#206=DIRECTION('',(1.,0.,0.));
#207=DIRECTION('',(0.,0.,1.));
#208=DIRECTION('',(1.,0.,0.));
#209=DIRECTION('',(0.,0.,1.));
#210=DIRECTION('',(1.,0.,0.));
#211=DIRECTION('',(0.,0.,-1.));
#212=DIRECTION('',(0.,-1.,0.));
#213=DIRECTION('',(0.,0.,1.));
#214=DIRECTION('',(1.,0.,0.));
#215=CARTESIAN_POINT('',(0.,0.,0.));
#216=CARTESIAN_POINT('',(0.,-1.40028328003313E-14,-40.9330127018922));
#217=CARTESIAN_POINT('',(0.,-1.00140028328003E-11,-40.9330127019022));
#218=CARTESIAN_POINT('',(0.,-4.75000000001001,-40.9330127019022));
#219=CARTESIAN_POINT('',(0.,0.,-40.00000000001));
#220=CARTESIAN_POINT('',(5.,0.,-40.00000000001));
#221=CARTESIAN_POINT('',(0.,0.,0.));
#222=CARTESIAN_POINT('',(0.,0.,0.));
#223=CARTESIAN_POINT('',(4.4,0.,0.));
#224=CARTESIAN_POINT('',(0.,0.,-0.6));
#225=CARTESIAN_POINT('',(0.,0.,-0.60000000001));
#226=CARTESIAN_POINT('',(5.,0.,-0.60000000001));
#227=CARTESIAN_POINT('',(0.,0.,-50.));
#228=CARTESIAN_POINT('',(1.00041604382974E-11,-1.00119812825513E-11,-50.00000000001));
#229=CARTESIAN_POINT('',(5.00000000001,-1.00119812825513E-11,-50.00000000001));
#230=CARTESIAN_POINT('',(0.,0.,0.));
#231=CARTESIAN_POINT('',(0.,-1.4210854715202E-14,-40.));
#232=CARTESIAN_POINT('',(0.,-1.00119962178528E-11,-49.9330127019022));
#233=CARTESIAN_POINT('',(0.,-4.75000000001001,-49.9330127019022));
#234=CARTESIAN_POINT('',(0.,-1.19812825512993E-14,-50.));
#235=CARTESIAN_POINT('',(0.,0.,0.));
#236=CARTESIAN_POINT('',(0.,-1.4210854715202E-14,-40.));
#237=CARTESIAN_POINT('',(0.,0.,-69.9980946296834));
#238=CARTESIAN_POINT('',(5.,0.,-69.9980946296834));
#239=CARTESIAN_POINT('',(1.00041604382974E-11,-1.00119812825513E-11,-50.00000000001));
#240=CARTESIAN_POINT('',(5.00000000001,-1.00119812825513E-11,-50.00000000001));
#241=CARTESIAN_POINT('',(0.,0.,-50.));
#242=CARTESIAN_POINT('',(0.,0.,-69.9980946296734));
#243=CARTESIAN_POINT('',(0.,0.,-71.9961910781265));
#244=CARTESIAN_POINT('',(2.91276122144475,0.,-71.9961910781265));
#245=CARTESIAN_POINT('',(0.,-6.88247014121073E-15,-72.8690171712745));
#246=CARTESIAN_POINT('',(0.,-7.105427357601E-15,-71.8690171712745));
#247=CARTESIAN_POINT('',(0.,0.,0.));
#248=(
GEOMETRIC_REPRESENTATION_CONTEXT(3)
GLOBAL_UNCERTAINTY_ASSIGNED_CONTEXT((#251))
GLOBAL_UNIT_ASSIGNED_CONTEXT((#256,#255,#254))
REPRESENTATION_CONTEXT('3111 10.020','TOP_LEVEL_ASSEMBLY_PART')
);
#249=(
GEOMETRIC_REPRESENTATION_CONTEXT(3)
GLOBAL_UNCERTAINTY_ASSIGNED_CONTEXT((#252))
GLOBAL_UNIT_ASSIGNED_CONTEXT((#256,#255,#254))
REPRESENTATION_CONTEXT('3111 10.020_PART1','COMPONENT_PART')
);
#250=(
GEOMETRIC_REPRESENTATION_CONTEXT(3)
GLOBAL_UNCERTAINTY_ASSIGNED_CONTEXT((#253))
GLOBAL_UNIT_ASSIGNED_CONTEXT((#256,#255,#254))
REPRESENTATION_CONTEXT('3111 10.020_PART2','COMPONENT_PART')
);
#251=UNCERTAINTY_MEASURE_WITH_UNIT(LENGTH_MEASURE(1.E-5),#256,
'DISTANCE_ACCURACY_VALUE','Maximum Tolerance applied to model');
#252=UNCERTAINTY_MEASURE_WITH_UNIT(LENGTH_MEASURE(1.E-5),#256,
'DISTANCE_ACCURACY_VALUE','Maximum Tolerance applied to model');
#253=UNCERTAINTY_MEASURE_WITH_UNIT(LENGTH_MEASURE(1.E-5),#256,
'DISTANCE_ACCURACY_VALUE','Maximum Tolerance applied to model');
#254=(
NAMED_UNIT(*)
SI_UNIT($,.STERADIAN.)
SOLID_ANGLE_UNIT()
);
#255=(
NAMED_UNIT(*)
PLANE_ANGLE_UNIT()
SI_UNIT($,.RADIAN.)
);
#256=(
LENGTH_UNIT()
NAMED_UNIT(*)
SI_UNIT(.MILLI.,.METRE.)
);
#257=PRODUCT_DEFINITION_SHAPE('','',#262);
#258=PRODUCT_DEFINITION_SHAPE('','',#263);
#259=PRODUCT_DEFINITION_SHAPE(' ','NAUO PRDDFN',#22);
#260=PRODUCT_DEFINITION_SHAPE('','',#264);
#261=PRODUCT_DEFINITION_SHAPE(' ','NAUO PRDDFN',#23);
#262=PRODUCT_DEFINITION('','',#268,#265);
#263=PRODUCT_DEFINITION('','',#269,#266);
#264=PRODUCT_DEFINITION('','',#270,#267);
#265=DESIGN_CONTEXT('',#284,'design');
#266=DESIGN_CONTEXT('',#284,'design');
#267=DESIGN_CONTEXT('',#284,'design');
#268=PRODUCT_DEFINITION_FORMATION_WITH_SPECIFIED_SOURCE('','',#274,
 .NOT_KNOWN.);
#269=PRODUCT_DEFINITION_FORMATION_WITH_SPECIFIED_SOURCE('','',#275,
 .NOT_KNOWN.);
#270=PRODUCT_DEFINITION_FORMATION_WITH_SPECIFIED_SOURCE('','',#276,
 .NOT_KNOWN.);
#271=PRODUCT_RELATED_PRODUCT_CATEGORY('','',(#274));
#272=PRODUCT_RELATED_PRODUCT_CATEGORY('','',(#275));
#273=PRODUCT_RELATED_PRODUCT_CATEGORY('','',(#276));
#274=PRODUCT('3111 10.020','3111 10.020','3111 10.020',(#280));
#275=PRODUCT('3111 10.020_PART1','3111 10.020_PART1',
'3111 10.020_PART1',(#281));
#276=PRODUCT('3111 10.020_PART2','3111 10.020_PART2',
'3111 10.020_PART2',(#282));
#277=PRODUCT_CATEGORY('','');
#278=PRODUCT_CATEGORY('','');
#279=PRODUCT_CATEGORY('','');
#280=MECHANICAL_CONTEXT('',#284,'mechanical');
#281=MECHANICAL_CONTEXT('',#284,'mechanical');
#282=MECHANICAL_CONTEXT('',#284,'mechanical');
#283=APPLICATION_PROTOCOL_DEFINITION('international standard',
'config_control_design',2010,#284);
#284=APPLICATION_CONTEXT(
'configuration controlled 3D designs of mechanical parts and assemblie
s');
ENDSEC;
END-ISO-10303-21;
