ISO-10303-21;
HEADER;
/* Generated by software containing ST-Developer
 * from STEP Tools, Inc. (www.steptools.com) 
 */
/* OPTION: using custom renumber hook */

FILE_DESCRIPTION(
/* description */ ('STEP AP203'),
/* implementation_level */ '2;1');

FILE_NAME(
/* name */ '3112 6.010',
/* time_stamp */ '2026-05-15T14:45:24+02:00',
/* author */ ('License CC BY-ND 4.0'),
/* organization */ ('CADENAS'),
/* preprocessor_version */ 'ST-DEVELOPER v20',
/* originating_system */ 'PARTsolutions',
/* authorisation */ '  ');

FILE_SCHEMA (('CONFIG_CONTROL_DESIGN'));
ENDSEC;

DATA;
#10=PROPERTY_DEFINITION_REPRESENTATION(#14,#12);
#11=PROPERTY_DEFINITION_REPRESENTATION(#15,#13);
#12=REPRESENTATION('',(#16),#292);
#13=REPRESENTATION('',(#17),#292);
#14=PROPERTY_DEFINITION('pmi validation property','',#303);
#15=PROPERTY_DEFINITION('pmi validation property','',#303);
#16=VALUE_REPRESENTATION_ITEM('number of annotations',COUNT_MEASURE(0.));
#17=VALUE_REPRESENTATION_ITEM('number of views',COUNT_MEASURE(0.));
#18=CYLINDRICAL_SURFACE('',#182,3.00000000000001);
#19=CYLINDRICAL_SURFACE('',#188,2.85);
#20=CYLINDRICAL_SURFACE('',#194,3.);
#21=TOROIDAL_SURFACE('',#179,1.99999999999999,0.999999999999993);
#22=CONTEXT_DEPENDENT_SHAPE_REPRESENTATION(#28,#305);
#23=CONTEXT_DEPENDENT_SHAPE_REPRESENTATION(#29,#307);
#24=CONTEXT_DEPENDENT_SHAPE_REPRESENTATION(#30,#309);
#25=NEXT_ASSEMBLY_USAGE_OCCURRENCE('NAUO1','3112 6.010_PART1',
'3112 6.010_PART1',#310,#311,'');
#26=NEXT_ASSEMBLY_USAGE_OCCURRENCE('NAUO2','3112 6.010_PART2',
'3112 6.010_PART2',#310,#312,'');
#27=NEXT_ASSEMBLY_USAGE_OCCURRENCE('NAUO3','3112 6.010_PART3',
'3112 6.010_PART3',#310,#313,'');
#28=(
REPRESENTATION_RELATIONSHIP(' ',' ',#169,#168)
REPRESENTATION_RELATIONSHIP_WITH_TRANSFORMATION(#31)
SHAPE_REPRESENTATION_RELATIONSHIP()
);
#29=(
REPRESENTATION_RELATIONSHIP(' ',' ',#170,#168)
REPRESENTATION_RELATIONSHIP_WITH_TRANSFORMATION(#32)
SHAPE_REPRESENTATION_RELATIONSHIP()
);
#30=(
REPRESENTATION_RELATIONSHIP(' ',' ',#171,#168)
REPRESENTATION_RELATIONSHIP_WITH_TRANSFORMATION(#33)
SHAPE_REPRESENTATION_RELATIONSHIP()
);
#31=ITEM_DEFINED_TRANSFORMATION(' ',' ',#172,#176);
#32=ITEM_DEFINED_TRANSFORMATION(' ',' ',#172,#184);
#33=ITEM_DEFINED_TRANSFORMATION(' ',' ',#172,#198);
#34=SHAPE_REPRESENTATION_RELATIONSHIP('','',#169,#37);
#35=SHAPE_REPRESENTATION_RELATIONSHIP('','',#170,#38);
#36=SHAPE_REPRESENTATION_RELATIONSHIP('','',#171,#39);
#37=ADVANCED_BREP_SHAPE_REPRESENTATION('',(#161),#293);
#38=ADVANCED_BREP_SHAPE_REPRESENTATION('',(#162),#294);
#39=ADVANCED_BREP_SHAPE_REPRESENTATION('',(#163),#295);
#40=VERTEX_LOOP('',#78);
#41=VERTEX_LOOP('',#82);
#42=CONICAL_SURFACE('',#175,2.7,0.785398163397448);
#43=CONICAL_SURFACE('',#183,3.7,0.785398163397448);
#44=CONICAL_SURFACE('',#185,3.,1.30899693899557);
#45=CONICAL_SURFACE('',#190,2.85,0.261799387799146);
#46=CONICAL_SURFACE('',#196,3.,0.785398163397448);
#47=ORIENTED_EDGE('',*,*,#67,.T.);
#48=ORIENTED_EDGE('',*,*,#67,.F.);
#49=ORIENTED_EDGE('',*,*,#68,.F.);
#50=ORIENTED_EDGE('',*,*,#69,.F.);
#51=ORIENTED_EDGE('',*,*,#70,.F.);
#52=ORIENTED_EDGE('',*,*,#68,.T.);
#53=ORIENTED_EDGE('',*,*,#70,.T.);
#54=ORIENTED_EDGE('',*,*,#69,.T.);
#55=ORIENTED_EDGE('',*,*,#71,.T.);
#56=ORIENTED_EDGE('',*,*,#72,.F.);
#57=ORIENTED_EDGE('',*,*,#73,.T.);
#58=ORIENTED_EDGE('',*,*,#71,.F.);
#59=ORIENTED_EDGE('',*,*,#74,.F.);
#60=ORIENTED_EDGE('',*,*,#73,.F.);
#61=ORIENTED_EDGE('',*,*,#75,.T.);
#62=ORIENTED_EDGE('',*,*,#76,.T.);
#63=ORIENTED_EDGE('',*,*,#74,.T.);
#64=ORIENTED_EDGE('',*,*,#75,.F.);
#65=ORIENTED_EDGE('',*,*,#76,.F.);
#66=ORIENTED_EDGE('',*,*,#72,.T.);
#67=EDGE_CURVE('',#77,#77,#89,.T.);
#68=EDGE_CURVE('',#79,#79,#90,.T.);
#69=EDGE_CURVE('',#80,#80,#91,.T.);
#70=EDGE_CURVE('',#81,#81,#92,.T.);
#71=EDGE_CURVE('',#83,#83,#93,.T.);
#72=EDGE_CURVE('',#84,#84,#94,.T.);
#73=EDGE_CURVE('',#85,#85,#95,.T.);
#74=EDGE_CURVE('',#86,#86,#96,.T.);
#75=EDGE_CURVE('',#87,#87,#97,.T.);
#76=EDGE_CURVE('',#88,#88,#98,.T.);
#77=VERTEX_POINT('',#256);
#78=VERTEX_POINT('',#258);
#79=VERTEX_POINT('',#262);
#80=VERTEX_POINT('',#265);
#81=VERTEX_POINT('',#267);
#82=VERTEX_POINT('',#270);
#83=VERTEX_POINT('',#274);
#84=VERTEX_POINT('',#276);
#85=VERTEX_POINT('',#279);
#86=VERTEX_POINT('',#282);
#87=VERTEX_POINT('',#285);
#88=VERTEX_POINT('',#288);
#89=CIRCLE('',#174,2.7);
#90=CIRCLE('',#178,3.);
#91=CIRCLE('',#180,2.54040724732487);
#92=CIRCLE('',#181,2.99999999999998);
#93=CIRCLE('',#186,2.85);
#94=CIRCLE('',#187,3.);
#95=CIRCLE('',#189,2.85);
#96=CIRCLE('',#191,3.);
#97=CIRCLE('',#193,2.4);
#98=CIRCLE('',#195,3.);
#99=EDGE_LOOP('',(#47));
#100=EDGE_LOOP('',(#48));
#101=EDGE_LOOP('',(#49));
#102=EDGE_LOOP('',(#50));
#103=EDGE_LOOP('',(#51));
#104=EDGE_LOOP('',(#52));
#105=EDGE_LOOP('',(#53));
#106=EDGE_LOOP('',(#54));
#107=EDGE_LOOP('',(#55));
#108=EDGE_LOOP('',(#56));
#109=EDGE_LOOP('',(#57));
#110=EDGE_LOOP('',(#58));
#111=EDGE_LOOP('',(#59));
#112=EDGE_LOOP('',(#60));
#113=EDGE_LOOP('',(#61));
#114=EDGE_LOOP('',(#62));
#115=EDGE_LOOP('',(#63));
#116=EDGE_LOOP('',(#64));
#117=EDGE_LOOP('',(#65));
#118=EDGE_LOOP('',(#66));
#119=FACE_BOUND('',#99,.T.);
#120=FACE_BOUND('',#40,.T.);
#121=FACE_BOUND('',#100,.T.);
#122=FACE_BOUND('',#101,.T.);
#123=FACE_BOUND('',#102,.T.);
#124=FACE_BOUND('',#103,.T.);
#125=FACE_BOUND('',#104,.T.);
#126=FACE_BOUND('',#105,.T.);
#127=FACE_BOUND('',#106,.T.);
#128=FACE_BOUND('',#41,.T.);
#129=FACE_BOUND('',#107,.T.);
#130=FACE_BOUND('',#108,.T.);
#131=FACE_BOUND('',#109,.T.);
#132=FACE_BOUND('',#110,.T.);
#133=FACE_BOUND('',#111,.T.);
#134=FACE_BOUND('',#112,.T.);
#135=FACE_BOUND('',#113,.T.);
#136=FACE_BOUND('',#114,.T.);
#137=FACE_BOUND('',#115,.T.);
#138=FACE_BOUND('',#116,.T.);
#139=FACE_BOUND('',#117,.T.);
#140=FACE_BOUND('',#118,.T.);
#141=PLANE('',#173);
#142=PLANE('',#177);
#143=PLANE('',#192);
#144=PLANE('',#197);
#145=ADVANCED_FACE('',(#119),#141,.T.);
#146=ADVANCED_FACE('',(#120,#121),#42,.T.);
#147=ADVANCED_FACE('',(#122),#142,.T.);
#148=ADVANCED_FACE('',(#123,#124),#21,.T.);
#149=ADVANCED_FACE('',(#125,#126),#18,.T.);
#150=ADVANCED_FACE('',(#127,#128),#43,.F.);
#151=ADVANCED_FACE('',(#129,#130),#44,.T.);
#152=ADVANCED_FACE('',(#131,#132),#19,.T.);
#153=ADVANCED_FACE('',(#133,#134),#45,.T.);
#154=ADVANCED_FACE('',(#135),#143,.T.);
#155=ADVANCED_FACE('',(#136,#137),#20,.T.);
#156=ADVANCED_FACE('',(#138,#139),#46,.T.);
#157=ADVANCED_FACE('',(#140),#144,.F.);
#158=CLOSED_SHELL('',(#145,#146));
#159=CLOSED_SHELL('',(#147,#148,#149,#150));
#160=CLOSED_SHELL('',(#151,#152,#153,#154,#155,#156,#157));
#161=MANIFOLD_SOLID_BREP('solid',#158);
#162=MANIFOLD_SOLID_BREP('solid',#159);
#163=MANIFOLD_SOLID_BREP('solid',#160);
#164=SHAPE_DEFINITION_REPRESENTATION(#303,#168);
#165=SHAPE_DEFINITION_REPRESENTATION(#304,#169);
#166=SHAPE_DEFINITION_REPRESENTATION(#306,#170);
#167=SHAPE_DEFINITION_REPRESENTATION(#308,#171);
#168=SHAPE_REPRESENTATION('3112 6.010',(#172,#176,#184,#198),#292);
#169=SHAPE_REPRESENTATION('3112 6.010_PART1',(#172),#293);
#170=SHAPE_REPRESENTATION('3112 6.010_PART2',(#172),#294);
#171=SHAPE_REPRESENTATION('3112 6.010_PART3',(#172),#295);
#172=AXIS2_PLACEMENT_3D('',#253,#199,#200);
#173=AXIS2_PLACEMENT_3D('',#254,#201,#202);
#174=AXIS2_PLACEMENT_3D('',#255,#203,#204);
#175=AXIS2_PLACEMENT_3D('',#257,#205,#206);
#176=AXIS2_PLACEMENT_3D('',#259,#207,#208);
#177=AXIS2_PLACEMENT_3D('',#260,#209,#210);
#178=AXIS2_PLACEMENT_3D('',#261,#211,#212);
#179=AXIS2_PLACEMENT_3D('',#263,#213,#214);
#180=AXIS2_PLACEMENT_3D('',#264,#215,#216);
#181=AXIS2_PLACEMENT_3D('',#266,#217,#218);
#182=AXIS2_PLACEMENT_3D('',#268,#219,#220);
#183=AXIS2_PLACEMENT_3D('',#269,#221,#222);
#184=AXIS2_PLACEMENT_3D('',#271,#223,#224);
#185=AXIS2_PLACEMENT_3D('',#272,#225,#226);
#186=AXIS2_PLACEMENT_3D('',#273,#227,#228);
#187=AXIS2_PLACEMENT_3D('',#275,#229,#230);
#188=AXIS2_PLACEMENT_3D('',#277,#231,#232);
#189=AXIS2_PLACEMENT_3D('',#278,#233,#234);
#190=AXIS2_PLACEMENT_3D('',#280,#235,#236);
#191=AXIS2_PLACEMENT_3D('',#281,#237,#238);
#192=AXIS2_PLACEMENT_3D('',#283,#239,#240);
#193=AXIS2_PLACEMENT_3D('',#284,#241,#242);
#194=AXIS2_PLACEMENT_3D('',#286,#243,#244);
#195=AXIS2_PLACEMENT_3D('',#287,#245,#246);
#196=AXIS2_PLACEMENT_3D('',#289,#247,#248);
#197=AXIS2_PLACEMENT_3D('',#290,#249,#250);
#198=AXIS2_PLACEMENT_3D('',#291,#251,#252);
#199=DIRECTION('',(0.,0.,1.));
#200=DIRECTION('',(1.,0.,0.));
#201=DIRECTION('',(0.,0.,-1.));
#202=DIRECTION('',(-1.,0.,0.));
#203=DIRECTION('',(0.,0.,-1.));
#204=DIRECTION('',(-1.,0.,0.));
#205=DIRECTION('',(0.,0.,-1.));
#206=DIRECTION('',(-1.,0.,6.22818840482348E-17));
#207=DIRECTION('',(0.,0.,1.));
#208=DIRECTION('',(1.,0.,0.));
#209=DIRECTION('',(0.,0.,1.));
#210=DIRECTION('',(1.,0.,0.));
#211=DIRECTION('',(0.,0.,-1.));
#212=DIRECTION('',(1.,0.,0.));
#213=DIRECTION('',(0.,0.,1.));
#214=DIRECTION('',(1.,0.,0.));
#215=DIRECTION('',(0.,0.,-1.));
#216=DIRECTION('',(1.,0.,0.));
#217=DIRECTION('',(0.,0.,1.));
#218=DIRECTION('',(1.,0.,0.));
#219=DIRECTION('',(0.,0.,-1.));
#220=DIRECTION('',(0.,-1.,0.));
#221=DIRECTION('',(0.,0.,-1.));
#222=DIRECTION('',(-1.,0.,-4.83932024781814E-17));
#223=DIRECTION('',(0.,0.,1.));
#224=DIRECTION('',(1.,0.,0.));
#225=DIRECTION('',(0.,0.,-1.));
#226=DIRECTION('',(0.,-1.,0.));
#227=DIRECTION('',(0.,6.92783976626449E-16,-1.));
#228=DIRECTION('',(0.,-1.,0.));
#229=DIRECTION('',(0.,0.,-1.));
#230=DIRECTION('',(1.,0.,0.));
#231=DIRECTION('',(0.,0.,-1.));
#232=DIRECTION('',(0.,-1.,0.));
#233=DIRECTION('',(0.,6.92783976626449E-16,-1.));
#234=DIRECTION('',(0.,-1.,0.));
#235=DIRECTION('',(0.,0.,1.));
#236=DIRECTION('',(0.,1.,0.));
#237=DIRECTION('',(0.,0.,1.));
#238=DIRECTION('',(1.,0.,0.));
#239=DIRECTION('',(0.,0.,1.));
#240=DIRECTION('',(1.,0.,0.));
#241=DIRECTION('',(0.,0.,1.));
#242=DIRECTION('',(1.,0.,0.));
#243=DIRECTION('',(0.,0.,-1.));
#244=DIRECTION('',(-1.,0.,0.));
#245=DIRECTION('',(0.,0.,-1.));
#246=DIRECTION('',(1.,0.,0.));
#247=DIRECTION('',(0.,0.,-1.));
#248=DIRECTION('',(-1.,0.,6.68032844063851E-17));
#249=DIRECTION('',(0.,0.,1.));
#250=DIRECTION('',(1.,0.,0.));
#251=DIRECTION('',(0.,0.,1.));
#252=DIRECTION('',(1.,0.,0.));
#253=CARTESIAN_POINT('',(0.,0.,0.));
#254=CARTESIAN_POINT('',(0.,0.,-57.));
#255=CARTESIAN_POINT('',(0.,0.,-57.));
#256=CARTESIAN_POINT('',(-2.7,0.,-57.));
#257=CARTESIAN_POINT('',(0.,0.,-57.));
#258=CARTESIAN_POINT('',(0.,0.,-54.3));
#259=CARTESIAN_POINT('',(0.,0.,0.));
#260=CARTESIAN_POINT('',(0.,0.,-44.));
#261=CARTESIAN_POINT('',(7.75651499831314E-15,-1.6051123850442E-14,-44.));
#262=CARTESIAN_POINT('',(3.00000000000001,-1.6051123850442E-14,-44.));
#263=CARTESIAN_POINT('',(0.,0.,-55.9990036538938));
#264=CARTESIAN_POINT('',(0.,0.,-56.8404072473249));
#265=CARTESIAN_POINT('',(2.54040724732487,0.,-56.8404072473249));
#266=CARTESIAN_POINT('',(0.,0.,-55.9990036538938));
#267=CARTESIAN_POINT('',(2.99999999999998,0.,-55.9990036538938));
#268=CARTESIAN_POINT('',(0.,-2.1316282072803E-14,-36.4));
#269=CARTESIAN_POINT('',(0.,0.,-58.));
#270=CARTESIAN_POINT('',(0.,0.,-54.3));
#271=CARTESIAN_POINT('',(0.,0.,0.));
#272=CARTESIAN_POINT('',(0.,-1.6051123850442E-14,-44.));
#273=CARTESIAN_POINT('',(0.,-1.6078968486502E-14,-43.9598076211353));
#274=CARTESIAN_POINT('',(0.,-2.85000000000002,-43.9598076211353));
#275=CARTESIAN_POINT('',(7.75651499831314E-15,-1.6051123850442E-14,-44.));
#276=CARTESIAN_POINT('',(3.00000000000001,-1.6051123850442E-14,-44.));
#277=CARTESIAN_POINT('',(0.,-2.1316282072803E-14,-36.4));
#278=CARTESIAN_POINT('',(0.,-2.09284563228871E-14,-36.9598076211354));
#279=CARTESIAN_POINT('',(0.,-2.85000000000002,-36.9598076211354));
#280=CARTESIAN_POINT('',(0.,-2.09284563228871E-14,-36.9598076211354));
#281=CARTESIAN_POINT('',(0.,0.,-36.4));
#282=CARTESIAN_POINT('',(3.,0.,-36.4));
#283=CARTESIAN_POINT('',(0.,0.,0.));
#284=CARTESIAN_POINT('',(0.,0.,0.));
#285=CARTESIAN_POINT('',(2.4,0.,0.));
#286=CARTESIAN_POINT('',(0.,0.,0.));
#287=CARTESIAN_POINT('',(0.,0.,-0.600000000000001));
#288=CARTESIAN_POINT('',(3.,0.,-0.600000000000001));
#289=CARTESIAN_POINT('',(0.,0.,-0.600000000000001));
#290=CARTESIAN_POINT('',(0.,0.,-44.));
#291=CARTESIAN_POINT('',(0.,0.,0.));
#292=(
GEOMETRIC_REPRESENTATION_CONTEXT(3)
GLOBAL_UNCERTAINTY_ASSIGNED_CONTEXT((#296))
GLOBAL_UNIT_ASSIGNED_CONTEXT((#302,#301,#300))
REPRESENTATION_CONTEXT('3112 6.010','TOP_LEVEL_ASSEMBLY_PART')
);
#293=(
GEOMETRIC_REPRESENTATION_CONTEXT(3)
GLOBAL_UNCERTAINTY_ASSIGNED_CONTEXT((#297))
GLOBAL_UNIT_ASSIGNED_CONTEXT((#302,#301,#300))
REPRESENTATION_CONTEXT('3112 6.010_PART1','COMPONENT_PART')
);
#294=(
GEOMETRIC_REPRESENTATION_CONTEXT(3)
GLOBAL_UNCERTAINTY_ASSIGNED_CONTEXT((#298))
GLOBAL_UNIT_ASSIGNED_CONTEXT((#302,#301,#300))
REPRESENTATION_CONTEXT('3112 6.010_PART2','COMPONENT_PART')
);
#295=(
GEOMETRIC_REPRESENTATION_CONTEXT(3)
GLOBAL_UNCERTAINTY_ASSIGNED_CONTEXT((#299))
GLOBAL_UNIT_ASSIGNED_CONTEXT((#302,#301,#300))
REPRESENTATION_CONTEXT('3112 6.010_PART3','COMPONENT_PART')
);
#296=UNCERTAINTY_MEASURE_WITH_UNIT(LENGTH_MEASURE(1.E-5),#302,
'DISTANCE_ACCURACY_VALUE','Maximum Tolerance applied to model');
#297=UNCERTAINTY_MEASURE_WITH_UNIT(LENGTH_MEASURE(1.E-5),#302,
'DISTANCE_ACCURACY_VALUE','Maximum Tolerance applied to model');
#298=UNCERTAINTY_MEASURE_WITH_UNIT(LENGTH_MEASURE(1.E-5),#302,
'DISTANCE_ACCURACY_VALUE','Maximum Tolerance applied to model');
#299=UNCERTAINTY_MEASURE_WITH_UNIT(LENGTH_MEASURE(1.E-5),#302,
'DISTANCE_ACCURACY_VALUE','Maximum Tolerance applied to model');
#300=(
NAMED_UNIT(*)
SI_UNIT($,.STERADIAN.)
SOLID_ANGLE_UNIT()
);
#301=(
NAMED_UNIT(*)
PLANE_ANGLE_UNIT()
SI_UNIT($,.RADIAN.)
);
#302=(
LENGTH_UNIT()
NAMED_UNIT(*)
SI_UNIT(.MILLI.,.METRE.)
);
#303=PRODUCT_DEFINITION_SHAPE('','',#310);
#304=PRODUCT_DEFINITION_SHAPE('','',#311);
#305=PRODUCT_DEFINITION_SHAPE(' ','NAUO PRDDFN',#25);
#306=PRODUCT_DEFINITION_SHAPE('','',#312);
#307=PRODUCT_DEFINITION_SHAPE(' ','NAUO PRDDFN',#26);
#308=PRODUCT_DEFINITION_SHAPE('','',#313);
#309=PRODUCT_DEFINITION_SHAPE(' ','NAUO PRDDFN',#27);
#310=PRODUCT_DEFINITION('','',#318,#314);
#311=PRODUCT_DEFINITION('','',#319,#315);
#312=PRODUCT_DEFINITION('','',#320,#316);
#313=PRODUCT_DEFINITION('','',#321,#317);
#314=DESIGN_CONTEXT('',#339,'design');
#315=DESIGN_CONTEXT('',#339,'design');
#316=DESIGN_CONTEXT('',#339,'design');
#317=DESIGN_CONTEXT('',#339,'design');
#318=PRODUCT_DEFINITION_FORMATION_WITH_SPECIFIED_SOURCE('','',#326,
 .NOT_KNOWN.);
#319=PRODUCT_DEFINITION_FORMATION_WITH_SPECIFIED_SOURCE('','',#327,
 .NOT_KNOWN.);
#320=PRODUCT_DEFINITION_FORMATION_WITH_SPECIFIED_SOURCE('','',#328,
 .NOT_KNOWN.);
#321=PRODUCT_DEFINITION_FORMATION_WITH_SPECIFIED_SOURCE('','',#329,
 .NOT_KNOWN.);
#322=PRODUCT_RELATED_PRODUCT_CATEGORY('','',(#326));
#323=PRODUCT_RELATED_PRODUCT_CATEGORY('','',(#327));
#324=PRODUCT_RELATED_PRODUCT_CATEGORY('','',(#328));
#325=PRODUCT_RELATED_PRODUCT_CATEGORY('','',(#329));
#326=PRODUCT('3112 6.010','3112 6.010','3112 6.010',(#334));
#327=PRODUCT('3112 6.010_PART1','3112 6.010_PART1','3112 6.010_PART1',(#335));
#328=PRODUCT('3112 6.010_PART2','3112 6.010_PART2','3112 6.010_PART2',(#336));
#329=PRODUCT('3112 6.010_PART3','3112 6.010_PART3','3112 6.010_PART3',(#337));
#330=PRODUCT_CATEGORY('','');
#331=PRODUCT_CATEGORY('','');
#332=PRODUCT_CATEGORY('','');
#333=PRODUCT_CATEGORY('','');
#334=MECHANICAL_CONTEXT('',#339,'mechanical');
#335=MECHANICAL_CONTEXT('',#339,'mechanical');
#336=MECHANICAL_CONTEXT('',#339,'mechanical');
#337=MECHANICAL_CONTEXT('',#339,'mechanical');
#338=APPLICATION_PROTOCOL_DEFINITION('international standard',
'config_control_design',2010,#339);
#339=APPLICATION_CONTEXT(
'configuration controlled 3D designs of mechanical parts and assemblie
s');
ENDSEC;
END-ISO-10303-21;
