ISO-10303-21;
HEADER;
/* Generated by software containing ST-Developer
 * from STEP Tools, Inc. (www.steptools.com) 
 */
/* OPTION: using custom renumber hook */

FILE_DESCRIPTION(
/* description */ ('STEP AP203'),
/* implementation_level */ '2;1');

FILE_NAME(
/* name */ '3160 3.170',
/* time_stamp */ '2026-05-15T14:46:44+02:00',
/* author */ ('License CC BY-ND 4.0'),
/* organization */ ('CADENAS'),
/* preprocessor_version */ 'ST-DEVELOPER v20',
/* originating_system */ 'PARTsolutions',
/* authorisation */ '  ');

FILE_SCHEMA (('CONFIG_CONTROL_DESIGN'));
ENDSEC;

DATA;
#10=PROPERTY_DEFINITION_REPRESENTATION(#14,#12);
#11=PROPERTY_DEFINITION_REPRESENTATION(#15,#13);
#12=REPRESENTATION('',(#16),#289);
#13=REPRESENTATION('',(#17),#289);
#14=PROPERTY_DEFINITION('pmi validation property','',#298);
#15=PROPERTY_DEFINITION('pmi validation property','',#298);
#16=VALUE_REPRESENTATION_ITEM('number of annotations',COUNT_MEASURE(0.));
#17=VALUE_REPRESENTATION_ITEM('number of views',COUNT_MEASURE(0.));
#18=B_SPLINE_CURVE_WITH_KNOTS('',3,(#277,#278,#279,#280,#281),
 .UNSPECIFIED.,.T.,.F.,(1,1,1,1,1,1,1,1,1),(-1.5,-1.,-0.5,0.,0.5,1.,1.5,
2.,2.5),.UNSPECIFIED.);
#19=(
BOUNDED_SURFACE()
B_SPLINE_SURFACE(3,3,((#247,#248,#249,#250,#251,#252,#253),(#254,#255,#256,
#257,#258,#259,#260),(#261,#262,#263,#264,#265,#266,#267),(#268,#269,#270,
#271,#272,#273,#274)),.UNSPECIFIED.,.F.,.T.,.F.)
B_SPLINE_SURFACE_WITH_KNOTS((4,4),(4,3,4),(0.,1.),(0.,0.5,1.),
 .PIECEWISE_BEZIER_KNOTS.)
GEOMETRIC_REPRESENTATION_ITEM()
RATIONAL_B_SPLINE_SURFACE(((1.,0.333333333333333,0.333333333333333,1.,0.333333333333333,
0.333333333333333,1.),(0.804737854124365,0.268245951374788,0.268245951374788,
0.804737854124365,0.268245951374788,0.268245951374788,0.804737854124365),
(0.804737854124365,0.268245951374788,0.268245951374788,0.804737854124365,
0.268245951374788,0.268245951374788,0.804737854124365),(1.,0.333333333333333,
0.333333333333333,1.,0.333333333333333,0.333333333333333,1.)))
REPRESENTATION_ITEM('')
SURFACE()
);
#20=CONTEXT_DEPENDENT_SHAPE_REPRESENTATION(#24,#300);
#21=CONTEXT_DEPENDENT_SHAPE_REPRESENTATION(#25,#302);
#22=NEXT_ASSEMBLY_USAGE_OCCURRENCE('NAUO1','3160 3.170_PART1',
'3160 3.170_PART1',#303,#304,'');
#23=NEXT_ASSEMBLY_USAGE_OCCURRENCE('NAUO2','3160 3.170_PART2',
'3160 3.170_PART2',#303,#305,'');
#24=(
REPRESENTATION_RELATIONSHIP(' ',' ',#152,#151)
REPRESENTATION_RELATIONSHIP_WITH_TRANSFORMATION(#26)
SHAPE_REPRESENTATION_RELATIONSHIP()
);
#25=(
REPRESENTATION_RELATIONSHIP(' ',' ',#153,#151)
REPRESENTATION_RELATIONSHIP_WITH_TRANSFORMATION(#27)
SHAPE_REPRESENTATION_RELATIONSHIP()
);
#26=ITEM_DEFINED_TRANSFORMATION(' ',' ',#154,#170);
#27=ITEM_DEFINED_TRANSFORMATION(' ',' ',#154,#176);
#28=SHAPE_REPRESENTATION_RELATIONSHIP('','',#152,#30);
#29=SHAPE_REPRESENTATION_RELATIONSHIP('','',#153,#31);
#30=ADVANCED_BREP_SHAPE_REPRESENTATION('',(#146),#290);
#31=ADVANCED_BREP_SHAPE_REPRESENTATION('',(#147),#291);
#32=PLANE('',#160);
#33=PLANE('',#168);
#34=PLANE('',#174);
#35=PLANE('',#175);
#36=CONICAL_SURFACE('',#158,1.5875,0.7853981625);
#37=CONICAL_SURFACE('',#162,1.5875,1.5533430325);
#38=CONICAL_SURFACE('',#169,1.5865,1.04719755);
#39=ORIENTED_EDGE('',*,*,#59,.T.);
#40=ORIENTED_EDGE('',*,*,#60,.T.);
#41=ORIENTED_EDGE('',*,*,#60,.F.);
#42=ORIENTED_EDGE('',*,*,#61,.F.);
#43=ORIENTED_EDGE('',*,*,#62,.T.);
#44=ORIENTED_EDGE('',*,*,#63,.F.);
#45=ORIENTED_EDGE('',*,*,#64,.T.);
#46=ORIENTED_EDGE('',*,*,#63,.T.);
#47=ORIENTED_EDGE('',*,*,#62,.F.);
#48=ORIENTED_EDGE('',*,*,#64,.F.);
#49=ORIENTED_EDGE('',*,*,#65,.T.);
#50=ORIENTED_EDGE('',*,*,#61,.T.);
#51=ORIENTED_EDGE('',*,*,#65,.F.);
#52=ORIENTED_EDGE('',*,*,#59,.F.);
#53=ORIENTED_EDGE('',*,*,#66,.F.);
#54=ORIENTED_EDGE('',*,*,#67,.T.);
#55=ORIENTED_EDGE('',*,*,#68,.T.);
#56=ORIENTED_EDGE('',*,*,#66,.T.);
#57=ORIENTED_EDGE('',*,*,#67,.F.);
#58=ORIENTED_EDGE('',*,*,#68,.F.);
#59=EDGE_CURVE('',#69,#69,#79,.T.);
#60=EDGE_CURVE('',#70,#70,#80,.T.);
#61=EDGE_CURVE('',#71,#71,#81,.T.);
#62=EDGE_CURVE('',#72,#72,#82,.T.);
#63=EDGE_CURVE('',#73,#73,#83,.T.);
#64=EDGE_CURVE('',#74,#74,#84,.T.);
#65=EDGE_CURVE('',#75,#75,#85,.T.);
#66=EDGE_CURVE('',#76,#76,#86,.T.);
#67=EDGE_CURVE('',#77,#77,#18,.F.);
#68=EDGE_CURVE('',#78,#78,#87,.T.);
#69=VERTEX_POINT('',#226);
#70=VERTEX_POINT('',#228);
#71=VERTEX_POINT('',#231);
#72=VERTEX_POINT('',#234);
#73=VERTEX_POINT('',#237);
#74=VERTEX_POINT('',#239);
#75=VERTEX_POINT('',#243);
#76=VERTEX_POINT('',#276);
#77=VERTEX_POINT('',#282);
#78=VERTEX_POINT('',#285);
#79=CIRCLE('',#156,1.5875);
#80=CIRCLE('',#157,1.5875);
#81=CIRCLE('',#159,1.1875);
#82=CIRCLE('',#161,1.5875);
#83=CIRCLE('',#163,1.5875);
#84=CIRCLE('',#164,1.5865);
#85=CIRCLE('',#167,1.5865);
#86=CIRCLE('',#171,1.5875);
#87=CIRCLE('',#173,1.5875);
#88=EDGE_LOOP('',(#39));
#89=EDGE_LOOP('',(#40));
#90=EDGE_LOOP('',(#41));
#91=EDGE_LOOP('',(#42));
#92=EDGE_LOOP('',(#43));
#93=EDGE_LOOP('',(#44));
#94=EDGE_LOOP('',(#45));
#95=EDGE_LOOP('',(#46));
#96=EDGE_LOOP('',(#47));
#97=EDGE_LOOP('',(#48));
#98=EDGE_LOOP('',(#49));
#99=EDGE_LOOP('',(#50));
#100=EDGE_LOOP('',(#51));
#101=EDGE_LOOP('',(#52));
#102=EDGE_LOOP('',(#53));
#103=EDGE_LOOP('',(#54));
#104=EDGE_LOOP('',(#55));
#105=EDGE_LOOP('',(#56));
#106=EDGE_LOOP('',(#57));
#107=EDGE_LOOP('',(#58));
#108=FACE_BOUND('',#88,.T.);
#109=FACE_BOUND('',#89,.T.);
#110=FACE_BOUND('',#90,.T.);
#111=FACE_BOUND('',#91,.T.);
#112=FACE_BOUND('',#92,.T.);
#113=FACE_BOUND('',#93,.T.);
#114=FACE_BOUND('',#94,.T.);
#115=FACE_BOUND('',#95,.T.);
#116=FACE_BOUND('',#96,.T.);
#117=FACE_BOUND('',#97,.T.);
#118=FACE_BOUND('',#98,.T.);
#119=FACE_BOUND('',#99,.T.);
#120=FACE_BOUND('',#100,.T.);
#121=FACE_BOUND('',#101,.T.);
#122=FACE_BOUND('',#102,.T.);
#123=FACE_BOUND('',#103,.T.);
#124=FACE_BOUND('',#104,.T.);
#125=FACE_BOUND('',#105,.T.);
#126=FACE_BOUND('',#106,.T.);
#127=FACE_BOUND('',#107,.T.);
#128=CYLINDRICAL_SURFACE('',#155,1.5875);
#129=CYLINDRICAL_SURFACE('',#165,1.5875);
#130=CYLINDRICAL_SURFACE('',#166,1.5865);
#131=CYLINDRICAL_SURFACE('',#172,1.5875);
#132=ADVANCED_FACE('',(#108,#109),#128,.T.);
#133=ADVANCED_FACE('',(#110,#111),#36,.T.);
#134=ADVANCED_FACE('',(#112),#32,.F.);
#135=ADVANCED_FACE('',(#113,#114),#37,.T.);
#136=ADVANCED_FACE('',(#115,#116),#129,.T.);
#137=ADVANCED_FACE('',(#117,#118),#130,.T.);
#138=ADVANCED_FACE('',(#119),#33,.T.);
#139=ADVANCED_FACE('',(#120,#121),#38,.T.);
#140=ADVANCED_FACE('',(#122,#123),#19,.T.);
#141=ADVANCED_FACE('',(#124,#125),#131,.T.);
#142=ADVANCED_FACE('',(#126),#34,.T.);
#143=ADVANCED_FACE('',(#127),#35,.T.);
#144=CLOSED_SHELL('',(#132,#133,#134,#135,#136,#137,#138,#139));
#145=CLOSED_SHELL('',(#140,#141,#142,#143));
#146=MANIFOLD_SOLID_BREP('1',#144);
#147=MANIFOLD_SOLID_BREP('1',#145);
#148=SHAPE_DEFINITION_REPRESENTATION(#298,#151);
#149=SHAPE_DEFINITION_REPRESENTATION(#299,#152);
#150=SHAPE_DEFINITION_REPRESENTATION(#301,#153);
#151=SHAPE_REPRESENTATION('3160 3.170',(#154,#170,#176),#289);
#152=SHAPE_REPRESENTATION('3160 3.170_PART1',(#154),#290);
#153=SHAPE_REPRESENTATION('3160 3.170_PART2',(#154),#291);
#154=AXIS2_PLACEMENT_3D('',#223,#177,#178);
#155=AXIS2_PLACEMENT_3D('',#224,#179,#180);
#156=AXIS2_PLACEMENT_3D('',#225,#181,#182);
#157=AXIS2_PLACEMENT_3D('',#227,#183,#184);
#158=AXIS2_PLACEMENT_3D('',#229,#185,#186);
#159=AXIS2_PLACEMENT_3D('',#230,#187,#188);
#160=AXIS2_PLACEMENT_3D('',#232,#189,#190);
#161=AXIS2_PLACEMENT_3D('',#233,#191,#192);
#162=AXIS2_PLACEMENT_3D('',#235,#193,#194);
#163=AXIS2_PLACEMENT_3D('',#236,#195,#196);
#164=AXIS2_PLACEMENT_3D('',#238,#197,#198);
#165=AXIS2_PLACEMENT_3D('',#240,#199,#200);
#166=AXIS2_PLACEMENT_3D('',#241,#201,#202);
#167=AXIS2_PLACEMENT_3D('',#242,#203,#204);
#168=AXIS2_PLACEMENT_3D('',#244,#205,#206);
#169=AXIS2_PLACEMENT_3D('',#245,#207,#208);
#170=AXIS2_PLACEMENT_3D('',#246,#209,#210);
#171=AXIS2_PLACEMENT_3D('',#275,#211,#212);
#172=AXIS2_PLACEMENT_3D('',#283,#213,#214);
#173=AXIS2_PLACEMENT_3D('',#284,#215,#216);
#174=AXIS2_PLACEMENT_3D('',#286,#217,#218);
#175=AXIS2_PLACEMENT_3D('',#287,#219,#220);
#176=AXIS2_PLACEMENT_3D('',#288,#221,#222);
#177=DIRECTION('',(0.,0.,1.));
#178=DIRECTION('',(1.,0.,0.));
#179=DIRECTION('',(0.,0.,1.));
#180=DIRECTION('',(-1.,0.,0.));
#181=DIRECTION('',(0.,0.,1.));
#182=DIRECTION('',(1.,0.,0.));
#183=DIRECTION('',(0.,0.,-1.));
#184=DIRECTION('',(1.,0.,0.));
#185=DIRECTION('',(-4.43818329121577E-17,0.,-1.));
#186=DIRECTION('',(-1.,0.,4.43818329121577E-17));
#187=DIRECTION('',(0.,0.,1.));
#188=DIRECTION('',(1.,0.,0.));
#189=DIRECTION('',(0.,0.,1.));
#190=DIRECTION('',(1.,0.,0.));
#191=DIRECTION('',(0.,0.,-1.));
#192=DIRECTION('',(1.,0.,0.));
#193=DIRECTION('',(0.,0.,-1.));
#194=DIRECTION('',(0.,-1.,0.));
#195=DIRECTION('',(0.,0.,-1.));
#196=DIRECTION('',(0.,-1.,0.));
#197=DIRECTION('',(0.,0.,-1.));
#198=DIRECTION('',(0.,-1.,0.));
#199=DIRECTION('',(0.,0.,1.));
#200=DIRECTION('',(-1.,0.,0.));
#201=DIRECTION('',(0.,0.,1.));
#202=DIRECTION('',(0.,-1.,0.));
#203=DIRECTION('',(0.,0.,-1.));
#204=DIRECTION('',(0.,-1.,0.));
#205=DIRECTION('',(0.,0.,1.));
#206=DIRECTION('',(1.,0.,0.));
#207=DIRECTION('',(0.,0.,1.));
#208=DIRECTION('',(0.,1.,0.));
#209=DIRECTION('',(0.,0.,1.));
#210=DIRECTION('',(1.,0.,0.));
#211=DIRECTION('',(0.,0.,1.));
#212=DIRECTION('',(1.,0.,0.));
#213=DIRECTION('',(0.,0.,1.));
#214=DIRECTION('',(0.,-1.,0.));
#215=DIRECTION('',(0.,0.,-1.));
#216=DIRECTION('',(1.,0.,0.));
#217=DIRECTION('',(0.,4.17966315152999E-16,-1.));
#218=DIRECTION('',(-1.,0.,0.));
#219=DIRECTION('',(0.,0.,1.));
#220=DIRECTION('',(1.,0.,0.));
#221=DIRECTION('',(0.,0.,1.));
#222=DIRECTION('',(1.,0.,0.));
#223=CARTESIAN_POINT('',(0.,0.,0.));
#224=CARTESIAN_POINT('',(0.,0.,0.));
#225=CARTESIAN_POINT('',(0.,0.,-33.80000000001));
#226=CARTESIAN_POINT('',(1.5875,0.,-33.80000000001));
#227=CARTESIAN_POINT('',(0.,0.,-0.40000000001));
#228=CARTESIAN_POINT('',(1.5875,0.,-0.40000000001));
#229=CARTESIAN_POINT('',(0.,0.,-0.4));
#230=CARTESIAN_POINT('',(0.,0.,0.));
#231=CARTESIAN_POINT('',(1.1875,0.,0.));
#232=CARTESIAN_POINT('',(0.,0.,-38.3));
#233=CARTESIAN_POINT('',(0.,-1.0012330006297E-11,-38.30000000001));
#234=CARTESIAN_POINT('',(1.5875,-1.0012330006297E-11,-38.30000000001));
#235=CARTESIAN_POINT('',(0.,-1.42064264434567E-14,-33.8105948053341));
#236=CARTESIAN_POINT('',(0.,-1.00142064264435E-11,-33.8105948053441));
#237=CARTESIAN_POINT('',(0.,-1.58750000001001,-33.8105948053441));
#238=CARTESIAN_POINT('',(0.,-1.00142064337391E-11,-33.8105773502792));
#239=CARTESIAN_POINT('',(0.,-1.58650000001001,-33.8105773502792));
#240=CARTESIAN_POINT('',(0.,0.,0.));
#241=CARTESIAN_POINT('',(0.,-1.4210854715202E-14,-33.8));
#242=CARTESIAN_POINT('',(0.,-1.00142106134022E-11,-33.8005773502792));
#243=CARTESIAN_POINT('',(0.,-1.58650000001001,-33.8005773502792));
#244=CARTESIAN_POINT('',(0.,0.,0.));
#245=CARTESIAN_POINT('',(0.,-1.42106134022374E-14,-33.8005773502692));
#246=CARTESIAN_POINT('',(0.,0.,0.));
#247=CARTESIAN_POINT('',(1.5875,0.,-49.213));
#248=CARTESIAN_POINT('',(1.5875,3.175,-49.213));
#249=CARTESIAN_POINT('',(-1.5875,3.175,-49.213));
#250=CARTESIAN_POINT('',(-1.5875,0.,-49.213));
#251=CARTESIAN_POINT('',(-1.5875,-3.175,-49.213));
#252=CARTESIAN_POINT('',(1.5875,-3.175,-49.213));
#253=CARTESIAN_POINT('',(1.5875,0.,-49.213));
#254=CARTESIAN_POINT('',(1.5875,0.,-50.1426430765139));
#255=CARTESIAN_POINT('',(1.5875,3.175,-50.1426430765139));
#256=CARTESIAN_POINT('',(-1.5875,3.175,-50.1426430765139));
#257=CARTESIAN_POINT('',(-1.5875,0.,-50.1426430765139));
#258=CARTESIAN_POINT('',(-1.5875,-3.175,-50.1426430765139));
#259=CARTESIAN_POINT('',(1.5875,-3.175,-50.1426430765139));
#260=CARTESIAN_POINT('',(1.5875,0.,-50.1426430765139));
#261=CARTESIAN_POINT('',(0.930143076513899,0.,-50.8));
#262=CARTESIAN_POINT('',(0.930143076513899,1.8602861530278,-50.8));
#263=CARTESIAN_POINT('',(-0.930143076513899,1.8602861530278,-50.8));
#264=CARTESIAN_POINT('',(-0.930143076513899,0.,-50.8));
#265=CARTESIAN_POINT('',(-0.930143076513899,-1.8602861530278,-50.8));
#266=CARTESIAN_POINT('',(0.930143076513899,-1.8602861530278,-50.8));
#267=CARTESIAN_POINT('',(0.930143076513899,0.,-50.8));
#268=CARTESIAN_POINT('',(0.,0.,-50.8));
#269=CARTESIAN_POINT('',(0.,0.0010000000000029,-50.8));
#270=CARTESIAN_POINT('',(0.,0.0010000000000029,-50.8));
#271=CARTESIAN_POINT('',(0.,0.,-50.8));
#272=CARTESIAN_POINT('',(0.,-0.0010000000000029,-50.8));
#273=CARTESIAN_POINT('',(0.,-0.0010000000000029,-50.8));
#274=CARTESIAN_POINT('',(0.,0.,-50.8));
#275=CARTESIAN_POINT('',(0.,-1.4210854715202E-14,-49.21300000001));
#276=CARTESIAN_POINT('',(1.5875,-1.4210854715202E-14,-49.21300000001));
#277=CARTESIAN_POINT('',(0.0015,-6.12323441356001E-20,-50.8));
#278=CARTESIAN_POINT('',(-0.0015,1.22464675735707E-19,-50.8));
#279=CARTESIAN_POINT('',(0.0015,-6.12323441356001E-20,-50.8));
#280=CARTESIAN_POINT('',(-0.0015,1.22464675735707E-19,-50.8));
#281=CARTESIAN_POINT('',(0.0015,-6.12323441356001E-20,-50.8));
#282=CARTESIAN_POINT('',(-0.000499999975234444,0.,-50.7999999213197));
#283=CARTESIAN_POINT('',(0.,-1.4210854715202E-14,-33.8));
#284=CARTESIAN_POINT('',(0.,-1.0012330006297E-11,-38.30000000001));
#285=CARTESIAN_POINT('',(1.5875,-1.0012330006297E-11,-38.30000000001));
#286=CARTESIAN_POINT('',(0.,-7.105427357601E-15,-50.8));
#287=CARTESIAN_POINT('',(0.,0.,-38.3));
#288=CARTESIAN_POINT('',(0.,0.,0.));
#289=(
GEOMETRIC_REPRESENTATION_CONTEXT(3)
GLOBAL_UNCERTAINTY_ASSIGNED_CONTEXT((#292))
GLOBAL_UNIT_ASSIGNED_CONTEXT((#297,#296,#295))
REPRESENTATION_CONTEXT('3160 3.170','TOP_LEVEL_ASSEMBLY_PART')
);
#290=(
GEOMETRIC_REPRESENTATION_CONTEXT(3)
GLOBAL_UNCERTAINTY_ASSIGNED_CONTEXT((#293))
GLOBAL_UNIT_ASSIGNED_CONTEXT((#297,#296,#295))
REPRESENTATION_CONTEXT('3160 3.170_PART1','COMPONENT_PART')
);
#291=(
GEOMETRIC_REPRESENTATION_CONTEXT(3)
GLOBAL_UNCERTAINTY_ASSIGNED_CONTEXT((#294))
GLOBAL_UNIT_ASSIGNED_CONTEXT((#297,#296,#295))
REPRESENTATION_CONTEXT('3160 3.170_PART2','COMPONENT_PART')
);
#292=UNCERTAINTY_MEASURE_WITH_UNIT(LENGTH_MEASURE(1.E-5),#297,
'DISTANCE_ACCURACY_VALUE','Maximum Tolerance applied to model');
#293=UNCERTAINTY_MEASURE_WITH_UNIT(LENGTH_MEASURE(1.E-5),#297,
'DISTANCE_ACCURACY_VALUE','Maximum Tolerance applied to model');
#294=UNCERTAINTY_MEASURE_WITH_UNIT(LENGTH_MEASURE(1.E-5),#297,
'DISTANCE_ACCURACY_VALUE','Maximum Tolerance applied to model');
#295=(
NAMED_UNIT(*)
SI_UNIT($,.STERADIAN.)
SOLID_ANGLE_UNIT()
);
#296=(
NAMED_UNIT(*)
PLANE_ANGLE_UNIT()
SI_UNIT($,.RADIAN.)
);
#297=(
LENGTH_UNIT()
NAMED_UNIT(*)
SI_UNIT(.MILLI.,.METRE.)
);
#298=PRODUCT_DEFINITION_SHAPE('','',#303);
#299=PRODUCT_DEFINITION_SHAPE('','',#304);
#300=PRODUCT_DEFINITION_SHAPE(' ','NAUO PRDDFN',#22);
#301=PRODUCT_DEFINITION_SHAPE('','',#305);
#302=PRODUCT_DEFINITION_SHAPE(' ','NAUO PRDDFN',#23);
#303=PRODUCT_DEFINITION('','',#309,#306);
#304=PRODUCT_DEFINITION('','',#310,#307);
#305=PRODUCT_DEFINITION('','',#311,#308);
#306=DESIGN_CONTEXT('',#325,'design');
#307=DESIGN_CONTEXT('',#325,'design');
#308=DESIGN_CONTEXT('',#325,'design');
#309=PRODUCT_DEFINITION_FORMATION_WITH_SPECIFIED_SOURCE('','',#315,
 .NOT_KNOWN.);
#310=PRODUCT_DEFINITION_FORMATION_WITH_SPECIFIED_SOURCE('','',#316,
 .NOT_KNOWN.);
#311=PRODUCT_DEFINITION_FORMATION_WITH_SPECIFIED_SOURCE('','',#317,
 .NOT_KNOWN.);
#312=PRODUCT_RELATED_PRODUCT_CATEGORY('','',(#315));
#313=PRODUCT_RELATED_PRODUCT_CATEGORY('','',(#316));
#314=PRODUCT_RELATED_PRODUCT_CATEGORY('','',(#317));
#315=PRODUCT('3160 3.170','3160 3.170','3160 3.170',(#321));
#316=PRODUCT('3160 3.170_PART1','3160 3.170_PART1','3160 3.170_PART1',(#322));
#317=PRODUCT('3160 3.170_PART2','3160 3.170_PART2','3160 3.170_PART2',(#323));
#318=PRODUCT_CATEGORY('','');
#319=PRODUCT_CATEGORY('','');
#320=PRODUCT_CATEGORY('','');
#321=MECHANICAL_CONTEXT('',#325,'mechanical');
#322=MECHANICAL_CONTEXT('',#325,'mechanical');
#323=MECHANICAL_CONTEXT('',#325,'mechanical');
#324=APPLICATION_PROTOCOL_DEFINITION('international standard',
'config_control_design',2010,#325);
#325=APPLICATION_CONTEXT(
'configuration controlled 3D designs of mechanical parts and assemblie
s');
ENDSEC;
END-ISO-10303-21;
