ISO-10303-21;
HEADER;
/* Generated by software containing ST-Developer
 * from STEP Tools, Inc. (www.steptools.com) 
 */
/* OPTION: using custom renumber hook */

FILE_DESCRIPTION(
/* description */ ('STEP AP203'),
/* implementation_level */ '2;1');

FILE_NAME(
/* name */ '3161 7.140',
/* time_stamp */ '2026-05-15T14:46:57+02:00',
/* author */ ('License CC BY-ND 4.0'),
/* organization */ ('CADENAS'),
/* preprocessor_version */ 'ST-DEVELOPER v20',
/* originating_system */ 'PARTsolutions',
/* authorisation */ '  ');

FILE_SCHEMA (('CONFIG_CONTROL_DESIGN'));
ENDSEC;

DATA;
#10=PROPERTY_DEFINITION_REPRESENTATION(#14,#12);
#11=PROPERTY_DEFINITION_REPRESENTATION(#15,#13);
#12=REPRESENTATION('',(#16),#244);
#13=REPRESENTATION('',(#17),#244);
#14=PROPERTY_DEFINITION('pmi validation property','',#253);
#15=PROPERTY_DEFINITION('pmi validation property','',#253);
#16=VALUE_REPRESENTATION_ITEM('number of annotations',COUNT_MEASURE(0.));
#17=VALUE_REPRESENTATION_ITEM('number of views',COUNT_MEASURE(0.));
#18=SPHERICAL_SURFACE('',#163,3.572);
#19=CONTEXT_DEPENDENT_SHAPE_REPRESENTATION(#23,#255);
#20=CONTEXT_DEPENDENT_SHAPE_REPRESENTATION(#24,#257);
#21=NEXT_ASSEMBLY_USAGE_OCCURRENCE('NAUO1','3161 7.140_PART1',
'3161 7.140_PART1',#258,#259,'');
#22=NEXT_ASSEMBLY_USAGE_OCCURRENCE('NAUO2','3161 7.140_PART2',
'3161 7.140_PART2',#258,#260,'');
#23=(
REPRESENTATION_RELATIONSHIP(' ',' ',#141,#140)
REPRESENTATION_RELATIONSHIP_WITH_TRANSFORMATION(#25)
SHAPE_REPRESENTATION_RELATIONSHIP()
);
#24=(
REPRESENTATION_RELATIONSHIP(' ',' ',#142,#140)
REPRESENTATION_RELATIONSHIP_WITH_TRANSFORMATION(#26)
SHAPE_REPRESENTATION_RELATIONSHIP()
);
#25=ITEM_DEFINED_TRANSFORMATION(' ',' ',#143,#159);
#26=ITEM_DEFINED_TRANSFORMATION(' ',' ',#143,#165);
#27=SHAPE_REPRESENTATION_RELATIONSHIP('','',#141,#29);
#28=SHAPE_REPRESENTATION_RELATIONSHIP('','',#142,#30);
#29=ADVANCED_BREP_SHAPE_REPRESENTATION('',(#135),#245);
#30=ADVANCED_BREP_SHAPE_REPRESENTATION('',(#136),#246);
#31=CYLINDRICAL_SURFACE('',#149,3.571);
#32=CYLINDRICAL_SURFACE('',#153,3.572);
#33=CYLINDRICAL_SURFACE('',#155,3.969);
#34=CYLINDRICAL_SURFACE('',#160,3.572);
#35=PLANE('',#147);
#36=PLANE('',#157);
#37=PLANE('',#164);
#38=ORIENTED_EDGE('',*,*,#56,.F.);
#39=ORIENTED_EDGE('',*,*,#57,.F.);
#40=ORIENTED_EDGE('',*,*,#58,.T.);
#41=ORIENTED_EDGE('',*,*,#59,.F.);
#42=ORIENTED_EDGE('',*,*,#56,.T.);
#43=ORIENTED_EDGE('',*,*,#60,.F.);
#44=ORIENTED_EDGE('',*,*,#59,.T.);
#45=ORIENTED_EDGE('',*,*,#60,.T.);
#46=ORIENTED_EDGE('',*,*,#61,.F.);
#47=ORIENTED_EDGE('',*,*,#57,.T.);
#48=ORIENTED_EDGE('',*,*,#62,.T.);
#49=ORIENTED_EDGE('',*,*,#61,.T.);
#50=ORIENTED_EDGE('',*,*,#62,.F.);
#51=ORIENTED_EDGE('',*,*,#58,.F.);
#52=ORIENTED_EDGE('',*,*,#63,.T.);
#53=ORIENTED_EDGE('',*,*,#64,.T.);
#54=ORIENTED_EDGE('',*,*,#64,.F.);
#55=ORIENTED_EDGE('',*,*,#63,.F.);
#56=EDGE_CURVE('',#65,#65,#74,.T.);
#57=EDGE_CURVE('',#66,#66,#75,.T.);
#58=EDGE_CURVE('',#67,#67,#76,.T.);
#59=EDGE_CURVE('',#68,#68,#77,.T.);
#60=EDGE_CURVE('',#69,#69,#78,.T.);
#61=EDGE_CURVE('',#70,#70,#79,.T.);
#62=EDGE_CURVE('',#71,#71,#80,.T.);
#63=EDGE_CURVE('',#72,#72,#81,.T.);
#64=EDGE_CURVE('',#73,#73,#82,.T.);
#65=VERTEX_POINT('',#215);
#66=VERTEX_POINT('',#217);
#67=VERTEX_POINT('',#220);
#68=VERTEX_POINT('',#223);
#69=VERTEX_POINT('',#226);
#70=VERTEX_POINT('',#229);
#71=VERTEX_POINT('',#232);
#72=VERTEX_POINT('',#238);
#73=VERTEX_POINT('',#240);
#74=CIRCLE('',#145,3.571);
#75=CIRCLE('',#146,3.969);
#76=CIRCLE('',#148,3.369);
#77=CIRCLE('',#150,3.571);
#78=CIRCLE('',#152,3.572);
#79=CIRCLE('',#154,3.572);
#80=CIRCLE('',#156,3.969);
#81=CIRCLE('',#161,3.572);
#82=CIRCLE('',#162,3.572);
#83=EDGE_LOOP('',(#38));
#84=EDGE_LOOP('',(#39));
#85=EDGE_LOOP('',(#40));
#86=EDGE_LOOP('',(#41));
#87=EDGE_LOOP('',(#42));
#88=EDGE_LOOP('',(#43));
#89=EDGE_LOOP('',(#44));
#90=EDGE_LOOP('',(#45));
#91=EDGE_LOOP('',(#46));
#92=EDGE_LOOP('',(#47));
#93=EDGE_LOOP('',(#48));
#94=EDGE_LOOP('',(#49));
#95=EDGE_LOOP('',(#50));
#96=EDGE_LOOP('',(#51));
#97=EDGE_LOOP('',(#52));
#98=EDGE_LOOP('',(#53));
#99=EDGE_LOOP('',(#54));
#100=EDGE_LOOP('',(#55));
#101=FACE_BOUND('',#83,.T.);
#102=FACE_BOUND('',#84,.T.);
#103=FACE_BOUND('',#85,.T.);
#104=FACE_BOUND('',#86,.T.);
#105=FACE_BOUND('',#87,.T.);
#106=FACE_BOUND('',#88,.T.);
#107=FACE_BOUND('',#89,.T.);
#108=FACE_BOUND('',#90,.T.);
#109=FACE_BOUND('',#91,.T.);
#110=FACE_BOUND('',#92,.T.);
#111=FACE_BOUND('',#93,.T.);
#112=FACE_BOUND('',#94,.T.);
#113=FACE_BOUND('',#95,.T.);
#114=FACE_BOUND('',#96,.T.);
#115=FACE_BOUND('',#97,.T.);
#116=FACE_BOUND('',#98,.T.);
#117=FACE_BOUND('',#99,.T.);
#118=FACE_BOUND('',#100,.T.);
#119=CONICAL_SURFACE('',#144,3.571,0.5903785628);
#120=CONICAL_SURFACE('',#151,3.572,1.5533430325);
#121=CONICAL_SURFACE('',#158,3.969,0.7853981625);
#122=ADVANCED_FACE('',(#101,#102),#119,.T.);
#123=ADVANCED_FACE('',(#103),#35,.T.);
#124=ADVANCED_FACE('',(#104,#105),#31,.T.);
#125=ADVANCED_FACE('',(#106,#107),#120,.T.);
#126=ADVANCED_FACE('',(#108,#109),#32,.T.);
#127=ADVANCED_FACE('',(#110,#111),#33,.T.);
#128=ADVANCED_FACE('',(#112),#36,.F.);
#129=ADVANCED_FACE('',(#113,#114),#121,.T.);
#130=ADVANCED_FACE('',(#115,#116),#34,.T.);
#131=ADVANCED_FACE('',(#117),#18,.T.);
#132=ADVANCED_FACE('',(#118),#37,.T.);
#133=CLOSED_SHELL('',(#122,#123,#124,#125,#126,#127,#128,#129));
#134=CLOSED_SHELL('',(#130,#131,#132));
#135=MANIFOLD_SOLID_BREP('1',#133);
#136=MANIFOLD_SOLID_BREP('1',#134);
#137=SHAPE_DEFINITION_REPRESENTATION(#253,#140);
#138=SHAPE_DEFINITION_REPRESENTATION(#254,#141);
#139=SHAPE_DEFINITION_REPRESENTATION(#256,#142);
#140=SHAPE_REPRESENTATION('3161 7.140',(#143,#159,#165),#244);
#141=SHAPE_REPRESENTATION('3161 7.140_PART1',(#143),#245);
#142=SHAPE_REPRESENTATION('3161 7.140_PART2',(#143),#246);
#143=AXIS2_PLACEMENT_3D('',#212,#166,#167);
#144=AXIS2_PLACEMENT_3D('',#213,#168,#169);
#145=AXIS2_PLACEMENT_3D('',#214,#170,#171);
#146=AXIS2_PLACEMENT_3D('',#216,#172,#173);
#147=AXIS2_PLACEMENT_3D('',#218,#174,#175);
#148=AXIS2_PLACEMENT_3D('',#219,#176,#177);
#149=AXIS2_PLACEMENT_3D('',#221,#178,#179);
#150=AXIS2_PLACEMENT_3D('',#222,#180,#181);
#151=AXIS2_PLACEMENT_3D('',#224,#182,#183);
#152=AXIS2_PLACEMENT_3D('',#225,#184,#185);
#153=AXIS2_PLACEMENT_3D('',#227,#186,#187);
#154=AXIS2_PLACEMENT_3D('',#228,#188,#189);
#155=AXIS2_PLACEMENT_3D('',#230,#190,#191);
#156=AXIS2_PLACEMENT_3D('',#231,#192,#193);
#157=AXIS2_PLACEMENT_3D('',#233,#194,#195);
#158=AXIS2_PLACEMENT_3D('',#234,#196,#197);
#159=AXIS2_PLACEMENT_3D('',#235,#198,#199);
#160=AXIS2_PLACEMENT_3D('',#236,#200,#201);
#161=AXIS2_PLACEMENT_3D('',#237,#202,#203);
#162=AXIS2_PLACEMENT_3D('',#239,#204,#205);
#163=AXIS2_PLACEMENT_3D('',#241,#206,#207);
#164=AXIS2_PLACEMENT_3D('',#242,#208,#209);
#165=AXIS2_PLACEMENT_3D('',#243,#210,#211);
#166=DIRECTION('',(0.,0.,1.));
#167=DIRECTION('',(1.,0.,0.));
#168=DIRECTION('',(0.,0.,1.));
#169=DIRECTION('',(0.,1.,0.));
#170=DIRECTION('',(0.,0.,-1.));
#171=DIRECTION('',(0.,-1.,0.));
#172=DIRECTION('',(0.,0.,1.));
#173=DIRECTION('',(1.,0.,0.));
#174=DIRECTION('',(0.,0.,1.));
#175=DIRECTION('',(1.,0.,0.));
#176=DIRECTION('',(0.,0.,1.));
#177=DIRECTION('',(1.,0.,0.));
#178=DIRECTION('',(0.,0.,1.));
#179=DIRECTION('',(0.,-1.,0.));
#180=DIRECTION('',(0.,0.,-1.));
#181=DIRECTION('',(0.,-1.,0.));
#182=DIRECTION('',(0.,0.,-1.));
#183=DIRECTION('',(0.,-1.,0.));
#184=DIRECTION('',(0.,0.,-1.));
#185=DIRECTION('',(0.,-1.,0.));
#186=DIRECTION('',(0.,0.,1.));
#187=DIRECTION('',(0.,-1.,0.));
#188=DIRECTION('',(0.,0.,-1.));
#189=DIRECTION('',(1.,0.,0.));
#190=DIRECTION('',(0.,0.,1.));
#191=DIRECTION('',(-1.,0.,0.));
#192=DIRECTION('',(0.,0.,-1.));
#193=DIRECTION('',(1.,0.,0.));
#194=DIRECTION('',(0.,0.,1.));
#195=DIRECTION('',(1.,0.,0.));
#196=DIRECTION('',(-6.61988499379577E-17,0.,-1.));
#197=DIRECTION('',(-1.,0.,6.61988499379577E-17));
#198=DIRECTION('',(0.,0.,1.));
#199=DIRECTION('',(1.,0.,0.));
#200=DIRECTION('',(0.,0.,1.));
#201=DIRECTION('',(0.,-1.,0.));
#202=DIRECTION('',(0.,0.,-1.));
#203=DIRECTION('',(1.,0.,0.));
#204=DIRECTION('',(0.,0.,1.));
#205=DIRECTION('',(1.,0.,0.));
#206=DIRECTION('',(0.,0.,1.));
#207=DIRECTION('',(0.,1.,0.));
#208=DIRECTION('',(0.,0.,1.));
#209=DIRECTION('',(1.,0.,0.));
#210=DIRECTION('',(0.,0.,1.));
#211=DIRECTION('',(1.,0.,0.));
#212=CARTESIAN_POINT('',(0.,0.,0.));
#213=CARTESIAN_POINT('',(0.,-1.40545517336319E-14,-37.093937604313));
#214=CARTESIAN_POINT('',(0.,-1.00140545517336E-11,-37.093937604323));
#215=CARTESIAN_POINT('',(0.,-3.57100000001001,-37.093937604323));
#216=CARTESIAN_POINT('',(0.,0.,-36.50000000001));
#217=CARTESIAN_POINT('',(3.969,0.,-36.50000000001));
#218=CARTESIAN_POINT('',(0.,0.,0.));
#219=CARTESIAN_POINT('',(0.,0.,0.));
#220=CARTESIAN_POINT('',(3.369,0.,0.));
#221=CARTESIAN_POINT('',(0.,-1.4210854715202E-14,-36.5));
#222=CARTESIAN_POINT('',(0.,-1.00140519200939E-11,-37.103937604323));
#223=CARTESIAN_POINT('',(0.,-3.57100000001001,-37.103937604323));
#224=CARTESIAN_POINT('',(0.,-1.40519155003255E-14,-37.1039550593779));
#225=CARTESIAN_POINT('',(0.,-1.00140519155003E-11,-37.1039550593879));
#226=CARTESIAN_POINT('',(0.,-3.57200000001001,-37.1039550593879));
#227=CARTESIAN_POINT('',(0.,-1.4210854715202E-14,-36.5));
#228=CARTESIAN_POINT('',(0.,-1.00121055429055E-11,-44.50000000001));
#229=CARTESIAN_POINT('',(3.572,-1.00121055429055E-11,-44.50000000001));
#230=CARTESIAN_POINT('',(0.,0.,0.));
#231=CARTESIAN_POINT('',(0.,0.,-0.60000000001));
#232=CARTESIAN_POINT('',(3.969,0.,-0.60000000001));
#233=CARTESIAN_POINT('',(0.,0.,-44.5));
#234=CARTESIAN_POINT('',(0.,0.,-0.6));
#235=CARTESIAN_POINT('',(0.,0.,0.));
#236=CARTESIAN_POINT('',(0.,-1.4210854715202E-14,-36.5));
#237=CARTESIAN_POINT('',(0.,-1.00121055429055E-11,-44.50000000001));
#238=CARTESIAN_POINT('',(3.572,-1.00121055429055E-11,-44.50000000001));
#239=CARTESIAN_POINT('',(0.,0.,-59.92800000001));
#240=CARTESIAN_POINT('',(3.572,0.,-59.92800000001));
#241=CARTESIAN_POINT('',(0.,0.,-59.928));
#242=CARTESIAN_POINT('',(0.,0.,-44.5));
#243=CARTESIAN_POINT('',(0.,0.,0.));
#244=(
GEOMETRIC_REPRESENTATION_CONTEXT(3)
GLOBAL_UNCERTAINTY_ASSIGNED_CONTEXT((#247))
GLOBAL_UNIT_ASSIGNED_CONTEXT((#252,#251,#250))
REPRESENTATION_CONTEXT('3161 7.140','TOP_LEVEL_ASSEMBLY_PART')
);
#245=(
GEOMETRIC_REPRESENTATION_CONTEXT(3)
GLOBAL_UNCERTAINTY_ASSIGNED_CONTEXT((#248))
GLOBAL_UNIT_ASSIGNED_CONTEXT((#252,#251,#250))
REPRESENTATION_CONTEXT('3161 7.140_PART1','COMPONENT_PART')
);
#246=(
GEOMETRIC_REPRESENTATION_CONTEXT(3)
GLOBAL_UNCERTAINTY_ASSIGNED_CONTEXT((#249))
GLOBAL_UNIT_ASSIGNED_CONTEXT((#252,#251,#250))
REPRESENTATION_CONTEXT('3161 7.140_PART2','COMPONENT_PART')
);
#247=UNCERTAINTY_MEASURE_WITH_UNIT(LENGTH_MEASURE(1.E-5),#252,
'DISTANCE_ACCURACY_VALUE','Maximum Tolerance applied to model');
#248=UNCERTAINTY_MEASURE_WITH_UNIT(LENGTH_MEASURE(1.E-5),#252,
'DISTANCE_ACCURACY_VALUE','Maximum Tolerance applied to model');
#249=UNCERTAINTY_MEASURE_WITH_UNIT(LENGTH_MEASURE(1.E-5),#252,
'DISTANCE_ACCURACY_VALUE','Maximum Tolerance applied to model');
#250=(
NAMED_UNIT(*)
SI_UNIT($,.STERADIAN.)
SOLID_ANGLE_UNIT()
);
#251=(
NAMED_UNIT(*)
PLANE_ANGLE_UNIT()
SI_UNIT($,.RADIAN.)
);
#252=(
LENGTH_UNIT()
NAMED_UNIT(*)
SI_UNIT(.MILLI.,.METRE.)
);
#253=PRODUCT_DEFINITION_SHAPE('','',#258);
#254=PRODUCT_DEFINITION_SHAPE('','',#259);
#255=PRODUCT_DEFINITION_SHAPE(' ','NAUO PRDDFN',#21);
#256=PRODUCT_DEFINITION_SHAPE('','',#260);
#257=PRODUCT_DEFINITION_SHAPE(' ','NAUO PRDDFN',#22);
#258=PRODUCT_DEFINITION('','',#264,#261);
#259=PRODUCT_DEFINITION('','',#265,#262);
#260=PRODUCT_DEFINITION('','',#266,#263);
#261=DESIGN_CONTEXT('',#280,'design');
#262=DESIGN_CONTEXT('',#280,'design');
#263=DESIGN_CONTEXT('',#280,'design');
#264=PRODUCT_DEFINITION_FORMATION_WITH_SPECIFIED_SOURCE('','',#270,
 .NOT_KNOWN.);
#265=PRODUCT_DEFINITION_FORMATION_WITH_SPECIFIED_SOURCE('','',#271,
 .NOT_KNOWN.);
#266=PRODUCT_DEFINITION_FORMATION_WITH_SPECIFIED_SOURCE('','',#272,
 .NOT_KNOWN.);
#267=PRODUCT_RELATED_PRODUCT_CATEGORY('','',(#270));
#268=PRODUCT_RELATED_PRODUCT_CATEGORY('','',(#271));
#269=PRODUCT_RELATED_PRODUCT_CATEGORY('','',(#272));
#270=PRODUCT('3161 7.140','3161 7.140','3161 7.140',(#276));
#271=PRODUCT('3161 7.140_PART1','3161 7.140_PART1','3161 7.140_PART1',(#277));
#272=PRODUCT('3161 7.140_PART2','3161 7.140_PART2','3161 7.140_PART2',(#278));
#273=PRODUCT_CATEGORY('','');
#274=PRODUCT_CATEGORY('','');
#275=PRODUCT_CATEGORY('','');
#276=MECHANICAL_CONTEXT('',#280,'mechanical');
#277=MECHANICAL_CONTEXT('',#280,'mechanical');
#278=MECHANICAL_CONTEXT('',#280,'mechanical');
#279=APPLICATION_PROTOCOL_DEFINITION('international standard',
'config_control_design',2010,#280);
#280=APPLICATION_CONTEXT(
'configuration controlled 3D designs of mechanical parts and assemblie
s');
ENDSEC;
END-ISO-10303-21;
