ISO-10303-21;
HEADER;
/* Generated by software containing ST-Developer
 * from STEP Tools, Inc. (www.steptools.com) 
 */
/* OPTION: using custom renumber hook */

FILE_DESCRIPTION(
/* description */ ('STEP AP203'),
/* implementation_level */ '2;1');

FILE_NAME(
/* name */ '3162 15.870',
/* time_stamp */ '2026-05-15T14:47:09+02:00',
/* author */ ('License CC BY-ND 4.0'),
/* organization */ ('CADENAS'),
/* preprocessor_version */ 'ST-DEVELOPER v20',
/* originating_system */ 'PARTsolutions',
/* authorisation */ '  ');

FILE_SCHEMA (('CONFIG_CONTROL_DESIGN'));
ENDSEC;

DATA;
#10=PROPERTY_DEFINITION_REPRESENTATION(#14,#12);
#11=PROPERTY_DEFINITION_REPRESENTATION(#15,#13);
#12=REPRESENTATION('',(#16),#251);
#13=REPRESENTATION('',(#17),#251);
#14=PROPERTY_DEFINITION('pmi validation property','',#260);
#15=PROPERTY_DEFINITION('pmi validation property','',#260);
#16=VALUE_REPRESENTATION_ITEM('number of annotations',COUNT_MEASURE(0.));
#17=VALUE_REPRESENTATION_ITEM('number of views',COUNT_MEASURE(0.));
#18=SPHERICAL_SURFACE('',#162,7.9375);
#19=B_SPLINE_CURVE_WITH_KNOTS('',3,(#236,#237,#238,#239,#240,#241,#242,
#243,#244,#245,#246),.UNSPECIFIED.,.T.,.F.,(1,1,1,1,1,1,1,1,1,1,1,1,1,1,
1),(-0.375,-0.25,-0.125,0.,0.125,0.25,0.375,0.5,0.625,0.75,0.875,1.,1.125,
1.25,1.375),.UNSPECIFIED.);
#20=CONTEXT_DEPENDENT_SHAPE_REPRESENTATION(#24,#262);
#21=CONTEXT_DEPENDENT_SHAPE_REPRESENTATION(#25,#264);
#22=NEXT_ASSEMBLY_USAGE_OCCURRENCE('NAUO1','3162 15.870_PART1',
'3162 15.870_PART1',#265,#266,'');
#23=NEXT_ASSEMBLY_USAGE_OCCURRENCE('NAUO2','3162 15.870_PART2',
'3162 15.870_PART2',#265,#267,'');
#24=(
REPRESENTATION_RELATIONSHIP(' ',' ',#141,#140)
REPRESENTATION_RELATIONSHIP_WITH_TRANSFORMATION(#26)
SHAPE_REPRESENTATION_RELATIONSHIP()
);
#25=(
REPRESENTATION_RELATIONSHIP(' ',' ',#142,#140)
REPRESENTATION_RELATIONSHIP_WITH_TRANSFORMATION(#27)
SHAPE_REPRESENTATION_RELATIONSHIP()
);
#26=ITEM_DEFINED_TRANSFORMATION(' ',' ',#143,#159);
#27=ITEM_DEFINED_TRANSFORMATION(' ',' ',#143,#164);
#28=SHAPE_REPRESENTATION_RELATIONSHIP('','',#141,#30);
#29=SHAPE_REPRESENTATION_RELATIONSHIP('','',#142,#31);
#30=ADVANCED_BREP_SHAPE_REPRESENTATION('',(#135),#252);
#31=ADVANCED_BREP_SHAPE_REPRESENTATION('',(#136),#253);
#32=CYLINDRICAL_SURFACE('',#149,7.9375);
#33=CYLINDRICAL_SURFACE('',#152,7.9375);
#34=CYLINDRICAL_SURFACE('',#156,7.9365);
#35=CYLINDRICAL_SURFACE('',#160,7.9375);
#36=PLANE('',#147);
#37=PLANE('',#151);
#38=PLANE('',#163);
#39=ORIENTED_EDGE('',*,*,#57,.F.);
#40=ORIENTED_EDGE('',*,*,#58,.F.);
#41=ORIENTED_EDGE('',*,*,#59,.T.);
#42=ORIENTED_EDGE('',*,*,#60,.T.);
#43=ORIENTED_EDGE('',*,*,#57,.T.);
#44=ORIENTED_EDGE('',*,*,#58,.T.);
#45=ORIENTED_EDGE('',*,*,#61,.T.);
#46=ORIENTED_EDGE('',*,*,#59,.F.);
#47=ORIENTED_EDGE('',*,*,#61,.F.);
#48=ORIENTED_EDGE('',*,*,#62,.T.);
#49=ORIENTED_EDGE('',*,*,#62,.F.);
#50=ORIENTED_EDGE('',*,*,#63,.T.);
#51=ORIENTED_EDGE('',*,*,#63,.F.);
#52=ORIENTED_EDGE('',*,*,#60,.F.);
#53=ORIENTED_EDGE('',*,*,#64,.T.);
#54=ORIENTED_EDGE('',*,*,#65,.T.);
#55=ORIENTED_EDGE('',*,*,#65,.F.);
#56=ORIENTED_EDGE('',*,*,#64,.F.);
#57=EDGE_CURVE('',#66,#66,#75,.T.);
#58=EDGE_CURVE('',#67,#67,#76,.T.);
#59=EDGE_CURVE('',#68,#68,#77,.T.);
#60=EDGE_CURVE('',#69,#69,#78,.T.);
#61=EDGE_CURVE('',#70,#70,#79,.T.);
#62=EDGE_CURVE('',#71,#71,#80,.T.);
#63=EDGE_CURVE('',#72,#72,#81,.T.);
#64=EDGE_CURVE('',#73,#73,#82,.T.);
#65=EDGE_CURVE('',#74,#74,#19,.T.);
#66=VERTEX_POINT('',#212);
#67=VERTEX_POINT('',#214);
#68=VERTEX_POINT('',#217);
#69=VERTEX_POINT('',#220);
#70=VERTEX_POINT('',#224);
#71=VERTEX_POINT('',#227);
#72=VERTEX_POINT('',#230);
#73=VERTEX_POINT('',#235);
#74=VERTEX_POINT('',#247);
#75=CIRCLE('',#145,7.9375);
#76=CIRCLE('',#146,7.1875);
#77=CIRCLE('',#148,7.9375);
#78=CIRCLE('',#150,7.9375);
#79=CIRCLE('',#153,7.9375);
#80=CIRCLE('',#155,7.9365);
#81=CIRCLE('',#157,7.9365);
#82=CIRCLE('',#161,7.9375);
#83=EDGE_LOOP('',(#39));
#84=EDGE_LOOP('',(#40));
#85=EDGE_LOOP('',(#41));
#86=EDGE_LOOP('',(#42));
#87=EDGE_LOOP('',(#43));
#88=EDGE_LOOP('',(#44));
#89=EDGE_LOOP('',(#45));
#90=EDGE_LOOP('',(#46));
#91=EDGE_LOOP('',(#47));
#92=EDGE_LOOP('',(#48));
#93=EDGE_LOOP('',(#49));
#94=EDGE_LOOP('',(#50));
#95=EDGE_LOOP('',(#51));
#96=EDGE_LOOP('',(#52));
#97=EDGE_LOOP('',(#53));
#98=EDGE_LOOP('',(#54));
#99=EDGE_LOOP('',(#55));
#100=EDGE_LOOP('',(#56));
#101=FACE_BOUND('',#83,.T.);
#102=FACE_BOUND('',#84,.T.);
#103=FACE_BOUND('',#85,.T.);
#104=FACE_BOUND('',#86,.T.);
#105=FACE_BOUND('',#87,.T.);
#106=FACE_BOUND('',#88,.T.);
#107=FACE_BOUND('',#89,.T.);
#108=FACE_BOUND('',#90,.T.);
#109=FACE_BOUND('',#91,.T.);
#110=FACE_BOUND('',#92,.T.);
#111=FACE_BOUND('',#93,.T.);
#112=FACE_BOUND('',#94,.T.);
#113=FACE_BOUND('',#95,.T.);
#114=FACE_BOUND('',#96,.T.);
#115=FACE_BOUND('',#97,.T.);
#116=FACE_BOUND('',#98,.T.);
#117=FACE_BOUND('',#99,.T.);
#118=FACE_BOUND('',#100,.T.);
#119=CONICAL_SURFACE('',#144,7.9375,0.7853981625);
#120=CONICAL_SURFACE('',#154,7.9375,1.5533430325);
#121=CONICAL_SURFACE('',#158,7.9365,1.04719755);
#122=ADVANCED_FACE('',(#101,#102),#119,.T.);
#123=ADVANCED_FACE('',(#103),#36,.F.);
#124=ADVANCED_FACE('',(#104,#105),#32,.T.);
#125=ADVANCED_FACE('',(#106),#37,.T.);
#126=ADVANCED_FACE('',(#107,#108),#33,.T.);
#127=ADVANCED_FACE('',(#109,#110),#120,.T.);
#128=ADVANCED_FACE('',(#111,#112),#34,.T.);
#129=ADVANCED_FACE('',(#113,#114),#121,.T.);
#130=ADVANCED_FACE('',(#115,#116),#35,.T.);
#131=ADVANCED_FACE('',(#117),#18,.T.);
#132=ADVANCED_FACE('',(#118),#38,.T.);
#133=CLOSED_SHELL('',(#122,#123,#124,#125,#126,#127,#128,#129));
#134=CLOSED_SHELL('',(#130,#131,#132));
#135=MANIFOLD_SOLID_BREP('1',#133);
#136=MANIFOLD_SOLID_BREP('1',#134);
#137=SHAPE_DEFINITION_REPRESENTATION(#260,#140);
#138=SHAPE_DEFINITION_REPRESENTATION(#261,#141);
#139=SHAPE_DEFINITION_REPRESENTATION(#263,#142);
#140=SHAPE_REPRESENTATION('3162 15.870',(#143,#159,#164),#251);
#141=SHAPE_REPRESENTATION('3162 15.870_PART1',(#143),#252);
#142=SHAPE_REPRESENTATION('3162 15.870_PART2',(#143),#253);
#143=AXIS2_PLACEMENT_3D('',#209,#165,#166);
#144=AXIS2_PLACEMENT_3D('',#210,#167,#168);
#145=AXIS2_PLACEMENT_3D('',#211,#169,#170);
#146=AXIS2_PLACEMENT_3D('',#213,#171,#172);
#147=AXIS2_PLACEMENT_3D('',#215,#173,#174);
#148=AXIS2_PLACEMENT_3D('',#216,#175,#176);
#149=AXIS2_PLACEMENT_3D('',#218,#177,#178);
#150=AXIS2_PLACEMENT_3D('',#219,#179,#180);
#151=AXIS2_PLACEMENT_3D('',#221,#181,#182);
#152=AXIS2_PLACEMENT_3D('',#222,#183,#184);
#153=AXIS2_PLACEMENT_3D('',#223,#185,#186);
#154=AXIS2_PLACEMENT_3D('',#225,#187,#188);
#155=AXIS2_PLACEMENT_3D('',#226,#189,#190);
#156=AXIS2_PLACEMENT_3D('',#228,#191,#192);
#157=AXIS2_PLACEMENT_3D('',#229,#193,#194);
#158=AXIS2_PLACEMENT_3D('',#231,#195,#196);
#159=AXIS2_PLACEMENT_3D('',#232,#197,#198);
#160=AXIS2_PLACEMENT_3D('',#233,#199,#200);
#161=AXIS2_PLACEMENT_3D('',#234,#201,#202);
#162=AXIS2_PLACEMENT_3D('',#248,#203,#204);
#163=AXIS2_PLACEMENT_3D('',#249,#205,#206);
#164=AXIS2_PLACEMENT_3D('',#250,#207,#208);
#165=DIRECTION('',(0.,0.,1.));
#166=DIRECTION('',(1.,0.,0.));
#167=DIRECTION('',(-8.28261348361223E-17,0.,-1.));
#168=DIRECTION('',(-1.,0.,8.28261348361223E-17));
#169=DIRECTION('',(0.,0.,-1.));
#170=DIRECTION('',(1.,0.,0.));
#171=DIRECTION('',(0.,0.,1.));
#172=DIRECTION('',(1.,0.,0.));
#173=DIRECTION('',(0.,0.,1.));
#174=DIRECTION('',(1.,0.,0.));
#175=DIRECTION('',(0.,0.,-1.));
#176=DIRECTION('',(1.,0.,0.));
#177=DIRECTION('',(0.,0.,1.));
#178=DIRECTION('',(-1.,0.,0.));
#179=DIRECTION('',(0.,0.,1.));
#180=DIRECTION('',(1.,0.,0.));
#181=DIRECTION('',(0.,0.,1.));
#182=DIRECTION('',(1.,0.,0.));
#183=DIRECTION('',(0.,0.,1.));
#184=DIRECTION('',(-1.,0.,0.));
#185=DIRECTION('',(0.,0.,-1.));
#186=DIRECTION('',(0.,-1.,0.));
#187=DIRECTION('',(0.,-8.08961794400526E-17,-1.));
#188=DIRECTION('',(0.,-1.,8.08961794400526E-17));
#189=DIRECTION('',(0.,0.,-1.));
#190=DIRECTION('',(0.,-1.,0.));
#191=DIRECTION('',(0.,0.,1.));
#192=DIRECTION('',(0.,-1.,0.));
#193=DIRECTION('',(0.,0.,-1.));
#194=DIRECTION('',(0.,-1.,0.));
#195=DIRECTION('',(0.,4.78547897920908E-17,1.));
#196=DIRECTION('',(0.,1.,-4.78547897920908E-17));
#197=DIRECTION('',(0.,0.,1.));
#198=DIRECTION('',(1.,0.,0.));
#199=DIRECTION('',(0.,0.,1.));
#200=DIRECTION('',(0.,-1.,0.));
#201=DIRECTION('',(0.,0.,-1.));
#202=DIRECTION('',(1.,0.,0.));
#203=DIRECTION('',(0.,0.,1.));
#204=DIRECTION('',(0.,1.,0.));
#205=DIRECTION('',(0.,0.,1.));
#206=DIRECTION('',(1.,0.,0.));
#207=DIRECTION('',(0.,0.,1.));
#208=DIRECTION('',(1.,0.,0.));
#209=CARTESIAN_POINT('',(0.,0.,0.));
#210=CARTESIAN_POINT('',(0.,0.,-0.750000000000001));
#211=CARTESIAN_POINT('',(0.,0.,-0.750000000010001));
#212=CARTESIAN_POINT('',(7.9375,0.,-0.750000000010001));
#213=CARTESIAN_POINT('',(0.,0.,0.));
#214=CARTESIAN_POINT('',(7.1875,0.,0.));
#215=CARTESIAN_POINT('',(0.,0.,-76.4));
#216=CARTESIAN_POINT('',(0.,-1.00151797766276E-11,-76.40000000001));
#217=CARTESIAN_POINT('',(7.9375,-1.00151797766276E-11,-76.40000000001));
#218=CARTESIAN_POINT('',(0.,0.,0.));
#219=CARTESIAN_POINT('',(0.,0.,-64.40000000001));
#220=CARTESIAN_POINT('',(7.9375,0.,-64.40000000001));
#221=CARTESIAN_POINT('',(0.,0.,0.));
#222=CARTESIAN_POINT('',(0.,0.,0.));
#223=CARTESIAN_POINT('',(0.,-1.00142117101768E-11,-64.4105948053441));
#224=CARTESIAN_POINT('',(0.,-7.93750000001002,-64.4105948053441));
#225=CARTESIAN_POINT('',(0.,-1.42117101767892E-14,-64.4105948053341));
#226=CARTESIAN_POINT('',(0.,-1.00142117087674E-11,-64.4105773502792));
#227=CARTESIAN_POINT('',(0.,-7.93650000001002,-64.4105773502792));
#228=CARTESIAN_POINT('',(0.,-1.4210854715202E-14,-64.4));
#229=CARTESIAN_POINT('',(0.,-1.00142109013325E-11,-64.4005773502792));
#230=CARTESIAN_POINT('',(0.,-7.93650000001002,-64.4005773502792));
#231=CARTESIAN_POINT('',(0.,-1.42109013324792E-14,-64.4005773502692));
#232=CARTESIAN_POINT('',(0.,0.,0.));
#233=CARTESIAN_POINT('',(0.,-1.4210854715202E-14,-64.4));
#234=CARTESIAN_POINT('',(0.,-1.00151797766276E-11,-76.40000000001));
#235=CARTESIAN_POINT('',(7.9375,-1.00151797766276E-11,-76.40000000001));
#236=CARTESIAN_POINT('',(6.2199172725741,-6.2199172725741,-144.551094051439));
#237=CARTESIAN_POINT('',(8.79629136371295,1.19262238973405E-15,-144.551094051439));
#238=CARTESIAN_POINT('',(6.21991727257408,6.21991727257409,-144.551094051439));
#239=CARTESIAN_POINT('',(-1.44198888940572E-14,8.79629136371294,-144.551094051439));
#240=CARTESIAN_POINT('',(-6.21991727257411,6.21991727257407,-144.551094051439));
#241=CARTESIAN_POINT('',(-8.79629136371295,-2.87669329546505E-14,-144.551094051439));
#242=CARTESIAN_POINT('',(-6.21991727257408,-6.21991727257412,-144.551094051439));
#243=CARTESIAN_POINT('',(1.31188462870746E-14,-8.79629136371297,-144.551094051439));
#244=CARTESIAN_POINT('',(6.2199172725741,-6.2199172725741,-144.551094051439));
#245=CARTESIAN_POINT('',(8.79629136371295,1.19262238973405E-15,-144.551094051439));
#246=CARTESIAN_POINT('',(6.21991727257408,6.21991727257409,-144.551094051439));
#247=CARTESIAN_POINT('',(7.9375,-5.97054000874119E-16,-144.551094051439));
#248=CARTESIAN_POINT('',(-2.47969581282266E-7,-7.53469182745273E-20,-144.46276733898));
#249=CARTESIAN_POINT('',(0.,0.,-76.4));
#250=CARTESIAN_POINT('',(0.,0.,0.));
#251=(
GEOMETRIC_REPRESENTATION_CONTEXT(3)
GLOBAL_UNCERTAINTY_ASSIGNED_CONTEXT((#254))
GLOBAL_UNIT_ASSIGNED_CONTEXT((#259,#258,#257))
REPRESENTATION_CONTEXT('3162 15.870','TOP_LEVEL_ASSEMBLY_PART')
);
#252=(
GEOMETRIC_REPRESENTATION_CONTEXT(3)
GLOBAL_UNCERTAINTY_ASSIGNED_CONTEXT((#255))
GLOBAL_UNIT_ASSIGNED_CONTEXT((#259,#258,#257))
REPRESENTATION_CONTEXT('3162 15.870_PART1','COMPONENT_PART')
);
#253=(
GEOMETRIC_REPRESENTATION_CONTEXT(3)
GLOBAL_UNCERTAINTY_ASSIGNED_CONTEXT((#256))
GLOBAL_UNIT_ASSIGNED_CONTEXT((#259,#258,#257))
REPRESENTATION_CONTEXT('3162 15.870_PART2','COMPONENT_PART')
);
#254=UNCERTAINTY_MEASURE_WITH_UNIT(LENGTH_MEASURE(1.E-5),#259,
'DISTANCE_ACCURACY_VALUE','Maximum Tolerance applied to model');
#255=UNCERTAINTY_MEASURE_WITH_UNIT(LENGTH_MEASURE(1.E-5),#259,
'DISTANCE_ACCURACY_VALUE','Maximum Tolerance applied to model');
#256=UNCERTAINTY_MEASURE_WITH_UNIT(LENGTH_MEASURE(1.E-5),#259,
'DISTANCE_ACCURACY_VALUE','Maximum Tolerance applied to model');
#257=(
NAMED_UNIT(*)
SI_UNIT($,.STERADIAN.)
SOLID_ANGLE_UNIT()
);
#258=(
NAMED_UNIT(*)
PLANE_ANGLE_UNIT()
SI_UNIT($,.RADIAN.)
);
#259=(
LENGTH_UNIT()
NAMED_UNIT(*)
SI_UNIT(.MILLI.,.METRE.)
);
#260=PRODUCT_DEFINITION_SHAPE('','',#265);
#261=PRODUCT_DEFINITION_SHAPE('','',#266);
#262=PRODUCT_DEFINITION_SHAPE(' ','NAUO PRDDFN',#22);
#263=PRODUCT_DEFINITION_SHAPE('','',#267);
#264=PRODUCT_DEFINITION_SHAPE(' ','NAUO PRDDFN',#23);
#265=PRODUCT_DEFINITION('','',#271,#268);
#266=PRODUCT_DEFINITION('','',#272,#269);
#267=PRODUCT_DEFINITION('','',#273,#270);
#268=DESIGN_CONTEXT('',#287,'design');
#269=DESIGN_CONTEXT('',#287,'design');
#270=DESIGN_CONTEXT('',#287,'design');
#271=PRODUCT_DEFINITION_FORMATION_WITH_SPECIFIED_SOURCE('','',#277,
 .NOT_KNOWN.);
#272=PRODUCT_DEFINITION_FORMATION_WITH_SPECIFIED_SOURCE('','',#278,
 .NOT_KNOWN.);
#273=PRODUCT_DEFINITION_FORMATION_WITH_SPECIFIED_SOURCE('','',#279,
 .NOT_KNOWN.);
#274=PRODUCT_RELATED_PRODUCT_CATEGORY('','',(#277));
#275=PRODUCT_RELATED_PRODUCT_CATEGORY('','',(#278));
#276=PRODUCT_RELATED_PRODUCT_CATEGORY('','',(#279));
#277=PRODUCT('3162 15.870','3162 15.870','3162 15.870',(#283));
#278=PRODUCT('3162 15.870_PART1','3162 15.870_PART1',
'3162 15.870_PART1',(#284));
#279=PRODUCT('3162 15.870_PART2','3162 15.870_PART2',
'3162 15.870_PART2',(#285));
#280=PRODUCT_CATEGORY('','');
#281=PRODUCT_CATEGORY('','');
#282=PRODUCT_CATEGORY('','');
#283=MECHANICAL_CONTEXT('',#287,'mechanical');
#284=MECHANICAL_CONTEXT('',#287,'mechanical');
#285=MECHANICAL_CONTEXT('',#287,'mechanical');
#286=APPLICATION_PROTOCOL_DEFINITION('international standard',
'config_control_design',2010,#287);
#287=APPLICATION_CONTEXT(
'configuration controlled 3D designs of mechanical parts and assemblie
s');
ENDSEC;
END-ISO-10303-21;
