ISO-10303-21;
HEADER;
/* Generated by software containing ST-Developer
 * from STEP Tools, Inc. (www.steptools.com) 
 */
/* OPTION: using custom renumber hook */

FILE_DESCRIPTION(
/* description */ ('STEP AP203'),
/* implementation_level */ '2;1');

FILE_NAME(
/* name */ '3165 5.160',
/* time_stamp */ '2026-05-15T14:47:26+02:00',
/* author */ ('License CC BY-ND 4.0'),
/* organization */ ('CADENAS'),
/* preprocessor_version */ 'ST-DEVELOPER v20',
/* originating_system */ 'PARTsolutions',
/* authorisation */ '  ');

FILE_SCHEMA (('CONFIG_CONTROL_DESIGN'));
ENDSEC;

DATA;
#10=PROPERTY_DEFINITION_REPRESENTATION(#14,#12);
#11=PROPERTY_DEFINITION_REPRESENTATION(#15,#13);
#12=REPRESENTATION('',(#16),#289);
#13=REPRESENTATION('',(#17),#289);
#14=PROPERTY_DEFINITION('pmi validation property','',#298);
#15=PROPERTY_DEFINITION('pmi validation property','',#298);
#16=VALUE_REPRESENTATION_ITEM('number of annotations',COUNT_MEASURE(0.));
#17=VALUE_REPRESENTATION_ITEM('number of views',COUNT_MEASURE(0.));
#18=B_SPLINE_CURVE_WITH_KNOTS('',3,(#280,#281,#282,#283,#284),
 .UNSPECIFIED.,.T.,.F.,(1,1,1,1,1,1,1,1,1),(-1.5,-1.,-0.5,0.,0.5,1.,1.5,
2.,2.5),.UNSPECIFIED.);
#19=(
BOUNDED_SURFACE()
B_SPLINE_SURFACE(3,3,((#252,#253,#254,#255,#256,#257,#258),(#259,#260,#261,
#262,#263,#264,#265),(#266,#267,#268,#269,#270,#271,#272),(#273,#274,#275,
#276,#277,#278,#279)),.UNSPECIFIED.,.F.,.T.,.F.)
B_SPLINE_SURFACE_WITH_KNOTS((4,4),(4,3,4),(0.,1.),(0.,0.5,1.),
 .PIECEWISE_BEZIER_KNOTS.)
GEOMETRIC_REPRESENTATION_ITEM()
RATIONAL_B_SPLINE_SURFACE(((1.,0.333333333333333,0.333333333333333,1.,0.333333333333333,
0.333333333333333,1.),(0.804737854124365,0.268245951374788,0.268245951374788,
0.804737854124365,0.268245951374788,0.268245951374788,0.804737854124365),
(0.804737854124365,0.268245951374788,0.268245951374788,0.804737854124365,
0.268245951374788,0.268245951374788,0.804737854124365),(1.,0.333333333333333,
0.333333333333333,1.,0.333333333333333,0.333333333333333,1.)))
REPRESENTATION_ITEM('')
SURFACE()
);
#20=CONTEXT_DEPENDENT_SHAPE_REPRESENTATION(#24,#300);
#21=CONTEXT_DEPENDENT_SHAPE_REPRESENTATION(#25,#302);
#22=NEXT_ASSEMBLY_USAGE_OCCURRENCE('NAUO1','3165 5.160_PART1',
'3165 5.160_PART1',#303,#304,'');
#23=NEXT_ASSEMBLY_USAGE_OCCURRENCE('NAUO2','3165 5.160_PART2',
'3165 5.160_PART2',#303,#305,'');
#24=(
REPRESENTATION_RELATIONSHIP(' ',' ',#152,#151)
REPRESENTATION_RELATIONSHIP_WITH_TRANSFORMATION(#26)
SHAPE_REPRESENTATION_RELATIONSHIP()
);
#25=(
REPRESENTATION_RELATIONSHIP(' ',' ',#153,#151)
REPRESENTATION_RELATIONSHIP_WITH_TRANSFORMATION(#27)
SHAPE_REPRESENTATION_RELATIONSHIP()
);
#26=ITEM_DEFINED_TRANSFORMATION(' ',' ',#154,#170);
#27=ITEM_DEFINED_TRANSFORMATION(' ',' ',#154,#176);
#28=SHAPE_REPRESENTATION_RELATIONSHIP('','',#152,#30);
#29=SHAPE_REPRESENTATION_RELATIONSHIP('','',#153,#31);
#30=ADVANCED_BREP_SHAPE_REPRESENTATION('',(#146),#290);
#31=ADVANCED_BREP_SHAPE_REPRESENTATION('',(#147),#291);
#32=CONICAL_SURFACE('',#162,3.175,0.7853981625);
#33=CONICAL_SURFACE('',#165,2.5795,1.5533430325);
#34=CONICAL_SURFACE('',#169,2.5785,0.789450817);
#35=PLANE('',#158);
#36=PLANE('',#160);
#37=PLANE('',#174);
#38=PLANE('',#175);
#39=ORIENTED_EDGE('',*,*,#59,.T.);
#40=ORIENTED_EDGE('',*,*,#60,.T.);
#41=ORIENTED_EDGE('',*,*,#61,.T.);
#42=ORIENTED_EDGE('',*,*,#62,.T.);
#43=ORIENTED_EDGE('',*,*,#60,.F.);
#44=ORIENTED_EDGE('',*,*,#61,.F.);
#45=ORIENTED_EDGE('',*,*,#63,.T.);
#46=ORIENTED_EDGE('',*,*,#62,.F.);
#47=ORIENTED_EDGE('',*,*,#63,.F.);
#48=ORIENTED_EDGE('',*,*,#64,.T.);
#49=ORIENTED_EDGE('',*,*,#64,.F.);
#50=ORIENTED_EDGE('',*,*,#65,.T.);
#51=ORIENTED_EDGE('',*,*,#65,.F.);
#52=ORIENTED_EDGE('',*,*,#59,.F.);
#53=ORIENTED_EDGE('',*,*,#66,.T.);
#54=ORIENTED_EDGE('',*,*,#67,.T.);
#55=ORIENTED_EDGE('',*,*,#67,.F.);
#56=ORIENTED_EDGE('',*,*,#68,.T.);
#57=ORIENTED_EDGE('',*,*,#68,.F.);
#58=ORIENTED_EDGE('',*,*,#66,.F.);
#59=EDGE_CURVE('',#69,#69,#79,.T.);
#60=EDGE_CURVE('',#70,#70,#80,.T.);
#61=EDGE_CURVE('',#71,#71,#81,.T.);
#62=EDGE_CURVE('',#72,#72,#82,.T.);
#63=EDGE_CURVE('',#73,#73,#83,.T.);
#64=EDGE_CURVE('',#74,#74,#84,.T.);
#65=EDGE_CURVE('',#75,#75,#85,.T.);
#66=EDGE_CURVE('',#76,#76,#86,.T.);
#67=EDGE_CURVE('',#77,#77,#87,.T.);
#68=EDGE_CURVE('',#78,#78,#18,.F.);
#69=VERTEX_POINT('',#226);
#70=VERTEX_POINT('',#228);
#71=VERTEX_POINT('',#231);
#72=VERTEX_POINT('',#234);
#73=VERTEX_POINT('',#238);
#74=VERTEX_POINT('',#241);
#75=VERTEX_POINT('',#244);
#76=VERTEX_POINT('',#249);
#77=VERTEX_POINT('',#251);
#78=VERTEX_POINT('',#285);
#79=CIRCLE('',#156,3.175);
#80=CIRCLE('',#157,3.175);
#81=CIRCLE('',#159,2.575);
#82=CIRCLE('',#161,2.5795);
#83=CIRCLE('',#164,2.5795);
#84=CIRCLE('',#166,2.5785);
#85=CIRCLE('',#168,2.5785);
#86=CIRCLE('',#172,2.5795);
#87=CIRCLE('',#173,2.5795);
#88=EDGE_LOOP('',(#39));
#89=EDGE_LOOP('',(#40));
#90=EDGE_LOOP('',(#41));
#91=EDGE_LOOP('',(#42));
#92=EDGE_LOOP('',(#43));
#93=EDGE_LOOP('',(#44));
#94=EDGE_LOOP('',(#45));
#95=EDGE_LOOP('',(#46));
#96=EDGE_LOOP('',(#47));
#97=EDGE_LOOP('',(#48));
#98=EDGE_LOOP('',(#49));
#99=EDGE_LOOP('',(#50));
#100=EDGE_LOOP('',(#51));
#101=EDGE_LOOP('',(#52));
#102=EDGE_LOOP('',(#53));
#103=EDGE_LOOP('',(#54));
#104=EDGE_LOOP('',(#55));
#105=EDGE_LOOP('',(#56));
#106=EDGE_LOOP('',(#57));
#107=EDGE_LOOP('',(#58));
#108=FACE_BOUND('',#88,.T.);
#109=FACE_BOUND('',#89,.T.);
#110=FACE_BOUND('',#90,.T.);
#111=FACE_BOUND('',#91,.T.);
#112=FACE_BOUND('',#92,.T.);
#113=FACE_BOUND('',#93,.T.);
#114=FACE_BOUND('',#94,.T.);
#115=FACE_BOUND('',#95,.T.);
#116=FACE_BOUND('',#96,.T.);
#117=FACE_BOUND('',#97,.T.);
#118=FACE_BOUND('',#98,.T.);
#119=FACE_BOUND('',#99,.T.);
#120=FACE_BOUND('',#100,.T.);
#121=FACE_BOUND('',#101,.T.);
#122=FACE_BOUND('',#102,.T.);
#123=FACE_BOUND('',#103,.T.);
#124=FACE_BOUND('',#104,.T.);
#125=FACE_BOUND('',#105,.T.);
#126=FACE_BOUND('',#106,.T.);
#127=FACE_BOUND('',#107,.T.);
#128=CYLINDRICAL_SURFACE('',#155,3.175);
#129=CYLINDRICAL_SURFACE('',#163,2.5795);
#130=CYLINDRICAL_SURFACE('',#167,2.5785);
#131=CYLINDRICAL_SURFACE('',#171,2.5795);
#132=ADVANCED_FACE('',(#108,#109),#128,.T.);
#133=ADVANCED_FACE('',(#110),#35,.T.);
#134=ADVANCED_FACE('',(#111),#36,.F.);
#135=ADVANCED_FACE('',(#112,#113),#32,.T.);
#136=ADVANCED_FACE('',(#114,#115),#129,.T.);
#137=ADVANCED_FACE('',(#116,#117),#33,.T.);
#138=ADVANCED_FACE('',(#118,#119),#130,.T.);
#139=ADVANCED_FACE('',(#120,#121),#34,.T.);
#140=ADVANCED_FACE('',(#122,#123),#131,.T.);
#141=ADVANCED_FACE('',(#124,#125),#19,.T.);
#142=ADVANCED_FACE('',(#126),#37,.T.);
#143=ADVANCED_FACE('',(#127),#38,.T.);
#144=CLOSED_SHELL('',(#132,#133,#134,#135,#136,#137,#138,#139));
#145=CLOSED_SHELL('',(#140,#141,#142,#143));
#146=MANIFOLD_SOLID_BREP('1',#144);
#147=MANIFOLD_SOLID_BREP('1',#145);
#148=SHAPE_DEFINITION_REPRESENTATION(#298,#151);
#149=SHAPE_DEFINITION_REPRESENTATION(#299,#152);
#150=SHAPE_DEFINITION_REPRESENTATION(#301,#153);
#151=SHAPE_REPRESENTATION('3165 5.160',(#154,#170,#176),#289);
#152=SHAPE_REPRESENTATION('3165 5.160_PART1',(#154),#290);
#153=SHAPE_REPRESENTATION('3165 5.160_PART2',(#154),#291);
#154=AXIS2_PLACEMENT_3D('',#223,#177,#178);
#155=AXIS2_PLACEMENT_3D('',#224,#179,#180);
#156=AXIS2_PLACEMENT_3D('',#225,#181,#182);
#157=AXIS2_PLACEMENT_3D('',#227,#183,#184);
#158=AXIS2_PLACEMENT_3D('',#229,#185,#186);
#159=AXIS2_PLACEMENT_3D('',#230,#187,#188);
#160=AXIS2_PLACEMENT_3D('',#232,#189,#190);
#161=AXIS2_PLACEMENT_3D('',#233,#191,#192);
#162=AXIS2_PLACEMENT_3D('',#235,#193,#194);
#163=AXIS2_PLACEMENT_3D('',#236,#195,#196);
#164=AXIS2_PLACEMENT_3D('',#237,#197,#198);
#165=AXIS2_PLACEMENT_3D('',#239,#199,#200);
#166=AXIS2_PLACEMENT_3D('',#240,#201,#202);
#167=AXIS2_PLACEMENT_3D('',#242,#203,#204);
#168=AXIS2_PLACEMENT_3D('',#243,#205,#206);
#169=AXIS2_PLACEMENT_3D('',#245,#207,#208);
#170=AXIS2_PLACEMENT_3D('',#246,#209,#210);
#171=AXIS2_PLACEMENT_3D('',#247,#211,#212);
#172=AXIS2_PLACEMENT_3D('',#248,#213,#214);
#173=AXIS2_PLACEMENT_3D('',#250,#215,#216);
#174=AXIS2_PLACEMENT_3D('',#286,#217,#218);
#175=AXIS2_PLACEMENT_3D('',#287,#219,#220);
#176=AXIS2_PLACEMENT_3D('',#288,#221,#222);
#177=DIRECTION('',(0.,0.,1.));
#178=DIRECTION('',(1.,0.,0.));
#179=DIRECTION('',(0.,0.,1.));
#180=DIRECTION('',(-1.,0.,0.));
#181=DIRECTION('',(0.,0.,1.));
#182=DIRECTION('',(1.,0.,0.));
#183=DIRECTION('',(0.,0.,-1.));
#184=DIRECTION('',(1.,0.,0.));
#185=DIRECTION('',(0.,0.,1.));
#186=DIRECTION('',(1.,0.,0.));
#187=DIRECTION('',(0.,0.,1.));
#188=DIRECTION('',(1.,0.,0.));
#189=DIRECTION('',(0.,0.,1.));
#190=DIRECTION('',(1.,0.,0.));
#191=DIRECTION('',(0.,0.,-1.));
#192=DIRECTION('',(1.,0.,0.));
#193=DIRECTION('',(-6.62512454689974E-17,0.,-1.));
#194=DIRECTION('',(-1.,0.,6.62512454689974E-17));
#195=DIRECTION('',(0.,0.,1.));
#196=DIRECTION('',(0.,-1.,0.));
#197=DIRECTION('',(0.,0.,-1.));
#198=DIRECTION('',(0.,-1.,0.));
#199=DIRECTION('',(0.,0.,-1.));
#200=DIRECTION('',(0.,-1.,0.));
#201=DIRECTION('',(0.,0.,-1.));
#202=DIRECTION('',(0.,-1.,0.));
#203=DIRECTION('',(0.,0.,1.));
#204=DIRECTION('',(0.,-1.,0.));
#205=DIRECTION('',(0.,0.,-1.));
#206=DIRECTION('',(0.,-1.,0.));
#207=DIRECTION('',(0.,0.,1.));
#208=DIRECTION('',(0.,1.,0.));
#209=DIRECTION('',(0.,0.,1.));
#210=DIRECTION('',(1.,0.,0.));
#211=DIRECTION('',(0.,0.,1.));
#212=DIRECTION('',(0.,-1.,0.));
#213=DIRECTION('',(0.,0.,-1.));
#214=DIRECTION('',(1.,0.,0.));
#215=DIRECTION('',(0.,0.,1.));
#216=DIRECTION('',(1.,0.,0.));
#217=DIRECTION('',(0.,3.22973970800046E-16,-1.));
#218=DIRECTION('',(-1.,0.,0.));
#219=DIRECTION('',(0.,0.,1.));
#220=DIRECTION('',(1.,0.,0.));
#221=DIRECTION('',(0.,0.,1.));
#222=DIRECTION('',(1.,0.,0.));
#223=CARTESIAN_POINT('',(0.,0.,0.));
#224=CARTESIAN_POINT('',(0.,0.,0.));
#225=CARTESIAN_POINT('',(0.,0.,-41.50000000001));
#226=CARTESIAN_POINT('',(3.175,0.,-41.50000000001));
#227=CARTESIAN_POINT('',(0.,0.,-0.60000000001));
#228=CARTESIAN_POINT('',(3.175,0.,-0.60000000001));
#229=CARTESIAN_POINT('',(0.,0.,0.));
#230=CARTESIAN_POINT('',(0.,0.,0.));
#231=CARTESIAN_POINT('',(2.575,0.,0.));
#232=CARTESIAN_POINT('',(0.,0.,-47.5));
#233=CARTESIAN_POINT('',(0.,-1.00122730108904E-11,-47.50000000001));
#234=CARTESIAN_POINT('',(2.5795,-1.00122730108904E-11,-47.50000000001));
#235=CARTESIAN_POINT('',(0.,0.,-0.6));
#236=CARTESIAN_POINT('',(0.,-1.4210854715202E-14,-41.5));
#237=CARTESIAN_POINT('',(0.,-1.00140165205901E-11,-42.1017021267287));
#238=CARTESIAN_POINT('',(0.,-2.57950000001001,-42.1017021267287));
#239=CARTESIAN_POINT('',(0.,-1.40165205900968E-14,-42.1017021267187));
#240=CARTESIAN_POINT('',(0.,-1.00140165262276E-11,-42.1016846716638));
#241=CARTESIAN_POINT('',(0.,-2.57850000001001,-42.1016846716638));
#242=CARTESIAN_POINT('',(0.,-1.4210854715202E-14,-41.5));
#243=CARTESIAN_POINT('',(0.,-1.00140197559673E-11,-42.0916846716638));
#244=CARTESIAN_POINT('',(0.,-2.57850000001001,-42.0916846716638));
#245=CARTESIAN_POINT('',(0.,-1.40197559673365E-14,-42.0916846716538));
#246=CARTESIAN_POINT('',(0.,0.,0.));
#247=CARTESIAN_POINT('',(0.,-1.4210854715202E-14,-41.5));
#248=CARTESIAN_POINT('',(0.,-1.00122730108904E-11,-47.50000000001));
#249=CARTESIAN_POINT('',(2.5795,-1.00122730108904E-11,-47.50000000001));
#250=CARTESIAN_POINT('',(0.,-1.4210854715202E-14,-60.92100000001));
#251=CARTESIAN_POINT('',(2.5795,-1.4210854715202E-14,-60.92100000001));
#252=CARTESIAN_POINT('',(2.5795,0.,-60.921));
#253=CARTESIAN_POINT('',(2.5795,5.159,-60.921));
#254=CARTESIAN_POINT('',(-2.5795,5.159,-60.921));
#255=CARTESIAN_POINT('',(-2.5795,0.,-60.921));
#256=CARTESIAN_POINT('',(-2.5795,-5.159,-60.921));
#257=CARTESIAN_POINT('',(2.5795,-5.159,-60.921));
#258=CARTESIAN_POINT('',(2.5795,0.,-60.921));
#259=CARTESIAN_POINT('',(2.5795,0.,-62.4317432226398));
#260=CARTESIAN_POINT('',(2.5795,5.159,-62.4317432226398));
#261=CARTESIAN_POINT('',(-2.5795,5.159,-62.4317432226398));
#262=CARTESIAN_POINT('',(-2.5795,0.,-62.4317432226398));
#263=CARTESIAN_POINT('',(-2.5795,-5.159,-62.4317432226398));
#264=CARTESIAN_POINT('',(2.5795,-5.159,-62.4317432226398));
#265=CARTESIAN_POINT('',(2.5795,0.,-62.4317432226398));
#266=CARTESIAN_POINT('',(1.51124322263979,0.,-63.5));
#267=CARTESIAN_POINT('',(1.51124322263979,3.02248644527958,-63.5));
#268=CARTESIAN_POINT('',(-1.51124322263979,3.02248644527958,-63.5));
#269=CARTESIAN_POINT('',(-1.51124322263979,0.,-63.5));
#270=CARTESIAN_POINT('',(-1.51124322263979,-3.02248644527958,-63.5));
#271=CARTESIAN_POINT('',(1.51124322263979,-3.02248644527958,-63.5));
#272=CARTESIAN_POINT('',(1.51124322263979,0.,-63.5));
#273=CARTESIAN_POINT('',(0.,0.,-63.5));
#274=CARTESIAN_POINT('',(0.,0.00100000000000434,-63.5));
#275=CARTESIAN_POINT('',(0.,0.00100000000000434,-63.5));
#276=CARTESIAN_POINT('',(0.,0.,-63.5));
#277=CARTESIAN_POINT('',(0.,-0.00100000000000434,-63.5));
#278=CARTESIAN_POINT('',(0.,-0.00100000000000434,-63.5));
#279=CARTESIAN_POINT('',(0.,0.,-63.5));
#280=CARTESIAN_POINT('',(0.0015,-6.12323431880426E-20,-63.5));
#281=CARTESIAN_POINT('',(-0.0015,1.22464676683265E-19,-63.5));
#282=CARTESIAN_POINT('',(0.0015,-6.12323431880426E-20,-63.5));
#283=CARTESIAN_POINT('',(-0.0015,1.22464676683265E-19,-63.5));
#284=CARTESIAN_POINT('',(0.0015,-6.12323431880426E-20,-63.5));
#285=CARTESIAN_POINT('',(-0.000499999990613761,0.,-63.4999999515637));
#286=CARTESIAN_POINT('',(0.,-7.105427357601E-15,-63.5));
#287=CARTESIAN_POINT('',(0.,0.,-47.5));
#288=CARTESIAN_POINT('',(0.,0.,0.));
#289=(
GEOMETRIC_REPRESENTATION_CONTEXT(3)
GLOBAL_UNCERTAINTY_ASSIGNED_CONTEXT((#292))
GLOBAL_UNIT_ASSIGNED_CONTEXT((#297,#296,#295))
REPRESENTATION_CONTEXT('3165 5.160','TOP_LEVEL_ASSEMBLY_PART')
);
#290=(
GEOMETRIC_REPRESENTATION_CONTEXT(3)
GLOBAL_UNCERTAINTY_ASSIGNED_CONTEXT((#293))
GLOBAL_UNIT_ASSIGNED_CONTEXT((#297,#296,#295))
REPRESENTATION_CONTEXT('3165 5.160_PART1','COMPONENT_PART')
);
#291=(
GEOMETRIC_REPRESENTATION_CONTEXT(3)
GLOBAL_UNCERTAINTY_ASSIGNED_CONTEXT((#294))
GLOBAL_UNIT_ASSIGNED_CONTEXT((#297,#296,#295))
REPRESENTATION_CONTEXT('3165 5.160_PART2','COMPONENT_PART')
);
#292=UNCERTAINTY_MEASURE_WITH_UNIT(LENGTH_MEASURE(1.E-5),#297,
'DISTANCE_ACCURACY_VALUE','Maximum Tolerance applied to model');
#293=UNCERTAINTY_MEASURE_WITH_UNIT(LENGTH_MEASURE(1.E-5),#297,
'DISTANCE_ACCURACY_VALUE','Maximum Tolerance applied to model');
#294=UNCERTAINTY_MEASURE_WITH_UNIT(LENGTH_MEASURE(1.E-5),#297,
'DISTANCE_ACCURACY_VALUE','Maximum Tolerance applied to model');
#295=(
NAMED_UNIT(*)
SI_UNIT($,.STERADIAN.)
SOLID_ANGLE_UNIT()
);
#296=(
NAMED_UNIT(*)
PLANE_ANGLE_UNIT()
SI_UNIT($,.RADIAN.)
);
#297=(
LENGTH_UNIT()
NAMED_UNIT(*)
SI_UNIT(.MILLI.,.METRE.)
);
#298=PRODUCT_DEFINITION_SHAPE('','',#303);
#299=PRODUCT_DEFINITION_SHAPE('','',#304);
#300=PRODUCT_DEFINITION_SHAPE(' ','NAUO PRDDFN',#22);
#301=PRODUCT_DEFINITION_SHAPE('','',#305);
#302=PRODUCT_DEFINITION_SHAPE(' ','NAUO PRDDFN',#23);
#303=PRODUCT_DEFINITION('','',#309,#306);
#304=PRODUCT_DEFINITION('','',#310,#307);
#305=PRODUCT_DEFINITION('','',#311,#308);
#306=DESIGN_CONTEXT('',#325,'design');
#307=DESIGN_CONTEXT('',#325,'design');
#308=DESIGN_CONTEXT('',#325,'design');
#309=PRODUCT_DEFINITION_FORMATION_WITH_SPECIFIED_SOURCE('','',#315,
 .NOT_KNOWN.);
#310=PRODUCT_DEFINITION_FORMATION_WITH_SPECIFIED_SOURCE('','',#316,
 .NOT_KNOWN.);
#311=PRODUCT_DEFINITION_FORMATION_WITH_SPECIFIED_SOURCE('','',#317,
 .NOT_KNOWN.);
#312=PRODUCT_RELATED_PRODUCT_CATEGORY('','',(#315));
#313=PRODUCT_RELATED_PRODUCT_CATEGORY('','',(#316));
#314=PRODUCT_RELATED_PRODUCT_CATEGORY('','',(#317));
#315=PRODUCT('3165 5.160','3165 5.160','3165 5.160',(#321));
#316=PRODUCT('3165 5.160_PART1','3165 5.160_PART1','3165 5.160_PART1',(#322));
#317=PRODUCT('3165 5.160_PART2','3165 5.160_PART2','3165 5.160_PART2',(#323));
#318=PRODUCT_CATEGORY('','');
#319=PRODUCT_CATEGORY('','');
#320=PRODUCT_CATEGORY('','');
#321=MECHANICAL_CONTEXT('',#325,'mechanical');
#322=MECHANICAL_CONTEXT('',#325,'mechanical');
#323=MECHANICAL_CONTEXT('',#325,'mechanical');
#324=APPLICATION_PROTOCOL_DEFINITION('international standard',
'config_control_design',2010,#325);
#325=APPLICATION_CONTEXT(
'configuration controlled 3D designs of mechanical parts and assemblie
s');
ENDSEC;
END-ISO-10303-21;
