ISO-10303-21;
HEADER;
/* Generated by software containing ST-Developer
 * from STEP Tools, Inc. (www.steptools.com) 
 */
/* OPTION: using custom renumber hook */

FILE_DESCRIPTION(
/* description */ ('STEP AP203'),
/* implementation_level */ '2;1');

FILE_NAME(
/* name */ '3191 6.350',
/* time_stamp */ '2026-05-15T14:48:59+02:00',
/* author */ ('License CC BY-ND 4.0'),
/* organization */ ('CADENAS'),
/* preprocessor_version */ 'ST-DEVELOPER v20',
/* originating_system */ 'PARTsolutions',
/* authorisation */ '  ');

FILE_SCHEMA (('CONFIG_CONTROL_DESIGN'));
ENDSEC;

DATA;
#10=PROPERTY_DEFINITION_REPRESENTATION(#14,#12);
#11=PROPERTY_DEFINITION_REPRESENTATION(#15,#13);
#12=REPRESENTATION('',(#16),#224);
#13=REPRESENTATION('',(#17),#224);
#14=PROPERTY_DEFINITION('pmi validation property','',#233);
#15=PROPERTY_DEFINITION('pmi validation property','',#233);
#16=VALUE_REPRESENTATION_ITEM('number of annotations',COUNT_MEASURE(0.));
#17=VALUE_REPRESENTATION_ITEM('number of views',COUNT_MEASURE(0.));
#18=SPHERICAL_SURFACE('',#151,3.175);
#19=CONTEXT_DEPENDENT_SHAPE_REPRESENTATION(#23,#235);
#20=CONTEXT_DEPENDENT_SHAPE_REPRESENTATION(#24,#237);
#21=NEXT_ASSEMBLY_USAGE_OCCURRENCE('NAUO1','3191 6.350_PART1',
'3191 6.350_PART1',#238,#239,'');
#22=NEXT_ASSEMBLY_USAGE_OCCURRENCE('NAUO2','3191 6.350_PART2',
'3191 6.350_PART2',#238,#240,'');
#23=(
REPRESENTATION_RELATIONSHIP(' ',' ',#130,#129)
REPRESENTATION_RELATIONSHIP_WITH_TRANSFORMATION(#25)
SHAPE_REPRESENTATION_RELATIONSHIP()
);
#24=(
REPRESENTATION_RELATIONSHIP(' ',' ',#131,#129)
REPRESENTATION_RELATIONSHIP_WITH_TRANSFORMATION(#26)
SHAPE_REPRESENTATION_RELATIONSHIP()
);
#25=ITEM_DEFINED_TRANSFORMATION(' ',' ',#132,#146);
#26=ITEM_DEFINED_TRANSFORMATION(' ',' ',#132,#152);
#27=SHAPE_REPRESENTATION_RELATIONSHIP('','',#130,#29);
#28=SHAPE_REPRESENTATION_RELATIONSHIP('','',#131,#30);
#29=ADVANCED_BREP_SHAPE_REPRESENTATION('',(#124),#225);
#30=ADVANCED_BREP_SHAPE_REPRESENTATION('',(#125),#226);
#31=CYLINDRICAL_SURFACE('',#140,3.025);
#32=CYLINDRICAL_SURFACE('',#143,3.175);
#33=CYLINDRICAL_SURFACE('',#149,3.175);
#34=CONICAL_SURFACE('',#135,3.025,0.7853981625);
#35=CONICAL_SURFACE('',#142,3.175,0.7853981625);
#36=CONICAL_SURFACE('',#145,3.175,0.7853981625);
#37=ORIENTED_EDGE('',*,*,#53,.T.);
#38=ORIENTED_EDGE('',*,*,#54,.F.);
#39=ORIENTED_EDGE('',*,*,#55,.F.);
#40=ORIENTED_EDGE('',*,*,#56,.T.);
#41=ORIENTED_EDGE('',*,*,#57,.F.);
#42=ORIENTED_EDGE('',*,*,#54,.T.);
#43=ORIENTED_EDGE('',*,*,#56,.F.);
#44=ORIENTED_EDGE('',*,*,#57,.T.);
#45=ORIENTED_EDGE('',*,*,#55,.T.);
#46=ORIENTED_EDGE('',*,*,#58,.T.);
#47=ORIENTED_EDGE('',*,*,#58,.F.);
#48=ORIENTED_EDGE('',*,*,#53,.F.);
#49=ORIENTED_EDGE('',*,*,#59,.F.);
#50=ORIENTED_EDGE('',*,*,#60,.T.);
#51=ORIENTED_EDGE('',*,*,#59,.T.);
#52=ORIENTED_EDGE('',*,*,#60,.F.);
#53=EDGE_CURVE('',#61,#61,#69,.T.);
#54=EDGE_CURVE('',#62,#62,#70,.T.);
#55=EDGE_CURVE('',#63,#63,#71,.T.);
#56=EDGE_CURVE('',#64,#64,#72,.T.);
#57=EDGE_CURVE('',#65,#65,#73,.T.);
#58=EDGE_CURVE('',#66,#66,#74,.T.);
#59=EDGE_CURVE('',#67,#67,#75,.T.);
#60=EDGE_CURVE('',#68,#68,#76,.T.);
#61=VERTEX_POINT('',#198);
#62=VERTEX_POINT('',#201);
#63=VERTEX_POINT('',#203);
#64=VERTEX_POINT('',#206);
#65=VERTEX_POINT('',#209);
#66=VERTEX_POINT('',#213);
#67=VERTEX_POINT('',#218);
#68=VERTEX_POINT('',#221);
#69=CIRCLE('',#134,2.575);
#70=CIRCLE('',#136,3.025);
#71=CIRCLE('',#137,3.175);
#72=CIRCLE('',#139,3.175);
#73=CIRCLE('',#141,3.025);
#74=CIRCLE('',#144,3.175);
#75=CIRCLE('',#148,3.175);
#76=CIRCLE('',#150,3.175);
#77=EDGE_LOOP('',(#37));
#78=EDGE_LOOP('',(#38));
#79=EDGE_LOOP('',(#39));
#80=EDGE_LOOP('',(#40));
#81=EDGE_LOOP('',(#41));
#82=EDGE_LOOP('',(#42));
#83=EDGE_LOOP('',(#43));
#84=EDGE_LOOP('',(#44));
#85=EDGE_LOOP('',(#45));
#86=EDGE_LOOP('',(#46));
#87=EDGE_LOOP('',(#47));
#88=EDGE_LOOP('',(#48));
#89=EDGE_LOOP('',(#49));
#90=EDGE_LOOP('',(#50));
#91=EDGE_LOOP('',(#51));
#92=EDGE_LOOP('',(#52));
#93=FACE_BOUND('',#77,.T.);
#94=FACE_BOUND('',#78,.T.);
#95=FACE_BOUND('',#79,.T.);
#96=FACE_BOUND('',#80,.T.);
#97=FACE_BOUND('',#81,.T.);
#98=FACE_BOUND('',#82,.T.);
#99=FACE_BOUND('',#83,.T.);
#100=FACE_BOUND('',#84,.T.);
#101=FACE_BOUND('',#85,.T.);
#102=FACE_BOUND('',#86,.T.);
#103=FACE_BOUND('',#87,.T.);
#104=FACE_BOUND('',#88,.T.);
#105=FACE_BOUND('',#89,.T.);
#106=FACE_BOUND('',#90,.T.);
#107=FACE_BOUND('',#91,.T.);
#108=FACE_BOUND('',#92,.T.);
#109=PLANE('',#133);
#110=PLANE('',#138);
#111=PLANE('',#147);
#112=ADVANCED_FACE('',(#93),#109,.T.);
#113=ADVANCED_FACE('',(#94,#95),#34,.T.);
#114=ADVANCED_FACE('',(#96),#110,.F.);
#115=ADVANCED_FACE('',(#97,#98),#31,.T.);
#116=ADVANCED_FACE('',(#99,#100),#35,.T.);
#117=ADVANCED_FACE('',(#101,#102),#32,.T.);
#118=ADVANCED_FACE('',(#103,#104),#36,.T.);
#119=ADVANCED_FACE('',(#105),#111,.T.);
#120=ADVANCED_FACE('',(#106,#107),#33,.T.);
#121=ADVANCED_FACE('',(#108),#18,.T.);
#122=CLOSED_SHELL('',(#112,#113,#114,#115,#116,#117,#118));
#123=CLOSED_SHELL('',(#119,#120,#121));
#124=MANIFOLD_SOLID_BREP('1',#122);
#125=MANIFOLD_SOLID_BREP('1',#123);
#126=SHAPE_DEFINITION_REPRESENTATION(#233,#129);
#127=SHAPE_DEFINITION_REPRESENTATION(#234,#130);
#128=SHAPE_DEFINITION_REPRESENTATION(#236,#131);
#129=SHAPE_REPRESENTATION('3191 6.350',(#132,#146,#152),#224);
#130=SHAPE_REPRESENTATION('3191 6.350_PART1',(#132),#225);
#131=SHAPE_REPRESENTATION('3191 6.350_PART2',(#132),#226);
#132=AXIS2_PLACEMENT_3D('',#195,#153,#154);
#133=AXIS2_PLACEMENT_3D('',#196,#155,#156);
#134=AXIS2_PLACEMENT_3D('',#197,#157,#158);
#135=AXIS2_PLACEMENT_3D('',#199,#159,#160);
#136=AXIS2_PLACEMENT_3D('',#200,#161,#162);
#137=AXIS2_PLACEMENT_3D('',#202,#163,#164);
#138=AXIS2_PLACEMENT_3D('',#204,#165,#166);
#139=AXIS2_PLACEMENT_3D('',#205,#167,#168);
#140=AXIS2_PLACEMENT_3D('',#207,#169,#170);
#141=AXIS2_PLACEMENT_3D('',#208,#171,#172);
#142=AXIS2_PLACEMENT_3D('',#210,#173,#174);
#143=AXIS2_PLACEMENT_3D('',#211,#175,#176);
#144=AXIS2_PLACEMENT_3D('',#212,#177,#178);
#145=AXIS2_PLACEMENT_3D('',#214,#179,#180);
#146=AXIS2_PLACEMENT_3D('',#215,#181,#182);
#147=AXIS2_PLACEMENT_3D('',#216,#183,#184);
#148=AXIS2_PLACEMENT_3D('',#217,#185,#186);
#149=AXIS2_PLACEMENT_3D('',#219,#187,#188);
#150=AXIS2_PLACEMENT_3D('',#220,#189,#190);
#151=AXIS2_PLACEMENT_3D('',#222,#191,#192);
#152=AXIS2_PLACEMENT_3D('',#223,#193,#194);
#153=DIRECTION('',(0.,0.,1.));
#154=DIRECTION('',(1.,0.,0.));
#155=DIRECTION('',(0.,0.,1.));
#156=DIRECTION('',(1.,0.,0.));
#157=DIRECTION('',(0.,0.,1.));
#158=DIRECTION('',(1.,0.,0.));
#159=DIRECTION('',(0.,0.,1.));
#160=DIRECTION('',(0.,1.,0.));
#161=DIRECTION('',(0.,0.,-1.));
#162=DIRECTION('',(0.,-1.,0.));
#163=DIRECTION('',(0.,0.,1.));
#164=DIRECTION('',(1.,0.,0.));
#165=DIRECTION('',(0.,0.,1.));
#166=DIRECTION('',(1.,0.,0.));
#167=DIRECTION('',(0.,0.,-1.));
#168=DIRECTION('',(1.,0.,0.));
#169=DIRECTION('',(0.,0.,1.));
#170=DIRECTION('',(0.,-1.,0.));
#171=DIRECTION('',(0.,0.,-1.));
#172=DIRECTION('',(0.,-1.,0.));
#173=DIRECTION('',(0.,0.,-1.));
#174=DIRECTION('',(0.,-1.,0.));
#175=DIRECTION('',(0.,0.,1.));
#176=DIRECTION('',(-1.,0.,0.));
#177=DIRECTION('',(0.,0.,-1.));
#178=DIRECTION('',(1.,0.,0.));
#179=DIRECTION('',(-6.62512454689974E-17,0.,-1.));
#180=DIRECTION('',(-1.,0.,6.62512454689974E-17));
#181=DIRECTION('',(0.,0.,1.));
#182=DIRECTION('',(1.,0.,0.));
#183=DIRECTION('',(0.,0.,1.));
#184=DIRECTION('',(1.,0.,0.));
#185=DIRECTION('',(0.,0.,-1.));
#186=DIRECTION('',(1.,0.,0.));
#187=DIRECTION('',(0.,0.,1.));
#188=DIRECTION('',(0.,-1.,0.));
#189=DIRECTION('',(0.,0.,1.));
#190=DIRECTION('',(1.,0.,0.));
#191=DIRECTION('',(0.,0.,1.));
#192=DIRECTION('',(0.,1.,0.));
#193=DIRECTION('',(0.,0.,1.));
#194=DIRECTION('',(1.,0.,0.));
#195=CARTESIAN_POINT('',(0.,0.,0.));
#196=CARTESIAN_POINT('',(0.,0.,0.));
#197=CARTESIAN_POINT('',(0.,0.,0.));
#198=CARTESIAN_POINT('',(2.575,0.,0.));
#199=CARTESIAN_POINT('',(0.,-1.41828805917469E-14,-38.25));
#200=CARTESIAN_POINT('',(0.,-1.00141828805917E-11,-38.25000000001));
#201=CARTESIAN_POINT('',(0.,-3.02500000001001,-38.25000000001));
#202=CARTESIAN_POINT('',(0.,0.,-38.10000000001));
#203=CARTESIAN_POINT('',(3.175,0.,-38.10000000001));
#204=CARTESIAN_POINT('',(0.,0.,-69.7));
#205=CARTESIAN_POINT('',(1.00005921189465E-11,-1.0008317639374E-11,-69.70000000001));
#206=CARTESIAN_POINT('',(3.17500000001,-1.0008317639374E-11,-69.70000000001));
#207=CARTESIAN_POINT('',(0.,-1.4210854715202E-14,-38.1));
#208=CARTESIAN_POINT('',(0.,-1.00083456134974E-11,-69.55000000001));
#209=CARTESIAN_POINT('',(0.,-3.02500000001001,-69.55000000001));
#210=CARTESIAN_POINT('',(0.,-8.31763937398962E-15,-69.7));
#211=CARTESIAN_POINT('',(0.,0.,0.));
#212=CARTESIAN_POINT('',(0.,0.,-0.60000000001));
#213=CARTESIAN_POINT('',(3.175,0.,-0.60000000001));
#214=CARTESIAN_POINT('',(0.,0.,-0.6));
#215=CARTESIAN_POINT('',(0.,0.,0.));
#216=CARTESIAN_POINT('',(0.,0.,-69.7));
#217=CARTESIAN_POINT('',(1.00005921189465E-11,-1.0008317639374E-11,-69.70000000001));
#218=CARTESIAN_POINT('',(3.17500000001,-1.0008317639374E-11,-69.70000000001));
#219=CARTESIAN_POINT('',(0.,-1.4210854715202E-14,-38.1));
#220=CARTESIAN_POINT('',(0.,0.,-73.02500000001));
#221=CARTESIAN_POINT('',(3.175,0.,-73.02500000001));
#222=CARTESIAN_POINT('',(0.,0.,-73.025));
#223=CARTESIAN_POINT('',(0.,0.,0.));
#224=(
GEOMETRIC_REPRESENTATION_CONTEXT(3)
GLOBAL_UNCERTAINTY_ASSIGNED_CONTEXT((#227))
GLOBAL_UNIT_ASSIGNED_CONTEXT((#232,#231,#230))
REPRESENTATION_CONTEXT('3191 6.350','TOP_LEVEL_ASSEMBLY_PART')
);
#225=(
GEOMETRIC_REPRESENTATION_CONTEXT(3)
GLOBAL_UNCERTAINTY_ASSIGNED_CONTEXT((#228))
GLOBAL_UNIT_ASSIGNED_CONTEXT((#232,#231,#230))
REPRESENTATION_CONTEXT('3191 6.350_PART1','COMPONENT_PART')
);
#226=(
GEOMETRIC_REPRESENTATION_CONTEXT(3)
GLOBAL_UNCERTAINTY_ASSIGNED_CONTEXT((#229))
GLOBAL_UNIT_ASSIGNED_CONTEXT((#232,#231,#230))
REPRESENTATION_CONTEXT('3191 6.350_PART2','COMPONENT_PART')
);
#227=UNCERTAINTY_MEASURE_WITH_UNIT(LENGTH_MEASURE(1.E-5),#232,
'DISTANCE_ACCURACY_VALUE','Maximum Tolerance applied to model');
#228=UNCERTAINTY_MEASURE_WITH_UNIT(LENGTH_MEASURE(1.E-5),#232,
'DISTANCE_ACCURACY_VALUE','Maximum Tolerance applied to model');
#229=UNCERTAINTY_MEASURE_WITH_UNIT(LENGTH_MEASURE(1.E-5),#232,
'DISTANCE_ACCURACY_VALUE','Maximum Tolerance applied to model');
#230=(
NAMED_UNIT(*)
SI_UNIT($,.STERADIAN.)
SOLID_ANGLE_UNIT()
);
#231=(
NAMED_UNIT(*)
PLANE_ANGLE_UNIT()
SI_UNIT($,.RADIAN.)
);
#232=(
LENGTH_UNIT()
NAMED_UNIT(*)
SI_UNIT(.MILLI.,.METRE.)
);
#233=PRODUCT_DEFINITION_SHAPE('','',#238);
#234=PRODUCT_DEFINITION_SHAPE('','',#239);
#235=PRODUCT_DEFINITION_SHAPE(' ','NAUO PRDDFN',#21);
#236=PRODUCT_DEFINITION_SHAPE('','',#240);
#237=PRODUCT_DEFINITION_SHAPE(' ','NAUO PRDDFN',#22);
#238=PRODUCT_DEFINITION('','',#244,#241);
#239=PRODUCT_DEFINITION('','',#245,#242);
#240=PRODUCT_DEFINITION('','',#246,#243);
#241=DESIGN_CONTEXT('',#260,'design');
#242=DESIGN_CONTEXT('',#260,'design');
#243=DESIGN_CONTEXT('',#260,'design');
#244=PRODUCT_DEFINITION_FORMATION_WITH_SPECIFIED_SOURCE('','',#250,
 .NOT_KNOWN.);
#245=PRODUCT_DEFINITION_FORMATION_WITH_SPECIFIED_SOURCE('','',#251,
 .NOT_KNOWN.);
#246=PRODUCT_DEFINITION_FORMATION_WITH_SPECIFIED_SOURCE('','',#252,
 .NOT_KNOWN.);
#247=PRODUCT_RELATED_PRODUCT_CATEGORY('','',(#250));
#248=PRODUCT_RELATED_PRODUCT_CATEGORY('','',(#251));
#249=PRODUCT_RELATED_PRODUCT_CATEGORY('','',(#252));
#250=PRODUCT('3191 6.350','3191 6.350','3191 6.350',(#256));
#251=PRODUCT('3191 6.350_PART1','3191 6.350_PART1','3191 6.350_PART1',(#257));
#252=PRODUCT('3191 6.350_PART2','3191 6.350_PART2','3191 6.350_PART2',(#258));
#253=PRODUCT_CATEGORY('','');
#254=PRODUCT_CATEGORY('','');
#255=PRODUCT_CATEGORY('','');
#256=MECHANICAL_CONTEXT('',#260,'mechanical');
#257=MECHANICAL_CONTEXT('',#260,'mechanical');
#258=MECHANICAL_CONTEXT('',#260,'mechanical');
#259=APPLICATION_PROTOCOL_DEFINITION('international standard',
'config_control_design',2010,#260);
#260=APPLICATION_CONTEXT(
'configuration controlled 3D designs of mechanical parts and assemblie
s');
ENDSEC;
END-ISO-10303-21;
