ISO-10303-21;
HEADER;
/* Generated by software containing ST-Developer
 * from STEP Tools, Inc. (www.steptools.com) 
 */
/* OPTION: using custom renumber hook */

FILE_DESCRIPTION(
/* description */ ('STEP AP203'),
/* implementation_level */ '2;1');

FILE_NAME(
/* name */ '3359 3.000',
/* time_stamp */ '2026-05-15T14:49:35+02:00',
/* author */ ('License CC BY-ND 4.0'),
/* organization */ ('CADENAS'),
/* preprocessor_version */ 'ST-DEVELOPER v20',
/* originating_system */ 'PARTsolutions',
/* authorisation */ '  ');

FILE_SCHEMA (('CONFIG_CONTROL_DESIGN'));
ENDSEC;

DATA;
#10=PROPERTY_DEFINITION_REPRESENTATION(#14,#12);
#11=PROPERTY_DEFINITION_REPRESENTATION(#15,#13);
#12=REPRESENTATION('',(#16),#204);
#13=REPRESENTATION('',(#17),#204);
#14=PROPERTY_DEFINITION('pmi validation property','',#213);
#15=PROPERTY_DEFINITION('pmi validation property','',#213);
#16=VALUE_REPRESENTATION_ITEM('number of annotations',COUNT_MEASURE(0.));
#17=VALUE_REPRESENTATION_ITEM('number of views',COUNT_MEASURE(0.));
#18=SPHERICAL_SURFACE('',#137,1.5);
#19=CONTEXT_DEPENDENT_SHAPE_REPRESENTATION(#23,#215);
#20=CONTEXT_DEPENDENT_SHAPE_REPRESENTATION(#24,#217);
#21=NEXT_ASSEMBLY_USAGE_OCCURRENCE('NAUO1','3359 3.000_PART1',
'3359 3.000_PART1',#218,#219,'');
#22=NEXT_ASSEMBLY_USAGE_OCCURRENCE('NAUO2','3359 3.000_PART2',
'3359 3.000_PART2',#218,#220,'');
#23=(
REPRESENTATION_RELATIONSHIP(' ',' ',#119,#118)
REPRESENTATION_RELATIONSHIP_WITH_TRANSFORMATION(#25)
SHAPE_REPRESENTATION_RELATIONSHIP()
);
#24=(
REPRESENTATION_RELATIONSHIP(' ',' ',#120,#118)
REPRESENTATION_RELATIONSHIP_WITH_TRANSFORMATION(#26)
SHAPE_REPRESENTATION_RELATIONSHIP()
);
#25=ITEM_DEFINED_TRANSFORMATION(' ',' ',#121,#133);
#26=ITEM_DEFINED_TRANSFORMATION(' ',' ',#121,#139);
#27=SHAPE_REPRESENTATION_RELATIONSHIP('','',#119,#29);
#28=SHAPE_REPRESENTATION_RELATIONSHIP('','',#120,#30);
#29=ADVANCED_BREP_SHAPE_REPRESENTATION('',(#113),#205);
#30=ADVANCED_BREP_SHAPE_REPRESENTATION('',(#114),#206);
#31=CYLINDRICAL_SURFACE('',#127,1.35);
#32=CYLINDRICAL_SURFACE('',#132,3.);
#33=CYLINDRICAL_SURFACE('',#134,1.5);
#34=PLANE('',#125);
#35=PLANE('',#131);
#36=PLANE('',#138);
#37=ORIENTED_EDGE('',*,*,#51,.F.);
#38=ORIENTED_EDGE('',*,*,#52,.F.);
#39=ORIENTED_EDGE('',*,*,#53,.F.);
#40=ORIENTED_EDGE('',*,*,#54,.F.);
#41=ORIENTED_EDGE('',*,*,#51,.T.);
#42=ORIENTED_EDGE('',*,*,#55,.F.);
#43=ORIENTED_EDGE('',*,*,#54,.T.);
#44=ORIENTED_EDGE('',*,*,#55,.T.);
#45=ORIENTED_EDGE('',*,*,#53,.T.);
#46=ORIENTED_EDGE('',*,*,#52,.T.);
#47=ORIENTED_EDGE('',*,*,#56,.T.);
#48=ORIENTED_EDGE('',*,*,#57,.T.);
#49=ORIENTED_EDGE('',*,*,#57,.F.);
#50=ORIENTED_EDGE('',*,*,#56,.F.);
#51=EDGE_CURVE('',#58,#58,#65,.T.);
#52=EDGE_CURVE('',#59,#59,#66,.T.);
#53=EDGE_CURVE('',#60,#60,#67,.T.);
#54=EDGE_CURVE('',#61,#61,#68,.T.);
#55=EDGE_CURVE('',#62,#62,#69,.T.);
#56=EDGE_CURVE('',#63,#63,#70,.T.);
#57=EDGE_CURVE('',#64,#64,#71,.T.);
#58=VERTEX_POINT('',#181);
#59=VERTEX_POINT('',#183);
#60=VERTEX_POINT('',#186);
#61=VERTEX_POINT('',#189);
#62=VERTEX_POINT('',#192);
#63=VERTEX_POINT('',#198);
#64=VERTEX_POINT('',#200);
#65=CIRCLE('',#123,1.35);
#66=CIRCLE('',#124,3.);
#67=CIRCLE('',#126,3.);
#68=CIRCLE('',#128,1.35);
#69=CIRCLE('',#130,1.5);
#70=CIRCLE('',#135,1.5);
#71=CIRCLE('',#136,1.5);
#72=EDGE_LOOP('',(#37));
#73=EDGE_LOOP('',(#38));
#74=EDGE_LOOP('',(#39));
#75=EDGE_LOOP('',(#40));
#76=EDGE_LOOP('',(#41));
#77=EDGE_LOOP('',(#42));
#78=EDGE_LOOP('',(#43));
#79=EDGE_LOOP('',(#44));
#80=EDGE_LOOP('',(#45));
#81=EDGE_LOOP('',(#46));
#82=EDGE_LOOP('',(#47));
#83=EDGE_LOOP('',(#48));
#84=EDGE_LOOP('',(#49));
#85=EDGE_LOOP('',(#50));
#86=FACE_BOUND('',#72,.T.);
#87=FACE_BOUND('',#73,.T.);
#88=FACE_BOUND('',#74,.T.);
#89=FACE_BOUND('',#75,.T.);
#90=FACE_BOUND('',#76,.T.);
#91=FACE_BOUND('',#77,.T.);
#92=FACE_BOUND('',#78,.T.);
#93=FACE_BOUND('',#79,.T.);
#94=FACE_BOUND('',#80,.T.);
#95=FACE_BOUND('',#81,.T.);
#96=FACE_BOUND('',#82,.T.);
#97=FACE_BOUND('',#83,.T.);
#98=FACE_BOUND('',#84,.T.);
#99=FACE_BOUND('',#85,.T.);
#100=CONICAL_SURFACE('',#122,1.35,0.174532925);
#101=CONICAL_SURFACE('',#129,1.5,1.5533430325);
#102=ADVANCED_FACE('',(#86,#87),#100,.T.);
#103=ADVANCED_FACE('',(#88),#34,.T.);
#104=ADVANCED_FACE('',(#89,#90),#31,.T.);
#105=ADVANCED_FACE('',(#91,#92),#101,.T.);
#106=ADVANCED_FACE('',(#93),#35,.F.);
#107=ADVANCED_FACE('',(#94,#95),#32,.T.);
#108=ADVANCED_FACE('',(#96,#97),#33,.T.);
#109=ADVANCED_FACE('',(#98),#18,.T.);
#110=ADVANCED_FACE('',(#99),#36,.T.);
#111=CLOSED_SHELL('',(#102,#103,#104,#105,#106,#107));
#112=CLOSED_SHELL('',(#108,#109,#110));
#113=MANIFOLD_SOLID_BREP('1',#111);
#114=MANIFOLD_SOLID_BREP('1',#112);
#115=SHAPE_DEFINITION_REPRESENTATION(#213,#118);
#116=SHAPE_DEFINITION_REPRESENTATION(#214,#119);
#117=SHAPE_DEFINITION_REPRESENTATION(#216,#120);
#118=SHAPE_REPRESENTATION('3359 3.000',(#121,#133,#139),#204);
#119=SHAPE_REPRESENTATION('3359 3.000_PART1',(#121),#205);
#120=SHAPE_REPRESENTATION('3359 3.000_PART2',(#121),#206);
#121=AXIS2_PLACEMENT_3D('',#178,#140,#141);
#122=AXIS2_PLACEMENT_3D('',#179,#142,#143);
#123=AXIS2_PLACEMENT_3D('',#180,#144,#145);
#124=AXIS2_PLACEMENT_3D('',#182,#146,#147);
#125=AXIS2_PLACEMENT_3D('',#184,#148,#149);
#126=AXIS2_PLACEMENT_3D('',#185,#150,#151);
#127=AXIS2_PLACEMENT_3D('',#187,#152,#153);
#128=AXIS2_PLACEMENT_3D('',#188,#154,#155);
#129=AXIS2_PLACEMENT_3D('',#190,#156,#157);
#130=AXIS2_PLACEMENT_3D('',#191,#158,#159);
#131=AXIS2_PLACEMENT_3D('',#193,#160,#161);
#132=AXIS2_PLACEMENT_3D('',#194,#162,#163);
#133=AXIS2_PLACEMENT_3D('',#195,#164,#165);
#134=AXIS2_PLACEMENT_3D('',#196,#166,#167);
#135=AXIS2_PLACEMENT_3D('',#197,#168,#169);
#136=AXIS2_PLACEMENT_3D('',#199,#170,#171);
#137=AXIS2_PLACEMENT_3D('',#201,#172,#173);
#138=AXIS2_PLACEMENT_3D('',#202,#174,#175);
#139=AXIS2_PLACEMENT_3D('',#203,#176,#177);
#140=DIRECTION('',(0.,0.,1.));
#141=DIRECTION('',(1.,0.,0.));
#142=DIRECTION('',(0.,0.,1.));
#143=DIRECTION('',(0.,1.,0.));
#144=DIRECTION('',(0.,0.,-1.));
#145=DIRECTION('',(0.,-1.,0.));
#146=DIRECTION('',(0.,-6.24854733684846E-16,1.));
#147=DIRECTION('',(0.,-1.,-6.24854733684846E-16));
#148=DIRECTION('',(0.,0.,1.));
#149=DIRECTION('',(1.,0.,0.));
#150=DIRECTION('',(0.,0.,-1.));
#151=DIRECTION('',(-1.,0.,0.));
#152=DIRECTION('',(0.,0.,1.));
#153=DIRECTION('',(0.,-1.,0.));
#154=DIRECTION('',(0.,0.,-1.));
#155=DIRECTION('',(0.,-1.,0.));
#156=DIRECTION('',(0.,0.,-1.));
#157=DIRECTION('',(0.,-1.,0.));
#158=DIRECTION('',(0.,0.,-1.));
#159=DIRECTION('',(1.,0.,0.));
#160=DIRECTION('',(0.,0.,1.));
#161=DIRECTION('',(1.,0.,0.));
#162=DIRECTION('',(0.,0.,1.));
#163=DIRECTION('',(-1.,0.,0.));
#164=DIRECTION('',(0.,0.,1.));
#165=DIRECTION('',(1.,0.,0.));
#166=DIRECTION('',(0.,0.,1.));
#167=DIRECTION('',(0.,-1.,0.));
#168=DIRECTION('',(0.,0.,-1.));
#169=DIRECTION('',(1.,0.,0.));
#170=DIRECTION('',(0.,0.,1.));
#171=DIRECTION('',(0.,1.,0.));
#172=DIRECTION('',(0.,0.,1.));
#173=DIRECTION('',(0.,1.,0.));
#174=DIRECTION('',(0.,0.,1.));
#175=DIRECTION('',(1.,0.,0.));
#176=DIRECTION('',(0.,0.,1.));
#177=DIRECTION('',(1.,0.,0.));
#178=CARTESIAN_POINT('',(0.,0.,0.));
#179=CARTESIAN_POINT('',(0.,-1.10382656000489E-14,-45.4000150023692));
#180=CARTESIAN_POINT('',(0.,-1.00110382656E-11,-45.4000150023792));
#181=CARTESIAN_POINT('',(0.,-1.35000000001001,-45.4000150023792));
#182=CARTESIAN_POINT('',(0.,-1.68854156370986E-14,-36.0423999890871));
#183=CARTESIAN_POINT('',(0.,-3.00000000000002,-36.0423999890871));
#184=CARTESIAN_POINT('',(0.,0.,0.));
#185=CARTESIAN_POINT('',(0.,0.,0.));
#186=CARTESIAN_POINT('',(-3.,0.,0.));
#187=CARTESIAN_POINT('',(0.,-1.4210854715202E-14,-36.0424));
#188=CARTESIAN_POINT('',(0.,-1.00088015061377E-11,-51.9973817402708));
#189=CARTESIAN_POINT('',(0.,-1.35000000001001,-51.9973817402708));
#190=CARTESIAN_POINT('',(0.,-8.80061844761155E-15,-52.));
#191=CARTESIAN_POINT('',(1.00291352297511E-11,-1.00088006184476E-11,-52.00000000001));
#192=CARTESIAN_POINT('',(1.50000000001003,-1.00088006184476E-11,-52.00000000001));
#193=CARTESIAN_POINT('',(0.,0.,-52.));
#194=CARTESIAN_POINT('',(0.,0.,0.));
#195=CARTESIAN_POINT('',(0.,0.,0.));
#196=CARTESIAN_POINT('',(0.,-1.4210854715202E-14,-36.0424));
#197=CARTESIAN_POINT('',(1.00291352297511E-11,-1.00088006184476E-11,-52.00000000001));
#198=CARTESIAN_POINT('',(1.50000000001003,-1.00088006184476E-11,-52.00000000001));
#199=CARTESIAN_POINT('',(0.,-1.00069184424271E-11,-55.50000000001));
#200=CARTESIAN_POINT('',(0.,1.49999999998999,-55.50000000001));
#201=CARTESIAN_POINT('',(0.,-6.91844242713782E-15,-55.5));
#202=CARTESIAN_POINT('',(0.,0.,-52.));
#203=CARTESIAN_POINT('',(0.,0.,0.));
#204=(
GEOMETRIC_REPRESENTATION_CONTEXT(3)
GLOBAL_UNCERTAINTY_ASSIGNED_CONTEXT((#207))
GLOBAL_UNIT_ASSIGNED_CONTEXT((#212,#211,#210))
REPRESENTATION_CONTEXT('3359 3.000','TOP_LEVEL_ASSEMBLY_PART')
);
#205=(
GEOMETRIC_REPRESENTATION_CONTEXT(3)
GLOBAL_UNCERTAINTY_ASSIGNED_CONTEXT((#208))
GLOBAL_UNIT_ASSIGNED_CONTEXT((#212,#211,#210))
REPRESENTATION_CONTEXT('3359 3.000_PART1','COMPONENT_PART')
);
#206=(
GEOMETRIC_REPRESENTATION_CONTEXT(3)
GLOBAL_UNCERTAINTY_ASSIGNED_CONTEXT((#209))
GLOBAL_UNIT_ASSIGNED_CONTEXT((#212,#211,#210))
REPRESENTATION_CONTEXT('3359 3.000_PART2','COMPONENT_PART')
);
#207=UNCERTAINTY_MEASURE_WITH_UNIT(LENGTH_MEASURE(1.E-5),#212,
'DISTANCE_ACCURACY_VALUE','Maximum Tolerance applied to model');
#208=UNCERTAINTY_MEASURE_WITH_UNIT(LENGTH_MEASURE(1.E-5),#212,
'DISTANCE_ACCURACY_VALUE','Maximum Tolerance applied to model');
#209=UNCERTAINTY_MEASURE_WITH_UNIT(LENGTH_MEASURE(1.E-5),#212,
'DISTANCE_ACCURACY_VALUE','Maximum Tolerance applied to model');
#210=(
NAMED_UNIT(*)
SI_UNIT($,.STERADIAN.)
SOLID_ANGLE_UNIT()
);
#211=(
NAMED_UNIT(*)
PLANE_ANGLE_UNIT()
SI_UNIT($,.RADIAN.)
);
#212=(
LENGTH_UNIT()
NAMED_UNIT(*)
SI_UNIT(.MILLI.,.METRE.)
);
#213=PRODUCT_DEFINITION_SHAPE('','',#218);
#214=PRODUCT_DEFINITION_SHAPE('','',#219);
#215=PRODUCT_DEFINITION_SHAPE(' ','NAUO PRDDFN',#21);
#216=PRODUCT_DEFINITION_SHAPE('','',#220);
#217=PRODUCT_DEFINITION_SHAPE(' ','NAUO PRDDFN',#22);
#218=PRODUCT_DEFINITION('','',#224,#221);
#219=PRODUCT_DEFINITION('','',#225,#222);
#220=PRODUCT_DEFINITION('','',#226,#223);
#221=DESIGN_CONTEXT('',#240,'design');
#222=DESIGN_CONTEXT('',#240,'design');
#223=DESIGN_CONTEXT('',#240,'design');
#224=PRODUCT_DEFINITION_FORMATION_WITH_SPECIFIED_SOURCE('','',#230,
 .NOT_KNOWN.);
#225=PRODUCT_DEFINITION_FORMATION_WITH_SPECIFIED_SOURCE('','',#231,
 .NOT_KNOWN.);
#226=PRODUCT_DEFINITION_FORMATION_WITH_SPECIFIED_SOURCE('','',#232,
 .NOT_KNOWN.);
#227=PRODUCT_RELATED_PRODUCT_CATEGORY('','',(#230));
#228=PRODUCT_RELATED_PRODUCT_CATEGORY('','',(#231));
#229=PRODUCT_RELATED_PRODUCT_CATEGORY('','',(#232));
#230=PRODUCT('3359 3.000','3359 3.000','3359 3.000',(#236));
#231=PRODUCT('3359 3.000_PART1','3359 3.000_PART1','3359 3.000_PART1',(#237));
#232=PRODUCT('3359 3.000_PART2','3359 3.000_PART2','3359 3.000_PART2',(#238));
#233=PRODUCT_CATEGORY('','');
#234=PRODUCT_CATEGORY('','');
#235=PRODUCT_CATEGORY('','');
#236=MECHANICAL_CONTEXT('',#240,'mechanical');
#237=MECHANICAL_CONTEXT('',#240,'mechanical');
#238=MECHANICAL_CONTEXT('',#240,'mechanical');
#239=APPLICATION_PROTOCOL_DEFINITION('international standard',
'config_control_design',2010,#240);
#240=APPLICATION_CONTEXT(
'configuration controlled 3D designs of mechanical parts and assemblie
s');
ENDSEC;
END-ISO-10303-21;
