ISO-10303-21;
HEADER;
/* Generated by software containing ST-Developer
 * from STEP Tools, Inc. (www.steptools.com) 
 */
/* OPTION: using custom renumber hook */

FILE_DESCRIPTION(
/* description */ ('STEP AP203'),
/* implementation_level */ '2;1');

FILE_NAME(
/* name */ '3361 8.000',
/* time_stamp */ '2026-05-15T14:50:06+02:00',
/* author */ ('License CC BY-ND 4.0'),
/* organization */ ('CADENAS'),
/* preprocessor_version */ 'ST-DEVELOPER v20',
/* originating_system */ 'PARTsolutions',
/* authorisation */ '  ');

FILE_SCHEMA (('CONFIG_CONTROL_DESIGN'));
ENDSEC;

DATA;
#10=PROPERTY_DEFINITION_REPRESENTATION(#14,#12);
#11=PROPERTY_DEFINITION_REPRESENTATION(#15,#13);
#12=REPRESENTATION('',(#16),#228);
#13=REPRESENTATION('',(#17),#228);
#14=PROPERTY_DEFINITION('pmi validation property','',#237);
#15=PROPERTY_DEFINITION('pmi validation property','',#237);
#16=VALUE_REPRESENTATION_ITEM('number of annotations',COUNT_MEASURE(0.));
#17=VALUE_REPRESENTATION_ITEM('number of views',COUNT_MEASURE(0.));
#18=VERTEX_LOOP('',#70);
#19=TOROIDAL_SURFACE('',#152,3.,1.);
#20=CONTEXT_DEPENDENT_SHAPE_REPRESENTATION(#24,#239);
#21=CONTEXT_DEPENDENT_SHAPE_REPRESENTATION(#25,#241);
#22=NEXT_ASSEMBLY_USAGE_OCCURRENCE('NAUO1','3361 8.000_PART1',
'3361 8.000_PART1',#242,#243,'');
#23=NEXT_ASSEMBLY_USAGE_OCCURRENCE('NAUO2','3361 8.000_PART2',
'3361 8.000_PART2',#242,#244,'');
#24=(
REPRESENTATION_RELATIONSHIP(' ',' ',#133,#132)
REPRESENTATION_RELATIONSHIP_WITH_TRANSFORMATION(#26)
SHAPE_REPRESENTATION_RELATIONSHIP()
);
#25=(
REPRESENTATION_RELATIONSHIP(' ',' ',#134,#132)
REPRESENTATION_RELATIONSHIP_WITH_TRANSFORMATION(#27)
SHAPE_REPRESENTATION_RELATIONSHIP()
);
#26=ITEM_DEFINED_TRANSFORMATION(' ',' ',#135,#147);
#27=ITEM_DEFINED_TRANSFORMATION(' ',' ',#135,#155);
#28=SHAPE_REPRESENTATION_RELATIONSHIP('','',#133,#30);
#29=SHAPE_REPRESENTATION_RELATIONSHIP('','',#134,#31);
#30=ADVANCED_BREP_SHAPE_REPRESENTATION('',(#127),#229);
#31=ADVANCED_BREP_SHAPE_REPRESENTATION('',(#128),#230);
#32=PLANE('',#141);
#33=PLANE('',#142);
#34=PLANE('',#151);
#35=CONICAL_SURFACE('',#139,3.85,0.7853981625);
#36=CONICAL_SURFACE('',#146,4.,1.5533430325);
#37=CONICAL_SURFACE('',#154,16.349855,1.5097098013);
#38=ORIENTED_EDGE('',*,*,#54,.T.);
#39=ORIENTED_EDGE('',*,*,#55,.T.);
#40=ORIENTED_EDGE('',*,*,#56,.F.);
#41=ORIENTED_EDGE('',*,*,#55,.F.);
#42=ORIENTED_EDGE('',*,*,#54,.F.);
#43=ORIENTED_EDGE('',*,*,#57,.T.);
#44=ORIENTED_EDGE('',*,*,#58,.F.);
#45=ORIENTED_EDGE('',*,*,#56,.T.);
#46=ORIENTED_EDGE('',*,*,#57,.F.);
#47=ORIENTED_EDGE('',*,*,#58,.T.);
#48=ORIENTED_EDGE('',*,*,#59,.T.);
#49=ORIENTED_EDGE('',*,*,#60,.T.);
#50=ORIENTED_EDGE('',*,*,#60,.F.);
#51=ORIENTED_EDGE('',*,*,#59,.F.);
#52=ORIENTED_EDGE('',*,*,#61,.T.);
#53=ORIENTED_EDGE('',*,*,#61,.F.);
#54=EDGE_CURVE('',#62,#62,#71,.T.);
#55=EDGE_CURVE('',#63,#63,#72,.T.);
#56=EDGE_CURVE('',#64,#64,#73,.T.);
#57=EDGE_CURVE('',#65,#65,#74,.T.);
#58=EDGE_CURVE('',#66,#66,#75,.T.);
#59=EDGE_CURVE('',#67,#67,#76,.T.);
#60=EDGE_CURVE('',#68,#68,#77,.T.);
#61=EDGE_CURVE('',#69,#69,#78,.T.);
#62=VERTEX_POINT('',#201);
#63=VERTEX_POINT('',#203);
#64=VERTEX_POINT('',#206);
#65=VERTEX_POINT('',#210);
#66=VERTEX_POINT('',#213);
#67=VERTEX_POINT('',#218);
#68=VERTEX_POINT('',#220);
#69=VERTEX_POINT('',#224);
#70=VERTEX_POINT('',#226);
#71=CIRCLE('',#137,4.);
#72=CIRCLE('',#138,4.);
#73=CIRCLE('',#140,3.85);
#74=CIRCLE('',#143,4.);
#75=CIRCLE('',#145,3.85);
#76=CIRCLE('',#149,4.);
#77=CIRCLE('',#150,4.);
#78=CIRCLE('',#153,2.93895145839285);
#79=EDGE_LOOP('',(#38));
#80=EDGE_LOOP('',(#39));
#81=EDGE_LOOP('',(#40));
#82=EDGE_LOOP('',(#41));
#83=EDGE_LOOP('',(#42));
#84=EDGE_LOOP('',(#43));
#85=EDGE_LOOP('',(#44));
#86=EDGE_LOOP('',(#45));
#87=EDGE_LOOP('',(#46));
#88=EDGE_LOOP('',(#47));
#89=EDGE_LOOP('',(#48));
#90=EDGE_LOOP('',(#49));
#91=EDGE_LOOP('',(#50));
#92=EDGE_LOOP('',(#51));
#93=EDGE_LOOP('',(#52));
#94=EDGE_LOOP('',(#53));
#95=FACE_BOUND('',#79,.T.);
#96=FACE_BOUND('',#80,.T.);
#97=FACE_BOUND('',#81,.T.);
#98=FACE_BOUND('',#82,.T.);
#99=FACE_BOUND('',#83,.T.);
#100=FACE_BOUND('',#84,.T.);
#101=FACE_BOUND('',#85,.T.);
#102=FACE_BOUND('',#86,.T.);
#103=FACE_BOUND('',#87,.T.);
#104=FACE_BOUND('',#88,.T.);
#105=FACE_BOUND('',#89,.T.);
#106=FACE_BOUND('',#90,.T.);
#107=FACE_BOUND('',#91,.T.);
#108=FACE_BOUND('',#92,.T.);
#109=FACE_BOUND('',#93,.T.);
#110=FACE_BOUND('',#94,.T.);
#111=FACE_BOUND('',#18,.T.);
#112=CYLINDRICAL_SURFACE('',#136,4.);
#113=CYLINDRICAL_SURFACE('',#144,3.85);
#114=CYLINDRICAL_SURFACE('',#148,4.);
#115=ADVANCED_FACE('',(#95,#96),#112,.T.);
#116=ADVANCED_FACE('',(#97,#98),#35,.T.);
#117=ADVANCED_FACE('',(#99),#32,.T.);
#118=ADVANCED_FACE('',(#100),#33,.F.);
#119=ADVANCED_FACE('',(#101,#102),#113,.T.);
#120=ADVANCED_FACE('',(#103,#104),#36,.T.);
#121=ADVANCED_FACE('',(#105,#106),#114,.T.);
#122=ADVANCED_FACE('',(#107),#34,.T.);
#123=ADVANCED_FACE('',(#108,#109),#19,.T.);
#124=ADVANCED_FACE('',(#110,#111),#37,.F.);
#125=CLOSED_SHELL('',(#115,#116,#117,#118,#119,#120));
#126=CLOSED_SHELL('',(#121,#122,#123,#124));
#127=MANIFOLD_SOLID_BREP('1',#125);
#128=MANIFOLD_SOLID_BREP('1',#126);
#129=SHAPE_DEFINITION_REPRESENTATION(#237,#132);
#130=SHAPE_DEFINITION_REPRESENTATION(#238,#133);
#131=SHAPE_DEFINITION_REPRESENTATION(#240,#134);
#132=SHAPE_REPRESENTATION('3361 8.000',(#135,#147,#155),#228);
#133=SHAPE_REPRESENTATION('3361 8.000_PART1',(#135),#229);
#134=SHAPE_REPRESENTATION('3361 8.000_PART2',(#135),#230);
#135=AXIS2_PLACEMENT_3D('',#198,#156,#157);
#136=AXIS2_PLACEMENT_3D('',#199,#158,#159);
#137=AXIS2_PLACEMENT_3D('',#200,#160,#161);
#138=AXIS2_PLACEMENT_3D('',#202,#162,#163);
#139=AXIS2_PLACEMENT_3D('',#204,#164,#165);
#140=AXIS2_PLACEMENT_3D('',#205,#166,#167);
#141=AXIS2_PLACEMENT_3D('',#207,#168,#169);
#142=AXIS2_PLACEMENT_3D('',#208,#170,#171);
#143=AXIS2_PLACEMENT_3D('',#209,#172,#173);
#144=AXIS2_PLACEMENT_3D('',#211,#174,#175);
#145=AXIS2_PLACEMENT_3D('',#212,#176,#177);
#146=AXIS2_PLACEMENT_3D('',#214,#178,#179);
#147=AXIS2_PLACEMENT_3D('',#215,#180,#181);
#148=AXIS2_PLACEMENT_3D('',#216,#182,#183);
#149=AXIS2_PLACEMENT_3D('',#217,#184,#185);
#150=AXIS2_PLACEMENT_3D('',#219,#186,#187);
#151=AXIS2_PLACEMENT_3D('',#221,#188,#189);
#152=AXIS2_PLACEMENT_3D('',#222,#190,#191);
#153=AXIS2_PLACEMENT_3D('',#223,#192,#193);
#154=AXIS2_PLACEMENT_3D('',#225,#194,#195);
#155=AXIS2_PLACEMENT_3D('',#227,#196,#197);
#156=DIRECTION('',(0.,0.,1.));
#157=DIRECTION('',(1.,0.,0.));
#158=DIRECTION('',(0.,0.,1.));
#159=DIRECTION('',(-1.,0.,0.));
#160=DIRECTION('',(0.,0.,-1.));
#161=DIRECTION('',(-1.,0.,0.));
#162=DIRECTION('',(0.,0.,1.));
#163=DIRECTION('',(1.,0.,0.));
#164=DIRECTION('',(0.,0.,1.));
#165=DIRECTION('',(0.,1.,0.));
#166=DIRECTION('',(0.,0.,-1.));
#167=DIRECTION('',(0.,-1.,0.));
#168=DIRECTION('',(0.,0.,1.));
#169=DIRECTION('',(1.,0.,0.));
#170=DIRECTION('',(0.,0.,1.));
#171=DIRECTION('',(1.,0.,0.));
#172=DIRECTION('',(0.,0.,-1.));
#173=DIRECTION('',(1.,0.,0.));
#174=DIRECTION('',(0.,0.,1.));
#175=DIRECTION('',(0.,-1.,0.));
#176=DIRECTION('',(0.,0.,-1.));
#177=DIRECTION('',(0.,-1.,0.));
#178=DIRECTION('',(0.,0.,-1.));
#179=DIRECTION('',(0.,-1.,0.));
#180=DIRECTION('',(0.,0.,1.));
#181=DIRECTION('',(1.,0.,0.));
#182=DIRECTION('',(0.,0.,1.));
#183=DIRECTION('',(0.,-1.,0.));
#184=DIRECTION('',(0.,0.,1.));
#185=DIRECTION('',(1.,0.,0.));
#186=DIRECTION('',(0.,0.,-1.));
#187=DIRECTION('',(1.,0.,0.));
#188=DIRECTION('',(0.,0.,1.));
#189=DIRECTION('',(1.,0.,0.));
#190=DIRECTION('',(0.,0.,1.));
#191=DIRECTION('',(1.,0.,0.));
#192=DIRECTION('',(0.,0.,1.));
#193=DIRECTION('',(1.,0.,0.));
#194=DIRECTION('',(0.,0.,-1.));
#195=DIRECTION('',(0.,-1.,0.));
#196=DIRECTION('',(0.,0.,1.));
#197=DIRECTION('',(1.,0.,0.));
#198=CARTESIAN_POINT('',(0.,0.,0.));
#199=CARTESIAN_POINT('',(0.,0.,0.));
#200=CARTESIAN_POINT('',(0.,0.,0.));
#201=CARTESIAN_POINT('',(-4.,0.,0.));
#202=CARTESIAN_POINT('',(0.,0.,-36.00000000001));
#203=CARTESIAN_POINT('',(4.,0.,-36.00000000001));
#204=CARTESIAN_POINT('',(0.,-1.41711100199152E-14,-36.15));
#205=CARTESIAN_POINT('',(0.,-1.00141711100199E-11,-36.15000000001));
#206=CARTESIAN_POINT('',(0.,-3.85000000001001,-36.15000000001));
#207=CARTESIAN_POINT('',(0.,0.,0.));
#208=CARTESIAN_POINT('',(0.,0.,-51.));
#209=CARTESIAN_POINT('',(1.00607192551463E-11,-1.00102363851865E-11,-51.00000000001));
#210=CARTESIAN_POINT('',(4.00000000001006,-1.00102363851865E-11,-51.00000000001));
#211=CARTESIAN_POINT('',(0.,-1.4210854715202E-14,-36.));
#212=CARTESIAN_POINT('',(0.,-1.00102370789328E-11,-50.9973817402707));
#213=CARTESIAN_POINT('',(0.,-3.85000000001001,-50.9973817402707));
#214=CARTESIAN_POINT('',(0.,-1.02363851865257E-14,-51.));
#215=CARTESIAN_POINT('',(0.,0.,0.));
#216=CARTESIAN_POINT('',(0.,-1.4210854715202E-14,-36.));
#217=CARTESIAN_POINT('',(0.,0.,-61.9981313129538));
#218=CARTESIAN_POINT('',(4.,0.,-61.9981313129538));
#219=CARTESIAN_POINT('',(1.00607192551463E-11,-1.00102363851865E-11,-51.00000000001));
#220=CARTESIAN_POINT('',(4.00000000001006,-1.00102363851865E-11,-51.00000000001));
#221=CARTESIAN_POINT('',(0.,0.,-51.));
#222=CARTESIAN_POINT('',(0.,0.,-61.9981313129438));
#223=CARTESIAN_POINT('',(0.,0.,-62.9962661178098));
#224=CARTESIAN_POINT('',(2.93895145839285,0.,-62.9962661178098));
#225=CARTESIAN_POINT('',(0.,-6.84046272235591E-15,-63.8165121395485));
#226=CARTESIAN_POINT('',(0.,-7.105427357601E-15,-62.8165121395485));
#227=CARTESIAN_POINT('',(0.,0.,0.));
#228=(
GEOMETRIC_REPRESENTATION_CONTEXT(3)
GLOBAL_UNCERTAINTY_ASSIGNED_CONTEXT((#231))
GLOBAL_UNIT_ASSIGNED_CONTEXT((#236,#235,#234))
REPRESENTATION_CONTEXT('3361 8.000','TOP_LEVEL_ASSEMBLY_PART')
);
#229=(
GEOMETRIC_REPRESENTATION_CONTEXT(3)
GLOBAL_UNCERTAINTY_ASSIGNED_CONTEXT((#232))
GLOBAL_UNIT_ASSIGNED_CONTEXT((#236,#235,#234))
REPRESENTATION_CONTEXT('3361 8.000_PART1','COMPONENT_PART')
);
#230=(
GEOMETRIC_REPRESENTATION_CONTEXT(3)
GLOBAL_UNCERTAINTY_ASSIGNED_CONTEXT((#233))
GLOBAL_UNIT_ASSIGNED_CONTEXT((#236,#235,#234))
REPRESENTATION_CONTEXT('3361 8.000_PART2','COMPONENT_PART')
);
#231=UNCERTAINTY_MEASURE_WITH_UNIT(LENGTH_MEASURE(1.E-5),#236,
'DISTANCE_ACCURACY_VALUE','Maximum Tolerance applied to model');
#232=UNCERTAINTY_MEASURE_WITH_UNIT(LENGTH_MEASURE(1.E-5),#236,
'DISTANCE_ACCURACY_VALUE','Maximum Tolerance applied to model');
#233=UNCERTAINTY_MEASURE_WITH_UNIT(LENGTH_MEASURE(1.E-5),#236,
'DISTANCE_ACCURACY_VALUE','Maximum Tolerance applied to model');
#234=(
NAMED_UNIT(*)
SI_UNIT($,.STERADIAN.)
SOLID_ANGLE_UNIT()
);
#235=(
NAMED_UNIT(*)
PLANE_ANGLE_UNIT()
SI_UNIT($,.RADIAN.)
);
#236=(
LENGTH_UNIT()
NAMED_UNIT(*)
SI_UNIT(.MILLI.,.METRE.)
);
#237=PRODUCT_DEFINITION_SHAPE('','',#242);
#238=PRODUCT_DEFINITION_SHAPE('','',#243);
#239=PRODUCT_DEFINITION_SHAPE(' ','NAUO PRDDFN',#22);
#240=PRODUCT_DEFINITION_SHAPE('','',#244);
#241=PRODUCT_DEFINITION_SHAPE(' ','NAUO PRDDFN',#23);
#242=PRODUCT_DEFINITION('','',#248,#245);
#243=PRODUCT_DEFINITION('','',#249,#246);
#244=PRODUCT_DEFINITION('','',#250,#247);
#245=DESIGN_CONTEXT('',#264,'design');
#246=DESIGN_CONTEXT('',#264,'design');
#247=DESIGN_CONTEXT('',#264,'design');
#248=PRODUCT_DEFINITION_FORMATION_WITH_SPECIFIED_SOURCE('','',#254,
 .NOT_KNOWN.);
#249=PRODUCT_DEFINITION_FORMATION_WITH_SPECIFIED_SOURCE('','',#255,
 .NOT_KNOWN.);
#250=PRODUCT_DEFINITION_FORMATION_WITH_SPECIFIED_SOURCE('','',#256,
 .NOT_KNOWN.);
#251=PRODUCT_RELATED_PRODUCT_CATEGORY('','',(#254));
#252=PRODUCT_RELATED_PRODUCT_CATEGORY('','',(#255));
#253=PRODUCT_RELATED_PRODUCT_CATEGORY('','',(#256));
#254=PRODUCT('3361 8.000','3361 8.000','3361 8.000',(#260));
#255=PRODUCT('3361 8.000_PART1','3361 8.000_PART1','3361 8.000_PART1',(#261));
#256=PRODUCT('3361 8.000_PART2','3361 8.000_PART2','3361 8.000_PART2',(#262));
#257=PRODUCT_CATEGORY('','');
#258=PRODUCT_CATEGORY('','');
#259=PRODUCT_CATEGORY('','');
#260=MECHANICAL_CONTEXT('',#264,'mechanical');
#261=MECHANICAL_CONTEXT('',#264,'mechanical');
#262=MECHANICAL_CONTEXT('',#264,'mechanical');
#263=APPLICATION_PROTOCOL_DEFINITION('international standard',
'config_control_design',2010,#264);
#264=APPLICATION_CONTEXT(
'configuration controlled 3D designs of mechanical parts and assemblie
s');
ENDSEC;
END-ISO-10303-21;
