ISO-10303-21;
HEADER;
/* Generated by software containing ST-Developer
 * from STEP Tools, Inc. (www.steptools.com) 
 */
/* OPTION: using custom renumber hook */

FILE_DESCRIPTION(
/* description */ ('STEP AP203'),
/* implementation_level */ '2;1');

FILE_NAME(
/* name */ '3466 18.000',
/* time_stamp */ '2026-05-15T14:51:09+02:00',
/* author */ ('License CC BY-ND 4.0'),
/* organization */ ('CADENAS'),
/* preprocessor_version */ 'ST-DEVELOPER v20',
/* originating_system */ 'PARTsolutions',
/* authorisation */ '  ');

FILE_SCHEMA (('CONFIG_CONTROL_DESIGN'));
ENDSEC;

DATA;
#10=PROPERTY_DEFINITION_REPRESENTATION(#14,#12);
#11=PROPERTY_DEFINITION_REPRESENTATION(#15,#13);
#12=REPRESENTATION('',(#16),#302);
#13=REPRESENTATION('',(#17),#302);
#14=PROPERTY_DEFINITION('pmi validation property','',#311);
#15=PROPERTY_DEFINITION('pmi validation property','',#311);
#16=VALUE_REPRESENTATION_ITEM('number of annotations',COUNT_MEASURE(0.));
#17=VALUE_REPRESENTATION_ITEM('number of views',COUNT_MEASURE(0.));
#18=ELLIPSE('',#197,11.3137084989847,8.);
#19=ELLIPSE('',#198,11.3137084989848,8.);
#20=LINE('',#287,#24);
#21=LINE('',#292,#25);
#22=LINE('',#296,#26);
#23=LINE('',#298,#27);
#24=VECTOR('',#242,1000.);
#25=VECTOR('',#245,1000.);
#26=VECTOR('',#250,1000.);
#27=VECTOR('',#253,1000.);
#28=CONICAL_SURFACE('',#188,9.00000000000001,1.55334303424039);
#29=CONICAL_SURFACE('',#192,8.999,0.523598775598297);
#30=CONTEXT_DEPENDENT_SHAPE_REPRESENTATION(#34,#313);
#31=CONTEXT_DEPENDENT_SHAPE_REPRESENTATION(#35,#315);
#32=NEXT_ASSEMBLY_USAGE_OCCURRENCE('NAUO1','3466 18.000_PART1',
'3466 18.000_PART1',#316,#317,'');
#33=NEXT_ASSEMBLY_USAGE_OCCURRENCE('NAUO2','3466 18.000_PART2',
'3466 18.000_PART2',#316,#318,'');
#34=(
REPRESENTATION_RELATIONSHIP(' ',' ',#176,#175)
REPRESENTATION_RELATIONSHIP_WITH_TRANSFORMATION(#36)
SHAPE_REPRESENTATION_RELATIONSHIP()
);
#35=(
REPRESENTATION_RELATIONSHIP(' ',' ',#177,#175)
REPRESENTATION_RELATIONSHIP_WITH_TRANSFORMATION(#37)
SHAPE_REPRESENTATION_RELATIONSHIP()
);
#36=ITEM_DEFINED_TRANSFORMATION(' ',' ',#178,#184);
#37=ITEM_DEFINED_TRANSFORMATION(' ',' ',#178,#203);
#38=SHAPE_REPRESENTATION_RELATIONSHIP('','',#176,#40);
#39=SHAPE_REPRESENTATION_RELATIONSHIP('','',#177,#41);
#40=ADVANCED_BREP_SHAPE_REPRESENTATION('',(#170),#303);
#41=ADVANCED_BREP_SHAPE_REPRESENTATION('',(#171),#304);
#42=CYLINDRICAL_SURFACE('',#183,9.00000000000001);
#43=CYLINDRICAL_SURFACE('',#185,9.00000000000001);
#44=CYLINDRICAL_SURFACE('',#190,8.999);
#45=CYLINDRICAL_SURFACE('',#196,8.);
#46=SPHERICAL_SURFACE('',#181,9.);
#47=ORIENTED_EDGE('',*,*,#75,.F.);
#48=ORIENTED_EDGE('',*,*,#76,.F.);
#49=ORIENTED_EDGE('',*,*,#76,.T.);
#50=ORIENTED_EDGE('',*,*,#75,.T.);
#51=ORIENTED_EDGE('',*,*,#77,.F.);
#52=ORIENTED_EDGE('',*,*,#78,.T.);
#53=ORIENTED_EDGE('',*,*,#79,.T.);
#54=ORIENTED_EDGE('',*,*,#78,.F.);
#55=ORIENTED_EDGE('',*,*,#80,.T.);
#56=ORIENTED_EDGE('',*,*,#79,.F.);
#57=ORIENTED_EDGE('',*,*,#81,.F.);
#58=ORIENTED_EDGE('',*,*,#80,.F.);
#59=ORIENTED_EDGE('',*,*,#82,.F.);
#60=ORIENTED_EDGE('',*,*,#83,.F.);
#61=ORIENTED_EDGE('',*,*,#84,.F.);
#62=ORIENTED_EDGE('',*,*,#85,.F.);
#63=ORIENTED_EDGE('',*,*,#86,.F.);
#64=ORIENTED_EDGE('',*,*,#81,.T.);
#65=ORIENTED_EDGE('',*,*,#82,.T.);
#66=ORIENTED_EDGE('',*,*,#84,.T.);
#67=ORIENTED_EDGE('',*,*,#87,.F.);
#68=ORIENTED_EDGE('',*,*,#83,.T.);
#69=ORIENTED_EDGE('',*,*,#88,.F.);
#70=ORIENTED_EDGE('',*,*,#85,.T.);
#71=ORIENTED_EDGE('',*,*,#87,.T.);
#72=ORIENTED_EDGE('',*,*,#88,.T.);
#73=ORIENTED_EDGE('',*,*,#86,.T.);
#74=ORIENTED_EDGE('',*,*,#77,.T.);
#75=EDGE_CURVE('',#89,#89,#101,.T.);
#76=EDGE_CURVE('',#90,#90,#102,.T.);
#77=EDGE_CURVE('',#91,#91,#103,.T.);
#78=EDGE_CURVE('',#92,#92,#104,.T.);
#79=EDGE_CURVE('',#93,#93,#105,.T.);
#80=EDGE_CURVE('',#94,#94,#106,.T.);
#81=EDGE_CURVE('',#95,#95,#107,.T.);
#82=EDGE_CURVE('',#96,#96,#108,.T.);
#83=EDGE_CURVE('',#97,#98,#20,.T.);
#84=EDGE_CURVE('',#99,#97,#18,.T.);
#85=EDGE_CURVE('',#100,#99,#21,.T.);
#86=EDGE_CURVE('',#98,#100,#19,.T.);
#87=EDGE_CURVE('',#99,#97,#22,.T.);
#88=EDGE_CURVE('',#100,#98,#23,.T.);
#89=VERTEX_POINT('',#263);
#90=VERTEX_POINT('',#266);
#91=VERTEX_POINT('',#271);
#92=VERTEX_POINT('',#273);
#93=VERTEX_POINT('',#276);
#94=VERTEX_POINT('',#279);
#95=VERTEX_POINT('',#282);
#96=VERTEX_POINT('',#285);
#97=VERTEX_POINT('',#288);
#98=VERTEX_POINT('',#289);
#99=VERTEX_POINT('',#291);
#100=VERTEX_POINT('',#293);
#101=CIRCLE('',#180,9.00000000000001);
#102=CIRCLE('',#182,9.);
#103=CIRCLE('',#186,9.00000000000001);
#104=CIRCLE('',#187,9.00000000000001);
#105=CIRCLE('',#189,8.999);
#106=CIRCLE('',#191,8.999);
#107=CIRCLE('',#193,8.);
#108=CIRCLE('',#195,8.);
#109=EDGE_LOOP('',(#47));
#110=EDGE_LOOP('',(#48));
#111=EDGE_LOOP('',(#49));
#112=EDGE_LOOP('',(#50));
#113=EDGE_LOOP('',(#51));
#114=EDGE_LOOP('',(#52));
#115=EDGE_LOOP('',(#53));
#116=EDGE_LOOP('',(#54));
#117=EDGE_LOOP('',(#55));
#118=EDGE_LOOP('',(#56));
#119=EDGE_LOOP('',(#57));
#120=EDGE_LOOP('',(#58));
#121=EDGE_LOOP('',(#59));
#122=EDGE_LOOP('',(#60,#61,#62,#63));
#123=EDGE_LOOP('',(#64));
#124=EDGE_LOOP('',(#65));
#125=EDGE_LOOP('',(#66,#67));
#126=EDGE_LOOP('',(#68,#69,#70,#71));
#127=EDGE_LOOP('',(#72,#73));
#128=EDGE_LOOP('',(#74));
#129=FACE_BOUND('',#109,.T.);
#130=FACE_BOUND('',#110,.T.);
#131=FACE_BOUND('',#111,.T.);
#132=FACE_BOUND('',#112,.T.);
#133=FACE_BOUND('',#113,.T.);
#134=FACE_BOUND('',#114,.T.);
#135=FACE_BOUND('',#115,.T.);
#136=FACE_BOUND('',#116,.T.);
#137=FACE_BOUND('',#117,.T.);
#138=FACE_BOUND('',#118,.T.);
#139=FACE_BOUND('',#119,.T.);
#140=FACE_BOUND('',#120,.T.);
#141=FACE_BOUND('',#121,.T.);
#142=FACE_BOUND('',#122,.T.);
#143=FACE_BOUND('',#123,.T.);
#144=FACE_BOUND('',#124,.T.);
#145=FACE_BOUND('',#125,.T.);
#146=FACE_BOUND('',#126,.T.);
#147=FACE_BOUND('',#127,.T.);
#148=FACE_BOUND('',#128,.T.);
#149=PLANE('',#179);
#150=PLANE('',#194);
#151=PLANE('',#199);
#152=PLANE('',#200);
#153=PLANE('',#201);
#154=PLANE('',#202);
#155=ADVANCED_FACE('',(#129),#149,.T.);
#156=ADVANCED_FACE('',(#130),#46,.T.);
#157=ADVANCED_FACE('',(#131,#132),#42,.T.);
#158=ADVANCED_FACE('',(#133,#134),#43,.T.);
#159=ADVANCED_FACE('',(#135,#136),#28,.T.);
#160=ADVANCED_FACE('',(#137,#138),#44,.T.);
#161=ADVANCED_FACE('',(#139,#140),#29,.T.);
#162=ADVANCED_FACE('',(#141),#150,.T.);
#163=ADVANCED_FACE('',(#142,#143,#144),#45,.T.);
#164=ADVANCED_FACE('',(#145),#151,.F.);
#165=ADVANCED_FACE('',(#146),#152,.F.);
#166=ADVANCED_FACE('',(#147),#153,.F.);
#167=ADVANCED_FACE('',(#148),#154,.F.);
#168=CLOSED_SHELL('',(#155,#156,#157));
#169=CLOSED_SHELL('',(#158,#159,#160,#161,#162,#163,#164,#165,#166,#167));
#170=MANIFOLD_SOLID_BREP('solid',#168);
#171=MANIFOLD_SOLID_BREP('solid',#169);
#172=SHAPE_DEFINITION_REPRESENTATION(#311,#175);
#173=SHAPE_DEFINITION_REPRESENTATION(#312,#176);
#174=SHAPE_DEFINITION_REPRESENTATION(#314,#177);
#175=SHAPE_REPRESENTATION('3466 18.000',(#178,#184,#203),#302);
#176=SHAPE_REPRESENTATION('3466 18.000_PART1',(#178),#303);
#177=SHAPE_REPRESENTATION('3466 18.000_PART2',(#178),#304);
#178=AXIS2_PLACEMENT_3D('',#260,#204,#205);
#179=AXIS2_PLACEMENT_3D('',#261,#206,#207);
#180=AXIS2_PLACEMENT_3D('',#262,#208,#209);
#181=AXIS2_PLACEMENT_3D('',#264,#210,#211);
#182=AXIS2_PLACEMENT_3D('',#265,#212,#213);
#183=AXIS2_PLACEMENT_3D('',#267,#214,#215);
#184=AXIS2_PLACEMENT_3D('',#268,#216,#217);
#185=AXIS2_PLACEMENT_3D('',#269,#218,#219);
#186=AXIS2_PLACEMENT_3D('',#270,#220,#221);
#187=AXIS2_PLACEMENT_3D('',#272,#222,#223);
#188=AXIS2_PLACEMENT_3D('',#274,#224,#225);
#189=AXIS2_PLACEMENT_3D('',#275,#226,#227);
#190=AXIS2_PLACEMENT_3D('',#277,#228,#229);
#191=AXIS2_PLACEMENT_3D('',#278,#230,#231);
#192=AXIS2_PLACEMENT_3D('',#280,#232,#233);
#193=AXIS2_PLACEMENT_3D('',#281,#234,#235);
#194=AXIS2_PLACEMENT_3D('',#283,#236,#237);
#195=AXIS2_PLACEMENT_3D('',#284,#238,#239);
#196=AXIS2_PLACEMENT_3D('',#286,#240,#241);
#197=AXIS2_PLACEMENT_3D('',#290,#243,#244);
#198=AXIS2_PLACEMENT_3D('',#294,#246,#247);
#199=AXIS2_PLACEMENT_3D('',#295,#248,#249);
#200=AXIS2_PLACEMENT_3D('',#297,#251,#252);
#201=AXIS2_PLACEMENT_3D('',#299,#254,#255);
#202=AXIS2_PLACEMENT_3D('',#300,#256,#257);
#203=AXIS2_PLACEMENT_3D('',#301,#258,#259);
#204=DIRECTION('',(0.,0.,1.));
#205=DIRECTION('',(1.,0.,0.));
#206=DIRECTION('',(0.,0.,1.));
#207=DIRECTION('',(1.,0.,0.));
#208=DIRECTION('',(0.,0.,-1.));
#209=DIRECTION('',(1.,0.,0.));
#210=DIRECTION('',(0.,1.51174458408013E-16,1.));
#211=DIRECTION('',(0.,1.,0.));
#212=DIRECTION('',(0.,8.99421184506456E-17,1.));
#213=DIRECTION('',(0.,1.,0.));
#214=DIRECTION('',(0.,0.,-1.));
#215=DIRECTION('',(0.,-1.,0.));
#216=DIRECTION('',(0.,0.,1.));
#217=DIRECTION('',(1.,0.,0.));
#218=DIRECTION('',(0.,0.,-1.));
#219=DIRECTION('',(0.,-1.,0.));
#220=DIRECTION('',(0.,0.,-1.));
#221=DIRECTION('',(1.,0.,0.));
#222=DIRECTION('',(0.,4.58414668232323E-16,-1.));
#223=DIRECTION('',(0.,-1.,-7.70988211545247E-16));
#224=DIRECTION('',(0.,0.,-1.));
#225=DIRECTION('',(0.,-1.,0.));
#226=DIRECTION('',(0.,4.58414668232323E-16,-1.));
#227=DIRECTION('',(0.,-1.,-7.71073886421517E-16));
#228=DIRECTION('',(0.,0.,-1.));
#229=DIRECTION('',(0.,-1.,0.));
#230=DIRECTION('',(0.,4.58414668232323E-16,-1.));
#231=DIRECTION('',(0.,-1.,-7.71073886421517E-16));
#232=DIRECTION('',(0.,0.,-1.));
#233=DIRECTION('',(0.,-1.,0.));
#234=DIRECTION('',(0.,0.,1.));
#235=DIRECTION('',(1.,0.,0.));
#236=DIRECTION('',(0.,0.,1.));
#237=DIRECTION('',(1.,0.,0.));
#238=DIRECTION('',(0.,0.,-1.));
#239=DIRECTION('',(-1.,0.,0.));
#240=DIRECTION('',(0.,0.,-1.));
#241=DIRECTION('',(-1.,0.,0.));
#242=DIRECTION('',(0.,0.,1.));
#243=DIRECTION('',(-0.707106781186547,0.,0.707106781186548));
#244=DIRECTION('',(-0.707106781186548,0.,-0.707106781186547));
#245=DIRECTION('',(0.,0.,-1.));
#246=DIRECTION('',(-0.707106781186548,0.,-0.707106781186547));
#247=DIRECTION('',(0.707106781186547,0.,-0.707106781186548));
#248=DIRECTION('',(0.707106781186548,0.,-0.707106781186548));
#249=DIRECTION('',(-0.707106781186547,0.,-0.707106781186548));
#250=DIRECTION('',(0.,-1.,0.));
#251=DIRECTION('',(1.,0.,0.));
#252=DIRECTION('',(0.,0.,-1.));
#253=DIRECTION('',(0.,-1.,0.));
#254=DIRECTION('',(0.707106781186548,0.,0.707106781186548));
#255=DIRECTION('',(0.707106781186548,0.,-0.707106781186547));
#256=DIRECTION('',(0.,0.,1.));
#257=DIRECTION('',(1.,0.,0.));
#258=DIRECTION('',(0.,0.,1.));
#259=DIRECTION('',(1.,0.,0.));
#260=CARTESIAN_POINT('',(0.,0.,0.));
#261=CARTESIAN_POINT('',(0.,0.,-60.));
#262=CARTESIAN_POINT('',(0.,-1.58153060540151E-14,-60.));
#263=CARTESIAN_POINT('',(9.00000000000001,-1.58153060540151E-14,-60.));
#264=CARTESIAN_POINT('',(0.,-8.72596342161527E-15,-70.));
#265=CARTESIAN_POINT('',(0.,-6.29594829154519E-15,-70.));
#266=CARTESIAN_POINT('',(0.,8.99999999999999,-70.));
#267=CARTESIAN_POINT('',(0.,-2.1316282072803E-14,-48.));
#268=CARTESIAN_POINT('',(0.,0.,0.));
#269=CARTESIAN_POINT('',(0.,-2.1316282072803E-14,-48.));
#270=CARTESIAN_POINT('',(0.,-1.58153060540151E-14,-60.));
#271=CARTESIAN_POINT('',(9.00000000000001,-1.58153060540151E-14,-60.));
#272=CARTESIAN_POINT('',(0.,-2.0518486425646E-14,-49.7403362118262));
#273=CARTESIAN_POINT('',(0.,-9.00000000000003,-49.7403362118262));
#274=CARTESIAN_POINT('',(0.,-2.0518486425646E-14,-49.7403362118262));
#275=CARTESIAN_POINT('',(0.,-2.05184944273038E-14,-49.7403187567613));
#276=CARTESIAN_POINT('',(0.,-8.99900000000002,-49.7403187567613));
#277=CARTESIAN_POINT('',(0.,-2.1316282072803E-14,-48.));
#278=CARTESIAN_POINT('',(0.,-2.05230785739861E-14,-49.7303187567613));
#279=CARTESIAN_POINT('',(0.,-8.99900000000002,-49.7303187567613));
#280=CARTESIAN_POINT('',(0.,-2.05230785739861E-14,-49.7303187567613));
#281=CARTESIAN_POINT('',(0.,0.,-48.));
#282=CARTESIAN_POINT('',(8.,0.,-48.));
#283=CARTESIAN_POINT('',(0.,0.,0.));
#284=CARTESIAN_POINT('',(0.,0.,0.));
#285=CARTESIAN_POINT('',(-8.,0.,0.));
#286=CARTESIAN_POINT('',(0.,0.,0.));
#287=CARTESIAN_POINT('',(-6.2,-5.05568986390581,0.));
#288=CARTESIAN_POINT('',(-6.2,-5.05568986390579,-29.));
#289=CARTESIAN_POINT('',(-6.2,-5.05568986390583,-19.));
#290=CARTESIAN_POINT('',(0.,0.,-22.8));
#291=CARTESIAN_POINT('',(-6.2,5.05568986390579,-29.));
#292=CARTESIAN_POINT('',(-6.2,5.05568986390581,0.));
#293=CARTESIAN_POINT('',(-6.2,5.05568986390583,-19.));
#294=CARTESIAN_POINT('',(0.,0.,-25.2));
#295=CARTESIAN_POINT('',(-8.,8.,-30.8));
#296=CARTESIAN_POINT('',(-6.2,8.,-29.));
#297=CARTESIAN_POINT('',(-6.2,8.,-24.));
#298=CARTESIAN_POINT('',(-6.2,8.,-19.));
#299=CARTESIAN_POINT('',(-6.2,8.,-19.));
#300=CARTESIAN_POINT('',(0.,0.,-60.));
#301=CARTESIAN_POINT('',(0.,0.,0.));
#302=(
GEOMETRIC_REPRESENTATION_CONTEXT(3)
GLOBAL_UNCERTAINTY_ASSIGNED_CONTEXT((#305))
GLOBAL_UNIT_ASSIGNED_CONTEXT((#310,#309,#308))
REPRESENTATION_CONTEXT('3466 18.000','TOP_LEVEL_ASSEMBLY_PART')
);
#303=(
GEOMETRIC_REPRESENTATION_CONTEXT(3)
GLOBAL_UNCERTAINTY_ASSIGNED_CONTEXT((#306))
GLOBAL_UNIT_ASSIGNED_CONTEXT((#310,#309,#308))
REPRESENTATION_CONTEXT('3466 18.000_PART1','COMPONENT_PART')
);
#304=(
GEOMETRIC_REPRESENTATION_CONTEXT(3)
GLOBAL_UNCERTAINTY_ASSIGNED_CONTEXT((#307))
GLOBAL_UNIT_ASSIGNED_CONTEXT((#310,#309,#308))
REPRESENTATION_CONTEXT('3466 18.000_PART2','COMPONENT_PART')
);
#305=UNCERTAINTY_MEASURE_WITH_UNIT(LENGTH_MEASURE(1.E-5),#310,
'DISTANCE_ACCURACY_VALUE','Maximum Tolerance applied to model');
#306=UNCERTAINTY_MEASURE_WITH_UNIT(LENGTH_MEASURE(1.E-5),#310,
'DISTANCE_ACCURACY_VALUE','Maximum Tolerance applied to model');
#307=UNCERTAINTY_MEASURE_WITH_UNIT(LENGTH_MEASURE(1.E-5),#310,
'DISTANCE_ACCURACY_VALUE','Maximum Tolerance applied to model');
#308=(
NAMED_UNIT(*)
SI_UNIT($,.STERADIAN.)
SOLID_ANGLE_UNIT()
);
#309=(
NAMED_UNIT(*)
PLANE_ANGLE_UNIT()
SI_UNIT($,.RADIAN.)
);
#310=(
LENGTH_UNIT()
NAMED_UNIT(*)
SI_UNIT(.MILLI.,.METRE.)
);
#311=PRODUCT_DEFINITION_SHAPE('','',#316);
#312=PRODUCT_DEFINITION_SHAPE('','',#317);
#313=PRODUCT_DEFINITION_SHAPE(' ','NAUO PRDDFN',#32);
#314=PRODUCT_DEFINITION_SHAPE('','',#318);
#315=PRODUCT_DEFINITION_SHAPE(' ','NAUO PRDDFN',#33);
#316=PRODUCT_DEFINITION('','',#322,#319);
#317=PRODUCT_DEFINITION('','',#323,#320);
#318=PRODUCT_DEFINITION('','',#324,#321);
#319=DESIGN_CONTEXT('',#338,'design');
#320=DESIGN_CONTEXT('',#338,'design');
#321=DESIGN_CONTEXT('',#338,'design');
#322=PRODUCT_DEFINITION_FORMATION_WITH_SPECIFIED_SOURCE('','',#328,
 .NOT_KNOWN.);
#323=PRODUCT_DEFINITION_FORMATION_WITH_SPECIFIED_SOURCE('','',#329,
 .NOT_KNOWN.);
#324=PRODUCT_DEFINITION_FORMATION_WITH_SPECIFIED_SOURCE('','',#330,
 .NOT_KNOWN.);
#325=PRODUCT_RELATED_PRODUCT_CATEGORY('','',(#328));
#326=PRODUCT_RELATED_PRODUCT_CATEGORY('','',(#329));
#327=PRODUCT_RELATED_PRODUCT_CATEGORY('','',(#330));
#328=PRODUCT('3466 18.000','3466 18.000','3466 18.000',(#334));
#329=PRODUCT('3466 18.000_PART1','3466 18.000_PART1',
'3466 18.000_PART1',(#335));
#330=PRODUCT('3466 18.000_PART2','3466 18.000_PART2',
'3466 18.000_PART2',(#336));
#331=PRODUCT_CATEGORY('','');
#332=PRODUCT_CATEGORY('','');
#333=PRODUCT_CATEGORY('','');
#334=MECHANICAL_CONTEXT('',#338,'mechanical');
#335=MECHANICAL_CONTEXT('',#338,'mechanical');
#336=MECHANICAL_CONTEXT('',#338,'mechanical');
#337=APPLICATION_PROTOCOL_DEFINITION('international standard',
'config_control_design',2010,#338);
#338=APPLICATION_CONTEXT(
'configuration controlled 3D designs of mechanical parts and assemblie
s');
ENDSEC;
END-ISO-10303-21;
