ISO-10303-21;
HEADER;
/* Generated by software containing ST-Developer
 * from STEP Tools, Inc. (www.steptools.com) 
 */
/* OPTION: using custom renumber hook */

FILE_DESCRIPTION(
/* description */ ('STEP AP214'),
/* implementation_level */ '2;1');

FILE_NAME(
/* name */ '404 15.700',
/* time_stamp */ '2026-05-15T11:06:13+02:00',
/* author */ ('License CC BY-ND 4.0'),
/* organization */ ('CADENAS'),
/* preprocessor_version */ 'ST-DEVELOPER v20',
/* originating_system */ 'PARTsolutions',
/* authorisation */ '  ');

FILE_SCHEMA (('AUTOMOTIVE_DESIGN {1 0 10303 214 3 1 1}'));
ENDSEC;

DATA;
#10=PROPERTY_DEFINITION_REPRESENTATION(#14,#12);
#11=PROPERTY_DEFINITION_REPRESENTATION(#15,#13);
#12=REPRESENTATION('',(#16),#758);
#13=REPRESENTATION('',(#17),#758);
#14=PROPERTY_DEFINITION('pmi validation property','',#769);
#15=PROPERTY_DEFINITION('pmi validation property','',#769);
#16=VALUE_REPRESENTATION_ITEM('number of annotations',COUNT_MEASURE(0.));
#17=VALUE_REPRESENTATION_ITEM('number of views',COUNT_MEASURE(0.));
#18=CONTEXT_DEPENDENT_SHAPE_REPRESENTATION(#24,#771);
#19=CONTEXT_DEPENDENT_SHAPE_REPRESENTATION(#25,#773);
#20=CONTEXT_DEPENDENT_SHAPE_REPRESENTATION(#26,#775);
#21=NEXT_ASSEMBLY_USAGE_OCCURRENCE('NAUO1','404 15.700_PART1',
'404 15.700_PART1',#776,#777,'');
#22=NEXT_ASSEMBLY_USAGE_OCCURRENCE('NAUO2','404 15.700_PART2',
'404 15.700_PART2',#776,#778,'');
#23=NEXT_ASSEMBLY_USAGE_OCCURRENCE('NAUO3','404 15.700_PART3',
'404 15.700_PART3',#776,#779,'');
#24=(
REPRESENTATION_RELATIONSHIP(' ',' ',#420,#419)
REPRESENTATION_RELATIONSHIP_WITH_TRANSFORMATION(#27)
SHAPE_REPRESENTATION_RELATIONSHIP()
);
#25=(
REPRESENTATION_RELATIONSHIP(' ',' ',#421,#419)
REPRESENTATION_RELATIONSHIP_WITH_TRANSFORMATION(#28)
SHAPE_REPRESENTATION_RELATIONSHIP()
);
#26=(
REPRESENTATION_RELATIONSHIP(' ',' ',#422,#419)
REPRESENTATION_RELATIONSHIP_WITH_TRANSFORMATION(#29)
SHAPE_REPRESENTATION_RELATIONSHIP()
);
#27=ITEM_DEFINED_TRANSFORMATION(' ',' ',#423,#462);
#28=ITEM_DEFINED_TRANSFORMATION(' ',' ',#423,#474);
#29=ITEM_DEFINED_TRANSFORMATION(' ',' ',#423,#480);
#30=SHAPE_REPRESENTATION_RELATIONSHIP('','',#420,#33);
#31=SHAPE_REPRESENTATION_RELATIONSHIP('','',#421,#34);
#32=SHAPE_REPRESENTATION_RELATIONSHIP('','',#422,#35);
#33=ADVANCED_BREP_SHAPE_REPRESENTATION('',(#412),#759);
#34=ADVANCED_BREP_SHAPE_REPRESENTATION('',(#413),#760);
#35=ADVANCED_BREP_SHAPE_REPRESENTATION('',(#414),#761);
#36=LINE('',#639,#42);
#37=LINE('',#668,#43);
#38=LINE('',#671,#44);
#39=LINE('',#684,#45);
#40=LINE('',#693,#46);
#41=LINE('',#723,#47);
#42=VECTOR('',#511,1000.);
#43=VECTOR('',#528,1000.);
#44=VECTOR('',#529,1000.);
#45=VECTOR('',#530,1000.);
#46=VECTOR('',#533,1000.);
#47=VECTOR('',#560,1000.);
#48=CYLINDRICAL_SURFACE('',#437,6.);
#49=CYLINDRICAL_SURFACE('',#438,6.5);
#50=CYLINDRICAL_SURFACE('',#446,6.75);
#51=CYLINDRICAL_SURFACE('',#449,7.5);
#52=CYLINDRICAL_SURFACE('',#458,6.);
#53=CYLINDRICAL_SURFACE('',#459,6.75);
#54=CYLINDRICAL_SURFACE('',#463,7.85);
#55=B_SPLINE_CURVE_WITH_KNOTS('',3,(#618,#619,#620,#621,#622),
 .UNSPECIFIED.,.F.,.F.,(4,1,4),(4.05733325668574E-15,0.00123374035051794,
0.00246748070103183),.UNSPECIFIED.);
#56=B_SPLINE_CURVE_WITH_KNOTS('',3,(#626,#627,#628,#629,#630),
 .UNSPECIFIED.,.F.,.F.,(4,1,4),(9.84677000068208E-15,0.00123374035031686,
0.00246748070062387),.UNSPECIFIED.);
#57=B_SPLINE_CURVE_WITH_KNOTS('',3,(#642,#643,#644,#645,#646,#647,#648),
 .UNSPECIFIED.,.F.,.F.,(4,1,1,1,4),(6.97274773346372E-15,0.00256571183818239,
0.0051314236763578,0.00769713551453322,0.0102628473527086),
 .UNSPECIFIED.);
#58=B_SPLINE_CURVE_WITH_KNOTS('',3,(#649,#650,#651,#652,#653,#654,#655),
 .UNSPECIFIED.,.F.,.F.,(4,1,1,1,4),(4.62826434052431E-15,0.00256794576690655,
0.00513589153380846,0.00770383730071038,0.0102717830676123),
 .UNSPECIFIED.);
#59=B_SPLINE_CURVE_WITH_KNOTS('',3,(#673,#674,#675,#676,#677),
 .UNSPECIFIED.,.F.,.F.,(4,1,4),(8.08054475035903E-13,0.00122862893504227,
0.00245725786927648),.UNSPECIFIED.);
#60=B_SPLINE_CURVE_WITH_KNOTS('',3,(#679,#680,#681,#682,#683),
 .UNSPECIFIED.,.F.,.F.,(4,1,4),(0.,0.00435610633839927,0.00871221267679853),
 .UNSPECIFIED.);
#61=B_SPLINE_CURVE_WITH_KNOTS('',3,(#686,#687,#688,#689,#690,#691,#692),
 .UNSPECIFIED.,.F.,.F.,(4,1,1,1,4),(6.97274302659404E-15,0.00256571183818224,
0.0051314236763575,0.00769713551453276,0.010262847352708),.UNSPECIFIED.);
#62=B_SPLINE_CURVE_WITH_KNOTS('',3,(#709,#710,#711,#712,#713),
 .UNSPECIFIED.,.F.,.F.,(4,1,4),(0.,0.00435610633839927,0.00871221267679853),
 .UNSPECIFIED.);
#63=B_SPLINE_CURVE_WITH_KNOTS('',3,(#715,#716,#717,#718,#719,#720,#721),
 .UNSPECIFIED.,.F.,.F.,(4,1,1,1,4),(3.69983476503289E-15,0.00256794576690585,
0.005135891533808,0.00770383730071015,0.0102717830676123),.UNSPECIFIED.);
#64=B_SPLINE_CURVE_WITH_KNOTS('',3,(#725,#726,#727,#728,#729),
 .UNSPECIFIED.,.F.,.F.,(4,1,4),(2.26747659976243E-11,0.00122862894597562,
0.00245725786927648),.UNSPECIFIED.);
#65=TOROIDAL_SURFACE('',#430,5.15,1.6);
#66=TOROIDAL_SURFACE('',#460,5.15,1.6);
#67=PLANE('',#427);
#68=PLANE('',#443);
#69=PLANE('',#445);
#70=PLANE('',#448);
#71=PLANE('',#461);
#72=PLANE('',#468);
#73=PLANE('',#470);
#74=PLANE('',#475);
#75=PLANE('',#479);
#76=ORIENTED_EDGE('',*,*,#156,.T.);
#77=ORIENTED_EDGE('',*,*,#157,.F.);
#78=ORIENTED_EDGE('',*,*,#158,.F.);
#79=ORIENTED_EDGE('',*,*,#159,.T.);
#80=ORIENTED_EDGE('',*,*,#160,.T.);
#81=ORIENTED_EDGE('',*,*,#161,.T.);
#82=ORIENTED_EDGE('',*,*,#162,.F.);
#83=ORIENTED_EDGE('',*,*,#163,.F.);
#84=ORIENTED_EDGE('',*,*,#164,.T.);
#85=ORIENTED_EDGE('',*,*,#165,.F.);
#86=ORIENTED_EDGE('',*,*,#166,.F.);
#87=ORIENTED_EDGE('',*,*,#167,.T.);
#88=ORIENTED_EDGE('',*,*,#168,.F.);
#89=ORIENTED_EDGE('',*,*,#169,.F.);
#90=ORIENTED_EDGE('',*,*,#170,.T.);
#91=ORIENTED_EDGE('',*,*,#171,.F.);
#92=ORIENTED_EDGE('',*,*,#170,.F.);
#93=ORIENTED_EDGE('',*,*,#172,.T.);
#94=ORIENTED_EDGE('',*,*,#173,.T.);
#95=ORIENTED_EDGE('',*,*,#174,.T.);
#96=ORIENTED_EDGE('',*,*,#175,.F.);
#97=ORIENTED_EDGE('',*,*,#176,.F.);
#98=ORIENTED_EDGE('',*,*,#177,.T.);
#99=ORIENTED_EDGE('',*,*,#161,.F.);
#100=ORIENTED_EDGE('',*,*,#178,.F.);
#101=ORIENTED_EDGE('',*,*,#179,.F.);
#102=ORIENTED_EDGE('',*,*,#166,.T.);
#103=ORIENTED_EDGE('',*,*,#168,.T.);
#104=ORIENTED_EDGE('',*,*,#180,.F.);
#105=ORIENTED_EDGE('',*,*,#181,.F.);
#106=ORIENTED_EDGE('',*,*,#175,.T.);
#107=ORIENTED_EDGE('',*,*,#172,.F.);
#108=ORIENTED_EDGE('',*,*,#182,.T.);
#109=ORIENTED_EDGE('',*,*,#156,.F.);
#110=ORIENTED_EDGE('',*,*,#183,.T.);
#111=ORIENTED_EDGE('',*,*,#182,.F.);
#112=ORIENTED_EDGE('',*,*,#158,.T.);
#113=ORIENTED_EDGE('',*,*,#183,.F.);
#114=ORIENTED_EDGE('',*,*,#171,.T.);
#115=ORIENTED_EDGE('',*,*,#159,.F.);
#116=ORIENTED_EDGE('',*,*,#157,.T.);
#117=ORIENTED_EDGE('',*,*,#164,.F.);
#118=ORIENTED_EDGE('',*,*,#173,.F.);
#119=ORIENTED_EDGE('',*,*,#177,.F.);
#120=ORIENTED_EDGE('',*,*,#184,.T.);
#121=ORIENTED_EDGE('',*,*,#185,.T.);
#122=ORIENTED_EDGE('',*,*,#162,.T.);
#123=ORIENTED_EDGE('',*,*,#186,.T.);
#124=ORIENTED_EDGE('',*,*,#179,.T.);
#125=ORIENTED_EDGE('',*,*,#174,.F.);
#126=ORIENTED_EDGE('',*,*,#186,.F.);
#127=ORIENTED_EDGE('',*,*,#178,.T.);
#128=ORIENTED_EDGE('',*,*,#160,.F.);
#129=ORIENTED_EDGE('',*,*,#187,.F.);
#130=ORIENTED_EDGE('',*,*,#169,.T.);
#131=ORIENTED_EDGE('',*,*,#165,.T.);
#132=ORIENTED_EDGE('',*,*,#184,.F.);
#133=ORIENTED_EDGE('',*,*,#176,.T.);
#134=ORIENTED_EDGE('',*,*,#181,.T.);
#135=ORIENTED_EDGE('',*,*,#188,.F.);
#136=ORIENTED_EDGE('',*,*,#187,.T.);
#137=ORIENTED_EDGE('',*,*,#163,.T.);
#138=ORIENTED_EDGE('',*,*,#185,.F.);
#139=ORIENTED_EDGE('',*,*,#188,.T.);
#140=ORIENTED_EDGE('',*,*,#180,.T.);
#141=ORIENTED_EDGE('',*,*,#167,.F.);
#142=ORIENTED_EDGE('',*,*,#189,.T.);
#143=ORIENTED_EDGE('',*,*,#190,.F.);
#144=ORIENTED_EDGE('',*,*,#191,.F.);
#145=ORIENTED_EDGE('',*,*,#190,.T.);
#146=ORIENTED_EDGE('',*,*,#192,.F.);
#147=ORIENTED_EDGE('',*,*,#191,.T.);
#148=ORIENTED_EDGE('',*,*,#193,.F.);
#149=ORIENTED_EDGE('',*,*,#192,.T.);
#150=ORIENTED_EDGE('',*,*,#193,.T.);
#151=ORIENTED_EDGE('',*,*,#189,.F.);
#152=ORIENTED_EDGE('',*,*,#194,.T.);
#153=ORIENTED_EDGE('',*,*,#194,.F.);
#154=ORIENTED_EDGE('',*,*,#195,.T.);
#155=ORIENTED_EDGE('',*,*,#195,.F.);
#156=EDGE_CURVE('',#196,#196,#228,.T.);
#157=EDGE_CURVE('',#197,#197,#229,.T.);
#158=EDGE_CURVE('',#198,#198,#230,.T.);
#159=EDGE_CURVE('',#199,#199,#231,.T.);
#160=EDGE_CURVE('',#200,#201,#232,.T.);
#161=EDGE_CURVE('',#201,#202,#55,.T.);
#162=EDGE_CURVE('',#203,#202,#233,.T.);
#163=EDGE_CURVE('',#200,#203,#56,.T.);
#164=EDGE_CURVE('',#204,#204,#234,.T.);
#165=EDGE_CURVE('',#205,#206,#235,.T.);
#166=EDGE_CURVE('',#206,#205,#236,.T.);
#167=EDGE_CURVE('',#207,#208,#36,.T.);
#168=EDGE_CURVE('',#205,#208,#57,.T.);
#169=EDGE_CURVE('',#207,#205,#58,.T.);
#170=EDGE_CURVE('',#209,#209,#237,.T.);
#171=EDGE_CURVE('',#210,#210,#238,.T.);
#172=EDGE_CURVE('',#211,#211,#239,.T.);
#173=EDGE_CURVE('',#212,#212,#240,.T.);
#174=EDGE_CURVE('',#213,#214,#37,.T.);
#175=EDGE_CURVE('',#215,#214,#38,.T.);
#176=EDGE_CURVE('',#216,#215,#59,.T.);
#177=EDGE_CURVE('',#216,#202,#60,.T.);
#178=EDGE_CURVE('',#213,#201,#39,.T.);
#179=EDGE_CURVE('',#206,#214,#61,.T.);
#180=EDGE_CURVE('',#217,#208,#40,.T.);
#181=EDGE_CURVE('',#215,#217,#241,.T.);
#182=EDGE_CURVE('',#218,#218,#242,.T.);
#183=EDGE_CURVE('',#219,#219,#243,.T.);
#184=EDGE_CURVE('',#216,#220,#244,.T.);
#185=EDGE_CURVE('',#220,#203,#62,.T.);
#186=EDGE_CURVE('',#213,#206,#63,.T.);
#187=EDGE_CURVE('',#207,#200,#41,.T.);
#188=EDGE_CURVE('',#220,#217,#64,.T.);
#189=EDGE_CURVE('',#221,#221,#245,.T.);
#190=EDGE_CURVE('',#222,#222,#246,.T.);
#191=EDGE_CURVE('',#223,#223,#247,.T.);
#192=EDGE_CURVE('',#224,#224,#248,.T.);
#193=EDGE_CURVE('',#225,#225,#249,.T.);
#194=EDGE_CURVE('',#226,#226,#250,.T.);
#195=EDGE_CURVE('',#227,#227,#251,.T.);
#196=VERTEX_POINT('',#606);
#197=VERTEX_POINT('',#608);
#198=VERTEX_POINT('',#611);
#199=VERTEX_POINT('',#613);
#200=VERTEX_POINT('',#616);
#201=VERTEX_POINT('',#617);
#202=VERTEX_POINT('',#623);
#203=VERTEX_POINT('',#625);
#204=VERTEX_POINT('',#633);
#205=VERTEX_POINT('',#635);
#206=VERTEX_POINT('',#636);
#207=VERTEX_POINT('',#640);
#208=VERTEX_POINT('',#641);
#209=VERTEX_POINT('',#658);
#210=VERTEX_POINT('',#660);
#211=VERTEX_POINT('',#663);
#212=VERTEX_POINT('',#666);
#213=VERTEX_POINT('',#669);
#214=VERTEX_POINT('',#670);
#215=VERTEX_POINT('',#672);
#216=VERTEX_POINT('',#678);
#217=VERTEX_POINT('',#694);
#218=VERTEX_POINT('',#699);
#219=VERTEX_POINT('',#702);
#220=VERTEX_POINT('',#708);
#221=VERTEX_POINT('',#734);
#222=VERTEX_POINT('',#736);
#223=VERTEX_POINT('',#739);
#224=VERTEX_POINT('',#742);
#225=VERTEX_POINT('',#746);
#226=VERTEX_POINT('',#751);
#227=VERTEX_POINT('',#754);
#228=CIRCLE('',#425,7.5);
#229=CIRCLE('',#426,8.04091482899076);
#230=CIRCLE('',#428,9.0148655);
#231=CIRCLE('',#429,9.);
#232=CIRCLE('',#431,6.75);
#233=CIRCLE('',#432,5.372677);
#234=CIRCLE('',#434,7.41658748001677);
#235=CIRCLE('',#435,6.75);
#236=CIRCLE('',#436,6.75);
#237=CIRCLE('',#439,6.5);
#238=CIRCLE('',#440,6.5);
#239=CIRCLE('',#442,7.6246952);
#240=CIRCLE('',#444,0.15);
#241=CIRCLE('',#447,6.75);
#242=CIRCLE('',#450,7.5);
#243=CIRCLE('',#452,8.39053814888427);
#244=CIRCLE('',#457,5.372677);
#245=CIRCLE('',#464,7.85);
#246=CIRCLE('',#465,7.85);
#247=CIRCLE('',#467,7.6246952);
#248=CIRCLE('',#469,7.0305866);
#249=CIRCLE('',#472,7.84982539975319);
#250=CIRCLE('',#476,7.0305866);
#251=CIRCLE('',#478,6.9305866);
#252=EDGE_LOOP('',(#76));
#253=EDGE_LOOP('',(#77));
#254=EDGE_LOOP('',(#78));
#255=EDGE_LOOP('',(#79));
#256=EDGE_LOOP('',(#80,#81,#82,#83));
#257=EDGE_LOOP('',(#84));
#258=EDGE_LOOP('',(#85,#86));
#259=EDGE_LOOP('',(#87,#88,#89));
#260=EDGE_LOOP('',(#90));
#261=EDGE_LOOP('',(#91));
#262=EDGE_LOOP('',(#92));
#263=EDGE_LOOP('',(#93));
#264=EDGE_LOOP('',(#94));
#265=EDGE_LOOP('',(#95,#96,#97,#98,#99,#100));
#266=EDGE_LOOP('',(#101,#102,#103,#104,#105,#106));
#267=EDGE_LOOP('',(#107));
#268=EDGE_LOOP('',(#108));
#269=EDGE_LOOP('',(#109));
#270=EDGE_LOOP('',(#110));
#271=EDGE_LOOP('',(#111));
#272=EDGE_LOOP('',(#112));
#273=EDGE_LOOP('',(#113));
#274=EDGE_LOOP('',(#114));
#275=EDGE_LOOP('',(#115));
#276=EDGE_LOOP('',(#116));
#277=EDGE_LOOP('',(#117));
#278=EDGE_LOOP('',(#118));
#279=EDGE_LOOP('',(#119,#120,#121,#122));
#280=EDGE_LOOP('',(#123,#124,#125));
#281=EDGE_LOOP('',(#126,#127,#128,#129,#130,#131));
#282=EDGE_LOOP('',(#132,#133,#134,#135));
#283=EDGE_LOOP('',(#136,#137,#138,#139,#140,#141));
#284=EDGE_LOOP('',(#142));
#285=EDGE_LOOP('',(#143));
#286=EDGE_LOOP('',(#144));
#287=EDGE_LOOP('',(#145));
#288=EDGE_LOOP('',(#146));
#289=EDGE_LOOP('',(#147));
#290=EDGE_LOOP('',(#148));
#291=EDGE_LOOP('',(#149));
#292=EDGE_LOOP('',(#150));
#293=EDGE_LOOP('',(#151));
#294=EDGE_LOOP('',(#152));
#295=EDGE_LOOP('',(#153));
#296=EDGE_LOOP('',(#154));
#297=EDGE_LOOP('',(#155));
#298=FACE_BOUND('',#252,.T.);
#299=FACE_BOUND('',#253,.T.);
#300=FACE_BOUND('',#254,.T.);
#301=FACE_BOUND('',#255,.T.);
#302=FACE_BOUND('',#256,.T.);
#303=FACE_BOUND('',#257,.T.);
#304=FACE_BOUND('',#258,.T.);
#305=FACE_BOUND('',#259,.T.);
#306=FACE_BOUND('',#260,.T.);
#307=FACE_BOUND('',#261,.T.);
#308=FACE_BOUND('',#262,.T.);
#309=FACE_BOUND('',#263,.T.);
#310=FACE_BOUND('',#264,.T.);
#311=FACE_BOUND('',#265,.T.);
#312=FACE_BOUND('',#266,.T.);
#313=FACE_BOUND('',#267,.T.);
#314=FACE_BOUND('',#268,.T.);
#315=FACE_BOUND('',#269,.T.);
#316=FACE_BOUND('',#270,.T.);
#317=FACE_BOUND('',#271,.T.);
#318=FACE_BOUND('',#272,.T.);
#319=FACE_BOUND('',#273,.T.);
#320=FACE_BOUND('',#274,.T.);
#321=FACE_BOUND('',#275,.T.);
#322=FACE_BOUND('',#276,.T.);
#323=FACE_BOUND('',#277,.T.);
#324=FACE_BOUND('',#278,.T.);
#325=FACE_BOUND('',#279,.T.);
#326=FACE_BOUND('',#280,.T.);
#327=FACE_BOUND('',#281,.T.);
#328=FACE_BOUND('',#282,.T.);
#329=FACE_BOUND('',#283,.T.);
#330=FACE_BOUND('',#284,.T.);
#331=FACE_BOUND('',#285,.T.);
#332=FACE_BOUND('',#286,.T.);
#333=FACE_BOUND('',#287,.T.);
#334=FACE_BOUND('',#288,.T.);
#335=FACE_BOUND('',#289,.T.);
#336=FACE_BOUND('',#290,.T.);
#337=FACE_BOUND('',#291,.T.);
#338=FACE_BOUND('',#292,.T.);
#339=FACE_BOUND('',#293,.T.);
#340=FACE_BOUND('',#294,.T.);
#341=FACE_BOUND('',#295,.T.);
#342=FACE_BOUND('',#296,.T.);
#343=FACE_BOUND('',#297,.T.);
#344=CONICAL_SURFACE('',#424,7.5,0.523598775);
#345=CONICAL_SURFACE('',#433,7.4165874,0.7853981625);
#346=CONICAL_SURFACE('',#441,7.85,0.7853981625);
#347=CONICAL_SURFACE('',#451,8.3905381,0.7853981625);
#348=CONICAL_SURFACE('',#453,9.0148655,0.0249679045);
#349=CONICAL_SURFACE('',#454,6.5,0.523598775);
#350=CONICAL_SURFACE('',#455,9.0148655,0.0249679045);
#351=CONICAL_SURFACE('',#456,0.15,1.431169985);
#352=CONICAL_SURFACE('',#466,7.85,0.7853981625);
#353=CONICAL_SURFACE('',#471,6.9305866,0.7853981625);
#354=CONICAL_SURFACE('',#473,7.8498254,0.0174532925);
#355=CONICAL_SURFACE('',#477,6.9305866,0.7853981625);
#356=ADVANCED_FACE('',(#298,#299),#344,.T.);
#357=ADVANCED_FACE('',(#300,#301),#67,.F.);
#358=ADVANCED_FACE('',(#302),#65,.T.);
#359=ADVANCED_FACE('',(#303,#304),#345,.T.);
#360=ADVANCED_FACE('',(#305),#48,.F.);
#361=ADVANCED_FACE('',(#306,#307),#49,.T.);
#362=ADVANCED_FACE('',(#308,#309),#346,.T.);
#363=ADVANCED_FACE('',(#310),#68,.T.);
#364=ADVANCED_FACE('',(#311),#69,.F.);
#365=ADVANCED_FACE('',(#312),#50,.T.);
#366=ADVANCED_FACE('',(#313),#70,.F.);
#367=ADVANCED_FACE('',(#314,#315),#51,.T.);
#368=ADVANCED_FACE('',(#316,#317),#347,.T.);
#369=ADVANCED_FACE('',(#318,#319),#348,.T.);
#370=ADVANCED_FACE('',(#320,#321),#349,.T.);
#371=ADVANCED_FACE('',(#322,#323),#350,.T.);
#372=ADVANCED_FACE('',(#324,#325),#351,.T.);
#373=ADVANCED_FACE('',(#326),#52,.F.);
#374=ADVANCED_FACE('',(#327),#53,.T.);
#375=ADVANCED_FACE('',(#328),#66,.T.);
#376=ADVANCED_FACE('',(#329),#71,.T.);
#377=ADVANCED_FACE('',(#330,#331),#54,.T.);
#378=ADVANCED_FACE('',(#332,#333),#352,.T.);
#379=ADVANCED_FACE('',(#334),#72,.F.);
#380=ADVANCED_FACE('',(#335),#73,.T.);
#381=ADVANCED_FACE('',(#336,#337),#353,.T.);
#382=ADVANCED_FACE('',(#338,#339),#354,.T.);
#383=ADVANCED_FACE('',(#340),#74,.T.);
#384=ADVANCED_FACE('',(#341,#342),#355,.T.);
#385=ADVANCED_FACE('',(#343),#75,.F.);
#386=CLOSED_SHELL('',(#356,#357,#358,#359,#360,#361,#362,#363,#364,#365,
#366,#367,#368,#369,#370,#371,#372,#373,#374,#375,#376));
#387=CLOSED_SHELL('',(#377,#378,#379,#380,#381,#382));
#388=CLOSED_SHELL('',(#383,#384,#385));
#389=STYLED_ITEM('',(#392),#412);
#390=STYLED_ITEM('',(#393),#413);
#391=STYLED_ITEM('',(#394),#414);
#392=PRESENTATION_STYLE_ASSIGNMENT((#395));
#393=PRESENTATION_STYLE_ASSIGNMENT((#396));
#394=PRESENTATION_STYLE_ASSIGNMENT((#397));
#395=SURFACE_STYLE_USAGE(.BOTH.,#398);
#396=SURFACE_STYLE_USAGE(.BOTH.,#399);
#397=SURFACE_STYLE_USAGE(.BOTH.,#400);
#398=SURFACE_SIDE_STYLE('',(#401));
#399=SURFACE_SIDE_STYLE('',(#402));
#400=SURFACE_SIDE_STYLE('',(#403));
#401=SURFACE_STYLE_FILL_AREA(#404);
#402=SURFACE_STYLE_FILL_AREA(#405);
#403=SURFACE_STYLE_FILL_AREA(#406);
#404=FILL_AREA_STYLE('',(#407));
#405=FILL_AREA_STYLE('',(#408));
#406=FILL_AREA_STYLE('',(#409));
#407=FILL_AREA_STYLE_COLOUR('',#410);
#408=FILL_AREA_STYLE_COLOUR('',#411);
#409=FILL_AREA_STYLE_COLOUR('',#410);
#410=COLOUR_RGB('',0.4999923706,0.4999923706,0.4999923706);
#411=COLOUR_RGB('',0.8000000119,0.8000000119,0.8000000119);
#412=MANIFOLD_SOLID_BREP('1',#386);
#413=MANIFOLD_SOLID_BREP('1',#387);
#414=MANIFOLD_SOLID_BREP('1',#388);
#415=SHAPE_DEFINITION_REPRESENTATION(#769,#419);
#416=SHAPE_DEFINITION_REPRESENTATION(#770,#420);
#417=SHAPE_DEFINITION_REPRESENTATION(#772,#421);
#418=SHAPE_DEFINITION_REPRESENTATION(#774,#422);
#419=SHAPE_REPRESENTATION('404 15.700',(#423,#462,#474,#480),#758);
#420=SHAPE_REPRESENTATION('404 15.700_PART1',(#423),#759);
#421=SHAPE_REPRESENTATION('404 15.700_PART2',(#423),#760);
#422=SHAPE_REPRESENTATION('404 15.700_PART3',(#423),#761);
#423=AXIS2_PLACEMENT_3D('',#603,#481,#482);
#424=AXIS2_PLACEMENT_3D('',#604,#483,#484);
#425=AXIS2_PLACEMENT_3D('',#605,#485,#486);
#426=AXIS2_PLACEMENT_3D('',#607,#487,#488);
#427=AXIS2_PLACEMENT_3D('',#609,#489,#490);
#428=AXIS2_PLACEMENT_3D('',#610,#491,#492);
#429=AXIS2_PLACEMENT_3D('',#612,#493,#494);
#430=AXIS2_PLACEMENT_3D('',#614,#495,#496);
#431=AXIS2_PLACEMENT_3D('',#615,#497,#498);
#432=AXIS2_PLACEMENT_3D('',#624,#499,#500);
#433=AXIS2_PLACEMENT_3D('',#631,#501,#502);
#434=AXIS2_PLACEMENT_3D('',#632,#503,#504);
#435=AXIS2_PLACEMENT_3D('',#634,#505,#506);
#436=AXIS2_PLACEMENT_3D('',#637,#507,#508);
#437=AXIS2_PLACEMENT_3D('',#638,#509,#510);
#438=AXIS2_PLACEMENT_3D('',#656,#512,#513);
#439=AXIS2_PLACEMENT_3D('',#657,#514,#515);
#440=AXIS2_PLACEMENT_3D('',#659,#516,#517);
#441=AXIS2_PLACEMENT_3D('',#661,#518,#519);
#442=AXIS2_PLACEMENT_3D('',#662,#520,#521);
#443=AXIS2_PLACEMENT_3D('',#664,#522,#523);
#444=AXIS2_PLACEMENT_3D('',#665,#524,#525);
#445=AXIS2_PLACEMENT_3D('',#667,#526,#527);
#446=AXIS2_PLACEMENT_3D('',#685,#531,#532);
#447=AXIS2_PLACEMENT_3D('',#695,#534,#535);
#448=AXIS2_PLACEMENT_3D('',#696,#536,#537);
#449=AXIS2_PLACEMENT_3D('',#697,#538,#539);
#450=AXIS2_PLACEMENT_3D('',#698,#540,#541);
#451=AXIS2_PLACEMENT_3D('',#700,#542,#543);
#452=AXIS2_PLACEMENT_3D('',#701,#544,#545);
#453=AXIS2_PLACEMENT_3D('',#703,#546,#547);
#454=AXIS2_PLACEMENT_3D('',#704,#548,#549);
#455=AXIS2_PLACEMENT_3D('',#705,#550,#551);
#456=AXIS2_PLACEMENT_3D('',#706,#552,#553);
#457=AXIS2_PLACEMENT_3D('',#707,#554,#555);
#458=AXIS2_PLACEMENT_3D('',#714,#556,#557);
#459=AXIS2_PLACEMENT_3D('',#722,#558,#559);
#460=AXIS2_PLACEMENT_3D('',#724,#561,#562);
#461=AXIS2_PLACEMENT_3D('',#730,#563,#564);
#462=AXIS2_PLACEMENT_3D('',#731,#565,#566);
#463=AXIS2_PLACEMENT_3D('',#732,#567,#568);
#464=AXIS2_PLACEMENT_3D('',#733,#569,#570);
#465=AXIS2_PLACEMENT_3D('',#735,#571,#572);
#466=AXIS2_PLACEMENT_3D('',#737,#573,#574);
#467=AXIS2_PLACEMENT_3D('',#738,#575,#576);
#468=AXIS2_PLACEMENT_3D('',#740,#577,#578);
#469=AXIS2_PLACEMENT_3D('',#741,#579,#580);
#470=AXIS2_PLACEMENT_3D('',#743,#581,#582);
#471=AXIS2_PLACEMENT_3D('',#744,#583,#584);
#472=AXIS2_PLACEMENT_3D('',#745,#585,#586);
#473=AXIS2_PLACEMENT_3D('',#747,#587,#588);
#474=AXIS2_PLACEMENT_3D('',#748,#589,#590);
#475=AXIS2_PLACEMENT_3D('',#749,#591,#592);
#476=AXIS2_PLACEMENT_3D('',#750,#593,#594);
#477=AXIS2_PLACEMENT_3D('',#752,#595,#596);
#478=AXIS2_PLACEMENT_3D('',#753,#597,#598);
#479=AXIS2_PLACEMENT_3D('',#755,#599,#600);
#480=AXIS2_PLACEMENT_3D('',#756,#601,#602);
#481=DIRECTION('',(0.,0.,1.));
#482=DIRECTION('',(1.,0.,0.));
#483=DIRECTION('',(0.,0.,1.));
#484=DIRECTION('',(1.,0.,0.));
#485=DIRECTION('',(0.,0.,1.));
#486=DIRECTION('',(1.,0.,0.));
#487=DIRECTION('',(0.,0.,1.));
#488=DIRECTION('',(1.,0.,0.));
#489=DIRECTION('',(0.,0.,1.));
#490=DIRECTION('',(1.,0.,0.));
#491=DIRECTION('',(0.,0.,1.));
#492=DIRECTION('',(1.,0.,0.));
#493=DIRECTION('',(0.,0.,1.));
#494=DIRECTION('',(0.,1.,0.));
#495=DIRECTION('',(0.,0.,1.));
#496=DIRECTION('',(1.,0.,0.));
#497=DIRECTION('',(0.,0.,1.));
#498=DIRECTION('',(1.,0.,0.));
#499=DIRECTION('',(0.,0.,1.));
#500=DIRECTION('',(1.,0.,0.));
#501=DIRECTION('',(0.,0.,-1.));
#502=DIRECTION('',(-1.,0.,0.));
#503=DIRECTION('',(0.,0.,1.));
#504=DIRECTION('',(1.,0.,0.));
#505=DIRECTION('',(0.,0.,1.));
#506=DIRECTION('',(1.,0.,0.));
#507=DIRECTION('',(0.,0.,1.));
#508=DIRECTION('',(1.,0.,0.));
#509=DIRECTION('',(-1.,0.,0.));
#510=DIRECTION('',(0.,0.,-1.));
#511=DIRECTION('',(1.,0.,0.));
#512=DIRECTION('',(0.,0.,-1.));
#513=DIRECTION('',(0.,1.,0.));
#514=DIRECTION('',(0.,0.,1.));
#515=DIRECTION('',(0.,1.,0.));
#516=DIRECTION('',(0.,0.,1.));
#517=DIRECTION('',(0.,1.,0.));
#518=DIRECTION('',(0.,-4.13090870897878E-17,-1.));
#519=DIRECTION('',(0.,-1.,4.13090870897878E-17));
#520=DIRECTION('',(0.,0.,1.));
#521=DIRECTION('',(1.,0.,0.));
#522=DIRECTION('',(0.,0.,1.));
#523=DIRECTION('',(1.,0.,0.));
#524=DIRECTION('',(0.,0.,1.));
#525=DIRECTION('',(1.,0.,0.));
#526=DIRECTION('',(0.,1.,0.));
#527=DIRECTION('',(1.,0.,0.));
#528=DIRECTION('',(1.,0.,0.));
#529=DIRECTION('',(0.,0.,-1.));
#530=DIRECTION('',(0.,0.,1.));
#531=DIRECTION('',(0.,0.,-1.));
#532=DIRECTION('',(1.,0.,0.));
#533=DIRECTION('',(0.,0.,-1.));
#534=DIRECTION('',(0.,0.,1.));
#535=DIRECTION('',(1.,0.,0.));
#536=DIRECTION('',(0.,0.,1.));
#537=DIRECTION('',(1.,0.,0.));
#538=DIRECTION('',(0.,0.,-1.));
#539=DIRECTION('',(1.,0.,0.));
#540=DIRECTION('',(0.,0.,1.));
#541=DIRECTION('',(1.,0.,0.));
#542=DIRECTION('',(-4.81681010395742E-17,0.,-1.));
#543=DIRECTION('',(-1.,0.,4.81681010395742E-17));
#544=DIRECTION('',(0.,0.,1.));
#545=DIRECTION('',(1.,0.,0.));
#546=DIRECTION('',(0.,0.,-1.));
#547=DIRECTION('',(-1.,0.,0.));
#548=DIRECTION('',(0.,-2.37694294927303E-17,1.));
#549=DIRECTION('',(0.,1.,2.37694294927303E-17));
#550=DIRECTION('',(0.,0.,-1.));
#551=DIRECTION('',(-1.,0.,0.));
#552=DIRECTION('',(5.85106429997985E-18,0.,-1.));
#553=DIRECTION('',(-1.,0.,-5.85106429997985E-18));
#554=DIRECTION('',(0.,0.,1.));
#555=DIRECTION('',(1.,0.,0.));
#556=DIRECTION('',(-1.,0.,0.));
#557=DIRECTION('',(0.,0.,-1.));
#558=DIRECTION('',(0.,0.,-1.));
#559=DIRECTION('',(1.,0.,0.));
#560=DIRECTION('',(0.,0.,1.));
#561=DIRECTION('',(0.,0.,1.));
#562=DIRECTION('',(1.,0.,0.));
#563=DIRECTION('',(0.,1.,0.));
#564=DIRECTION('',(1.,0.,0.));
#565=DIRECTION('',(0.,0.,1.));
#566=DIRECTION('',(1.,0.,0.));
#567=DIRECTION('',(0.,0.,-1.));
#568=DIRECTION('',(0.,1.,0.));
#569=DIRECTION('',(0.,0.,1.));
#570=DIRECTION('',(0.,1.,0.));
#571=DIRECTION('',(0.,0.,1.));
#572=DIRECTION('',(0.,1.,0.));
#573=DIRECTION('',(0.,-4.13090870897878E-17,-1.));
#574=DIRECTION('',(0.,-1.,4.13090870897878E-17));
#575=DIRECTION('',(0.,0.,1.));
#576=DIRECTION('',(1.,0.,0.));
#577=DIRECTION('',(0.,0.,1.));
#578=DIRECTION('',(1.,0.,0.));
#579=DIRECTION('',(0.,0.,1.));
#580=DIRECTION('',(1.,0.,0.));
#581=DIRECTION('',(0.,0.,1.));
#582=DIRECTION('',(1.,0.,0.));
#583=DIRECTION('',(0.,0.,1.));
#584=DIRECTION('',(0.,1.,0.));
#585=DIRECTION('',(0.,0.,1.));
#586=DIRECTION('',(1.,0.,0.));
#587=DIRECTION('',(0.,0.,1.));
#588=DIRECTION('',(0.,1.,0.));
#589=DIRECTION('',(0.,0.,1.));
#590=DIRECTION('',(1.,0.,0.));
#591=DIRECTION('',(0.,0.,1.));
#592=DIRECTION('',(1.,0.,0.));
#593=DIRECTION('',(0.,0.,1.));
#594=DIRECTION('',(1.,0.,0.));
#595=DIRECTION('',(0.,0.,1.));
#596=DIRECTION('',(0.,1.,0.));
#597=DIRECTION('',(0.,0.,1.));
#598=DIRECTION('',(0.,1.,0.));
#599=DIRECTION('',(0.,8.35310656622737E-17,1.));
#600=DIRECTION('',(1.,0.,0.));
#601=DIRECTION('',(0.,0.,1.));
#602=DIRECTION('',(1.,0.,0.));
#603=CARTESIAN_POINT('',(0.,0.,0.));
#604=CARTESIAN_POINT('',(8.78591523436893E-14,0.,33.0631080869554));
#605=CARTESIAN_POINT('',(1.00878591523437E-11,0.,33.0631080869654));
#606=CARTESIAN_POINT('',(7.50000000001009,0.,33.0631080869654));
#607=CARTESIAN_POINT('',(8.78591523436893E-14,0.,34.0000000546293));
#608=CARTESIAN_POINT('',(8.04091482899085,0.,34.0000000546293));
#609=CARTESIAN_POINT('',(8.78591523436893E-14,0.,-5.00000000000002));
#610=CARTESIAN_POINT('',(1.00878591523437E-11,0.,-5.00000000001003));
#611=CARTESIAN_POINT('',(9.01486550001009,0.,-5.00000000001003));
#612=CARTESIAN_POINT('',(1.00878591523437E-11,-1.0006682485253E-11,-5.00000000001002));
#613=CARTESIAN_POINT('',(1.00878591523437E-11,8.99999999998999,-5.00000000001002));
#614=CARTESIAN_POINT('',(8.78591523436893E-14,0.,72.6815717104582));
#615=CARTESIAN_POINT('',(1.00878591523437E-11,0.,72.6815717104682));
#616=CARTESIAN_POINT('',(-5.96992462263963,3.150000000005,72.6815717104682));
#617=CARTESIAN_POINT('',(-5.96992462264463,-3.150000000005,72.6815717104632));
#618=CARTESIAN_POINT('',(-5.96992462263963,-3.15,72.6815717104582));
#619=CARTESIAN_POINT('',(-5.96992462263963,-3.15,73.0990221299266));
#620=CARTESIAN_POINT('',(-5.57713449295164,-3.15,73.8990523547592));
#621=CARTESIAN_POINT('',(-4.76570797007151,-3.15,74.2189419890496));
#622=CARTESIAN_POINT('',(-4.3523738043762,-3.15,74.2660006204447));
#623=CARTESIAN_POINT('',(-4.35237382811158,-3.15,74.2660006204497));
#624=CARTESIAN_POINT('',(1.00878591523437E-11,0.,74.2660006204547));
#625=CARTESIAN_POINT('',(-4.35237382762213,3.15,74.2660006161507));
#626=CARTESIAN_POINT('',(-5.96992462263963,3.15,72.6815717104582));
#627=CARTESIAN_POINT('',(-5.96992462263963,3.15,73.0990221298566));
#628=CARTESIAN_POINT('',(-5.57713449328291,3.15,73.8990523545176));
#629=CARTESIAN_POINT('',(-4.76570797000221,3.15,74.2189419890575));
#630=CARTESIAN_POINT('',(-4.3523738043762,3.15,74.2660006204447));
#631=CARTESIAN_POINT('',(8.78591523436893E-14,0.,58.9999999999999));
#632=CARTESIAN_POINT('',(8.78591523436893E-14,0.,58.9999999199831));
#633=CARTESIAN_POINT('',(7.41658748001686,0.,58.9999999199831));
#634=CARTESIAN_POINT('',(1.00878591523437E-11,0.,59.6665874439416));
#635=CARTESIAN_POINT('',(5.08792700490538E-12,6.74999999998854,59.6665874439366));
#636=CARTESIAN_POINT('',(5.08793190621163E-12,-6.74999999998854,59.6665874439366));
#637=CARTESIAN_POINT('',(1.00878591523437E-11,0.,59.6665874439416));
#638=CARTESIAN_POINT('',(-9.99999999999991,9.15,65.1656782778786));
#639=CARTESIAN_POINT('',(-10.0000000000099,3.15000000001,65.1656782778886));
#640=CARTESIAN_POINT('',(-5.96992462264463,3.150000000005,65.1656782778836));
#641=CARTESIAN_POINT('',(5.96992462264481,3.150000000005,65.1656782778836));
#642=CARTESIAN_POINT('',(8.79948574670546E-14,6.75,59.6665874439316));
#643=CARTESIAN_POINT('',(0.866848534176532,6.75,59.6665874439316));
#644=CARTESIAN_POINT('',(2.57979841123923,6.4158830521362,59.7940320469057));
#645=CARTESIAN_POINT('',(4.68511523208938,5.03336032302481,60.6367212476845));
#646=CARTESIAN_POINT('',(5.79374810266636,3.53523316324553,62.5726270616783));
#647=CARTESIAN_POINT('',(5.96992462263981,3.15,64.2970261805951));
#648=CARTESIAN_POINT('',(5.96992462263981,3.15,65.1656782778786));
#649=CARTESIAN_POINT('',(-5.96992462263963,3.15,65.1656782778786));
#650=CARTESIAN_POINT('',(-5.96992462263963,3.15,64.2979501272849));
#651=CARTESIAN_POINT('',(-5.79435219741645,3.53206234634783,62.5837350731994));
#652=CARTESIAN_POINT('',(-4.69746696207072,5.0222722277847,60.6453206691431));
#653=CARTESIAN_POINT('',(-2.58102035814968,6.4171528524504,59.7926144217511));
#654=CARTESIAN_POINT('',(-0.866851492993898,6.75,59.6665874439316));
#655=CARTESIAN_POINT('',(8.53085781674557E-14,6.75,59.6665874439316));
#656=CARTESIAN_POINT('',(8.78591523436893E-14,0.,75.));
#657=CARTESIAN_POINT('',(1.00878591523437E-11,-1.0013085141436E-11,-81.65000000001));
#658=CARTESIAN_POINT('',(1.00878591523437E-11,6.49999999998999,-81.65000000001));
#659=CARTESIAN_POINT('',(1.00878591523437E-11,-1.00070441853773E-11,-9.33012701893223));
#660=CARTESIAN_POINT('',(1.00878591523437E-11,6.49999999998999,-9.33012701893223));
#661=CARTESIAN_POINT('',(8.78591523436893E-14,-1.31979083746392E-14,-83.));
#662=CARTESIAN_POINT('',(1.00884772313036E-11,-1.00131979083746E-11,-82.7746951672895));
#663=CARTESIAN_POINT('',(7.62469520001009,-1.00131979083746E-11,-82.7746951672895));
#664=CARTESIAN_POINT('',(8.78591523436893E-14,0.,75.));
#665=CARTESIAN_POINT('',(1.00878591523437E-11,0.,75.00000000001));
#666=CARTESIAN_POINT('',(0.150000000010088,0.,75.00000000001));
#667=CARTESIAN_POINT('',(-9.99999999999991,-3.15,65.1656782778786));
#668=CARTESIAN_POINT('',(-10.0000000000099,-3.15000000001,65.1656782778886));
#669=CARTESIAN_POINT('',(-5.96992462264199,-3.15000000001,65.1656782778836));
#670=CARTESIAN_POINT('',(5.96992462264217,-3.15000000001,65.1656782778836));
#671=CARTESIAN_POINT('',(5.96992462264981,-3.15000000001,73.4104641547742));
#672=CARTESIAN_POINT('',(5.96992462264981,-3.150000000005,72.6815717104632));
#673=CARTESIAN_POINT('',(4.35237380437638,-3.15,74.2660006204447));
#674=CARTESIAN_POINT('',(4.7665752156354,-3.15,74.2188432520162));
#675=CARTESIAN_POINT('',(5.57170027688959,-3.15,73.9027305484047));
#676=CARTESIAN_POINT('',(5.9699246226398,-3.15,73.100941713591));
#677=CARTESIAN_POINT('',(5.96992462263981,-3.15,72.6815717104582));
#678=CARTESIAN_POINT('',(4.35237380388693,-3.15,74.2660006161457));
#679=CARTESIAN_POINT('',(4.35237380339748,-3.15,74.2660006118466));
#680=CARTESIAN_POINT('',(2.90705785684305,-3.15,74.4305517107517));
#681=CARTESIAN_POINT('',(0.0117403741238674,-3.15,74.7260024812899));
#682=CARTESIAN_POINT('',(-2.90356626594626,-3.15,74.4309492329131));
#683=CARTESIAN_POINT('',(-4.3523738033973,-3.15,74.2660006118466));
#684=CARTESIAN_POINT('',(-5.96992462264963,-3.15000000001,73.4104641547742));
#685=CARTESIAN_POINT('',(8.78591523436893E-14,0.,73.4104641547642));
#686=CARTESIAN_POINT('',(8.80046600795518E-14,-6.75,59.6665874439316));
#687=CARTESIAN_POINT('',(0.866848534176481,-6.75,59.6665874439316));
#688=CARTESIAN_POINT('',(2.57979841123907,-6.41588305213624,59.7940320469057));
#689=CARTESIAN_POINT('',(4.68511523208918,-5.03336032302499,60.6367212476844));
#690=CARTESIAN_POINT('',(5.79374810266621,-3.53523316324579,62.5726270616776));
#691=CARTESIAN_POINT('',(5.96992462263981,-3.15,64.2970261805952));
#692=CARTESIAN_POINT('',(5.96992462263981,-3.15,65.1656782778786));
#693=CARTESIAN_POINT('',(5.96992462264981,3.15000000001,73.4104641547742));
#694=CARTESIAN_POINT('',(5.96992462264981,3.150000000005,72.6815717104632));
#695=CARTESIAN_POINT('',(1.00878591523437E-11,0.,72.6815717104682));
#696=CARTESIAN_POINT('',(8.78591523436893E-14,0.,-82.7746951672795));
#697=CARTESIAN_POINT('',(8.78591523436893E-14,0.,73.4104641547642));
#698=CARTESIAN_POINT('',(1.00878591523437E-11,0.,20.890538116597));
#699=CARTESIAN_POINT('',(7.50000000001009,0.,20.890538116597));
#700=CARTESIAN_POINT('',(8.78591523436893E-14,0.,20.));
#701=CARTESIAN_POINT('',(8.78591523413346E-14,0.,19.9999999511157));
#702=CARTESIAN_POINT('',(8.39053814888436,0.,19.9999999511157));
#703=CARTESIAN_POINT('',(8.78591523436893E-14,0.,-5.00000000000003));
#704=CARTESIAN_POINT('',(8.78591523436893E-14,-7.04418537732547E-15,-9.33012701892223));
#705=CARTESIAN_POINT('',(8.78591523436893E-14,0.,-5.00000000000003));
#706=CARTESIAN_POINT('',(8.78591523436893E-14,0.,75.));
#707=CARTESIAN_POINT('',(1.00878591523437E-11,0.,74.2660006204547));
#708=CARTESIAN_POINT('',(4.35237382812176,3.15,74.2660006204497));
#709=CARTESIAN_POINT('',(4.35237380339748,3.15,74.2660006118466));
#710=CARTESIAN_POINT('',(2.90705785684305,3.15,74.4305517107517));
#711=CARTESIAN_POINT('',(0.0117403741238674,3.15,74.7260024812899));
#712=CARTESIAN_POINT('',(-2.90356626594626,3.15,74.4309492329131));
#713=CARTESIAN_POINT('',(-4.3523738033973,3.15,74.2660006118466));
#714=CARTESIAN_POINT('',(-9.99999999999991,-9.15,65.1656782778786));
#715=CARTESIAN_POINT('',(-5.96992462263963,-3.15,65.1656782778786));
#716=CARTESIAN_POINT('',(-5.96992462263963,-3.15,64.2979501272848));
#717=CARTESIAN_POINT('',(-5.79435219741666,-3.53206234634743,62.5837350732004));
#718=CARTESIAN_POINT('',(-4.69746696207105,-5.02227222778442,60.6453206691432));
#719=CARTESIAN_POINT('',(-2.58102035814992,-6.41715285245034,59.7926144217511));
#720=CARTESIAN_POINT('',(-0.866851492993976,-6.75,59.6665874439316));
#721=CARTESIAN_POINT('',(8.53085781674557E-14,-6.75,59.6665874439316));
#722=CARTESIAN_POINT('',(8.78591523436893E-14,0.,73.4104641547642));
#723=CARTESIAN_POINT('',(-5.96992462264963,3.15000000001,73.4104641547742));
#724=CARTESIAN_POINT('',(8.78591523436893E-14,0.,72.6815717104582));
#725=CARTESIAN_POINT('',(4.35237380437638,3.15,74.2660006204447));
#726=CARTESIAN_POINT('',(4.7665752119495,3.15,74.2188432524359));
#727=CARTESIAN_POINT('',(5.57170029502887,3.15,73.9027305351375));
#728=CARTESIAN_POINT('',(5.9699246226398,3.15,73.1009417098591));
#729=CARTESIAN_POINT('',(5.96992462263981,3.15,72.6815717104582));
#730=CARTESIAN_POINT('',(-9.99999999999991,3.15,65.1656782778786));
#731=CARTESIAN_POINT('',(0.,0.,0.));
#732=CARTESIAN_POINT('',(8.78591523436893E-14,0.,75.));
#733=CARTESIAN_POINT('',(1.00878591523437E-11,-1.00174639034806E-11,-134.070761184468));
#734=CARTESIAN_POINT('',(1.00878591523437E-11,7.84999999998998,-134.070761184468));
#735=CARTESIAN_POINT('',(1.00878591523437E-11,-1.00131979083746E-11,-83.00000000001));
#736=CARTESIAN_POINT('',(1.00878591523437E-11,7.84999999998999,-83.00000000001));
#737=CARTESIAN_POINT('',(8.78591523436893E-14,-1.31979083746392E-14,-83.));
#738=CARTESIAN_POINT('',(1.00884772313036E-11,-1.00131979083746E-11,-82.7746951672895));
#739=CARTESIAN_POINT('',(7.62469520001009,-1.00131979083746E-11,-82.7746951672895));
#740=CARTESIAN_POINT('',(8.78591523436893E-14,0.,-134.9));
#741=CARTESIAN_POINT('',(1.0088454777844E-11,-1.00175415237891E-11,-134.90000000001));
#742=CARTESIAN_POINT('',(7.03058660001009,-1.00175415237891E-11,-134.90000000001));
#743=CARTESIAN_POINT('',(8.78591523436893E-14,0.,-82.7746951672795));
#744=CARTESIAN_POINT('',(8.78591523436893E-14,-1.75415237890775E-14,-135.));
#745=CARTESIAN_POINT('',(8.78591523436893E-14,-1.75415237890775E-14,-134.080761198597));
#746=CARTESIAN_POINT('',(7.84982539975328,-1.75415237890775E-14,-134.080761198597));
#747=CARTESIAN_POINT('',(8.78591523436893E-14,-1.74647387912171E-14,-134.080761184457));
#748=CARTESIAN_POINT('',(0.,0.,0.));
#749=CARTESIAN_POINT('',(8.78591523436893E-14,0.,-134.9));
#750=CARTESIAN_POINT('',(1.0088454777844E-11,-1.00175415237891E-11,-134.90000000001));
#751=CARTESIAN_POINT('',(7.03058660001009,-1.00175415237891E-11,-134.90000000001));
#752=CARTESIAN_POINT('',(8.78591523436893E-14,-1.75415237890775E-14,-135.));
#753=CARTESIAN_POINT('',(1.00878591523437E-11,-1.00175415237891E-11,-135.00000000001));
#754=CARTESIAN_POINT('',(1.00878591523437E-11,6.93058659998998,-135.00000000001));
#755=CARTESIAN_POINT('',(8.78591523436893E-14,-1.7430501486615E-14,-135.));
#756=CARTESIAN_POINT('',(0.,0.,0.));
#757=MECHANICAL_DESIGN_GEOMETRIC_PRESENTATION_REPRESENTATION('',(#389,#390,
#391),#758);
#758=(
GEOMETRIC_REPRESENTATION_CONTEXT(3)
GLOBAL_UNCERTAINTY_ASSIGNED_CONTEXT((#762))
GLOBAL_UNIT_ASSIGNED_CONTEXT((#768,#767,#766))
REPRESENTATION_CONTEXT('404 15.700','TOP_LEVEL_ASSEMBLY_PART')
);
#759=(
GEOMETRIC_REPRESENTATION_CONTEXT(3)
GLOBAL_UNCERTAINTY_ASSIGNED_CONTEXT((#763))
GLOBAL_UNIT_ASSIGNED_CONTEXT((#768,#767,#766))
REPRESENTATION_CONTEXT('404 15.700_PART1','COMPONENT_PART')
);
#760=(
GEOMETRIC_REPRESENTATION_CONTEXT(3)
GLOBAL_UNCERTAINTY_ASSIGNED_CONTEXT((#764))
GLOBAL_UNIT_ASSIGNED_CONTEXT((#768,#767,#766))
REPRESENTATION_CONTEXT('404 15.700_PART2','COMPONENT_PART')
);
#761=(
GEOMETRIC_REPRESENTATION_CONTEXT(3)
GLOBAL_UNCERTAINTY_ASSIGNED_CONTEXT((#765))
GLOBAL_UNIT_ASSIGNED_CONTEXT((#768,#767,#766))
REPRESENTATION_CONTEXT('404 15.700_PART3','COMPONENT_PART')
);
#762=UNCERTAINTY_MEASURE_WITH_UNIT(LENGTH_MEASURE(1.E-5),#768,
'DISTANCE_ACCURACY_VALUE','Maximum Tolerance applied to model');
#763=UNCERTAINTY_MEASURE_WITH_UNIT(LENGTH_MEASURE(1.E-5),#768,
'DISTANCE_ACCURACY_VALUE','Maximum Tolerance applied to model');
#764=UNCERTAINTY_MEASURE_WITH_UNIT(LENGTH_MEASURE(1.E-5),#768,
'DISTANCE_ACCURACY_VALUE','Maximum Tolerance applied to model');
#765=UNCERTAINTY_MEASURE_WITH_UNIT(LENGTH_MEASURE(1.E-5),#768,
'DISTANCE_ACCURACY_VALUE','Maximum Tolerance applied to model');
#766=(
NAMED_UNIT(*)
SI_UNIT($,.STERADIAN.)
SOLID_ANGLE_UNIT()
);
#767=(
NAMED_UNIT(*)
PLANE_ANGLE_UNIT()
SI_UNIT($,.RADIAN.)
);
#768=(
LENGTH_UNIT()
NAMED_UNIT(*)
SI_UNIT(.MILLI.,.METRE.)
);
#769=PRODUCT_DEFINITION_SHAPE('','',#776);
#770=PRODUCT_DEFINITION_SHAPE('','',#777);
#771=PRODUCT_DEFINITION_SHAPE(' ','NAUO PRDDFN',#21);
#772=PRODUCT_DEFINITION_SHAPE('','',#778);
#773=PRODUCT_DEFINITION_SHAPE(' ','NAUO PRDDFN',#22);
#774=PRODUCT_DEFINITION_SHAPE('','',#779);
#775=PRODUCT_DEFINITION_SHAPE(' ','NAUO PRDDFN',#23);
#776=PRODUCT_DEFINITION('','',#784,#780);
#777=PRODUCT_DEFINITION('','',#785,#781);
#778=PRODUCT_DEFINITION('','',#786,#782);
#779=PRODUCT_DEFINITION('','',#787,#783);
#780=PRODUCT_DEFINITION_CONTEXT('',#805,'design');
#781=PRODUCT_DEFINITION_CONTEXT('',#805,'design');
#782=PRODUCT_DEFINITION_CONTEXT('',#805,'design');
#783=PRODUCT_DEFINITION_CONTEXT('',#805,'design');
#784=PRODUCT_DEFINITION_FORMATION_WITH_SPECIFIED_SOURCE('','',#792,
 .NOT_KNOWN.);
#785=PRODUCT_DEFINITION_FORMATION_WITH_SPECIFIED_SOURCE('','',#793,
 .NOT_KNOWN.);
#786=PRODUCT_DEFINITION_FORMATION_WITH_SPECIFIED_SOURCE('','',#794,
 .NOT_KNOWN.);
#787=PRODUCT_DEFINITION_FORMATION_WITH_SPECIFIED_SOURCE('','',#795,
 .NOT_KNOWN.);
#788=PRODUCT_RELATED_PRODUCT_CATEGORY('','',(#792));
#789=PRODUCT_RELATED_PRODUCT_CATEGORY('','',(#793));
#790=PRODUCT_RELATED_PRODUCT_CATEGORY('','',(#794));
#791=PRODUCT_RELATED_PRODUCT_CATEGORY('','',(#795));
#792=PRODUCT('404 15.700','404 15.700','404 15.700',(#800));
#793=PRODUCT('404 15.700_PART1','404 15.700_PART1','404 15.700_PART1',(#801));
#794=PRODUCT('404 15.700_PART2','404 15.700_PART2','404 15.700_PART2',(#802));
#795=PRODUCT('404 15.700_PART3','404 15.700_PART3','404 15.700_PART3',(#803));
#796=PRODUCT_CATEGORY('','');
#797=PRODUCT_CATEGORY('','');
#798=PRODUCT_CATEGORY('','');
#799=PRODUCT_CATEGORY('','');
#800=PRODUCT_CONTEXT('',#805,'mechanical');
#801=PRODUCT_CONTEXT('',#805,'mechanical');
#802=PRODUCT_CONTEXT('',#805,'mechanical');
#803=PRODUCT_CONTEXT('',#805,'mechanical');
#804=APPLICATION_PROTOCOL_DEFINITION('international standard',
'automotive_design',2010,#805);
#805=APPLICATION_CONTEXT(
'core data for automotive mechanical design processes');
ENDSEC;
END-ISO-10303-21;
