ISO-10303-21;
HEADER;
/* Generated by software containing ST-Developer
 * from STEP Tools, Inc. (www.steptools.com) 
 */
/* OPTION: using custom renumber hook */

FILE_DESCRIPTION(
/* description */ ('STEP AP214'),
/* implementation_level */ '2;1');

FILE_NAME(
/* name */ '407 55.000',
/* time_stamp */ '2026-05-15T11:06:28+02:00',
/* author */ ('License CC BY-ND 4.0'),
/* organization */ ('CADENAS'),
/* preprocessor_version */ 'ST-DEVELOPER v20',
/* originating_system */ 'PARTsolutions',
/* authorisation */ '  ');

FILE_SCHEMA (('AUTOMOTIVE_DESIGN {1 0 10303 214 3 1 1}'));
ENDSEC;

DATA;
#10=PROPERTY_DEFINITION_REPRESENTATION(#14,#12);
#11=PROPERTY_DEFINITION_REPRESENTATION(#15,#13);
#12=REPRESENTATION('',(#16),#843);
#13=REPRESENTATION('',(#17),#843);
#14=PROPERTY_DEFINITION('pmi validation property','',#852);
#15=PROPERTY_DEFINITION('pmi validation property','',#852);
#16=VALUE_REPRESENTATION_ITEM('number of annotations',COUNT_MEASURE(0.));
#17=VALUE_REPRESENTATION_ITEM('number of views',COUNT_MEASURE(0.));
#18=B_SPLINE_CURVE_WITH_KNOTS('',3,(#693,#694,#695,#696,#697),
 .UNSPECIFIED.,.F.,.F.,(4,1,4),(8.67361737988404E-19,0.0012578297376971,
0.0025156594753942),.UNSPECIFIED.);
#19=B_SPLINE_CURVE_WITH_KNOTS('',3,(#701,#702,#703,#704,#705),
 .UNSPECIFIED.,.F.,.F.,(4,1,4),(3.46944695195361E-18,0.0012578297376971,
0.0025156594753942),.UNSPECIFIED.);
#20=B_SPLINE_CURVE_WITH_KNOTS('',3,(#727,#728,#729,#730,#731),
 .UNSPECIFIED.,.F.,.F.,(4,1,4),(0.,0.0012578289655621,0.0025156579311242),
 .UNSPECIFIED.);
#21=B_SPLINE_CURVE_WITH_KNOTS('',3,(#735,#736,#737,#738,#739),
 .UNSPECIFIED.,.F.,.F.,(4,1,4),(1.73472347597681E-18,0.0012578289655621,
0.00251565793112419),.UNSPECIFIED.);
#22=B_SPLINE_CURVE_WITH_KNOTS('',3,(#751,#752,#753,#754),.UNSPECIFIED.,
 .F.,.F.,(4,4),(0.,1.),.UNSPECIFIED.);
#23=B_SPLINE_CURVE_WITH_KNOTS('',3,(#758,#759,#760,#761),.UNSPECIFIED.,
 .F.,.F.,(4,4),(0.,1.),.UNSPECIFIED.);
#24=B_SPLINE_CURVE_WITH_KNOTS('',3,(#773,#774,#775,#776,#777),
 .UNSPECIFIED.,.F.,.F.,(4,1,4),(0.,0.00125629217874926,0.00251258435749852),
 .UNSPECIFIED.);
#25=B_SPLINE_CURVE_WITH_KNOTS('',3,(#783,#784,#785,#786,#787),
 .UNSPECIFIED.,.F.,.F.,(4,1,4),(0.,0.00125629217874926,0.00251258435749852),
 .UNSPECIFIED.);
#26=B_SPLINE_CURVE_WITH_KNOTS('',3,(#797,#798,#799,#800),.UNSPECIFIED.,
 .F.,.F.,(4,4),(0.,1.),.UNSPECIFIED.);
#27=B_SPLINE_CURVE_WITH_KNOTS('',3,(#804,#805,#806,#807),.UNSPECIFIED.,
 .F.,.F.,(4,4),(0.,1.),.UNSPECIFIED.);
#28=B_SPLINE_CURVE_WITH_KNOTS('',3,(#817,#818,#819,#820,#821),
 .UNSPECIFIED.,.F.,.F.,(4,1,4),(8.67361737988404E-19,0.0012562921670122,
0.00251258433402439),.UNSPECIFIED.);
#29=B_SPLINE_CURVE_WITH_KNOTS('',3,(#829,#830,#831,#832,#833),
 .UNSPECIFIED.,.F.,.F.,(4,1,4),(3.03576608295941E-18,0.0012562921670122,
0.00251258433402439),.UNSPECIFIED.);
#30=ELLIPSE('',#492,29.3449314192418,20.75);
#31=ELLIPSE('',#494,29.3449314192418,20.75);
#32=ELLIPSE('',#501,29.3449314192418,20.75);
#33=ELLIPSE('',#502,29.3449314192418,20.75);
#34=ELLIPSE('',#506,32.5269119345812,23.);
#35=ELLIPSE('',#510,32.5269119345812,23.);
#36=ELLIPSE('',#518,32.5269119345812,23.);
#37=ELLIPSE('',#522,32.5269119345812,23.);
#38=LINE('',#682,#62);
#39=LINE('',#691,#63);
#40=LINE('',#707,#64);
#41=LINE('',#712,#65);
#42=LINE('',#716,#66);
#43=LINE('',#717,#67);
#44=LINE('',#725,#68);
#45=LINE('',#741,#69);
#46=LINE('',#743,#70);
#47=LINE('',#745,#71);
#48=LINE('',#747,#72);
#49=LINE('',#763,#73);
#50=LINE('',#767,#74);
#51=LINE('',#769,#75);
#52=LINE('',#771,#76);
#53=LINE('',#779,#77);
#54=LINE('',#789,#78);
#55=LINE('',#791,#79);
#56=LINE('',#793,#80);
#57=LINE('',#811,#81);
#58=LINE('',#813,#82);
#59=LINE('',#815,#83);
#60=LINE('',#823,#84);
#61=LINE('',#825,#85);
#62=VECTOR('',#558,1000.);
#63=VECTOR('',#565,1000.);
#64=VECTOR('',#570,1000.);
#65=VECTOR('',#573,1000.);
#66=VECTOR('',#576,1000.);
#67=VECTOR('',#577,1000.);
#68=VECTOR('',#586,1000.);
#69=VECTOR('',#589,1000.);
#70=VECTOR('',#592,1000.);
#71=VECTOR('',#593,1000.);
#72=VECTOR('',#594,1000.);
#73=VECTOR('',#605,1000.);
#74=VECTOR('',#610,1000.);
#75=VECTOR('',#611,1000.);
#76=VECTOR('',#614,1000.);
#77=VECTOR('',#617,1000.);
#78=VECTOR('',#622,1000.);
#79=VECTOR('',#625,1000.);
#80=VECTOR('',#626,1000.);
#81=VECTOR('',#639,1000.);
#82=VECTOR('',#642,1000.);
#83=VECTOR('',#643,1000.);
#84=VECTOR('',#646,1000.);
#85=VECTOR('',#649,1000.);
#86=CONTEXT_DEPENDENT_SHAPE_REPRESENTATION(#90,#854);
#87=CONTEXT_DEPENDENT_SHAPE_REPRESENTATION(#91,#856);
#88=NEXT_ASSEMBLY_USAGE_OCCURRENCE('NAUO1','407 55.000_PART1',
'407 55.000_PART1',#857,#858,'');
#89=NEXT_ASSEMBLY_USAGE_OCCURRENCE('NAUO2','407 55.000_PART2',
'407 55.000_PART2',#857,#859,'');
#90=(
REPRESENTATION_RELATIONSHIP(' ',' ',#478,#477)
REPRESENTATION_RELATIONSHIP_WITH_TRANSFORMATION(#92)
SHAPE_REPRESENTATION_RELATIONSHIP()
);
#91=(
REPRESENTATION_RELATIONSHIP(' ',' ',#479,#477)
REPRESENTATION_RELATIONSHIP_WITH_TRANSFORMATION(#93)
SHAPE_REPRESENTATION_RELATIONSHIP()
);
#92=ITEM_DEFINED_TRANSFORMATION(' ',' ',#480,#490);
#93=ITEM_DEFINED_TRANSFORMATION(' ',' ',#480,#533);
#94=SHAPE_REPRESENTATION_RELATIONSHIP('','',#478,#96);
#95=SHAPE_REPRESENTATION_RELATIONSHIP('','',#479,#97);
#96=ADVANCED_BREP_SHAPE_REPRESENTATION('',(#472),#844);
#97=ADVANCED_BREP_SHAPE_REPRESENTATION('',(#473),#845);
#98=PLANE('',#486);
#99=PLANE('',#489);
#100=PLANE('',#496);
#101=PLANE('',#504);
#102=PLANE('',#505);
#103=PLANE('',#509);
#104=PLANE('',#511);
#105=PLANE('',#513);
#106=PLANE('',#516);
#107=PLANE('',#517);
#108=PLANE('',#521);
#109=PLANE('',#523);
#110=PLANE('',#525);
#111=PLANE('',#532);
#112=CYLINDRICAL_SURFACE('',#484,27.5);
#113=CYLINDRICAL_SURFACE('',#491,20.75);
#114=CYLINDRICAL_SURFACE('',#500,20.75);
#115=CYLINDRICAL_SURFACE('',#512,1.6);
#116=CYLINDRICAL_SURFACE('',#515,1.6);
#117=CYLINDRICAL_SURFACE('',#524,1.6);
#118=CYLINDRICAL_SURFACE('',#527,1.6);
#119=CYLINDRICAL_SURFACE('',#528,23.);
#120=ORIENTED_EDGE('',*,*,#240,.F.);
#121=ORIENTED_EDGE('',*,*,#241,.F.);
#122=ORIENTED_EDGE('',*,*,#240,.T.);
#123=ORIENTED_EDGE('',*,*,#242,.T.);
#124=ORIENTED_EDGE('',*,*,#243,.F.);
#125=ORIENTED_EDGE('',*,*,#242,.F.);
#126=ORIENTED_EDGE('',*,*,#243,.T.);
#127=ORIENTED_EDGE('',*,*,#241,.T.);
#128=ORIENTED_EDGE('',*,*,#244,.T.);
#129=ORIENTED_EDGE('',*,*,#245,.T.);
#130=ORIENTED_EDGE('',*,*,#246,.T.);
#131=ORIENTED_EDGE('',*,*,#247,.F.);
#132=ORIENTED_EDGE('',*,*,#248,.F.);
#133=ORIENTED_EDGE('',*,*,#249,.F.);
#134=ORIENTED_EDGE('',*,*,#250,.F.);
#135=ORIENTED_EDGE('',*,*,#251,.T.);
#136=ORIENTED_EDGE('',*,*,#252,.F.);
#137=ORIENTED_EDGE('',*,*,#253,.F.);
#138=ORIENTED_EDGE('',*,*,#254,.T.);
#139=ORIENTED_EDGE('',*,*,#255,.T.);
#140=ORIENTED_EDGE('',*,*,#256,.T.);
#141=ORIENTED_EDGE('',*,*,#246,.F.);
#142=ORIENTED_EDGE('',*,*,#257,.F.);
#143=ORIENTED_EDGE('',*,*,#258,.T.);
#144=ORIENTED_EDGE('',*,*,#259,.F.);
#145=ORIENTED_EDGE('',*,*,#253,.T.);
#146=ORIENTED_EDGE('',*,*,#260,.T.);
#147=ORIENTED_EDGE('',*,*,#261,.T.);
#148=ORIENTED_EDGE('',*,*,#262,.T.);
#149=ORIENTED_EDGE('',*,*,#263,.F.);
#150=ORIENTED_EDGE('',*,*,#264,.F.);
#151=ORIENTED_EDGE('',*,*,#265,.F.);
#152=ORIENTED_EDGE('',*,*,#266,.F.);
#153=ORIENTED_EDGE('',*,*,#265,.T.);
#154=ORIENTED_EDGE('',*,*,#267,.T.);
#155=ORIENTED_EDGE('',*,*,#268,.T.);
#156=ORIENTED_EDGE('',*,*,#254,.F.);
#157=ORIENTED_EDGE('',*,*,#259,.T.);
#158=ORIENTED_EDGE('',*,*,#266,.T.);
#159=ORIENTED_EDGE('',*,*,#269,.T.);
#160=ORIENTED_EDGE('',*,*,#270,.F.);
#161=ORIENTED_EDGE('',*,*,#270,.T.);
#162=ORIENTED_EDGE('',*,*,#271,.T.);
#163=ORIENTED_EDGE('',*,*,#272,.T.);
#164=ORIENTED_EDGE('',*,*,#255,.F.);
#165=ORIENTED_EDGE('',*,*,#273,.T.);
#166=ORIENTED_EDGE('',*,*,#247,.T.);
#167=ORIENTED_EDGE('',*,*,#256,.F.);
#168=ORIENTED_EDGE('',*,*,#272,.F.);
#169=ORIENTED_EDGE('',*,*,#274,.T.);
#170=ORIENTED_EDGE('',*,*,#275,.T.);
#171=ORIENTED_EDGE('',*,*,#248,.T.);
#172=ORIENTED_EDGE('',*,*,#273,.F.);
#173=ORIENTED_EDGE('',*,*,#276,.T.);
#174=ORIENTED_EDGE('',*,*,#277,.T.);
#175=ORIENTED_EDGE('',*,*,#249,.T.);
#176=ORIENTED_EDGE('',*,*,#275,.F.);
#177=ORIENTED_EDGE('',*,*,#278,.T.);
#178=ORIENTED_EDGE('',*,*,#279,.T.);
#179=ORIENTED_EDGE('',*,*,#250,.T.);
#180=ORIENTED_EDGE('',*,*,#277,.F.);
#181=ORIENTED_EDGE('',*,*,#280,.F.);
#182=ORIENTED_EDGE('',*,*,#251,.F.);
#183=ORIENTED_EDGE('',*,*,#279,.F.);
#184=ORIENTED_EDGE('',*,*,#281,.F.);
#185=ORIENTED_EDGE('',*,*,#282,.T.);
#186=ORIENTED_EDGE('',*,*,#244,.F.);
#187=ORIENTED_EDGE('',*,*,#282,.F.);
#188=ORIENTED_EDGE('',*,*,#283,.F.);
#189=ORIENTED_EDGE('',*,*,#284,.T.);
#190=ORIENTED_EDGE('',*,*,#245,.F.);
#191=ORIENTED_EDGE('',*,*,#284,.F.);
#192=ORIENTED_EDGE('',*,*,#285,.F.);
#193=ORIENTED_EDGE('',*,*,#286,.T.);
#194=ORIENTED_EDGE('',*,*,#257,.T.);
#195=ORIENTED_EDGE('',*,*,#286,.F.);
#196=ORIENTED_EDGE('',*,*,#287,.T.);
#197=ORIENTED_EDGE('',*,*,#288,.F.);
#198=ORIENTED_EDGE('',*,*,#258,.F.);
#199=ORIENTED_EDGE('',*,*,#260,.F.);
#200=ORIENTED_EDGE('',*,*,#252,.T.);
#201=ORIENTED_EDGE('',*,*,#288,.T.);
#202=ORIENTED_EDGE('',*,*,#289,.F.);
#203=ORIENTED_EDGE('',*,*,#290,.F.);
#204=ORIENTED_EDGE('',*,*,#261,.F.);
#205=ORIENTED_EDGE('',*,*,#290,.T.);
#206=ORIENTED_EDGE('',*,*,#291,.F.);
#207=ORIENTED_EDGE('',*,*,#292,.F.);
#208=ORIENTED_EDGE('',*,*,#262,.F.);
#209=ORIENTED_EDGE('',*,*,#292,.T.);
#210=ORIENTED_EDGE('',*,*,#293,.F.);
#211=ORIENTED_EDGE('',*,*,#294,.F.);
#212=ORIENTED_EDGE('',*,*,#295,.F.);
#213=ORIENTED_EDGE('',*,*,#263,.T.);
#214=ORIENTED_EDGE('',*,*,#294,.T.);
#215=ORIENTED_EDGE('',*,*,#296,.F.);
#216=ORIENTED_EDGE('',*,*,#267,.F.);
#217=ORIENTED_EDGE('',*,*,#264,.T.);
#218=ORIENTED_EDGE('',*,*,#295,.T.);
#219=ORIENTED_EDGE('',*,*,#297,.T.);
#220=ORIENTED_EDGE('',*,*,#298,.T.);
#221=ORIENTED_EDGE('',*,*,#297,.F.);
#222=ORIENTED_EDGE('',*,*,#296,.T.);
#223=ORIENTED_EDGE('',*,*,#293,.T.);
#224=ORIENTED_EDGE('',*,*,#291,.T.);
#225=ORIENTED_EDGE('',*,*,#289,.T.);
#226=ORIENTED_EDGE('',*,*,#287,.F.);
#227=ORIENTED_EDGE('',*,*,#285,.T.);
#228=ORIENTED_EDGE('',*,*,#283,.T.);
#229=ORIENTED_EDGE('',*,*,#281,.T.);
#230=ORIENTED_EDGE('',*,*,#280,.T.);
#231=ORIENTED_EDGE('',*,*,#278,.F.);
#232=ORIENTED_EDGE('',*,*,#276,.F.);
#233=ORIENTED_EDGE('',*,*,#274,.F.);
#234=ORIENTED_EDGE('',*,*,#271,.F.);
#235=ORIENTED_EDGE('',*,*,#269,.F.);
#236=ORIENTED_EDGE('',*,*,#268,.F.);
#237=ORIENTED_EDGE('',*,*,#299,.T.);
#238=ORIENTED_EDGE('',*,*,#298,.F.);
#239=ORIENTED_EDGE('',*,*,#299,.F.);
#240=EDGE_CURVE('',#300,#300,#342,.T.);
#241=EDGE_CURVE('',#301,#301,#343,.T.);
#242=EDGE_CURVE('',#302,#302,#344,.T.);
#243=EDGE_CURVE('',#303,#303,#345,.T.);
#244=EDGE_CURVE('',#304,#305,#38,.T.);
#245=EDGE_CURVE('',#305,#306,#30,.T.);
#246=EDGE_CURVE('',#306,#307,#346,.T.);
#247=EDGE_CURVE('',#308,#307,#31,.T.);
#248=EDGE_CURVE('',#309,#308,#39,.T.);
#249=EDGE_CURVE('',#310,#309,#18,.T.);
#250=EDGE_CURVE('',#311,#310,#347,.T.);
#251=EDGE_CURVE('',#311,#304,#19,.T.);
#252=EDGE_CURVE('',#312,#313,#40,.T.);
#253=EDGE_CURVE('',#314,#312,#348,.T.);
#254=EDGE_CURVE('',#314,#315,#41,.T.);
#255=EDGE_CURVE('',#315,#316,#349,.T.);
#256=EDGE_CURVE('',#316,#307,#42,.T.);
#257=EDGE_CURVE('',#317,#306,#43,.T.);
#258=EDGE_CURVE('',#317,#313,#350,.T.);
#259=EDGE_CURVE('',#314,#318,#32,.T.);
#260=EDGE_CURVE('',#312,#319,#33,.T.);
#261=EDGE_CURVE('',#319,#320,#44,.T.);
#262=EDGE_CURVE('',#320,#321,#20,.T.);
#263=EDGE_CURVE('',#322,#321,#351,.T.);
#264=EDGE_CURVE('',#323,#322,#21,.T.);
#265=EDGE_CURVE('',#318,#323,#45,.T.);
#266=EDGE_CURVE('',#318,#324,#46,.T.);
#267=EDGE_CURVE('',#323,#325,#47,.T.);
#268=EDGE_CURVE('',#325,#324,#48,.T.);
#269=EDGE_CURVE('',#324,#326,#34,.T.);
#270=EDGE_CURVE('',#315,#326,#22,.T.);
#271=EDGE_CURVE('',#326,#327,#352,.T.);
#272=EDGE_CURVE('',#327,#316,#23,.T.);
#273=EDGE_CURVE('',#328,#308,#49,.T.);
#274=EDGE_CURVE('',#327,#328,#35,.T.);
#275=EDGE_CURVE('',#329,#309,#50,.T.);
#276=EDGE_CURVE('',#328,#329,#51,.T.);
#277=EDGE_CURVE('',#330,#310,#52,.T.);
#278=EDGE_CURVE('',#329,#330,#24,.T.);
#279=EDGE_CURVE('',#331,#311,#53,.T.);
#280=EDGE_CURVE('',#331,#330,#353,.T.);
#281=EDGE_CURVE('',#332,#331,#25,.T.);
#282=EDGE_CURVE('',#332,#304,#54,.T.);
#283=EDGE_CURVE('',#333,#332,#55,.T.);
#284=EDGE_CURVE('',#333,#305,#56,.T.);
#285=EDGE_CURVE('',#334,#333,#36,.T.);
#286=EDGE_CURVE('',#334,#317,#26,.T.);
#287=EDGE_CURVE('',#334,#335,#354,.T.);
#288=EDGE_CURVE('',#313,#335,#27,.T.);
#289=EDGE_CURVE('',#336,#335,#37,.T.);
#290=EDGE_CURVE('',#319,#336,#57,.T.);
#291=EDGE_CURVE('',#337,#336,#58,.T.);
#292=EDGE_CURVE('',#320,#337,#59,.T.);
#293=EDGE_CURVE('',#338,#337,#28,.T.);
#294=EDGE_CURVE('',#321,#338,#60,.T.);
#295=EDGE_CURVE('',#322,#339,#61,.T.);
#296=EDGE_CURVE('',#339,#338,#355,.T.);
#297=EDGE_CURVE('',#339,#325,#29,.T.);
#298=EDGE_CURVE('',#340,#340,#356,.T.);
#299=EDGE_CURVE('',#341,#341,#357,.T.);
#300=VERTEX_POINT('',#669);
#301=VERTEX_POINT('',#671);
#302=VERTEX_POINT('',#674);
#303=VERTEX_POINT('',#677);
#304=VERTEX_POINT('',#683);
#305=VERTEX_POINT('',#684);
#306=VERTEX_POINT('',#686);
#307=VERTEX_POINT('',#688);
#308=VERTEX_POINT('',#690);
#309=VERTEX_POINT('',#692);
#310=VERTEX_POINT('',#698);
#311=VERTEX_POINT('',#700);
#312=VERTEX_POINT('',#708);
#313=VERTEX_POINT('',#709);
#314=VERTEX_POINT('',#711);
#315=VERTEX_POINT('',#713);
#316=VERTEX_POINT('',#715);
#317=VERTEX_POINT('',#718);
#318=VERTEX_POINT('',#722);
#319=VERTEX_POINT('',#724);
#320=VERTEX_POINT('',#726);
#321=VERTEX_POINT('',#732);
#322=VERTEX_POINT('',#734);
#323=VERTEX_POINT('',#740);
#324=VERTEX_POINT('',#744);
#325=VERTEX_POINT('',#746);
#326=VERTEX_POINT('',#750);
#327=VERTEX_POINT('',#757);
#328=VERTEX_POINT('',#764);
#329=VERTEX_POINT('',#768);
#330=VERTEX_POINT('',#772);
#331=VERTEX_POINT('',#780);
#332=VERTEX_POINT('',#788);
#333=VERTEX_POINT('',#792);
#334=VERTEX_POINT('',#796);
#335=VERTEX_POINT('',#803);
#336=VERTEX_POINT('',#810);
#337=VERTEX_POINT('',#814);
#338=VERTEX_POINT('',#822);
#339=VERTEX_POINT('',#826);
#340=VERTEX_POINT('',#836);
#341=VERTEX_POINT('',#839);
#342=CIRCLE('',#482,27.5);
#343=CIRCLE('',#483,26.7221825406948);
#344=CIRCLE('',#485,27.5);
#345=CIRCLE('',#487,25.94435);
#346=CIRCLE('',#493,20.75);
#347=CIRCLE('',#495,20.75);
#348=CIRCLE('',#497,20.75);
#349=CIRCLE('',#498,22.);
#350=CIRCLE('',#499,22.);
#351=CIRCLE('',#503,20.75);
#352=CIRCLE('',#508,23.);
#353=CIRCLE('',#514,23.);
#354=CIRCLE('',#520,23.);
#355=CIRCLE('',#526,23.);
#356=CIRCLE('',#529,23.);
#357=CIRCLE('',#531,26.7221825406948);
#358=EDGE_LOOP('',(#120));
#359=EDGE_LOOP('',(#121));
#360=EDGE_LOOP('',(#122));
#361=EDGE_LOOP('',(#123));
#362=EDGE_LOOP('',(#124));
#363=EDGE_LOOP('',(#125));
#364=EDGE_LOOP('',(#126));
#365=EDGE_LOOP('',(#127));
#366=EDGE_LOOP('',(#128,#129,#130,#131,#132,#133,#134,#135));
#367=EDGE_LOOP('',(#136,#137,#138,#139,#140,#141,#142,#143));
#368=EDGE_LOOP('',(#144,#145,#146,#147,#148,#149,#150,#151));
#369=EDGE_LOOP('',(#152,#153,#154,#155));
#370=EDGE_LOOP('',(#156,#157,#158,#159,#160));
#371=EDGE_LOOP('',(#161,#162,#163,#164));
#372=EDGE_LOOP('',(#165,#166,#167,#168,#169));
#373=EDGE_LOOP('',(#170,#171,#172,#173));
#374=EDGE_LOOP('',(#174,#175,#176,#177));
#375=EDGE_LOOP('',(#178,#179,#180,#181));
#376=EDGE_LOOP('',(#182,#183,#184,#185));
#377=EDGE_LOOP('',(#186,#187,#188,#189));
#378=EDGE_LOOP('',(#190,#191,#192,#193,#194));
#379=EDGE_LOOP('',(#195,#196,#197,#198));
#380=EDGE_LOOP('',(#199,#200,#201,#202,#203));
#381=EDGE_LOOP('',(#204,#205,#206,#207));
#382=EDGE_LOOP('',(#208,#209,#210,#211));
#383=EDGE_LOOP('',(#212,#213,#214,#215));
#384=EDGE_LOOP('',(#216,#217,#218,#219));
#385=EDGE_LOOP('',(#220));
#386=EDGE_LOOP('',(#221,#222,#223,#224,#225,#226,#227,#228,#229,#230,#231,
#232,#233,#234,#235,#236));
#387=EDGE_LOOP('',(#237));
#388=EDGE_LOOP('',(#238));
#389=EDGE_LOOP('',(#239));
#390=FACE_BOUND('',#358,.T.);
#391=FACE_BOUND('',#359,.T.);
#392=FACE_BOUND('',#360,.T.);
#393=FACE_BOUND('',#361,.T.);
#394=FACE_BOUND('',#362,.T.);
#395=FACE_BOUND('',#363,.T.);
#396=FACE_BOUND('',#364,.T.);
#397=FACE_BOUND('',#365,.T.);
#398=FACE_BOUND('',#366,.T.);
#399=FACE_BOUND('',#367,.T.);
#400=FACE_BOUND('',#368,.T.);
#401=FACE_BOUND('',#369,.T.);
#402=FACE_BOUND('',#370,.T.);
#403=FACE_BOUND('',#371,.T.);
#404=FACE_BOUND('',#372,.T.);
#405=FACE_BOUND('',#373,.T.);
#406=FACE_BOUND('',#374,.T.);
#407=FACE_BOUND('',#375,.T.);
#408=FACE_BOUND('',#376,.T.);
#409=FACE_BOUND('',#377,.T.);
#410=FACE_BOUND('',#378,.T.);
#411=FACE_BOUND('',#379,.T.);
#412=FACE_BOUND('',#380,.T.);
#413=FACE_BOUND('',#381,.T.);
#414=FACE_BOUND('',#382,.T.);
#415=FACE_BOUND('',#383,.T.);
#416=FACE_BOUND('',#384,.T.);
#417=FACE_BOUND('',#385,.T.);
#418=FACE_BOUND('',#386,.T.);
#419=FACE_BOUND('',#387,.T.);
#420=FACE_BOUND('',#388,.T.);
#421=FACE_BOUND('',#389,.T.);
#422=CONICAL_SURFACE('',#481,23.,0.785398163397448);
#423=CONICAL_SURFACE('',#488,25.94435,0.785398163397445);
#424=CONICAL_SURFACE('',#507,27.5,0.785398163397448);
#425=CONICAL_SURFACE('',#519,27.5,0.785398163397448);
#426=CONICAL_SURFACE('',#530,23.,0.785398163397448);
#427=ADVANCED_FACE('',(#390,#391),#422,.T.);
#428=ADVANCED_FACE('',(#392,#393),#112,.T.);
#429=ADVANCED_FACE('',(#394),#98,.F.);
#430=ADVANCED_FACE('',(#395,#396),#423,.T.);
#431=ADVANCED_FACE('',(#397),#99,.T.);
#432=ADVANCED_FACE('',(#398),#113,.T.);
#433=ADVANCED_FACE('',(#399),#100,.F.);
#434=ADVANCED_FACE('',(#400),#114,.T.);
#435=ADVANCED_FACE('',(#401),#101,.F.);
#436=ADVANCED_FACE('',(#402),#102,.F.);
#437=ADVANCED_FACE('',(#403),#424,.T.);
#438=ADVANCED_FACE('',(#404),#103,.F.);
#439=ADVANCED_FACE('',(#405),#104,.F.);
#440=ADVANCED_FACE('',(#406),#115,.F.);
#441=ADVANCED_FACE('',(#407),#105,.F.);
#442=ADVANCED_FACE('',(#408),#116,.F.);
#443=ADVANCED_FACE('',(#409),#106,.T.);
#444=ADVANCED_FACE('',(#410),#107,.T.);
#445=ADVANCED_FACE('',(#411),#425,.T.);
#446=ADVANCED_FACE('',(#412),#108,.T.);
#447=ADVANCED_FACE('',(#413),#109,.T.);
#448=ADVANCED_FACE('',(#414),#117,.F.);
#449=ADVANCED_FACE('',(#415),#110,.F.);
#450=ADVANCED_FACE('',(#416),#118,.F.);
#451=ADVANCED_FACE('',(#417,#418),#119,.T.);
#452=ADVANCED_FACE('',(#419,#420),#426,.T.);
#453=ADVANCED_FACE('',(#421),#111,.F.);
#454=CLOSED_SHELL('',(#427,#428,#429,#430,#431));
#455=CLOSED_SHELL('',(#432,#433,#434,#435,#436,#437,#438,#439,#440,#441,
#442,#443,#444,#445,#446,#447,#448,#449,#450,#451,#452,#453));
#456=STYLED_ITEM('',(#458),#472);
#457=STYLED_ITEM('',(#459),#473);
#458=PRESENTATION_STYLE_ASSIGNMENT((#460));
#459=PRESENTATION_STYLE_ASSIGNMENT((#461));
#460=SURFACE_STYLE_USAGE(.BOTH.,#462);
#461=SURFACE_STYLE_USAGE(.BOTH.,#463);
#462=SURFACE_SIDE_STYLE('',(#464));
#463=SURFACE_SIDE_STYLE('',(#465));
#464=SURFACE_STYLE_FILL_AREA(#466);
#465=SURFACE_STYLE_FILL_AREA(#467);
#466=FILL_AREA_STYLE('',(#468));
#467=FILL_AREA_STYLE('',(#469));
#468=FILL_AREA_STYLE_COLOUR('',#470);
#469=FILL_AREA_STYLE_COLOUR('',#471);
#470=COLOUR_RGB('',0.8,0.8,0.8);
#471=COLOUR_RGB('',0.499992370489052,0.499992370489052,0.499992370489052);
#472=MANIFOLD_SOLID_BREP('solid',#454);
#473=MANIFOLD_SOLID_BREP('solid',#455);
#474=SHAPE_DEFINITION_REPRESENTATION(#852,#477);
#475=SHAPE_DEFINITION_REPRESENTATION(#853,#478);
#476=SHAPE_DEFINITION_REPRESENTATION(#855,#479);
#477=SHAPE_REPRESENTATION('407 55.000',(#480,#490,#533),#843);
#478=SHAPE_REPRESENTATION('407 55.000_PART1',(#480),#844);
#479=SHAPE_REPRESENTATION('407 55.000_PART2',(#480),#845);
#480=AXIS2_PLACEMENT_3D('',#666,#534,#535);
#481=AXIS2_PLACEMENT_3D('',#667,#536,#537);
#482=AXIS2_PLACEMENT_3D('',#668,#538,#539);
#483=AXIS2_PLACEMENT_3D('',#670,#540,#541);
#484=AXIS2_PLACEMENT_3D('',#672,#542,#543);
#485=AXIS2_PLACEMENT_3D('',#673,#544,#545);
#486=AXIS2_PLACEMENT_3D('',#675,#546,#547);
#487=AXIS2_PLACEMENT_3D('',#676,#548,#549);
#488=AXIS2_PLACEMENT_3D('',#678,#550,#551);
#489=AXIS2_PLACEMENT_3D('',#679,#552,#553);
#490=AXIS2_PLACEMENT_3D('',#680,#554,#555);
#491=AXIS2_PLACEMENT_3D('',#681,#556,#557);
#492=AXIS2_PLACEMENT_3D('',#685,#559,#560);
#493=AXIS2_PLACEMENT_3D('',#687,#561,#562);
#494=AXIS2_PLACEMENT_3D('',#689,#563,#564);
#495=AXIS2_PLACEMENT_3D('',#699,#566,#567);
#496=AXIS2_PLACEMENT_3D('',#706,#568,#569);
#497=AXIS2_PLACEMENT_3D('',#710,#571,#572);
#498=AXIS2_PLACEMENT_3D('',#714,#574,#575);
#499=AXIS2_PLACEMENT_3D('',#719,#578,#579);
#500=AXIS2_PLACEMENT_3D('',#720,#580,#581);
#501=AXIS2_PLACEMENT_3D('',#721,#582,#583);
#502=AXIS2_PLACEMENT_3D('',#723,#584,#585);
#503=AXIS2_PLACEMENT_3D('',#733,#587,#588);
#504=AXIS2_PLACEMENT_3D('',#742,#590,#591);
#505=AXIS2_PLACEMENT_3D('',#748,#595,#596);
#506=AXIS2_PLACEMENT_3D('',#749,#597,#598);
#507=AXIS2_PLACEMENT_3D('',#755,#599,#600);
#508=AXIS2_PLACEMENT_3D('',#756,#601,#602);
#509=AXIS2_PLACEMENT_3D('',#762,#603,#604);
#510=AXIS2_PLACEMENT_3D('',#765,#606,#607);
#511=AXIS2_PLACEMENT_3D('',#766,#608,#609);
#512=AXIS2_PLACEMENT_3D('',#770,#612,#613);
#513=AXIS2_PLACEMENT_3D('',#778,#615,#616);
#514=AXIS2_PLACEMENT_3D('',#781,#618,#619);
#515=AXIS2_PLACEMENT_3D('',#782,#620,#621);
#516=AXIS2_PLACEMENT_3D('',#790,#623,#624);
#517=AXIS2_PLACEMENT_3D('',#794,#627,#628);
#518=AXIS2_PLACEMENT_3D('',#795,#629,#630);
#519=AXIS2_PLACEMENT_3D('',#801,#631,#632);
#520=AXIS2_PLACEMENT_3D('',#802,#633,#634);
#521=AXIS2_PLACEMENT_3D('',#808,#635,#636);
#522=AXIS2_PLACEMENT_3D('',#809,#637,#638);
#523=AXIS2_PLACEMENT_3D('',#812,#640,#641);
#524=AXIS2_PLACEMENT_3D('',#816,#644,#645);
#525=AXIS2_PLACEMENT_3D('',#824,#647,#648);
#526=AXIS2_PLACEMENT_3D('',#827,#650,#651);
#527=AXIS2_PLACEMENT_3D('',#828,#652,#653);
#528=AXIS2_PLACEMENT_3D('',#834,#654,#655);
#529=AXIS2_PLACEMENT_3D('',#835,#656,#657);
#530=AXIS2_PLACEMENT_3D('',#837,#658,#659);
#531=AXIS2_PLACEMENT_3D('',#838,#660,#661);
#532=AXIS2_PLACEMENT_3D('',#840,#662,#663);
#533=AXIS2_PLACEMENT_3D('',#841,#664,#665);
#534=DIRECTION('',(0.,0.,1.));
#535=DIRECTION('',(1.,0.,0.));
#536=DIRECTION('',(0.,0.,-1.));
#537=DIRECTION('',(-1.,0.,4.06973249496026E-17));
#538=DIRECTION('',(0.,0.,-1.));
#539=DIRECTION('',(-1.,0.,0.));
#540=DIRECTION('',(0.,0.,1.));
#541=DIRECTION('',(1.,0.,0.));
#542=DIRECTION('',(0.,7.93433656755369E-17,1.));
#543=DIRECTION('',(0.,1.,0.));
#544=DIRECTION('',(0.,7.93433656755369E-17,1.));
#545=DIRECTION('',(0.,1.,0.));
#546=DIRECTION('',(0.,7.93433656755369E-17,1.));
#547=DIRECTION('',(0.,1.,-8.32667268468867E-17));
#548=DIRECTION('',(0.,7.93433656755369E-17,1.));
#549=DIRECTION('',(0.,1.,0.));
#550=DIRECTION('',(0.,7.93433656755369E-17,1.));
#551=DIRECTION('',(0.,1.,-1.48795269339863E-16));
#552=DIRECTION('',(0.,0.,1.));
#553=DIRECTION('',(1.,0.,0.));
#554=DIRECTION('',(0.,0.,1.));
#555=DIRECTION('',(1.,0.,0.));
#556=DIRECTION('',(0.,0.,-1.));
#557=DIRECTION('',(-1.,0.,5.0532154980743E-16));
#558=DIRECTION('',(0.,0.,1.));
#559=DIRECTION('',(0.,0.707106781186548,0.707106781186547));
#560=DIRECTION('',(0.,0.707106781186547,-0.707106781186548));
#561=DIRECTION('',(0.,0.,-1.));
#562=DIRECTION('',(-1.,0.,5.0532154980743E-16));
#563=DIRECTION('',(0.,0.707106781186549,-0.707106781186546));
#564=DIRECTION('',(0.,-0.707106781186546,-0.707106781186549));
#565=DIRECTION('',(0.,0.,1.));
#566=DIRECTION('',(0.,1.33440267382831E-15,-1.));
#567=DIRECTION('',(0.,-1.,-1.33761810195802E-15));
#568=DIRECTION('',(0.,-7.93433656755369E-17,-1.));
#569=DIRECTION('',(0.,-1.,7.93433656755369E-17));
#570=DIRECTION('',(1.,0.,0.));
#571=DIRECTION('',(0.,0.,-1.));
#572=DIRECTION('',(-1.,0.,5.0532154980743E-16));
#573=DIRECTION('',(1.,0.,0.));
#574=DIRECTION('',(0.,7.93433656755369E-17,1.));
#575=DIRECTION('',(0.,1.,-7.93433656755369E-17));
#576=DIRECTION('',(1.,0.,0.));
#577=DIRECTION('',(1.,0.,0.));
#578=DIRECTION('',(0.,7.93433656755369E-17,1.));
#579=DIRECTION('',(0.,1.,-7.93433656755369E-17));
#580=DIRECTION('',(0.,0.,-1.));
#581=DIRECTION('',(-1.,0.,5.0532154980743E-16));
#582=DIRECTION('',(0.,0.707106781186549,-0.707106781186546));
#583=DIRECTION('',(0.,-0.707106781186546,-0.707106781186549));
#584=DIRECTION('',(0.,0.707106781186548,0.707106781186547));
#585=DIRECTION('',(0.,0.707106781186547,-0.707106781186548));
#586=DIRECTION('',(0.,0.,-1.));
#587=DIRECTION('',(0.,1.33440267382831E-15,-1.));
#588=DIRECTION('',(0.,-1.,-1.33761810195802E-15));
#589=DIRECTION('',(0.,0.,-1.));
#590=DIRECTION('',(0.,1.,0.));
#591=DIRECTION('',(0.,0.,-1.));
#592=DIRECTION('',(1.,0.,0.));
#593=DIRECTION('',(1.,0.,0.));
#594=DIRECTION('',(0.,0.,1.));
#595=DIRECTION('',(0.,0.707106781186548,-0.707106781186548));
#596=DIRECTION('',(0.,-0.707106781186548,-0.707106781186547));
#597=DIRECTION('',(0.,-0.707106781186549,0.707106781186546));
#598=DIRECTION('',(0.,-0.707106781186546,-0.707106781186549));
#599=DIRECTION('',(0.,-7.93433656755369E-17,-1.));
#600=DIRECTION('',(0.,-1.,-5.4025451319959E-17));
#601=DIRECTION('',(0.,7.93433656755369E-17,1.));
#602=DIRECTION('',(0.,-1.,7.54227598250786E-17));
#603=DIRECTION('',(0.,0.707106781186548,-0.707106781186548));
#604=DIRECTION('',(0.,-0.707106781186548,-0.707106781186547));
#605=DIRECTION('',(1.,0.,0.));
#606=DIRECTION('',(0.,-0.707106781186549,0.707106781186546));
#607=DIRECTION('',(0.,-0.707106781186546,-0.707106781186549));
#608=DIRECTION('',(0.,1.,0.));
#609=DIRECTION('',(0.,0.,-1.));
#610=DIRECTION('',(1.,0.,0.));
#611=DIRECTION('',(0.,0.,-1.));
#612=DIRECTION('',(1.,0.,0.));
#613=DIRECTION('',(0.,0.,-1.));
#614=DIRECTION('',(1.,0.,0.));
#615=DIRECTION('',(0.,0.,-1.));
#616=DIRECTION('',(0.,-1.,0.));
#617=DIRECTION('',(1.,0.,0.));
#618=DIRECTION('',(0.,1.33440267382831E-15,-1.));
#619=DIRECTION('',(0.,-1.,-1.35760967685141E-15));
#620=DIRECTION('',(1.,0.,0.));
#621=DIRECTION('',(0.,0.,-1.));
#622=DIRECTION('',(1.,0.,0.));
#623=DIRECTION('',(0.,1.,0.));
#624=DIRECTION('',(-1.,0.,0.));
#625=DIRECTION('',(0.,0.,-1.));
#626=DIRECTION('',(1.,0.,0.));
#627=DIRECTION('',(0.,0.707106781186548,0.707106781186548));
#628=DIRECTION('',(0.,0.707106781186548,-0.707106781186547));
#629=DIRECTION('',(0.,-0.707106781186548,-0.707106781186547));
#630=DIRECTION('',(0.,0.707106781186547,-0.707106781186548));
#631=DIRECTION('',(0.,-7.93433656755369E-17,-1.));
#632=DIRECTION('',(0.,-1.,-5.4025451319959E-17));
#633=DIRECTION('',(0.,7.93433656755369E-17,1.));
#634=DIRECTION('',(0.,-1.,7.54227598250786E-17));
#635=DIRECTION('',(0.,0.707106781186548,0.707106781186548));
#636=DIRECTION('',(0.,0.707106781186548,-0.707106781186547));
#637=DIRECTION('',(0.,-0.707106781186548,-0.707106781186547));
#638=DIRECTION('',(0.,0.707106781186547,-0.707106781186548));
#639=DIRECTION('',(1.,0.,0.));
#640=DIRECTION('',(0.,1.,0.));
#641=DIRECTION('',(-1.,0.,0.));
#642=DIRECTION('',(0.,0.,1.));
#643=DIRECTION('',(1.,0.,0.));
#644=DIRECTION('',(1.,0.,0.));
#645=DIRECTION('',(0.,0.,-1.));
#646=DIRECTION('',(1.,0.,0.));
#647=DIRECTION('',(0.,0.,-1.));
#648=DIRECTION('',(0.,-1.,0.));
#649=DIRECTION('',(1.,0.,0.));
#650=DIRECTION('',(0.,1.33440267382831E-15,-1.));
#651=DIRECTION('',(0.,-1.,-1.35760967685141E-15));
#652=DIRECTION('',(1.,0.,0.));
#653=DIRECTION('',(0.,0.,-1.));
#654=DIRECTION('',(0.,0.,-1.));
#655=DIRECTION('',(-1.,0.,0.));
#656=DIRECTION('',(0.,0.,1.));
#657=DIRECTION('',(-1.,0.,0.));
#658=DIRECTION('',(0.,0.,-1.));
#659=DIRECTION('',(-1.,0.,4.06973249496026E-17));
#660=DIRECTION('',(0.,0.,1.));
#661=DIRECTION('',(1.,0.,0.));
#662=DIRECTION('',(0.,0.,1.));
#663=DIRECTION('',(1.,0.,0.));
#664=DIRECTION('',(0.,0.,1.));
#665=DIRECTION('',(1.,0.,0.));
#666=CARTESIAN_POINT('',(0.,0.,0.));
#667=CARTESIAN_POINT('',(0.,3.85185988877447E-31,-16.5));
#668=CARTESIAN_POINT('',(0.,3.85185988877447E-31,-21.));
#669=CARTESIAN_POINT('',(-27.5,3.85185988877447E-31,-21.));
#670=CARTESIAN_POINT('',(0.,3.85185988877447E-31,-20.2221825406948));
#671=CARTESIAN_POINT('',(26.7221825406948,3.85185988877447E-31,-20.2221825406948));
#672=CARTESIAN_POINT('',(0.,-5.63337896296312E-15,-71.));
#673=CARTESIAN_POINT('',(0.,-5.50994845614997E-15,-69.44435));
#674=CARTESIAN_POINT('',(0.,27.5,-69.44435));
#675=CARTESIAN_POINT('',(0.,12.6001558096899,-71.));
#676=CARTESIAN_POINT('',(0.,-5.63337896296312E-15,-71.));
#677=CARTESIAN_POINT('',(0.,25.94435,-71.));
#678=CARTESIAN_POINT('',(0.,-5.63337896296312E-15,-71.));
#679=CARTESIAN_POINT('',(0.,0.,-20.2221825406948));
#680=CARTESIAN_POINT('',(0.,0.,0.));
#681=CARTESIAN_POINT('',(0.,0.,0.));
#682=CARTESIAN_POINT('',(-20.3204945805952,-4.2,0.));
#683=CARTESIAN_POINT('',(-20.3204945805952,-4.2,-8.7));
#684=CARTESIAN_POINT('',(-20.3204945805952,-4.2,-1.2));
#685=CARTESIAN_POINT('',(0.,0.,-5.40000000000001));
#686=CARTESIAN_POINT('',(-20.0350318192909,-5.4,4.53119342710629E-15));
#687=CARTESIAN_POINT('',(0.,0.,0.));
#688=CARTESIAN_POINT('',(-20.0350318192909,5.4,4.82031400643576E-15));
#689=CARTESIAN_POINT('',(0.,0.,-5.40000000000002));
#690=CARTESIAN_POINT('',(-20.3204945805952,4.2,-1.2));
#691=CARTESIAN_POINT('',(-20.3204945805952,4.2,9.71445146547012E-16));
#692=CARTESIAN_POINT('',(-20.3204945805952,4.2,-8.7));
#693=CARTESIAN_POINT('',(-20.5864639994342,2.6,-10.3));
#694=CARTESIAN_POINT('',(-20.5331678637592,3.02199191476264,-10.3));
#695=CARTESIAN_POINT('',(-20.3978067986555,3.84547307748896,-9.95625805027649));
#696=CARTESIAN_POINT('',(-20.3204945805952,4.2,-9.12547794733717));
#697=CARTESIAN_POINT('',(-20.3204945805952,4.2,-8.7));
#698=CARTESIAN_POINT('',(-20.5864639994342,2.6,-10.3));
#699=CARTESIAN_POINT('',(0.,0.,-10.3));
#700=CARTESIAN_POINT('',(-20.5864639994342,-2.6,-10.3));
#701=CARTESIAN_POINT('',(-20.5864639994342,-2.6,-10.3));
#702=CARTESIAN_POINT('',(-20.5331678637592,-3.02199191476264,-10.3));
#703=CARTESIAN_POINT('',(-20.3978067986555,-3.84547307748896,-9.95625805027648));
#704=CARTESIAN_POINT('',(-20.3204945805952,-4.2,-9.12547794733717));
#705=CARTESIAN_POINT('',(-20.3204945805952,-4.2,-8.7));
#706=CARTESIAN_POINT('',(0.,22.,-2.53184685597058E-15));
#707=CARTESIAN_POINT('',(-28.9473684210526,-5.4,0.));
#708=CARTESIAN_POINT('',(20.0350318192909,-5.4,6.72977000824127E-16));
#709=CARTESIAN_POINT('',(21.3269782200855,-5.4,1.42818058215967E-16));
#710=CARTESIAN_POINT('',(0.,0.,0.));
#711=CARTESIAN_POINT('',(20.0350318192909,5.4,-3.37471110978842E-15));
#712=CARTESIAN_POINT('',(-28.9473684210526,5.4,0.));
#713=CARTESIAN_POINT('',(21.3269782200855,5.4,-4.25434700779264E-16));
#714=CARTESIAN_POINT('',(0.,7.70371977754894E-31,0.));
#715=CARTESIAN_POINT('',(-21.3269782200855,5.4,-1.42818058215967E-16));
#716=CARTESIAN_POINT('',(-28.9473684210526,5.4,0.));
#717=CARTESIAN_POINT('',(-28.9473684210526,-5.4,0.));
#718=CARTESIAN_POINT('',(-21.3269782200855,-5.4,4.25434700779133E-16));
#719=CARTESIAN_POINT('',(0.,7.70371977754894E-31,0.));
#720=CARTESIAN_POINT('',(0.,0.,0.));
#721=CARTESIAN_POINT('',(0.,0.,-5.40000000000002));
#722=CARTESIAN_POINT('',(20.3204945805952,4.2,-1.2));
#723=CARTESIAN_POINT('',(0.,0.,-5.40000000000001));
#724=CARTESIAN_POINT('',(20.3204945805952,-4.2,-1.2));
#725=CARTESIAN_POINT('',(20.3204945805952,-4.2,0.));
#726=CARTESIAN_POINT('',(20.3204945805952,-4.2,-8.7));
#727=CARTESIAN_POINT('',(20.3204945805952,-4.2,-8.7));
#728=CARTESIAN_POINT('',(20.3204945805952,-4.2,-9.1253805744121));
#729=CARTESIAN_POINT('',(20.3975301115263,-3.84700500522392,-9.95483775177568));
#730=CARTESIAN_POINT('',(20.5331819453073,-3.02188041888418,-10.3));
#731=CARTESIAN_POINT('',(20.5864639994342,-2.6,-10.3));
#732=CARTESIAN_POINT('',(20.5864639994342,-2.6,-10.3));
#733=CARTESIAN_POINT('',(0.,0.,-10.3));
#734=CARTESIAN_POINT('',(20.5864639994342,2.6,-10.3));
#735=CARTESIAN_POINT('',(20.3204945805952,4.2,-8.7));
#736=CARTESIAN_POINT('',(20.3204945805952,4.2,-9.1253805744121));
#737=CARTESIAN_POINT('',(20.3975301115263,3.84700500522391,-9.95483775177568));
#738=CARTESIAN_POINT('',(20.5331819453073,3.02188041888418,-10.3));
#739=CARTESIAN_POINT('',(20.5864639994342,2.6,-10.3));
#740=CARTESIAN_POINT('',(20.3204945805952,4.2,-8.7));
#741=CARTESIAN_POINT('',(20.3204945805952,4.2,9.71445146547012E-16));
#742=CARTESIAN_POINT('',(-28.9473684210526,4.2,-8.7));
#743=CARTESIAN_POINT('',(-28.9473684210526,4.2,-1.2));
#744=CARTESIAN_POINT('',(22.6132704401641,4.2,-1.2));
#745=CARTESIAN_POINT('',(-28.9473684210526,4.2,-8.7));
#746=CARTESIAN_POINT('',(22.6132704401641,4.2,-8.7));
#747=CARTESIAN_POINT('',(22.6132704401641,4.2,9.71445146547012E-16));
#748=CARTESIAN_POINT('',(-28.9473684210526,4.2,-1.2));
#749=CARTESIAN_POINT('',(0.,3.85185988877447E-31,-5.40000000000002));
#750=CARTESIAN_POINT('',(22.5752076402411,4.4,-1.));
#751=CARTESIAN_POINT('',(21.3269782200855,5.4,0.));
#752=CARTESIAN_POINT('',(21.7497688625471,5.07091799914473,-0.329082000855268));
#753=CARTESIAN_POINT('',(22.1657156420809,4.73738565275488,-0.662614347245123));
#754=CARTESIAN_POINT('',(22.5752076402411,4.4,-1.));
#755=CARTESIAN_POINT('',(0.,-4.36388511215453E-16,-5.50000000000001));
#756=CARTESIAN_POINT('',(0.,-7.93433656755368E-17,-1.));
#757=CARTESIAN_POINT('',(-22.5752076402411,4.40000000000001,-0.999999999999995));
#758=CARTESIAN_POINT('',(-22.5752076402411,4.4,-1.));
#759=CARTESIAN_POINT('',(-22.1657156420809,4.73738565275487,-0.662614347245127));
#760=CARTESIAN_POINT('',(-21.7497688625471,5.07091799914473,-0.329082000855266));
#761=CARTESIAN_POINT('',(-21.3269782200855,5.4,0.));
#762=CARTESIAN_POINT('',(-28.9473684210526,4.2,-1.2));
#763=CARTESIAN_POINT('',(-28.9473684210526,4.2,-1.2));
#764=CARTESIAN_POINT('',(-22.6132704401641,4.2,-1.2));
#765=CARTESIAN_POINT('',(0.,3.85185988877447E-31,-5.40000000000002));
#766=CARTESIAN_POINT('',(-28.9473684210526,4.2,-8.7));
#767=CARTESIAN_POINT('',(-28.9473684210526,4.2,-8.7));
#768=CARTESIAN_POINT('',(-22.6132704401641,4.2,-8.7));
#769=CARTESIAN_POINT('',(-22.6132704401641,4.2,9.71445146547012E-16));
#770=CARTESIAN_POINT('',(-28.9473684210526,2.6,-8.7));
#771=CARTESIAN_POINT('',(-28.9473684210526,2.6,-10.3));
#772=CARTESIAN_POINT('',(-22.8525709713371,2.6,-10.3));
#773=CARTESIAN_POINT('',(-22.6132704401641,4.2,-8.7));
#774=CARTESIAN_POINT('',(-22.6132704401641,4.2,-9.12484780550494));
#775=CARTESIAN_POINT('',(-22.6823119436583,3.84799045180934,-9.95406079617031));
#776=CARTESIAN_POINT('',(-22.8045584021767,3.02200409394374,-10.3));
#777=CARTESIAN_POINT('',(-22.8525709713371,2.6,-10.3));
#778=CARTESIAN_POINT('',(-28.9473684210526,1.26114396703514E-15,-10.3));
#779=CARTESIAN_POINT('',(-28.9473684210526,-2.6,-10.3));
#780=CARTESIAN_POINT('',(-22.8525709713371,-2.6,-10.3));
#781=CARTESIAN_POINT('',(0.,3.85185988877447E-31,-10.3));
#782=CARTESIAN_POINT('',(-28.9473684210526,-2.6,-8.7));
#783=CARTESIAN_POINT('',(-22.6132704401641,-4.2,-8.7));
#784=CARTESIAN_POINT('',(-22.6132704401641,-4.2,-9.12484780550494));
#785=CARTESIAN_POINT('',(-22.6823119436583,-3.84799045180934,-9.95406079617032));
#786=CARTESIAN_POINT('',(-22.8045584021767,-3.02200409394375,-10.3));
#787=CARTESIAN_POINT('',(-22.8525709713371,-2.60000000000001,-10.3));
#788=CARTESIAN_POINT('',(-22.6132704401641,-4.2,-8.7));
#789=CARTESIAN_POINT('',(-28.9473684210526,-4.2,-8.7));
#790=CARTESIAN_POINT('',(-28.9473684210526,-4.2,-8.7));
#791=CARTESIAN_POINT('',(-22.6132704401641,-4.2,0.));
#792=CARTESIAN_POINT('',(-22.6132704401641,-4.20000000000001,-1.2));
#793=CARTESIAN_POINT('',(-28.9473684210526,-4.2,-1.2));
#794=CARTESIAN_POINT('',(-28.9473684210526,-4.2,-1.2));
#795=CARTESIAN_POINT('',(0.,3.85185988877447E-31,-5.40000000000001));
#796=CARTESIAN_POINT('',(-22.5752076402411,-4.4,-1.));
#797=CARTESIAN_POINT('',(-22.5752076402411,-4.4,-1.));
#798=CARTESIAN_POINT('',(-22.1657156420809,-4.73738565275487,-0.662614347245127));
#799=CARTESIAN_POINT('',(-21.7497688625471,-5.07091799914473,-0.329082000855267));
#800=CARTESIAN_POINT('',(-21.3269782200855,-5.4,0.));
#801=CARTESIAN_POINT('',(0.,-4.36388511215453E-16,-5.50000000000001));
#802=CARTESIAN_POINT('',(0.,-7.93433656755368E-17,-1.));
#803=CARTESIAN_POINT('',(22.5752076402411,-4.4,-1.));
#804=CARTESIAN_POINT('',(21.3269782200855,-5.4,0.));
#805=CARTESIAN_POINT('',(21.749768862547,-5.07091799914473,-0.329082000855268));
#806=CARTESIAN_POINT('',(22.1657156420809,-4.73738565275488,-0.662614347245121));
#807=CARTESIAN_POINT('',(22.5752076402411,-4.4,-0.999999999999999));
#808=CARTESIAN_POINT('',(-28.9473684210526,-4.2,-1.2));
#809=CARTESIAN_POINT('',(0.,3.85185988877447E-31,-5.40000000000001));
#810=CARTESIAN_POINT('',(22.6132704401641,-4.2,-1.2));
#811=CARTESIAN_POINT('',(-28.9473684210526,-4.2,-1.2));
#812=CARTESIAN_POINT('',(-28.9473684210526,-4.2,-8.7));
#813=CARTESIAN_POINT('',(22.6132704401641,-4.2,0.));
#814=CARTESIAN_POINT('',(22.6132704401641,-4.2,-8.7));
#815=CARTESIAN_POINT('',(-28.9473684210526,-4.2,-8.7));
#816=CARTESIAN_POINT('',(-28.9473684210526,-2.6,-8.7));
#817=CARTESIAN_POINT('',(22.8525709713371,-2.6,-10.3));
#818=CARTESIAN_POINT('',(22.804548024432,-3.02209530861598,-10.3));
#819=CARTESIAN_POINT('',(22.6825642791612,-3.84644069355382,-9.95551982976358));
#820=CARTESIAN_POINT('',(22.6132704401641,-4.2,-9.12492610721726));
#821=CARTESIAN_POINT('',(22.6132704401641,-4.2,-8.7));
#822=CARTESIAN_POINT('',(22.8525709713371,-2.6,-10.3));
#823=CARTESIAN_POINT('',(-28.9473684210526,-2.6,-10.3));
#824=CARTESIAN_POINT('',(-28.9473684210526,1.26114396703514E-15,-10.3));
#825=CARTESIAN_POINT('',(-28.9473684210526,2.6,-10.3));
#826=CARTESIAN_POINT('',(22.8525709713371,2.6,-10.3));
#827=CARTESIAN_POINT('',(0.,3.85185988877447E-31,-10.3));
#828=CARTESIAN_POINT('',(-28.9473684210526,2.6,-8.7));
#829=CARTESIAN_POINT('',(22.8525709713371,2.6,-10.3));
#830=CARTESIAN_POINT('',(22.804548024432,3.02209530861598,-10.3));
#831=CARTESIAN_POINT('',(22.6825642791612,3.84644069355383,-9.95551982976358));
#832=CARTESIAN_POINT('',(22.6132704401641,4.2,-9.12492610721725));
#833=CARTESIAN_POINT('',(22.6132704401641,4.2,-8.7));
#834=CARTESIAN_POINT('',(0.,3.85185988877447E-31,0.));
#835=CARTESIAN_POINT('',(0.,3.85185988877447E-31,-16.5));
#836=CARTESIAN_POINT('',(-23.,3.85185988877447E-31,-16.5));
#837=CARTESIAN_POINT('',(0.,3.85185988877447E-31,-16.5));
#838=CARTESIAN_POINT('',(0.,3.85185988877447E-31,-20.2221825406948));
#839=CARTESIAN_POINT('',(26.7221825406948,3.85185988877447E-31,-20.2221825406948));
#840=CARTESIAN_POINT('',(0.,0.,-20.2221825406948));
#841=CARTESIAN_POINT('',(0.,0.,0.));
#842=MECHANICAL_DESIGN_GEOMETRIC_PRESENTATION_REPRESENTATION('',(#456,#457),
#843);
#843=(
GEOMETRIC_REPRESENTATION_CONTEXT(3)
GLOBAL_UNCERTAINTY_ASSIGNED_CONTEXT((#846))
GLOBAL_UNIT_ASSIGNED_CONTEXT((#851,#850,#849))
REPRESENTATION_CONTEXT('407 55.000','TOP_LEVEL_ASSEMBLY_PART')
);
#844=(
GEOMETRIC_REPRESENTATION_CONTEXT(3)
GLOBAL_UNCERTAINTY_ASSIGNED_CONTEXT((#847))
GLOBAL_UNIT_ASSIGNED_CONTEXT((#851,#850,#849))
REPRESENTATION_CONTEXT('407 55.000_PART1','COMPONENT_PART')
);
#845=(
GEOMETRIC_REPRESENTATION_CONTEXT(3)
GLOBAL_UNCERTAINTY_ASSIGNED_CONTEXT((#848))
GLOBAL_UNIT_ASSIGNED_CONTEXT((#851,#850,#849))
REPRESENTATION_CONTEXT('407 55.000_PART2','COMPONENT_PART')
);
#846=UNCERTAINTY_MEASURE_WITH_UNIT(LENGTH_MEASURE(1.E-5),#851,
'DISTANCE_ACCURACY_VALUE','Maximum Tolerance applied to model');
#847=UNCERTAINTY_MEASURE_WITH_UNIT(LENGTH_MEASURE(1.E-5),#851,
'DISTANCE_ACCURACY_VALUE','Maximum Tolerance applied to model');
#848=UNCERTAINTY_MEASURE_WITH_UNIT(LENGTH_MEASURE(1.E-5),#851,
'DISTANCE_ACCURACY_VALUE','Maximum Tolerance applied to model');
#849=(
NAMED_UNIT(*)
SI_UNIT($,.STERADIAN.)
SOLID_ANGLE_UNIT()
);
#850=(
NAMED_UNIT(*)
PLANE_ANGLE_UNIT()
SI_UNIT($,.RADIAN.)
);
#851=(
LENGTH_UNIT()
NAMED_UNIT(*)
SI_UNIT(.MILLI.,.METRE.)
);
#852=PRODUCT_DEFINITION_SHAPE('','',#857);
#853=PRODUCT_DEFINITION_SHAPE('','',#858);
#854=PRODUCT_DEFINITION_SHAPE(' ','NAUO PRDDFN',#88);
#855=PRODUCT_DEFINITION_SHAPE('','',#859);
#856=PRODUCT_DEFINITION_SHAPE(' ','NAUO PRDDFN',#89);
#857=PRODUCT_DEFINITION('','',#863,#860);
#858=PRODUCT_DEFINITION('','',#864,#861);
#859=PRODUCT_DEFINITION('','',#865,#862);
#860=PRODUCT_DEFINITION_CONTEXT('',#879,'design');
#861=PRODUCT_DEFINITION_CONTEXT('',#879,'design');
#862=PRODUCT_DEFINITION_CONTEXT('',#879,'design');
#863=PRODUCT_DEFINITION_FORMATION_WITH_SPECIFIED_SOURCE('','',#869,
 .NOT_KNOWN.);
#864=PRODUCT_DEFINITION_FORMATION_WITH_SPECIFIED_SOURCE('','',#870,
 .NOT_KNOWN.);
#865=PRODUCT_DEFINITION_FORMATION_WITH_SPECIFIED_SOURCE('','',#871,
 .NOT_KNOWN.);
#866=PRODUCT_RELATED_PRODUCT_CATEGORY('','',(#869));
#867=PRODUCT_RELATED_PRODUCT_CATEGORY('','',(#870));
#868=PRODUCT_RELATED_PRODUCT_CATEGORY('','',(#871));
#869=PRODUCT('407 55.000','407 55.000','407 55.000',(#875));
#870=PRODUCT('407 55.000_PART1','407 55.000_PART1','407 55.000_PART1',(#876));
#871=PRODUCT('407 55.000_PART2','407 55.000_PART2','407 55.000_PART2',(#877));
#872=PRODUCT_CATEGORY('','');
#873=PRODUCT_CATEGORY('','');
#874=PRODUCT_CATEGORY('','');
#875=PRODUCT_CONTEXT('',#879,'mechanical');
#876=PRODUCT_CONTEXT('',#879,'mechanical');
#877=PRODUCT_CONTEXT('',#879,'mechanical');
#878=APPLICATION_PROTOCOL_DEFINITION('international standard',
'automotive_design',2010,#879);
#879=APPLICATION_CONTEXT(
'core data for automotive mechanical design processes');
ENDSEC;
END-ISO-10303-21;
