ISO-10303-21;
HEADER;
/* Generated by software containing ST-Developer
 * from STEP Tools, Inc. (www.steptools.com) 
 */
/* OPTION: using custom renumber hook */

FILE_DESCRIPTION(
/* description */ ('STEP AP214'),
/* implementation_level */ '2;1');

FILE_NAME(
/* name */ '410 4.000',
/* time_stamp */ '2026-05-15T10:46:10+02:00',
/* author */ ('License CC BY-ND 4.0'),
/* organization */ ('CADENAS'),
/* preprocessor_version */ 'ST-DEVELOPER v20',
/* originating_system */ 'PARTsolutions',
/* authorisation */ '  ');

FILE_SCHEMA (('AUTOMOTIVE_DESIGN {1 0 10303 214 3 1 1}'));
ENDSEC;

DATA;
#10=PROPERTY_DEFINITION_REPRESENTATION(#14,#12);
#11=PROPERTY_DEFINITION_REPRESENTATION(#15,#13);
#12=REPRESENTATION('',(#16),#646);
#13=REPRESENTATION('',(#17),#646);
#14=PROPERTY_DEFINITION('pmi validation property','',#657);
#15=PROPERTY_DEFINITION('pmi validation property','',#657);
#16=VALUE_REPRESENTATION_ITEM('number of annotations',COUNT_MEASURE(0.));
#17=VALUE_REPRESENTATION_ITEM('number of views',COUNT_MEASURE(0.));
#18=CONTEXT_DEPENDENT_SHAPE_REPRESENTATION(#24,#659);
#19=CONTEXT_DEPENDENT_SHAPE_REPRESENTATION(#25,#661);
#20=CONTEXT_DEPENDENT_SHAPE_REPRESENTATION(#26,#663);
#21=NEXT_ASSEMBLY_USAGE_OCCURRENCE('NAUO1','410 4.000_PART1',
'410 4.000_PART1',#664,#665,'');
#22=NEXT_ASSEMBLY_USAGE_OCCURRENCE('NAUO2','410 4.000_PART2',
'410 4.000_PART2',#664,#666,'');
#23=NEXT_ASSEMBLY_USAGE_OCCURRENCE('NAUO3','410 4.000_PART3',
'410 4.000_PART3',#664,#667,'');
#24=(
REPRESENTATION_RELATIONSHIP(' ',' ',#373,#372)
REPRESENTATION_RELATIONSHIP_WITH_TRANSFORMATION(#27)
SHAPE_REPRESENTATION_RELATIONSHIP()
);
#25=(
REPRESENTATION_RELATIONSHIP(' ',' ',#374,#372)
REPRESENTATION_RELATIONSHIP_WITH_TRANSFORMATION(#28)
SHAPE_REPRESENTATION_RELATIONSHIP()
);
#26=(
REPRESENTATION_RELATIONSHIP(' ',' ',#375,#372)
REPRESENTATION_RELATIONSHIP_WITH_TRANSFORMATION(#29)
SHAPE_REPRESENTATION_RELATIONSHIP()
);
#27=ITEM_DEFINED_TRANSFORMATION(' ',' ',#376,#407);
#28=ITEM_DEFINED_TRANSFORMATION(' ',' ',#376,#413);
#29=ITEM_DEFINED_TRANSFORMATION(' ',' ',#376,#423);
#30=SHAPE_REPRESENTATION_RELATIONSHIP('','',#373,#33);
#31=SHAPE_REPRESENTATION_RELATIONSHIP('','',#374,#34);
#32=SHAPE_REPRESENTATION_RELATIONSHIP('','',#375,#35);
#33=ADVANCED_BREP_SHAPE_REPRESENTATION('',(#365),#647);
#34=ADVANCED_BREP_SHAPE_REPRESENTATION('',(#366),#648);
#35=ADVANCED_BREP_SHAPE_REPRESENTATION('',(#367),#649);
#36=TOROIDAL_SURFACE('',#397,2.2505,0.0005);
#37=CONICAL_SURFACE('',#385,2.5,1.04719755);
#38=CONICAL_SURFACE('',#393,1.95,0.0100012794);
#39=CONICAL_SURFACE('',#395,2.630001,1.04719755);
#40=CONICAL_SURFACE('',#401,2.25,0.7853981625);
#41=CONICAL_SURFACE('',#405,2.5,1.04719755);
#42=CONICAL_SURFACE('',#410,1.95,0.0100012794);
#43=CONICAL_SURFACE('',#414,1.9494666,0.2617993875);
#44=CONICAL_SURFACE('',#417,1.9497254,0.0274545719);
#45=CONICAL_SURFACE('',#422,1.95,0.0100012794);
#46=PLANE('',#383);
#47=PLANE('',#388);
#48=PLANE('',#390);
#49=PLANE('',#391);
#50=PLANE('',#403);
#51=PLANE('',#404);
#52=PLANE('',#406);
#53=PLANE('',#408);
#54=PLANE('',#412);
#55=PLANE('',#419);
#56=PLANE('',#421);
#57=CIRCLE('',#378,2.5);
#58=CIRCLE('',#379,2.5);
#59=CIRCLE('',#380,2.5);
#60=CIRCLE('',#381,2.5);
#61=CIRCLE('',#382,2.5);
#62=CIRCLE('',#386,2.1);
#63=CIRCLE('',#389,2.6291338);
#64=CIRCLE('',#392,2.1);
#65=CIRCLE('',#394,2.630001);
#66=CIRCLE('',#396,2.25025);
#67=CIRCLE('',#398,2.25);
#68=CIRCLE('',#400,2.25);
#69=CIRCLE('',#402,2.498);
#70=CIRCLE('',#409,2.6291338);
#71=CIRCLE('',#411,1.9508905);
#72=CIRCLE('',#415,1.9494666);
#73=CIRCLE('',#416,1.94972539782527);
#74=CIRCLE('',#418,1.94999999156802);
#75=CIRCLE('',#420,1.9508905);
#76=LINE('',#538,#86);
#77=LINE('',#542,#87);
#78=LINE('',#556,#88);
#79=LINE('',#560,#89);
#80=LINE('',#571,#90);
#81=LINE('',#573,#91);
#82=LINE('',#586,#92);
#83=LINE('',#587,#93);
#84=LINE('',#593,#94);
#85=LINE('',#597,#95);
#86=VECTOR('',#428,1000.);
#87=VECTOR('',#431,1000.);
#88=VECTOR('',#434,1000.);
#89=VECTOR('',#437,1000.);
#90=VECTOR('',#444,1000.);
#91=VECTOR('',#447,1000.);
#92=VECTOR('',#454,1000.);
#93=VECTOR('',#455,1000.);
#94=VECTOR('',#464,1000.);
#95=VECTOR('',#467,1000.);
#96=ORIENTED_EDGE('',*,*,#170,.F.);
#97=ORIENTED_EDGE('',*,*,#171,.T.);
#98=ORIENTED_EDGE('',*,*,#172,.T.);
#99=ORIENTED_EDGE('',*,*,#173,.F.);
#100=ORIENTED_EDGE('',*,*,#174,.T.);
#101=ORIENTED_EDGE('',*,*,#175,.F.);
#102=ORIENTED_EDGE('',*,*,#176,.T.);
#103=ORIENTED_EDGE('',*,*,#177,.F.);
#104=ORIENTED_EDGE('',*,*,#178,.T.);
#105=ORIENTED_EDGE('',*,*,#179,.T.);
#106=ORIENTED_EDGE('',*,*,#180,.F.);
#107=ORIENTED_EDGE('',*,*,#181,.T.);
#108=ORIENTED_EDGE('',*,*,#182,.T.);
#109=ORIENTED_EDGE('',*,*,#175,.T.);
#110=ORIENTED_EDGE('',*,*,#183,.T.);
#111=ORIENTED_EDGE('',*,*,#183,.F.);
#112=ORIENTED_EDGE('',*,*,#174,.F.);
#113=ORIENTED_EDGE('',*,*,#184,.T.);
#114=ORIENTED_EDGE('',*,*,#176,.F.);
#115=ORIENTED_EDGE('',*,*,#172,.F.);
#116=ORIENTED_EDGE('',*,*,#185,.T.);
#117=ORIENTED_EDGE('',*,*,#186,.F.);
#118=ORIENTED_EDGE('',*,*,#187,.F.);
#119=ORIENTED_EDGE('',*,*,#170,.T.);
#120=ORIENTED_EDGE('',*,*,#188,.T.);
#121=ORIENTED_EDGE('',*,*,#180,.T.);
#122=ORIENTED_EDGE('',*,*,#189,.F.);
#123=ORIENTED_EDGE('',*,*,#190,.F.);
#124=ORIENTED_EDGE('',*,*,#188,.F.);
#125=ORIENTED_EDGE('',*,*,#181,.F.);
#126=ORIENTED_EDGE('',*,*,#186,.T.);
#127=ORIENTED_EDGE('',*,*,#191,.T.);
#128=ORIENTED_EDGE('',*,*,#192,.T.);
#129=ORIENTED_EDGE('',*,*,#193,.F.);
#130=ORIENTED_EDGE('',*,*,#194,.F.);
#131=ORIENTED_EDGE('',*,*,#190,.T.);
#132=ORIENTED_EDGE('',*,*,#194,.T.);
#133=ORIENTED_EDGE('',*,*,#195,.F.);
#134=ORIENTED_EDGE('',*,*,#195,.T.);
#135=ORIENTED_EDGE('',*,*,#196,.F.);
#136=ORIENTED_EDGE('',*,*,#196,.T.);
#137=ORIENTED_EDGE('',*,*,#197,.F.);
#138=ORIENTED_EDGE('',*,*,#197,.T.);
#139=ORIENTED_EDGE('',*,*,#198,.F.);
#140=ORIENTED_EDGE('',*,*,#182,.F.);
#141=ORIENTED_EDGE('',*,*,#198,.T.);
#142=ORIENTED_EDGE('',*,*,#173,.T.);
#143=ORIENTED_EDGE('',*,*,#187,.T.);
#144=ORIENTED_EDGE('',*,*,#193,.T.);
#145=ORIENTED_EDGE('',*,*,#199,.T.);
#146=ORIENTED_EDGE('',*,*,#177,.T.);
#147=ORIENTED_EDGE('',*,*,#184,.F.);
#148=ORIENTED_EDGE('',*,*,#192,.F.);
#149=ORIENTED_EDGE('',*,*,#200,.T.);
#150=ORIENTED_EDGE('',*,*,#178,.F.);
#151=ORIENTED_EDGE('',*,*,#199,.F.);
#152=ORIENTED_EDGE('',*,*,#189,.T.);
#153=ORIENTED_EDGE('',*,*,#179,.F.);
#154=ORIENTED_EDGE('',*,*,#200,.F.);
#155=ORIENTED_EDGE('',*,*,#191,.F.);
#156=ORIENTED_EDGE('',*,*,#185,.F.);
#157=ORIENTED_EDGE('',*,*,#171,.F.);
#158=ORIENTED_EDGE('',*,*,#201,.T.);
#159=ORIENTED_EDGE('',*,*,#201,.F.);
#160=ORIENTED_EDGE('',*,*,#202,.T.);
#161=ORIENTED_EDGE('',*,*,#202,.F.);
#162=ORIENTED_EDGE('',*,*,#203,.T.);
#163=ORIENTED_EDGE('',*,*,#204,.F.);
#164=ORIENTED_EDGE('',*,*,#204,.T.);
#165=ORIENTED_EDGE('',*,*,#205,.F.);
#166=ORIENTED_EDGE('',*,*,#206,.T.);
#167=ORIENTED_EDGE('',*,*,#203,.F.);
#168=ORIENTED_EDGE('',*,*,#206,.F.);
#169=ORIENTED_EDGE('',*,*,#205,.T.);
#170=EDGE_CURVE('',#207,#208,#234,.T.);
#171=EDGE_CURVE('',#207,#209,#76,.T.);
#172=EDGE_CURVE('',#209,#210,#57,.T.);
#173=EDGE_CURVE('',#211,#210,#77,.T.);
#174=EDGE_CURVE('',#211,#212,#235,.T.);
#175=EDGE_CURVE('',#213,#212,#58,.T.);
#176=EDGE_CURVE('',#213,#214,#236,.T.);
#177=EDGE_CURVE('',#215,#214,#78,.T.);
#178=EDGE_CURVE('',#215,#216,#59,.T.);
#179=EDGE_CURVE('',#216,#217,#79,.T.);
#180=EDGE_CURVE('',#218,#217,#237,.T.);
#181=EDGE_CURVE('',#218,#208,#60,.T.);
#182=EDGE_CURVE('',#219,#219,#61,.T.);
#183=EDGE_CURVE('',#212,#213,#80,.T.);
#184=EDGE_CURVE('',#211,#214,#81,.T.);
#185=EDGE_CURVE('',#209,#220,#238,.T.);
#186=EDGE_CURVE('',#221,#220,#62,.T.);
#187=EDGE_CURVE('',#210,#221,#239,.T.);
#188=EDGE_CURVE('',#208,#218,#82,.T.);
#189=EDGE_CURVE('',#207,#217,#83,.T.);
#190=EDGE_CURVE('',#222,#222,#63,.T.);
#191=EDGE_CURVE('',#220,#223,#84,.T.);
#192=EDGE_CURVE('',#223,#224,#64,.T.);
#193=EDGE_CURVE('',#221,#224,#85,.T.);
#194=EDGE_CURVE('',#225,#225,#65,.T.);
#195=EDGE_CURVE('',#226,#226,#66,.T.);
#196=EDGE_CURVE('',#226,#226,#67,.T.);
#197=EDGE_CURVE('',#227,#227,#68,.T.);
#198=EDGE_CURVE('',#228,#228,#69,.T.);
#199=EDGE_CURVE('',#224,#215,#240,.T.);
#200=EDGE_CURVE('',#223,#216,#241,.T.);
#201=EDGE_CURVE('',#229,#229,#70,.T.);
#202=EDGE_CURVE('',#230,#230,#71,.T.);
#203=EDGE_CURVE('',#231,#231,#72,.T.);
#204=EDGE_CURVE('',#231,#231,#73,.T.);
#205=EDGE_CURVE('',#232,#232,#74,.T.);
#206=EDGE_CURVE('',#233,#233,#75,.T.);
#207=VERTEX_POINT('',#536);
#208=VERTEX_POINT('',#537);
#209=VERTEX_POINT('',#539);
#210=VERTEX_POINT('',#541);
#211=VERTEX_POINT('',#543);
#212=VERTEX_POINT('',#548);
#213=VERTEX_POINT('',#550);
#214=VERTEX_POINT('',#555);
#215=VERTEX_POINT('',#557);
#216=VERTEX_POINT('',#559);
#217=VERTEX_POINT('',#561);
#218=VERTEX_POINT('',#566);
#219=VERTEX_POINT('',#569);
#220=VERTEX_POINT('',#579);
#221=VERTEX_POINT('',#581);
#222=VERTEX_POINT('',#590);
#223=VERTEX_POINT('',#594);
#224=VERTEX_POINT('',#596);
#225=VERTEX_POINT('',#600);
#226=VERTEX_POINT('',#603);
#227=VERTEX_POINT('',#608);
#228=VERTEX_POINT('',#611);
#229=VERTEX_POINT('',#626);
#230=VERTEX_POINT('',#629);
#231=VERTEX_POINT('',#634);
#232=VERTEX_POINT('',#638);
#233=VERTEX_POINT('',#641);
#234=B_SPLINE_CURVE_WITH_KNOTS('',3,(#532,#533,#534,#535),.UNSPECIFIED.,
 .F.,.F.,(4,4),(1.54506385874287E-15,0.000345375120113443),
 .UNSPECIFIED.);
#235=B_SPLINE_CURVE_WITH_KNOTS('',3,(#544,#545,#546,#547),.UNSPECIFIED.,
 .F.,.F.,(4,4),(1.54506385874287E-15,0.000345375120109641),
 .UNSPECIFIED.);
#236=B_SPLINE_CURVE_WITH_KNOTS('',3,(#551,#552,#553,#554),.UNSPECIFIED.,
 .F.,.F.,(4,4),(6.92124865998264E-15,0.000344160478400524),
 .UNSPECIFIED.);
#237=B_SPLINE_CURVE_WITH_KNOTS('',3,(#562,#563,#564,#565),.UNSPECIFIED.,
 .F.,.F.,(4,4),(3.32412994840784E-15,0.00034416047840785),.UNSPECIFIED.);
#238=B_SPLINE_CURVE_WITH_KNOTS('',3,(#575,#576,#577,#578),.UNSPECIFIED.,
 .F.,.F.,(4,4),(1.25731685337531E-15,0.000530513393339885),
 .UNSPECIFIED.);
#239=B_SPLINE_CURVE_WITH_KNOTS('',2,(#582,#583,#584),.UNSPECIFIED.,.F.,
 .F.,(3,3),(0.,1.),.UNSPECIFIED.);
#240=B_SPLINE_CURVE_WITH_KNOTS('',2,(#614,#615,#616),.UNSPECIFIED.,.F.,
 .F.,(3,3),(0.,1.),.UNSPECIFIED.);
#241=B_SPLINE_CURVE_WITH_KNOTS('',3,(#618,#619,#620,#621),.UNSPECIFIED.,
 .F.,.F.,(4,4),(6.17948800046065E-13,0.000530513393337738),
 .UNSPECIFIED.);
#242=EDGE_LOOP('',(#96,#97,#98,#99,#100,#101,#102,#103,#104,#105,#106,#107));
#243=EDGE_LOOP('',(#108));
#244=EDGE_LOOP('',(#109,#110));
#245=EDGE_LOOP('',(#111,#112,#113,#114));
#246=EDGE_LOOP('',(#115,#116,#117,#118));
#247=EDGE_LOOP('',(#119,#120,#121,#122));
#248=EDGE_LOOP('',(#123));
#249=EDGE_LOOP('',(#124,#125));
#250=EDGE_LOOP('',(#126,#127,#128,#129));
#251=EDGE_LOOP('',(#130));
#252=EDGE_LOOP('',(#131));
#253=EDGE_LOOP('',(#132));
#254=EDGE_LOOP('',(#133));
#255=EDGE_LOOP('',(#134,#135));
#256=EDGE_LOOP('',(#136));
#257=EDGE_LOOP('',(#137));
#258=EDGE_LOOP('',(#138));
#259=EDGE_LOOP('',(#139));
#260=EDGE_LOOP('',(#140));
#261=EDGE_LOOP('',(#141));
#262=EDGE_LOOP('',(#142,#143,#144,#145,#146,#147));
#263=EDGE_LOOP('',(#148,#149,#150,#151));
#264=EDGE_LOOP('',(#152,#153,#154,#155,#156,#157));
#265=EDGE_LOOP('',(#158));
#266=EDGE_LOOP('',(#159));
#267=EDGE_LOOP('',(#160));
#268=EDGE_LOOP('',(#161));
#269=EDGE_LOOP('',(#162,#163));
#270=EDGE_LOOP('',(#164));
#271=EDGE_LOOP('',(#165));
#272=EDGE_LOOP('',(#166));
#273=EDGE_LOOP('',(#167));
#274=EDGE_LOOP('',(#168));
#275=EDGE_LOOP('',(#169));
#276=FACE_BOUND('',#242,.T.);
#277=FACE_BOUND('',#243,.T.);
#278=FACE_BOUND('',#244,.T.);
#279=FACE_BOUND('',#245,.T.);
#280=FACE_BOUND('',#246,.T.);
#281=FACE_BOUND('',#247,.T.);
#282=FACE_BOUND('',#248,.T.);
#283=FACE_BOUND('',#249,.T.);
#284=FACE_BOUND('',#250,.T.);
#285=FACE_BOUND('',#251,.T.);
#286=FACE_BOUND('',#252,.T.);
#287=FACE_BOUND('',#253,.T.);
#288=FACE_BOUND('',#254,.T.);
#289=FACE_BOUND('',#255,.T.);
#290=FACE_BOUND('',#256,.T.);
#291=FACE_BOUND('',#257,.T.);
#292=FACE_BOUND('',#258,.T.);
#293=FACE_BOUND('',#259,.T.);
#294=FACE_BOUND('',#260,.T.);
#295=FACE_BOUND('',#261,.T.);
#296=FACE_BOUND('',#262,.T.);
#297=FACE_BOUND('',#263,.T.);
#298=FACE_BOUND('',#264,.T.);
#299=FACE_BOUND('',#265,.T.);
#300=FACE_BOUND('',#266,.T.);
#301=FACE_BOUND('',#267,.T.);
#302=FACE_BOUND('',#268,.T.);
#303=FACE_BOUND('',#269,.T.);
#304=FACE_BOUND('',#270,.T.);
#305=FACE_BOUND('',#271,.T.);
#306=FACE_BOUND('',#272,.T.);
#307=FACE_BOUND('',#273,.T.);
#308=FACE_BOUND('',#274,.T.);
#309=FACE_BOUND('',#275,.T.);
#310=CYLINDRICAL_SURFACE('',#377,2.5);
#311=CYLINDRICAL_SURFACE('',#384,0.201);
#312=CYLINDRICAL_SURFACE('',#387,0.201);
#313=CYLINDRICAL_SURFACE('',#399,2.25);
#314=ADVANCED_FACE('',(#276,#277),#310,.T.);
#315=ADVANCED_FACE('',(#278),#46,.F.);
#316=ADVANCED_FACE('',(#279),#311,.F.);
#317=ADVANCED_FACE('',(#280),#37,.T.);
#318=ADVANCED_FACE('',(#281),#312,.F.);
#319=ADVANCED_FACE('',(#282),#47,.F.);
#320=ADVANCED_FACE('',(#283),#48,.F.);
#321=ADVANCED_FACE('',(#284),#49,.T.);
#322=ADVANCED_FACE('',(#285,#286),#38,.T.);
#323=ADVANCED_FACE('',(#287,#288),#39,.T.);
#324=ADVANCED_FACE('',(#289),#36,.F.);
#325=ADVANCED_FACE('',(#290,#291),#313,.T.);
#326=ADVANCED_FACE('',(#292,#293),#40,.T.);
#327=ADVANCED_FACE('',(#294,#295),#50,.T.);
#328=ADVANCED_FACE('',(#296),#51,.F.);
#329=ADVANCED_FACE('',(#297),#41,.T.);
#330=ADVANCED_FACE('',(#298),#52,.T.);
#331=ADVANCED_FACE('',(#299),#53,.T.);
#332=ADVANCED_FACE('',(#300,#301),#42,.T.);
#333=ADVANCED_FACE('',(#302),#54,.F.);
#334=ADVANCED_FACE('',(#303),#43,.T.);
#335=ADVANCED_FACE('',(#304,#305),#44,.T.);
#336=ADVANCED_FACE('',(#306),#55,.T.);
#337=ADVANCED_FACE('',(#307),#56,.F.);
#338=ADVANCED_FACE('',(#308,#309),#45,.T.);
#339=CLOSED_SHELL('',(#314,#315,#316,#317,#318,#319,#320,#321,#322,#323,
#324,#325,#326,#327,#328,#329,#330));
#340=CLOSED_SHELL('',(#331,#332,#333));
#341=CLOSED_SHELL('',(#334,#335,#336,#337,#338));
#342=STYLED_ITEM('',(#345),#365);
#343=STYLED_ITEM('',(#346),#366);
#344=STYLED_ITEM('',(#347),#367);
#345=PRESENTATION_STYLE_ASSIGNMENT((#348));
#346=PRESENTATION_STYLE_ASSIGNMENT((#349));
#347=PRESENTATION_STYLE_ASSIGNMENT((#350));
#348=SURFACE_STYLE_USAGE(.BOTH.,#351);
#349=SURFACE_STYLE_USAGE(.BOTH.,#352);
#350=SURFACE_STYLE_USAGE(.BOTH.,#353);
#351=SURFACE_SIDE_STYLE('',(#354));
#352=SURFACE_SIDE_STYLE('',(#355));
#353=SURFACE_SIDE_STYLE('',(#356));
#354=SURFACE_STYLE_FILL_AREA(#357);
#355=SURFACE_STYLE_FILL_AREA(#358);
#356=SURFACE_STYLE_FILL_AREA(#359);
#357=FILL_AREA_STYLE('',(#360));
#358=FILL_AREA_STYLE('',(#361));
#359=FILL_AREA_STYLE('',(#362));
#360=FILL_AREA_STYLE_COLOUR('',#363);
#361=FILL_AREA_STYLE_COLOUR('',#364);
#362=FILL_AREA_STYLE_COLOUR('',#363);
#363=COLOUR_RGB('',0.4999923706,0.4999923706,0.4999923706);
#364=COLOUR_RGB('',0.8000000119,0.8000000119,0.8000000119);
#365=MANIFOLD_SOLID_BREP('1',#339);
#366=MANIFOLD_SOLID_BREP('1',#340);
#367=MANIFOLD_SOLID_BREP('1',#341);
#368=SHAPE_DEFINITION_REPRESENTATION(#657,#372);
#369=SHAPE_DEFINITION_REPRESENTATION(#658,#373);
#370=SHAPE_DEFINITION_REPRESENTATION(#660,#374);
#371=SHAPE_DEFINITION_REPRESENTATION(#662,#375);
#372=SHAPE_REPRESENTATION('410 4.000',(#376,#407,#413,#423),#646);
#373=SHAPE_REPRESENTATION('410 4.000_PART1',(#376),#647);
#374=SHAPE_REPRESENTATION('410 4.000_PART2',(#376),#648);
#375=SHAPE_REPRESENTATION('410 4.000_PART3',(#376),#649);
#376=AXIS2_PLACEMENT_3D('',#530,#424,#425);
#377=AXIS2_PLACEMENT_3D('',#531,#426,#427);
#378=AXIS2_PLACEMENT_3D('',#540,#429,#430);
#379=AXIS2_PLACEMENT_3D('',#549,#432,#433);
#380=AXIS2_PLACEMENT_3D('',#558,#435,#436);
#381=AXIS2_PLACEMENT_3D('',#567,#438,#439);
#382=AXIS2_PLACEMENT_3D('',#568,#440,#441);
#383=AXIS2_PLACEMENT_3D('',#570,#442,#443);
#384=AXIS2_PLACEMENT_3D('',#572,#445,#446);
#385=AXIS2_PLACEMENT_3D('',#574,#448,#449);
#386=AXIS2_PLACEMENT_3D('',#580,#450,#451);
#387=AXIS2_PLACEMENT_3D('',#585,#452,#453);
#388=AXIS2_PLACEMENT_3D('',#588,#456,#457);
#389=AXIS2_PLACEMENT_3D('',#589,#458,#459);
#390=AXIS2_PLACEMENT_3D('',#591,#460,#461);
#391=AXIS2_PLACEMENT_3D('',#592,#462,#463);
#392=AXIS2_PLACEMENT_3D('',#595,#465,#466);
#393=AXIS2_PLACEMENT_3D('',#598,#468,#469);
#394=AXIS2_PLACEMENT_3D('',#599,#470,#471);
#395=AXIS2_PLACEMENT_3D('',#601,#472,#473);
#396=AXIS2_PLACEMENT_3D('',#602,#474,#475);
#397=AXIS2_PLACEMENT_3D('',#604,#476,#477);
#398=AXIS2_PLACEMENT_3D('',#605,#478,#479);
#399=AXIS2_PLACEMENT_3D('',#606,#480,#481);
#400=AXIS2_PLACEMENT_3D('',#607,#482,#483);
#401=AXIS2_PLACEMENT_3D('',#609,#484,#485);
#402=AXIS2_PLACEMENT_3D('',#610,#486,#487);
#403=AXIS2_PLACEMENT_3D('',#612,#488,#489);
#404=AXIS2_PLACEMENT_3D('',#613,#490,#491);
#405=AXIS2_PLACEMENT_3D('',#617,#492,#493);
#406=AXIS2_PLACEMENT_3D('',#622,#494,#495);
#407=AXIS2_PLACEMENT_3D('',#623,#496,#497);
#408=AXIS2_PLACEMENT_3D('',#624,#498,#499);
#409=AXIS2_PLACEMENT_3D('',#625,#500,#501);
#410=AXIS2_PLACEMENT_3D('',#627,#502,#503);
#411=AXIS2_PLACEMENT_3D('',#628,#504,#505);
#412=AXIS2_PLACEMENT_3D('',#630,#506,#507);
#413=AXIS2_PLACEMENT_3D('',#631,#508,#509);
#414=AXIS2_PLACEMENT_3D('',#632,#510,#511);
#415=AXIS2_PLACEMENT_3D('',#633,#512,#513);
#416=AXIS2_PLACEMENT_3D('',#635,#514,#515);
#417=AXIS2_PLACEMENT_3D('',#636,#516,#517);
#418=AXIS2_PLACEMENT_3D('',#637,#518,#519);
#419=AXIS2_PLACEMENT_3D('',#639,#520,#521);
#420=AXIS2_PLACEMENT_3D('',#640,#522,#523);
#421=AXIS2_PLACEMENT_3D('',#642,#524,#525);
#422=AXIS2_PLACEMENT_3D('',#643,#526,#527);
#423=AXIS2_PLACEMENT_3D('',#644,#528,#529);
#424=DIRECTION('',(0.,0.,1.));
#425=DIRECTION('',(1.,0.,0.));
#426=DIRECTION('',(0.,0.,1.));
#427=DIRECTION('',(-1.,0.,0.));
#428=DIRECTION('',(0.,0.,1.));
#429=DIRECTION('',(0.,0.,-1.));
#430=DIRECTION('',(1.,0.,0.));
#431=DIRECTION('',(0.,0.,1.));
#432=DIRECTION('',(0.,0.,1.));
#433=DIRECTION('',(-1.,0.,0.));
#434=DIRECTION('',(0.,0.,-1.));
#435=DIRECTION('',(0.,0.,-1.));
#436=DIRECTION('',(1.,0.,0.));
#437=DIRECTION('',(0.,0.,-1.));
#438=DIRECTION('',(0.,0.,-1.));
#439=DIRECTION('',(1.,0.,0.));
#440=DIRECTION('',(0.,0.,1.));
#441=DIRECTION('',(1.,0.,0.));
#442=DIRECTION('',(0.,0.,-1.));
#443=DIRECTION('',(0.,-1.,0.));
#444=DIRECTION('',(-1.,0.,0.));
#445=DIRECTION('',(1.,0.,0.));
#446=DIRECTION('',(0.,0.,1.));
#447=DIRECTION('',(-1.,0.,0.));
#448=DIRECTION('',(1.74861155077913E-17,0.,-1.));
#449=DIRECTION('',(-1.,0.,-1.74861155077913E-17));
#450=DIRECTION('',(0.,0.,1.));
#451=DIRECTION('',(1.,0.,0.));
#452=DIRECTION('',(1.,0.,0.));
#453=DIRECTION('',(0.,0.,1.));
#454=DIRECTION('',(-1.,0.,0.));
#455=DIRECTION('',(-1.,0.,0.));
#456=DIRECTION('',(0.,0.,1.));
#457=DIRECTION('',(1.,0.,0.));
#458=DIRECTION('',(0.,0.,1.));
#459=DIRECTION('',(1.,0.,0.));
#460=DIRECTION('',(0.,0.,-1.));
#461=DIRECTION('',(0.,-1.,0.));
#462=DIRECTION('',(0.,0.,1.));
#463=DIRECTION('',(1.,0.,0.));
#464=DIRECTION('',(-1.,0.,0.));
#465=DIRECTION('',(0.,0.,1.));
#466=DIRECTION('',(1.,0.,0.));
#467=DIRECTION('',(-1.,0.,0.));
#468=DIRECTION('',(0.,0.,1.));
#469=DIRECTION('',(0.,1.,0.));
#470=DIRECTION('',(0.,0.,1.));
#471=DIRECTION('',(0.,1.,0.));
#472=DIRECTION('',(0.,-8.00019677352765E-18,-1.));
#473=DIRECTION('',(0.,-1.,8.00019677352765E-18));
#474=DIRECTION('',(0.,0.,1.));
#475=DIRECTION('',(0.,1.,0.));
#476=DIRECTION('',(0.,0.,1.));
#477=DIRECTION('',(0.,1.,0.));
#478=DIRECTION('',(0.,0.,1.));
#479=DIRECTION('',(0.,1.,0.));
#480=DIRECTION('',(0.,-9.91270557701067E-19,-1.));
#481=DIRECTION('',(0.,1.,-9.91270557701067E-19));
#482=DIRECTION('',(0.,0.,1.));
#483=DIRECTION('',(0.,1.,0.));
#484=DIRECTION('',(0.,5.5386531535301E-17,1.));
#485=DIRECTION('',(0.,1.,-5.5386531535301E-17));
#486=DIRECTION('',(0.,0.,1.));
#487=DIRECTION('',(0.,1.,0.));
#488=DIRECTION('',(0.,0.,-1.));
#489=DIRECTION('',(0.,-1.,0.));
#490=DIRECTION('',(0.,1.,0.));
#491=DIRECTION('',(1.,0.,0.));
#492=DIRECTION('',(1.74861155077913E-17,0.,-1.));
#493=DIRECTION('',(-1.,0.,-1.74861155077913E-17));
#494=DIRECTION('',(0.,1.,0.));
#495=DIRECTION('',(1.,0.,0.));
#496=DIRECTION('',(0.,0.,1.));
#497=DIRECTION('',(1.,0.,0.));
#498=DIRECTION('',(0.,0.,1.));
#499=DIRECTION('',(1.,0.,0.));
#500=DIRECTION('',(0.,0.,1.));
#501=DIRECTION('',(1.,0.,0.));
#502=DIRECTION('',(0.,0.,1.));
#503=DIRECTION('',(0.,1.,0.));
#504=DIRECTION('',(0.,0.,1.));
#505=DIRECTION('',(1.,0.,0.));
#506=DIRECTION('',(0.,0.,1.));
#507=DIRECTION('',(1.,0.,0.));
#508=DIRECTION('',(0.,0.,1.));
#509=DIRECTION('',(1.,0.,0.));
#510=DIRECTION('',(0.,0.,1.));
#511=DIRECTION('',(0.,1.,0.));
#512=DIRECTION('',(0.,0.,1.));
#513=DIRECTION('',(0.,1.,0.));
#514=DIRECTION('',(0.,0.,1.));
#515=DIRECTION('',(1.,0.,0.));
#516=DIRECTION('',(0.,0.,1.));
#517=DIRECTION('',(0.,1.,0.));
#518=DIRECTION('',(0.,0.,1.));
#519=DIRECTION('',(1.,0.,0.));
#520=DIRECTION('',(0.,0.,1.));
#521=DIRECTION('',(1.,0.,0.));
#522=DIRECTION('',(0.,0.,1.));
#523=DIRECTION('',(1.,0.,0.));
#524=DIRECTION('',(0.,9.91270557701033E-19,1.));
#525=DIRECTION('',(1.,0.,0.));
#526=DIRECTION('',(0.,0.,1.));
#527=DIRECTION('',(0.,1.,0.));
#528=DIRECTION('',(0.,0.,1.));
#529=DIRECTION('',(1.,0.,0.));
#530=CARTESIAN_POINT('',(0.,0.,0.));
#531=CARTESIAN_POINT('',(0.,0.,0.));
#532=CARTESIAN_POINT('',(2.1650635094611,1.25,-2.2990000000075));
#533=CARTESIAN_POINT('',(2.16506350945858,1.25000000000436,-2.41588562623844));
#534=CARTESIAN_POINT('',(2.10337062239094,1.35623532715893,-2.50000000000281));
#535=CARTESIAN_POINT('',(2.03582882384122,1.45100000000595,-2.5));
#536=CARTESIAN_POINT('',(2.1650635094661,1.250000000005,-2.29900000000875));
#537=CARTESIAN_POINT('',(2.03582882383978,1.45100000000798,-2.500000000005));
#538=CARTESIAN_POINT('',(2.1650635094711,1.25000000001,1.00001891490182E-11));
#539=CARTESIAN_POINT('',(2.1650635094661,1.250000000005,-0.230940107684795));
#540=CARTESIAN_POINT('',(0.,0.,-0.230940107685851));
#541=CARTESIAN_POINT('',(2.16506350946777,-1.25000000000333,-0.230940107682518));
#542=CARTESIAN_POINT('',(2.1650635094711,-1.25000000001,1.00001891490182E-11));
#543=CARTESIAN_POINT('',(2.1650635094661,-1.250000000005,-2.29900000000875));
#544=CARTESIAN_POINT('',(2.1650635094611,-1.25,-2.2990000000075));
#545=CARTESIAN_POINT('',(2.16506350945858,-1.25000000000436,-2.41588562623715));
#546=CARTESIAN_POINT('',(2.10337062239418,-1.3562353271538,-2.5));
#547=CARTESIAN_POINT('',(2.03582882384546,-1.451,-2.5));
#548=CARTESIAN_POINT('',(2.0358288238419,-1.451000000005,-2.500000000005));
#549=CARTESIAN_POINT('',(0.,0.,-2.50000000001));
#550=CARTESIAN_POINT('',(-2.0358288238419,-1.451000000005,-2.500000000005));
#551=CARTESIAN_POINT('',(-2.03582882384546,-1.451,-2.5));
#552=CARTESIAN_POINT('',(-2.10347854470253,-1.35608390651557,-2.5));
#553=CARTESIAN_POINT('',(-2.16506350945857,-1.25000000000438,-2.41628083516771));
#554=CARTESIAN_POINT('',(-2.1650635094611,-1.25,-2.2990000000075));
#555=CARTESIAN_POINT('',(-2.1650635094661,-1.250000000005,-2.29900000000875));
#556=CARTESIAN_POINT('',(-2.1650635094711,-1.25000000001,1.00001891490182E-11));
#557=CARTESIAN_POINT('',(-2.16506350946777,-1.25000000000333,-0.230940107682518));
#558=CARTESIAN_POINT('',(0.,0.,-0.230940107685851));
#559=CARTESIAN_POINT('',(-2.1650635094661,1.250000000005,-0.230940107685851));
#560=CARTESIAN_POINT('',(-2.1650635094711,1.25000000001,1.00001891490182E-11));
#561=CARTESIAN_POINT('',(-2.1650635094661,1.250000000005,-2.29900000000875));
#562=CARTESIAN_POINT('',(-2.03582882384122,1.45100000000595,-2.5));
#563=CARTESIAN_POINT('',(-2.10347854470069,1.35608390651874,-2.50000000000281));
#564=CARTESIAN_POINT('',(-2.16506350945857,1.25000000000438,-2.4162808351714));
#565=CARTESIAN_POINT('',(-2.1650635094611,1.25,-2.2990000000075));
#566=CARTESIAN_POINT('',(-2.03582882383978,1.45100000000798,-2.500000000005));
#567=CARTESIAN_POINT('',(0.,0.,-2.50000000001));
#568=CARTESIAN_POINT('',(0.,0.,-34.00000000001));
#569=CARTESIAN_POINT('',(2.5,0.,-34.00000000001));
#570=CARTESIAN_POINT('',(3.5,-1.451,-2.5));
#571=CARTESIAN_POINT('',(3.50000000001,-1.45100000001,-2.50000000001));
#572=CARTESIAN_POINT('',(3.5,-1.451,-2.299));
#573=CARTESIAN_POINT('',(3.50000000001,-1.25000000001,-2.29900000001));
#574=CARTESIAN_POINT('',(0.,0.,-0.230940107675851));
#575=CARTESIAN_POINT('',(2.16506350946973,1.25,-0.230940107680169));
#576=CARTESIAN_POINT('',(2.00688106827272,1.25,-0.151848886863023));
#577=CARTESIAN_POINT('',(1.84788955520871,1.25,-0.074430916574976));
#578=CARTESIAN_POINT('',(1.68745370331684,1.25,5.23030503883396E-10));
#579=CARTESIAN_POINT('',(1.68745370318784,1.250000000005,2.6206585557977E-10));
#580=CARTESIAN_POINT('',(0.,0.,0.));
#581=CARTESIAN_POINT('',(1.68745370306702,-1.25000000000667,3.3501847129802E-12));
#582=CARTESIAN_POINT('',(2.1650635094711,-1.25,-0.230940107685852));
#583=CARTESIAN_POINT('',(1.90549296271634,-1.25,-0.101154834308471));
#584=CARTESIAN_POINT('',(1.68745370307865,-1.25,1.00505541389406E-11));
#585=CARTESIAN_POINT('',(3.5,1.451,-2.299));
#586=CARTESIAN_POINT('',(3.50000000001,1.45100000001,-2.50000000001));
#587=CARTESIAN_POINT('',(3.50000000001,1.25000000001,-2.29900000001));
#588=CARTESIAN_POINT('',(0.,0.,-44.0866025403785));
#589=CARTESIAN_POINT('',(1.00000673357472E-11,-1.00001110114323E-11,-44.0866025403885));
#590=CARTESIAN_POINT('',(2.62913380001,-1.00001110114323E-11,-44.0866025403885));
#591=CARTESIAN_POINT('',(3.5,-1.451,-2.5));
#592=CARTESIAN_POINT('',(0.,0.,0.));
#593=CARTESIAN_POINT('',(0.,1.25000000001,0.));
#594=CARTESIAN_POINT('',(-1.68745370374902,1.25000000001,0.));
#595=CARTESIAN_POINT('',(0.,0.,0.));
#596=CARTESIAN_POINT('',(-1.68745370306702,-1.25000000000667,3.3334157193791E-12));
#597=CARTESIAN_POINT('',(0.,-1.25000000001,0.));
#598=CARTESIAN_POINT('',(0.,-1.11011432263106E-16,-111.989034074174));
#599=CARTESIAN_POINT('',(0.,-1.00000436158054E-11,-43.99990000001));
#600=CARTESIAN_POINT('',(0.,2.63000099999,-43.99990000001));
#601=CARTESIAN_POINT('',(0.,-4.36158054117897E-17,-43.9999));
#602=CARTESIAN_POINT('',(0.,-1.000004339847E-11,-43.7806506578418));
#603=CARTESIAN_POINT('',(0.,2.25012499999,-43.7804341514909));
#604=CARTESIAN_POINT('',(0.,0.,-43.78021764513));
#605=CARTESIAN_POINT('',(0.,-1.00000433980408E-11,-43.78021764514));
#606=CARTESIAN_POINT('',(0.,0.,-2.7896521898052E-15));
#607=CARTESIAN_POINT('',(0.,-1.00000339490341E-11,-34.24800000001));
#608=CARTESIAN_POINT('',(0.,2.24999999999,-34.24800000001));
#609=CARTESIAN_POINT('',(0.,-3.3949034060145E-17,-34.248));
#610=CARTESIAN_POINT('',(0.,-1.0000033703199E-11,-34.00000000001));
#611=CARTESIAN_POINT('',(0.,2.49799999999,-34.00000000001));
#612=CARTESIAN_POINT('',(0.,0.,-34.));
#613=CARTESIAN_POINT('',(3.5,-1.25,2.));
#614=CARTESIAN_POINT('',(-1.68745370307862,-1.25,1.00002471581373E-11));
#615=CARTESIAN_POINT('',(-1.90549296271767,-1.25,-0.101154834309137));
#616=CARTESIAN_POINT('',(-2.1650635094711,-1.25,-0.230940107685851));
#617=CARTESIAN_POINT('',(0.,0.,-0.230940107675851));
#618=CARTESIAN_POINT('',(-1.6874537032768,1.24999999987836,4.42950709679587E-10));
#619=CARTESIAN_POINT('',(-1.84788955498033,1.24999999987836,-0.0744309165696165));
#620=CARTESIAN_POINT('',(-2.00688106845689,1.25,-0.151848886955105));
#621=CARTESIAN_POINT('',(-2.16506350946973,1.25,-0.230940107680168));
#622=CARTESIAN_POINT('',(3.5,1.25,2.));
#623=CARTESIAN_POINT('',(0.,0.,0.));
#624=CARTESIAN_POINT('',(0.,0.,-44.0866025403785));
#625=CARTESIAN_POINT('',(1.00000673357472E-11,-1.00001110114323E-11,-44.0866025403885));
#626=CARTESIAN_POINT('',(2.62913380001,-1.00001110114323E-11,-44.0866025403885));
#627=CARTESIAN_POINT('',(0.,-1.11011432263106E-16,-111.989034074174));
#628=CARTESIAN_POINT('',(1.00000001075986E-11,-1.00001110114323E-11,-111.90000000001));
#629=CARTESIAN_POINT('',(1.95089050001,-1.00001110114323E-11,-111.90000000001));
#630=CARTESIAN_POINT('',(0.,0.,-111.9));
#631=CARTESIAN_POINT('',(0.,0.,0.));
#632=CARTESIAN_POINT('',(0.,-1.11022302462516E-16,-112.));
#633=CARTESIAN_POINT('',(0.,-1.00001110223025E-11,-112.00000000001));
#634=CARTESIAN_POINT('',(0.,1.94959599999,-111.999517037097));
#635=CARTESIAN_POINT('',(0.,-1.11022302462516E-16,-111.999034153366));
#636=CARTESIAN_POINT('',(0.,-1.11021344968683E-16,-111.999034074174));
#637=CARTESIAN_POINT('',(0.,-1.11021344968683E-16,-111.989034917236));
#638=CARTESIAN_POINT('',(1.94999999156802,-1.11021344968683E-16,-111.989034917236));
#639=CARTESIAN_POINT('',(0.,0.,-111.9));
#640=CARTESIAN_POINT('',(1.00000001075986E-11,-1.00001110114323E-11,-111.90000000001));
#641=CARTESIAN_POINT('',(1.95089050001,-1.00001110114323E-11,-111.90000000001));
#642=CARTESIAN_POINT('',(0.,-1.11022302462516E-16,-112.));
#643=CARTESIAN_POINT('',(0.,-1.11011432263106E-16,-111.989034074174));
#644=CARTESIAN_POINT('',(0.,0.,0.));
#645=MECHANICAL_DESIGN_GEOMETRIC_PRESENTATION_REPRESENTATION('',(#342,#343,
#344),#646);
#646=(
GEOMETRIC_REPRESENTATION_CONTEXT(3)
GLOBAL_UNCERTAINTY_ASSIGNED_CONTEXT((#650))
GLOBAL_UNIT_ASSIGNED_CONTEXT((#656,#655,#654))
REPRESENTATION_CONTEXT('410 4.000','TOP_LEVEL_ASSEMBLY_PART')
);
#647=(
GEOMETRIC_REPRESENTATION_CONTEXT(3)
GLOBAL_UNCERTAINTY_ASSIGNED_CONTEXT((#651))
GLOBAL_UNIT_ASSIGNED_CONTEXT((#656,#655,#654))
REPRESENTATION_CONTEXT('410 4.000_PART1','COMPONENT_PART')
);
#648=(
GEOMETRIC_REPRESENTATION_CONTEXT(3)
GLOBAL_UNCERTAINTY_ASSIGNED_CONTEXT((#652))
GLOBAL_UNIT_ASSIGNED_CONTEXT((#656,#655,#654))
REPRESENTATION_CONTEXT('410 4.000_PART2','COMPONENT_PART')
);
#649=(
GEOMETRIC_REPRESENTATION_CONTEXT(3)
GLOBAL_UNCERTAINTY_ASSIGNED_CONTEXT((#653))
GLOBAL_UNIT_ASSIGNED_CONTEXT((#656,#655,#654))
REPRESENTATION_CONTEXT('410 4.000_PART3','COMPONENT_PART')
);
#650=UNCERTAINTY_MEASURE_WITH_UNIT(LENGTH_MEASURE(1.E-5),#656,
'DISTANCE_ACCURACY_VALUE','Maximum Tolerance applied to model');
#651=UNCERTAINTY_MEASURE_WITH_UNIT(LENGTH_MEASURE(1.E-5),#656,
'DISTANCE_ACCURACY_VALUE','Maximum Tolerance applied to model');
#652=UNCERTAINTY_MEASURE_WITH_UNIT(LENGTH_MEASURE(1.E-5),#656,
'DISTANCE_ACCURACY_VALUE','Maximum Tolerance applied to model');
#653=UNCERTAINTY_MEASURE_WITH_UNIT(LENGTH_MEASURE(1.E-5),#656,
'DISTANCE_ACCURACY_VALUE','Maximum Tolerance applied to model');
#654=(
NAMED_UNIT(*)
SI_UNIT($,.STERADIAN.)
SOLID_ANGLE_UNIT()
);
#655=(
NAMED_UNIT(*)
PLANE_ANGLE_UNIT()
SI_UNIT($,.RADIAN.)
);
#656=(
LENGTH_UNIT()
NAMED_UNIT(*)
SI_UNIT(.MILLI.,.METRE.)
);
#657=PRODUCT_DEFINITION_SHAPE('','',#664);
#658=PRODUCT_DEFINITION_SHAPE('','',#665);
#659=PRODUCT_DEFINITION_SHAPE(' ','NAUO PRDDFN',#21);
#660=PRODUCT_DEFINITION_SHAPE('','',#666);
#661=PRODUCT_DEFINITION_SHAPE(' ','NAUO PRDDFN',#22);
#662=PRODUCT_DEFINITION_SHAPE('','',#667);
#663=PRODUCT_DEFINITION_SHAPE(' ','NAUO PRDDFN',#23);
#664=PRODUCT_DEFINITION('','',#672,#668);
#665=PRODUCT_DEFINITION('','',#673,#669);
#666=PRODUCT_DEFINITION('','',#674,#670);
#667=PRODUCT_DEFINITION('','',#675,#671);
#668=PRODUCT_DEFINITION_CONTEXT('',#693,'design');
#669=PRODUCT_DEFINITION_CONTEXT('',#693,'design');
#670=PRODUCT_DEFINITION_CONTEXT('',#693,'design');
#671=PRODUCT_DEFINITION_CONTEXT('',#693,'design');
#672=PRODUCT_DEFINITION_FORMATION_WITH_SPECIFIED_SOURCE('','',#680,
 .NOT_KNOWN.);
#673=PRODUCT_DEFINITION_FORMATION_WITH_SPECIFIED_SOURCE('','',#681,
 .NOT_KNOWN.);
#674=PRODUCT_DEFINITION_FORMATION_WITH_SPECIFIED_SOURCE('','',#682,
 .NOT_KNOWN.);
#675=PRODUCT_DEFINITION_FORMATION_WITH_SPECIFIED_SOURCE('','',#683,
 .NOT_KNOWN.);
#676=PRODUCT_RELATED_PRODUCT_CATEGORY('','',(#680));
#677=PRODUCT_RELATED_PRODUCT_CATEGORY('','',(#681));
#678=PRODUCT_RELATED_PRODUCT_CATEGORY('','',(#682));
#679=PRODUCT_RELATED_PRODUCT_CATEGORY('','',(#683));
#680=PRODUCT('410 4.000','410 4.000','410 4.000',(#688));
#681=PRODUCT('410 4.000_PART1','410 4.000_PART1','410 4.000_PART1',(#689));
#682=PRODUCT('410 4.000_PART2','410 4.000_PART2','410 4.000_PART2',(#690));
#683=PRODUCT('410 4.000_PART3','410 4.000_PART3','410 4.000_PART3',(#691));
#684=PRODUCT_CATEGORY('','');
#685=PRODUCT_CATEGORY('','');
#686=PRODUCT_CATEGORY('','');
#687=PRODUCT_CATEGORY('','');
#688=PRODUCT_CONTEXT('',#693,'mechanical');
#689=PRODUCT_CONTEXT('',#693,'mechanical');
#690=PRODUCT_CONTEXT('',#693,'mechanical');
#691=PRODUCT_CONTEXT('',#693,'mechanical');
#692=APPLICATION_PROTOCOL_DEFINITION('international standard',
'automotive_design',2010,#693);
#693=APPLICATION_CONTEXT(
'core data for automotive mechanical design processes');
ENDSEC;
END-ISO-10303-21;
