ISO-10303-21;
HEADER;
/* Generated by software containing ST-Developer
 * from STEP Tools, Inc. (www.steptools.com) 
 */
/* OPTION: using custom renumber hook */

FILE_DESCRIPTION(
/* description */ ('STEP AP214'),
/* implementation_level */ '2;1');

FILE_NAME(
/* name */ '411 13.000',
/* time_stamp */ '2026-05-15T10:46:35+02:00',
/* author */ ('License CC BY-ND 4.0'),
/* organization */ ('CADENAS'),
/* preprocessor_version */ 'ST-DEVELOPER v20',
/* originating_system */ 'PARTsolutions',
/* authorisation */ '  ');

FILE_SCHEMA (('AUTOMOTIVE_DESIGN {1 0 10303 214 3 1 1}'));
ENDSEC;

DATA;
#10=PROPERTY_DEFINITION_REPRESENTATION(#14,#12);
#11=PROPERTY_DEFINITION_REPRESENTATION(#15,#13);
#12=REPRESENTATION('',(#16),#770);
#13=REPRESENTATION('',(#17),#770);
#14=PROPERTY_DEFINITION('pmi validation property','',#781);
#15=PROPERTY_DEFINITION('pmi validation property','',#781);
#16=VALUE_REPRESENTATION_ITEM('number of annotations',COUNT_MEASURE(0.));
#17=VALUE_REPRESENTATION_ITEM('number of views',COUNT_MEASURE(0.));
#18=CONTEXT_DEPENDENT_SHAPE_REPRESENTATION(#24,#783);
#19=CONTEXT_DEPENDENT_SHAPE_REPRESENTATION(#25,#785);
#20=CONTEXT_DEPENDENT_SHAPE_REPRESENTATION(#26,#787);
#21=NEXT_ASSEMBLY_USAGE_OCCURRENCE('NAUO1','411 13.000_PART1',
'411 13.000_PART1',#788,#789,'');
#22=NEXT_ASSEMBLY_USAGE_OCCURRENCE('NAUO2','411 13.000_PART2',
'411 13.000_PART2',#788,#790,'');
#23=NEXT_ASSEMBLY_USAGE_OCCURRENCE('NAUO3','411 13.000_PART3',
'411 13.000_PART3',#788,#791,'');
#24=(
REPRESENTATION_RELATIONSHIP(' ',' ',#425,#424)
REPRESENTATION_RELATIONSHIP_WITH_TRANSFORMATION(#27)
SHAPE_REPRESENTATION_RELATIONSHIP()
);
#25=(
REPRESENTATION_RELATIONSHIP(' ',' ',#426,#424)
REPRESENTATION_RELATIONSHIP_WITH_TRANSFORMATION(#28)
SHAPE_REPRESENTATION_RELATIONSHIP()
);
#26=(
REPRESENTATION_RELATIONSHIP(' ',' ',#427,#424)
REPRESENTATION_RELATIONSHIP_WITH_TRANSFORMATION(#29)
SHAPE_REPRESENTATION_RELATIONSHIP()
);
#27=ITEM_DEFINED_TRANSFORMATION(' ',' ',#428,#471);
#28=ITEM_DEFINED_TRANSFORMATION(' ',' ',#428,#477);
#29=ITEM_DEFINED_TRANSFORMATION(' ',' ',#428,#487);
#30=SHAPE_REPRESENTATION_RELATIONSHIP('','',#425,#33);
#31=SHAPE_REPRESENTATION_RELATIONSHIP('','',#426,#34);
#32=SHAPE_REPRESENTATION_RELATIONSHIP('','',#427,#35);
#33=ADVANCED_BREP_SHAPE_REPRESENTATION('',(#417),#771);
#34=ADVANCED_BREP_SHAPE_REPRESENTATION('',(#418),#772);
#35=ADVANCED_BREP_SHAPE_REPRESENTATION('',(#419),#773);
#36=CYLINDRICAL_SURFACE('',#441,6.75);
#37=CYLINDRICAL_SURFACE('',#447,6.75);
#38=CYLINDRICAL_SURFACE('',#454,7.5);
#39=CYLINDRICAL_SURFACE('',#458,7.5);
#40=CYLINDRICAL_SURFACE('',#468,6.);
#41=CYLINDRICAL_SURFACE('',#469,6.);
#42=B_SPLINE_CURVE_WITH_KNOTS('',3,(#632,#633,#634,#635,#636),
 .UNSPECIFIED.,.F.,.F.,(4,1,4),(2.26747659976243E-11,0.00122862894597562,
0.00245725786927648),.UNSPECIFIED.);
#43=B_SPLINE_CURVE_WITH_KNOTS('',3,(#638,#639,#640,#641,#642),
 .UNSPECIFIED.,.F.,.F.,(4,1,4),(0.,0.00435610633839927,0.00871221267679853),
 .UNSPECIFIED.);
#44=B_SPLINE_CURVE_WITH_KNOTS('',3,(#644,#645,#646,#647,#648),
 .UNSPECIFIED.,.F.,.F.,(4,1,4),(4.05733325668574E-15,0.00123374035051794,
0.00246748070103183),.UNSPECIFIED.);
#45=B_SPLINE_CURVE_WITH_KNOTS('',3,(#657,#658,#659,#660,#661,#662,#663),
 .UNSPECIFIED.,.F.,.F.,(4,1,1,1,4),(6.97274302659404E-15,0.00256571183818224,
0.0051314236763575,0.00769713551453276,0.010262847352708),.UNSPECIFIED.);
#46=B_SPLINE_CURVE_WITH_KNOTS('',3,(#667,#668,#669,#670,#671,#672,#673),
 .UNSPECIFIED.,.F.,.F.,(4,1,1,1,4),(6.97274773346372E-15,0.00256571183818239,
0.0051314236763578,0.00769713551453322,0.0102628473527086),
 .UNSPECIFIED.);
#47=B_SPLINE_CURVE_WITH_KNOTS('',3,(#683,#684,#685,#686,#687),
 .UNSPECIFIED.,.F.,.F.,(4,1,4),(9.84677000068208E-15,0.00123374035052084,
0.00246748070103183),.UNSPECIFIED.);
#48=B_SPLINE_CURVE_WITH_KNOTS('',3,(#689,#690,#691,#692,#693,#694,#695),
 .UNSPECIFIED.,.F.,.F.,(4,1,1,1,4),(3.69983476503289E-15,0.00256794576690585,
0.005135891533808,0.00770383730071015,0.0102717830676123),.UNSPECIFIED.);
#49=B_SPLINE_CURVE_WITH_KNOTS('',3,(#698,#699,#700,#701,#702,#703,#704),
 .UNSPECIFIED.,.F.,.F.,(4,1,1,1,4),(4.62826434052431E-15,0.00256794576690655,
0.00513589153380846,0.00770383730071038,0.0102717830676123),
 .UNSPECIFIED.);
#50=B_SPLINE_CURVE_WITH_KNOTS('',3,(#726,#727,#728,#729,#730),
 .UNSPECIFIED.,.F.,.F.,(4,1,4),(0.,0.00435610633839927,0.00871221267679853),
 .UNSPECIFIED.);
#51=B_SPLINE_CURVE_WITH_KNOTS('',3,(#732,#733,#734,#735,#736),
 .UNSPECIFIED.,.F.,.F.,(4,1,4),(8.08054475035903E-13,0.00122862893504183,
0.0024572578692756),.UNSPECIFIED.);
#52=LINE('',#627,#58);
#53=LINE('',#630,#59);
#54=LINE('',#650,#60);
#55=LINE('',#675,#61);
#56=LINE('',#696,#62);
#57=LINE('',#737,#63);
#58=VECTOR('',#508,1000.);
#59=VECTOR('',#509,1000.);
#60=VECTOR('',#510,1000.);
#61=VECTOR('',#521,1000.);
#62=VECTOR('',#532,1000.);
#63=VECTOR('',#563,1000.);
#64=PLANE('',#436);
#65=PLANE('',#437);
#66=PLANE('',#450);
#67=PLANE('',#462);
#68=PLANE('',#463);
#69=PLANE('',#472);
#70=PLANE('',#476);
#71=PLANE('',#481);
#72=PLANE('',#484);
#73=CONICAL_SURFACE('',#432,6.4,0.0100002319);
#74=CONICAL_SURFACE('',#435,8.340001,1.3089969375);
#75=CONICAL_SURFACE('',#438,9.0148655,0.0249679045);
#76=CONICAL_SURFACE('',#449,7.4165874,0.7853981625);
#77=CONICAL_SURFACE('',#452,7.5,0.523598775);
#78=CONICAL_SURFACE('',#456,8.3905381,0.7853981625);
#79=CONICAL_SURFACE('',#460,7.5,1.04719755);
#80=CONICAL_SURFACE('',#465,9.0148655,0.0249679045);
#81=CONICAL_SURFACE('',#470,0.15,1.431169985);
#82=CONICAL_SURFACE('',#474,6.4,0.0100002319);
#83=CONICAL_SURFACE('',#478,6.3997254,0.0274535244);
#84=CONICAL_SURFACE('',#483,6.4,0.0100002319);
#85=CONICAL_SURFACE('',#486,6.3994666,0.2617993875);
#86=ORIENTED_EDGE('',*,*,#168,.T.);
#87=ORIENTED_EDGE('',*,*,#169,.F.);
#88=ORIENTED_EDGE('',*,*,#170,.F.);
#89=ORIENTED_EDGE('',*,*,#171,.T.);
#90=ORIENTED_EDGE('',*,*,#170,.T.);
#91=ORIENTED_EDGE('',*,*,#168,.F.);
#92=ORIENTED_EDGE('',*,*,#171,.F.);
#93=ORIENTED_EDGE('',*,*,#172,.T.);
#94=ORIENTED_EDGE('',*,*,#173,.F.);
#95=ORIENTED_EDGE('',*,*,#174,.F.);
#96=ORIENTED_EDGE('',*,*,#175,.T.);
#97=ORIENTED_EDGE('',*,*,#176,.F.);
#98=ORIENTED_EDGE('',*,*,#177,.F.);
#99=ORIENTED_EDGE('',*,*,#178,.T.);
#100=ORIENTED_EDGE('',*,*,#179,.F.);
#101=ORIENTED_EDGE('',*,*,#180,.F.);
#102=ORIENTED_EDGE('',*,*,#181,.T.);
#103=ORIENTED_EDGE('',*,*,#182,.T.);
#104=ORIENTED_EDGE('',*,*,#183,.F.);
#105=ORIENTED_EDGE('',*,*,#184,.F.);
#106=ORIENTED_EDGE('',*,*,#173,.T.);
#107=ORIENTED_EDGE('',*,*,#185,.T.);
#108=ORIENTED_EDGE('',*,*,#176,.T.);
#109=ORIENTED_EDGE('',*,*,#186,.F.);
#110=ORIENTED_EDGE('',*,*,#187,.F.);
#111=ORIENTED_EDGE('',*,*,#188,.F.);
#112=ORIENTED_EDGE('',*,*,#177,.T.);
#113=ORIENTED_EDGE('',*,*,#185,.F.);
#114=ORIENTED_EDGE('',*,*,#189,.F.);
#115=ORIENTED_EDGE('',*,*,#190,.T.);
#116=ORIENTED_EDGE('',*,*,#191,.T.);
#117=ORIENTED_EDGE('',*,*,#179,.T.);
#118=ORIENTED_EDGE('',*,*,#191,.F.);
#119=ORIENTED_EDGE('',*,*,#181,.F.);
#120=ORIENTED_EDGE('',*,*,#192,.T.);
#121=ORIENTED_EDGE('',*,*,#193,.T.);
#122=ORIENTED_EDGE('',*,*,#178,.F.);
#123=ORIENTED_EDGE('',*,*,#194,.T.);
#124=ORIENTED_EDGE('',*,*,#193,.F.);
#125=ORIENTED_EDGE('',*,*,#195,.T.);
#126=ORIENTED_EDGE('',*,*,#194,.F.);
#127=ORIENTED_EDGE('',*,*,#169,.T.);
#128=ORIENTED_EDGE('',*,*,#196,.F.);
#129=ORIENTED_EDGE('',*,*,#196,.T.);
#130=ORIENTED_EDGE('',*,*,#197,.F.);
#131=ORIENTED_EDGE('',*,*,#189,.T.);
#132=ORIENTED_EDGE('',*,*,#187,.T.);
#133=ORIENTED_EDGE('',*,*,#198,.F.);
#134=ORIENTED_EDGE('',*,*,#199,.T.);
#135=ORIENTED_EDGE('',*,*,#183,.T.);
#136=ORIENTED_EDGE('',*,*,#200,.F.);
#137=ORIENTED_EDGE('',*,*,#201,.F.);
#138=ORIENTED_EDGE('',*,*,#197,.T.);
#139=ORIENTED_EDGE('',*,*,#201,.T.);
#140=ORIENTED_EDGE('',*,*,#195,.F.);
#141=ORIENTED_EDGE('',*,*,#202,.F.);
#142=ORIENTED_EDGE('',*,*,#174,.T.);
#143=ORIENTED_EDGE('',*,*,#184,.T.);
#144=ORIENTED_EDGE('',*,*,#199,.F.);
#145=ORIENTED_EDGE('',*,*,#200,.T.);
#146=ORIENTED_EDGE('',*,*,#182,.F.);
#147=ORIENTED_EDGE('',*,*,#190,.F.);
#148=ORIENTED_EDGE('',*,*,#188,.T.);
#149=ORIENTED_EDGE('',*,*,#180,.T.);
#150=ORIENTED_EDGE('',*,*,#172,.F.);
#151=ORIENTED_EDGE('',*,*,#192,.F.);
#152=ORIENTED_EDGE('',*,*,#175,.F.);
#153=ORIENTED_EDGE('',*,*,#202,.T.);
#154=ORIENTED_EDGE('',*,*,#198,.T.);
#155=ORIENTED_EDGE('',*,*,#186,.T.);
#156=ORIENTED_EDGE('',*,*,#203,.T.);
#157=ORIENTED_EDGE('',*,*,#203,.F.);
#158=ORIENTED_EDGE('',*,*,#204,.T.);
#159=ORIENTED_EDGE('',*,*,#204,.F.);
#160=ORIENTED_EDGE('',*,*,#205,.T.);
#161=ORIENTED_EDGE('',*,*,#206,.F.);
#162=ORIENTED_EDGE('',*,*,#207,.T.);
#163=ORIENTED_EDGE('',*,*,#207,.F.);
#164=ORIENTED_EDGE('',*,*,#206,.T.);
#165=ORIENTED_EDGE('',*,*,#208,.F.);
#166=ORIENTED_EDGE('',*,*,#208,.T.);
#167=ORIENTED_EDGE('',*,*,#205,.F.);
#168=EDGE_CURVE('',#209,#209,#240,.T.);
#169=EDGE_CURVE('',#209,#209,#241,.T.);
#170=EDGE_CURVE('',#210,#210,#242,.T.);
#171=EDGE_CURVE('',#211,#211,#243,.T.);
#172=EDGE_CURVE('',#212,#213,#52,.T.);
#173=EDGE_CURVE('',#214,#213,#53,.T.);
#174=EDGE_CURVE('',#215,#214,#42,.T.);
#175=EDGE_CURVE('',#215,#216,#43,.T.);
#176=EDGE_CURVE('',#217,#216,#44,.T.);
#177=EDGE_CURVE('',#212,#217,#54,.T.);
#178=EDGE_CURVE('',#218,#218,#244,.T.);
#179=EDGE_CURVE('',#219,#219,#245,.T.);
#180=EDGE_CURVE('',#220,#213,#45,.T.);
#181=EDGE_CURVE('',#220,#221,#246,.T.);
#182=EDGE_CURVE('',#221,#222,#46,.T.);
#183=EDGE_CURVE('',#223,#222,#55,.T.);
#184=EDGE_CURVE('',#214,#223,#247,.T.);
#185=EDGE_CURVE('',#224,#217,#248,.T.);
#186=EDGE_CURVE('',#225,#216,#249,.T.);
#187=EDGE_CURVE('',#224,#225,#47,.T.);
#188=EDGE_CURVE('',#212,#220,#48,.T.);
#189=EDGE_CURVE('',#226,#224,#56,.T.);
#190=EDGE_CURVE('',#226,#221,#49,.T.);
#191=EDGE_CURVE('',#221,#220,#250,.T.);
#192=EDGE_CURVE('',#227,#227,#251,.T.);
#193=EDGE_CURVE('',#228,#228,#252,.T.);
#194=EDGE_CURVE('',#229,#229,#253,.T.);
#195=EDGE_CURVE('',#230,#230,#254,.T.);
#196=EDGE_CURVE('',#231,#231,#255,.T.);
#197=EDGE_CURVE('',#232,#232,#256,.T.);
#198=EDGE_CURVE('',#233,#225,#50,.T.);
#199=EDGE_CURVE('',#233,#223,#51,.T.);
#200=EDGE_CURVE('',#226,#222,#57,.T.);
#201=EDGE_CURVE('',#234,#234,#257,.T.);
#202=EDGE_CURVE('',#215,#233,#258,.T.);
#203=EDGE_CURVE('',#235,#235,#259,.T.);
#204=EDGE_CURVE('',#236,#236,#260,.T.);
#205=EDGE_CURVE('',#237,#237,#261,.T.);
#206=EDGE_CURVE('',#238,#238,#262,.T.);
#207=EDGE_CURVE('',#239,#239,#263,.T.);
#208=EDGE_CURVE('',#237,#237,#264,.T.);
#209=VERTEX_POINT('',#617);
#210=VERTEX_POINT('',#621);
#211=VERTEX_POINT('',#623);
#212=VERTEX_POINT('',#628);
#213=VERTEX_POINT('',#629);
#214=VERTEX_POINT('',#631);
#215=VERTEX_POINT('',#637);
#216=VERTEX_POINT('',#643);
#217=VERTEX_POINT('',#649);
#218=VERTEX_POINT('',#653);
#219=VERTEX_POINT('',#655);
#220=VERTEX_POINT('',#664);
#221=VERTEX_POINT('',#666);
#222=VERTEX_POINT('',#674);
#223=VERTEX_POINT('',#676);
#224=VERTEX_POINT('',#680);
#225=VERTEX_POINT('',#682);
#226=VERTEX_POINT('',#697);
#227=VERTEX_POINT('',#709);
#228=VERTEX_POINT('',#712);
#229=VERTEX_POINT('',#715);
#230=VERTEX_POINT('',#718);
#231=VERTEX_POINT('',#721);
#232=VERTEX_POINT('',#724);
#233=VERTEX_POINT('',#731);
#234=VERTEX_POINT('',#740);
#235=VERTEX_POINT('',#750);
#236=VERTEX_POINT('',#753);
#237=VERTEX_POINT('',#758);
#238=VERTEX_POINT('',#760);
#239=VERTEX_POINT('',#763);
#240=CIRCLE('',#430,7.5003706);
#241=CIRCLE('',#431,7.5);
#242=CIRCLE('',#433,8.340001);
#243=CIRCLE('',#434,8.3026774);
#244=CIRCLE('',#439,8.04091482899076);
#245=CIRCLE('',#440,7.41658748001677);
#246=CIRCLE('',#442,6.75);
#247=CIRCLE('',#443,6.75);
#248=CIRCLE('',#445,6.75);
#249=CIRCLE('',#446,5.372677);
#250=CIRCLE('',#448,6.75);
#251=CIRCLE('',#451,0.15);
#252=CIRCLE('',#453,7.5);
#253=CIRCLE('',#455,7.5);
#254=CIRCLE('',#457,8.39053814888427);
#255=CIRCLE('',#459,7.5);
#256=CIRCLE('',#461,8.998);
#257=CIRCLE('',#464,9.0148655);
#258=CIRCLE('',#467,5.372677);
#259=CIRCLE('',#473,8.3026774);
#260=CIRCLE('',#475,6.4008904);
#261=CIRCLE('',#479,6.39972539782536);
#262=CIRCLE('',#480,6.4);
#263=CIRCLE('',#482,6.4008904);
#264=CIRCLE('',#485,6.3994666);
#265=EDGE_LOOP('',(#86,#87));
#266=EDGE_LOOP('',(#88));
#267=EDGE_LOOP('',(#89));
#268=EDGE_LOOP('',(#90));
#269=EDGE_LOOP('',(#91));
#270=EDGE_LOOP('',(#92));
#271=EDGE_LOOP('',(#93,#94,#95,#96,#97,#98));
#272=EDGE_LOOP('',(#99));
#273=EDGE_LOOP('',(#100));
#274=EDGE_LOOP('',(#101,#102,#103,#104,#105,#106));
#275=EDGE_LOOP('',(#107,#108,#109,#110));
#276=EDGE_LOOP('',(#111,#112,#113,#114,#115,#116));
#277=EDGE_LOOP('',(#117));
#278=EDGE_LOOP('',(#118,#119));
#279=EDGE_LOOP('',(#120));
#280=EDGE_LOOP('',(#121));
#281=EDGE_LOOP('',(#122));
#282=EDGE_LOOP('',(#123));
#283=EDGE_LOOP('',(#124));
#284=EDGE_LOOP('',(#125));
#285=EDGE_LOOP('',(#126));
#286=EDGE_LOOP('',(#127));
#287=EDGE_LOOP('',(#128));
#288=EDGE_LOOP('',(#129));
#289=EDGE_LOOP('',(#130));
#290=EDGE_LOOP('',(#131,#132,#133,#134,#135,#136));
#291=EDGE_LOOP('',(#137));
#292=EDGE_LOOP('',(#138));
#293=EDGE_LOOP('',(#139));
#294=EDGE_LOOP('',(#140));
#295=EDGE_LOOP('',(#141,#142,#143,#144));
#296=EDGE_LOOP('',(#145,#146,#147));
#297=EDGE_LOOP('',(#148,#149,#150));
#298=EDGE_LOOP('',(#151));
#299=EDGE_LOOP('',(#152,#153,#154,#155));
#300=EDGE_LOOP('',(#156));
#301=EDGE_LOOP('',(#157));
#302=EDGE_LOOP('',(#158));
#303=EDGE_LOOP('',(#159));
#304=EDGE_LOOP('',(#160));
#305=EDGE_LOOP('',(#161));
#306=EDGE_LOOP('',(#162));
#307=EDGE_LOOP('',(#163));
#308=EDGE_LOOP('',(#164));
#309=EDGE_LOOP('',(#165));
#310=EDGE_LOOP('',(#166,#167));
#311=FACE_BOUND('',#265,.T.);
#312=FACE_BOUND('',#266,.T.);
#313=FACE_BOUND('',#267,.T.);
#314=FACE_BOUND('',#268,.T.);
#315=FACE_BOUND('',#269,.T.);
#316=FACE_BOUND('',#270,.T.);
#317=FACE_BOUND('',#271,.T.);
#318=FACE_BOUND('',#272,.T.);
#319=FACE_BOUND('',#273,.T.);
#320=FACE_BOUND('',#274,.T.);
#321=FACE_BOUND('',#275,.T.);
#322=FACE_BOUND('',#276,.T.);
#323=FACE_BOUND('',#277,.T.);
#324=FACE_BOUND('',#278,.T.);
#325=FACE_BOUND('',#279,.T.);
#326=FACE_BOUND('',#280,.T.);
#327=FACE_BOUND('',#281,.T.);
#328=FACE_BOUND('',#282,.T.);
#329=FACE_BOUND('',#283,.T.);
#330=FACE_BOUND('',#284,.T.);
#331=FACE_BOUND('',#285,.T.);
#332=FACE_BOUND('',#286,.T.);
#333=FACE_BOUND('',#287,.T.);
#334=FACE_BOUND('',#288,.T.);
#335=FACE_BOUND('',#289,.T.);
#336=FACE_BOUND('',#290,.T.);
#337=FACE_BOUND('',#291,.T.);
#338=FACE_BOUND('',#292,.T.);
#339=FACE_BOUND('',#293,.T.);
#340=FACE_BOUND('',#294,.T.);
#341=FACE_BOUND('',#295,.T.);
#342=FACE_BOUND('',#296,.T.);
#343=FACE_BOUND('',#297,.T.);
#344=FACE_BOUND('',#298,.T.);
#345=FACE_BOUND('',#299,.T.);
#346=FACE_BOUND('',#300,.T.);
#347=FACE_BOUND('',#301,.T.);
#348=FACE_BOUND('',#302,.T.);
#349=FACE_BOUND('',#303,.T.);
#350=FACE_BOUND('',#304,.T.);
#351=FACE_BOUND('',#305,.T.);
#352=FACE_BOUND('',#306,.T.);
#353=FACE_BOUND('',#307,.T.);
#354=FACE_BOUND('',#308,.T.);
#355=FACE_BOUND('',#309,.T.);
#356=FACE_BOUND('',#310,.T.);
#357=TOROIDAL_SURFACE('',#429,7.5005,0.0005);
#358=TOROIDAL_SURFACE('',#444,5.15,1.6);
#359=TOROIDAL_SURFACE('',#466,5.15,1.6);
#360=ADVANCED_FACE('',(#311),#357,.F.);
#361=ADVANCED_FACE('',(#312,#313),#73,.T.);
#362=ADVANCED_FACE('',(#314,#315),#74,.T.);
#363=ADVANCED_FACE('',(#316),#64,.F.);
#364=ADVANCED_FACE('',(#317),#65,.F.);
#365=ADVANCED_FACE('',(#318,#319),#75,.T.);
#366=ADVANCED_FACE('',(#320),#36,.T.);
#367=ADVANCED_FACE('',(#321),#358,.T.);
#368=ADVANCED_FACE('',(#322),#37,.T.);
#369=ADVANCED_FACE('',(#323,#324),#76,.T.);
#370=ADVANCED_FACE('',(#325),#66,.T.);
#371=ADVANCED_FACE('',(#326,#327),#77,.T.);
#372=ADVANCED_FACE('',(#328,#329),#38,.T.);
#373=ADVANCED_FACE('',(#330,#331),#78,.T.);
#374=ADVANCED_FACE('',(#332,#333),#39,.T.);
#375=ADVANCED_FACE('',(#334,#335),#79,.T.);
#376=ADVANCED_FACE('',(#336),#67,.T.);
#377=ADVANCED_FACE('',(#337,#338),#68,.F.);
#378=ADVANCED_FACE('',(#339,#340),#80,.T.);
#379=ADVANCED_FACE('',(#341),#359,.T.);
#380=ADVANCED_FACE('',(#342),#40,.F.);
#381=ADVANCED_FACE('',(#343),#41,.F.);
#382=ADVANCED_FACE('',(#344,#345),#81,.T.);
#383=ADVANCED_FACE('',(#346),#69,.T.);
#384=ADVANCED_FACE('',(#347,#348),#82,.T.);
#385=ADVANCED_FACE('',(#349),#70,.F.);
#386=ADVANCED_FACE('',(#350,#351),#83,.T.);
#387=ADVANCED_FACE('',(#352),#71,.T.);
#388=ADVANCED_FACE('',(#353,#354),#84,.T.);
#389=ADVANCED_FACE('',(#355),#72,.F.);
#390=ADVANCED_FACE('',(#356),#85,.T.);
#391=CLOSED_SHELL('',(#360,#361,#362,#363,#364,#365,#366,#367,#368,#369,
#370,#371,#372,#373,#374,#375,#376,#377,#378,#379,#380,#381,#382));
#392=CLOSED_SHELL('',(#383,#384,#385));
#393=CLOSED_SHELL('',(#386,#387,#388,#389,#390));
#394=STYLED_ITEM('',(#397),#417);
#395=STYLED_ITEM('',(#398),#418);
#396=STYLED_ITEM('',(#399),#419);
#397=PRESENTATION_STYLE_ASSIGNMENT((#400));
#398=PRESENTATION_STYLE_ASSIGNMENT((#401));
#399=PRESENTATION_STYLE_ASSIGNMENT((#402));
#400=SURFACE_STYLE_USAGE(.BOTH.,#403);
#401=SURFACE_STYLE_USAGE(.BOTH.,#404);
#402=SURFACE_STYLE_USAGE(.BOTH.,#405);
#403=SURFACE_SIDE_STYLE('',(#406));
#404=SURFACE_SIDE_STYLE('',(#407));
#405=SURFACE_SIDE_STYLE('',(#408));
#406=SURFACE_STYLE_FILL_AREA(#409);
#407=SURFACE_STYLE_FILL_AREA(#410);
#408=SURFACE_STYLE_FILL_AREA(#411);
#409=FILL_AREA_STYLE('',(#412));
#410=FILL_AREA_STYLE('',(#413));
#411=FILL_AREA_STYLE('',(#414));
#412=FILL_AREA_STYLE_COLOUR('',#415);
#413=FILL_AREA_STYLE_COLOUR('',#416);
#414=FILL_AREA_STYLE_COLOUR('',#415);
#415=COLOUR_RGB('',0.4999923706,0.4999923706,0.4999923706);
#416=COLOUR_RGB('',0.8000000119,0.8000000119,0.8000000119);
#417=MANIFOLD_SOLID_BREP('1',#391);
#418=MANIFOLD_SOLID_BREP('1',#392);
#419=MANIFOLD_SOLID_BREP('1',#393);
#420=SHAPE_DEFINITION_REPRESENTATION(#781,#424);
#421=SHAPE_DEFINITION_REPRESENTATION(#782,#425);
#422=SHAPE_DEFINITION_REPRESENTATION(#784,#426);
#423=SHAPE_DEFINITION_REPRESENTATION(#786,#427);
#424=SHAPE_REPRESENTATION('411 13.000',(#428,#471,#477,#487),#770);
#425=SHAPE_REPRESENTATION('411 13.000_PART1',(#428),#771);
#426=SHAPE_REPRESENTATION('411 13.000_PART2',(#428),#772);
#427=SHAPE_REPRESENTATION('411 13.000_PART3',(#428),#773);
#428=AXIS2_PLACEMENT_3D('',#614,#488,#489);
#429=AXIS2_PLACEMENT_3D('',#615,#490,#491);
#430=AXIS2_PLACEMENT_3D('',#616,#492,#493);
#431=AXIS2_PLACEMENT_3D('',#618,#494,#495);
#432=AXIS2_PLACEMENT_3D('',#619,#496,#497);
#433=AXIS2_PLACEMENT_3D('',#620,#498,#499);
#434=AXIS2_PLACEMENT_3D('',#622,#500,#501);
#435=AXIS2_PLACEMENT_3D('',#624,#502,#503);
#436=AXIS2_PLACEMENT_3D('',#625,#504,#505);
#437=AXIS2_PLACEMENT_3D('',#626,#506,#507);
#438=AXIS2_PLACEMENT_3D('',#651,#511,#512);
#439=AXIS2_PLACEMENT_3D('',#652,#513,#514);
#440=AXIS2_PLACEMENT_3D('',#654,#515,#516);
#441=AXIS2_PLACEMENT_3D('',#656,#517,#518);
#442=AXIS2_PLACEMENT_3D('',#665,#519,#520);
#443=AXIS2_PLACEMENT_3D('',#677,#522,#523);
#444=AXIS2_PLACEMENT_3D('',#678,#524,#525);
#445=AXIS2_PLACEMENT_3D('',#679,#526,#527);
#446=AXIS2_PLACEMENT_3D('',#681,#528,#529);
#447=AXIS2_PLACEMENT_3D('',#688,#530,#531);
#448=AXIS2_PLACEMENT_3D('',#705,#533,#534);
#449=AXIS2_PLACEMENT_3D('',#706,#535,#536);
#450=AXIS2_PLACEMENT_3D('',#707,#537,#538);
#451=AXIS2_PLACEMENT_3D('',#708,#539,#540);
#452=AXIS2_PLACEMENT_3D('',#710,#541,#542);
#453=AXIS2_PLACEMENT_3D('',#711,#543,#544);
#454=AXIS2_PLACEMENT_3D('',#713,#545,#546);
#455=AXIS2_PLACEMENT_3D('',#714,#547,#548);
#456=AXIS2_PLACEMENT_3D('',#716,#549,#550);
#457=AXIS2_PLACEMENT_3D('',#717,#551,#552);
#458=AXIS2_PLACEMENT_3D('',#719,#553,#554);
#459=AXIS2_PLACEMENT_3D('',#720,#555,#556);
#460=AXIS2_PLACEMENT_3D('',#722,#557,#558);
#461=AXIS2_PLACEMENT_3D('',#723,#559,#560);
#462=AXIS2_PLACEMENT_3D('',#725,#561,#562);
#463=AXIS2_PLACEMENT_3D('',#738,#564,#565);
#464=AXIS2_PLACEMENT_3D('',#739,#566,#567);
#465=AXIS2_PLACEMENT_3D('',#741,#568,#569);
#466=AXIS2_PLACEMENT_3D('',#742,#570,#571);
#467=AXIS2_PLACEMENT_3D('',#743,#572,#573);
#468=AXIS2_PLACEMENT_3D('',#744,#574,#575);
#469=AXIS2_PLACEMENT_3D('',#745,#576,#577);
#470=AXIS2_PLACEMENT_3D('',#746,#578,#579);
#471=AXIS2_PLACEMENT_3D('',#747,#580,#581);
#472=AXIS2_PLACEMENT_3D('',#748,#582,#583);
#473=AXIS2_PLACEMENT_3D('',#749,#584,#585);
#474=AXIS2_PLACEMENT_3D('',#751,#586,#587);
#475=AXIS2_PLACEMENT_3D('',#752,#588,#589);
#476=AXIS2_PLACEMENT_3D('',#754,#590,#591);
#477=AXIS2_PLACEMENT_3D('',#755,#592,#593);
#478=AXIS2_PLACEMENT_3D('',#756,#594,#595);
#479=AXIS2_PLACEMENT_3D('',#757,#596,#597);
#480=AXIS2_PLACEMENT_3D('',#759,#598,#599);
#481=AXIS2_PLACEMENT_3D('',#761,#600,#601);
#482=AXIS2_PLACEMENT_3D('',#762,#602,#603);
#483=AXIS2_PLACEMENT_3D('',#764,#604,#605);
#484=AXIS2_PLACEMENT_3D('',#765,#606,#607);
#485=AXIS2_PLACEMENT_3D('',#766,#608,#609);
#486=AXIS2_PLACEMENT_3D('',#767,#610,#611);
#487=AXIS2_PLACEMENT_3D('',#768,#612,#613);
#488=DIRECTION('',(0.,0.,1.));
#489=DIRECTION('',(1.,0.,0.));
#490=DIRECTION('',(0.,0.,1.));
#491=DIRECTION('',(0.,1.,0.));
#492=DIRECTION('',(0.,0.,1.));
#493=DIRECTION('',(0.,1.,0.));
#494=DIRECTION('',(0.,0.,1.));
#495=DIRECTION('',(0.,1.,0.));
#496=DIRECTION('',(0.,0.,1.));
#497=DIRECTION('',(0.,1.,0.));
#498=DIRECTION('',(0.,0.,1.));
#499=DIRECTION('',(0.,1.,0.));
#500=DIRECTION('',(0.,0.,1.));
#501=DIRECTION('',(1.,0.,0.));
#502=DIRECTION('',(0.,-1.11307522540328E-17,-1.));
#503=DIRECTION('',(0.,-1.,1.11307522540328E-17));
#504=DIRECTION('',(0.,0.,1.));
#505=DIRECTION('',(1.,0.,0.));
#506=DIRECTION('',(0.,1.,0.));
#507=DIRECTION('',(1.,0.,0.));
#508=DIRECTION('',(1.,0.,0.));
#509=DIRECTION('',(0.,0.,-1.));
#510=DIRECTION('',(0.,0.,1.));
#511=DIRECTION('',(0.,0.,-1.));
#512=DIRECTION('',(-1.,0.,0.));
#513=DIRECTION('',(0.,0.,1.));
#514=DIRECTION('',(1.,0.,0.));
#515=DIRECTION('',(0.,0.,1.));
#516=DIRECTION('',(1.,0.,0.));
#517=DIRECTION('',(0.,0.,-1.));
#518=DIRECTION('',(1.,0.,0.));
#519=DIRECTION('',(0.,0.,1.));
#520=DIRECTION('',(1.,0.,0.));
#521=DIRECTION('',(0.,0.,-1.));
#522=DIRECTION('',(0.,0.,1.));
#523=DIRECTION('',(1.,0.,0.));
#524=DIRECTION('',(0.,0.,1.));
#525=DIRECTION('',(1.,0.,0.));
#526=DIRECTION('',(0.,0.,1.));
#527=DIRECTION('',(1.,0.,0.));
#528=DIRECTION('',(0.,0.,1.));
#529=DIRECTION('',(1.,0.,0.));
#530=DIRECTION('',(0.,0.,-1.));
#531=DIRECTION('',(1.,0.,0.));
#532=DIRECTION('',(0.,0.,1.));
#533=DIRECTION('',(0.,0.,1.));
#534=DIRECTION('',(1.,0.,0.));
#535=DIRECTION('',(0.,0.,-1.));
#536=DIRECTION('',(-1.,0.,0.));
#537=DIRECTION('',(0.,0.,1.));
#538=DIRECTION('',(1.,0.,0.));
#539=DIRECTION('',(0.,0.,1.));
#540=DIRECTION('',(1.,0.,0.));
#541=DIRECTION('',(0.,0.,1.));
#542=DIRECTION('',(1.,0.,0.));
#543=DIRECTION('',(0.,0.,1.));
#544=DIRECTION('',(1.,0.,0.));
#545=DIRECTION('',(0.,0.,-1.));
#546=DIRECTION('',(0.,1.,0.));
#547=DIRECTION('',(4.81681010395742E-17,0.,1.));
#548=DIRECTION('',(-1.,0.,4.81681010395742E-17));
#549=DIRECTION('',(-4.81681010395742E-17,0.,-1.));
#550=DIRECTION('',(-1.,0.,4.81681010395742E-17));
#551=DIRECTION('',(0.,0.,1.));
#552=DIRECTION('',(1.,0.,0.));
#553=DIRECTION('',(0.,0.,-1.));
#554=DIRECTION('',(0.,1.,0.));
#555=DIRECTION('',(0.,0.,1.));
#556=DIRECTION('',(0.,1.,0.));
#557=DIRECTION('',(0.,-1.59555992816437E-17,1.));
#558=DIRECTION('',(0.,1.,1.59555992816437E-17));
#559=DIRECTION('',(0.,0.,1.));
#560=DIRECTION('',(0.,1.,0.));
#561=DIRECTION('',(0.,1.,0.));
#562=DIRECTION('',(1.,0.,0.));
#563=DIRECTION('',(1.,0.,0.));
#564=DIRECTION('',(0.,0.,1.));
#565=DIRECTION('',(1.,0.,0.));
#566=DIRECTION('',(0.,0.,1.));
#567=DIRECTION('',(1.,0.,0.));
#568=DIRECTION('',(0.,0.,-1.));
#569=DIRECTION('',(-1.,0.,0.));
#570=DIRECTION('',(0.,0.,1.));
#571=DIRECTION('',(1.,0.,0.));
#572=DIRECTION('',(0.,0.,1.));
#573=DIRECTION('',(1.,0.,0.));
#574=DIRECTION('',(-1.,0.,0.));
#575=DIRECTION('',(0.,0.,-1.));
#576=DIRECTION('',(-1.,0.,0.));
#577=DIRECTION('',(0.,0.,-1.));
#578=DIRECTION('',(5.85106429997985E-18,0.,-1.));
#579=DIRECTION('',(-1.,0.,-5.85106429997985E-18));
#580=DIRECTION('',(0.,0.,1.));
#581=DIRECTION('',(1.,0.,0.));
#582=DIRECTION('',(0.,0.,1.));
#583=DIRECTION('',(1.,0.,0.));
#584=DIRECTION('',(0.,0.,1.));
#585=DIRECTION('',(1.,0.,0.));
#586=DIRECTION('',(0.,0.,1.));
#587=DIRECTION('',(0.,1.,0.));
#588=DIRECTION('',(0.,0.,1.));
#589=DIRECTION('',(1.,0.,0.));
#590=DIRECTION('',(0.,0.,1.));
#591=DIRECTION('',(1.,0.,0.));
#592=DIRECTION('',(0.,0.,1.));
#593=DIRECTION('',(1.,0.,0.));
#594=DIRECTION('',(0.,0.,1.));
#595=DIRECTION('',(0.,1.,0.));
#596=DIRECTION('',(0.,0.,1.));
#597=DIRECTION('',(1.,0.,0.));
#598=DIRECTION('',(0.,0.,1.));
#599=DIRECTION('',(0.,1.,0.));
#600=DIRECTION('',(0.,0.,1.));
#601=DIRECTION('',(1.,0.,0.));
#602=DIRECTION('',(0.,0.,1.));
#603=DIRECTION('',(1.,0.,0.));
#604=DIRECTION('',(0.,0.,1.));
#605=DIRECTION('',(0.,1.,0.));
#606=DIRECTION('',(0.,-4.1398146680938E-18,1.));
#607=DIRECTION('',(1.,0.,0.));
#608=DIRECTION('',(0.,0.,1.));
#609=DIRECTION('',(0.,1.,0.));
#610=DIRECTION('',(0.,0.,1.));
#611=DIRECTION('',(0.,1.,0.));
#612=DIRECTION('',(0.,0.,1.));
#613=DIRECTION('',(1.,0.,0.));
#614=CARTESIAN_POINT('',(0.,0.,0.));
#615=CARTESIAN_POINT('',(8.78591523436893E-14,0.,-25.7744387468995));
#616=CARTESIAN_POINT('',(1.00878591523437E-11,1.00004171894991E-11,-25.7749217098227));
#617=CARTESIAN_POINT('',(1.00878591523437E-11,7.50018530001,-25.7746802283661));
#618=CARTESIAN_POINT('',(1.00878591523437E-11,1.00004171874997E-11,-25.7744387469095));
#619=CARTESIAN_POINT('',(8.78591523436893E-14,1.22119993018709E-15,-219.989034074174));
#620=CARTESIAN_POINT('',(1.00878591523437E-11,1.00004181208675E-11,-25.99990000001));
#621=CARTESIAN_POINT('',(1.00878591523437E-11,8.34000100001,-25.99990000001));
#622=CARTESIAN_POINT('',(1.00886471247286E-11,1.00012211999302E-11,-29.7320508075789));
#623=CARTESIAN_POINT('',(8.30267740001009,1.00012211999302E-11,-29.7320508075789));
#624=CARTESIAN_POINT('',(8.78591523436893E-14,4.18120867496007E-16,-25.9999));
#625=CARTESIAN_POINT('',(8.78591523436893E-14,0.,-29.7320508075689));
#626=CARTESIAN_POINT('',(-9.99999999999991,-3.15,65.1656782778786));
#627=CARTESIAN_POINT('',(-10.0000000000099,-3.15000000001,65.1656782778886));
#628=CARTESIAN_POINT('',(-5.96992462264199,-3.15000000001,65.1656782778836));
#629=CARTESIAN_POINT('',(5.96992462264217,-3.15000000001,65.1656782778836));
#630=CARTESIAN_POINT('',(5.96992462264981,-3.15000000001,73.4104641547742));
#631=CARTESIAN_POINT('',(5.96992462264981,-3.150000000005,72.6815717104632));
#632=CARTESIAN_POINT('',(4.35237380437638,-3.15,74.2660006204447));
#633=CARTESIAN_POINT('',(4.7665752119495,-3.15,74.2188432524359));
#634=CARTESIAN_POINT('',(5.57170029502887,-3.15,73.9027305351375));
#635=CARTESIAN_POINT('',(5.9699246226398,-3.15,73.1009417098591));
#636=CARTESIAN_POINT('',(5.96992462263981,-3.15,72.6815717104582));
#637=CARTESIAN_POINT('',(4.35237382812176,-3.15,74.2660006204497));
#638=CARTESIAN_POINT('',(4.35237380339748,-3.15,74.2660006118466));
#639=CARTESIAN_POINT('',(2.90705785684305,-3.15,74.4305517107517));
#640=CARTESIAN_POINT('',(0.0117403741238674,-3.15,74.7260024812899));
#641=CARTESIAN_POINT('',(-2.90356626594626,-3.15,74.4309492329131));
#642=CARTESIAN_POINT('',(-4.3523738033973,-3.15,74.2660006118466));
#643=CARTESIAN_POINT('',(-4.35237382811158,-3.15,74.2660006204497));
#644=CARTESIAN_POINT('',(-5.96992462263963,-3.15,72.6815717104582));
#645=CARTESIAN_POINT('',(-5.96992462263963,-3.15,73.0990221299266));
#646=CARTESIAN_POINT('',(-5.57713449295164,-3.15,73.8990523547592));
#647=CARTESIAN_POINT('',(-4.76570797007151,-3.15,74.2189419890496));
#648=CARTESIAN_POINT('',(-4.3523738043762,-3.15,74.2660006204447));
#649=CARTESIAN_POINT('',(-5.96992462264463,-3.150000000005,72.6815717104632));
#650=CARTESIAN_POINT('',(-5.96992462264963,-3.15000000001,73.4104641547742));
#651=CARTESIAN_POINT('',(8.78591523436893E-14,0.,-5.00000000000003));
#652=CARTESIAN_POINT('',(8.78591523436893E-14,0.,34.0000000546293));
#653=CARTESIAN_POINT('',(8.04091482899085,0.,34.0000000546293));
#654=CARTESIAN_POINT('',(8.78591523436893E-14,0.,58.9999999199831));
#655=CARTESIAN_POINT('',(7.41658748001686,0.,58.9999999199831));
#656=CARTESIAN_POINT('',(8.78591523436893E-14,0.,73.4104641547642));
#657=CARTESIAN_POINT('',(8.80046600795518E-14,-6.75,59.6665874439316));
#658=CARTESIAN_POINT('',(0.866848534176481,-6.75,59.6665874439316));
#659=CARTESIAN_POINT('',(2.57979841123907,-6.41588305213624,59.7940320469057));
#660=CARTESIAN_POINT('',(4.68511523208918,-5.03336032302499,60.6367212476844));
#661=CARTESIAN_POINT('',(5.79374810266621,-3.53523316324579,62.5726270616776));
#662=CARTESIAN_POINT('',(5.96992462263981,-3.15,64.2970261805952));
#663=CARTESIAN_POINT('',(5.96992462263981,-3.15,65.1656782778786));
#664=CARTESIAN_POINT('',(5.08793190621163E-12,-6.74999999998854,59.6665874439366));
#665=CARTESIAN_POINT('',(1.00878591523437E-11,0.,59.6665874439416));
#666=CARTESIAN_POINT('',(5.08792700490538E-12,6.74999999998854,59.6665874439366));
#667=CARTESIAN_POINT('',(8.79948574670546E-14,6.75,59.6665874439316));
#668=CARTESIAN_POINT('',(0.866848534176532,6.75,59.6665874439316));
#669=CARTESIAN_POINT('',(2.57979841123923,6.4158830521362,59.7940320469057));
#670=CARTESIAN_POINT('',(4.68511523208938,5.03336032302481,60.6367212476845));
#671=CARTESIAN_POINT('',(5.79374810266636,3.53523316324553,62.5726270616783));
#672=CARTESIAN_POINT('',(5.96992462263981,3.15,64.2970261805951));
#673=CARTESIAN_POINT('',(5.96992462263981,3.15,65.1656782778786));
#674=CARTESIAN_POINT('',(5.96992462264481,3.150000000005,65.1656782778836));
#675=CARTESIAN_POINT('',(5.96992462264981,3.15000000001,73.4104641547742));
#676=CARTESIAN_POINT('',(5.96992462264481,3.150000000005,72.6815717104632));
#677=CARTESIAN_POINT('',(1.00878591523437E-11,0.,72.6815717104682));
#678=CARTESIAN_POINT('',(8.78591523436893E-14,0.,72.6815717104582));
#679=CARTESIAN_POINT('',(1.00878591523437E-11,0.,72.6815717104682));
#680=CARTESIAN_POINT('',(-5.96992462263963,3.150000000005,72.6815717104682));
#681=CARTESIAN_POINT('',(1.00878591523437E-11,0.,74.2660006204547));
#682=CARTESIAN_POINT('',(-4.35237382811158,3.15,74.2660006204497));
#683=CARTESIAN_POINT('',(-5.96992462263963,3.15,72.6815717104582));
#684=CARTESIAN_POINT('',(-5.96992462263963,3.15,73.0990221299256));
#685=CARTESIAN_POINT('',(-5.57713449294785,3.15,73.8990523547636));
#686=CARTESIAN_POINT('',(-4.76570797007054,3.15,74.2189419890497));
#687=CARTESIAN_POINT('',(-4.3523738043762,3.15,74.2660006204447));
#688=CARTESIAN_POINT('',(8.78591523436893E-14,0.,73.4104641547642));
#689=CARTESIAN_POINT('',(-5.96992462263963,-3.15,65.1656782778786));
#690=CARTESIAN_POINT('',(-5.96992462263963,-3.15,64.2979501272848));
#691=CARTESIAN_POINT('',(-5.79435219741666,-3.53206234634743,62.5837350732004));
#692=CARTESIAN_POINT('',(-4.69746696207105,-5.02227222778442,60.6453206691432));
#693=CARTESIAN_POINT('',(-2.58102035814992,-6.41715285245034,59.7926144217511));
#694=CARTESIAN_POINT('',(-0.866851492993976,-6.75,59.6665874439316));
#695=CARTESIAN_POINT('',(8.53085781674557E-14,-6.75,59.6665874439316));
#696=CARTESIAN_POINT('',(-5.96992462264963,3.15000000001,73.4104641547742));
#697=CARTESIAN_POINT('',(-5.96992462264463,3.150000000005,65.1656782778836));
#698=CARTESIAN_POINT('',(-5.96992462263963,3.15,65.1656782778786));
#699=CARTESIAN_POINT('',(-5.96992462263963,3.15,64.2979501272849));
#700=CARTESIAN_POINT('',(-5.79435219741645,3.53206234634783,62.5837350731994));
#701=CARTESIAN_POINT('',(-4.69746696207072,5.0222722277847,60.6453206691431));
#702=CARTESIAN_POINT('',(-2.58102035814968,6.4171528524504,59.7926144217511));
#703=CARTESIAN_POINT('',(-0.866851492993898,6.75,59.6665874439316));
#704=CARTESIAN_POINT('',(8.53085781674557E-14,6.75,59.6665874439316));
#705=CARTESIAN_POINT('',(1.00878591523437E-11,0.,59.6665874439416));
#706=CARTESIAN_POINT('',(8.78591523436893E-14,0.,58.9999999999999));
#707=CARTESIAN_POINT('',(8.78591523436893E-14,0.,75.));
#708=CARTESIAN_POINT('',(1.00878591523437E-11,0.,75.00000000001));
#709=CARTESIAN_POINT('',(0.150000000010088,0.,75.00000000001));
#710=CARTESIAN_POINT('',(8.78591523436893E-14,0.,33.0631080869554));
#711=CARTESIAN_POINT('',(1.00878591523437E-11,0.,33.0631080869654));
#712=CARTESIAN_POINT('',(7.50000000001009,0.,33.0631080869654));
#713=CARTESIAN_POINT('',(8.78591523436893E-14,0.,75.));
#714=CARTESIAN_POINT('',(8.79020478729467E-14,0.,20.8905381015984));
#715=CARTESIAN_POINT('',(-7.49999999999991,0.,20.8905381015984));
#716=CARTESIAN_POINT('',(8.78591523436893E-14,0.,20.));
#717=CARTESIAN_POINT('',(8.78591523413346E-14,0.,19.9999999511157));
#718=CARTESIAN_POINT('',(8.39053814888436,0.,19.9999999511157));
#719=CARTESIAN_POINT('',(8.78591523436893E-14,0.,75.));
#720=CARTESIAN_POINT('',(1.00878591523437E-11,1.00003347655779E-11,-5.86487070325607));
#721=CARTESIAN_POINT('',(1.00878591523437E-11,7.50000000001,-5.86487070325607));
#722=CARTESIAN_POINT('',(8.78591523436893E-14,3.34765577870807E-16,-5.86487070324607));
#723=CARTESIAN_POINT('',(1.00878591523437E-11,1.00003311851734E-11,-5.00000000001002));
#724=CARTESIAN_POINT('',(1.00878591523437E-11,8.99800000001,-5.00000000001002));
#725=CARTESIAN_POINT('',(-9.99999999999991,3.15,65.1656782778786));
#726=CARTESIAN_POINT('',(4.35237380339748,3.15,74.2660006118466));
#727=CARTESIAN_POINT('',(2.90705785684305,3.15,74.4305517107517));
#728=CARTESIAN_POINT('',(0.0117403741238674,3.15,74.7260024812899));
#729=CARTESIAN_POINT('',(-2.90356626594626,3.15,74.4309492329131));
#730=CARTESIAN_POINT('',(-4.3523738033973,3.15,74.2660006118466));
#731=CARTESIAN_POINT('',(4.35237380388693,3.15,74.2660006161457));
#732=CARTESIAN_POINT('',(4.35237380437638,3.15,74.2660006204447));
#733=CARTESIAN_POINT('',(4.76657521563525,3.15,74.2188432520162));
#734=CARTESIAN_POINT('',(5.571700276889,3.15,73.9027305484054));
#735=CARTESIAN_POINT('',(5.9699246226398,3.15,73.1009417135909));
#736=CARTESIAN_POINT('',(5.96992462263981,3.15,72.6815717104582));
#737=CARTESIAN_POINT('',(-10.0000000000099,3.15000000001,65.1656782778886));
#738=CARTESIAN_POINT('',(8.78591523436893E-14,0.,-5.00000000000002));
#739=CARTESIAN_POINT('',(1.00878591523437E-11,0.,-5.00000000001003));
#740=CARTESIAN_POINT('',(9.01486550001009,0.,-5.00000000001003));
#741=CARTESIAN_POINT('',(8.78591523436893E-14,0.,-5.00000000000003));
#742=CARTESIAN_POINT('',(8.78591523436893E-14,0.,72.6815717104582));
#743=CARTESIAN_POINT('',(1.00878591523437E-11,0.,74.2660006204547));
#744=CARTESIAN_POINT('',(-9.99999999999991,9.15,65.1656782778786));
#745=CARTESIAN_POINT('',(-9.99999999999991,-9.15,65.1656782778786));
#746=CARTESIAN_POINT('',(8.78591523436893E-14,0.,75.));
#747=CARTESIAN_POINT('',(0.,0.,0.));
#748=CARTESIAN_POINT('',(8.78591523436893E-14,0.,-29.7320508075689));
#749=CARTESIAN_POINT('',(1.00886471247286E-11,1.00012211999302E-11,-29.7320508075789));
#750=CARTESIAN_POINT('',(8.30267740001009,1.00012211999302E-11,-29.7320508075789));
#751=CARTESIAN_POINT('',(8.78591523436893E-14,1.22119993018709E-15,-219.989034074174));
#752=CARTESIAN_POINT('',(1.00878597859282E-11,1.00012211999302E-11,-219.90000000001));
#753=CARTESIAN_POINT('',(6.40089040001009,1.00012211999302E-11,-219.90000000001));
#754=CARTESIAN_POINT('',(8.78591523436893E-14,0.,-219.9));
#755=CARTESIAN_POINT('',(0.,0.,0.));
#756=CARTESIAN_POINT('',(8.78591523436893E-14,1.22124132833377E-15,-219.999034074174));
#757=CARTESIAN_POINT('',(8.78591523436893E-14,1.22124532708767E-15,-219.999034153366));
#758=CARTESIAN_POINT('',(1.00878591523437E-11,6.39959600001,-219.999517037097));
#759=CARTESIAN_POINT('',(1.00878591523437E-11,1.00012211999302E-11,-219.989034074184));
#760=CARTESIAN_POINT('',(1.00878591523437E-11,6.40000000001,-219.989034074184));
#761=CARTESIAN_POINT('',(8.78591523436893E-14,0.,-219.9));
#762=CARTESIAN_POINT('',(1.00878597859282E-11,1.00012211999302E-11,-219.90000000001));
#763=CARTESIAN_POINT('',(6.40089040001009,1.00012211999302E-11,-219.90000000001));
#764=CARTESIAN_POINT('',(8.78591523436893E-14,1.22119993018709E-15,-219.989034074174));
#765=CARTESIAN_POINT('',(8.78591523436893E-14,1.22124532708767E-15,-220.));
#766=CARTESIAN_POINT('',(1.00878591523437E-11,1.00012212453271E-11,-220.00000000001));
#767=CARTESIAN_POINT('',(8.78591523436893E-14,1.22124532708767E-15,-220.));
#768=CARTESIAN_POINT('',(0.,0.,0.));
#769=MECHANICAL_DESIGN_GEOMETRIC_PRESENTATION_REPRESENTATION('',(#394,#395,
#396),#770);
#770=(
GEOMETRIC_REPRESENTATION_CONTEXT(3)
GLOBAL_UNCERTAINTY_ASSIGNED_CONTEXT((#774))
GLOBAL_UNIT_ASSIGNED_CONTEXT((#780,#779,#778))
REPRESENTATION_CONTEXT('411 13.000','TOP_LEVEL_ASSEMBLY_PART')
);
#771=(
GEOMETRIC_REPRESENTATION_CONTEXT(3)
GLOBAL_UNCERTAINTY_ASSIGNED_CONTEXT((#775))
GLOBAL_UNIT_ASSIGNED_CONTEXT((#780,#779,#778))
REPRESENTATION_CONTEXT('411 13.000_PART1','COMPONENT_PART')
);
#772=(
GEOMETRIC_REPRESENTATION_CONTEXT(3)
GLOBAL_UNCERTAINTY_ASSIGNED_CONTEXT((#776))
GLOBAL_UNIT_ASSIGNED_CONTEXT((#780,#779,#778))
REPRESENTATION_CONTEXT('411 13.000_PART2','COMPONENT_PART')
);
#773=(
GEOMETRIC_REPRESENTATION_CONTEXT(3)
GLOBAL_UNCERTAINTY_ASSIGNED_CONTEXT((#777))
GLOBAL_UNIT_ASSIGNED_CONTEXT((#780,#779,#778))
REPRESENTATION_CONTEXT('411 13.000_PART3','COMPONENT_PART')
);
#774=UNCERTAINTY_MEASURE_WITH_UNIT(LENGTH_MEASURE(1.E-5),#780,
'DISTANCE_ACCURACY_VALUE','Maximum Tolerance applied to model');
#775=UNCERTAINTY_MEASURE_WITH_UNIT(LENGTH_MEASURE(1.E-5),#780,
'DISTANCE_ACCURACY_VALUE','Maximum Tolerance applied to model');
#776=UNCERTAINTY_MEASURE_WITH_UNIT(LENGTH_MEASURE(1.E-5),#780,
'DISTANCE_ACCURACY_VALUE','Maximum Tolerance applied to model');
#777=UNCERTAINTY_MEASURE_WITH_UNIT(LENGTH_MEASURE(1.E-5),#780,
'DISTANCE_ACCURACY_VALUE','Maximum Tolerance applied to model');
#778=(
NAMED_UNIT(*)
SI_UNIT($,.STERADIAN.)
SOLID_ANGLE_UNIT()
);
#779=(
NAMED_UNIT(*)
PLANE_ANGLE_UNIT()
SI_UNIT($,.RADIAN.)
);
#780=(
LENGTH_UNIT()
NAMED_UNIT(*)
SI_UNIT(.MILLI.,.METRE.)
);
#781=PRODUCT_DEFINITION_SHAPE('','',#788);
#782=PRODUCT_DEFINITION_SHAPE('','',#789);
#783=PRODUCT_DEFINITION_SHAPE(' ','NAUO PRDDFN',#21);
#784=PRODUCT_DEFINITION_SHAPE('','',#790);
#785=PRODUCT_DEFINITION_SHAPE(' ','NAUO PRDDFN',#22);
#786=PRODUCT_DEFINITION_SHAPE('','',#791);
#787=PRODUCT_DEFINITION_SHAPE(' ','NAUO PRDDFN',#23);
#788=PRODUCT_DEFINITION('','',#796,#792);
#789=PRODUCT_DEFINITION('','',#797,#793);
#790=PRODUCT_DEFINITION('','',#798,#794);
#791=PRODUCT_DEFINITION('','',#799,#795);
#792=PRODUCT_DEFINITION_CONTEXT('',#817,'design');
#793=PRODUCT_DEFINITION_CONTEXT('',#817,'design');
#794=PRODUCT_DEFINITION_CONTEXT('',#817,'design');
#795=PRODUCT_DEFINITION_CONTEXT('',#817,'design');
#796=PRODUCT_DEFINITION_FORMATION_WITH_SPECIFIED_SOURCE('','',#804,
 .NOT_KNOWN.);
#797=PRODUCT_DEFINITION_FORMATION_WITH_SPECIFIED_SOURCE('','',#805,
 .NOT_KNOWN.);
#798=PRODUCT_DEFINITION_FORMATION_WITH_SPECIFIED_SOURCE('','',#806,
 .NOT_KNOWN.);
#799=PRODUCT_DEFINITION_FORMATION_WITH_SPECIFIED_SOURCE('','',#807,
 .NOT_KNOWN.);
#800=PRODUCT_RELATED_PRODUCT_CATEGORY('','',(#804));
#801=PRODUCT_RELATED_PRODUCT_CATEGORY('','',(#805));
#802=PRODUCT_RELATED_PRODUCT_CATEGORY('','',(#806));
#803=PRODUCT_RELATED_PRODUCT_CATEGORY('','',(#807));
#804=PRODUCT('411 13.000','411 13.000','411 13.000',(#812));
#805=PRODUCT('411 13.000_PART1','411 13.000_PART1','411 13.000_PART1',(#813));
#806=PRODUCT('411 13.000_PART2','411 13.000_PART2','411 13.000_PART2',(#814));
#807=PRODUCT('411 13.000_PART3','411 13.000_PART3','411 13.000_PART3',(#815));
#808=PRODUCT_CATEGORY('','');
#809=PRODUCT_CATEGORY('','');
#810=PRODUCT_CATEGORY('','');
#811=PRODUCT_CATEGORY('','');
#812=PRODUCT_CONTEXT('',#817,'mechanical');
#813=PRODUCT_CONTEXT('',#817,'mechanical');
#814=PRODUCT_CONTEXT('',#817,'mechanical');
#815=PRODUCT_CONTEXT('',#817,'mechanical');
#816=APPLICATION_PROTOCOL_DEFINITION('international standard',
'automotive_design',2010,#817);
#817=APPLICATION_CONTEXT(
'core data for automotive mechanical design processes');
ENDSEC;
END-ISO-10303-21;
