ISO-10303-21;
HEADER;
/* Generated by software containing ST-Developer
 * from STEP Tools, Inc. (www.steptools.com) 
 */
/* OPTION: using custom renumber hook */

FILE_DESCRIPTION(
/* description */ ('STEP AP214'),
/* implementation_level */ '2;1');

FILE_NAME(
/* name */ '414 20.000',
/* time_stamp */ '2026-05-15T10:46:58+02:00',
/* author */ ('License CC BY-ND 4.0'),
/* organization */ ('CADENAS'),
/* preprocessor_version */ 'ST-DEVELOPER v20',
/* originating_system */ 'PARTsolutions',
/* authorisation */ '  ');

FILE_SCHEMA (('AUTOMOTIVE_DESIGN {1 0 10303 214 3 1 1}'));
ENDSEC;

DATA;
#10=PROPERTY_DEFINITION_REPRESENTATION(#14,#12);
#11=PROPERTY_DEFINITION_REPRESENTATION(#15,#13);
#12=REPRESENTATION('',(#16),#670);
#13=REPRESENTATION('',(#17),#670);
#14=PROPERTY_DEFINITION('pmi validation property','',#681);
#15=PROPERTY_DEFINITION('pmi validation property','',#681);
#16=VALUE_REPRESENTATION_ITEM('number of annotations',COUNT_MEASURE(0.));
#17=VALUE_REPRESENTATION_ITEM('number of views',COUNT_MEASURE(0.));
#18=VERTEX_LOOP('',#223);
#19=CONTEXT_DEPENDENT_SHAPE_REPRESENTATION(#25,#683);
#20=CONTEXT_DEPENDENT_SHAPE_REPRESENTATION(#26,#685);
#21=CONTEXT_DEPENDENT_SHAPE_REPRESENTATION(#27,#687);
#22=NEXT_ASSEMBLY_USAGE_OCCURRENCE('NAUO1','414 20.000_PART1',
'414 20.000_PART1',#688,#689,'');
#23=NEXT_ASSEMBLY_USAGE_OCCURRENCE('NAUO2','414 20.000_PART2',
'414 20.000_PART2',#688,#690,'');
#24=NEXT_ASSEMBLY_USAGE_OCCURRENCE('NAUO3','414 20.000_PART3',
'414 20.000_PART3',#688,#691,'');
#25=(
REPRESENTATION_RELATIONSHIP(' ',' ',#368,#367)
REPRESENTATION_RELATIONSHIP_WITH_TRANSFORMATION(#28)
SHAPE_REPRESENTATION_RELATIONSHIP()
);
#26=(
REPRESENTATION_RELATIONSHIP(' ',' ',#369,#367)
REPRESENTATION_RELATIONSHIP_WITH_TRANSFORMATION(#29)
SHAPE_REPRESENTATION_RELATIONSHIP()
);
#27=(
REPRESENTATION_RELATIONSHIP(' ',' ',#370,#367)
REPRESENTATION_RELATIONSHIP_WITH_TRANSFORMATION(#30)
SHAPE_REPRESENTATION_RELATIONSHIP()
);
#28=ITEM_DEFINED_TRANSFORMATION(' ',' ',#371,#404);
#29=ITEM_DEFINED_TRANSFORMATION(' ',' ',#371,#414);
#30=ITEM_DEFINED_TRANSFORMATION(' ',' ',#371,#418);
#31=SHAPE_REPRESENTATION_RELATIONSHIP('','',#368,#34);
#32=SHAPE_REPRESENTATION_RELATIONSHIP('','',#369,#35);
#33=SHAPE_REPRESENTATION_RELATIONSHIP('','',#370,#36);
#34=ADVANCED_BREP_SHAPE_REPRESENTATION('',(#360),#671);
#35=ADVANCED_BREP_SHAPE_REPRESENTATION('',(#361),#672);
#36=ADVANCED_BREP_SHAPE_REPRESENTATION('',(#362),#673);
#37=CONICAL_SURFACE('',#384,9.75,0.7853981625);
#38=CONICAL_SURFACE('',#389,10.,0.7853981625);
#39=CONICAL_SURFACE('',#394,10.0551574,0.7853981625);
#40=CONICAL_SURFACE('',#397,12.0379961,0.0250939561);
#41=CONICAL_SURFACE('',#401,0.15,1.431169985);
#42=CONICAL_SURFACE('',#410,7.0495367,0.0499600498);
#43=CONICAL_SURFACE('',#412,9.89,0.7853981625);
#44=CONICAL_SURFACE('',#417,9.89,0.7853981625);
#45=PLANE('',#378);
#46=PLANE('',#380);
#47=PLANE('',#382);
#48=PLANE('',#391);
#49=PLANE('',#398);
#50=PLANE('',#408);
#51=PLANE('',#413);
#52=PLANE('',#415);
#53=LINE('',#540,#59);
#54=LINE('',#563,#60);
#55=LINE('',#578,#61);
#56=LINE('',#580,#62);
#57=LINE('',#593,#63);
#58=LINE('',#621,#64);
#59=VECTOR('',#429,1000.);
#60=VECTOR('',#432,1000.);
#61=VECTOR('',#437,1000.);
#62=VECTOR('',#438,1000.);
#63=VECTOR('',#441,1000.);
#64=VECTOR('',#480,1000.);
#65=CYLINDRICAL_SURFACE('',#375,9.25);
#66=CYLINDRICAL_SURFACE('',#379,7.);
#67=CYLINDRICAL_SURFACE('',#387,9.75);
#68=CYLINDRICAL_SURFACE('',#393,10.);
#69=CYLINDRICAL_SURFACE('',#399,7.);
#70=CYLINDRICAL_SURFACE('',#400,9.25);
#71=CYLINDRICAL_SURFACE('',#405,10.);
#72=CIRCLE('',#373,7.5283462);
#73=CIRCLE('',#374,9.25);
#74=CIRCLE('',#376,9.25);
#75=CIRCLE('',#377,9.25);
#76=CIRCLE('',#381,10.);
#77=CIRCLE('',#383,0.15);
#78=CIRCLE('',#385,9.75);
#79=CIRCLE('',#386,12.05);
#80=CIRCLE('',#388,9.75);
#81=CIRCLE('',#390,10.);
#82=CIRCLE('',#392,12.0379961);
#83=CIRCLE('',#395,10.05515734706);
#84=CIRCLE('',#396,9.25);
#85=CIRCLE('',#402,7.5283462);
#86=CIRCLE('',#406,10.);
#87=CIRCLE('',#407,10.);
#88=CIRCLE('',#409,0.1);
#89=CIRCLE('',#411,7.26306233243958);
#90=CIRCLE('',#416,0.1);
#91=ORIENTED_EDGE('',*,*,#161,.F.);
#92=ORIENTED_EDGE('',*,*,#162,.T.);
#93=ORIENTED_EDGE('',*,*,#163,.T.);
#94=ORIENTED_EDGE('',*,*,#164,.F.);
#95=ORIENTED_EDGE('',*,*,#165,.F.);
#96=ORIENTED_EDGE('',*,*,#166,.T.);
#97=ORIENTED_EDGE('',*,*,#167,.F.);
#98=ORIENTED_EDGE('',*,*,#168,.F.);
#99=ORIENTED_EDGE('',*,*,#169,.T.);
#100=ORIENTED_EDGE('',*,*,#170,.T.);
#101=ORIENTED_EDGE('',*,*,#165,.T.);
#102=ORIENTED_EDGE('',*,*,#171,.T.);
#103=ORIENTED_EDGE('',*,*,#172,.F.);
#104=ORIENTED_EDGE('',*,*,#161,.T.);
#105=ORIENTED_EDGE('',*,*,#173,.T.);
#106=ORIENTED_EDGE('',*,*,#174,.T.);
#107=ORIENTED_EDGE('',*,*,#168,.T.);
#108=ORIENTED_EDGE('',*,*,#175,.T.);
#109=ORIENTED_EDGE('',*,*,#176,.T.);
#110=ORIENTED_EDGE('',*,*,#177,.T.);
#111=ORIENTED_EDGE('',*,*,#178,.F.);
#112=ORIENTED_EDGE('',*,*,#179,.F.);
#113=ORIENTED_EDGE('',*,*,#180,.T.);
#114=ORIENTED_EDGE('',*,*,#181,.F.);
#115=ORIENTED_EDGE('',*,*,#179,.T.);
#116=ORIENTED_EDGE('',*,*,#182,.F.);
#117=ORIENTED_EDGE('',*,*,#181,.T.);
#118=ORIENTED_EDGE('',*,*,#180,.F.);
#119=ORIENTED_EDGE('',*,*,#183,.T.);
#120=ORIENTED_EDGE('',*,*,#182,.T.);
#121=ORIENTED_EDGE('',*,*,#177,.F.);
#122=ORIENTED_EDGE('',*,*,#184,.F.);
#123=ORIENTED_EDGE('',*,*,#167,.T.);
#124=ORIENTED_EDGE('',*,*,#185,.T.);
#125=ORIENTED_EDGE('',*,*,#183,.F.);
#126=ORIENTED_EDGE('',*,*,#184,.T.);
#127=ORIENTED_EDGE('',*,*,#176,.F.);
#128=ORIENTED_EDGE('',*,*,#186,.F.);
#129=ORIENTED_EDGE('',*,*,#163,.F.);
#130=ORIENTED_EDGE('',*,*,#187,.T.);
#131=ORIENTED_EDGE('',*,*,#188,.F.);
#132=ORIENTED_EDGE('',*,*,#169,.F.);
#133=ORIENTED_EDGE('',*,*,#174,.F.);
#134=ORIENTED_EDGE('',*,*,#189,.F.);
#135=ORIENTED_EDGE('',*,*,#166,.F.);
#136=ORIENTED_EDGE('',*,*,#185,.F.);
#137=ORIENTED_EDGE('',*,*,#189,.T.);
#138=ORIENTED_EDGE('',*,*,#173,.F.);
#139=ORIENTED_EDGE('',*,*,#164,.T.);
#140=ORIENTED_EDGE('',*,*,#186,.T.);
#141=ORIENTED_EDGE('',*,*,#175,.F.);
#142=ORIENTED_EDGE('',*,*,#162,.F.);
#143=ORIENTED_EDGE('',*,*,#172,.T.);
#144=ORIENTED_EDGE('',*,*,#190,.F.);
#145=ORIENTED_EDGE('',*,*,#187,.F.);
#146=ORIENTED_EDGE('',*,*,#178,.T.);
#147=ORIENTED_EDGE('',*,*,#171,.F.);
#148=ORIENTED_EDGE('',*,*,#170,.F.);
#149=ORIENTED_EDGE('',*,*,#188,.T.);
#150=ORIENTED_EDGE('',*,*,#190,.T.);
#151=ORIENTED_EDGE('',*,*,#191,.T.);
#152=ORIENTED_EDGE('',*,*,#192,.T.);
#153=ORIENTED_EDGE('',*,*,#193,.T.);
#154=ORIENTED_EDGE('',*,*,#194,.F.);
#155=ORIENTED_EDGE('',*,*,#192,.F.);
#156=ORIENTED_EDGE('',*,*,#194,.T.);
#157=ORIENTED_EDGE('',*,*,#193,.F.);
#158=ORIENTED_EDGE('',*,*,#191,.F.);
#159=ORIENTED_EDGE('',*,*,#195,.F.);
#160=ORIENTED_EDGE('',*,*,#195,.T.);
#161=EDGE_CURVE('',#196,#197,#224,.T.);
#162=EDGE_CURVE('',#196,#198,#72,.T.);
#163=EDGE_CURVE('',#198,#199,#225,.T.);
#164=EDGE_CURVE('',#197,#199,#73,.T.);
#165=EDGE_CURVE('',#200,#201,#53,.T.);
#166=EDGE_CURVE('',#200,#202,#226,.T.);
#167=EDGE_CURVE('',#203,#202,#74,.T.);
#168=EDGE_CURVE('',#204,#203,#227,.T.);
#169=EDGE_CURVE('',#204,#205,#54,.T.);
#170=EDGE_CURVE('',#205,#201,#75,.T.);
#171=EDGE_CURVE('',#201,#206,#228,.T.);
#172=EDGE_CURVE('',#196,#206,#229,.T.);
#173=EDGE_CURVE('',#197,#207,#55,.T.);
#174=EDGE_CURVE('',#207,#200,#56,.T.);
#175=EDGE_CURVE('',#203,#208,#230,.T.);
#176=EDGE_CURVE('',#208,#204,#57,.T.);
#177=EDGE_CURVE('',#209,#209,#76,.T.);
#178=EDGE_CURVE('',#210,#210,#77,.T.);
#179=EDGE_CURVE('',#211,#211,#78,.T.);
#180=EDGE_CURVE('',#212,#212,#79,.T.);
#181=EDGE_CURVE('',#213,#213,#80,.T.);
#182=EDGE_CURVE('',#214,#214,#81,.T.);
#183=EDGE_CURVE('',#215,#215,#82,.T.);
#184=EDGE_CURVE('',#216,#216,#83,.T.);
#185=EDGE_CURVE('',#202,#203,#84,.T.);
#186=EDGE_CURVE('',#199,#208,#58,.T.);
#187=EDGE_CURVE('',#198,#217,#231,.T.);
#188=EDGE_CURVE('',#205,#217,#232,.T.);
#189=EDGE_CURVE('',#202,#207,#233,.T.);
#190=EDGE_CURVE('',#217,#206,#85,.T.);
#191=EDGE_CURVE('',#218,#218,#86,.T.);
#192=EDGE_CURVE('',#219,#219,#87,.T.);
#193=EDGE_CURVE('',#220,#220,#88,.T.);
#194=EDGE_CURVE('',#221,#221,#89,.T.);
#195=EDGE_CURVE('',#222,#222,#90,.T.);
#196=VERTEX_POINT('',#528);
#197=VERTEX_POINT('',#529);
#198=VERTEX_POINT('',#531);
#199=VERTEX_POINT('',#537);
#200=VERTEX_POINT('',#541);
#201=VERTEX_POINT('',#542);
#202=VERTEX_POINT('',#551);
#203=VERTEX_POINT('',#553);
#204=VERTEX_POINT('',#562);
#205=VERTEX_POINT('',#564);
#206=VERTEX_POINT('',#572);
#207=VERTEX_POINT('',#579);
#208=VERTEX_POINT('',#592);
#209=VERTEX_POINT('',#596);
#210=VERTEX_POINT('',#599);
#211=VERTEX_POINT('',#602);
#212=VERTEX_POINT('',#604);
#213=VERTEX_POINT('',#607);
#214=VERTEX_POINT('',#610);
#215=VERTEX_POINT('',#613);
#216=VERTEX_POINT('',#617);
#217=VERTEX_POINT('',#627);
#218=VERTEX_POINT('',#651);
#219=VERTEX_POINT('',#653);
#220=VERTEX_POINT('',#656);
#221=VERTEX_POINT('',#659);
#222=VERTEX_POINT('',#665);
#223=VERTEX_POINT('',#667);
#224=B_SPLINE_CURVE_WITH_KNOTS('',3,(#523,#524,#525,#526,#527),
 .UNSPECIFIED.,.F.,.F.,(4,1,4),(9.82576184271977E-13,0.00151680942453576,
0.00303361884808895),.UNSPECIFIED.);
#225=B_SPLINE_CURVE_WITH_KNOTS('',3,(#532,#533,#534,#535,#536),
 .UNSPECIFIED.,.F.,.F.,(4,1,4),(9.82576184271977E-13,0.00151680942453576,
0.00303361884808895),.UNSPECIFIED.);
#226=B_SPLINE_CURVE_WITH_KNOTS('',3,(#543,#544,#545,#546,#547,#548,#549,
#550),.UNSPECIFIED.,.F.,.F.,(4,1,1,1,1,4),(4.57301174916103E-15,0.00350113704760682,
0.00525170557140795,0.00700227409520908,0.0105034111428113,0.0140045481904136),
 .UNSPECIFIED.);
#227=B_SPLINE_CURVE_WITH_KNOTS('',3,(#554,#555,#556,#557,#558,#559,#560,
#561),.UNSPECIFIED.,.F.,.F.,(4,1,1,1,1,4),(4.55906781992985E-15,0.00350113704760677,
0.00525170557140787,0.00700227409520897,0.0105034111428112,0.0140045481904134),
 .UNSPECIFIED.);
#228=B_SPLINE_CURVE_WITH_KNOTS('',3,(#567,#568,#569,#570,#571),
 .UNSPECIFIED.,.F.,.F.,(4,1,4),(3.21156539830053E-15,0.00151485226659218,
0.00302970453318114),.UNSPECIFIED.);
#229=B_SPLINE_CURVE_WITH_KNOTS('',3,(#573,#574,#575,#576,#577),
 .UNSPECIFIED.,.F.,.F.,(4,1,4),(0.,0.00641698609438286,0.0128339721887657),
 .UNSPECIFIED.);
#230=B_SPLINE_CURVE_WITH_KNOTS('',3,(#582,#583,#584,#585,#586,#587,#588,
#589,#590,#591),.UNSPECIFIED.,.F.,.F.,(4,1,1,1,1,1,1,4),(0.,0.00174805212315687,
0.00349610424631374,0.00524415636947061,0.00699220849262748,0.00874026061578435,
0.0104883127389412,0.013984416985255),.UNSPECIFIED.);
#231=B_SPLINE_CURVE_WITH_KNOTS('',3,(#622,#623,#624,#625,#626),
 .UNSPECIFIED.,.F.,.F.,(4,1,4),(0.,0.00641698609438286,0.0128339721887657),
 .UNSPECIFIED.);
#232=B_SPLINE_CURVE_WITH_KNOTS('',3,(#628,#629,#630,#631,#632),
 .UNSPECIFIED.,.F.,.F.,(4,1,4),(4.07055922402678E-15,0.00151485226659261,
0.00302970453318114),.UNSPECIFIED.);
#233=B_SPLINE_CURVE_WITH_KNOTS('',3,(#634,#635,#636,#637,#638,#639,#640,
#641,#642,#643),.UNSPECIFIED.,.F.,.F.,(4,1,1,1,1,1,1,4),(0.,0.00174805212315679,
0.00349610424631358,0.00524415636947036,0.00699220849262715,0.00874026061578394,
0.0104883127389407,0.0139844169852543),.UNSPECIFIED.);
#234=EDGE_LOOP('',(#91,#92,#93,#94));
#235=EDGE_LOOP('',(#95,#96,#97,#98,#99,#100));
#236=EDGE_LOOP('',(#101,#102,#103,#104,#105,#106));
#237=EDGE_LOOP('',(#107,#108,#109));
#238=EDGE_LOOP('',(#110));
#239=EDGE_LOOP('',(#111));
#240=EDGE_LOOP('',(#112));
#241=EDGE_LOOP('',(#113));
#242=EDGE_LOOP('',(#114));
#243=EDGE_LOOP('',(#115));
#244=EDGE_LOOP('',(#116));
#245=EDGE_LOOP('',(#117));
#246=EDGE_LOOP('',(#118));
#247=EDGE_LOOP('',(#119));
#248=EDGE_LOOP('',(#120));
#249=EDGE_LOOP('',(#121));
#250=EDGE_LOOP('',(#122));
#251=EDGE_LOOP('',(#123,#124));
#252=EDGE_LOOP('',(#125));
#253=EDGE_LOOP('',(#126));
#254=EDGE_LOOP('',(#127,#128,#129,#130,#131,#132));
#255=EDGE_LOOP('',(#133,#134,#135));
#256=EDGE_LOOP('',(#136,#137,#138,#139,#140,#141));
#257=EDGE_LOOP('',(#142,#143,#144,#145));
#258=EDGE_LOOP('',(#146));
#259=EDGE_LOOP('',(#147,#148,#149,#150));
#260=EDGE_LOOP('',(#151));
#261=EDGE_LOOP('',(#152));
#262=EDGE_LOOP('',(#153));
#263=EDGE_LOOP('',(#154));
#264=EDGE_LOOP('',(#155));
#265=EDGE_LOOP('',(#156));
#266=EDGE_LOOP('',(#157));
#267=EDGE_LOOP('',(#158));
#268=EDGE_LOOP('',(#159));
#269=EDGE_LOOP('',(#160));
#270=FACE_BOUND('',#234,.T.);
#271=FACE_BOUND('',#235,.T.);
#272=FACE_BOUND('',#236,.T.);
#273=FACE_BOUND('',#237,.T.);
#274=FACE_BOUND('',#238,.T.);
#275=FACE_BOUND('',#239,.T.);
#276=FACE_BOUND('',#240,.T.);
#277=FACE_BOUND('',#241,.T.);
#278=FACE_BOUND('',#242,.T.);
#279=FACE_BOUND('',#243,.T.);
#280=FACE_BOUND('',#244,.T.);
#281=FACE_BOUND('',#245,.T.);
#282=FACE_BOUND('',#246,.T.);
#283=FACE_BOUND('',#247,.T.);
#284=FACE_BOUND('',#248,.T.);
#285=FACE_BOUND('',#249,.T.);
#286=FACE_BOUND('',#250,.T.);
#287=FACE_BOUND('',#251,.T.);
#288=FACE_BOUND('',#252,.T.);
#289=FACE_BOUND('',#253,.T.);
#290=FACE_BOUND('',#254,.T.);
#291=FACE_BOUND('',#255,.T.);
#292=FACE_BOUND('',#256,.T.);
#293=FACE_BOUND('',#257,.T.);
#294=FACE_BOUND('',#258,.T.);
#295=FACE_BOUND('',#259,.T.);
#296=FACE_BOUND('',#260,.T.);
#297=FACE_BOUND('',#261,.T.);
#298=FACE_BOUND('',#262,.T.);
#299=FACE_BOUND('',#263,.T.);
#300=FACE_BOUND('',#264,.T.);
#301=FACE_BOUND('',#265,.T.);
#302=FACE_BOUND('',#266,.T.);
#303=FACE_BOUND('',#267,.T.);
#304=FACE_BOUND('',#268,.T.);
#305=FACE_BOUND('',#269,.T.);
#306=FACE_BOUND('',#18,.T.);
#307=TOROIDAL_SURFACE('',#372,7.25,2.);
#308=TOROIDAL_SURFACE('',#403,7.25,2.);
#309=ADVANCED_FACE('',(#270),#307,.T.);
#310=ADVANCED_FACE('',(#271),#65,.T.);
#311=ADVANCED_FACE('',(#272),#45,.F.);
#312=ADVANCED_FACE('',(#273),#66,.F.);
#313=ADVANCED_FACE('',(#274),#46,.F.);
#314=ADVANCED_FACE('',(#275),#47,.F.);
#315=ADVANCED_FACE('',(#276,#277),#37,.T.);
#316=ADVANCED_FACE('',(#278,#279),#67,.T.);
#317=ADVANCED_FACE('',(#280,#281),#38,.T.);
#318=ADVANCED_FACE('',(#282,#283),#48,.T.);
#319=ADVANCED_FACE('',(#284,#285),#68,.T.);
#320=ADVANCED_FACE('',(#286,#287),#39,.T.);
#321=ADVANCED_FACE('',(#288,#289),#40,.T.);
#322=ADVANCED_FACE('',(#290),#49,.T.);
#323=ADVANCED_FACE('',(#291),#69,.F.);
#324=ADVANCED_FACE('',(#292),#70,.T.);
#325=ADVANCED_FACE('',(#293,#294),#41,.T.);
#326=ADVANCED_FACE('',(#295),#308,.T.);
#327=ADVANCED_FACE('',(#296,#297),#71,.T.);
#328=ADVANCED_FACE('',(#298),#50,.F.);
#329=ADVANCED_FACE('',(#299,#300),#42,.T.);
#330=ADVANCED_FACE('',(#301,#302),#43,.T.);
#331=ADVANCED_FACE('',(#303),#51,.T.);
#332=ADVANCED_FACE('',(#304),#52,.T.);
#333=ADVANCED_FACE('',(#305,#306),#44,.T.);
#334=CLOSED_SHELL('',(#309,#310,#311,#312,#313,#314,#315,#316,#317,#318,
#319,#320,#321,#322,#323,#324,#325,#326));
#335=CLOSED_SHELL('',(#327,#328,#329,#330,#331));
#336=CLOSED_SHELL('',(#332,#333));
#337=STYLED_ITEM('',(#340),#360);
#338=STYLED_ITEM('',(#341),#361);
#339=STYLED_ITEM('',(#342),#362);
#340=PRESENTATION_STYLE_ASSIGNMENT((#343));
#341=PRESENTATION_STYLE_ASSIGNMENT((#344));
#342=PRESENTATION_STYLE_ASSIGNMENT((#345));
#343=SURFACE_STYLE_USAGE(.BOTH.,#346);
#344=SURFACE_STYLE_USAGE(.BOTH.,#347);
#345=SURFACE_STYLE_USAGE(.BOTH.,#348);
#346=SURFACE_SIDE_STYLE('',(#349));
#347=SURFACE_SIDE_STYLE('',(#350));
#348=SURFACE_SIDE_STYLE('',(#351));
#349=SURFACE_STYLE_FILL_AREA(#352);
#350=SURFACE_STYLE_FILL_AREA(#353);
#351=SURFACE_STYLE_FILL_AREA(#354);
#352=FILL_AREA_STYLE('',(#355));
#353=FILL_AREA_STYLE('',(#356));
#354=FILL_AREA_STYLE('',(#357));
#355=FILL_AREA_STYLE_COLOUR('',#358);
#356=FILL_AREA_STYLE_COLOUR('',#359);
#357=FILL_AREA_STYLE_COLOUR('',#358);
#358=COLOUR_RGB('',0.4999923706,0.4999923706,0.4999923706);
#359=COLOUR_RGB('',0.8000000119,0.8000000119,0.8000000119);
#360=MANIFOLD_SOLID_BREP('1',#334);
#361=MANIFOLD_SOLID_BREP('1',#335);
#362=MANIFOLD_SOLID_BREP('1',#336);
#363=SHAPE_DEFINITION_REPRESENTATION(#681,#367);
#364=SHAPE_DEFINITION_REPRESENTATION(#682,#368);
#365=SHAPE_DEFINITION_REPRESENTATION(#684,#369);
#366=SHAPE_DEFINITION_REPRESENTATION(#686,#370);
#367=SHAPE_REPRESENTATION('414 20.000',(#371,#404,#414,#418),#670);
#368=SHAPE_REPRESENTATION('414 20.000_PART1',(#371),#671);
#369=SHAPE_REPRESENTATION('414 20.000_PART2',(#371),#672);
#370=SHAPE_REPRESENTATION('414 20.000_PART3',(#371),#673);
#371=AXIS2_PLACEMENT_3D('',#521,#419,#420);
#372=AXIS2_PLACEMENT_3D('',#522,#421,#422);
#373=AXIS2_PLACEMENT_3D('',#530,#423,#424);
#374=AXIS2_PLACEMENT_3D('',#538,#425,#426);
#375=AXIS2_PLACEMENT_3D('',#539,#427,#428);
#376=AXIS2_PLACEMENT_3D('',#552,#430,#431);
#377=AXIS2_PLACEMENT_3D('',#565,#433,#434);
#378=AXIS2_PLACEMENT_3D('',#566,#435,#436);
#379=AXIS2_PLACEMENT_3D('',#581,#439,#440);
#380=AXIS2_PLACEMENT_3D('',#594,#442,#443);
#381=AXIS2_PLACEMENT_3D('',#595,#444,#445);
#382=AXIS2_PLACEMENT_3D('',#597,#446,#447);
#383=AXIS2_PLACEMENT_3D('',#598,#448,#449);
#384=AXIS2_PLACEMENT_3D('',#600,#450,#451);
#385=AXIS2_PLACEMENT_3D('',#601,#452,#453);
#386=AXIS2_PLACEMENT_3D('',#603,#454,#455);
#387=AXIS2_PLACEMENT_3D('',#605,#456,#457);
#388=AXIS2_PLACEMENT_3D('',#606,#458,#459);
#389=AXIS2_PLACEMENT_3D('',#608,#460,#461);
#390=AXIS2_PLACEMENT_3D('',#609,#462,#463);
#391=AXIS2_PLACEMENT_3D('',#611,#464,#465);
#392=AXIS2_PLACEMENT_3D('',#612,#466,#467);
#393=AXIS2_PLACEMENT_3D('',#614,#468,#469);
#394=AXIS2_PLACEMENT_3D('',#615,#470,#471);
#395=AXIS2_PLACEMENT_3D('',#616,#472,#473);
#396=AXIS2_PLACEMENT_3D('',#618,#474,#475);
#397=AXIS2_PLACEMENT_3D('',#619,#476,#477);
#398=AXIS2_PLACEMENT_3D('',#620,#478,#479);
#399=AXIS2_PLACEMENT_3D('',#633,#481,#482);
#400=AXIS2_PLACEMENT_3D('',#644,#483,#484);
#401=AXIS2_PLACEMENT_3D('',#645,#485,#486);
#402=AXIS2_PLACEMENT_3D('',#646,#487,#488);
#403=AXIS2_PLACEMENT_3D('',#647,#489,#490);
#404=AXIS2_PLACEMENT_3D('',#648,#491,#492);
#405=AXIS2_PLACEMENT_3D('',#649,#493,#494);
#406=AXIS2_PLACEMENT_3D('',#650,#495,#496);
#407=AXIS2_PLACEMENT_3D('',#652,#497,#498);
#408=AXIS2_PLACEMENT_3D('',#654,#499,#500);
#409=AXIS2_PLACEMENT_3D('',#655,#501,#502);
#410=AXIS2_PLACEMENT_3D('',#657,#503,#504);
#411=AXIS2_PLACEMENT_3D('',#658,#505,#506);
#412=AXIS2_PLACEMENT_3D('',#660,#507,#508);
#413=AXIS2_PLACEMENT_3D('',#661,#509,#510);
#414=AXIS2_PLACEMENT_3D('',#662,#511,#512);
#415=AXIS2_PLACEMENT_3D('',#663,#513,#514);
#416=AXIS2_PLACEMENT_3D('',#664,#515,#516);
#417=AXIS2_PLACEMENT_3D('',#666,#517,#518);
#418=AXIS2_PLACEMENT_3D('',#668,#519,#520);
#419=DIRECTION('',(0.,0.,1.));
#420=DIRECTION('',(1.,0.,0.));
#421=DIRECTION('',(0.,0.,-1.));
#422=DIRECTION('',(-1.,0.,0.));
#423=DIRECTION('',(0.,0.,-1.));
#424=DIRECTION('',(-1.,0.,0.));
#425=DIRECTION('',(0.,0.,-1.));
#426=DIRECTION('',(-1.,0.,0.));
#427=DIRECTION('',(0.,0.,1.));
#428=DIRECTION('',(-1.,0.,0.));
#429=DIRECTION('',(0.,0.,1.));
#430=DIRECTION('',(0.,0.,-1.));
#431=DIRECTION('',(-1.,0.,0.));
#432=DIRECTION('',(0.,0.,1.));
#433=DIRECTION('',(0.,0.,-1.));
#434=DIRECTION('',(-1.,0.,0.));
#435=DIRECTION('',(0.,1.,0.));
#436=DIRECTION('',(1.,0.,0.));
#437=DIRECTION('',(0.,0.,-1.));
#438=DIRECTION('',(1.,0.,0.));
#439=DIRECTION('',(-1.,0.,0.));
#440=DIRECTION('',(0.,0.,-1.));
#441=DIRECTION('',(1.,0.,0.));
#442=DIRECTION('',(0.,0.,1.));
#443=DIRECTION('',(1.,0.,0.));
#444=DIRECTION('',(0.,0.,-1.));
#445=DIRECTION('',(1.,0.,0.));
#446=DIRECTION('',(0.,0.,-1.));
#447=DIRECTION('',(0.,-1.,0.));
#448=DIRECTION('',(0.,0.,-1.));
#449=DIRECTION('',(-1.,0.,0.));
#450=DIRECTION('',(-2.74875717906698E-17,0.,1.));
#451=DIRECTION('',(1.,0.,2.74875717906698E-17));
#452=DIRECTION('',(0.,0.,-1.));
#453=DIRECTION('',(-1.,0.,0.));
#454=DIRECTION('',(0.,0.,-1.));
#455=DIRECTION('',(-1.,0.,0.));
#456=DIRECTION('',(0.,0.,1.));
#457=DIRECTION('',(-1.,0.,0.));
#458=DIRECTION('',(0.,0.,-1.));
#459=DIRECTION('',(-1.,0.,0.));
#460=DIRECTION('',(2.74807679362655E-17,0.,-1.));
#461=DIRECTION('',(-1.,0.,-2.74807679362655E-17));
#462=DIRECTION('',(0.,0.,-1.));
#463=DIRECTION('',(-1.,0.,0.));
#464=DIRECTION('',(0.,0.,1.));
#465=DIRECTION('',(1.,0.,0.));
#466=DIRECTION('',(0.,0.,-1.));
#467=DIRECTION('',(-1.,0.,0.));
#468=DIRECTION('',(0.,0.,1.));
#469=DIRECTION('',(-1.,0.,0.));
#470=DIRECTION('',(2.74792672589451E-17,0.,-1.));
#471=DIRECTION('',(-1.,0.,-2.74792672589451E-17));
#472=DIRECTION('',(0.,0.,-1.));
#473=DIRECTION('',(-1.,0.,0.));
#474=DIRECTION('',(0.,0.,-1.));
#475=DIRECTION('',(-1.,0.,0.));
#476=DIRECTION('',(0.,0.,-1.));
#477=DIRECTION('',(-1.,0.,0.));
#478=DIRECTION('',(0.,1.,0.));
#479=DIRECTION('',(1.,0.,0.));
#480=DIRECTION('',(0.,0.,-1.));
#481=DIRECTION('',(-1.,0.,0.));
#482=DIRECTION('',(0.,0.,-1.));
#483=DIRECTION('',(0.,0.,1.));
#484=DIRECTION('',(-1.,0.,0.));
#485=DIRECTION('',(3.90070953331974E-18,0.,-1.));
#486=DIRECTION('',(-1.,0.,-3.90070953331974E-18));
#487=DIRECTION('',(0.,0.,-1.));
#488=DIRECTION('',(-1.,0.,0.));
#489=DIRECTION('',(0.,0.,-1.));
#490=DIRECTION('',(-1.,0.,0.));
#491=DIRECTION('',(0.,0.,1.));
#492=DIRECTION('',(1.,0.,0.));
#493=DIRECTION('',(0.,0.,1.));
#494=DIRECTION('',(-1.,0.,0.));
#495=DIRECTION('',(0.,0.,-1.));
#496=DIRECTION('',(1.,0.,0.));
#497=DIRECTION('',(0.,0.,1.));
#498=DIRECTION('',(1.,0.,0.));
#499=DIRECTION('',(0.,0.,1.));
#500=DIRECTION('',(1.,0.,0.));
#501=DIRECTION('',(0.,0.,-1.));
#502=DIRECTION('',(1.,0.,0.));
#503=DIRECTION('',(0.,0.,1.));
#504=DIRECTION('',(0.,1.,0.));
#505=DIRECTION('',(0.,0.,-1.));
#506=DIRECTION('',(-1.,0.,0.));
#507=DIRECTION('',(-2.74837612171987E-17,0.,1.));
#508=DIRECTION('',(1.,0.,2.74837612171987E-17));
#509=DIRECTION('',(0.,0.,1.));
#510=DIRECTION('',(1.,0.,0.));
#511=DIRECTION('',(0.,0.,1.));
#512=DIRECTION('',(1.,0.,0.));
#513=DIRECTION('',(0.,0.,1.));
#514=DIRECTION('',(1.,0.,0.));
#515=DIRECTION('',(0.,0.,-1.));
#516=DIRECTION('',(1.,0.,0.));
#517=DIRECTION('',(-2.74837612171987E-17,0.,1.));
#518=DIRECTION('',(1.,0.,2.74837612171987E-17));
#519=DIRECTION('',(0.,0.,1.));
#520=DIRECTION('',(1.,0.,0.));
#521=CARTESIAN_POINT('',(0.,0.,0.));
#522=CARTESIAN_POINT('',(1.10116804270757E-13,0.,90.9825049285758));
#523=CARTESIAN_POINT('',(-6.40886078300691,-3.95,92.9630410660589));
#524=CARTESIAN_POINT('',(-6.91750671150174,-3.95,92.90218563315));
#525=CARTESIAN_POINT('',(-7.89806408521703,-3.95,92.4864906717301));
#526=CARTESIAN_POINT('',(-8.36420946653049,-3.95,91.4970849603331));
#527=CARTESIAN_POINT('',(-8.36420946653049,-3.95,90.9825049285758));
#528=CARTESIAN_POINT('',(-6.40886078228123,-3.95,92.9630410599935));
#529=CARTESIAN_POINT('',(-8.36420946653548,-3.950000000005,90.9825049285808));
#530=CARTESIAN_POINT('',(1.01101168042708E-11,0.,92.9630410660689));
#531=CARTESIAN_POINT('',(-6.40886078228123,3.95,92.9630410599935));
#532=CARTESIAN_POINT('',(-6.40886078300691,3.95,92.9630410660589));
#533=CARTESIAN_POINT('',(-6.91750671150174,3.95,92.90218563315));
#534=CARTESIAN_POINT('',(-7.89806408521703,3.95,92.4864906717301));
#535=CARTESIAN_POINT('',(-8.36420946653049,3.95,91.4970849603331));
#536=CARTESIAN_POINT('',(-8.36420946653049,3.95,90.9825049285758));
#537=CARTESIAN_POINT('',(-8.36420946653548,3.950000000005,90.9825049285808));
#538=CARTESIAN_POINT('',(1.01101168042708E-11,0.,90.9825049285858));
#539=CARTESIAN_POINT('',(1.10116804270757E-13,0.,-2.57726114879989));
#540=CARTESIAN_POINT('',(8.3642094665407,-3.95000000001,-2.57726114880989));
#541=CARTESIAN_POINT('',(8.3642094665357,-3.950000000005,81.5955918205127));
#542=CARTESIAN_POINT('',(8.3642094665407,-3.950000000005,90.9825049285808));
#543=CARTESIAN_POINT('',(8.3642094665307,-3.95,81.5955918205077));
#544=CARTESIAN_POINT('',(8.36420946653071,-3.94999999999998,80.412249952996));
#545=CARTESIAN_POINT('',(8.17375365461822,-4.41567735466431,78.6691124088856));
#546=CARTESIAN_POINT('',(7.32006170727032,-5.70787477483001,76.8671557707336));
#547=CARTESIAN_POINT('',(5.98937771257402,-7.18799373224154,75.5695807857485));
#548=CARTESIAN_POINT('',(3.52196392205139,-8.80077296195612,74.8909531543));
#549=CARTESIAN_POINT('',(1.18046847766521,-9.25,74.8051573719616));
#550=CARTESIAN_POINT('',(1.0945593778259E-13,-9.25,74.8051573719616));
#551=CARTESIAN_POINT('',(5.110116749618E-12,-9.25000000514838,74.8051573706727));
#552=CARTESIAN_POINT('',(1.01101168042708E-11,0.,74.8051573693838));
#553=CARTESIAN_POINT('',(5.11011674961816E-12,9.25000000514858,74.8051573706728));
#554=CARTESIAN_POINT('',(8.3642094665307,3.95,81.5955918205076));
#555=CARTESIAN_POINT('',(8.3642094665307,3.95000000000002,80.4122499529959));
#556=CARTESIAN_POINT('',(8.17375365461819,4.41567735466437,78.6691124088855));
#557=CARTESIAN_POINT('',(7.32006170727027,5.70787477483007,76.8671557707336));
#558=CARTESIAN_POINT('',(5.98937771257395,7.18799373224159,75.5695807857485));
#559=CARTESIAN_POINT('',(3.52196392205135,8.80077296195613,74.8909531543002));
#560=CARTESIAN_POINT('',(1.1804684776652,9.25,74.8051573719617));
#561=CARTESIAN_POINT('',(1.09490803449833E-13,9.25,74.8051573719617));
#562=CARTESIAN_POINT('',(8.3642094665357,3.950000000005,81.5955918205126));
#563=CARTESIAN_POINT('',(8.3642094665407,3.95000000001,-2.57726114880989));
#564=CARTESIAN_POINT('',(8.3642094665357,3.950000000005,90.9825049285808));
#565=CARTESIAN_POINT('',(1.01101168042708E-11,0.,90.9825049285858));
#566=CARTESIAN_POINT('',(-14.9999999999999,-3.95,81.5955918205076));
#567=CARTESIAN_POINT('',(8.3642094665307,-3.95,90.9825049285758));
#568=CARTESIAN_POINT('',(8.3642094665307,-3.95,91.495008047228));
#569=CARTESIAN_POINT('',(7.90319955133612,-3.95,92.4831007852453));
#570=CARTESIAN_POINT('',(6.91629227684192,-3.95,92.9023309305816));
#571=CARTESIAN_POINT('',(6.40886078300713,-3.95,92.9630410660589));
#572=CARTESIAN_POINT('',(6.40886078115868,-3.95,92.9630410599985));
#573=CARTESIAN_POINT('',(-6.40886078155555,-3.95,92.9630410539281));
#574=CARTESIAN_POINT('',(-4.28171109871033,-3.95,93.2175375692596));
#575=CARTESIAN_POINT('',(-0.0187871195380532,-3.95,93.713992401753));
#576=CARTESIAN_POINT('',(4.27576901421865,-3.95,93.2182484923363));
#577=CARTESIAN_POINT('',(6.40886078155577,-3.95,92.9630410539281));
#578=CARTESIAN_POINT('',(-8.36420946654048,-3.95000000001,-2.57726114880989));
#579=CARTESIAN_POINT('',(-8.36420946653312,-3.95000000001,81.5955918205127));
#580=CARTESIAN_POINT('',(-15.0000000000099,-3.95000000001,81.5955918205177));
#581=CARTESIAN_POINT('',(-14.9999999999999,10.95,81.5955918205077));
#582=CARTESIAN_POINT('',(1.10116694965469E-13,9.25,74.8051573719617));
#583=CARTESIAN_POINT('',(-0.590795123825077,9.25,74.8051573719617));
#584=CARTESIAN_POINT('',(-1.74957670738729,9.1397758197478,74.8311450841241));
#585=CARTESIAN_POINT('',(-3.4523647353776,8.64078410731616,74.9762936935226));
#586=CARTESIAN_POINT('',(-4.98087199843553,7.8563952893845,75.2892751542367));
#587=CARTESIAN_POINT('',(-6.3106633522641,6.82671272059802,75.8861996394597));
#588=CARTESIAN_POINT('',(-7.31296755226059,5.71782152810619,76.8570245328925));
#589=CARTESIAN_POINT('',(-8.17117892026972,4.42096956661602,78.6550340159632));
#590=CARTESIAN_POINT('',(-8.36420946653048,3.95000000000002,80.4093054189118));
#591=CARTESIAN_POINT('',(-8.36420946653049,3.95,81.5955918205076));
#592=CARTESIAN_POINT('',(-8.36420946653548,3.950000000005,81.5955918205126));
#593=CARTESIAN_POINT('',(-15.0000000000099,3.95000000001,81.5955918205176));
#594=CARTESIAN_POINT('',(1.10116804270757E-13,0.,-30.));
#595=CARTESIAN_POINT('',(1.01101168042708E-11,0.,-30.00000000001));
#596=CARTESIAN_POINT('',(10.0000000000101,0.,-30.00000000001));
#597=CARTESIAN_POINT('',(1.10116804270757E-13,5.04870979341448E-29,94.));
#598=CARTESIAN_POINT('',(1.01101168042708E-11,0.,94.00000000001));
#599=CARTESIAN_POINT('',(-0.14999999998989,0.,94.00000000001));
#600=CARTESIAN_POINT('',(1.10116804270757E-13,0.,-7.3));
#601=CARTESIAN_POINT('',(1.01101168042708E-11,0.,-7.30000000001));
#602=CARTESIAN_POINT('',(-9.74999999998989,0.,-7.30000000001));
#603=CARTESIAN_POINT('',(1.01101168042708E-11,0.,-5.00000000001));
#604=CARTESIAN_POINT('',(-12.0499999999899,0.,-5.00000000001));
#605=CARTESIAN_POINT('',(1.10116804270757E-13,0.,-177.));
#606=CARTESIAN_POINT('',(1.01101168042708E-11,0.,-21.75000000001));
#607=CARTESIAN_POINT('',(-9.74999999998989,0.,-21.75000000001));
#608=CARTESIAN_POINT('',(1.10116804270757E-13,0.,-22.));
#609=CARTESIAN_POINT('',(1.01101168042708E-11,0.,-22.00000000001));
#610=CARTESIAN_POINT('',(-9.99999999998989,0.,-22.00000000001));
#611=CARTESIAN_POINT('',(1.10116804270757E-13,12.05,-5.));
#612=CARTESIAN_POINT('',(1.01101168042708E-11,0.,-5.00000000001005));
#613=CARTESIAN_POINT('',(-12.0379960999899,0.,-5.00000000001005));
#614=CARTESIAN_POINT('',(1.10116804270757E-13,0.,-177.));
#615=CARTESIAN_POINT('',(1.10116804270757E-13,0.,74.));
#616=CARTESIAN_POINT('',(1.10116804269302E-13,0.,74.00000005294));
#617=CARTESIAN_POINT('',(-10.0551573470599,0.,74.00000005294));
#618=CARTESIAN_POINT('',(1.01101168042708E-11,0.,74.8051573693838));
#619=CARTESIAN_POINT('',(1.10116804270757E-13,0.,-5.00000000000005));
#620=CARTESIAN_POINT('',(-14.9999999999999,3.95,81.5955918205076));
#621=CARTESIAN_POINT('',(-8.36420946654048,3.95000000001,-2.57726114880989));
#622=CARTESIAN_POINT('',(-6.40886078155555,3.95,92.9630410539281));
#623=CARTESIAN_POINT('',(-4.28171109871033,3.95,93.2175375692596));
#624=CARTESIAN_POINT('',(-0.0187871195380532,3.95,93.713992401753));
#625=CARTESIAN_POINT('',(4.27576901421865,3.95,93.2182484923363));
#626=CARTESIAN_POINT('',(6.40886078155577,3.95,92.9630410539281));
#627=CARTESIAN_POINT('',(6.40886078115868,3.95,92.9630410599985));
#628=CARTESIAN_POINT('',(8.3642094665307,3.95,90.9825049285758));
#629=CARTESIAN_POINT('',(8.3642094665307,3.95,91.4950080472279));
#630=CARTESIAN_POINT('',(7.90319955133557,3.95,92.483100785246));
#631=CARTESIAN_POINT('',(6.91629227684178,3.95,92.9023309305816));
#632=CARTESIAN_POINT('',(6.40886078300713,3.95,92.9630410660589));
#633=CARTESIAN_POINT('',(-14.9999999999999,-10.95,81.5955918205076));
#634=CARTESIAN_POINT('',(1.10116694965469E-13,-9.25,74.8051573719616));
#635=CARTESIAN_POINT('',(-0.590795123825049,-9.25,74.8051573719616));
#636=CARTESIAN_POINT('',(-1.74957670738721,-9.13977581974781,74.831145084124));
#637=CARTESIAN_POINT('',(-3.45236473537745,-8.64078410731622,74.9762936935225));
#638=CARTESIAN_POINT('',(-4.98087199843532,-7.85639528938462,75.2892751542366));
#639=CARTESIAN_POINT('',(-6.31066335226389,-6.82671272059822,75.8861996394595));
#640=CARTESIAN_POINT('',(-7.3129675522604,-5.71782152810644,76.8570245328922));
#641=CARTESIAN_POINT('',(-8.1711789202696,-4.42096956661628,78.6550340159624));
#642=CARTESIAN_POINT('',(-8.36420946653049,-3.94999999999998,80.409305418912));
#643=CARTESIAN_POINT('',(-8.36420946653049,-3.95,81.5955918205077));
#644=CARTESIAN_POINT('',(1.10116804270757E-13,0.,-2.57726114879989));
#645=CARTESIAN_POINT('',(1.10116804270757E-13,0.,94.));
#646=CARTESIAN_POINT('',(1.01101168042708E-11,0.,92.9630410660689));
#647=CARTESIAN_POINT('',(1.10116804270757E-13,0.,90.9825049285758));
#648=CARTESIAN_POINT('',(0.,0.,0.));
#649=CARTESIAN_POINT('',(1.10116804270757E-13,0.,-177.));
#650=CARTESIAN_POINT('',(1.01101168042708E-11,0.,-30.00000000001));
#651=CARTESIAN_POINT('',(10.0000000000101,0.,-30.00000000001));
#652=CARTESIAN_POINT('',(1.10116804270757E-13,-1.66890326576784E-14,-114.999999631538));
#653=CARTESIAN_POINT('',(10.0000000000001,-1.66890326576784E-14,-114.999999631538));
#654=CARTESIAN_POINT('',(1.10116804270757E-13,0.,-176.9));
#655=CARTESIAN_POINT('',(1.01101168042708E-11,0.,-176.90000000001));
#656=CARTESIAN_POINT('',(0.10000000001011,0.,-176.90000000001));
#657=CARTESIAN_POINT('',(1.10116804270757E-13,-1.66890326576784E-14,-174.007308697339));
#658=CARTESIAN_POINT('',(1.10189002398474E-13,0.,-169.736937672276));
#659=CARTESIAN_POINT('',(-7.26306233243947,0.,-169.736937672276));
#660=CARTESIAN_POINT('',(1.10116804270757E-13,0.,-167.11));
#661=CARTESIAN_POINT('',(1.10116804270757E-13,0.,-30.));
#662=CARTESIAN_POINT('',(0.,0.,0.));
#663=CARTESIAN_POINT('',(1.10116804270757E-13,0.,-176.9));
#664=CARTESIAN_POINT('',(1.01101168042708E-11,0.,-176.90000000001));
#665=CARTESIAN_POINT('',(0.10000000001011,0.,-176.90000000001));
#666=CARTESIAN_POINT('',(1.10116804270757E-13,0.,-167.11));
#667=CARTESIAN_POINT('',(1.10116804270757E-13,0.,-177.));
#668=CARTESIAN_POINT('',(0.,0.,0.));
#669=MECHANICAL_DESIGN_GEOMETRIC_PRESENTATION_REPRESENTATION('',(#337,#338,
#339),#670);
#670=(
GEOMETRIC_REPRESENTATION_CONTEXT(3)
GLOBAL_UNCERTAINTY_ASSIGNED_CONTEXT((#674))
GLOBAL_UNIT_ASSIGNED_CONTEXT((#680,#679,#678))
REPRESENTATION_CONTEXT('414 20.000','TOP_LEVEL_ASSEMBLY_PART')
);
#671=(
GEOMETRIC_REPRESENTATION_CONTEXT(3)
GLOBAL_UNCERTAINTY_ASSIGNED_CONTEXT((#675))
GLOBAL_UNIT_ASSIGNED_CONTEXT((#680,#679,#678))
REPRESENTATION_CONTEXT('414 20.000_PART1','COMPONENT_PART')
);
#672=(
GEOMETRIC_REPRESENTATION_CONTEXT(3)
GLOBAL_UNCERTAINTY_ASSIGNED_CONTEXT((#676))
GLOBAL_UNIT_ASSIGNED_CONTEXT((#680,#679,#678))
REPRESENTATION_CONTEXT('414 20.000_PART2','COMPONENT_PART')
);
#673=(
GEOMETRIC_REPRESENTATION_CONTEXT(3)
GLOBAL_UNCERTAINTY_ASSIGNED_CONTEXT((#677))
GLOBAL_UNIT_ASSIGNED_CONTEXT((#680,#679,#678))
REPRESENTATION_CONTEXT('414 20.000_PART3','COMPONENT_PART')
);
#674=UNCERTAINTY_MEASURE_WITH_UNIT(LENGTH_MEASURE(1.E-5),#680,
'DISTANCE_ACCURACY_VALUE','Maximum Tolerance applied to model');
#675=UNCERTAINTY_MEASURE_WITH_UNIT(LENGTH_MEASURE(1.E-5),#680,
'DISTANCE_ACCURACY_VALUE','Maximum Tolerance applied to model');
#676=UNCERTAINTY_MEASURE_WITH_UNIT(LENGTH_MEASURE(1.E-5),#680,
'DISTANCE_ACCURACY_VALUE','Maximum Tolerance applied to model');
#677=UNCERTAINTY_MEASURE_WITH_UNIT(LENGTH_MEASURE(1.E-5),#680,
'DISTANCE_ACCURACY_VALUE','Maximum Tolerance applied to model');
#678=(
NAMED_UNIT(*)
SI_UNIT($,.STERADIAN.)
SOLID_ANGLE_UNIT()
);
#679=(
NAMED_UNIT(*)
PLANE_ANGLE_UNIT()
SI_UNIT($,.RADIAN.)
);
#680=(
LENGTH_UNIT()
NAMED_UNIT(*)
SI_UNIT(.MILLI.,.METRE.)
);
#681=PRODUCT_DEFINITION_SHAPE('','',#688);
#682=PRODUCT_DEFINITION_SHAPE('','',#689);
#683=PRODUCT_DEFINITION_SHAPE(' ','NAUO PRDDFN',#22);
#684=PRODUCT_DEFINITION_SHAPE('','',#690);
#685=PRODUCT_DEFINITION_SHAPE(' ','NAUO PRDDFN',#23);
#686=PRODUCT_DEFINITION_SHAPE('','',#691);
#687=PRODUCT_DEFINITION_SHAPE(' ','NAUO PRDDFN',#24);
#688=PRODUCT_DEFINITION('','',#696,#692);
#689=PRODUCT_DEFINITION('','',#697,#693);
#690=PRODUCT_DEFINITION('','',#698,#694);
#691=PRODUCT_DEFINITION('','',#699,#695);
#692=PRODUCT_DEFINITION_CONTEXT('',#717,'design');
#693=PRODUCT_DEFINITION_CONTEXT('',#717,'design');
#694=PRODUCT_DEFINITION_CONTEXT('',#717,'design');
#695=PRODUCT_DEFINITION_CONTEXT('',#717,'design');
#696=PRODUCT_DEFINITION_FORMATION_WITH_SPECIFIED_SOURCE('','',#704,
 .NOT_KNOWN.);
#697=PRODUCT_DEFINITION_FORMATION_WITH_SPECIFIED_SOURCE('','',#705,
 .NOT_KNOWN.);
#698=PRODUCT_DEFINITION_FORMATION_WITH_SPECIFIED_SOURCE('','',#706,
 .NOT_KNOWN.);
#699=PRODUCT_DEFINITION_FORMATION_WITH_SPECIFIED_SOURCE('','',#707,
 .NOT_KNOWN.);
#700=PRODUCT_RELATED_PRODUCT_CATEGORY('','',(#704));
#701=PRODUCT_RELATED_PRODUCT_CATEGORY('','',(#705));
#702=PRODUCT_RELATED_PRODUCT_CATEGORY('','',(#706));
#703=PRODUCT_RELATED_PRODUCT_CATEGORY('','',(#707));
#704=PRODUCT('414 20.000','414 20.000','414 20.000',(#712));
#705=PRODUCT('414 20.000_PART1','414 20.000_PART1','414 20.000_PART1',(#713));
#706=PRODUCT('414 20.000_PART2','414 20.000_PART2','414 20.000_PART2',(#714));
#707=PRODUCT('414 20.000_PART3','414 20.000_PART3','414 20.000_PART3',(#715));
#708=PRODUCT_CATEGORY('','');
#709=PRODUCT_CATEGORY('','');
#710=PRODUCT_CATEGORY('','');
#711=PRODUCT_CATEGORY('','');
#712=PRODUCT_CONTEXT('',#717,'mechanical');
#713=PRODUCT_CONTEXT('',#717,'mechanical');
#714=PRODUCT_CONTEXT('',#717,'mechanical');
#715=PRODUCT_CONTEXT('',#717,'mechanical');
#716=APPLICATION_PROTOCOL_DEFINITION('international standard',
'automotive_design',2010,#717);
#717=APPLICATION_CONTEXT(
'core data for automotive mechanical design processes');
ENDSEC;
END-ISO-10303-21;
