ISO-10303-21;
HEADER;
/* Generated by software containing ST-Developer
 * from STEP Tools, Inc. (www.steptools.com) 
 */
/* OPTION: using custom renumber hook */

FILE_DESCRIPTION(
/* description */ ('STEP AP214'),
/* implementation_level */ '2;1');

FILE_NAME(
/* name */ '419 5.000',
/* time_stamp */ '2026-05-15T11:06:51+02:00',
/* author */ ('License CC BY-ND 4.0'),
/* organization */ ('CADENAS'),
/* preprocessor_version */ 'ST-DEVELOPER v20',
/* originating_system */ 'PARTsolutions',
/* authorisation */ '  ');

FILE_SCHEMA (('AUTOMOTIVE_DESIGN {1 0 10303 214 3 1 1}'));
ENDSEC;

DATA;
#10=PROPERTY_DEFINITION_REPRESENTATION(#14,#12);
#11=PROPERTY_DEFINITION_REPRESENTATION(#15,#13);
#12=REPRESENTATION('',(#16),#356);
#13=REPRESENTATION('',(#17),#356);
#14=PROPERTY_DEFINITION('pmi validation property','',#367);
#15=PROPERTY_DEFINITION('pmi validation property','',#367);
#16=VALUE_REPRESENTATION_ITEM('number of annotations',COUNT_MEASURE(0.));
#17=VALUE_REPRESENTATION_ITEM('number of views',COUNT_MEASURE(0.));
#18=VERTEX_LOOP('',#95);
#19=VERTEX_LOOP('',#97);
#20=CONTEXT_DEPENDENT_SHAPE_REPRESENTATION(#26,#369);
#21=CONTEXT_DEPENDENT_SHAPE_REPRESENTATION(#27,#371);
#22=CONTEXT_DEPENDENT_SHAPE_REPRESENTATION(#28,#373);
#23=NEXT_ASSEMBLY_USAGE_OCCURRENCE('NAUO1','419 5.000_PART1',
'419 5.000_PART1',#374,#375,'');
#24=NEXT_ASSEMBLY_USAGE_OCCURRENCE('NAUO2','419 5.000_PART2',
'419 5.000_PART2',#374,#376,'');
#25=NEXT_ASSEMBLY_USAGE_OCCURRENCE('NAUO3','419 5.000_PART3',
'419 5.000_PART3',#374,#377,'');
#26=(
REPRESENTATION_RELATIONSHIP(' ',' ',#214,#213)
REPRESENTATION_RELATIONSHIP_WITH_TRANSFORMATION(#29)
SHAPE_REPRESENTATION_RELATIONSHIP()
);
#27=(
REPRESENTATION_RELATIONSHIP(' ',' ',#215,#213)
REPRESENTATION_RELATIONSHIP_WITH_TRANSFORMATION(#30)
SHAPE_REPRESENTATION_RELATIONSHIP()
);
#28=(
REPRESENTATION_RELATIONSHIP(' ',' ',#216,#213)
REPRESENTATION_RELATIONSHIP_WITH_TRANSFORMATION(#31)
SHAPE_REPRESENTATION_RELATIONSHIP()
);
#29=ITEM_DEFINED_TRANSFORMATION(' ',' ',#217,#231);
#30=ITEM_DEFINED_TRANSFORMATION(' ',' ',#217,#243);
#31=ITEM_DEFINED_TRANSFORMATION(' ',' ',#217,#247);
#32=SHAPE_REPRESENTATION_RELATIONSHIP('','',#214,#35);
#33=SHAPE_REPRESENTATION_RELATIONSHIP('','',#215,#36);
#34=SHAPE_REPRESENTATION_RELATIONSHIP('','',#216,#37);
#35=ADVANCED_BREP_SHAPE_REPRESENTATION('',(#206),#357);
#36=ADVANCED_BREP_SHAPE_REPRESENTATION('',(#207),#358);
#37=ADVANCED_BREP_SHAPE_REPRESENTATION('',(#208),#359);
#38=CYLINDRICAL_SURFACE('',#223,2.5);
#39=CYLINDRICAL_SURFACE('',#228,2.4975);
#40=CYLINDRICAL_SURFACE('',#232,2.5);
#41=CONICAL_SURFACE('',#220,2.5,0.7853981625);
#42=CONICAL_SURFACE('',#226,2.5,1.5533430325);
#43=CONICAL_SURFACE('',#230,2.4975,1.5533430325);
#44=CONICAL_SURFACE('',#239,2.4995666,0.2617993875);
#45=CONICAL_SURFACE('',#241,2.4998254,0.0174532925);
#46=CONICAL_SURFACE('',#242,2.,0.7853981625);
#47=CONICAL_SURFACE('',#246,1.,0.7853981625);
#48=ORIENTED_EDGE('',*,*,#72,.F.);
#49=ORIENTED_EDGE('',*,*,#73,.F.);
#50=ORIENTED_EDGE('',*,*,#74,.F.);
#51=ORIENTED_EDGE('',*,*,#75,.T.);
#52=ORIENTED_EDGE('',*,*,#73,.T.);
#53=ORIENTED_EDGE('',*,*,#74,.T.);
#54=ORIENTED_EDGE('',*,*,#72,.T.);
#55=ORIENTED_EDGE('',*,*,#76,.F.);
#56=ORIENTED_EDGE('',*,*,#76,.T.);
#57=ORIENTED_EDGE('',*,*,#77,.F.);
#58=ORIENTED_EDGE('',*,*,#77,.T.);
#59=ORIENTED_EDGE('',*,*,#75,.F.);
#60=ORIENTED_EDGE('',*,*,#78,.T.);
#61=ORIENTED_EDGE('',*,*,#79,.F.);
#62=ORIENTED_EDGE('',*,*,#79,.T.);
#63=ORIENTED_EDGE('',*,*,#80,.F.);
#64=ORIENTED_EDGE('',*,*,#81,.T.);
#65=ORIENTED_EDGE('',*,*,#80,.T.);
#66=ORIENTED_EDGE('',*,*,#82,.F.);
#67=ORIENTED_EDGE('',*,*,#82,.T.);
#68=ORIENTED_EDGE('',*,*,#78,.F.);
#69=ORIENTED_EDGE('',*,*,#81,.F.);
#70=ORIENTED_EDGE('',*,*,#83,.T.);
#71=ORIENTED_EDGE('',*,*,#83,.F.);
#72=EDGE_CURVE('',#84,#84,#98,.T.);
#73=EDGE_CURVE('',#85,#85,#99,.T.);
#74=EDGE_CURVE('',#86,#86,#100,.T.);
#75=EDGE_CURVE('',#87,#87,#101,.T.);
#76=EDGE_CURVE('',#88,#88,#102,.T.);
#77=EDGE_CURVE('',#89,#89,#103,.T.);
#78=EDGE_CURVE('',#90,#90,#104,.T.);
#79=EDGE_CURVE('',#91,#91,#105,.T.);
#80=EDGE_CURVE('',#92,#92,#106,.T.);
#81=EDGE_CURVE('',#93,#93,#107,.T.);
#82=EDGE_CURVE('',#94,#94,#108,.T.);
#83=EDGE_CURVE('',#96,#96,#109,.T.);
#84=VERTEX_POINT('',#313);
#85=VERTEX_POINT('',#316);
#86=VERTEX_POINT('',#318);
#87=VERTEX_POINT('',#321);
#88=VERTEX_POINT('',#325);
#89=VERTEX_POINT('',#328);
#90=VERTEX_POINT('',#333);
#91=VERTEX_POINT('',#335);
#92=VERTEX_POINT('',#339);
#93=VERTEX_POINT('',#341);
#94=VERTEX_POINT('',#344);
#95=VERTEX_POINT('',#347);
#96=VERTEX_POINT('',#351);
#97=VERTEX_POINT('',#353);
#98=CIRCLE('',#219,2.5);
#99=CIRCLE('',#221,2.5);
#100=CIRCLE('',#222,2.);
#101=CIRCLE('',#224,2.5);
#102=CIRCLE('',#227,2.4975);
#103=CIRCLE('',#229,2.4975);
#104=CIRCLE('',#233,2.5);
#105=CIRCLE('',#234,2.5);
#106=CIRCLE('',#237,2.4995666);
#107=CIRCLE('',#238,1.0000000017949);
#108=CIRCLE('',#240,2.49982539867291);
#109=CIRCLE('',#245,1.);
#110=EDGE_LOOP('',(#48));
#111=EDGE_LOOP('',(#49));
#112=EDGE_LOOP('',(#50));
#113=EDGE_LOOP('',(#51));
#114=EDGE_LOOP('',(#52));
#115=EDGE_LOOP('',(#53));
#116=EDGE_LOOP('',(#54));
#117=EDGE_LOOP('',(#55));
#118=EDGE_LOOP('',(#56));
#119=EDGE_LOOP('',(#57));
#120=EDGE_LOOP('',(#58));
#121=EDGE_LOOP('',(#59));
#122=EDGE_LOOP('',(#60));
#123=EDGE_LOOP('',(#61));
#124=EDGE_LOOP('',(#62));
#125=EDGE_LOOP('',(#63));
#126=EDGE_LOOP('',(#64));
#127=EDGE_LOOP('',(#65));
#128=EDGE_LOOP('',(#66));
#129=EDGE_LOOP('',(#67));
#130=EDGE_LOOP('',(#68));
#131=EDGE_LOOP('',(#69));
#132=EDGE_LOOP('',(#70));
#133=EDGE_LOOP('',(#71));
#134=FACE_BOUND('',#110,.T.);
#135=FACE_BOUND('',#111,.T.);
#136=FACE_BOUND('',#112,.T.);
#137=FACE_BOUND('',#113,.T.);
#138=FACE_BOUND('',#114,.T.);
#139=FACE_BOUND('',#115,.T.);
#140=FACE_BOUND('',#116,.T.);
#141=FACE_BOUND('',#117,.T.);
#142=FACE_BOUND('',#118,.T.);
#143=FACE_BOUND('',#119,.T.);
#144=FACE_BOUND('',#120,.T.);
#145=FACE_BOUND('',#121,.T.);
#146=FACE_BOUND('',#122,.T.);
#147=FACE_BOUND('',#123,.T.);
#148=FACE_BOUND('',#124,.T.);
#149=FACE_BOUND('',#125,.T.);
#150=FACE_BOUND('',#126,.T.);
#151=FACE_BOUND('',#127,.T.);
#152=FACE_BOUND('',#128,.T.);
#153=FACE_BOUND('',#129,.T.);
#154=FACE_BOUND('',#130,.T.);
#155=FACE_BOUND('',#131,.T.);
#156=FACE_BOUND('',#18,.T.);
#157=FACE_BOUND('',#132,.T.);
#158=FACE_BOUND('',#133,.T.);
#159=FACE_BOUND('',#19,.T.);
#160=PLANE('',#218);
#161=PLANE('',#225);
#162=PLANE('',#235);
#163=PLANE('',#236);
#164=PLANE('',#244);
#165=ADVANCED_FACE('',(#134),#160,.F.);
#166=ADVANCED_FACE('',(#135,#136),#41,.T.);
#167=ADVANCED_FACE('',(#137,#138),#38,.T.);
#168=ADVANCED_FACE('',(#139),#161,.T.);
#169=ADVANCED_FACE('',(#140,#141),#42,.T.);
#170=ADVANCED_FACE('',(#142,#143),#39,.T.);
#171=ADVANCED_FACE('',(#144,#145),#43,.T.);
#172=ADVANCED_FACE('',(#146,#147),#40,.T.);
#173=ADVANCED_FACE('',(#148),#162,.T.);
#174=ADVANCED_FACE('',(#149,#150),#163,.F.);
#175=ADVANCED_FACE('',(#151,#152),#44,.T.);
#176=ADVANCED_FACE('',(#153,#154),#45,.T.);
#177=ADVANCED_FACE('',(#155,#156),#46,.F.);
#178=ADVANCED_FACE('',(#157),#164,.T.);
#179=ADVANCED_FACE('',(#158,#159),#47,.T.);
#180=CLOSED_SHELL('',(#165,#166,#167,#168,#169,#170,#171));
#181=CLOSED_SHELL('',(#172,#173,#174,#175,#176,#177));
#182=CLOSED_SHELL('',(#178,#179));
#183=STYLED_ITEM('',(#186),#206);
#184=STYLED_ITEM('',(#187),#207);
#185=STYLED_ITEM('',(#188),#208);
#186=PRESENTATION_STYLE_ASSIGNMENT((#189));
#187=PRESENTATION_STYLE_ASSIGNMENT((#190));
#188=PRESENTATION_STYLE_ASSIGNMENT((#191));
#189=SURFACE_STYLE_USAGE(.BOTH.,#192);
#190=SURFACE_STYLE_USAGE(.BOTH.,#193);
#191=SURFACE_STYLE_USAGE(.BOTH.,#194);
#192=SURFACE_SIDE_STYLE('',(#195));
#193=SURFACE_SIDE_STYLE('',(#196));
#194=SURFACE_SIDE_STYLE('',(#197));
#195=SURFACE_STYLE_FILL_AREA(#198);
#196=SURFACE_STYLE_FILL_AREA(#199);
#197=SURFACE_STYLE_FILL_AREA(#200);
#198=FILL_AREA_STYLE('',(#201));
#199=FILL_AREA_STYLE('',(#202));
#200=FILL_AREA_STYLE('',(#203));
#201=FILL_AREA_STYLE_COLOUR('',#204);
#202=FILL_AREA_STYLE_COLOUR('',#205);
#203=FILL_AREA_STYLE_COLOUR('',#204);
#204=COLOUR_RGB('',0.4999923706,0.4999923706,0.4999923706);
#205=COLOUR_RGB('',0.8000000119,0.8000000119,0.8000000119);
#206=MANIFOLD_SOLID_BREP('1',#180);
#207=MANIFOLD_SOLID_BREP('1',#181);
#208=MANIFOLD_SOLID_BREP('1',#182);
#209=SHAPE_DEFINITION_REPRESENTATION(#367,#213);
#210=SHAPE_DEFINITION_REPRESENTATION(#368,#214);
#211=SHAPE_DEFINITION_REPRESENTATION(#370,#215);
#212=SHAPE_DEFINITION_REPRESENTATION(#372,#216);
#213=SHAPE_REPRESENTATION('419 5.000',(#217,#231,#243,#247),#356);
#214=SHAPE_REPRESENTATION('419 5.000_PART1',(#217),#357);
#215=SHAPE_REPRESENTATION('419 5.000_PART2',(#217),#358);
#216=SHAPE_REPRESENTATION('419 5.000_PART3',(#217),#359);
#217=AXIS2_PLACEMENT_3D('',#310,#248,#249);
#218=AXIS2_PLACEMENT_3D('',#311,#250,#251);
#219=AXIS2_PLACEMENT_3D('',#312,#252,#253);
#220=AXIS2_PLACEMENT_3D('',#314,#254,#255);
#221=AXIS2_PLACEMENT_3D('',#315,#256,#257);
#222=AXIS2_PLACEMENT_3D('',#317,#258,#259);
#223=AXIS2_PLACEMENT_3D('',#319,#260,#261);
#224=AXIS2_PLACEMENT_3D('',#320,#262,#263);
#225=AXIS2_PLACEMENT_3D('',#322,#264,#265);
#226=AXIS2_PLACEMENT_3D('',#323,#266,#267);
#227=AXIS2_PLACEMENT_3D('',#324,#268,#269);
#228=AXIS2_PLACEMENT_3D('',#326,#270,#271);
#229=AXIS2_PLACEMENT_3D('',#327,#272,#273);
#230=AXIS2_PLACEMENT_3D('',#329,#274,#275);
#231=AXIS2_PLACEMENT_3D('',#330,#276,#277);
#232=AXIS2_PLACEMENT_3D('',#331,#278,#279);
#233=AXIS2_PLACEMENT_3D('',#332,#280,#281);
#234=AXIS2_PLACEMENT_3D('',#334,#282,#283);
#235=AXIS2_PLACEMENT_3D('',#336,#284,#285);
#236=AXIS2_PLACEMENT_3D('',#337,#286,#287);
#237=AXIS2_PLACEMENT_3D('',#338,#288,#289);
#238=AXIS2_PLACEMENT_3D('',#340,#290,#291);
#239=AXIS2_PLACEMENT_3D('',#342,#292,#293);
#240=AXIS2_PLACEMENT_3D('',#343,#294,#295);
#241=AXIS2_PLACEMENT_3D('',#345,#296,#297);
#242=AXIS2_PLACEMENT_3D('',#346,#298,#299);
#243=AXIS2_PLACEMENT_3D('',#348,#300,#301);
#244=AXIS2_PLACEMENT_3D('',#349,#302,#303);
#245=AXIS2_PLACEMENT_3D('',#350,#304,#305);
#246=AXIS2_PLACEMENT_3D('',#352,#306,#307);
#247=AXIS2_PLACEMENT_3D('',#354,#308,#309);
#248=DIRECTION('',(0.,0.,1.));
#249=DIRECTION('',(1.,0.,0.));
#250=DIRECTION('',(0.,0.,1.));
#251=DIRECTION('',(1.,0.,0.));
#252=DIRECTION('',(0.,0.,1.));
#253=DIRECTION('',(1.,0.,0.));
#254=DIRECTION('',(-5.55890191179601E-17,0.,-1.));
#255=DIRECTION('',(-1.,0.,5.55890191179601E-17));
#256=DIRECTION('',(0.,0.,-1.));
#257=DIRECTION('',(1.,0.,0.));
#258=DIRECTION('',(0.,0.,1.));
#259=DIRECTION('',(1.,0.,0.));
#260=DIRECTION('',(0.,0.,1.));
#261=DIRECTION('',(-1.,0.,0.));
#262=DIRECTION('',(0.,0.,1.));
#263=DIRECTION('',(0.,1.,0.));
#264=DIRECTION('',(0.,0.,1.));
#265=DIRECTION('',(1.,0.,0.));
#266=DIRECTION('',(0.,0.,-1.));
#267=DIRECTION('',(0.,-1.,0.));
#268=DIRECTION('',(0.,0.,1.));
#269=DIRECTION('',(0.,1.,0.));
#270=DIRECTION('',(0.,0.,-1.));
#271=DIRECTION('',(0.,1.,0.));
#272=DIRECTION('',(0.,0.,1.));
#273=DIRECTION('',(0.,1.,0.));
#274=DIRECTION('',(0.,0.,1.));
#275=DIRECTION('',(0.,1.,0.));
#276=DIRECTION('',(0.,0.,1.));
#277=DIRECTION('',(1.,0.,0.));
#278=DIRECTION('',(0.,0.,-1.));
#279=DIRECTION('',(0.,1.,0.));
#280=DIRECTION('',(0.,0.,1.));
#281=DIRECTION('',(1.,0.,0.));
#282=DIRECTION('',(0.,0.,1.));
#283=DIRECTION('',(0.,1.,0.));
#284=DIRECTION('',(0.,0.,1.));
#285=DIRECTION('',(1.,0.,0.));
#286=DIRECTION('',(0.,0.,1.));
#287=DIRECTION('',(1.,0.,0.));
#288=DIRECTION('',(0.,0.,1.));
#289=DIRECTION('',(0.,1.,0.));
#290=DIRECTION('',(0.,0.,1.));
#291=DIRECTION('',(1.,0.,0.));
#292=DIRECTION('',(0.,0.,1.));
#293=DIRECTION('',(0.,1.,0.));
#294=DIRECTION('',(0.,0.,1.));
#295=DIRECTION('',(1.,0.,0.));
#296=DIRECTION('',(0.,0.,1.));
#297=DIRECTION('',(0.,1.,0.));
#298=DIRECTION('',(-4.15502628976481E-17,0.,-1.));
#299=DIRECTION('',(-1.,0.,4.15502628976481E-17));
#300=DIRECTION('',(0.,0.,1.));
#301=DIRECTION('',(1.,0.,0.));
#302=DIRECTION('',(0.,0.,-1.));
#303=DIRECTION('',(0.,-1.,0.));
#304=DIRECTION('',(0.,0.,-1.));
#305=DIRECTION('',(-1.,0.,0.));
#306=DIRECTION('',(6.93196194196527E-17,0.,-1.));
#307=DIRECTION('',(-1.,0.,-6.93196194196527E-17));
#308=DIRECTION('',(0.,0.,1.));
#309=DIRECTION('',(1.,0.,0.));
#310=CARTESIAN_POINT('',(0.,0.,0.));
#311=CARTESIAN_POINT('',(0.,0.,-66.));
#312=CARTESIAN_POINT('',(0.,-1.00120988490544E-11,-66.00000000001));
#313=CARTESIAN_POINT('',(2.5,-1.00120988490544E-11,-66.00000000001));
#314=CARTESIAN_POINT('',(0.,0.,-0.500000000000001));
#315=CARTESIAN_POINT('',(0.,0.,-0.500000000010001));
#316=CARTESIAN_POINT('',(2.5,0.,-0.500000000010001));
#317=CARTESIAN_POINT('',(0.,0.,0.));
#318=CARTESIAN_POINT('',(2.,0.,0.));
#319=CARTESIAN_POINT('',(0.,0.,0.));
#320=CARTESIAN_POINT('',(0.,-1.00060494245272E-11,-33.00000000001));
#321=CARTESIAN_POINT('',(0.,2.49999999998999,-33.00000000001));
#322=CARTESIAN_POINT('',(0.,0.,0.));
#323=CARTESIAN_POINT('',(0.,-1.20988490544035E-14,-66.));
#324=CARTESIAN_POINT('',(0.,-1.00120988410549E-11,-65.9999563623477));
#325=CARTESIAN_POINT('',(0.,2.49749999998999,-65.9999563623477));
#326=CARTESIAN_POINT('',(0.,0.,-2.7896521898052E-15));
#327=CARTESIAN_POINT('',(0.,-1.00060494325267E-11,-33.0000436376723));
#328=CARTESIAN_POINT('',(0.,2.49749999998999,-33.0000436376723));
#329=CARTESIAN_POINT('',(0.,-6.04943252667884E-15,-33.0000436376623));
#330=CARTESIAN_POINT('',(0.,0.,0.));
#331=CARTESIAN_POINT('',(0.,0.,-2.7896521898052E-15));
#332=CARTESIAN_POINT('',(0.,-1.57649898801201E-14,-85.9890312468615));
#333=CARTESIAN_POINT('',(2.5,-1.57649898801201E-14,-85.9890312468615));
#334=CARTESIAN_POINT('',(0.,-1.00120988490544E-11,-66.00000000001));
#335=CARTESIAN_POINT('',(0.,2.49999999998999,-66.00000000001));
#336=CARTESIAN_POINT('',(0.,0.,-66.));
#337=CARTESIAN_POINT('',(0.,-1.56541446472147E-14,-86.));
#338=CARTESIAN_POINT('',(0.,-1.00157651669497E-11,-86.00000000001));
#339=CARTESIAN_POINT('',(0.,2.49956659998998,-86.00000000001));
#340=CARTESIAN_POINT('',(-7.20782163521853E-32,0.,-86.));
#341=CARTESIAN_POINT('',(1.0000000017949,0.,-86.));
#342=CARTESIAN_POINT('',(0.,-1.57651669496772E-14,-86.));
#343=CARTESIAN_POINT('',(0.,-1.57651669496772E-14,-85.9990341502026));
#344=CARTESIAN_POINT('',(2.49982539867291,-1.57651669496772E-14,-85.9990341502026));
#345=CARTESIAN_POINT('',(0.,-1.57649898801201E-14,-85.9990340741737));
#346=CARTESIAN_POINT('',(0.,0.,-87.));
#347=CARTESIAN_POINT('',(0.,0.,-85.));
#348=CARTESIAN_POINT('',(0.,0.,0.));
#349=CARTESIAN_POINT('',(0.,0.,-86.));
#350=CARTESIAN_POINT('',(0.,0.,-86.00000000001));
#351=CARTESIAN_POINT('',(-1.,0.,-86.00000000001));
#352=CARTESIAN_POINT('',(0.,0.,-86.));
#353=CARTESIAN_POINT('',(0.,0.,-85.));
#354=CARTESIAN_POINT('',(0.,0.,0.));
#355=MECHANICAL_DESIGN_GEOMETRIC_PRESENTATION_REPRESENTATION('',(#183,#184,
#185),#356);
#356=(
GEOMETRIC_REPRESENTATION_CONTEXT(3)
GLOBAL_UNCERTAINTY_ASSIGNED_CONTEXT((#360))
GLOBAL_UNIT_ASSIGNED_CONTEXT((#366,#365,#364))
REPRESENTATION_CONTEXT('419 5.000','TOP_LEVEL_ASSEMBLY_PART')
);
#357=(
GEOMETRIC_REPRESENTATION_CONTEXT(3)
GLOBAL_UNCERTAINTY_ASSIGNED_CONTEXT((#361))
GLOBAL_UNIT_ASSIGNED_CONTEXT((#366,#365,#364))
REPRESENTATION_CONTEXT('419 5.000_PART1','COMPONENT_PART')
);
#358=(
GEOMETRIC_REPRESENTATION_CONTEXT(3)
GLOBAL_UNCERTAINTY_ASSIGNED_CONTEXT((#362))
GLOBAL_UNIT_ASSIGNED_CONTEXT((#366,#365,#364))
REPRESENTATION_CONTEXT('419 5.000_PART2','COMPONENT_PART')
);
#359=(
GEOMETRIC_REPRESENTATION_CONTEXT(3)
GLOBAL_UNCERTAINTY_ASSIGNED_CONTEXT((#363))
GLOBAL_UNIT_ASSIGNED_CONTEXT((#366,#365,#364))
REPRESENTATION_CONTEXT('419 5.000_PART3','COMPONENT_PART')
);
#360=UNCERTAINTY_MEASURE_WITH_UNIT(LENGTH_MEASURE(1.E-5),#366,
'DISTANCE_ACCURACY_VALUE','Maximum Tolerance applied to model');
#361=UNCERTAINTY_MEASURE_WITH_UNIT(LENGTH_MEASURE(1.E-5),#366,
'DISTANCE_ACCURACY_VALUE','Maximum Tolerance applied to model');
#362=UNCERTAINTY_MEASURE_WITH_UNIT(LENGTH_MEASURE(1.E-5),#366,
'DISTANCE_ACCURACY_VALUE','Maximum Tolerance applied to model');
#363=UNCERTAINTY_MEASURE_WITH_UNIT(LENGTH_MEASURE(1.E-5),#366,
'DISTANCE_ACCURACY_VALUE','Maximum Tolerance applied to model');
#364=(
NAMED_UNIT(*)
SI_UNIT($,.STERADIAN.)
SOLID_ANGLE_UNIT()
);
#365=(
NAMED_UNIT(*)
PLANE_ANGLE_UNIT()
SI_UNIT($,.RADIAN.)
);
#366=(
LENGTH_UNIT()
NAMED_UNIT(*)
SI_UNIT(.MILLI.,.METRE.)
);
#367=PRODUCT_DEFINITION_SHAPE('','',#374);
#368=PRODUCT_DEFINITION_SHAPE('','',#375);
#369=PRODUCT_DEFINITION_SHAPE(' ','NAUO PRDDFN',#23);
#370=PRODUCT_DEFINITION_SHAPE('','',#376);
#371=PRODUCT_DEFINITION_SHAPE(' ','NAUO PRDDFN',#24);
#372=PRODUCT_DEFINITION_SHAPE('','',#377);
#373=PRODUCT_DEFINITION_SHAPE(' ','NAUO PRDDFN',#25);
#374=PRODUCT_DEFINITION('','',#382,#378);
#375=PRODUCT_DEFINITION('','',#383,#379);
#376=PRODUCT_DEFINITION('','',#384,#380);
#377=PRODUCT_DEFINITION('','',#385,#381);
#378=PRODUCT_DEFINITION_CONTEXT('',#403,'design');
#379=PRODUCT_DEFINITION_CONTEXT('',#403,'design');
#380=PRODUCT_DEFINITION_CONTEXT('',#403,'design');
#381=PRODUCT_DEFINITION_CONTEXT('',#403,'design');
#382=PRODUCT_DEFINITION_FORMATION_WITH_SPECIFIED_SOURCE('','',#390,
 .NOT_KNOWN.);
#383=PRODUCT_DEFINITION_FORMATION_WITH_SPECIFIED_SOURCE('','',#391,
 .NOT_KNOWN.);
#384=PRODUCT_DEFINITION_FORMATION_WITH_SPECIFIED_SOURCE('','',#392,
 .NOT_KNOWN.);
#385=PRODUCT_DEFINITION_FORMATION_WITH_SPECIFIED_SOURCE('','',#393,
 .NOT_KNOWN.);
#386=PRODUCT_RELATED_PRODUCT_CATEGORY('','',(#390));
#387=PRODUCT_RELATED_PRODUCT_CATEGORY('','',(#391));
#388=PRODUCT_RELATED_PRODUCT_CATEGORY('','',(#392));
#389=PRODUCT_RELATED_PRODUCT_CATEGORY('','',(#393));
#390=PRODUCT('419 5.000','419 5.000','419 5.000',(#398));
#391=PRODUCT('419 5.000_PART1','419 5.000_PART1','419 5.000_PART1',(#399));
#392=PRODUCT('419 5.000_PART2','419 5.000_PART2','419 5.000_PART2',(#400));
#393=PRODUCT('419 5.000_PART3','419 5.000_PART3','419 5.000_PART3',(#401));
#394=PRODUCT_CATEGORY('','');
#395=PRODUCT_CATEGORY('','');
#396=PRODUCT_CATEGORY('','');
#397=PRODUCT_CATEGORY('','');
#398=PRODUCT_CONTEXT('',#403,'mechanical');
#399=PRODUCT_CONTEXT('',#403,'mechanical');
#400=PRODUCT_CONTEXT('',#403,'mechanical');
#401=PRODUCT_CONTEXT('',#403,'mechanical');
#402=APPLICATION_PROTOCOL_DEFINITION('international standard',
'automotive_design',2010,#403);
#403=APPLICATION_CONTEXT(
'core data for automotive mechanical design processes');
ENDSEC;
END-ISO-10303-21;
