ISO-10303-21;
HEADER;
/* Generated by software containing ST-Developer
 * from STEP Tools, Inc. (www.steptools.com) 
 */
/* OPTION: using custom renumber hook */

FILE_DESCRIPTION(
/* description */ ('STEP AP214'),
/* implementation_level */ '2;1');

FILE_NAME(
/* name */ '420 16.000',
/* time_stamp */ '2026-05-15T11:07:04+02:00',
/* author */ ('License CC BY-ND 4.0'),
/* organization */ ('CADENAS'),
/* preprocessor_version */ 'ST-DEVELOPER v20',
/* originating_system */ 'PARTsolutions',
/* authorisation */ '  ');

FILE_SCHEMA (('AUTOMOTIVE_DESIGN {1 0 10303 214 3 1 1}'));
ENDSEC;

DATA;
#10=PROPERTY_DEFINITION_REPRESENTATION(#14,#12);
#11=PROPERTY_DEFINITION_REPRESENTATION(#15,#13);
#12=REPRESENTATION('',(#16),#782);
#13=REPRESENTATION('',(#17),#782);
#14=PROPERTY_DEFINITION('pmi validation property','',#793);
#15=PROPERTY_DEFINITION('pmi validation property','',#793);
#16=VALUE_REPRESENTATION_ITEM('number of annotations',COUNT_MEASURE(0.));
#17=VALUE_REPRESENTATION_ITEM('number of views',COUNT_MEASURE(0.));
#18=VERTEX_LOOP('',#234);
#19=VERTEX_LOOP('',#236);
#20=CONTEXT_DEPENDENT_SHAPE_REPRESENTATION(#26,#795);
#21=CONTEXT_DEPENDENT_SHAPE_REPRESENTATION(#27,#797);
#22=CONTEXT_DEPENDENT_SHAPE_REPRESENTATION(#28,#799);
#23=NEXT_ASSEMBLY_USAGE_OCCURRENCE('NAUO1','420 16.000_PART1',
'420 16.000_PART1',#800,#801,'');
#24=NEXT_ASSEMBLY_USAGE_OCCURRENCE('NAUO2','420 16.000_PART2',
'420 16.000_PART2',#800,#802,'');
#25=NEXT_ASSEMBLY_USAGE_OCCURRENCE('NAUO3','420 16.000_PART3',
'420 16.000_PART3',#800,#803,'');
#26=(
REPRESENTATION_RELATIONSHIP(' ',' ',#434,#433)
REPRESENTATION_RELATIONSHIP_WITH_TRANSFORMATION(#29)
SHAPE_REPRESENTATION_RELATIONSHIP()
);
#27=(
REPRESENTATION_RELATIONSHIP(' ',' ',#435,#433)
REPRESENTATION_RELATIONSHIP_WITH_TRANSFORMATION(#30)
SHAPE_REPRESENTATION_RELATIONSHIP()
);
#28=(
REPRESENTATION_RELATIONSHIP(' ',' ',#436,#433)
REPRESENTATION_RELATIONSHIP_WITH_TRANSFORMATION(#31)
SHAPE_REPRESENTATION_RELATIONSHIP()
);
#29=ITEM_DEFINED_TRANSFORMATION(' ',' ',#437,#480);
#30=ITEM_DEFINED_TRANSFORMATION(' ',' ',#437,#492);
#31=ITEM_DEFINED_TRANSFORMATION(' ',' ',#437,#496);
#32=SHAPE_REPRESENTATION_RELATIONSHIP('','',#434,#35);
#33=SHAPE_REPRESENTATION_RELATIONSHIP('','',#435,#36);
#34=SHAPE_REPRESENTATION_RELATIONSHIP('','',#436,#37);
#35=ADVANCED_BREP_SHAPE_REPRESENTATION('',(#426),#783);
#36=ADVANCED_BREP_SHAPE_REPRESENTATION('',(#427),#784);
#37=ADVANCED_BREP_SHAPE_REPRESENTATION('',(#428),#785);
#38=PLANE('',#453);
#39=PLANE('',#457);
#40=PLANE('',#462);
#41=PLANE('',#464);
#42=PLANE('',#474);
#43=PLANE('',#486);
#44=PLANE('',#488);
#45=PLANE('',#493);
#46=LINE('',#656,#52);
#47=LINE('',#660,#53);
#48=LINE('',#694,#54);
#49=LINE('',#695,#55);
#50=LINE('',#697,#56);
#51=LINE('',#750,#57);
#52=VECTOR('',#513,1000.);
#53=VECTOR('',#516,1000.);
#54=VECTOR('',#531,1000.);
#55=VECTOR('',#532,1000.);
#56=VECTOR('',#535,1000.);
#57=VECTOR('',#578,1000.);
#58=CYLINDRICAL_SURFACE('',#444,6.75);
#59=CYLINDRICAL_SURFACE('',#452,6.75);
#60=CYLINDRICAL_SURFACE('',#459,6.5);
#61=CYLINDRICAL_SURFACE('',#468,7.999);
#62=CYLINDRICAL_SURFACE('',#473,7.5);
#63=CYLINDRICAL_SURFACE('',#475,6.);
#64=CYLINDRICAL_SURFACE('',#478,6.);
#65=CYLINDRICAL_SURFACE('',#484,8.);
#66=CYLINDRICAL_SURFACE('',#490,7.999);
#67=B_SPLINE_CURVE_WITH_KNOTS('',3,(#633,#634,#635,#636,#637),
 .UNSPECIFIED.,.F.,.F.,(4,1,4),(2.26747659976243E-11,0.00122862894597518,
0.0024572578692756),.UNSPECIFIED.);
#68=B_SPLINE_CURVE_WITH_KNOTS('',3,(#641,#642,#643,#644,#645),
 .UNSPECIFIED.,.F.,.F.,(4,1,4),(8.08054475035903E-13,0.00122862893504227,
0.00245725786927648),.UNSPECIFIED.);
#69=B_SPLINE_CURVE_WITH_KNOTS('',3,(#647,#648,#649,#650,#651,#652,#653),
 .UNSPECIFIED.,.F.,.F.,(4,1,1,1,4),(3.69983476503289E-15,0.00256794576690585,
0.005135891533808,0.00770383730071015,0.0102717830676123),.UNSPECIFIED.);
#70=B_SPLINE_CURVE_WITH_KNOTS('',3,(#662,#663,#664,#665,#666,#667,#668),
 .UNSPECIFIED.,.F.,.F.,(4,1,1,1,4),(4.62826434052431E-15,0.00256794576690655,
0.00513589153380846,0.00770383730071038,0.0102717830676123),
 .UNSPECIFIED.);
#71=B_SPLINE_CURVE_WITH_KNOTS('',3,(#678,#679,#680,#681,#682,#683,#684),
 .UNSPECIFIED.,.F.,.F.,(4,1,1,1,4),(6.97274302659404E-15,0.00256571183818224,
0.0051314236763575,0.00769713551453276,0.010262847352708),.UNSPECIFIED.);
#72=B_SPLINE_CURVE_WITH_KNOTS('',3,(#686,#687,#688,#689,#690,#691,#692),
 .UNSPECIFIED.,.F.,.F.,(4,1,1,1,4),(6.97274773346372E-15,0.00256571183818239,
0.0051314236763578,0.00769713551453322,0.0102628473527086),
 .UNSPECIFIED.);
#73=B_SPLINE_CURVE_WITH_KNOTS('',3,(#698,#699,#700,#701,#702),
 .UNSPECIFIED.,.F.,.F.,(4,1,4),(0.,0.00435610633839927,0.00871221267679853),
 .UNSPECIFIED.);
#74=B_SPLINE_CURVE_WITH_KNOTS('',3,(#704,#705,#706,#707,#708),
 .UNSPECIFIED.,.F.,.F.,(4,1,4),(4.05733325668574E-15,0.00123374035051794,
0.00246748070103183),.UNSPECIFIED.);
#75=B_SPLINE_CURVE_WITH_KNOTS('',3,(#739,#740,#741,#742,#743),
 .UNSPECIFIED.,.F.,.F.,(4,1,4),(4.05733325668574E-15,0.00123374035051794,
0.00246748070103183),.UNSPECIFIED.);
#76=B_SPLINE_CURVE_WITH_KNOTS('',3,(#745,#746,#747,#748,#749),
 .UNSPECIFIED.,.F.,.F.,(4,1,4),(0.,0.00435610633839927,0.00871221267679853),
 .UNSPECIFIED.);
#77=TOROIDAL_SURFACE('',#441,5.15,1.6);
#78=TOROIDAL_SURFACE('',#447,6.501,0.001);
#79=TOROIDAL_SURFACE('',#476,5.15,1.6);
#80=ORIENTED_EDGE('',*,*,#162,.T.);
#81=ORIENTED_EDGE('',*,*,#163,.F.);
#82=ORIENTED_EDGE('',*,*,#164,.F.);
#83=ORIENTED_EDGE('',*,*,#165,.T.);
#84=ORIENTED_EDGE('',*,*,#166,.T.);
#85=ORIENTED_EDGE('',*,*,#167,.F.);
#86=ORIENTED_EDGE('',*,*,#168,.F.);
#87=ORIENTED_EDGE('',*,*,#169,.T.);
#88=ORIENTED_EDGE('',*,*,#170,.F.);
#89=ORIENTED_EDGE('',*,*,#171,.F.);
#90=ORIENTED_EDGE('',*,*,#172,.T.);
#91=ORIENTED_EDGE('',*,*,#173,.T.);
#92=ORIENTED_EDGE('',*,*,#174,.F.);
#93=ORIENTED_EDGE('',*,*,#175,.T.);
#94=ORIENTED_EDGE('',*,*,#163,.T.);
#95=ORIENTED_EDGE('',*,*,#173,.F.);
#96=ORIENTED_EDGE('',*,*,#176,.F.);
#97=ORIENTED_EDGE('',*,*,#177,.F.);
#98=ORIENTED_EDGE('',*,*,#176,.T.);
#99=ORIENTED_EDGE('',*,*,#178,.T.);
#100=ORIENTED_EDGE('',*,*,#179,.F.);
#101=ORIENTED_EDGE('',*,*,#166,.F.);
#102=ORIENTED_EDGE('',*,*,#180,.T.);
#103=ORIENTED_EDGE('',*,*,#181,.T.);
#104=ORIENTED_EDGE('',*,*,#180,.F.);
#105=ORIENTED_EDGE('',*,*,#165,.F.);
#106=ORIENTED_EDGE('',*,*,#182,.T.);
#107=ORIENTED_EDGE('',*,*,#183,.F.);
#108=ORIENTED_EDGE('',*,*,#169,.F.);
#109=ORIENTED_EDGE('',*,*,#184,.T.);
#110=ORIENTED_EDGE('',*,*,#185,.F.);
#111=ORIENTED_EDGE('',*,*,#184,.F.);
#112=ORIENTED_EDGE('',*,*,#186,.F.);
#113=ORIENTED_EDGE('',*,*,#187,.T.);
#114=ORIENTED_EDGE('',*,*,#175,.F.);
#115=ORIENTED_EDGE('',*,*,#186,.T.);
#116=ORIENTED_EDGE('',*,*,#187,.F.);
#117=ORIENTED_EDGE('',*,*,#188,.T.);
#118=ORIENTED_EDGE('',*,*,#189,.F.);
#119=ORIENTED_EDGE('',*,*,#190,.F.);
#120=ORIENTED_EDGE('',*,*,#174,.T.);
#121=ORIENTED_EDGE('',*,*,#190,.T.);
#122=ORIENTED_EDGE('',*,*,#189,.T.);
#123=ORIENTED_EDGE('',*,*,#191,.T.);
#124=ORIENTED_EDGE('',*,*,#162,.F.);
#125=ORIENTED_EDGE('',*,*,#185,.T.);
#126=ORIENTED_EDGE('',*,*,#192,.F.);
#127=ORIENTED_EDGE('',*,*,#192,.T.);
#128=ORIENTED_EDGE('',*,*,#191,.F.);
#129=ORIENTED_EDGE('',*,*,#171,.T.);
#130=ORIENTED_EDGE('',*,*,#193,.T.);
#131=ORIENTED_EDGE('',*,*,#194,.F.);
#132=ORIENTED_EDGE('',*,*,#167,.T.);
#133=ORIENTED_EDGE('',*,*,#179,.T.);
#134=ORIENTED_EDGE('',*,*,#195,.F.);
#135=ORIENTED_EDGE('',*,*,#195,.T.);
#136=ORIENTED_EDGE('',*,*,#178,.F.);
#137=ORIENTED_EDGE('',*,*,#172,.F.);
#138=ORIENTED_EDGE('',*,*,#170,.T.);
#139=ORIENTED_EDGE('',*,*,#183,.T.);
#140=ORIENTED_EDGE('',*,*,#196,.F.);
#141=ORIENTED_EDGE('',*,*,#193,.F.);
#142=ORIENTED_EDGE('',*,*,#168,.T.);
#143=ORIENTED_EDGE('',*,*,#177,.T.);
#144=ORIENTED_EDGE('',*,*,#181,.F.);
#145=ORIENTED_EDGE('',*,*,#188,.F.);
#146=ORIENTED_EDGE('',*,*,#182,.F.);
#147=ORIENTED_EDGE('',*,*,#164,.T.);
#148=ORIENTED_EDGE('',*,*,#194,.T.);
#149=ORIENTED_EDGE('',*,*,#196,.T.);
#150=ORIENTED_EDGE('',*,*,#197,.T.);
#151=ORIENTED_EDGE('',*,*,#198,.F.);
#152=ORIENTED_EDGE('',*,*,#199,.F.);
#153=ORIENTED_EDGE('',*,*,#198,.T.);
#154=ORIENTED_EDGE('',*,*,#199,.T.);
#155=ORIENTED_EDGE('',*,*,#200,.T.);
#156=ORIENTED_EDGE('',*,*,#201,.T.);
#157=ORIENTED_EDGE('',*,*,#201,.F.);
#158=ORIENTED_EDGE('',*,*,#197,.F.);
#159=ORIENTED_EDGE('',*,*,#200,.F.);
#160=ORIENTED_EDGE('',*,*,#202,.T.);
#161=ORIENTED_EDGE('',*,*,#202,.F.);
#162=EDGE_CURVE('',#203,#203,#237,.T.);
#163=EDGE_CURVE('',#204,#204,#238,.T.);
#164=EDGE_CURVE('',#205,#206,#239,.T.);
#165=EDGE_CURVE('',#205,#207,#67,.T.);
#166=EDGE_CURVE('',#207,#208,#240,.T.);
#167=EDGE_CURVE('',#206,#208,#68,.T.);
#168=EDGE_CURVE('',#209,#210,#69,.T.);
#169=EDGE_CURVE('',#209,#211,#46,.T.);
#170=EDGE_CURVE('',#212,#211,#241,.T.);
#171=EDGE_CURVE('',#213,#212,#47,.T.);
#172=EDGE_CURVE('',#213,#214,#70,.T.);
#173=EDGE_CURVE('',#214,#210,#242,.T.);
#174=EDGE_CURVE('',#215,#215,#243,.T.);
#175=EDGE_CURVE('',#215,#215,#244,.T.);
#176=EDGE_CURVE('',#210,#214,#245,.T.);
#177=EDGE_CURVE('',#210,#216,#71,.T.);
#178=EDGE_CURVE('',#214,#217,#72,.T.);
#179=EDGE_CURVE('',#208,#217,#48,.T.);
#180=EDGE_CURVE('',#207,#216,#49,.T.);
#181=EDGE_CURVE('',#209,#216,#50,.T.);
#182=EDGE_CURVE('',#205,#218,#73,.T.);
#183=EDGE_CURVE('',#211,#218,#74,.T.);
#184=EDGE_CURVE('',#219,#219,#246,.T.);
#185=EDGE_CURVE('',#220,#220,#247,.T.);
#186=EDGE_CURVE('',#221,#221,#248,.T.);
#187=EDGE_CURVE('',#222,#222,#249,.T.);
#188=EDGE_CURVE('',#223,#223,#250,.T.);
#189=EDGE_CURVE('',#224,#224,#251,.T.);
#190=EDGE_CURVE('',#225,#225,#252,.T.);
#191=EDGE_CURVE('',#226,#226,#253,.T.);
#192=EDGE_CURVE('',#227,#227,#254,.T.);
#193=EDGE_CURVE('',#212,#228,#75,.T.);
#194=EDGE_CURVE('',#206,#228,#76,.T.);
#195=EDGE_CURVE('',#213,#217,#51,.T.);
#196=EDGE_CURVE('',#228,#218,#255,.T.);
#197=EDGE_CURVE('',#229,#229,#256,.T.);
#198=EDGE_CURVE('',#230,#230,#257,.T.);
#199=EDGE_CURVE('',#231,#231,#258,.T.);
#200=EDGE_CURVE('',#232,#232,#259,.T.);
#201=EDGE_CURVE('',#233,#233,#260,.T.);
#202=EDGE_CURVE('',#235,#235,#261,.T.);
#203=VERTEX_POINT('',#626);
#204=VERTEX_POINT('',#628);
#205=VERTEX_POINT('',#631);
#206=VERTEX_POINT('',#632);
#207=VERTEX_POINT('',#638);
#208=VERTEX_POINT('',#640);
#209=VERTEX_POINT('',#654);
#210=VERTEX_POINT('',#655);
#211=VERTEX_POINT('',#657);
#212=VERTEX_POINT('',#659);
#213=VERTEX_POINT('',#661);
#214=VERTEX_POINT('',#669);
#215=VERTEX_POINT('',#673);
#216=VERTEX_POINT('',#685);
#217=VERTEX_POINT('',#693);
#218=VERTEX_POINT('',#703);
#219=VERTEX_POINT('',#711);
#220=VERTEX_POINT('',#713);
#221=VERTEX_POINT('',#716);
#222=VERTEX_POINT('',#719);
#223=VERTEX_POINT('',#723);
#224=VERTEX_POINT('',#726);
#225=VERTEX_POINT('',#729);
#226=VERTEX_POINT('',#733);
#227=VERTEX_POINT('',#736);
#228=VERTEX_POINT('',#744);
#229=VERTEX_POINT('',#759);
#230=VERTEX_POINT('',#761);
#231=VERTEX_POINT('',#764);
#232=VERTEX_POINT('',#767);
#233=VERTEX_POINT('',#770);
#234=VERTEX_POINT('',#773);
#235=VERTEX_POINT('',#777);
#236=VERTEX_POINT('',#779);
#237=CIRCLE('',#439,8.04091482899076);
#238=CIRCLE('',#440,7.41658748001677);
#239=CIRCLE('',#442,5.372677);
#240=CIRCLE('',#443,6.75);
#241=CIRCLE('',#445,6.75);
#242=CIRCLE('',#446,6.75);
#243=CIRCLE('',#448,6.5002929);
#244=CIRCLE('',#449,6.5);
#245=CIRCLE('',#451,6.75);
#246=CIRCLE('',#455,9.0148655);
#247=CIRCLE('',#456,8.39053814888427);
#248=CIRCLE('',#458,9.);
#249=CIRCLE('',#460,6.5);
#250=CIRCLE('',#463,0.15);
#251=CIRCLE('',#465,7.999);
#252=CIRCLE('',#467,7.999);
#253=CIRCLE('',#470,7.5);
#254=CIRCLE('',#472,7.5);
#255=CIRCLE('',#477,5.372677);
#256=CIRCLE('',#482,7.999);
#257=CIRCLE('',#483,8.);
#258=CIRCLE('',#485,8.);
#259=CIRCLE('',#487,3.0000000017949);
#260=CIRCLE('',#489,7.999);
#261=CIRCLE('',#494,3.);
#262=EDGE_LOOP('',(#80));
#263=EDGE_LOOP('',(#81));
#264=EDGE_LOOP('',(#82,#83,#84,#85));
#265=EDGE_LOOP('',(#86,#87,#88,#89,#90,#91));
#266=EDGE_LOOP('',(#92,#93));
#267=EDGE_LOOP('',(#94));
#268=EDGE_LOOP('',(#95,#96));
#269=EDGE_LOOP('',(#97,#98,#99,#100,#101,#102));
#270=EDGE_LOOP('',(#103,#104,#105,#106,#107,#108));
#271=EDGE_LOOP('',(#109));
#272=EDGE_LOOP('',(#110));
#273=EDGE_LOOP('',(#111));
#274=EDGE_LOOP('',(#112));
#275=EDGE_LOOP('',(#113));
#276=EDGE_LOOP('',(#114));
#277=EDGE_LOOP('',(#115));
#278=EDGE_LOOP('',(#116));
#279=EDGE_LOOP('',(#117));
#280=EDGE_LOOP('',(#118));
#281=EDGE_LOOP('',(#119));
#282=EDGE_LOOP('',(#120));
#283=EDGE_LOOP('',(#121));
#284=EDGE_LOOP('',(#122));
#285=EDGE_LOOP('',(#123));
#286=EDGE_LOOP('',(#124));
#287=EDGE_LOOP('',(#125));
#288=EDGE_LOOP('',(#126));
#289=EDGE_LOOP('',(#127));
#290=EDGE_LOOP('',(#128));
#291=EDGE_LOOP('',(#129,#130,#131,#132,#133,#134));
#292=EDGE_LOOP('',(#135,#136,#137));
#293=EDGE_LOOP('',(#138,#139,#140,#141));
#294=EDGE_LOOP('',(#142,#143,#144));
#295=EDGE_LOOP('',(#145));
#296=EDGE_LOOP('',(#146,#147,#148,#149));
#297=EDGE_LOOP('',(#150));
#298=EDGE_LOOP('',(#151));
#299=EDGE_LOOP('',(#152));
#300=EDGE_LOOP('',(#153));
#301=EDGE_LOOP('',(#154));
#302=EDGE_LOOP('',(#155));
#303=EDGE_LOOP('',(#156));
#304=EDGE_LOOP('',(#157));
#305=EDGE_LOOP('',(#158));
#306=EDGE_LOOP('',(#159));
#307=EDGE_LOOP('',(#160));
#308=EDGE_LOOP('',(#161));
#309=FACE_BOUND('',#262,.T.);
#310=FACE_BOUND('',#263,.T.);
#311=FACE_BOUND('',#264,.T.);
#312=FACE_BOUND('',#265,.T.);
#313=FACE_BOUND('',#266,.T.);
#314=FACE_BOUND('',#267,.T.);
#315=FACE_BOUND('',#268,.T.);
#316=FACE_BOUND('',#269,.T.);
#317=FACE_BOUND('',#270,.T.);
#318=FACE_BOUND('',#271,.T.);
#319=FACE_BOUND('',#272,.T.);
#320=FACE_BOUND('',#273,.T.);
#321=FACE_BOUND('',#274,.T.);
#322=FACE_BOUND('',#275,.T.);
#323=FACE_BOUND('',#276,.T.);
#324=FACE_BOUND('',#277,.T.);
#325=FACE_BOUND('',#278,.T.);
#326=FACE_BOUND('',#279,.T.);
#327=FACE_BOUND('',#280,.T.);
#328=FACE_BOUND('',#281,.T.);
#329=FACE_BOUND('',#282,.T.);
#330=FACE_BOUND('',#283,.T.);
#331=FACE_BOUND('',#284,.T.);
#332=FACE_BOUND('',#285,.T.);
#333=FACE_BOUND('',#286,.T.);
#334=FACE_BOUND('',#287,.T.);
#335=FACE_BOUND('',#288,.T.);
#336=FACE_BOUND('',#289,.T.);
#337=FACE_BOUND('',#290,.T.);
#338=FACE_BOUND('',#291,.T.);
#339=FACE_BOUND('',#292,.T.);
#340=FACE_BOUND('',#293,.T.);
#341=FACE_BOUND('',#294,.T.);
#342=FACE_BOUND('',#295,.T.);
#343=FACE_BOUND('',#296,.T.);
#344=FACE_BOUND('',#297,.T.);
#345=FACE_BOUND('',#298,.T.);
#346=FACE_BOUND('',#299,.T.);
#347=FACE_BOUND('',#300,.T.);
#348=FACE_BOUND('',#301,.T.);
#349=FACE_BOUND('',#302,.T.);
#350=FACE_BOUND('',#303,.T.);
#351=FACE_BOUND('',#304,.T.);
#352=FACE_BOUND('',#305,.T.);
#353=FACE_BOUND('',#306,.T.);
#354=FACE_BOUND('',#18,.T.);
#355=FACE_BOUND('',#307,.T.);
#356=FACE_BOUND('',#308,.T.);
#357=FACE_BOUND('',#19,.T.);
#358=CONICAL_SURFACE('',#438,9.0148655,0.0249679045);
#359=CONICAL_SURFACE('',#450,7.4165874,0.7853981625);
#360=CONICAL_SURFACE('',#454,9.0148655,0.0249679045);
#361=CONICAL_SURFACE('',#461,9.,0.523598775);
#362=CONICAL_SURFACE('',#466,6.5002929,0.7853981625);
#363=CONICAL_SURFACE('',#469,7.5,0.523598775);
#364=CONICAL_SURFACE('',#471,8.3905381,0.7853981625);
#365=CONICAL_SURFACE('',#479,0.15,1.431169985);
#366=CONICAL_SURFACE('',#481,7.999,0.7853981625);
#367=CONICAL_SURFACE('',#491,4.,0.7853981625);
#368=CONICAL_SURFACE('',#495,3.,0.7853981625);
#369=ADVANCED_FACE('',(#309,#310),#358,.T.);
#370=ADVANCED_FACE('',(#311),#77,.T.);
#371=ADVANCED_FACE('',(#312),#58,.T.);
#372=ADVANCED_FACE('',(#313),#78,.F.);
#373=ADVANCED_FACE('',(#314,#315),#359,.T.);
#374=ADVANCED_FACE('',(#316),#59,.T.);
#375=ADVANCED_FACE('',(#317),#38,.F.);
#376=ADVANCED_FACE('',(#318,#319),#360,.T.);
#377=ADVANCED_FACE('',(#320,#321),#39,.F.);
#378=ADVANCED_FACE('',(#322,#323),#60,.T.);
#379=ADVANCED_FACE('',(#324,#325),#361,.T.);
#380=ADVANCED_FACE('',(#326),#40,.T.);
#381=ADVANCED_FACE('',(#327),#41,.F.);
#382=ADVANCED_FACE('',(#328,#329),#362,.T.);
#383=ADVANCED_FACE('',(#330,#331),#61,.T.);
#384=ADVANCED_FACE('',(#332,#333),#363,.T.);
#385=ADVANCED_FACE('',(#334,#335),#364,.T.);
#386=ADVANCED_FACE('',(#336,#337),#62,.T.);
#387=ADVANCED_FACE('',(#338),#42,.T.);
#388=ADVANCED_FACE('',(#339),#63,.F.);
#389=ADVANCED_FACE('',(#340),#79,.T.);
#390=ADVANCED_FACE('',(#341),#64,.F.);
#391=ADVANCED_FACE('',(#342,#343),#365,.T.);
#392=ADVANCED_FACE('',(#344,#345),#366,.F.);
#393=ADVANCED_FACE('',(#346,#347),#65,.T.);
#394=ADVANCED_FACE('',(#348,#349),#43,.F.);
#395=ADVANCED_FACE('',(#350),#44,.T.);
#396=ADVANCED_FACE('',(#351,#352),#66,.T.);
#397=ADVANCED_FACE('',(#353,#354),#367,.F.);
#398=ADVANCED_FACE('',(#355),#45,.T.);
#399=ADVANCED_FACE('',(#356,#357),#368,.T.);
#400=CLOSED_SHELL('',(#369,#370,#371,#372,#373,#374,#375,#376,#377,#378,
#379,#380,#381,#382,#383,#384,#385,#386,#387,#388,#389,#390,#391));
#401=CLOSED_SHELL('',(#392,#393,#394,#395,#396,#397));
#402=CLOSED_SHELL('',(#398,#399));
#403=STYLED_ITEM('',(#406),#426);
#404=STYLED_ITEM('',(#407),#427);
#405=STYLED_ITEM('',(#408),#428);
#406=PRESENTATION_STYLE_ASSIGNMENT((#409));
#407=PRESENTATION_STYLE_ASSIGNMENT((#410));
#408=PRESENTATION_STYLE_ASSIGNMENT((#411));
#409=SURFACE_STYLE_USAGE(.BOTH.,#412);
#410=SURFACE_STYLE_USAGE(.BOTH.,#413);
#411=SURFACE_STYLE_USAGE(.BOTH.,#414);
#412=SURFACE_SIDE_STYLE('',(#415));
#413=SURFACE_SIDE_STYLE('',(#416));
#414=SURFACE_SIDE_STYLE('',(#417));
#415=SURFACE_STYLE_FILL_AREA(#418);
#416=SURFACE_STYLE_FILL_AREA(#419);
#417=SURFACE_STYLE_FILL_AREA(#420);
#418=FILL_AREA_STYLE('',(#421));
#419=FILL_AREA_STYLE('',(#422));
#420=FILL_AREA_STYLE('',(#423));
#421=FILL_AREA_STYLE_COLOUR('',#424);
#422=FILL_AREA_STYLE_COLOUR('',#425);
#423=FILL_AREA_STYLE_COLOUR('',#424);
#424=COLOUR_RGB('',0.4999923706,0.4999923706,0.4999923706);
#425=COLOUR_RGB('',0.8000000119,0.8000000119,0.8000000119);
#426=MANIFOLD_SOLID_BREP('1',#400);
#427=MANIFOLD_SOLID_BREP('1',#401);
#428=MANIFOLD_SOLID_BREP('1',#402);
#429=SHAPE_DEFINITION_REPRESENTATION(#793,#433);
#430=SHAPE_DEFINITION_REPRESENTATION(#794,#434);
#431=SHAPE_DEFINITION_REPRESENTATION(#796,#435);
#432=SHAPE_DEFINITION_REPRESENTATION(#798,#436);
#433=SHAPE_REPRESENTATION('420 16.000',(#437,#480,#492,#496),#782);
#434=SHAPE_REPRESENTATION('420 16.000_PART1',(#437),#783);
#435=SHAPE_REPRESENTATION('420 16.000_PART2',(#437),#784);
#436=SHAPE_REPRESENTATION('420 16.000_PART3',(#437),#785);
#437=AXIS2_PLACEMENT_3D('',#623,#497,#498);
#438=AXIS2_PLACEMENT_3D('',#624,#499,#500);
#439=AXIS2_PLACEMENT_3D('',#625,#501,#502);
#440=AXIS2_PLACEMENT_3D('',#627,#503,#504);
#441=AXIS2_PLACEMENT_3D('',#629,#505,#506);
#442=AXIS2_PLACEMENT_3D('',#630,#507,#508);
#443=AXIS2_PLACEMENT_3D('',#639,#509,#510);
#444=AXIS2_PLACEMENT_3D('',#646,#511,#512);
#445=AXIS2_PLACEMENT_3D('',#658,#514,#515);
#446=AXIS2_PLACEMENT_3D('',#670,#517,#518);
#447=AXIS2_PLACEMENT_3D('',#671,#519,#520);
#448=AXIS2_PLACEMENT_3D('',#672,#521,#522);
#449=AXIS2_PLACEMENT_3D('',#674,#523,#524);
#450=AXIS2_PLACEMENT_3D('',#675,#525,#526);
#451=AXIS2_PLACEMENT_3D('',#676,#527,#528);
#452=AXIS2_PLACEMENT_3D('',#677,#529,#530);
#453=AXIS2_PLACEMENT_3D('',#696,#533,#534);
#454=AXIS2_PLACEMENT_3D('',#709,#536,#537);
#455=AXIS2_PLACEMENT_3D('',#710,#538,#539);
#456=AXIS2_PLACEMENT_3D('',#712,#540,#541);
#457=AXIS2_PLACEMENT_3D('',#714,#542,#543);
#458=AXIS2_PLACEMENT_3D('',#715,#544,#545);
#459=AXIS2_PLACEMENT_3D('',#717,#546,#547);
#460=AXIS2_PLACEMENT_3D('',#718,#548,#549);
#461=AXIS2_PLACEMENT_3D('',#720,#550,#551);
#462=AXIS2_PLACEMENT_3D('',#721,#552,#553);
#463=AXIS2_PLACEMENT_3D('',#722,#554,#555);
#464=AXIS2_PLACEMENT_3D('',#724,#556,#557);
#465=AXIS2_PLACEMENT_3D('',#725,#558,#559);
#466=AXIS2_PLACEMENT_3D('',#727,#560,#561);
#467=AXIS2_PLACEMENT_3D('',#728,#562,#563);
#468=AXIS2_PLACEMENT_3D('',#730,#564,#565);
#469=AXIS2_PLACEMENT_3D('',#731,#566,#567);
#470=AXIS2_PLACEMENT_3D('',#732,#568,#569);
#471=AXIS2_PLACEMENT_3D('',#734,#570,#571);
#472=AXIS2_PLACEMENT_3D('',#735,#572,#573);
#473=AXIS2_PLACEMENT_3D('',#737,#574,#575);
#474=AXIS2_PLACEMENT_3D('',#738,#576,#577);
#475=AXIS2_PLACEMENT_3D('',#751,#579,#580);
#476=AXIS2_PLACEMENT_3D('',#752,#581,#582);
#477=AXIS2_PLACEMENT_3D('',#753,#583,#584);
#478=AXIS2_PLACEMENT_3D('',#754,#585,#586);
#479=AXIS2_PLACEMENT_3D('',#755,#587,#588);
#480=AXIS2_PLACEMENT_3D('',#756,#589,#590);
#481=AXIS2_PLACEMENT_3D('',#757,#591,#592);
#482=AXIS2_PLACEMENT_3D('',#758,#593,#594);
#483=AXIS2_PLACEMENT_3D('',#760,#595,#596);
#484=AXIS2_PLACEMENT_3D('',#762,#597,#598);
#485=AXIS2_PLACEMENT_3D('',#763,#599,#600);
#486=AXIS2_PLACEMENT_3D('',#765,#601,#602);
#487=AXIS2_PLACEMENT_3D('',#766,#603,#604);
#488=AXIS2_PLACEMENT_3D('',#768,#605,#606);
#489=AXIS2_PLACEMENT_3D('',#769,#607,#608);
#490=AXIS2_PLACEMENT_3D('',#771,#609,#610);
#491=AXIS2_PLACEMENT_3D('',#772,#611,#612);
#492=AXIS2_PLACEMENT_3D('',#774,#613,#614);
#493=AXIS2_PLACEMENT_3D('',#775,#615,#616);
#494=AXIS2_PLACEMENT_3D('',#776,#617,#618);
#495=AXIS2_PLACEMENT_3D('',#778,#619,#620);
#496=AXIS2_PLACEMENT_3D('',#780,#621,#622);
#497=DIRECTION('',(0.,0.,1.));
#498=DIRECTION('',(1.,0.,0.));
#499=DIRECTION('',(0.,0.,-1.));
#500=DIRECTION('',(-1.,0.,0.));
#501=DIRECTION('',(0.,0.,1.));
#502=DIRECTION('',(1.,0.,0.));
#503=DIRECTION('',(0.,0.,1.));
#504=DIRECTION('',(1.,0.,0.));
#505=DIRECTION('',(0.,0.,1.));
#506=DIRECTION('',(1.,0.,0.));
#507=DIRECTION('',(0.,0.,1.));
#508=DIRECTION('',(1.,0.,0.));
#509=DIRECTION('',(0.,0.,1.));
#510=DIRECTION('',(1.,0.,0.));
#511=DIRECTION('',(0.,0.,-1.));
#512=DIRECTION('',(1.,0.,0.));
#513=DIRECTION('',(0.,0.,1.));
#514=DIRECTION('',(0.,0.,1.));
#515=DIRECTION('',(1.,0.,0.));
#516=DIRECTION('',(0.,0.,1.));
#517=DIRECTION('',(0.,0.,1.));
#518=DIRECTION('',(1.,0.,0.));
#519=DIRECTION('',(0.,0.,-1.));
#520=DIRECTION('',(-1.,0.,0.));
#521=DIRECTION('',(0.,0.,-1.));
#522=DIRECTION('',(-1.,0.,0.));
#523=DIRECTION('',(0.,0.,-1.));
#524=DIRECTION('',(-1.,0.,0.));
#525=DIRECTION('',(0.,0.,-1.));
#526=DIRECTION('',(-1.,0.,0.));
#527=DIRECTION('',(0.,0.,1.));
#528=DIRECTION('',(1.,0.,0.));
#529=DIRECTION('',(0.,0.,-1.));
#530=DIRECTION('',(1.,0.,0.));
#531=DIRECTION('',(0.,0.,-1.));
#532=DIRECTION('',(0.,0.,-1.));
#533=DIRECTION('',(0.,1.,0.));
#534=DIRECTION('',(1.,0.,0.));
#535=DIRECTION('',(1.,0.,0.));
#536=DIRECTION('',(0.,0.,-1.));
#537=DIRECTION('',(-1.,0.,0.));
#538=DIRECTION('',(0.,0.,1.));
#539=DIRECTION('',(1.,0.,0.));
#540=DIRECTION('',(0.,0.,1.));
#541=DIRECTION('',(1.,0.,0.));
#542=DIRECTION('',(0.,0.,1.));
#543=DIRECTION('',(1.,0.,0.));
#544=DIRECTION('',(0.,0.,-1.));
#545=DIRECTION('',(-1.,0.,0.));
#546=DIRECTION('',(0.,0.,1.));
#547=DIRECTION('',(-1.,0.,0.));
#548=DIRECTION('',(0.,0.,-1.));
#549=DIRECTION('',(-1.,0.,0.));
#550=DIRECTION('',(-2.36680846535543E-17,0.,1.));
#551=DIRECTION('',(1.,0.,2.36680846535543E-17));
#552=DIRECTION('',(0.,0.,1.));
#553=DIRECTION('',(1.,0.,0.));
#554=DIRECTION('',(0.,0.,1.));
#555=DIRECTION('',(1.,0.,0.));
#556=DIRECTION('',(0.,0.,1.));
#557=DIRECTION('',(1.,0.,0.));
#558=DIRECTION('',(0.,0.,1.));
#559=DIRECTION('',(1.,0.,0.));
#560=DIRECTION('',(-4.13644821739344E-17,0.,-1.));
#561=DIRECTION('',(-1.,0.,4.13644821739344E-17));
#562=DIRECTION('',(0.,0.,-1.));
#563=DIRECTION('',(-1.,0.,0.));
#564=DIRECTION('',(0.,0.,1.));
#565=DIRECTION('',(-1.,0.,0.));
#566=DIRECTION('',(0.,0.,1.));
#567=DIRECTION('',(1.,0.,0.));
#568=DIRECTION('',(0.,0.,1.));
#569=DIRECTION('',(1.,0.,0.));
#570=DIRECTION('',(-4.81681010395742E-17,0.,-1.));
#571=DIRECTION('',(-1.,0.,4.81681010395742E-17));
#572=DIRECTION('',(0.,0.,1.));
#573=DIRECTION('',(1.,0.,0.));
#574=DIRECTION('',(0.,0.,-1.));
#575=DIRECTION('',(1.,0.,0.));
#576=DIRECTION('',(0.,1.,0.));
#577=DIRECTION('',(1.,0.,0.));
#578=DIRECTION('',(1.,0.,0.));
#579=DIRECTION('',(-1.,0.,0.));
#580=DIRECTION('',(0.,0.,-1.));
#581=DIRECTION('',(0.,0.,1.));
#582=DIRECTION('',(1.,0.,0.));
#583=DIRECTION('',(0.,0.,1.));
#584=DIRECTION('',(1.,0.,0.));
#585=DIRECTION('',(-1.,0.,0.));
#586=DIRECTION('',(0.,0.,-1.));
#587=DIRECTION('',(5.85106429997985E-18,0.,-1.));
#588=DIRECTION('',(-1.,0.,-5.85106429997985E-18));
#589=DIRECTION('',(0.,0.,1.));
#590=DIRECTION('',(1.,0.,0.));
#591=DIRECTION('',(-1.3767660293414E-17,0.,1.));
#592=DIRECTION('',(1.,0.,1.3767660293414E-17));
#593=DIRECTION('',(0.,0.,-1.));
#594=DIRECTION('',(-1.,0.,0.));
#595=DIRECTION('',(0.,0.,-1.));
#596=DIRECTION('',(-1.,0.,0.));
#597=DIRECTION('',(0.,0.,1.));
#598=DIRECTION('',(-1.,0.,0.));
#599=DIRECTION('',(0.,0.,-1.));
#600=DIRECTION('',(-1.,0.,0.));
#601=DIRECTION('',(0.,0.,1.));
#602=DIRECTION('',(1.,0.,0.));
#603=DIRECTION('',(0.,0.,1.));
#604=DIRECTION('',(1.,0.,0.));
#605=DIRECTION('',(0.,0.,1.));
#606=DIRECTION('',(1.,0.,0.));
#607=DIRECTION('',(0.,0.,1.));
#608=DIRECTION('',(1.,0.,0.));
#609=DIRECTION('',(0.,0.,1.));
#610=DIRECTION('',(-1.,0.,0.));
#611=DIRECTION('',(0.,0.,-1.));
#612=DIRECTION('',(-1.,0.,0.));
#613=DIRECTION('',(0.,0.,1.));
#614=DIRECTION('',(1.,0.,0.));
#615=DIRECTION('',(0.,0.,-1.));
#616=DIRECTION('',(0.,-1.,0.));
#617=DIRECTION('',(0.,0.,-1.));
#618=DIRECTION('',(-1.,0.,0.));
#619=DIRECTION('',(0.,0.,-1.));
#620=DIRECTION('',(-1.,0.,0.));
#621=DIRECTION('',(0.,0.,1.));
#622=DIRECTION('',(1.,0.,0.));
#623=CARTESIAN_POINT('',(0.,0.,0.));
#624=CARTESIAN_POINT('',(8.78591523436893E-14,0.,-5.00000000000003));
#625=CARTESIAN_POINT('',(8.78591523436893E-14,0.,34.0000000546293));
#626=CARTESIAN_POINT('',(8.04091482899085,0.,34.0000000546293));
#627=CARTESIAN_POINT('',(8.78591523436893E-14,0.,58.9999999199831));
#628=CARTESIAN_POINT('',(7.41658748001686,0.,58.9999999199831));
#629=CARTESIAN_POINT('',(8.78591523436893E-14,0.,72.6815717104582));
#630=CARTESIAN_POINT('',(1.00878591523437E-11,0.,74.2660006204547));
#631=CARTESIAN_POINT('',(4.35237382812176,-3.15,74.2660006204497));
#632=CARTESIAN_POINT('',(4.35237380388693,3.15,74.2660006161457));
#633=CARTESIAN_POINT('',(4.35237380437638,-3.15,74.2660006204447));
#634=CARTESIAN_POINT('',(4.76657521194935,-3.15,74.2188432524359));
#635=CARTESIAN_POINT('',(5.57170029502829,-3.15,73.9027305351381));
#636=CARTESIAN_POINT('',(5.9699246226398,-3.15,73.100941709859));
#637=CARTESIAN_POINT('',(5.96992462263981,-3.15,72.6815717104582));
#638=CARTESIAN_POINT('',(5.96992462264481,-3.150000000005,72.6815717104632));
#639=CARTESIAN_POINT('',(1.00878591523437E-11,0.,72.6815717104682));
#640=CARTESIAN_POINT('',(5.96992462264981,3.150000000005,72.6815717104632));
#641=CARTESIAN_POINT('',(4.35237380437638,3.15,74.2660006204447));
#642=CARTESIAN_POINT('',(4.7665752156354,3.15,74.2188432520162));
#643=CARTESIAN_POINT('',(5.57170027688959,3.15,73.9027305484047));
#644=CARTESIAN_POINT('',(5.9699246226398,3.15,73.100941713591));
#645=CARTESIAN_POINT('',(5.96992462263981,3.15,72.6815717104582));
#646=CARTESIAN_POINT('',(8.78591523436893E-14,0.,73.4104641547642));
#647=CARTESIAN_POINT('',(-5.96992462263963,-3.15,65.1656782778786));
#648=CARTESIAN_POINT('',(-5.96992462263963,-3.15,64.2979501272848));
#649=CARTESIAN_POINT('',(-5.79435219741666,-3.53206234634743,62.5837350732004));
#650=CARTESIAN_POINT('',(-4.69746696207105,-5.02227222778442,60.6453206691432));
#651=CARTESIAN_POINT('',(-2.58102035814992,-6.41715285245034,59.7926144217511));
#652=CARTESIAN_POINT('',(-0.866851492993976,-6.75,59.6665874439316));
#653=CARTESIAN_POINT('',(8.53085781674557E-14,-6.75,59.6665874439316));
#654=CARTESIAN_POINT('',(-5.96992462264199,-3.15000000001,65.1656782778836));
#655=CARTESIAN_POINT('',(5.08793190621163E-12,-6.74999999998854,59.6665874439366));
#656=CARTESIAN_POINT('',(-5.96992462264963,-3.15000000001,73.4104641547742));
#657=CARTESIAN_POINT('',(-5.96992462264463,-3.150000000005,72.6815717104632));
#658=CARTESIAN_POINT('',(1.00878591523437E-11,0.,72.6815717104682));
#659=CARTESIAN_POINT('',(-5.96992462264463,3.150000000005,72.6815717104632));
#660=CARTESIAN_POINT('',(-5.96992462264963,3.15000000001,73.4104641547742));
#661=CARTESIAN_POINT('',(-5.96992462264463,3.150000000005,65.1656782778836));
#662=CARTESIAN_POINT('',(-5.96992462263963,3.15,65.1656782778786));
#663=CARTESIAN_POINT('',(-5.96992462263963,3.15,64.2979501272849));
#664=CARTESIAN_POINT('',(-5.79435219741645,3.53206234634783,62.5837350731994));
#665=CARTESIAN_POINT('',(-4.69746696207072,5.0222722277847,60.6453206691431));
#666=CARTESIAN_POINT('',(-2.58102035814968,6.4171528524504,59.7926144217511));
#667=CARTESIAN_POINT('',(-0.866851492993898,6.75,59.6665874439316));
#668=CARTESIAN_POINT('',(8.53085781674557E-14,6.75,59.6665874439316));
#669=CARTESIAN_POINT('',(5.08792700490538E-12,6.74999999998854,59.6665874439366));
#670=CARTESIAN_POINT('',(1.00878591523437E-11,0.,59.6665874439416));
#671=CARTESIAN_POINT('',(8.78591523436893E-14,0.,-103.490585786438));
#672=CARTESIAN_POINT('',(1.00878591523437E-11,0.,-103.491292893229));
#673=CARTESIAN_POINT('',(-6.50014644998991,0.,-103.490939339838));
#674=CARTESIAN_POINT('',(1.00878591523437E-11,0.,-103.490585786448));
#675=CARTESIAN_POINT('',(8.78591523436893E-14,0.,58.9999999999999));
#676=CARTESIAN_POINT('',(1.00878591523437E-11,0.,59.6665874439416));
#677=CARTESIAN_POINT('',(8.78591523436893E-14,0.,73.4104641547642));
#678=CARTESIAN_POINT('',(8.80046600795518E-14,-6.75,59.6665874439316));
#679=CARTESIAN_POINT('',(0.866848534176481,-6.75,59.6665874439316));
#680=CARTESIAN_POINT('',(2.57979841123907,-6.41588305213624,59.7940320469057));
#681=CARTESIAN_POINT('',(4.68511523208918,-5.03336032302499,60.6367212476844));
#682=CARTESIAN_POINT('',(5.79374810266621,-3.53523316324579,62.5726270616776));
#683=CARTESIAN_POINT('',(5.96992462263981,-3.15,64.2970261805952));
#684=CARTESIAN_POINT('',(5.96992462263981,-3.15,65.1656782778786));
#685=CARTESIAN_POINT('',(5.96992462264217,-3.15000000001,65.1656782778836));
#686=CARTESIAN_POINT('',(8.79948574670546E-14,6.75,59.6665874439316));
#687=CARTESIAN_POINT('',(0.866848534176532,6.75,59.6665874439316));
#688=CARTESIAN_POINT('',(2.57979841123923,6.4158830521362,59.7940320469057));
#689=CARTESIAN_POINT('',(4.68511523208938,5.03336032302481,60.6367212476845));
#690=CARTESIAN_POINT('',(5.79374810266636,3.53523316324553,62.5726270616783));
#691=CARTESIAN_POINT('',(5.96992462263981,3.15,64.2970261805951));
#692=CARTESIAN_POINT('',(5.96992462263981,3.15,65.1656782778786));
#693=CARTESIAN_POINT('',(5.96992462264481,3.150000000005,65.1656782778836));
#694=CARTESIAN_POINT('',(5.96992462264981,3.15000000001,73.4104641547742));
#695=CARTESIAN_POINT('',(5.96992462264981,-3.15000000001,73.4104641547742));
#696=CARTESIAN_POINT('',(-9.99999999999991,-3.15,65.1656782778786));
#697=CARTESIAN_POINT('',(-10.0000000000099,-3.15000000001,65.1656782778886));
#698=CARTESIAN_POINT('',(4.35237380339748,-3.15,74.2660006118466));
#699=CARTESIAN_POINT('',(2.90705785684305,-3.15,74.4305517107517));
#700=CARTESIAN_POINT('',(0.0117403741238674,-3.15,74.7260024812899));
#701=CARTESIAN_POINT('',(-2.90356626594626,-3.15,74.4309492329131));
#702=CARTESIAN_POINT('',(-4.3523738033973,-3.15,74.2660006118466));
#703=CARTESIAN_POINT('',(-4.35237382811158,-3.15,74.2660006204497));
#704=CARTESIAN_POINT('',(-5.96992462263963,-3.15,72.6815717104582));
#705=CARTESIAN_POINT('',(-5.96992462263963,-3.15,73.0990221299266));
#706=CARTESIAN_POINT('',(-5.57713449295164,-3.15,73.8990523547592));
#707=CARTESIAN_POINT('',(-4.76570797007151,-3.15,74.2189419890496));
#708=CARTESIAN_POINT('',(-4.3523738043762,-3.15,74.2660006204447));
#709=CARTESIAN_POINT('',(8.78591523436893E-14,0.,-5.00000000000003));
#710=CARTESIAN_POINT('',(1.00878591523437E-11,0.,-5.00000000001003));
#711=CARTESIAN_POINT('',(9.01486550001009,0.,-5.00000000001003));
#712=CARTESIAN_POINT('',(8.78591523413346E-14,0.,19.9999999511157));
#713=CARTESIAN_POINT('',(8.39053814888436,0.,19.9999999511157));
#714=CARTESIAN_POINT('',(8.78591523436893E-14,0.,-5.00000000000002));
#715=CARTESIAN_POINT('',(1.00878591523437E-11,0.,-5.00000000001002));
#716=CARTESIAN_POINT('',(-8.99999999998991,0.,-5.00000000001002));
#717=CARTESIAN_POINT('',(8.78591523436893E-14,0.,-135.));
#718=CARTESIAN_POINT('',(1.00878591523437E-11,0.,-9.33012701893221));
#719=CARTESIAN_POINT('',(-6.49999999998991,0.,-9.33012701893221));
#720=CARTESIAN_POINT('',(8.78591523436893E-14,0.,-5.00000000000002));
#721=CARTESIAN_POINT('',(8.78591523436893E-14,0.,75.));
#722=CARTESIAN_POINT('',(1.00878591523437E-11,0.,75.00000000001));
#723=CARTESIAN_POINT('',(0.150000000010088,0.,75.00000000001));
#724=CARTESIAN_POINT('',(8.78591523436893E-14,0.,-105.));
#725=CARTESIAN_POINT('',(1.00878591523437E-11,0.,-105.00000000001));
#726=CARTESIAN_POINT('',(7.99900000001009,0.,-105.00000000001));
#727=CARTESIAN_POINT('',(8.78591523436893E-14,0.,-103.491292893219));
#728=CARTESIAN_POINT('',(1.00878591523437E-11,0.,-104.99000000001));
#729=CARTESIAN_POINT('',(-7.99899999998991,0.,-104.99000000001));
#730=CARTESIAN_POINT('',(8.78591523436893E-14,0.,-135.));
#731=CARTESIAN_POINT('',(8.78591523436893E-14,0.,33.0631080869554));
#732=CARTESIAN_POINT('',(1.00878591523437E-11,0.,33.0631080869654));
#733=CARTESIAN_POINT('',(7.50000000001009,0.,33.0631080869654));
#734=CARTESIAN_POINT('',(8.78591523436893E-14,0.,20.));
#735=CARTESIAN_POINT('',(1.00878591523437E-11,0.,20.890538116597));
#736=CARTESIAN_POINT('',(7.50000000001009,0.,20.890538116597));
#737=CARTESIAN_POINT('',(8.78591523436893E-14,0.,73.4104641547642));
#738=CARTESIAN_POINT('',(-9.99999999999991,3.15,65.1656782778786));
#739=CARTESIAN_POINT('',(-5.96992462263963,3.15,72.6815717104582));
#740=CARTESIAN_POINT('',(-5.96992462263963,3.15,73.0990221299266));
#741=CARTESIAN_POINT('',(-5.57713449295164,3.15,73.8990523547592));
#742=CARTESIAN_POINT('',(-4.76570797007151,3.15,74.2189419890496));
#743=CARTESIAN_POINT('',(-4.3523738043762,3.15,74.2660006204447));
#744=CARTESIAN_POINT('',(-4.35237382811158,3.15,74.2660006204497));
#745=CARTESIAN_POINT('',(4.35237380339748,3.15,74.2660006118466));
#746=CARTESIAN_POINT('',(2.90705785684305,3.15,74.4305517107517));
#747=CARTESIAN_POINT('',(0.0117403741238674,3.15,74.7260024812899));
#748=CARTESIAN_POINT('',(-2.90356626594626,3.15,74.4309492329131));
#749=CARTESIAN_POINT('',(-4.3523738033973,3.15,74.2660006118466));
#750=CARTESIAN_POINT('',(-10.0000000000099,3.15000000001,65.1656782778886));
#751=CARTESIAN_POINT('',(-9.99999999999991,9.15,65.1656782778786));
#752=CARTESIAN_POINT('',(8.78591523436893E-14,0.,72.6815717104582));
#753=CARTESIAN_POINT('',(1.00878591523437E-11,0.,74.2660006204547));
#754=CARTESIAN_POINT('',(-9.99999999999991,-9.15,65.1656782778786));
#755=CARTESIAN_POINT('',(8.78591523436893E-14,0.,75.));
#756=CARTESIAN_POINT('',(0.,0.,0.));
#757=CARTESIAN_POINT('',(8.78591523436893E-14,0.,-105.001));
#758=CARTESIAN_POINT('',(1.00878591523437E-11,0.,-105.00100000001));
#759=CARTESIAN_POINT('',(-7.99899999998991,0.,-105.00100000001));
#760=CARTESIAN_POINT('',(1.00878591523437E-11,0.,-105.00000000001));
#761=CARTESIAN_POINT('',(-7.99999999998991,0.,-105.00000000001));
#762=CARTESIAN_POINT('',(8.78591523436893E-14,0.,-135.));
#763=CARTESIAN_POINT('',(1.00878591523437E-11,0.,-135.00000000001));
#764=CARTESIAN_POINT('',(-7.99999999998991,0.,-135.00000000001));
#765=CARTESIAN_POINT('',(8.78591523436893E-14,7.99999999999998,-135.));
#766=CARTESIAN_POINT('',(8.78591523436893E-14,0.,-135.));
#767=CARTESIAN_POINT('',(3.00000000179498,0.,-135.));
#768=CARTESIAN_POINT('',(8.78591523436893E-14,0.,-105.));
#769=CARTESIAN_POINT('',(1.00878591523437E-11,0.,-105.00000000001));
#770=CARTESIAN_POINT('',(7.99900000001009,0.,-105.00000000001));
#771=CARTESIAN_POINT('',(8.78591523436893E-14,0.,-135.));
#772=CARTESIAN_POINT('',(8.78591523436893E-14,0.,-136.));
#773=CARTESIAN_POINT('',(8.78591523436893E-14,0.,-132.));
#774=CARTESIAN_POINT('',(0.,0.,0.));
#775=CARTESIAN_POINT('',(8.78591523436893E-14,0.,-135.));
#776=CARTESIAN_POINT('',(1.00878591523437E-11,0.,-135.00000000001));
#777=CARTESIAN_POINT('',(-2.99999999998991,0.,-135.00000000001));
#778=CARTESIAN_POINT('',(8.78591523436893E-14,0.,-135.));
#779=CARTESIAN_POINT('',(8.78591523436893E-14,0.,-132.));
#780=CARTESIAN_POINT('',(0.,0.,0.));
#781=MECHANICAL_DESIGN_GEOMETRIC_PRESENTATION_REPRESENTATION('',(#403,#404,
#405),#782);
#782=(
GEOMETRIC_REPRESENTATION_CONTEXT(3)
GLOBAL_UNCERTAINTY_ASSIGNED_CONTEXT((#786))
GLOBAL_UNIT_ASSIGNED_CONTEXT((#792,#791,#790))
REPRESENTATION_CONTEXT('420 16.000','TOP_LEVEL_ASSEMBLY_PART')
);
#783=(
GEOMETRIC_REPRESENTATION_CONTEXT(3)
GLOBAL_UNCERTAINTY_ASSIGNED_CONTEXT((#787))
GLOBAL_UNIT_ASSIGNED_CONTEXT((#792,#791,#790))
REPRESENTATION_CONTEXT('420 16.000_PART1','COMPONENT_PART')
);
#784=(
GEOMETRIC_REPRESENTATION_CONTEXT(3)
GLOBAL_UNCERTAINTY_ASSIGNED_CONTEXT((#788))
GLOBAL_UNIT_ASSIGNED_CONTEXT((#792,#791,#790))
REPRESENTATION_CONTEXT('420 16.000_PART2','COMPONENT_PART')
);
#785=(
GEOMETRIC_REPRESENTATION_CONTEXT(3)
GLOBAL_UNCERTAINTY_ASSIGNED_CONTEXT((#789))
GLOBAL_UNIT_ASSIGNED_CONTEXT((#792,#791,#790))
REPRESENTATION_CONTEXT('420 16.000_PART3','COMPONENT_PART')
);
#786=UNCERTAINTY_MEASURE_WITH_UNIT(LENGTH_MEASURE(1.E-5),#792,
'DISTANCE_ACCURACY_VALUE','Maximum Tolerance applied to model');
#787=UNCERTAINTY_MEASURE_WITH_UNIT(LENGTH_MEASURE(1.E-5),#792,
'DISTANCE_ACCURACY_VALUE','Maximum Tolerance applied to model');
#788=UNCERTAINTY_MEASURE_WITH_UNIT(LENGTH_MEASURE(1.E-5),#792,
'DISTANCE_ACCURACY_VALUE','Maximum Tolerance applied to model');
#789=UNCERTAINTY_MEASURE_WITH_UNIT(LENGTH_MEASURE(1.E-5),#792,
'DISTANCE_ACCURACY_VALUE','Maximum Tolerance applied to model');
#790=(
NAMED_UNIT(*)
SI_UNIT($,.STERADIAN.)
SOLID_ANGLE_UNIT()
);
#791=(
NAMED_UNIT(*)
PLANE_ANGLE_UNIT()
SI_UNIT($,.RADIAN.)
);
#792=(
LENGTH_UNIT()
NAMED_UNIT(*)
SI_UNIT(.MILLI.,.METRE.)
);
#793=PRODUCT_DEFINITION_SHAPE('','',#800);
#794=PRODUCT_DEFINITION_SHAPE('','',#801);
#795=PRODUCT_DEFINITION_SHAPE(' ','NAUO PRDDFN',#23);
#796=PRODUCT_DEFINITION_SHAPE('','',#802);
#797=PRODUCT_DEFINITION_SHAPE(' ','NAUO PRDDFN',#24);
#798=PRODUCT_DEFINITION_SHAPE('','',#803);
#799=PRODUCT_DEFINITION_SHAPE(' ','NAUO PRDDFN',#25);
#800=PRODUCT_DEFINITION('','',#808,#804);
#801=PRODUCT_DEFINITION('','',#809,#805);
#802=PRODUCT_DEFINITION('','',#810,#806);
#803=PRODUCT_DEFINITION('','',#811,#807);
#804=PRODUCT_DEFINITION_CONTEXT('',#829,'design');
#805=PRODUCT_DEFINITION_CONTEXT('',#829,'design');
#806=PRODUCT_DEFINITION_CONTEXT('',#829,'design');
#807=PRODUCT_DEFINITION_CONTEXT('',#829,'design');
#808=PRODUCT_DEFINITION_FORMATION_WITH_SPECIFIED_SOURCE('','',#816,
 .NOT_KNOWN.);
#809=PRODUCT_DEFINITION_FORMATION_WITH_SPECIFIED_SOURCE('','',#817,
 .NOT_KNOWN.);
#810=PRODUCT_DEFINITION_FORMATION_WITH_SPECIFIED_SOURCE('','',#818,
 .NOT_KNOWN.);
#811=PRODUCT_DEFINITION_FORMATION_WITH_SPECIFIED_SOURCE('','',#819,
 .NOT_KNOWN.);
#812=PRODUCT_RELATED_PRODUCT_CATEGORY('','',(#816));
#813=PRODUCT_RELATED_PRODUCT_CATEGORY('','',(#817));
#814=PRODUCT_RELATED_PRODUCT_CATEGORY('','',(#818));
#815=PRODUCT_RELATED_PRODUCT_CATEGORY('','',(#819));
#816=PRODUCT('420 16.000','420 16.000','420 16.000',(#824));
#817=PRODUCT('420 16.000_PART1','420 16.000_PART1','420 16.000_PART1',(#825));
#818=PRODUCT('420 16.000_PART2','420 16.000_PART2','420 16.000_PART2',(#826));
#819=PRODUCT('420 16.000_PART3','420 16.000_PART3','420 16.000_PART3',(#827));
#820=PRODUCT_CATEGORY('','');
#821=PRODUCT_CATEGORY('','');
#822=PRODUCT_CATEGORY('','');
#823=PRODUCT_CATEGORY('','');
#824=PRODUCT_CONTEXT('',#829,'mechanical');
#825=PRODUCT_CONTEXT('',#829,'mechanical');
#826=PRODUCT_CONTEXT('',#829,'mechanical');
#827=PRODUCT_CONTEXT('',#829,'mechanical');
#828=APPLICATION_PROTOCOL_DEFINITION('international standard',
'automotive_design',2010,#829);
#829=APPLICATION_CONTEXT(
'core data for automotive mechanical design processes');
ENDSEC;
END-ISO-10303-21;
