ISO-10303-21;
HEADER;
/* Generated by software containing ST-Developer
 * from STEP Tools, Inc. (www.steptools.com) 
 */
/* OPTION: using custom renumber hook */

FILE_DESCRIPTION(
/* description */ ('STEP AP214'),
/* implementation_level */ '2;1');

FILE_NAME(
/* name */ '428 12.000',
/* time_stamp */ '2026-05-15T10:47:18+02:00',
/* author */ ('License CC BY-ND 4.0'),
/* organization */ ('CADENAS'),
/* preprocessor_version */ 'ST-DEVELOPER v20',
/* originating_system */ 'PARTsolutions',
/* authorisation */ '  ');

FILE_SCHEMA (('AUTOMOTIVE_DESIGN {1 0 10303 214 3 1 1}'));
ENDSEC;

DATA;
#10=PROPERTY_DEFINITION_REPRESENTATION(#14,#12);
#11=PROPERTY_DEFINITION_REPRESENTATION(#15,#13);
#12=REPRESENTATION('',(#16),#225);
#13=REPRESENTATION('',(#17),#225);
#14=PROPERTY_DEFINITION('pmi validation property','',#234);
#15=PROPERTY_DEFINITION('pmi validation property','',#234);
#16=VALUE_REPRESENTATION_ITEM('number of annotations',COUNT_MEASURE(0.));
#17=VALUE_REPRESENTATION_ITEM('number of views',COUNT_MEASURE(0.));
#18=CYLINDRICAL_SURFACE('',#136,7.);
#19=CONTEXT_DEPENDENT_SHAPE_REPRESENTATION(#23,#236);
#20=CONTEXT_DEPENDENT_SHAPE_REPRESENTATION(#24,#238);
#21=NEXT_ASSEMBLY_USAGE_OCCURRENCE('NAUO1','428 12.000_PART1',
'428 12.000_PART1',#239,#240,'');
#22=NEXT_ASSEMBLY_USAGE_OCCURRENCE('NAUO2','428 12.000_PART2',
'428 12.000_PART2',#239,#241,'');
#23=(
REPRESENTATION_RELATIONSHIP(' ',' ',#121,#120)
REPRESENTATION_RELATIONSHIP_WITH_TRANSFORMATION(#25)
SHAPE_REPRESENTATION_RELATIONSHIP()
);
#24=(
REPRESENTATION_RELATIONSHIP(' ',' ',#122,#120)
REPRESENTATION_RELATIONSHIP_WITH_TRANSFORMATION(#26)
SHAPE_REPRESENTATION_RELATIONSHIP()
);
#25=ITEM_DEFINED_TRANSFORMATION(' ',' ',#123,#129);
#26=ITEM_DEFINED_TRANSFORMATION(' ',' ',#123,#137);
#27=SHAPE_REPRESENTATION_RELATIONSHIP('','',#121,#29);
#28=SHAPE_REPRESENTATION_RELATIONSHIP('','',#122,#30);
#29=ADVANCED_BREP_SHAPE_REPRESENTATION('',(#115),#226);
#30=ADVANCED_BREP_SHAPE_REPRESENTATION('',(#116),#227);
#31=B_SPLINE_CURVE_WITH_KNOTS('',3,(#175,#176,#177,#178,#179,#180,#181,
#182,#183,#184,#185,#186,#187,#188,#189,#190,#191,#192,#193,#194,#195,#196,
#197,#198,#199,#200,#201,#202,#203,#204,#205,#206,#207,#208,#209),
 .UNSPECIFIED.,.T.,.F.,(1,1,1,1,1,1,1,1,1,1,1,1,1,1,1,1,1,1,1,1,1,1,1,1,
1,1,1,1,1,1,1,1,1,1,1,1,1,1,1),(-0.0953947368421053,-0.0641447368421053,
-0.0328947368421053,0.,0.0296875,0.060859375,0.09210546875,0.1233552734375,
0.154605263671875,0.185855263183594,0.21710526315918,0.248355263157959,
0.279605263157898,0.310855263157895,0.342105263157895,0.373355263157895,
0.404605263157895,0.435855263157895,0.467105263157895,0.498355263157895,
0.529605263157895,0.560855263157895,0.592105263157895,0.623355263157895,
0.654605263157895,0.685855263157895,0.717105263157895,0.748355263157895,
0.779605263157895,0.810855263157895,0.842105263157895,0.873355263157895,
0.904605263157895,0.935855263157895,0.967105263157895,1.,1.0296875,1.060859375,
1.09210546875),.UNSPECIFIED.);
#32=PLANE('',#127);
#33=PLANE('',#128);
#34=PLANE('',#130);
#35=PLANE('',#134);
#36=ORIENTED_EDGE('',*,*,#48,.F.);
#37=ORIENTED_EDGE('',*,*,#49,.T.);
#38=ORIENTED_EDGE('',*,*,#49,.F.);
#39=ORIENTED_EDGE('',*,*,#50,.F.);
#40=ORIENTED_EDGE('',*,*,#50,.T.);
#41=ORIENTED_EDGE('',*,*,#48,.T.);
#42=ORIENTED_EDGE('',*,*,#51,.T.);
#43=ORIENTED_EDGE('',*,*,#52,.F.);
#44=ORIENTED_EDGE('',*,*,#51,.F.);
#45=ORIENTED_EDGE('',*,*,#53,.T.);
#46=ORIENTED_EDGE('',*,*,#53,.F.);
#47=ORIENTED_EDGE('',*,*,#52,.T.);
#48=EDGE_CURVE('',#54,#54,#60,.T.);
#49=EDGE_CURVE('',#55,#55,#61,.T.);
#50=EDGE_CURVE('',#56,#56,#31,.F.);
#51=EDGE_CURVE('',#57,#57,#62,.T.);
#52=EDGE_CURVE('',#58,#58,#63,.T.);
#53=EDGE_CURVE('',#59,#59,#64,.T.);
#54=VERTEX_POINT('',#171);
#55=VERTEX_POINT('',#173);
#56=VERTEX_POINT('',#210);
#57=VERTEX_POINT('',#215);
#58=VERTEX_POINT('',#218);
#59=VERTEX_POINT('',#221);
#60=CIRCLE('',#125,8.00000098983318);
#61=CIRCLE('',#126,7.99999998978096);
#62=CIRCLE('',#131,5.5);
#63=CIRCLE('',#133,7.);
#64=CIRCLE('',#135,7.);
#65=EDGE_LOOP('',(#36));
#66=EDGE_LOOP('',(#37));
#67=EDGE_LOOP('',(#38));
#68=EDGE_LOOP('',(#39));
#69=EDGE_LOOP('',(#40));
#70=EDGE_LOOP('',(#41));
#71=EDGE_LOOP('',(#42));
#72=EDGE_LOOP('',(#43));
#73=EDGE_LOOP('',(#44));
#74=EDGE_LOOP('',(#45));
#75=EDGE_LOOP('',(#46));
#76=EDGE_LOOP('',(#47));
#77=FACE_BOUND('',#65,.T.);
#78=FACE_BOUND('',#66,.T.);
#79=FACE_BOUND('',#67,.T.);
#80=FACE_BOUND('',#68,.T.);
#81=FACE_BOUND('',#69,.T.);
#82=FACE_BOUND('',#70,.T.);
#83=FACE_BOUND('',#71,.T.);
#84=FACE_BOUND('',#72,.T.);
#85=FACE_BOUND('',#73,.T.);
#86=FACE_BOUND('',#74,.T.);
#87=FACE_BOUND('',#75,.T.);
#88=FACE_BOUND('',#76,.T.);
#89=CONICAL_SURFACE('',#124,5.9,0.0100001888);
#90=CONICAL_SURFACE('',#132,7.,1.04719755);
#91=ADVANCED_FACE('',(#77,#78),#89,.T.);
#92=ADVANCED_FACE('',(#79,#80),#32,.F.);
#93=ADVANCED_FACE('',(#81,#82),#33,.F.);
#94=ADVANCED_FACE('',(#83),#34,.T.);
#95=ADVANCED_FACE('',(#84,#85),#90,.T.);
#96=ADVANCED_FACE('',(#86),#35,.F.);
#97=ADVANCED_FACE('',(#87,#88),#18,.T.);
#98=CLOSED_SHELL('',(#91,#92,#93));
#99=CLOSED_SHELL('',(#94,#95,#96,#97));
#100=STYLED_ITEM('',(#102),#115);
#101=STYLED_ITEM('',(#103),#116);
#102=PRESENTATION_STYLE_ASSIGNMENT((#104));
#103=PRESENTATION_STYLE_ASSIGNMENT((#105));
#104=SURFACE_STYLE_USAGE(.BOTH.,#106);
#105=SURFACE_STYLE_USAGE(.BOTH.,#107);
#106=SURFACE_SIDE_STYLE('',(#108));
#107=SURFACE_SIDE_STYLE('',(#109));
#108=SURFACE_STYLE_FILL_AREA(#110);
#109=SURFACE_STYLE_FILL_AREA(#111);
#110=FILL_AREA_STYLE('',(#112));
#111=FILL_AREA_STYLE('',(#113));
#112=FILL_AREA_STYLE_COLOUR('',#114);
#113=FILL_AREA_STYLE_COLOUR('',#114);
#114=COLOUR_RGB('',0.4999923706,0.4999923706,0.4999923706);
#115=MANIFOLD_SOLID_BREP('1',#98);
#116=MANIFOLD_SOLID_BREP('1',#99);
#117=SHAPE_DEFINITION_REPRESENTATION(#234,#120);
#118=SHAPE_DEFINITION_REPRESENTATION(#235,#121);
#119=SHAPE_DEFINITION_REPRESENTATION(#237,#122);
#120=SHAPE_REPRESENTATION('428 12.000',(#123,#129,#137),#225);
#121=SHAPE_REPRESENTATION('428 12.000_PART1',(#123),#226);
#122=SHAPE_REPRESENTATION('428 12.000_PART2',(#123),#227);
#123=AXIS2_PLACEMENT_3D('',#168,#138,#139);
#124=AXIS2_PLACEMENT_3D('',#169,#140,#141);
#125=AXIS2_PLACEMENT_3D('',#170,#142,#143);
#126=AXIS2_PLACEMENT_3D('',#172,#144,#145);
#127=AXIS2_PLACEMENT_3D('',#174,#146,#147);
#128=AXIS2_PLACEMENT_3D('',#211,#148,#149);
#129=AXIS2_PLACEMENT_3D('',#212,#150,#151);
#130=AXIS2_PLACEMENT_3D('',#213,#152,#153);
#131=AXIS2_PLACEMENT_3D('',#214,#154,#155);
#132=AXIS2_PLACEMENT_3D('',#216,#156,#157);
#133=AXIS2_PLACEMENT_3D('',#217,#158,#159);
#134=AXIS2_PLACEMENT_3D('',#219,#160,#161);
#135=AXIS2_PLACEMENT_3D('',#220,#162,#163);
#136=AXIS2_PLACEMENT_3D('',#222,#164,#165);
#137=AXIS2_PLACEMENT_3D('',#223,#166,#167);
#138=DIRECTION('',(0.,0.,1.));
#139=DIRECTION('',(1.,0.,0.));
#140=DIRECTION('',(0.,0.,1.));
#141=DIRECTION('',(0.,1.,0.));
#142=DIRECTION('',(0.,-4.78919736112813E-18,1.));
#143=DIRECTION('',(0.,1.,4.78919736112813E-18));
#144=DIRECTION('',(0.,0.,1.));
#145=DIRECTION('',(1.,0.,0.));
#146=DIRECTION('',(0.,0.,1.));
#147=DIRECTION('',(1.,0.,0.));
#148=DIRECTION('',(0.,4.78919736112813E-18,-1.));
#149=DIRECTION('',(-1.,0.,0.));
#150=DIRECTION('',(0.,0.,1.));
#151=DIRECTION('',(1.,0.,0.));
#152=DIRECTION('',(0.,0.,1.));
#153=DIRECTION('',(1.,0.,0.));
#154=DIRECTION('',(0.,0.,1.));
#155=DIRECTION('',(1.,0.,0.));
#156=DIRECTION('',(1.43392302620687E-18,0.,-1.));
#157=DIRECTION('',(-1.,0.,-1.43392302620687E-18));
#158=DIRECTION('',(0.,0.,-1.));
#159=DIRECTION('',(1.,0.,0.));
#160=DIRECTION('',(0.,0.,1.));
#161=DIRECTION('',(1.,0.,0.));
#162=DIRECTION('',(0.,0.,-1.));
#163=DIRECTION('',(-1.,0.,0.));
#164=DIRECTION('',(0.,0.,1.));
#165=DIRECTION('',(-1.,0.,0.));
#166=DIRECTION('',(0.,0.,1.));
#167=DIRECTION('',(1.,0.,0.));
#168=CARTESIAN_POINT('',(0.,0.,0.));
#169=CARTESIAN_POINT('',(0.,1.22119280910464E-15,-254.989034074174));
#170=CARTESIAN_POINT('',(-1.00606256261594E-15,2.15513402331025E-16,-44.9999));
#171=CARTESIAN_POINT('',(-1.00606256261594E-15,8.00000098983318,-44.9999));
#172=CARTESIAN_POINT('',(0.,1.22119280910464E-15,-45.));
#173=CARTESIAN_POINT('',(7.99999998978096,1.22119280910464E-15,-45.));
#174=CARTESIAN_POINT('',(0.,0.,-45.));
#175=CARTESIAN_POINT('',(6.902437131808,-1.42307393361455,-45.));
#176=CARTESIAN_POINT('',(7.04513146143965,-0.0468360880677642,-45.));
#177=CARTESIAN_POINT('',(6.91654096659694,1.32714719097506,-45.));
#178=CARTESIAN_POINT('',(6.53567710299478,2.6293522154942,-45.));
#179=CARTESIAN_POINT('',(5.89796342903407,3.85303681130836,-45.));
#180=CARTESIAN_POINT('',(5.03310690784278,4.92970191593487,-45.));
#181=CARTESIAN_POINT('',(3.97461177985836,5.81689249415775,-45.));
#182=CARTESIAN_POINT('',(2.76340480111173,6.48024848123294,-45.));
#183=CARTESIAN_POINT('',(1.4460303505422,6.89498299833496,-45.));
#184=CARTESIAN_POINT('',(0.0730929883793896,7.04477206614629,-45.));
#185=CARTESIAN_POINT('',(-1.30269738586773,6.9236372665254,-45.));
#186=CARTESIAN_POINT('',(-2.62821637007764,6.53624565236314,-45.));
#187=CARTESIAN_POINT('',(-3.85299963515607,5.89798148990501,-45.));
#188=CARTESIAN_POINT('',(-4.92971839364812,5.03309407046617,-45.));
#189=CARTESIAN_POINT('',(-5.81690225565399,3.97459666972102,-45.));
#190=CARTESIAN_POINT('',(-6.48025742535348,2.76338439565208,-45.));
#191=CARTESIAN_POINT('',(-6.8949870995567,1.4460102516127,-45.));
#192=CARTESIAN_POINT('',(-7.04477234011087,0.0730718335777065,-45.));
#193=CARTESIAN_POINT('',(-6.92363337085957,-1.30271796366992,-45.));
#194=CARTESIAN_POINT('',(-6.53623782421303,-2.62823585572461,-45.));
#195=CARTESIAN_POINT('',(-5.89797001379039,-3.85301720353702,-45.));
#196=CARTESIAN_POINT('',(-5.03307938791063,-4.92973339060111,-45.));
#197=CARTESIAN_POINT('',(-3.97457932960884,-5.81691409574853,-45.));
#198=CARTESIAN_POINT('',(-2.76336512524168,-6.48026565093572,-45.));
#199=CARTESIAN_POINT('',(-1.44598958820877,-6.89499142619237,-45.));
#200=CARTESIAN_POINT('',(-0.0730511765730254,-7.04477252366724,-45.));
#201=CARTESIAN_POINT('',(1.30273997028637,-6.92362956974258,-45.));
#202=CARTESIAN_POINT('',(2.62825109948306,-6.53622976366878,-45.));
#203=CARTESIAN_POINT('',(3.85304685787993,-5.89795984952413,-45.));
#204=CARTESIAN_POINT('',(4.92971701756734,-5.03305507362826,-45.));
#205=CARTESIAN_POINT('',(5.81699510698604,-3.97462443178506,-45.));
#206=CARTESIAN_POINT('',(6.48047249665473,-2.76343286643052,-45.));
#207=CARTESIAN_POINT('',(6.902437131808,-1.42307393361455,-45.));
#208=CARTESIAN_POINT('',(7.04513146143965,-0.0468360880677642,-45.));
#209=CARTESIAN_POINT('',(6.91654096659694,1.32714719097506,-45.));
#210=CARTESIAN_POINT('',(7.00000000177979,9.12984965406594E-12,-44.9999));
#211=CARTESIAN_POINT('',(0.,8.00000100005222,-44.9999));
#212=CARTESIAN_POINT('',(0.,0.,0.));
#213=CARTESIAN_POINT('',(0.,0.,0.));
#214=CARTESIAN_POINT('',(0.,0.,0.));
#215=CARTESIAN_POINT('',(5.5,0.,0.));
#216=CARTESIAN_POINT('',(0.,0.,-0.86602540378444));
#217=CARTESIAN_POINT('',(0.,0.,-0.86602540379444));
#218=CARTESIAN_POINT('',(7.,0.,-0.86602540379444));
#219=CARTESIAN_POINT('',(0.,0.,-45.));
#220=CARTESIAN_POINT('',(0.,0.,-45.));
#221=CARTESIAN_POINT('',(-7.,0.,-45.));
#222=CARTESIAN_POINT('',(0.,0.,0.));
#223=CARTESIAN_POINT('',(0.,0.,0.));
#224=MECHANICAL_DESIGN_GEOMETRIC_PRESENTATION_REPRESENTATION('',(#100,#101),
#225);
#225=(
GEOMETRIC_REPRESENTATION_CONTEXT(3)
GLOBAL_UNCERTAINTY_ASSIGNED_CONTEXT((#228))
GLOBAL_UNIT_ASSIGNED_CONTEXT((#233,#232,#231))
REPRESENTATION_CONTEXT('428 12.000','TOP_LEVEL_ASSEMBLY_PART')
);
#226=(
GEOMETRIC_REPRESENTATION_CONTEXT(3)
GLOBAL_UNCERTAINTY_ASSIGNED_CONTEXT((#229))
GLOBAL_UNIT_ASSIGNED_CONTEXT((#233,#232,#231))
REPRESENTATION_CONTEXT('428 12.000_PART1','COMPONENT_PART')
);
#227=(
GEOMETRIC_REPRESENTATION_CONTEXT(3)
GLOBAL_UNCERTAINTY_ASSIGNED_CONTEXT((#230))
GLOBAL_UNIT_ASSIGNED_CONTEXT((#233,#232,#231))
REPRESENTATION_CONTEXT('428 12.000_PART2','COMPONENT_PART')
);
#228=UNCERTAINTY_MEASURE_WITH_UNIT(LENGTH_MEASURE(1.E-5),#233,
'DISTANCE_ACCURACY_VALUE','Maximum Tolerance applied to model');
#229=UNCERTAINTY_MEASURE_WITH_UNIT(LENGTH_MEASURE(1.E-5),#233,
'DISTANCE_ACCURACY_VALUE','Maximum Tolerance applied to model');
#230=UNCERTAINTY_MEASURE_WITH_UNIT(LENGTH_MEASURE(1.E-5),#233,
'DISTANCE_ACCURACY_VALUE','Maximum Tolerance applied to model');
#231=(
NAMED_UNIT(*)
SI_UNIT($,.STERADIAN.)
SOLID_ANGLE_UNIT()
);
#232=(
NAMED_UNIT(*)
PLANE_ANGLE_UNIT()
SI_UNIT($,.RADIAN.)
);
#233=(
LENGTH_UNIT()
NAMED_UNIT(*)
SI_UNIT(.MILLI.,.METRE.)
);
#234=PRODUCT_DEFINITION_SHAPE('','',#239);
#235=PRODUCT_DEFINITION_SHAPE('','',#240);
#236=PRODUCT_DEFINITION_SHAPE(' ','NAUO PRDDFN',#21);
#237=PRODUCT_DEFINITION_SHAPE('','',#241);
#238=PRODUCT_DEFINITION_SHAPE(' ','NAUO PRDDFN',#22);
#239=PRODUCT_DEFINITION('','',#245,#242);
#240=PRODUCT_DEFINITION('','',#246,#243);
#241=PRODUCT_DEFINITION('','',#247,#244);
#242=PRODUCT_DEFINITION_CONTEXT('',#261,'design');
#243=PRODUCT_DEFINITION_CONTEXT('',#261,'design');
#244=PRODUCT_DEFINITION_CONTEXT('',#261,'design');
#245=PRODUCT_DEFINITION_FORMATION_WITH_SPECIFIED_SOURCE('','',#251,
 .NOT_KNOWN.);
#246=PRODUCT_DEFINITION_FORMATION_WITH_SPECIFIED_SOURCE('','',#252,
 .NOT_KNOWN.);
#247=PRODUCT_DEFINITION_FORMATION_WITH_SPECIFIED_SOURCE('','',#253,
 .NOT_KNOWN.);
#248=PRODUCT_RELATED_PRODUCT_CATEGORY('','',(#251));
#249=PRODUCT_RELATED_PRODUCT_CATEGORY('','',(#252));
#250=PRODUCT_RELATED_PRODUCT_CATEGORY('','',(#253));
#251=PRODUCT('428 12.000','428 12.000','428 12.000',(#257));
#252=PRODUCT('428 12.000_PART1','428 12.000_PART1','428 12.000_PART1',(#258));
#253=PRODUCT('428 12.000_PART2','428 12.000_PART2','428 12.000_PART2',(#259));
#254=PRODUCT_CATEGORY('','');
#255=PRODUCT_CATEGORY('','');
#256=PRODUCT_CATEGORY('','');
#257=PRODUCT_CONTEXT('',#261,'mechanical');
#258=PRODUCT_CONTEXT('',#261,'mechanical');
#259=PRODUCT_CONTEXT('',#261,'mechanical');
#260=APPLICATION_PROTOCOL_DEFINITION('international standard',
'automotive_design',2010,#261);
#261=APPLICATION_CONTEXT(
'core data for automotive mechanical design processes');
ENDSEC;
END-ISO-10303-21;
