ISO-10303-21;
HEADER;
/* Generated by software containing ST-Developer
 * from STEP Tools, Inc. (www.steptools.com) 
 */
/* OPTION: using custom renumber hook */

FILE_DESCRIPTION(
/* description */ ('STEP AP214'),
/* implementation_level */ '2;1');

FILE_NAME(
/* name */ '429 10.000',
/* time_stamp */ '2026-05-15T10:47:38+02:00',
/* author */ ('License CC BY-ND 4.0'),
/* organization */ ('CADENAS'),
/* preprocessor_version */ 'ST-DEVELOPER v20',
/* originating_system */ 'PARTsolutions',
/* authorisation */ '  ');

FILE_SCHEMA (('AUTOMOTIVE_DESIGN {1 0 10303 214 3 1 1}'));
ENDSEC;

DATA;
#10=PROPERTY_DEFINITION_REPRESENTATION(#14,#12);
#11=PROPERTY_DEFINITION_REPRESENTATION(#15,#13);
#12=REPRESENTATION('',(#16),#225);
#13=REPRESENTATION('',(#17),#225);
#14=PROPERTY_DEFINITION('pmi validation property','',#234);
#15=PROPERTY_DEFINITION('pmi validation property','',#234);
#16=VALUE_REPRESENTATION_ITEM('number of annotations',COUNT_MEASURE(0.));
#17=VALUE_REPRESENTATION_ITEM('number of views',COUNT_MEASURE(0.));
#18=CYLINDRICAL_SURFACE('',#136,6.25);
#19=CONTEXT_DEPENDENT_SHAPE_REPRESENTATION(#23,#236);
#20=CONTEXT_DEPENDENT_SHAPE_REPRESENTATION(#24,#238);
#21=NEXT_ASSEMBLY_USAGE_OCCURRENCE('NAUO1','429 10.000_PART1',
'429 10.000_PART1',#239,#240,'');
#22=NEXT_ASSEMBLY_USAGE_OCCURRENCE('NAUO2','429 10.000_PART2',
'429 10.000_PART2',#239,#241,'');
#23=(
REPRESENTATION_RELATIONSHIP(' ',' ',#121,#120)
REPRESENTATION_RELATIONSHIP_WITH_TRANSFORMATION(#25)
SHAPE_REPRESENTATION_RELATIONSHIP()
);
#24=(
REPRESENTATION_RELATIONSHIP(' ',' ',#122,#120)
REPRESENTATION_RELATIONSHIP_WITH_TRANSFORMATION(#26)
SHAPE_REPRESENTATION_RELATIONSHIP()
);
#25=ITEM_DEFINED_TRANSFORMATION(' ',' ',#123,#129);
#26=ITEM_DEFINED_TRANSFORMATION(' ',' ',#123,#137);
#27=SHAPE_REPRESENTATION_RELATIONSHIP('','',#121,#29);
#28=SHAPE_REPRESENTATION_RELATIONSHIP('','',#122,#30);
#29=ADVANCED_BREP_SHAPE_REPRESENTATION('',(#115),#226);
#30=ADVANCED_BREP_SHAPE_REPRESENTATION('',(#116),#227);
#31=B_SPLINE_CURVE_WITH_KNOTS('',3,(#175,#176,#177,#178,#179,#180,#181,
#182,#183,#184,#185,#186,#187,#188,#189,#190,#191,#192,#193,#194,#195,#196,
#197,#198,#199,#200,#201,#202,#203,#204,#205,#206,#207,#208,#209),
 .UNSPECIFIED.,.T.,.F.,(1,1,1,1,1,1,1,1,1,1,1,1,1,1,1,1,1,1,1,1,1,1,1,1,
1,1,1,1,1,1,1,1,1,1,1,1,1,1,1),(-0.0953947368421053,-0.0641447368421053,
-0.0328947368421053,0.,0.0296875,0.060859375,0.09210546875,0.1233552734375,
0.154605263671875,0.185855263183594,0.21710526315918,0.248355263157959,
0.279605263157898,0.310855263157895,0.342105263157895,0.373355263157895,
0.404605263157895,0.435855263157895,0.467105263157895,0.498355263157895,
0.529605263157895,0.560855263157895,0.592105263157895,0.623355263157895,
0.654605263157895,0.685855263157895,0.717105263157895,0.748355263157895,
0.779605263157895,0.810855263157895,0.842105263157895,0.873355263157895,
0.904605263157895,0.935855263157895,0.967105263157895,1.,1.0296875,1.060859375,
1.09210546875),.UNSPECIFIED.);
#32=PLANE('',#127);
#33=PLANE('',#128);
#34=PLANE('',#130);
#35=PLANE('',#134);
#36=ORIENTED_EDGE('',*,*,#48,.F.);
#37=ORIENTED_EDGE('',*,*,#49,.T.);
#38=ORIENTED_EDGE('',*,*,#49,.F.);
#39=ORIENTED_EDGE('',*,*,#50,.F.);
#40=ORIENTED_EDGE('',*,*,#50,.T.);
#41=ORIENTED_EDGE('',*,*,#48,.T.);
#42=ORIENTED_EDGE('',*,*,#51,.T.);
#43=ORIENTED_EDGE('',*,*,#52,.F.);
#44=ORIENTED_EDGE('',*,*,#51,.F.);
#45=ORIENTED_EDGE('',*,*,#53,.T.);
#46=ORIENTED_EDGE('',*,*,#53,.F.);
#47=ORIENTED_EDGE('',*,*,#52,.T.);
#48=EDGE_CURVE('',#54,#54,#60,.T.);
#49=EDGE_CURVE('',#55,#55,#61,.T.);
#50=EDGE_CURVE('',#56,#56,#31,.F.);
#51=EDGE_CURVE('',#57,#57,#62,.T.);
#52=EDGE_CURVE('',#58,#58,#63,.T.);
#53=EDGE_CURVE('',#59,#59,#64,.T.);
#54=VERTEX_POINT('',#171);
#55=VERTEX_POINT('',#173);
#56=VERTEX_POINT('',#210);
#57=VERTEX_POINT('',#215);
#58=VERTEX_POINT('',#218);
#59=VERTEX_POINT('',#221);
#60=CIRCLE('',#125,6.70000100223233);
#61=CIRCLE('',#126,6.70000000216966);
#62=CIRCLE('',#131,5.);
#63=CIRCLE('',#133,6.25);
#64=CIRCLE('',#135,6.25);
#65=EDGE_LOOP('',(#36));
#66=EDGE_LOOP('',(#37));
#67=EDGE_LOOP('',(#38));
#68=EDGE_LOOP('',(#39));
#69=EDGE_LOOP('',(#40));
#70=EDGE_LOOP('',(#41));
#71=EDGE_LOOP('',(#42));
#72=EDGE_LOOP('',(#43));
#73=EDGE_LOOP('',(#44));
#74=EDGE_LOOP('',(#45));
#75=EDGE_LOOP('',(#46));
#76=EDGE_LOOP('',(#47));
#77=FACE_BOUND('',#65,.T.);
#78=FACE_BOUND('',#66,.T.);
#79=FACE_BOUND('',#67,.T.);
#80=FACE_BOUND('',#68,.T.);
#81=FACE_BOUND('',#69,.T.);
#82=FACE_BOUND('',#70,.T.);
#83=FACE_BOUND('',#71,.T.);
#84=FACE_BOUND('',#72,.T.);
#85=FACE_BOUND('',#73,.T.);
#86=FACE_BOUND('',#74,.T.);
#87=FACE_BOUND('',#75,.T.);
#88=FACE_BOUND('',#76,.T.);
#89=CONICAL_SURFACE('',#124,4.95,0.0100002933);
#90=CONICAL_SURFACE('',#132,6.25,1.04719755);
#91=ADVANCED_FACE('',(#77,#78),#89,.T.);
#92=ADVANCED_FACE('',(#79,#80),#32,.F.);
#93=ADVANCED_FACE('',(#81,#82),#33,.F.);
#94=ADVANCED_FACE('',(#83),#34,.T.);
#95=ADVANCED_FACE('',(#84,#85),#90,.T.);
#96=ADVANCED_FACE('',(#86),#35,.F.);
#97=ADVANCED_FACE('',(#87,#88),#18,.T.);
#98=CLOSED_SHELL('',(#91,#92,#93));
#99=CLOSED_SHELL('',(#94,#95,#96,#97));
#100=STYLED_ITEM('',(#102),#115);
#101=STYLED_ITEM('',(#103),#116);
#102=PRESENTATION_STYLE_ASSIGNMENT((#104));
#103=PRESENTATION_STYLE_ASSIGNMENT((#105));
#104=SURFACE_STYLE_USAGE(.BOTH.,#106);
#105=SURFACE_STYLE_USAGE(.BOTH.,#107);
#106=SURFACE_SIDE_STYLE('',(#108));
#107=SURFACE_SIDE_STYLE('',(#109));
#108=SURFACE_STYLE_FILL_AREA(#110);
#109=SURFACE_STYLE_FILL_AREA(#111);
#110=FILL_AREA_STYLE('',(#112));
#111=FILL_AREA_STYLE('',(#113));
#112=FILL_AREA_STYLE_COLOUR('',#114);
#113=FILL_AREA_STYLE_COLOUR('',#114);
#114=COLOUR_RGB('',0.4999923706,0.4999923706,0.4999923706);
#115=MANIFOLD_SOLID_BREP('1',#98);
#116=MANIFOLD_SOLID_BREP('1',#99);
#117=SHAPE_DEFINITION_REPRESENTATION(#234,#120);
#118=SHAPE_DEFINITION_REPRESENTATION(#235,#121);
#119=SHAPE_DEFINITION_REPRESENTATION(#237,#122);
#120=SHAPE_REPRESENTATION('429 10.000',(#123,#129,#137),#225);
#121=SHAPE_REPRESENTATION('429 10.000_PART1',(#123),#226);
#122=SHAPE_REPRESENTATION('429 10.000_PART2',(#123),#227);
#123=AXIS2_PLACEMENT_3D('',#168,#138,#139);
#124=AXIS2_PLACEMENT_3D('',#169,#140,#141);
#125=AXIS2_PLACEMENT_3D('',#170,#142,#143);
#126=AXIS2_PLACEMENT_3D('',#172,#144,#145);
#127=AXIS2_PLACEMENT_3D('',#174,#146,#147);
#128=AXIS2_PLACEMENT_3D('',#211,#148,#149);
#129=AXIS2_PLACEMENT_3D('',#212,#150,#151);
#130=AXIS2_PLACEMENT_3D('',#213,#152,#153);
#131=AXIS2_PLACEMENT_3D('',#214,#154,#155);
#132=AXIS2_PLACEMENT_3D('',#216,#156,#157);
#133=AXIS2_PLACEMENT_3D('',#217,#158,#159);
#134=AXIS2_PLACEMENT_3D('',#219,#160,#161);
#135=AXIS2_PLACEMENT_3D('',#220,#162,#163);
#136=AXIS2_PLACEMENT_3D('',#222,#164,#165);
#137=AXIS2_PLACEMENT_3D('',#223,#166,#167);
#138=DIRECTION('',(0.,0.,1.));
#139=DIRECTION('',(1.,0.,0.));
#140=DIRECTION('',(0.,0.,1.));
#141=DIRECTION('',(0.,1.,0.));
#142=DIRECTION('',(0.,-1.54914840645371E-18,1.));
#143=DIRECTION('',(0.,1.,1.54914840645371E-18));
#144=DIRECTION('',(0.,0.,1.));
#145=DIRECTION('',(1.,0.,0.));
#146=DIRECTION('',(0.,0.,1.));
#147=DIRECTION('',(1.,0.,0.));
#148=DIRECTION('',(0.,1.54914840645371E-18,-1.));
#149=DIRECTION('',(-1.,0.,0.));
#150=DIRECTION('',(0.,0.,1.));
#151=DIRECTION('',(1.,0.,0.));
#152=DIRECTION('',(0.,0.,1.));
#153=DIRECTION('',(1.,0.,0.));
#154=DIRECTION('',(0.,0.,1.));
#155=DIRECTION('',(1.,0.,0.));
#156=DIRECTION('',(2.25160675622455E-17,0.,-1.));
#157=DIRECTION('',(-1.,0.,-2.25160675622455E-17));
#158=DIRECTION('',(0.,0.,-1.));
#159=DIRECTION('',(1.,0.,0.));
#160=DIRECTION('',(0.,0.,1.));
#161=DIRECTION('',(1.,0.,0.));
#162=DIRECTION('',(0.,0.,-1.));
#163=DIRECTION('',(-1.,0.,0.));
#164=DIRECTION('',(0.,0.,1.));
#165=DIRECTION('',(-1.,0.,0.));
#166=DIRECTION('',(0.,0.,1.));
#167=DIRECTION('',(1.,0.,0.));
#168=CARTESIAN_POINT('',(0.,0.,0.));
#169=CARTESIAN_POINT('',(0.,3.33049919541028E-16,-214.989034074174));
#170=CARTESIAN_POINT('',(-2.71187937660935E-16,6.19657813433067E-17,-39.9999));
#171=CARTESIAN_POINT('',(-2.71187937660935E-16,6.70000100223233,-39.9999));
#172=CARTESIAN_POINT('',(0.,3.33049919541028E-16,-40.));
#173=CARTESIAN_POINT('',(6.70000000216966,3.33049919541028E-16,-40.));
#174=CARTESIAN_POINT('',(0.,0.,-40.));
#175=CARTESIAN_POINT('',(6.1628847383816,-1.27061575397112,-40.));
#176=CARTESIAN_POINT('',(6.29029964693054,-0.0418109384937305,-40.));
#177=CARTESIAN_POINT('',(6.17547418247966,1.18493901515491,-40.));
#178=CARTESIAN_POINT('',(5.83540810050568,2.34761272965574,-40.));
#179=CARTESIAN_POINT('',(5.26602943124708,3.4401897650352,-40.));
#180=CARTESIAN_POINT('',(4.49385476415742,4.40151702490823,-40.));
#181=CARTESIAN_POINT('',(3.54876974496458,5.19364041015433,-40.));
#182=CARTESIAN_POINT('',(2.46732797407342,5.78590730704478,-40.));
#183=CARTESIAN_POINT('',(1.29110611972023,6.15621148012928,-40.));
#184=CARTESIAN_POINT('',(0.0652668047954037,6.28998021473425,-40.));
#185=CARTESIAN_POINT('',(-1.16310738755123,6.18181565786271,-40.));
#186=CARTESIAN_POINT('',(-2.34660095803562,5.83591437738037,-40.));
#187=CARTESIAN_POINT('',(-3.44015725687287,5.26604316295482,-40.));
#188=CARTESIAN_POINT('',(-4.40153390542431,4.49384168715529,-40.));
#189=CARTESIAN_POINT('',(-5.19365013080654,3.5487546141955,-40.));
#190=CARTESIAN_POINT('',(-5.78591626409933,2.46730756978009,-40.));
#191=CARTESIAN_POINT('',(-6.15621557818498,1.29108602082015,-40.));
#192=CARTESIAN_POINT('',(-6.28998048987397,0.0652456505098082,-40.));
#193=CARTESIAN_POINT('',(-6.18181176166332,-1.16312796490486,-40.));
#194=CARTESIAN_POINT('',(-5.83590654933436,-2.34662044317451,-40.));
#195=CARTESIAN_POINT('',(-5.26603168740097,-3.44017482511167,-40.));
#196=CARTESIAN_POINT('',(-4.49382700506632,-4.401548902256,-40.));
#197=CARTESIAN_POINT('',(-3.54873727419988,-5.19366197035997,-40.));
#198=CARTESIAN_POINT('',(-2.46728829975123,-5.7859244894169,-40.));
#199=CARTESIAN_POINT('',(-1.29106535794037,-6.1562199048588,-40.));
#200=CARTESIAN_POINT('',(-0.0652249937844023,-6.28998067466794,-40.));
#201=CARTESIAN_POINT('',(1.16314997057433,-6.18180795651022,-40.));
#202=CARTESIAN_POINT('',(2.34663568809159,-5.83589850273604,-40.));
#203=CARTESIAN_POINT('',(3.44020447289061,-5.26602147191534,-40.));
#204=CARTESIAN_POINT('',(4.40153255479635,-4.49380288465046,-40.));
#205=CARTESIAN_POINT('',(5.19374288600281,-3.5487816536491,-40.));
#206=CARTESIAN_POINT('',(5.78613169498456,-2.46735874192223,-40.));
#207=CARTESIAN_POINT('',(6.1628847383816,-1.27061575397112,-40.));
#208=CARTESIAN_POINT('',(6.29029964693054,-0.0418109384937305,-40.));
#209=CARTESIAN_POINT('',(6.17547418247966,1.18493901515491,-40.));
#210=CARTESIAN_POINT('',(6.2500000019922,8.9078050491409E-12,-39.9999));
#211=CARTESIAN_POINT('',(0.,6.70000100006267,-39.9999));
#212=CARTESIAN_POINT('',(0.,0.,0.));
#213=CARTESIAN_POINT('',(0.,0.,0.));
#214=CARTESIAN_POINT('',(0.,0.,0.));
#215=CARTESIAN_POINT('',(5.,0.,0.));
#216=CARTESIAN_POINT('',(0.,0.,-0.721687836487034));
#217=CARTESIAN_POINT('',(0.,0.,-0.721687836497034));
#218=CARTESIAN_POINT('',(6.25,0.,-0.721687836497034));
#219=CARTESIAN_POINT('',(0.,0.,-40.));
#220=CARTESIAN_POINT('',(0.,0.,-40.));
#221=CARTESIAN_POINT('',(-6.25,0.,-40.));
#222=CARTESIAN_POINT('',(0.,0.,0.));
#223=CARTESIAN_POINT('',(0.,0.,0.));
#224=MECHANICAL_DESIGN_GEOMETRIC_PRESENTATION_REPRESENTATION('',(#100,#101),
#225);
#225=(
GEOMETRIC_REPRESENTATION_CONTEXT(3)
GLOBAL_UNCERTAINTY_ASSIGNED_CONTEXT((#228))
GLOBAL_UNIT_ASSIGNED_CONTEXT((#233,#232,#231))
REPRESENTATION_CONTEXT('429 10.000','TOP_LEVEL_ASSEMBLY_PART')
);
#226=(
GEOMETRIC_REPRESENTATION_CONTEXT(3)
GLOBAL_UNCERTAINTY_ASSIGNED_CONTEXT((#229))
GLOBAL_UNIT_ASSIGNED_CONTEXT((#233,#232,#231))
REPRESENTATION_CONTEXT('429 10.000_PART1','COMPONENT_PART')
);
#227=(
GEOMETRIC_REPRESENTATION_CONTEXT(3)
GLOBAL_UNCERTAINTY_ASSIGNED_CONTEXT((#230))
GLOBAL_UNIT_ASSIGNED_CONTEXT((#233,#232,#231))
REPRESENTATION_CONTEXT('429 10.000_PART2','COMPONENT_PART')
);
#228=UNCERTAINTY_MEASURE_WITH_UNIT(LENGTH_MEASURE(1.E-5),#233,
'DISTANCE_ACCURACY_VALUE','Maximum Tolerance applied to model');
#229=UNCERTAINTY_MEASURE_WITH_UNIT(LENGTH_MEASURE(1.E-5),#233,
'DISTANCE_ACCURACY_VALUE','Maximum Tolerance applied to model');
#230=UNCERTAINTY_MEASURE_WITH_UNIT(LENGTH_MEASURE(1.E-5),#233,
'DISTANCE_ACCURACY_VALUE','Maximum Tolerance applied to model');
#231=(
NAMED_UNIT(*)
SI_UNIT($,.STERADIAN.)
SOLID_ANGLE_UNIT()
);
#232=(
NAMED_UNIT(*)
PLANE_ANGLE_UNIT()
SI_UNIT($,.RADIAN.)
);
#233=(
LENGTH_UNIT()
NAMED_UNIT(*)
SI_UNIT(.MILLI.,.METRE.)
);
#234=PRODUCT_DEFINITION_SHAPE('','',#239);
#235=PRODUCT_DEFINITION_SHAPE('','',#240);
#236=PRODUCT_DEFINITION_SHAPE(' ','NAUO PRDDFN',#21);
#237=PRODUCT_DEFINITION_SHAPE('','',#241);
#238=PRODUCT_DEFINITION_SHAPE(' ','NAUO PRDDFN',#22);
#239=PRODUCT_DEFINITION('','',#245,#242);
#240=PRODUCT_DEFINITION('','',#246,#243);
#241=PRODUCT_DEFINITION('','',#247,#244);
#242=PRODUCT_DEFINITION_CONTEXT('',#261,'design');
#243=PRODUCT_DEFINITION_CONTEXT('',#261,'design');
#244=PRODUCT_DEFINITION_CONTEXT('',#261,'design');
#245=PRODUCT_DEFINITION_FORMATION_WITH_SPECIFIED_SOURCE('','',#251,
 .NOT_KNOWN.);
#246=PRODUCT_DEFINITION_FORMATION_WITH_SPECIFIED_SOURCE('','',#252,
 .NOT_KNOWN.);
#247=PRODUCT_DEFINITION_FORMATION_WITH_SPECIFIED_SOURCE('','',#253,
 .NOT_KNOWN.);
#248=PRODUCT_RELATED_PRODUCT_CATEGORY('','',(#251));
#249=PRODUCT_RELATED_PRODUCT_CATEGORY('','',(#252));
#250=PRODUCT_RELATED_PRODUCT_CATEGORY('','',(#253));
#251=PRODUCT('429 10.000','429 10.000','429 10.000',(#257));
#252=PRODUCT('429 10.000_PART1','429 10.000_PART1','429 10.000_PART1',(#258));
#253=PRODUCT('429 10.000_PART2','429 10.000_PART2','429 10.000_PART2',(#259));
#254=PRODUCT_CATEGORY('','');
#255=PRODUCT_CATEGORY('','');
#256=PRODUCT_CATEGORY('','');
#257=PRODUCT_CONTEXT('',#261,'mechanical');
#258=PRODUCT_CONTEXT('',#261,'mechanical');
#259=PRODUCT_CONTEXT('',#261,'mechanical');
#260=APPLICATION_PROTOCOL_DEFINITION('international standard',
'automotive_design',2010,#261);
#261=APPLICATION_CONTEXT(
'core data for automotive mechanical design processes');
ENDSEC;
END-ISO-10303-21;
