ISO-10303-21;
HEADER;
/* Generated by software containing ST-Developer
 * from STEP Tools, Inc. (www.steptools.com) 
 */
/* OPTION: using custom renumber hook */

FILE_DESCRIPTION(
/* description */ ('STEP AP214'),
/* implementation_level */ '2;1');

FILE_NAME(
/* name */ '717 11.000',
/* time_stamp */ '2026-05-15T11:08:49+02:00',
/* author */ ('License CC BY-ND 4.0'),
/* organization */ ('CADENAS'),
/* preprocessor_version */ 'ST-DEVELOPER v20',
/* originating_system */ 'PARTsolutions',
/* authorisation */ '  ');

FILE_SCHEMA (('AUTOMOTIVE_DESIGN {1 0 10303 214 3 1 1}'));
ENDSEC;

DATA;
#10=PROPERTY_DEFINITION_REPRESENTATION(#14,#12);
#11=PROPERTY_DEFINITION_REPRESENTATION(#15,#13);
#12=REPRESENTATION('',(#16),#321);
#13=REPRESENTATION('',(#17),#321);
#14=PROPERTY_DEFINITION('pmi validation property','',#330);
#15=PROPERTY_DEFINITION('pmi validation property','',#330);
#16=VALUE_REPRESENTATION_ITEM('number of annotations',COUNT_MEASURE(0.));
#17=VALUE_REPRESENTATION_ITEM('number of views',COUNT_MEASURE(0.));
#18=CONTEXT_DEPENDENT_SHAPE_REPRESENTATION(#22,#332);
#19=CONTEXT_DEPENDENT_SHAPE_REPRESENTATION(#23,#334);
#20=NEXT_ASSEMBLY_USAGE_OCCURRENCE('NAUO1','717 11.000_PART1',
'717 11.000_PART1',#335,#336,'');
#21=NEXT_ASSEMBLY_USAGE_OCCURRENCE('NAUO2','717 11.000_PART2',
'717 11.000_PART2',#335,#337,'');
#22=(
REPRESENTATION_RELATIONSHIP(' ',' ',#190,#189)
REPRESENTATION_RELATIONSHIP_WITH_TRANSFORMATION(#24)
SHAPE_REPRESENTATION_RELATIONSHIP()
);
#23=(
REPRESENTATION_RELATIONSHIP(' ',' ',#191,#189)
REPRESENTATION_RELATIONSHIP_WITH_TRANSFORMATION(#25)
SHAPE_REPRESENTATION_RELATIONSHIP()
);
#24=ITEM_DEFINED_TRANSFORMATION(' ',' ',#192,#208);
#25=ITEM_DEFINED_TRANSFORMATION(' ',' ',#192,#220);
#26=SHAPE_REPRESENTATION_RELATIONSHIP('','',#190,#28);
#27=SHAPE_REPRESENTATION_RELATIONSHIP('','',#191,#29);
#28=ADVANCED_BREP_SHAPE_REPRESENTATION('',(#184),#322);
#29=ADVANCED_BREP_SHAPE_REPRESENTATION('',(#185),#323);
#30=CYLINDRICAL_SURFACE('',#202,5.);
#31=CYLINDRICAL_SURFACE('',#205,4.5);
#32=CYLINDRICAL_SURFACE('',#215,5.5);
#33=CONICAL_SURFACE('',#200,5.,0.7853981625);
#34=CONICAL_SURFACE('',#204,4.7343146,0.7853981625);
#35=CONICAL_SURFACE('',#207,5.,0.523598775);
#36=CONICAL_SURFACE('',#209,4.5807612,0.7853981625);
#37=CONICAL_SURFACE('',#217,4.7343146,0.7853981625);
#38=TOROIDAL_SURFACE('',#195,5.3,0.8);
#39=ORIENTED_EDGE('',*,*,#63,.F.);
#40=ORIENTED_EDGE('',*,*,#64,.F.);
#41=ORIENTED_EDGE('',*,*,#65,.T.);
#42=ORIENTED_EDGE('',*,*,#66,.T.);
#43=ORIENTED_EDGE('',*,*,#67,.F.);
#44=ORIENTED_EDGE('',*,*,#66,.F.);
#45=ORIENTED_EDGE('',*,*,#68,.T.);
#46=ORIENTED_EDGE('',*,*,#67,.T.);
#47=ORIENTED_EDGE('',*,*,#64,.T.);
#48=ORIENTED_EDGE('',*,*,#63,.T.);
#49=ORIENTED_EDGE('',*,*,#69,.T.);
#50=ORIENTED_EDGE('',*,*,#65,.F.);
#51=ORIENTED_EDGE('',*,*,#68,.F.);
#52=ORIENTED_EDGE('',*,*,#69,.F.);
#53=ORIENTED_EDGE('',*,*,#70,.F.);
#54=ORIENTED_EDGE('',*,*,#71,.T.);
#55=ORIENTED_EDGE('',*,*,#70,.T.);
#56=ORIENTED_EDGE('',*,*,#72,.T.);
#57=ORIENTED_EDGE('',*,*,#71,.F.);
#58=ORIENTED_EDGE('',*,*,#73,.T.);
#59=ORIENTED_EDGE('',*,*,#72,.F.);
#60=ORIENTED_EDGE('',*,*,#74,.F.);
#61=ORIENTED_EDGE('',*,*,#73,.F.);
#62=ORIENTED_EDGE('',*,*,#74,.T.);
#63=EDGE_CURVE('',#75,#75,#87,.T.);
#64=EDGE_CURVE('',#76,#76,#88,.T.);
#65=EDGE_CURVE('',#77,#77,#89,.T.);
#66=EDGE_CURVE('',#78,#78,#90,.T.);
#67=EDGE_CURVE('',#79,#79,#91,.T.);
#68=EDGE_CURVE('',#80,#80,#92,.T.);
#69=EDGE_CURVE('',#81,#81,#93,.T.);
#70=EDGE_CURVE('',#82,#82,#94,.T.);
#71=EDGE_CURVE('',#83,#83,#95,.T.);
#72=EDGE_CURVE('',#84,#84,#96,.T.);
#73=EDGE_CURVE('',#85,#85,#97,.T.);
#74=EDGE_CURVE('',#86,#86,#98,.T.);
#75=VERTEX_POINT('',#282);
#76=VERTEX_POINT('',#285);
#77=VERTEX_POINT('',#287);
#78=VERTEX_POINT('',#290);
#79=VERTEX_POINT('',#293);
#80=VERTEX_POINT('',#296);
#81=VERTEX_POINT('',#300);
#82=VERTEX_POINT('',#305);
#83=VERTEX_POINT('',#307);
#84=VERTEX_POINT('',#311);
#85=VERTEX_POINT('',#314);
#86=VERTEX_POINT('',#317);
#87=CIRCLE('',#194,5.35);
#88=CIRCLE('',#196,4.7343146);
#89=CIRCLE('',#197,4.5);
#90=CIRCLE('',#199,4.6);
#91=CIRCLE('',#201,5.);
#92=CIRCLE('',#203,5.);
#93=CIRCLE('',#206,4.5);
#94=CIRCLE('',#210,4.5807612);
#95=CIRCLE('',#211,5.5);
#96=CIRCLE('',#214,5.35);
#97=CIRCLE('',#216,5.5);
#98=CIRCLE('',#218,5.4);
#99=EDGE_LOOP('',(#39));
#100=EDGE_LOOP('',(#40));
#101=EDGE_LOOP('',(#41));
#102=EDGE_LOOP('',(#42));
#103=EDGE_LOOP('',(#43));
#104=EDGE_LOOP('',(#44));
#105=EDGE_LOOP('',(#45));
#106=EDGE_LOOP('',(#46));
#107=EDGE_LOOP('',(#47));
#108=EDGE_LOOP('',(#48));
#109=EDGE_LOOP('',(#49));
#110=EDGE_LOOP('',(#50));
#111=EDGE_LOOP('',(#51));
#112=EDGE_LOOP('',(#52));
#113=EDGE_LOOP('',(#53));
#114=EDGE_LOOP('',(#54));
#115=EDGE_LOOP('',(#55));
#116=EDGE_LOOP('',(#56));
#117=EDGE_LOOP('',(#57));
#118=EDGE_LOOP('',(#58));
#119=EDGE_LOOP('',(#59));
#120=EDGE_LOOP('',(#60));
#121=EDGE_LOOP('',(#61));
#122=EDGE_LOOP('',(#62));
#123=FACE_BOUND('',#99,.T.);
#124=FACE_BOUND('',#100,.T.);
#125=FACE_BOUND('',#101,.T.);
#126=FACE_BOUND('',#102,.T.);
#127=FACE_BOUND('',#103,.T.);
#128=FACE_BOUND('',#104,.T.);
#129=FACE_BOUND('',#105,.T.);
#130=FACE_BOUND('',#106,.T.);
#131=FACE_BOUND('',#107,.T.);
#132=FACE_BOUND('',#108,.T.);
#133=FACE_BOUND('',#109,.T.);
#134=FACE_BOUND('',#110,.T.);
#135=FACE_BOUND('',#111,.T.);
#136=FACE_BOUND('',#112,.T.);
#137=FACE_BOUND('',#113,.T.);
#138=FACE_BOUND('',#114,.T.);
#139=FACE_BOUND('',#115,.T.);
#140=FACE_BOUND('',#116,.T.);
#141=FACE_BOUND('',#117,.T.);
#142=FACE_BOUND('',#118,.T.);
#143=FACE_BOUND('',#119,.T.);
#144=FACE_BOUND('',#120,.T.);
#145=FACE_BOUND('',#121,.T.);
#146=FACE_BOUND('',#122,.T.);
#147=PLANE('',#193);
#148=PLANE('',#198);
#149=PLANE('',#212);
#150=PLANE('',#213);
#151=PLANE('',#219);
#152=ADVANCED_FACE('',(#123),#147,.F.);
#153=ADVANCED_FACE('',(#124,#125),#38,.F.);
#154=ADVANCED_FACE('',(#126),#148,.T.);
#155=ADVANCED_FACE('',(#127,#128),#33,.T.);
#156=ADVANCED_FACE('',(#129,#130),#30,.T.);
#157=ADVANCED_FACE('',(#131,#132),#34,.T.);
#158=ADVANCED_FACE('',(#133,#134),#31,.T.);
#159=ADVANCED_FACE('',(#135,#136),#35,.T.);
#160=ADVANCED_FACE('',(#137,#138),#36,.T.);
#161=ADVANCED_FACE('',(#139),#149,.T.);
#162=ADVANCED_FACE('',(#140),#150,.T.);
#163=ADVANCED_FACE('',(#141,#142),#32,.T.);
#164=ADVANCED_FACE('',(#143,#144),#37,.T.);
#165=ADVANCED_FACE('',(#145,#146),#151,.T.);
#166=CLOSED_SHELL('',(#152,#153,#154,#155,#156,#157,#158,#159));
#167=CLOSED_SHELL('',(#160,#161,#162,#163,#164,#165));
#168=STYLED_ITEM('',(#170),#184);
#169=STYLED_ITEM('',(#171),#185);
#170=PRESENTATION_STYLE_ASSIGNMENT((#172));
#171=PRESENTATION_STYLE_ASSIGNMENT((#173));
#172=SURFACE_STYLE_USAGE(.BOTH.,#174);
#173=SURFACE_STYLE_USAGE(.BOTH.,#175);
#174=SURFACE_SIDE_STYLE('',(#176));
#175=SURFACE_SIDE_STYLE('',(#177));
#176=SURFACE_STYLE_FILL_AREA(#178);
#177=SURFACE_STYLE_FILL_AREA(#179);
#178=FILL_AREA_STYLE('',(#180));
#179=FILL_AREA_STYLE('',(#181));
#180=FILL_AREA_STYLE_COLOUR('',#182);
#181=FILL_AREA_STYLE_COLOUR('',#183);
#182=COLOUR_RGB('',0.4999923706,0.4999923706,0.4999923706);
#183=COLOUR_RGB('',0.8000000119,0.8000000119,0.8000000119);
#184=MANIFOLD_SOLID_BREP('1',#166);
#185=MANIFOLD_SOLID_BREP('1',#167);
#186=SHAPE_DEFINITION_REPRESENTATION(#330,#189);
#187=SHAPE_DEFINITION_REPRESENTATION(#331,#190);
#188=SHAPE_DEFINITION_REPRESENTATION(#333,#191);
#189=SHAPE_REPRESENTATION('717 11.000',(#192,#208,#220),#321);
#190=SHAPE_REPRESENTATION('717 11.000_PART1',(#192),#322);
#191=SHAPE_REPRESENTATION('717 11.000_PART2',(#192),#323);
#192=AXIS2_PLACEMENT_3D('',#279,#221,#222);
#193=AXIS2_PLACEMENT_3D('',#280,#223,#224);
#194=AXIS2_PLACEMENT_3D('',#281,#225,#226);
#195=AXIS2_PLACEMENT_3D('',#283,#227,#228);
#196=AXIS2_PLACEMENT_3D('',#284,#229,#230);
#197=AXIS2_PLACEMENT_3D('',#286,#231,#232);
#198=AXIS2_PLACEMENT_3D('',#288,#233,#234);
#199=AXIS2_PLACEMENT_3D('',#289,#235,#236);
#200=AXIS2_PLACEMENT_3D('',#291,#237,#238);
#201=AXIS2_PLACEMENT_3D('',#292,#239,#240);
#202=AXIS2_PLACEMENT_3D('',#294,#241,#242);
#203=AXIS2_PLACEMENT_3D('',#295,#243,#244);
#204=AXIS2_PLACEMENT_3D('',#297,#245,#246);
#205=AXIS2_PLACEMENT_3D('',#298,#247,#248);
#206=AXIS2_PLACEMENT_3D('',#299,#249,#250);
#207=AXIS2_PLACEMENT_3D('',#301,#251,#252);
#208=AXIS2_PLACEMENT_3D('',#302,#253,#254);
#209=AXIS2_PLACEMENT_3D('',#303,#255,#256);
#210=AXIS2_PLACEMENT_3D('',#304,#257,#258);
#211=AXIS2_PLACEMENT_3D('',#306,#259,#260);
#212=AXIS2_PLACEMENT_3D('',#308,#261,#262);
#213=AXIS2_PLACEMENT_3D('',#309,#263,#264);
#214=AXIS2_PLACEMENT_3D('',#310,#265,#266);
#215=AXIS2_PLACEMENT_3D('',#312,#267,#268);
#216=AXIS2_PLACEMENT_3D('',#313,#269,#270);
#217=AXIS2_PLACEMENT_3D('',#315,#271,#272);
#218=AXIS2_PLACEMENT_3D('',#316,#273,#274);
#219=AXIS2_PLACEMENT_3D('',#318,#275,#276);
#220=AXIS2_PLACEMENT_3D('',#319,#277,#278);
#221=DIRECTION('',(0.,0.,1.));
#222=DIRECTION('',(1.,0.,0.));
#223=DIRECTION('',(0.,0.,1.));
#224=DIRECTION('',(1.,0.,0.));
#225=DIRECTION('',(0.,0.,1.));
#226=DIRECTION('',(1.,0.,0.));
#227=DIRECTION('',(0.,0.,-1.));
#228=DIRECTION('',(-1.,0.,0.));
#229=DIRECTION('',(0.,0.,-1.));
#230=DIRECTION('',(-1.,0.,0.));
#231=DIRECTION('',(0.,0.,-1.));
#232=DIRECTION('',(-1.,0.,0.));
#233=DIRECTION('',(0.,0.,1.));
#234=DIRECTION('',(1.,0.,0.));
#235=DIRECTION('',(0.,0.,1.));
#236=DIRECTION('',(1.,0.,0.));
#237=DIRECTION('',(-4.47165970642032E-17,0.,-1.));
#238=DIRECTION('',(-1.,0.,4.47165970642032E-17));
#239=DIRECTION('',(0.,0.,-1.));
#240=DIRECTION('',(1.,0.,0.));
#241=DIRECTION('',(0.,0.,1.));
#242=DIRECTION('',(-1.,0.,0.));
#243=DIRECTION('',(0.,0.,1.));
#244=DIRECTION('',(1.,0.,0.));
#245=DIRECTION('',(-2.76247911641875E-17,0.,-1.));
#246=DIRECTION('',(-1.,0.,2.76247911641875E-17));
#247=DIRECTION('',(0.,0.,1.));
#248=DIRECTION('',(-1.,0.,0.));
#249=DIRECTION('',(0.,0.,-1.));
#250=DIRECTION('',(-1.,0.,0.));
#251=DIRECTION('',(7.14919621851955E-17,0.,1.));
#252=DIRECTION('',(1.,0.,-7.14919621851955E-17));
#253=DIRECTION('',(0.,0.,1.));
#254=DIRECTION('',(1.,0.,0.));
#255=DIRECTION('',(0.,0.,1.));
#256=DIRECTION('',(1.,0.,0.));
#257=DIRECTION('',(0.,0.,-1.));
#258=DIRECTION('',(-1.,0.,0.));
#259=DIRECTION('',(0.,0.,-1.));
#260=DIRECTION('',(-1.,0.,0.));
#261=DIRECTION('',(0.,0.,-1.));
#262=DIRECTION('',(0.,-1.,0.));
#263=DIRECTION('',(0.,0.,1.));
#264=DIRECTION('',(1.,0.,0.));
#265=DIRECTION('',(0.,0.,1.));
#266=DIRECTION('',(1.,0.,0.));
#267=DIRECTION('',(0.,0.,1.));
#268=DIRECTION('',(-1.,0.,0.));
#269=DIRECTION('',(0.,0.,-1.));
#270=DIRECTION('',(-1.,0.,0.));
#271=DIRECTION('',(-2.76247911641875E-17,0.,-1.));
#272=DIRECTION('',(-1.,0.,2.76247911641875E-17));
#273=DIRECTION('',(0.,0.,-1.));
#274=DIRECTION('',(-1.,0.,0.));
#275=DIRECTION('',(0.,0.,1.));
#276=DIRECTION('',(1.,0.,0.));
#277=DIRECTION('',(0.,0.,1.));
#278=DIRECTION('',(1.,0.,0.));
#279=CARTESIAN_POINT('',(0.,0.,0.));
#280=CARTESIAN_POINT('',(0.,0.,-129.95));
#281=CARTESIAN_POINT('',(0.,0.,-129.95000000001));
#282=CARTESIAN_POINT('',(5.35,0.,-129.95000000001));
#283=CARTESIAN_POINT('',(0.,0.,-128.768629150102));
#284=CARTESIAN_POINT('',(0.,0.,-129.334314575061));
#285=CARTESIAN_POINT('',(-4.7343146,0.,-129.334314575061));
#286=CARTESIAN_POINT('',(0.,0.,-128.768629150112));
#287=CARTESIAN_POINT('',(-4.5,0.,-128.768629150112));
#288=CARTESIAN_POINT('',(0.,0.,0.));
#289=CARTESIAN_POINT('',(0.,0.,0.));
#290=CARTESIAN_POINT('',(4.6,0.,0.));
#291=CARTESIAN_POINT('',(0.,0.,-0.400000000000001));
#292=CARTESIAN_POINT('',(0.,0.,-0.400000000010001));
#293=CARTESIAN_POINT('',(5.,0.,-0.400000000010001));
#294=CARTESIAN_POINT('',(0.,0.,0.));
#295=CARTESIAN_POINT('',(0.,0.,-46.00000000001));
#296=CARTESIAN_POINT('',(5.,0.,-46.00000000001));
#297=CARTESIAN_POINT('',(0.,0.,-129.334314575051));
#298=CARTESIAN_POINT('',(0.,0.,-141.5));
#299=CARTESIAN_POINT('',(0.,0.,-46.8660254037944));
#300=CARTESIAN_POINT('',(-4.5,0.,-46.8660254037944));
#301=CARTESIAN_POINT('',(0.,0.,-46.));
#302=CARTESIAN_POINT('',(0.,0.,0.));
#303=CARTESIAN_POINT('',(0.,0.,-142.));
#304=CARTESIAN_POINT('',(0.,0.,-142.00000000001));
#305=CARTESIAN_POINT('',(-4.5807612,0.,-142.00000000001));
#306=CARTESIAN_POINT('',(0.,0.,-141.080761184467));
#307=CARTESIAN_POINT('',(-5.5,0.,-141.080761184467));
#308=CARTESIAN_POINT('',(0.,0.,-142.));
#309=CARTESIAN_POINT('',(0.,0.,-129.95));
#310=CARTESIAN_POINT('',(0.,0.,-129.95000000001));
#311=CARTESIAN_POINT('',(5.35,0.,-129.95000000001));
#312=CARTESIAN_POINT('',(0.,0.,0.));
#313=CARTESIAN_POINT('',(0.,0.,-130.00000000001));
#314=CARTESIAN_POINT('',(-5.5,0.,-130.00000000001));
#315=CARTESIAN_POINT('',(0.,0.,-129.334314575051));
#316=CARTESIAN_POINT('',(0.,0.,-130.00000000001));
#317=CARTESIAN_POINT('',(-5.4,0.,-130.00000000001));
#318=CARTESIAN_POINT('',(0.,5.5,-130.));
#319=CARTESIAN_POINT('',(0.,0.,0.));
#320=MECHANICAL_DESIGN_GEOMETRIC_PRESENTATION_REPRESENTATION('',(#168,#169),
#321);
#321=(
GEOMETRIC_REPRESENTATION_CONTEXT(3)
GLOBAL_UNCERTAINTY_ASSIGNED_CONTEXT((#324))
GLOBAL_UNIT_ASSIGNED_CONTEXT((#329,#328,#327))
REPRESENTATION_CONTEXT('717 11.000','TOP_LEVEL_ASSEMBLY_PART')
);
#322=(
GEOMETRIC_REPRESENTATION_CONTEXT(3)
GLOBAL_UNCERTAINTY_ASSIGNED_CONTEXT((#325))
GLOBAL_UNIT_ASSIGNED_CONTEXT((#329,#328,#327))
REPRESENTATION_CONTEXT('717 11.000_PART1','COMPONENT_PART')
);
#323=(
GEOMETRIC_REPRESENTATION_CONTEXT(3)
GLOBAL_UNCERTAINTY_ASSIGNED_CONTEXT((#326))
GLOBAL_UNIT_ASSIGNED_CONTEXT((#329,#328,#327))
REPRESENTATION_CONTEXT('717 11.000_PART2','COMPONENT_PART')
);
#324=UNCERTAINTY_MEASURE_WITH_UNIT(LENGTH_MEASURE(1.E-5),#329,
'DISTANCE_ACCURACY_VALUE','Maximum Tolerance applied to model');
#325=UNCERTAINTY_MEASURE_WITH_UNIT(LENGTH_MEASURE(1.E-5),#329,
'DISTANCE_ACCURACY_VALUE','Maximum Tolerance applied to model');
#326=UNCERTAINTY_MEASURE_WITH_UNIT(LENGTH_MEASURE(1.E-5),#329,
'DISTANCE_ACCURACY_VALUE','Maximum Tolerance applied to model');
#327=(
NAMED_UNIT(*)
SI_UNIT($,.STERADIAN.)
SOLID_ANGLE_UNIT()
);
#328=(
NAMED_UNIT(*)
PLANE_ANGLE_UNIT()
SI_UNIT($,.RADIAN.)
);
#329=(
LENGTH_UNIT()
NAMED_UNIT(*)
SI_UNIT(.MILLI.,.METRE.)
);
#330=PRODUCT_DEFINITION_SHAPE('','',#335);
#331=PRODUCT_DEFINITION_SHAPE('','',#336);
#332=PRODUCT_DEFINITION_SHAPE(' ','NAUO PRDDFN',#20);
#333=PRODUCT_DEFINITION_SHAPE('','',#337);
#334=PRODUCT_DEFINITION_SHAPE(' ','NAUO PRDDFN',#21);
#335=PRODUCT_DEFINITION('','',#341,#338);
#336=PRODUCT_DEFINITION('','',#342,#339);
#337=PRODUCT_DEFINITION('','',#343,#340);
#338=PRODUCT_DEFINITION_CONTEXT('',#357,'design');
#339=PRODUCT_DEFINITION_CONTEXT('',#357,'design');
#340=PRODUCT_DEFINITION_CONTEXT('',#357,'design');
#341=PRODUCT_DEFINITION_FORMATION_WITH_SPECIFIED_SOURCE('','',#347,
 .NOT_KNOWN.);
#342=PRODUCT_DEFINITION_FORMATION_WITH_SPECIFIED_SOURCE('','',#348,
 .NOT_KNOWN.);
#343=PRODUCT_DEFINITION_FORMATION_WITH_SPECIFIED_SOURCE('','',#349,
 .NOT_KNOWN.);
#344=PRODUCT_RELATED_PRODUCT_CATEGORY('','',(#347));
#345=PRODUCT_RELATED_PRODUCT_CATEGORY('','',(#348));
#346=PRODUCT_RELATED_PRODUCT_CATEGORY('','',(#349));
#347=PRODUCT('717 11.000','717 11.000','717 11.000',(#353));
#348=PRODUCT('717 11.000_PART1','717 11.000_PART1','717 11.000_PART1',(#354));
#349=PRODUCT('717 11.000_PART2','717 11.000_PART2','717 11.000_PART2',(#355));
#350=PRODUCT_CATEGORY('','');
#351=PRODUCT_CATEGORY('','');
#352=PRODUCT_CATEGORY('','');
#353=PRODUCT_CONTEXT('',#357,'mechanical');
#354=PRODUCT_CONTEXT('',#357,'mechanical');
#355=PRODUCT_CONTEXT('',#357,'mechanical');
#356=APPLICATION_PROTOCOL_DEFINITION('international standard',
'automotive_design',2010,#357);
#357=APPLICATION_CONTEXT(
'core data for automotive mechanical design processes');
ENDSEC;
END-ISO-10303-21;
