ISO-10303-21;
HEADER;
/* Generated by software containing ST-Developer
 * from STEP Tools, Inc. (www.steptools.com) 
 */
/* OPTION: using custom renumber hook */

FILE_DESCRIPTION(
/* description */ ('STEP AP214'),
/* implementation_level */ '2;1');

FILE_NAME(
/* name */ '719 17.000',
/* time_stamp */ '2026-05-15T11:09:02+02:00',
/* author */ ('License CC BY-ND 4.0'),
/* organization */ ('CADENAS'),
/* preprocessor_version */ 'ST-DEVELOPER v20',
/* originating_system */ 'PARTsolutions',
/* authorisation */ '  ');

FILE_SCHEMA (('AUTOMOTIVE_DESIGN {1 0 10303 214 3 1 1}'));
ENDSEC;

DATA;
#10=PROPERTY_DEFINITION_REPRESENTATION(#14,#12);
#11=PROPERTY_DEFINITION_REPRESENTATION(#15,#13);
#12=REPRESENTATION('',(#16),#731);
#13=REPRESENTATION('',(#17),#731);
#14=PROPERTY_DEFINITION('pmi validation property','',#740);
#15=PROPERTY_DEFINITION('pmi validation property','',#740);
#16=VALUE_REPRESENTATION_ITEM('number of annotations',COUNT_MEASURE(0.));
#17=VALUE_REPRESENTATION_ITEM('number of views',COUNT_MEASURE(0.));
#18=CONTEXT_DEPENDENT_SHAPE_REPRESENTATION(#22,#742);
#19=CONTEXT_DEPENDENT_SHAPE_REPRESENTATION(#23,#744);
#20=NEXT_ASSEMBLY_USAGE_OCCURRENCE('NAUO1','719 17.000_PART1',
'719 17.000_PART1',#745,#746,'');
#21=NEXT_ASSEMBLY_USAGE_OCCURRENCE('NAUO2','719 17.000_PART2',
'719 17.000_PART2',#745,#747,'');
#22=(
REPRESENTATION_RELATIONSHIP(' ',' ',#402,#401)
REPRESENTATION_RELATIONSHIP_WITH_TRANSFORMATION(#24)
SHAPE_REPRESENTATION_RELATIONSHIP()
);
#23=(
REPRESENTATION_RELATIONSHIP(' ',' ',#403,#401)
REPRESENTATION_RELATIONSHIP_WITH_TRANSFORMATION(#25)
SHAPE_REPRESENTATION_RELATIONSHIP()
);
#24=ITEM_DEFINED_TRANSFORMATION(' ',' ',#404,#447);
#25=ITEM_DEFINED_TRANSFORMATION(' ',' ',#404,#459);
#26=SHAPE_REPRESENTATION_RELATIONSHIP('','',#402,#28);
#27=SHAPE_REPRESENTATION_RELATIONSHIP('','',#403,#29);
#28=ADVANCED_BREP_SHAPE_REPRESENTATION('',(#396),#732);
#29=ADVANCED_BREP_SHAPE_REPRESENTATION('',(#397),#733);
#30=TOROIDAL_SURFACE('',#432,8.3,0.8);
#31=TOROIDAL_SURFACE('',#438,5.15,1.6);
#32=TOROIDAL_SURFACE('',#443,5.15,1.6);
#33=CONICAL_SURFACE('',#416,8.3905381,0.7853981625);
#34=CONICAL_SURFACE('',#421,7.5,0.523598775);
#35=CONICAL_SURFACE('',#423,9.0148655,0.0249679045);
#36=CONICAL_SURFACE('',#425,7.4165874,0.7853981625);
#37=CONICAL_SURFACE('',#428,9.0148655,0.0249679045);
#38=CONICAL_SURFACE('',#434,9.,0.523598775);
#39=CONICAL_SURFACE('',#435,7.7343146,0.7853981625);
#40=CONICAL_SURFACE('',#441,0.15,1.431169985);
#41=CONICAL_SURFACE('',#448,7.7343146,0.7853981625);
#42=CONICAL_SURFACE('',#454,7.5807612,0.7853981625);
#43=PLANE('',#409);
#44=PLANE('',#411);
#45=PLANE('',#412);
#46=PLANE('',#413);
#47=PLANE('',#444);
#48=PLANE('',#451);
#49=PLANE('',#453);
#50=PLANE('',#456);
#51=CIRCLE('',#407,1.414);
#52=CIRCLE('',#408,1.414);
#53=CIRCLE('',#410,7.95);
#54=CIRCLE('',#414,9.0148655);
#55=CIRCLE('',#415,9.);
#56=CIRCLE('',#417,8.39053814888427);
#57=CIRCLE('',#418,7.5);
#58=CIRCLE('',#420,7.5);
#59=CIRCLE('',#422,8.04091482899076);
#60=CIRCLE('',#424,7.41658748001677);
#61=CIRCLE('',#426,6.75);
#62=CIRCLE('',#427,6.75);
#63=CIRCLE('',#430,7.5);
#64=CIRCLE('',#431,7.5);
#65=CIRCLE('',#433,7.7343146);
#66=CIRCLE('',#437,6.75);
#67=CIRCLE('',#439,6.75);
#68=CIRCLE('',#440,5.372677);
#69=CIRCLE('',#442,5.372677);
#70=CIRCLE('',#449,7.95);
#71=CIRCLE('',#450,8.);
#72=CIRCLE('',#452,7.5807612);
#73=CIRCLE('',#455,8.5);
#74=CIRCLE('',#457,8.5);
#75=LINE('',#597,#81);
#76=LINE('',#608,#82);
#77=LINE('',#628,#83);
#78=LINE('',#672,#84);
#79=LINE('',#700,#85);
#80=LINE('',#702,#86);
#81=VECTOR('',#464,1000.);
#82=VECTOR('',#479,1000.);
#83=VECTOR('',#480,1000.);
#84=VECTOR('',#529,1000.);
#85=VECTOR('',#546,1000.);
#86=VECTOR('',#547,1000.);
#87=ORIENTED_EDGE('',*,*,#167,.T.);
#88=ORIENTED_EDGE('',*,*,#168,.T.);
#89=ORIENTED_EDGE('',*,*,#169,.F.);
#90=ORIENTED_EDGE('',*,*,#170,.T.);
#91=ORIENTED_EDGE('',*,*,#171,.T.);
#92=ORIENTED_EDGE('',*,*,#172,.F.);
#93=ORIENTED_EDGE('',*,*,#170,.F.);
#94=ORIENTED_EDGE('',*,*,#169,.T.);
#95=ORIENTED_EDGE('',*,*,#173,.F.);
#96=ORIENTED_EDGE('',*,*,#174,.F.);
#97=ORIENTED_EDGE('',*,*,#175,.T.);
#98=ORIENTED_EDGE('',*,*,#176,.F.);
#99=ORIENTED_EDGE('',*,*,#177,.F.);
#100=ORIENTED_EDGE('',*,*,#178,.F.);
#101=ORIENTED_EDGE('',*,*,#179,.F.);
#102=ORIENTED_EDGE('',*,*,#180,.T.);
#103=ORIENTED_EDGE('',*,*,#181,.F.);
#104=ORIENTED_EDGE('',*,*,#181,.T.);
#105=ORIENTED_EDGE('',*,*,#182,.F.);
#106=ORIENTED_EDGE('',*,*,#182,.T.);
#107=ORIENTED_EDGE('',*,*,#183,.F.);
#108=ORIENTED_EDGE('',*,*,#183,.T.);
#109=ORIENTED_EDGE('',*,*,#184,.F.);
#110=ORIENTED_EDGE('',*,*,#184,.T.);
#111=ORIENTED_EDGE('',*,*,#185,.F.);
#112=ORIENTED_EDGE('',*,*,#186,.F.);
#113=ORIENTED_EDGE('',*,*,#178,.T.);
#114=ORIENTED_EDGE('',*,*,#180,.F.);
#115=ORIENTED_EDGE('',*,*,#187,.T.);
#116=ORIENTED_EDGE('',*,*,#188,.F.);
#117=ORIENTED_EDGE('',*,*,#189,.F.);
#118=ORIENTED_EDGE('',*,*,#188,.T.);
#119=ORIENTED_EDGE('',*,*,#179,.T.);
#120=ORIENTED_EDGE('',*,*,#187,.F.);
#121=ORIENTED_EDGE('',*,*,#189,.T.);
#122=ORIENTED_EDGE('',*,*,#172,.T.);
#123=ORIENTED_EDGE('',*,*,#168,.F.);
#124=ORIENTED_EDGE('',*,*,#186,.T.);
#125=ORIENTED_EDGE('',*,*,#190,.T.);
#126=ORIENTED_EDGE('',*,*,#191,.F.);
#127=ORIENTED_EDGE('',*,*,#192,.F.);
#128=ORIENTED_EDGE('',*,*,#173,.T.);
#129=ORIENTED_EDGE('',*,*,#193,.T.);
#130=ORIENTED_EDGE('',*,*,#176,.T.);
#131=ORIENTED_EDGE('',*,*,#194,.F.);
#132=ORIENTED_EDGE('',*,*,#195,.F.);
#133=ORIENTED_EDGE('',*,*,#175,.F.);
#134=ORIENTED_EDGE('',*,*,#196,.T.);
#135=ORIENTED_EDGE('',*,*,#197,.T.);
#136=ORIENTED_EDGE('',*,*,#194,.T.);
#137=ORIENTED_EDGE('',*,*,#171,.F.);
#138=ORIENTED_EDGE('',*,*,#196,.F.);
#139=ORIENTED_EDGE('',*,*,#174,.T.);
#140=ORIENTED_EDGE('',*,*,#192,.T.);
#141=ORIENTED_EDGE('',*,*,#198,.F.);
#142=ORIENTED_EDGE('',*,*,#199,.T.);
#143=ORIENTED_EDGE('',*,*,#195,.T.);
#144=ORIENTED_EDGE('',*,*,#197,.F.);
#145=ORIENTED_EDGE('',*,*,#198,.T.);
#146=ORIENTED_EDGE('',*,*,#191,.T.);
#147=ORIENTED_EDGE('',*,*,#200,.F.);
#148=ORIENTED_EDGE('',*,*,#200,.T.);
#149=ORIENTED_EDGE('',*,*,#190,.F.);
#150=ORIENTED_EDGE('',*,*,#201,.F.);
#151=ORIENTED_EDGE('',*,*,#167,.F.);
#152=ORIENTED_EDGE('',*,*,#177,.T.);
#153=ORIENTED_EDGE('',*,*,#193,.F.);
#154=ORIENTED_EDGE('',*,*,#199,.F.);
#155=ORIENTED_EDGE('',*,*,#201,.T.);
#156=ORIENTED_EDGE('',*,*,#185,.T.);
#157=ORIENTED_EDGE('',*,*,#202,.F.);
#158=ORIENTED_EDGE('',*,*,#203,.F.);
#159=ORIENTED_EDGE('',*,*,#204,.T.);
#160=ORIENTED_EDGE('',*,*,#202,.T.);
#161=ORIENTED_EDGE('',*,*,#204,.F.);
#162=ORIENTED_EDGE('',*,*,#205,.T.);
#163=ORIENTED_EDGE('',*,*,#206,.F.);
#164=ORIENTED_EDGE('',*,*,#203,.T.);
#165=ORIENTED_EDGE('',*,*,#205,.F.);
#166=ORIENTED_EDGE('',*,*,#206,.T.);
#167=EDGE_CURVE('',#207,#208,#239,.T.);
#168=EDGE_CURVE('',#208,#209,#240,.T.);
#169=EDGE_CURVE('',#207,#209,#75,.T.);
#170=EDGE_CURVE('',#210,#210,#51,.T.);
#171=EDGE_CURVE('',#211,#211,#52,.T.);
#172=EDGE_CURVE('',#212,#212,#53,.T.);
#173=EDGE_CURVE('',#213,#209,#76,.T.);
#174=EDGE_CURVE('',#214,#213,#241,.T.);
#175=EDGE_CURVE('',#214,#215,#242,.T.);
#176=EDGE_CURVE('',#216,#215,#243,.T.);
#177=EDGE_CURVE('',#207,#216,#77,.T.);
#178=EDGE_CURVE('',#217,#217,#54,.T.);
#179=EDGE_CURVE('',#218,#218,#55,.T.);
#180=EDGE_CURVE('',#219,#219,#56,.T.);
#181=EDGE_CURVE('',#220,#220,#57,.T.);
#182=EDGE_CURVE('',#221,#221,#58,.T.);
#183=EDGE_CURVE('',#222,#222,#59,.T.);
#184=EDGE_CURVE('',#223,#223,#60,.T.);
#185=EDGE_CURVE('',#224,#208,#61,.T.);
#186=EDGE_CURVE('',#208,#224,#62,.T.);
#187=EDGE_CURVE('',#225,#225,#63,.T.);
#188=EDGE_CURVE('',#226,#226,#64,.T.);
#189=EDGE_CURVE('',#227,#227,#65,.T.);
#190=EDGE_CURVE('',#224,#228,#244,.T.);
#191=EDGE_CURVE('',#229,#228,#78,.T.);
#192=EDGE_CURVE('',#213,#229,#66,.T.);
#193=EDGE_CURVE('',#230,#216,#67,.T.);
#194=EDGE_CURVE('',#231,#215,#68,.T.);
#195=EDGE_CURVE('',#230,#231,#245,.T.);
#196=EDGE_CURVE('',#214,#232,#69,.T.);
#197=EDGE_CURVE('',#232,#231,#246,.T.);
#198=EDGE_CURVE('',#232,#229,#247,.T.);
#199=EDGE_CURVE('',#233,#230,#79,.T.);
#200=EDGE_CURVE('',#233,#228,#80,.T.);
#201=EDGE_CURVE('',#233,#224,#248,.T.);
#202=EDGE_CURVE('',#234,#234,#70,.T.);
#203=EDGE_CURVE('',#235,#235,#71,.T.);
#204=EDGE_CURVE('',#236,#236,#72,.T.);
#205=EDGE_CURVE('',#237,#237,#73,.T.);
#206=EDGE_CURVE('',#238,#238,#74,.T.);
#207=VERTEX_POINT('',#587);
#208=VERTEX_POINT('',#588);
#209=VERTEX_POINT('',#596);
#210=VERTEX_POINT('',#600);
#211=VERTEX_POINT('',#602);
#212=VERTEX_POINT('',#605);
#213=VERTEX_POINT('',#609);
#214=VERTEX_POINT('',#615);
#215=VERTEX_POINT('',#621);
#216=VERTEX_POINT('',#627);
#217=VERTEX_POINT('',#631);
#218=VERTEX_POINT('',#633);
#219=VERTEX_POINT('',#636);
#220=VERTEX_POINT('',#638);
#221=VERTEX_POINT('',#641);
#222=VERTEX_POINT('',#644);
#223=VERTEX_POINT('',#647);
#224=VERTEX_POINT('',#650);
#225=VERTEX_POINT('',#655);
#226=VERTEX_POINT('',#657);
#227=VERTEX_POINT('',#660);
#228=VERTEX_POINT('',#671);
#229=VERTEX_POINT('',#673);
#230=VERTEX_POINT('',#677);
#231=VERTEX_POINT('',#679);
#232=VERTEX_POINT('',#687);
#233=VERTEX_POINT('',#701);
#234=VERTEX_POINT('',#715);
#235=VERTEX_POINT('',#717);
#236=VERTEX_POINT('',#720);
#237=VERTEX_POINT('',#724);
#238=VERTEX_POINT('',#727);
#239=B_SPLINE_CURVE_WITH_KNOTS('',3,(#580,#581,#582,#583,#584,#585,#586),
 .UNSPECIFIED.,.F.,.F.,(4,1,1,1,4),(3.69983476503289E-15,0.00256794576690585,
0.005135891533808,0.00770383730071015,0.0102717830676123),.UNSPECIFIED.);
#240=B_SPLINE_CURVE_WITH_KNOTS('',3,(#589,#590,#591,#592,#593,#594,#595),
 .UNSPECIFIED.,.F.,.F.,(4,1,1,1,4),(6.97274302659404E-15,0.00256571183818224,
0.0051314236763575,0.00769713551453276,0.010262847352708),.UNSPECIFIED.);
#241=B_SPLINE_CURVE_WITH_KNOTS('',3,(#610,#611,#612,#613,#614),
 .UNSPECIFIED.,.F.,.F.,(4,1,4),(8.08054475035903E-13,0.00122862893504227,
0.00245725786927648),.UNSPECIFIED.);
#242=B_SPLINE_CURVE_WITH_KNOTS('',3,(#616,#617,#618,#619,#620),
 .UNSPECIFIED.,.F.,.F.,(4,1,4),(0.,0.00435610633839927,0.00871221267679853),
 .UNSPECIFIED.);
#243=B_SPLINE_CURVE_WITH_KNOTS('',3,(#622,#623,#624,#625,#626),
 .UNSPECIFIED.,.F.,.F.,(4,1,4),(4.05733325668574E-15,0.00123374035051794,
0.00246748070103183),.UNSPECIFIED.);
#244=B_SPLINE_CURVE_WITH_KNOTS('',3,(#664,#665,#666,#667,#668,#669,#670),
 .UNSPECIFIED.,.F.,.F.,(4,1,1,1,4),(6.97274773346372E-15,0.00256571183818239,
0.0051314236763578,0.00769713551453322,0.0102628473527086),
 .UNSPECIFIED.);
#245=B_SPLINE_CURVE_WITH_KNOTS('',3,(#680,#681,#682,#683,#684),
 .UNSPECIFIED.,.F.,.F.,(4,1,4),(4.05733325668574E-15,0.00123374035031396,
0.00246748070062387),.UNSPECIFIED.);
#246=B_SPLINE_CURVE_WITH_KNOTS('',3,(#688,#689,#690,#691,#692),
 .UNSPECIFIED.,.F.,.F.,(4,1,4),(0.,0.00435610633839927,0.00871221267679853),
 .UNSPECIFIED.);
#247=B_SPLINE_CURVE_WITH_KNOTS('',3,(#694,#695,#696,#697,#698),
 .UNSPECIFIED.,.F.,.F.,(4,1,4),(2.26747659976243E-11,0.00122862894597562,
0.00245725786927648),.UNSPECIFIED.);
#248=B_SPLINE_CURVE_WITH_KNOTS('',3,(#704,#705,#706,#707,#708,#709,#710),
 .UNSPECIFIED.,.F.,.F.,(4,1,1,1,4),(4.62826434052431E-15,0.00256794576690655,
0.00513589153380846,0.00770383730071038,0.0102717830676123),
 .UNSPECIFIED.);
#249=EDGE_LOOP('',(#87,#88,#89));
#250=EDGE_LOOP('',(#90));
#251=EDGE_LOOP('',(#91));
#252=EDGE_LOOP('',(#92));
#253=EDGE_LOOP('',(#93));
#254=EDGE_LOOP('',(#94,#95,#96,#97,#98,#99));
#255=EDGE_LOOP('',(#100));
#256=EDGE_LOOP('',(#101));
#257=EDGE_LOOP('',(#102));
#258=EDGE_LOOP('',(#103));
#259=EDGE_LOOP('',(#104));
#260=EDGE_LOOP('',(#105));
#261=EDGE_LOOP('',(#106));
#262=EDGE_LOOP('',(#107));
#263=EDGE_LOOP('',(#108));
#264=EDGE_LOOP('',(#109));
#265=EDGE_LOOP('',(#110));
#266=EDGE_LOOP('',(#111,#112));
#267=EDGE_LOOP('',(#113));
#268=EDGE_LOOP('',(#114));
#269=EDGE_LOOP('',(#115));
#270=EDGE_LOOP('',(#116));
#271=EDGE_LOOP('',(#117));
#272=EDGE_LOOP('',(#118));
#273=EDGE_LOOP('',(#119));
#274=EDGE_LOOP('',(#120));
#275=EDGE_LOOP('',(#121));
#276=EDGE_LOOP('',(#122));
#277=EDGE_LOOP('',(#123,#124,#125,#126,#127,#128));
#278=EDGE_LOOP('',(#129,#130,#131,#132));
#279=EDGE_LOOP('',(#133,#134,#135,#136));
#280=EDGE_LOOP('',(#137));
#281=EDGE_LOOP('',(#138,#139,#140,#141));
#282=EDGE_LOOP('',(#142,#143,#144,#145,#146,#147));
#283=EDGE_LOOP('',(#148,#149,#150));
#284=EDGE_LOOP('',(#151,#152,#153,#154,#155,#156));
#285=EDGE_LOOP('',(#157));
#286=EDGE_LOOP('',(#158));
#287=EDGE_LOOP('',(#159));
#288=EDGE_LOOP('',(#160));
#289=EDGE_LOOP('',(#161));
#290=EDGE_LOOP('',(#162));
#291=EDGE_LOOP('',(#163));
#292=EDGE_LOOP('',(#164));
#293=EDGE_LOOP('',(#165));
#294=EDGE_LOOP('',(#166));
#295=FACE_BOUND('',#249,.T.);
#296=FACE_BOUND('',#250,.T.);
#297=FACE_BOUND('',#251,.T.);
#298=FACE_BOUND('',#252,.T.);
#299=FACE_BOUND('',#253,.T.);
#300=FACE_BOUND('',#254,.T.);
#301=FACE_BOUND('',#255,.T.);
#302=FACE_BOUND('',#256,.T.);
#303=FACE_BOUND('',#257,.T.);
#304=FACE_BOUND('',#258,.T.);
#305=FACE_BOUND('',#259,.T.);
#306=FACE_BOUND('',#260,.T.);
#307=FACE_BOUND('',#261,.T.);
#308=FACE_BOUND('',#262,.T.);
#309=FACE_BOUND('',#263,.T.);
#310=FACE_BOUND('',#264,.T.);
#311=FACE_BOUND('',#265,.T.);
#312=FACE_BOUND('',#266,.T.);
#313=FACE_BOUND('',#267,.T.);
#314=FACE_BOUND('',#268,.T.);
#315=FACE_BOUND('',#269,.T.);
#316=FACE_BOUND('',#270,.T.);
#317=FACE_BOUND('',#271,.T.);
#318=FACE_BOUND('',#272,.T.);
#319=FACE_BOUND('',#273,.T.);
#320=FACE_BOUND('',#274,.T.);
#321=FACE_BOUND('',#275,.T.);
#322=FACE_BOUND('',#276,.T.);
#323=FACE_BOUND('',#277,.T.);
#324=FACE_BOUND('',#278,.T.);
#325=FACE_BOUND('',#279,.T.);
#326=FACE_BOUND('',#280,.T.);
#327=FACE_BOUND('',#281,.T.);
#328=FACE_BOUND('',#282,.T.);
#329=FACE_BOUND('',#283,.T.);
#330=FACE_BOUND('',#284,.T.);
#331=FACE_BOUND('',#285,.T.);
#332=FACE_BOUND('',#286,.T.);
#333=FACE_BOUND('',#287,.T.);
#334=FACE_BOUND('',#288,.T.);
#335=FACE_BOUND('',#289,.T.);
#336=FACE_BOUND('',#290,.T.);
#337=FACE_BOUND('',#291,.T.);
#338=FACE_BOUND('',#292,.T.);
#339=FACE_BOUND('',#293,.T.);
#340=FACE_BOUND('',#294,.T.);
#341=CYLINDRICAL_SURFACE('',#405,6.);
#342=CYLINDRICAL_SURFACE('',#406,1.414);
#343=CYLINDRICAL_SURFACE('',#419,7.5);
#344=CYLINDRICAL_SURFACE('',#429,7.5);
#345=CYLINDRICAL_SURFACE('',#436,6.75);
#346=CYLINDRICAL_SURFACE('',#445,6.);
#347=CYLINDRICAL_SURFACE('',#446,6.75);
#348=CYLINDRICAL_SURFACE('',#458,8.5);
#349=ADVANCED_FACE('',(#295),#341,.F.);
#350=ADVANCED_FACE('',(#296,#297),#342,.T.);
#351=ADVANCED_FACE('',(#298),#43,.F.);
#352=ADVANCED_FACE('',(#299),#44,.T.);
#353=ADVANCED_FACE('',(#300),#45,.F.);
#354=ADVANCED_FACE('',(#301,#302),#46,.F.);
#355=ADVANCED_FACE('',(#303,#304),#33,.T.);
#356=ADVANCED_FACE('',(#305,#306),#343,.T.);
#357=ADVANCED_FACE('',(#307,#308),#34,.T.);
#358=ADVANCED_FACE('',(#309,#310),#35,.T.);
#359=ADVANCED_FACE('',(#311,#312),#36,.T.);
#360=ADVANCED_FACE('',(#313,#314),#37,.T.);
#361=ADVANCED_FACE('',(#315,#316),#344,.T.);
#362=ADVANCED_FACE('',(#317,#318),#30,.F.);
#363=ADVANCED_FACE('',(#319,#320),#38,.T.);
#364=ADVANCED_FACE('',(#321,#322),#39,.T.);
#365=ADVANCED_FACE('',(#323),#345,.T.);
#366=ADVANCED_FACE('',(#324),#31,.T.);
#367=ADVANCED_FACE('',(#325,#326),#40,.T.);
#368=ADVANCED_FACE('',(#327),#32,.T.);
#369=ADVANCED_FACE('',(#328),#47,.T.);
#370=ADVANCED_FACE('',(#329),#346,.F.);
#371=ADVANCED_FACE('',(#330),#347,.T.);
#372=ADVANCED_FACE('',(#331,#332),#41,.T.);
#373=ADVANCED_FACE('',(#333),#48,.T.);
#374=ADVANCED_FACE('',(#334),#49,.T.);
#375=ADVANCED_FACE('',(#335,#336),#42,.T.);
#376=ADVANCED_FACE('',(#337,#338),#50,.T.);
#377=ADVANCED_FACE('',(#339,#340),#348,.T.);
#378=CLOSED_SHELL('',(#349,#350,#351,#352,#353,#354,#355,#356,#357,#358,
#359,#360,#361,#362,#363,#364,#365,#366,#367,#368,#369,#370,#371));
#379=CLOSED_SHELL('',(#372,#373,#374,#375,#376,#377));
#380=STYLED_ITEM('',(#382),#396);
#381=STYLED_ITEM('',(#383),#397);
#382=PRESENTATION_STYLE_ASSIGNMENT((#384));
#383=PRESENTATION_STYLE_ASSIGNMENT((#385));
#384=SURFACE_STYLE_USAGE(.BOTH.,#386);
#385=SURFACE_STYLE_USAGE(.BOTH.,#387);
#386=SURFACE_SIDE_STYLE('',(#388));
#387=SURFACE_SIDE_STYLE('',(#389));
#388=SURFACE_STYLE_FILL_AREA(#390);
#389=SURFACE_STYLE_FILL_AREA(#391);
#390=FILL_AREA_STYLE('',(#392));
#391=FILL_AREA_STYLE('',(#393));
#392=FILL_AREA_STYLE_COLOUR('',#394);
#393=FILL_AREA_STYLE_COLOUR('',#395);
#394=COLOUR_RGB('',0.4999923706,0.4999923706,0.4999923706);
#395=COLOUR_RGB('',0.8000000119,0.8000000119,0.8000000119);
#396=MANIFOLD_SOLID_BREP('1',#378);
#397=MANIFOLD_SOLID_BREP('1',#379);
#398=SHAPE_DEFINITION_REPRESENTATION(#740,#401);
#399=SHAPE_DEFINITION_REPRESENTATION(#741,#402);
#400=SHAPE_DEFINITION_REPRESENTATION(#743,#403);
#401=SHAPE_REPRESENTATION('719 17.000',(#404,#447,#459),#731);
#402=SHAPE_REPRESENTATION('719 17.000_PART1',(#404),#732);
#403=SHAPE_REPRESENTATION('719 17.000_PART2',(#404),#733);
#404=AXIS2_PLACEMENT_3D('',#578,#460,#461);
#405=AXIS2_PLACEMENT_3D('',#579,#462,#463);
#406=AXIS2_PLACEMENT_3D('',#598,#465,#466);
#407=AXIS2_PLACEMENT_3D('',#599,#467,#468);
#408=AXIS2_PLACEMENT_3D('',#601,#469,#470);
#409=AXIS2_PLACEMENT_3D('',#603,#471,#472);
#410=AXIS2_PLACEMENT_3D('',#604,#473,#474);
#411=AXIS2_PLACEMENT_3D('',#606,#475,#476);
#412=AXIS2_PLACEMENT_3D('',#607,#477,#478);
#413=AXIS2_PLACEMENT_3D('',#629,#481,#482);
#414=AXIS2_PLACEMENT_3D('',#630,#483,#484);
#415=AXIS2_PLACEMENT_3D('',#632,#485,#486);
#416=AXIS2_PLACEMENT_3D('',#634,#487,#488);
#417=AXIS2_PLACEMENT_3D('',#635,#489,#490);
#418=AXIS2_PLACEMENT_3D('',#637,#491,#492);
#419=AXIS2_PLACEMENT_3D('',#639,#493,#494);
#420=AXIS2_PLACEMENT_3D('',#640,#495,#496);
#421=AXIS2_PLACEMENT_3D('',#642,#497,#498);
#422=AXIS2_PLACEMENT_3D('',#643,#499,#500);
#423=AXIS2_PLACEMENT_3D('',#645,#501,#502);
#424=AXIS2_PLACEMENT_3D('',#646,#503,#504);
#425=AXIS2_PLACEMENT_3D('',#648,#505,#506);
#426=AXIS2_PLACEMENT_3D('',#649,#507,#508);
#427=AXIS2_PLACEMENT_3D('',#651,#509,#510);
#428=AXIS2_PLACEMENT_3D('',#652,#511,#512);
#429=AXIS2_PLACEMENT_3D('',#653,#513,#514);
#430=AXIS2_PLACEMENT_3D('',#654,#515,#516);
#431=AXIS2_PLACEMENT_3D('',#656,#517,#518);
#432=AXIS2_PLACEMENT_3D('',#658,#519,#520);
#433=AXIS2_PLACEMENT_3D('',#659,#521,#522);
#434=AXIS2_PLACEMENT_3D('',#661,#523,#524);
#435=AXIS2_PLACEMENT_3D('',#662,#525,#526);
#436=AXIS2_PLACEMENT_3D('',#663,#527,#528);
#437=AXIS2_PLACEMENT_3D('',#674,#530,#531);
#438=AXIS2_PLACEMENT_3D('',#675,#532,#533);
#439=AXIS2_PLACEMENT_3D('',#676,#534,#535);
#440=AXIS2_PLACEMENT_3D('',#678,#536,#537);
#441=AXIS2_PLACEMENT_3D('',#685,#538,#539);
#442=AXIS2_PLACEMENT_3D('',#686,#540,#541);
#443=AXIS2_PLACEMENT_3D('',#693,#542,#543);
#444=AXIS2_PLACEMENT_3D('',#699,#544,#545);
#445=AXIS2_PLACEMENT_3D('',#703,#548,#549);
#446=AXIS2_PLACEMENT_3D('',#711,#550,#551);
#447=AXIS2_PLACEMENT_3D('',#712,#552,#553);
#448=AXIS2_PLACEMENT_3D('',#713,#554,#555);
#449=AXIS2_PLACEMENT_3D('',#714,#556,#557);
#450=AXIS2_PLACEMENT_3D('',#716,#558,#559);
#451=AXIS2_PLACEMENT_3D('',#718,#560,#561);
#452=AXIS2_PLACEMENT_3D('',#719,#562,#563);
#453=AXIS2_PLACEMENT_3D('',#721,#564,#565);
#454=AXIS2_PLACEMENT_3D('',#722,#566,#567);
#455=AXIS2_PLACEMENT_3D('',#723,#568,#569);
#456=AXIS2_PLACEMENT_3D('',#725,#570,#571);
#457=AXIS2_PLACEMENT_3D('',#726,#572,#573);
#458=AXIS2_PLACEMENT_3D('',#728,#574,#575);
#459=AXIS2_PLACEMENT_3D('',#729,#576,#577);
#460=DIRECTION('',(0.,0.,1.));
#461=DIRECTION('',(1.,0.,0.));
#462=DIRECTION('',(-1.,0.,0.));
#463=DIRECTION('',(0.,0.,-1.));
#464=DIRECTION('',(1.,0.,0.));
#465=DIRECTION('',(0.,0.,1.));
#466=DIRECTION('',(-1.,0.,0.));
#467=DIRECTION('',(0.,0.,-1.));
#468=DIRECTION('',(-1.,0.,0.));
#469=DIRECTION('',(0.,0.,1.));
#470=DIRECTION('',(-1.,0.,0.));
#471=DIRECTION('',(0.,0.,1.));
#472=DIRECTION('',(1.,0.,0.));
#473=DIRECTION('',(0.,0.,1.));
#474=DIRECTION('',(1.,0.,0.));
#475=DIRECTION('',(0.,0.,1.));
#476=DIRECTION('',(1.,0.,0.));
#477=DIRECTION('',(0.,1.,0.));
#478=DIRECTION('',(1.,0.,0.));
#479=DIRECTION('',(0.,0.,-1.));
#480=DIRECTION('',(0.,0.,1.));
#481=DIRECTION('',(0.,0.,1.));
#482=DIRECTION('',(1.,0.,0.));
#483=DIRECTION('',(0.,0.,1.));
#484=DIRECTION('',(1.,0.,0.));
#485=DIRECTION('',(0.,0.,-1.));
#486=DIRECTION('',(-1.,0.,0.));
#487=DIRECTION('',(-4.81681010395742E-17,0.,-1.));
#488=DIRECTION('',(-1.,0.,4.81681010395742E-17));
#489=DIRECTION('',(0.,0.,1.));
#490=DIRECTION('',(1.,0.,0.));
#491=DIRECTION('',(4.81681010395742E-17,0.,1.));
#492=DIRECTION('',(-1.,0.,4.81681010395742E-17));
#493=DIRECTION('',(0.,0.,1.));
#494=DIRECTION('',(-1.,0.,0.));
#495=DIRECTION('',(0.,0.,1.));
#496=DIRECTION('',(1.,0.,0.));
#497=DIRECTION('',(0.,0.,1.));
#498=DIRECTION('',(1.,0.,0.));
#499=DIRECTION('',(0.,0.,1.));
#500=DIRECTION('',(1.,0.,0.));
#501=DIRECTION('',(0.,0.,-1.));
#502=DIRECTION('',(-1.,0.,0.));
#503=DIRECTION('',(0.,0.,1.));
#504=DIRECTION('',(1.,0.,0.));
#505=DIRECTION('',(0.,0.,-1.));
#506=DIRECTION('',(-1.,0.,0.));
#507=DIRECTION('',(0.,0.,1.));
#508=DIRECTION('',(1.,0.,0.));
#509=DIRECTION('',(0.,0.,1.));
#510=DIRECTION('',(1.,0.,0.));
#511=DIRECTION('',(0.,0.,-1.));
#512=DIRECTION('',(-1.,0.,0.));
#513=DIRECTION('',(0.,0.,1.));
#514=DIRECTION('',(-1.,0.,0.));
#515=DIRECTION('',(0.,0.,-1.));
#516=DIRECTION('',(-1.,0.,0.));
#517=DIRECTION('',(0.,0.,-1.));
#518=DIRECTION('',(-1.,0.,0.));
#519=DIRECTION('',(0.,0.,-1.));
#520=DIRECTION('',(-1.,0.,0.));
#521=DIRECTION('',(0.,0.,-1.));
#522=DIRECTION('',(-1.,0.,0.));
#523=DIRECTION('',(-2.36680846535545E-17,0.,1.));
#524=DIRECTION('',(1.,0.,2.36680846535545E-17));
#525=DIRECTION('',(9.63989349669497E-17,0.,-1.));
#526=DIRECTION('',(-1.,0.,-9.63989349669497E-17));
#527=DIRECTION('',(0.,0.,-1.));
#528=DIRECTION('',(1.,0.,0.));
#529=DIRECTION('',(0.,0.,-1.));
#530=DIRECTION('',(0.,0.,1.));
#531=DIRECTION('',(1.,0.,0.));
#532=DIRECTION('',(0.,0.,1.));
#533=DIRECTION('',(1.,0.,0.));
#534=DIRECTION('',(0.,0.,1.));
#535=DIRECTION('',(1.,0.,0.));
#536=DIRECTION('',(0.,0.,1.));
#537=DIRECTION('',(1.,0.,0.));
#538=DIRECTION('',(5.85106429997985E-18,0.,-1.));
#539=DIRECTION('',(-1.,0.,-5.85106429997985E-18));
#540=DIRECTION('',(0.,0.,1.));
#541=DIRECTION('',(1.,0.,0.));
#542=DIRECTION('',(0.,0.,1.));
#543=DIRECTION('',(1.,0.,0.));
#544=DIRECTION('',(0.,1.,0.));
#545=DIRECTION('',(1.,0.,0.));
#546=DIRECTION('',(0.,0.,1.));
#547=DIRECTION('',(1.,0.,0.));
#548=DIRECTION('',(-1.,0.,0.));
#549=DIRECTION('',(0.,0.,-1.));
#550=DIRECTION('',(0.,0.,-1.));
#551=DIRECTION('',(1.,0.,0.));
#552=DIRECTION('',(0.,0.,1.));
#553=DIRECTION('',(1.,0.,0.));
#554=DIRECTION('',(9.63989349669497E-17,0.,-1.));
#555=DIRECTION('',(-1.,0.,-9.63989349669497E-17));
#556=DIRECTION('',(0.,0.,1.));
#557=DIRECTION('',(1.,0.,0.));
#558=DIRECTION('',(0.,0.,-1.));
#559=DIRECTION('',(-1.,0.,0.));
#560=DIRECTION('',(0.,0.,-1.));
#561=DIRECTION('',(0.,-1.,0.));
#562=DIRECTION('',(0.,0.,-1.));
#563=DIRECTION('',(-1.,0.,0.));
#564=DIRECTION('',(0.,0.,1.));
#565=DIRECTION('',(1.,0.,0.));
#566=DIRECTION('',(0.,0.,1.));
#567=DIRECTION('',(1.,0.,0.));
#568=DIRECTION('',(0.,0.,-1.));
#569=DIRECTION('',(-1.,0.,0.));
#570=DIRECTION('',(0.,0.,1.));
#571=DIRECTION('',(1.,0.,0.));
#572=DIRECTION('',(0.,0.,-1.));
#573=DIRECTION('',(-1.,0.,0.));
#574=DIRECTION('',(0.,0.,1.));
#575=DIRECTION('',(-1.,0.,0.));
#576=DIRECTION('',(0.,0.,1.));
#577=DIRECTION('',(1.,0.,0.));
#578=CARTESIAN_POINT('',(0.,0.,0.));
#579=CARTESIAN_POINT('',(-9.99999999999991,-9.15,65.1656782778786));
#580=CARTESIAN_POINT('',(-5.96992462263963,-3.15,65.1656782778786));
#581=CARTESIAN_POINT('',(-5.96992462263963,-3.15,64.2979501272848));
#582=CARTESIAN_POINT('',(-5.79435219741666,-3.53206234634743,62.5837350732004));
#583=CARTESIAN_POINT('',(-4.69746696207105,-5.02227222778442,60.6453206691432));
#584=CARTESIAN_POINT('',(-2.58102035814992,-6.41715285245034,59.7926144217511));
#585=CARTESIAN_POINT('',(-0.866851492993976,-6.75,59.6665874439316));
#586=CARTESIAN_POINT('',(8.53085781674557E-14,-6.75,59.6665874439316));
#587=CARTESIAN_POINT('',(-5.96992462264199,-3.15000000001,65.1656782778836));
#588=CARTESIAN_POINT('',(5.08793190621163E-12,-6.74999999998854,59.6665874439366));
#589=CARTESIAN_POINT('',(8.80046600795518E-14,-6.75,59.6665874439316));
#590=CARTESIAN_POINT('',(0.866848534176481,-6.75,59.6665874439316));
#591=CARTESIAN_POINT('',(2.57979841123907,-6.41588305213624,59.7940320469057));
#592=CARTESIAN_POINT('',(4.68511523208918,-5.03336032302499,60.6367212476844));
#593=CARTESIAN_POINT('',(5.79374810266621,-3.53523316324579,62.5726270616776));
#594=CARTESIAN_POINT('',(5.96992462263981,-3.15,64.2970261805952));
#595=CARTESIAN_POINT('',(5.96992462263981,-3.15,65.1656782778786));
#596=CARTESIAN_POINT('',(5.96992462264217,-3.15000000001,65.1656782778836));
#597=CARTESIAN_POINT('',(-10.0000000000099,-3.15000000001,65.1656782778886));
#598=CARTESIAN_POINT('',(8.78591523436893E-14,0.,75.));
#599=CARTESIAN_POINT('',(1.00878591523437E-11,0.,75.00000000001));
#600=CARTESIAN_POINT('',(-1.41399999998991,0.,75.00000000001));
#601=CARTESIAN_POINT('',(1.00878591523437E-11,0.,74.8223563849462));
#602=CARTESIAN_POINT('',(-1.41399999998991,0.,74.8223563849462));
#603=CARTESIAN_POINT('',(8.78591523436893E-14,0.,-119.95));
#604=CARTESIAN_POINT('',(1.00878591523437E-11,0.,-119.95000000001));
#605=CARTESIAN_POINT('',(7.95000000001009,0.,-119.95000000001));
#606=CARTESIAN_POINT('',(8.78591523436893E-14,0.,75.));
#607=CARTESIAN_POINT('',(-9.99999999999991,-3.15,65.1656782778786));
#608=CARTESIAN_POINT('',(5.96992462264981,-3.15000000001,73.4104641547742));
#609=CARTESIAN_POINT('',(5.96992462264981,-3.150000000005,72.6815717104632));
#610=CARTESIAN_POINT('',(4.35237380437638,-3.15,74.2660006204447));
#611=CARTESIAN_POINT('',(4.7665752156354,-3.15,74.2188432520162));
#612=CARTESIAN_POINT('',(5.57170027688959,-3.15,73.9027305484047));
#613=CARTESIAN_POINT('',(5.9699246226398,-3.15,73.100941713591));
#614=CARTESIAN_POINT('',(5.96992462263981,-3.15,72.6815717104582));
#615=CARTESIAN_POINT('',(4.35237380388693,-3.15,74.2660006161457));
#616=CARTESIAN_POINT('',(4.35237380339748,-3.15,74.2660006118466));
#617=CARTESIAN_POINT('',(2.90705785684305,-3.15,74.4305517107517));
#618=CARTESIAN_POINT('',(0.0117403741238674,-3.15,74.7260024812899));
#619=CARTESIAN_POINT('',(-2.90356626594626,-3.15,74.4309492329131));
#620=CARTESIAN_POINT('',(-4.3523738033973,-3.15,74.2660006118466));
#621=CARTESIAN_POINT('',(-4.35237382811158,-3.15,74.2660006204497));
#622=CARTESIAN_POINT('',(-5.96992462263963,-3.15,72.6815717104582));
#623=CARTESIAN_POINT('',(-5.96992462263963,-3.15,73.0990221299266));
#624=CARTESIAN_POINT('',(-5.57713449295164,-3.15,73.8990523547592));
#625=CARTESIAN_POINT('',(-4.76570797007151,-3.15,74.2189419890496));
#626=CARTESIAN_POINT('',(-4.3523738043762,-3.15,74.2660006204447));
#627=CARTESIAN_POINT('',(-5.96992462264463,-3.150000000005,72.6815717104632));
#628=CARTESIAN_POINT('',(-5.96992462264963,-3.15000000001,73.4104641547742));
#629=CARTESIAN_POINT('',(8.78591523436893E-14,0.,-5.00000000000002));
#630=CARTESIAN_POINT('',(1.00878591523437E-11,0.,-5.00000000001003));
#631=CARTESIAN_POINT('',(9.01486550001009,0.,-5.00000000001003));
#632=CARTESIAN_POINT('',(1.00878591523437E-11,0.,-5.00000000001002));
#633=CARTESIAN_POINT('',(-8.99999999998991,0.,-5.00000000001002));
#634=CARTESIAN_POINT('',(8.78591523436893E-14,0.,20.));
#635=CARTESIAN_POINT('',(8.78591523413346E-14,0.,19.9999999511157));
#636=CARTESIAN_POINT('',(8.39053814888436,0.,19.9999999511157));
#637=CARTESIAN_POINT('',(8.79020478729467E-14,0.,20.8905381015984));
#638=CARTESIAN_POINT('',(-7.49999999999991,0.,20.8905381015984));
#639=CARTESIAN_POINT('',(8.78591523436893E-14,0.,-138.5));
#640=CARTESIAN_POINT('',(1.00878591523437E-11,0.,33.0631080869654));
#641=CARTESIAN_POINT('',(7.50000000001009,0.,33.0631080869654));
#642=CARTESIAN_POINT('',(8.78591523436893E-14,0.,33.0631080869554));
#643=CARTESIAN_POINT('',(8.78591523436893E-14,0.,34.0000000546293));
#644=CARTESIAN_POINT('',(8.04091482899085,0.,34.0000000546293));
#645=CARTESIAN_POINT('',(8.78591523436893E-14,0.,-5.00000000000003));
#646=CARTESIAN_POINT('',(8.78591523436893E-14,0.,58.9999999199831));
#647=CARTESIAN_POINT('',(7.41658748001686,0.,58.9999999199831));
#648=CARTESIAN_POINT('',(8.78591523436893E-14,0.,58.9999999999999));
#649=CARTESIAN_POINT('',(1.00878591523437E-11,0.,59.6665874439416));
#650=CARTESIAN_POINT('',(5.08792700490538E-12,6.74999999998854,59.6665874439366));
#651=CARTESIAN_POINT('',(1.00878591523437E-11,0.,59.6665874439416));
#652=CARTESIAN_POINT('',(8.78591523436893E-14,0.,-5.00000000000003));
#653=CARTESIAN_POINT('',(8.78591523436893E-14,0.,-138.5));
#654=CARTESIAN_POINT('',(1.00878591523437E-11,0.,-7.59807621136335));
#655=CARTESIAN_POINT('',(-7.49999999998991,0.,-7.59807621136335));
#656=CARTESIAN_POINT('',(1.00878591523437E-11,0.,-119.168629150112));
#657=CARTESIAN_POINT('',(-7.49999999998991,0.,-119.168629150112));
#658=CARTESIAN_POINT('',(8.78591523436893E-14,0.,-119.168629150102));
#659=CARTESIAN_POINT('',(1.00878591523437E-11,0.,-119.734314575061));
#660=CARTESIAN_POINT('',(-7.73431459998991,0.,-119.734314575061));
#661=CARTESIAN_POINT('',(8.78591523436893E-14,0.,-5.00000000000002));
#662=CARTESIAN_POINT('',(8.78591523436893E-14,0.,-119.734314575051));
#663=CARTESIAN_POINT('',(8.78591523436893E-14,0.,73.4104641547642));
#664=CARTESIAN_POINT('',(8.79948574670546E-14,6.75,59.6665874439316));
#665=CARTESIAN_POINT('',(0.866848534176532,6.75,59.6665874439316));
#666=CARTESIAN_POINT('',(2.57979841123923,6.4158830521362,59.7940320469057));
#667=CARTESIAN_POINT('',(4.68511523208938,5.03336032302481,60.6367212476845));
#668=CARTESIAN_POINT('',(5.79374810266636,3.53523316324553,62.5726270616783));
#669=CARTESIAN_POINT('',(5.96992462263981,3.15,64.2970261805951));
#670=CARTESIAN_POINT('',(5.96992462263981,3.15,65.1656782778786));
#671=CARTESIAN_POINT('',(5.96992462264481,3.150000000005,65.1656782778836));
#672=CARTESIAN_POINT('',(5.96992462264981,3.15000000001,73.4104641547742));
#673=CARTESIAN_POINT('',(5.96992462264981,3.150000000005,72.6815717104632));
#674=CARTESIAN_POINT('',(1.00878591523437E-11,0.,72.6815717104682));
#675=CARTESIAN_POINT('',(8.78591523436893E-14,0.,72.6815717104582));
#676=CARTESIAN_POINT('',(1.00878591523437E-11,0.,72.6815717104682));
#677=CARTESIAN_POINT('',(-5.96992462264463,3.150000000005,72.6815717104632));
#678=CARTESIAN_POINT('',(1.00878591523437E-11,0.,74.2660006204547));
#679=CARTESIAN_POINT('',(-4.35237382762213,3.15,74.2660006161507));
#680=CARTESIAN_POINT('',(-5.96992462263963,3.15,72.6815717104582));
#681=CARTESIAN_POINT('',(-5.96992462263963,3.15,73.0990221298576));
#682=CARTESIAN_POINT('',(-5.57713449328669,3.15,73.8990523545132));
#683=CARTESIAN_POINT('',(-4.76570797000318,3.15,74.2189419890574));
#684=CARTESIAN_POINT('',(-4.3523738043762,3.15,74.2660006204447));
#685=CARTESIAN_POINT('',(8.78591523436893E-14,0.,75.));
#686=CARTESIAN_POINT('',(1.00878591523437E-11,0.,74.2660006204547));
#687=CARTESIAN_POINT('',(4.35237382812176,3.15,74.2660006204497));
#688=CARTESIAN_POINT('',(4.35237380339748,3.15,74.2660006118466));
#689=CARTESIAN_POINT('',(2.90705785684305,3.15,74.4305517107517));
#690=CARTESIAN_POINT('',(0.0117403741238674,3.15,74.7260024812899));
#691=CARTESIAN_POINT('',(-2.90356626594626,3.15,74.4309492329131));
#692=CARTESIAN_POINT('',(-4.3523738033973,3.15,74.2660006118466));
#693=CARTESIAN_POINT('',(8.78591523436893E-14,0.,72.6815717104582));
#694=CARTESIAN_POINT('',(4.35237380437638,3.15,74.2660006204447));
#695=CARTESIAN_POINT('',(4.7665752119495,3.15,74.2188432524359));
#696=CARTESIAN_POINT('',(5.57170029502887,3.15,73.9027305351375));
#697=CARTESIAN_POINT('',(5.9699246226398,3.15,73.1009417098591));
#698=CARTESIAN_POINT('',(5.96992462263981,3.15,72.6815717104582));
#699=CARTESIAN_POINT('',(-9.99999999999991,3.15,65.1656782778786));
#700=CARTESIAN_POINT('',(-5.96992462264963,3.15000000001,73.4104641547742));
#701=CARTESIAN_POINT('',(-5.96992462264463,3.150000000005,65.1656782778836));
#702=CARTESIAN_POINT('',(-10.0000000000099,3.15000000001,65.1656782778886));
#703=CARTESIAN_POINT('',(-9.99999999999991,9.15,65.1656782778786));
#704=CARTESIAN_POINT('',(-5.96992462263963,3.15,65.1656782778786));
#705=CARTESIAN_POINT('',(-5.96992462263963,3.15,64.2979501272849));
#706=CARTESIAN_POINT('',(-5.79435219741645,3.53206234634783,62.5837350731994));
#707=CARTESIAN_POINT('',(-4.69746696207072,5.0222722277847,60.6453206691431));
#708=CARTESIAN_POINT('',(-2.58102035814968,6.4171528524504,59.7926144217511));
#709=CARTESIAN_POINT('',(-0.866851492993898,6.75,59.6665874439316));
#710=CARTESIAN_POINT('',(8.53085781674557E-14,6.75,59.6665874439316));
#711=CARTESIAN_POINT('',(8.78591523436893E-14,0.,73.4104641547642));
#712=CARTESIAN_POINT('',(0.,0.,0.));
#713=CARTESIAN_POINT('',(8.78591523436893E-14,0.,-119.734314575051));
#714=CARTESIAN_POINT('',(1.00878591523437E-11,0.,-119.95000000001));
#715=CARTESIAN_POINT('',(7.95000000001009,0.,-119.95000000001));
#716=CARTESIAN_POINT('',(1.00878591523437E-11,0.,-120.00000000001));
#717=CARTESIAN_POINT('',(-7.99999999998991,0.,-120.00000000001));
#718=CARTESIAN_POINT('',(8.78591523436893E-14,0.,-139.));
#719=CARTESIAN_POINT('',(1.00878591523437E-11,0.,-139.00000000001));
#720=CARTESIAN_POINT('',(-7.58076119998991,0.,-139.00000000001));
#721=CARTESIAN_POINT('',(8.78591523436893E-14,0.,-119.95));
#722=CARTESIAN_POINT('',(8.78591523436893E-14,0.,-139.));
#723=CARTESIAN_POINT('',(1.00878591523437E-11,0.,-138.080761184468));
#724=CARTESIAN_POINT('',(-8.49999999998991,0.,-138.080761184468));
#725=CARTESIAN_POINT('',(8.78591523436893E-14,8.5,-120.));
#726=CARTESIAN_POINT('',(1.00878591523437E-11,0.,-120.00000000001));
#727=CARTESIAN_POINT('',(-8.49999999998991,0.,-120.00000000001));
#728=CARTESIAN_POINT('',(8.78591523436893E-14,0.,75.));
#729=CARTESIAN_POINT('',(0.,0.,0.));
#730=MECHANICAL_DESIGN_GEOMETRIC_PRESENTATION_REPRESENTATION('',(#380,#381),
#731);
#731=(
GEOMETRIC_REPRESENTATION_CONTEXT(3)
GLOBAL_UNCERTAINTY_ASSIGNED_CONTEXT((#734))
GLOBAL_UNIT_ASSIGNED_CONTEXT((#739,#738,#737))
REPRESENTATION_CONTEXT('719 17.000','TOP_LEVEL_ASSEMBLY_PART')
);
#732=(
GEOMETRIC_REPRESENTATION_CONTEXT(3)
GLOBAL_UNCERTAINTY_ASSIGNED_CONTEXT((#735))
GLOBAL_UNIT_ASSIGNED_CONTEXT((#739,#738,#737))
REPRESENTATION_CONTEXT('719 17.000_PART1','COMPONENT_PART')
);
#733=(
GEOMETRIC_REPRESENTATION_CONTEXT(3)
GLOBAL_UNCERTAINTY_ASSIGNED_CONTEXT((#736))
GLOBAL_UNIT_ASSIGNED_CONTEXT((#739,#738,#737))
REPRESENTATION_CONTEXT('719 17.000_PART2','COMPONENT_PART')
);
#734=UNCERTAINTY_MEASURE_WITH_UNIT(LENGTH_MEASURE(1.E-5),#739,
'DISTANCE_ACCURACY_VALUE','Maximum Tolerance applied to model');
#735=UNCERTAINTY_MEASURE_WITH_UNIT(LENGTH_MEASURE(1.E-5),#739,
'DISTANCE_ACCURACY_VALUE','Maximum Tolerance applied to model');
#736=UNCERTAINTY_MEASURE_WITH_UNIT(LENGTH_MEASURE(1.E-5),#739,
'DISTANCE_ACCURACY_VALUE','Maximum Tolerance applied to model');
#737=(
NAMED_UNIT(*)
SI_UNIT($,.STERADIAN.)
SOLID_ANGLE_UNIT()
);
#738=(
NAMED_UNIT(*)
PLANE_ANGLE_UNIT()
SI_UNIT($,.RADIAN.)
);
#739=(
LENGTH_UNIT()
NAMED_UNIT(*)
SI_UNIT(.MILLI.,.METRE.)
);
#740=PRODUCT_DEFINITION_SHAPE('','',#745);
#741=PRODUCT_DEFINITION_SHAPE('','',#746);
#742=PRODUCT_DEFINITION_SHAPE(' ','NAUO PRDDFN',#20);
#743=PRODUCT_DEFINITION_SHAPE('','',#747);
#744=PRODUCT_DEFINITION_SHAPE(' ','NAUO PRDDFN',#21);
#745=PRODUCT_DEFINITION('','',#751,#748);
#746=PRODUCT_DEFINITION('','',#752,#749);
#747=PRODUCT_DEFINITION('','',#753,#750);
#748=PRODUCT_DEFINITION_CONTEXT('',#767,'design');
#749=PRODUCT_DEFINITION_CONTEXT('',#767,'design');
#750=PRODUCT_DEFINITION_CONTEXT('',#767,'design');
#751=PRODUCT_DEFINITION_FORMATION_WITH_SPECIFIED_SOURCE('','',#757,
 .NOT_KNOWN.);
#752=PRODUCT_DEFINITION_FORMATION_WITH_SPECIFIED_SOURCE('','',#758,
 .NOT_KNOWN.);
#753=PRODUCT_DEFINITION_FORMATION_WITH_SPECIFIED_SOURCE('','',#759,
 .NOT_KNOWN.);
#754=PRODUCT_RELATED_PRODUCT_CATEGORY('','',(#757));
#755=PRODUCT_RELATED_PRODUCT_CATEGORY('','',(#758));
#756=PRODUCT_RELATED_PRODUCT_CATEGORY('','',(#759));
#757=PRODUCT('719 17.000','719 17.000','719 17.000',(#763));
#758=PRODUCT('719 17.000_PART1','719 17.000_PART1','719 17.000_PART1',(#764));
#759=PRODUCT('719 17.000_PART2','719 17.000_PART2','719 17.000_PART2',(#765));
#760=PRODUCT_CATEGORY('','');
#761=PRODUCT_CATEGORY('','');
#762=PRODUCT_CATEGORY('','');
#763=PRODUCT_CONTEXT('',#767,'mechanical');
#764=PRODUCT_CONTEXT('',#767,'mechanical');
#765=PRODUCT_CONTEXT('',#767,'mechanical');
#766=APPLICATION_PROTOCOL_DEFINITION('international standard',
'automotive_design',2010,#767);
#767=APPLICATION_CONTEXT(
'core data for automotive mechanical design processes');
ENDSEC;
END-ISO-10303-21;
