ISO-10303-21;
HEADER;
/* Generated by software containing ST-Developer
 * from STEP Tools, Inc. (www.steptools.com) 
 */
/* OPTION: using custom renumber hook */

FILE_DESCRIPTION(
/* description */ ('STEP AP214'),
/* implementation_level */ '2;1');

FILE_NAME(
/* name */ '727 36.000',
/* time_stamp */ '2026-05-15T11:09:33+02:00',
/* author */ ('License CC BY-ND 4.0'),
/* organization */ ('CADENAS'),
/* preprocessor_version */ 'ST-DEVELOPER v20',
/* originating_system */ 'PARTsolutions',
/* authorisation */ '  ');

FILE_SCHEMA (('AUTOMOTIVE_DESIGN {1 0 10303 214 3 1 1}'));
ENDSEC;

DATA;
#10=PROPERTY_DEFINITION_REPRESENTATION(#14,#12);
#11=PROPERTY_DEFINITION_REPRESENTATION(#15,#13);
#12=REPRESENTATION('',(#16),#843);
#13=REPRESENTATION('',(#17),#843);
#14=PROPERTY_DEFINITION('pmi validation property','',#852);
#15=PROPERTY_DEFINITION('pmi validation property','',#852);
#16=VALUE_REPRESENTATION_ITEM('number of annotations',COUNT_MEASURE(0.));
#17=VALUE_REPRESENTATION_ITEM('number of views',COUNT_MEASURE(0.));
#18=CONTEXT_DEPENDENT_SHAPE_REPRESENTATION(#22,#854);
#19=CONTEXT_DEPENDENT_SHAPE_REPRESENTATION(#23,#856);
#20=NEXT_ASSEMBLY_USAGE_OCCURRENCE('NAUO1','727 36.000_PART1',
'727 36.000_PART1',#857,#858,'');
#21=NEXT_ASSEMBLY_USAGE_OCCURRENCE('NAUO2','727 36.000_PART2',
'727 36.000_PART2',#857,#859,'');
#22=(
REPRESENTATION_RELATIONSHIP(' ',' ',#478,#477)
REPRESENTATION_RELATIONSHIP_WITH_TRANSFORMATION(#24)
SHAPE_REPRESENTATION_RELATIONSHIP()
);
#23=(
REPRESENTATION_RELATIONSHIP(' ',' ',#479,#477)
REPRESENTATION_RELATIONSHIP_WITH_TRANSFORMATION(#25)
SHAPE_REPRESENTATION_RELATIONSHIP()
);
#24=ITEM_DEFINED_TRANSFORMATION(' ',' ',#480,#523);
#25=ITEM_DEFINED_TRANSFORMATION(' ',' ',#480,#533);
#26=SHAPE_REPRESENTATION_RELATIONSHIP('','',#478,#28);
#27=SHAPE_REPRESENTATION_RELATIONSHIP('','',#479,#29);
#28=ADVANCED_BREP_SHAPE_REPRESENTATION('',(#472),#844);
#29=ADVANCED_BREP_SHAPE_REPRESENTATION('',(#473),#845);
#30=ELLIPSE('',#497,18.9151064,13.375);
#31=ELLIPSE('',#498,22.627417,16.);
#32=ELLIPSE('',#500,18.9151064,13.375);
#33=ELLIPSE('',#501,22.627417,16.);
#34=ELLIPSE('',#504,18.9151064,13.375);
#35=ELLIPSE('',#505,22.627417,16.);
#36=ELLIPSE('',#514,18.9151064,13.375);
#37=ELLIPSE('',#517,22.627417,16.);
#38=B_SPLINE_CURVE_WITH_KNOTS('',3,(#682,#683,#684,#685,#686),
 .UNSPECIFIED.,.F.,.F.,(4,1,4),(1.8908275457571E-15,0.00078618994991788,
0.00157237989983387),.UNSPECIFIED.);
#39=B_SPLINE_CURVE_WITH_KNOTS('',3,(#691,#692,#693,#694,#695),
 .UNSPECIFIED.,.F.,.F.,(4,1,4),(3.60620444916901E-15,0.000784624971614124,
0.00156924994322464),.UNSPECIFIED.);
#40=B_SPLINE_CURVE_WITH_KNOTS('',3,(#702,#703,#704,#705,#706),
 .UNSPECIFIED.,.F.,.F.,(4,1,4),(9.43558844762905E-16,0.000786189949916763,
0.00157237989983258),.UNSPECIFIED.);
#41=B_SPLINE_CURVE_WITH_KNOTS('',3,(#710,#711,#712,#713,#714),
 .UNSPECIFIED.,.F.,.F.,(4,1,4),(2.64626607880347E-15,0.000784624971613688,
0.00156924994322473),.UNSPECIFIED.);
#42=B_SPLINE_CURVE_WITH_KNOTS('',3,(#728,#729,#730,#731),.UNSPECIFIED.,
 .F.,.F.,(4,4),(0.,1.),.UNSPECIFIED.);
#43=B_SPLINE_CURVE_WITH_KNOTS('',3,(#736,#737,#738,#739),.UNSPECIFIED.,
 .F.,.F.,(4,4),(0.,1.),.UNSPECIFIED.);
#44=B_SPLINE_CURVE_WITH_KNOTS('',3,(#748,#749,#750,#751),.UNSPECIFIED.,
 .F.,.F.,(4,4),(0.,1.),.UNSPECIFIED.);
#45=B_SPLINE_CURVE_WITH_KNOTS('',3,(#770,#771,#772,#773),.UNSPECIFIED.,
 .F.,.F.,(4,4),(0.,1.),.UNSPECIFIED.);
#46=B_SPLINE_CURVE_WITH_KNOTS('',3,(#792,#793,#794,#795,#796),
 .UNSPECIFIED.,.F.,.F.,(4,1,4),(2.33415313307319E-15,0.000786190640950957,
0.00157238128189958),.UNSPECIFIED.);
#47=B_SPLINE_CURVE_WITH_KNOTS('',3,(#797,#798,#799,#800,#801),
 .UNSPECIFIED.,.F.,.F.,(4,1,4),(3.78163690570383E-15,0.000786190640948691,
0.0015723812818936),.UNSPECIFIED.);
#48=B_SPLINE_CURVE_WITH_KNOTS('',3,(#812,#813,#814,#815,#816),
 .UNSPECIFIED.,.F.,.F.,(4,1,4),(9.19318813388633E-16,0.000784625034008826,
0.00156925006801673),.UNSPECIFIED.);
#49=B_SPLINE_CURVE_WITH_KNOTS('',3,(#820,#821,#822,#823,#824),
 .UNSPECIFIED.,.F.,.F.,(4,1,4),(5.61803208974842E-15,0.000784625034007654,
0.00156925006800969),.UNSPECIFIED.);
#50=CYLINDRICAL_SURFACE('',#487,1.);
#51=CYLINDRICAL_SURFACE('',#488,1.);
#52=CYLINDRICAL_SURFACE('',#513,13.375);
#53=CYLINDRICAL_SURFACE('',#518,1.);
#54=CYLINDRICAL_SURFACE('',#520,1.);
#55=CYLINDRICAL_SURFACE('',#521,13.375);
#56=CYLINDRICAL_SURFACE('',#522,16.);
#57=CYLINDRICAL_SURFACE('',#528,18.);
#58=LINE('',#673,#82);
#59=LINE('',#678,#83);
#60=LINE('',#689,#84);
#61=LINE('',#697,#85);
#62=LINE('',#699,#86);
#63=LINE('',#708,#87);
#64=LINE('',#716,#88);
#65=LINE('',#719,#89);
#66=LINE('',#721,#90);
#67=LINE('',#723,#91);
#68=LINE('',#746,#92);
#69=LINE('',#755,#93);
#70=LINE('',#757,#94);
#71=LINE('',#761,#95);
#72=LINE('',#775,#96);
#73=LINE('',#780,#97);
#74=LINE('',#781,#98);
#75=LINE('',#784,#99);
#76=LINE('',#790,#100);
#77=LINE('',#803,#101);
#78=LINE('',#804,#102);
#79=LINE('',#806,#103);
#80=LINE('',#810,#104);
#81=LINE('',#818,#105);
#82=VECTOR('',#544,1000.);
#83=VECTOR('',#547,1000.);
#84=VECTOR('',#552,1000.);
#85=VECTOR('',#553,1000.);
#86=VECTOR('',#556,1000.);
#87=VECTOR('',#557,1000.);
#88=VECTOR('',#560,1000.);
#89=VECTOR('',#561,1000.);
#90=VECTOR('',#562,1000.);
#91=VECTOR('',#563,1000.);
#92=VECTOR('',#580,1000.);
#93=VECTOR('',#583,1000.);
#94=VECTOR('',#586,1000.);
#95=VECTOR('',#589,1000.);
#96=VECTOR('',#600,1000.);
#97=VECTOR('',#609,1000.);
#98=VECTOR('',#610,1000.);
#99=VECTOR('',#615,1000.);
#100=VECTOR('',#622,1000.);
#101=VECTOR('',#625,1000.);
#102=VECTOR('',#626,1000.);
#103=VECTOR('',#629,1000.);
#104=VECTOR('',#634,1000.);
#105=VECTOR('',#637,1000.);
#106=PLANE('',#484);
#107=PLANE('',#489);
#108=PLANE('',#490);
#109=PLANE('',#496);
#110=PLANE('',#499);
#111=PLANE('',#502);
#112=PLANE('',#503);
#113=PLANE('',#509);
#114=PLANE('',#510);
#115=PLANE('',#515);
#116=PLANE('',#516);
#117=PLANE('',#519);
#118=PLANE('',#524);
#119=PLANE('',#532);
#120=ORIENTED_EDGE('',*,*,#240,.F.);
#121=ORIENTED_EDGE('',*,*,#241,.T.);
#122=ORIENTED_EDGE('',*,*,#242,.T.);
#123=ORIENTED_EDGE('',*,*,#243,.T.);
#124=ORIENTED_EDGE('',*,*,#244,.F.);
#125=ORIENTED_EDGE('',*,*,#245,.F.);
#126=ORIENTED_EDGE('',*,*,#246,.F.);
#127=ORIENTED_EDGE('',*,*,#247,.T.);
#128=ORIENTED_EDGE('',*,*,#248,.F.);
#129=ORIENTED_EDGE('',*,*,#249,.F.);
#130=ORIENTED_EDGE('',*,*,#250,.F.);
#131=ORIENTED_EDGE('',*,*,#251,.T.);
#132=ORIENTED_EDGE('',*,*,#252,.T.);
#133=ORIENTED_EDGE('',*,*,#253,.T.);
#134=ORIENTED_EDGE('',*,*,#254,.F.);
#135=ORIENTED_EDGE('',*,*,#255,.F.);
#136=ORIENTED_EDGE('',*,*,#256,.F.);
#137=ORIENTED_EDGE('',*,*,#257,.T.);
#138=ORIENTED_EDGE('',*,*,#252,.F.);
#139=ORIENTED_EDGE('',*,*,#258,.T.);
#140=ORIENTED_EDGE('',*,*,#249,.T.);
#141=ORIENTED_EDGE('',*,*,#259,.F.);
#142=ORIENTED_EDGE('',*,*,#260,.T.);
#143=ORIENTED_EDGE('',*,*,#261,.T.);
#144=ORIENTED_EDGE('',*,*,#262,.T.);
#145=ORIENTED_EDGE('',*,*,#263,.F.);
#146=ORIENTED_EDGE('',*,*,#264,.F.);
#147=ORIENTED_EDGE('',*,*,#265,.T.);
#148=ORIENTED_EDGE('',*,*,#266,.T.);
#149=ORIENTED_EDGE('',*,*,#267,.F.);
#150=ORIENTED_EDGE('',*,*,#268,.F.);
#151=ORIENTED_EDGE('',*,*,#269,.F.);
#152=ORIENTED_EDGE('',*,*,#270,.T.);
#153=ORIENTED_EDGE('',*,*,#271,.T.);
#154=ORIENTED_EDGE('',*,*,#272,.T.);
#155=ORIENTED_EDGE('',*,*,#260,.F.);
#156=ORIENTED_EDGE('',*,*,#241,.F.);
#157=ORIENTED_EDGE('',*,*,#273,.F.);
#158=ORIENTED_EDGE('',*,*,#257,.F.);
#159=ORIENTED_EDGE('',*,*,#274,.F.);
#160=ORIENTED_EDGE('',*,*,#275,.T.);
#161=ORIENTED_EDGE('',*,*,#276,.T.);
#162=ORIENTED_EDGE('',*,*,#275,.F.);
#163=ORIENTED_EDGE('',*,*,#277,.T.);
#164=ORIENTED_EDGE('',*,*,#266,.F.);
#165=ORIENTED_EDGE('',*,*,#278,.F.);
#166=ORIENTED_EDGE('',*,*,#279,.F.);
#167=ORIENTED_EDGE('',*,*,#268,.T.);
#168=ORIENTED_EDGE('',*,*,#280,.F.);
#169=ORIENTED_EDGE('',*,*,#247,.F.);
#170=ORIENTED_EDGE('',*,*,#265,.F.);
#171=ORIENTED_EDGE('',*,*,#281,.F.);
#172=ORIENTED_EDGE('',*,*,#269,.T.);
#173=ORIENTED_EDGE('',*,*,#263,.T.);
#174=ORIENTED_EDGE('',*,*,#282,.T.);
#175=ORIENTED_EDGE('',*,*,#283,.F.);
#176=ORIENTED_EDGE('',*,*,#276,.F.);
#177=ORIENTED_EDGE('',*,*,#278,.T.);
#178=ORIENTED_EDGE('',*,*,#254,.T.);
#179=ORIENTED_EDGE('',*,*,#273,.T.);
#180=ORIENTED_EDGE('',*,*,#283,.T.);
#181=ORIENTED_EDGE('',*,*,#284,.F.);
#182=ORIENTED_EDGE('',*,*,#285,.F.);
#183=ORIENTED_EDGE('',*,*,#286,.F.);
#184=ORIENTED_EDGE('',*,*,#243,.F.);
#185=ORIENTED_EDGE('',*,*,#287,.T.);
#186=ORIENTED_EDGE('',*,*,#271,.F.);
#187=ORIENTED_EDGE('',*,*,#288,.T.);
#188=ORIENTED_EDGE('',*,*,#250,.T.);
#189=ORIENTED_EDGE('',*,*,#289,.T.);
#190=ORIENTED_EDGE('',*,*,#290,.T.);
#191=ORIENTED_EDGE('',*,*,#284,.T.);
#192=ORIENTED_EDGE('',*,*,#282,.F.);
#193=ORIENTED_EDGE('',*,*,#262,.F.);
#194=ORIENTED_EDGE('',*,*,#291,.T.);
#195=ORIENTED_EDGE('',*,*,#244,.T.);
#196=ORIENTED_EDGE('',*,*,#286,.T.);
#197=ORIENTED_EDGE('',*,*,#292,.F.);
#198=ORIENTED_EDGE('',*,*,#293,.T.);
#199=ORIENTED_EDGE('',*,*,#292,.T.);
#200=ORIENTED_EDGE('',*,*,#285,.T.);
#201=ORIENTED_EDGE('',*,*,#290,.F.);
#202=ORIENTED_EDGE('',*,*,#294,.T.);
#203=ORIENTED_EDGE('',*,*,#287,.F.);
#204=ORIENTED_EDGE('',*,*,#242,.F.);
#205=ORIENTED_EDGE('',*,*,#295,.F.);
#206=ORIENTED_EDGE('',*,*,#255,.T.);
#207=ORIENTED_EDGE('',*,*,#270,.F.);
#208=ORIENTED_EDGE('',*,*,#281,.T.);
#209=ORIENTED_EDGE('',*,*,#264,.T.);
#210=ORIENTED_EDGE('',*,*,#279,.T.);
#211=ORIENTED_EDGE('',*,*,#246,.T.);
#212=ORIENTED_EDGE('',*,*,#258,.F.);
#213=ORIENTED_EDGE('',*,*,#251,.F.);
#214=ORIENTED_EDGE('',*,*,#288,.F.);
#215=ORIENTED_EDGE('',*,*,#253,.F.);
#216=ORIENTED_EDGE('',*,*,#259,.T.);
#217=ORIENTED_EDGE('',*,*,#248,.T.);
#218=ORIENTED_EDGE('',*,*,#280,.T.);
#219=ORIENTED_EDGE('',*,*,#267,.T.);
#220=ORIENTED_EDGE('',*,*,#277,.F.);
#221=ORIENTED_EDGE('',*,*,#274,.T.);
#222=ORIENTED_EDGE('',*,*,#256,.T.);
#223=ORIENTED_EDGE('',*,*,#295,.T.);
#224=ORIENTED_EDGE('',*,*,#245,.T.);
#225=ORIENTED_EDGE('',*,*,#293,.F.);
#226=ORIENTED_EDGE('',*,*,#294,.F.);
#227=ORIENTED_EDGE('',*,*,#291,.F.);
#228=ORIENTED_EDGE('',*,*,#261,.F.);
#229=ORIENTED_EDGE('',*,*,#272,.F.);
#230=ORIENTED_EDGE('',*,*,#289,.F.);
#231=ORIENTED_EDGE('',*,*,#240,.T.);
#232=ORIENTED_EDGE('',*,*,#296,.T.);
#233=ORIENTED_EDGE('',*,*,#296,.F.);
#234=ORIENTED_EDGE('',*,*,#297,.F.);
#235=ORIENTED_EDGE('',*,*,#298,.T.);
#236=ORIENTED_EDGE('',*,*,#297,.T.);
#237=ORIENTED_EDGE('',*,*,#299,.T.);
#238=ORIENTED_EDGE('',*,*,#298,.F.);
#239=ORIENTED_EDGE('',*,*,#299,.F.);
#240=EDGE_CURVE('',#300,#300,#342,.T.);
#241=EDGE_CURVE('',#301,#301,#343,.T.);
#242=EDGE_CURVE('',#302,#303,#58,.T.);
#243=EDGE_CURVE('',#303,#304,#344,.T.);
#244=EDGE_CURVE('',#305,#304,#59,.T.);
#245=EDGE_CURVE('',#302,#305,#345,.T.);
#246=EDGE_CURVE('',#306,#307,#38,.T.);
#247=EDGE_CURVE('',#306,#308,#60,.T.);
#248=EDGE_CURVE('',#309,#308,#39,.T.);
#249=EDGE_CURVE('',#307,#309,#61,.T.);
#250=EDGE_CURVE('',#310,#311,#62,.T.);
#251=EDGE_CURVE('',#310,#312,#40,.T.);
#252=EDGE_CURVE('',#312,#313,#63,.T.);
#253=EDGE_CURVE('',#313,#311,#41,.T.);
#254=EDGE_CURVE('',#314,#315,#64,.T.);
#255=EDGE_CURVE('',#316,#314,#65,.T.);
#256=EDGE_CURVE('',#317,#316,#66,.T.);
#257=EDGE_CURVE('',#317,#315,#67,.T.);
#258=EDGE_CURVE('',#312,#307,#346,.T.);
#259=EDGE_CURVE('',#313,#309,#347,.T.);
#260=EDGE_CURVE('',#318,#319,#42,.T.);
#261=EDGE_CURVE('',#319,#320,#348,.T.);
#262=EDGE_CURVE('',#320,#321,#43,.T.);
#263=EDGE_CURVE('',#318,#321,#349,.T.);
#264=EDGE_CURVE('',#322,#323,#30,.T.);
#265=EDGE_CURVE('',#322,#324,#68,.T.);
#266=EDGE_CURVE('',#324,#325,#44,.T.);
#267=EDGE_CURVE('',#326,#325,#31,.T.);
#268=EDGE_CURVE('',#323,#326,#69,.T.);
#269=EDGE_CURVE('',#327,#318,#70,.T.);
#270=EDGE_CURVE('',#327,#328,#32,.T.);
#271=EDGE_CURVE('',#328,#329,#71,.T.);
#272=EDGE_CURVE('',#329,#319,#33,.T.);
#273=EDGE_CURVE('',#315,#330,#34,.T.);
#274=EDGE_CURVE('',#331,#317,#35,.T.);
#275=EDGE_CURVE('',#331,#332,#45,.T.);
#276=EDGE_CURVE('',#332,#330,#72,.T.);
#277=EDGE_CURVE('',#331,#325,#350,.T.);
#278=EDGE_CURVE('',#332,#324,#351,.T.);
#279=EDGE_CURVE('',#323,#306,#73,.T.);
#280=EDGE_CURVE('',#308,#326,#74,.T.);
#281=EDGE_CURVE('',#327,#322,#352,.T.);
#282=EDGE_CURVE('',#321,#333,#75,.T.);
#283=EDGE_CURVE('',#330,#333,#353,.T.);
#284=EDGE_CURVE('',#334,#333,#36,.T.);
#285=EDGE_CURVE('',#335,#334,#76,.T.);
#286=EDGE_CURVE('',#304,#335,#46,.T.);
#287=EDGE_CURVE('',#303,#314,#47,.T.);
#288=EDGE_CURVE('',#328,#310,#77,.T.);
#289=EDGE_CURVE('',#311,#329,#78,.T.);
#290=EDGE_CURVE('',#336,#334,#79,.T.);
#291=EDGE_CURVE('',#320,#336,#37,.T.);
#292=EDGE_CURVE('',#337,#335,#80,.T.);
#293=EDGE_CURVE('',#337,#305,#48,.T.);
#294=EDGE_CURVE('',#336,#337,#81,.T.);
#295=EDGE_CURVE('',#316,#302,#49,.T.);
#296=EDGE_CURVE('',#338,#338,#354,.T.);
#297=EDGE_CURVE('',#339,#339,#355,.T.);
#298=EDGE_CURVE('',#340,#340,#356,.T.);
#299=EDGE_CURVE('',#341,#341,#357,.T.);
#300=VERTEX_POINT('',#669);
#301=VERTEX_POINT('',#671);
#302=VERTEX_POINT('',#674);
#303=VERTEX_POINT('',#675);
#304=VERTEX_POINT('',#677);
#305=VERTEX_POINT('',#679);
#306=VERTEX_POINT('',#687);
#307=VERTEX_POINT('',#688);
#308=VERTEX_POINT('',#690);
#309=VERTEX_POINT('',#696);
#310=VERTEX_POINT('',#700);
#311=VERTEX_POINT('',#701);
#312=VERTEX_POINT('',#707);
#313=VERTEX_POINT('',#709);
#314=VERTEX_POINT('',#717);
#315=VERTEX_POINT('',#718);
#316=VERTEX_POINT('',#720);
#317=VERTEX_POINT('',#722);
#318=VERTEX_POINT('',#732);
#319=VERTEX_POINT('',#733);
#320=VERTEX_POINT('',#735);
#321=VERTEX_POINT('',#740);
#322=VERTEX_POINT('',#744);
#323=VERTEX_POINT('',#745);
#324=VERTEX_POINT('',#747);
#325=VERTEX_POINT('',#752);
#326=VERTEX_POINT('',#754);
#327=VERTEX_POINT('',#758);
#328=VERTEX_POINT('',#760);
#329=VERTEX_POINT('',#762);
#330=VERTEX_POINT('',#767);
#331=VERTEX_POINT('',#769);
#332=VERTEX_POINT('',#774);
#333=VERTEX_POINT('',#785);
#334=VERTEX_POINT('',#789);
#335=VERTEX_POINT('',#791);
#336=VERTEX_POINT('',#807);
#337=VERTEX_POINT('',#811);
#338=VERTEX_POINT('',#830);
#339=VERTEX_POINT('',#833);
#340=VERTEX_POINT('',#836);
#341=VERTEX_POINT('',#839);
#342=CIRCLE('',#482,16.);
#343=CIRCLE('',#483,17.2928932);
#344=CIRCLE('',#485,13.375);
#345=CIRCLE('',#486,16.);
#346=CIRCLE('',#491,13.375);
#347=CIRCLE('',#492,16.);
#348=CIRCLE('',#494,16.);
#349=CIRCLE('',#495,15.0000000053847);
#350=CIRCLE('',#507,16.);
#351=CIRCLE('',#508,15.0000000053847);
#352=CIRCLE('',#511,13.375);
#353=CIRCLE('',#512,13.375);
#354=CIRCLE('',#525,17.2928932);
#355=CIRCLE('',#527,18.);
#356=CIRCLE('',#529,18.);
#357=CIRCLE('',#531,16.5858);
#358=EDGE_LOOP('',(#120));
#359=EDGE_LOOP('',(#121));
#360=EDGE_LOOP('',(#122,#123,#124,#125));
#361=EDGE_LOOP('',(#126,#127,#128,#129));
#362=EDGE_LOOP('',(#130,#131,#132,#133));
#363=EDGE_LOOP('',(#134,#135,#136,#137));
#364=EDGE_LOOP('',(#138,#139,#140,#141));
#365=EDGE_LOOP('',(#142,#143,#144,#145));
#366=EDGE_LOOP('',(#146,#147,#148,#149,#150));
#367=EDGE_LOOP('',(#151,#152,#153,#154,#155));
#368=EDGE_LOOP('',(#156));
#369=EDGE_LOOP('',(#157,#158,#159,#160,#161));
#370=EDGE_LOOP('',(#162,#163,#164,#165));
#371=EDGE_LOOP('',(#166,#167,#168,#169));
#372=EDGE_LOOP('',(#170,#171,#172,#173,#174,#175,#176,#177));
#373=EDGE_LOOP('',(#178,#179,#180,#181,#182,#183,#184,#185));
#374=EDGE_LOOP('',(#186,#187,#188,#189));
#375=EDGE_LOOP('',(#190,#191,#192,#193,#194));
#376=EDGE_LOOP('',(#195,#196,#197,#198));
#377=EDGE_LOOP('',(#199,#200,#201,#202));
#378=EDGE_LOOP('',(#203,#204,#205,#206));
#379=EDGE_LOOP('',(#207,#208,#209,#210,#211,#212,#213,#214));
#380=EDGE_LOOP('',(#215,#216,#217,#218,#219,#220,#221,#222,#223,#224,#225,
#226,#227,#228,#229,#230));
#381=EDGE_LOOP('',(#231));
#382=EDGE_LOOP('',(#232));
#383=EDGE_LOOP('',(#233));
#384=EDGE_LOOP('',(#234));
#385=EDGE_LOOP('',(#235));
#386=EDGE_LOOP('',(#236));
#387=EDGE_LOOP('',(#237));
#388=EDGE_LOOP('',(#238));
#389=EDGE_LOOP('',(#239));
#390=FACE_BOUND('',#358,.T.);
#391=FACE_BOUND('',#359,.T.);
#392=FACE_BOUND('',#360,.T.);
#393=FACE_BOUND('',#361,.T.);
#394=FACE_BOUND('',#362,.T.);
#395=FACE_BOUND('',#363,.T.);
#396=FACE_BOUND('',#364,.T.);
#397=FACE_BOUND('',#365,.T.);
#398=FACE_BOUND('',#366,.T.);
#399=FACE_BOUND('',#367,.T.);
#400=FACE_BOUND('',#368,.T.);
#401=FACE_BOUND('',#369,.T.);
#402=FACE_BOUND('',#370,.T.);
#403=FACE_BOUND('',#371,.T.);
#404=FACE_BOUND('',#372,.T.);
#405=FACE_BOUND('',#373,.T.);
#406=FACE_BOUND('',#374,.T.);
#407=FACE_BOUND('',#375,.T.);
#408=FACE_BOUND('',#376,.T.);
#409=FACE_BOUND('',#377,.T.);
#410=FACE_BOUND('',#378,.T.);
#411=FACE_BOUND('',#379,.T.);
#412=FACE_BOUND('',#380,.T.);
#413=FACE_BOUND('',#381,.T.);
#414=FACE_BOUND('',#382,.T.);
#415=FACE_BOUND('',#383,.T.);
#416=FACE_BOUND('',#384,.T.);
#417=FACE_BOUND('',#385,.T.);
#418=FACE_BOUND('',#386,.T.);
#419=FACE_BOUND('',#387,.T.);
#420=FACE_BOUND('',#388,.T.);
#421=FACE_BOUND('',#389,.T.);
#422=CONICAL_SURFACE('',#481,16.,0.7853981625);
#423=CONICAL_SURFACE('',#493,18.,0.7853981625);
#424=CONICAL_SURFACE('',#506,18.,0.7853981625);
#425=CONICAL_SURFACE('',#526,16.,0.7853981625);
#426=CONICAL_SURFACE('',#530,16.5858,0.7853981625);
#427=ADVANCED_FACE('',(#390,#391),#422,.T.);
#428=ADVANCED_FACE('',(#392),#106,.F.);
#429=ADVANCED_FACE('',(#393),#50,.F.);
#430=ADVANCED_FACE('',(#394),#51,.F.);
#431=ADVANCED_FACE('',(#395),#107,.T.);
#432=ADVANCED_FACE('',(#396),#108,.F.);
#433=ADVANCED_FACE('',(#397),#423,.T.);
#434=ADVANCED_FACE('',(#398),#109,.T.);
#435=ADVANCED_FACE('',(#399),#110,.F.);
#436=ADVANCED_FACE('',(#400),#111,.F.);
#437=ADVANCED_FACE('',(#401),#112,.T.);
#438=ADVANCED_FACE('',(#402),#424,.T.);
#439=ADVANCED_FACE('',(#403),#113,.T.);
#440=ADVANCED_FACE('',(#404),#114,.F.);
#441=ADVANCED_FACE('',(#405),#52,.T.);
#442=ADVANCED_FACE('',(#406),#115,.F.);
#443=ADVANCED_FACE('',(#407),#116,.F.);
#444=ADVANCED_FACE('',(#408),#53,.F.);
#445=ADVANCED_FACE('',(#409),#117,.F.);
#446=ADVANCED_FACE('',(#410),#54,.F.);
#447=ADVANCED_FACE('',(#411),#55,.T.);
#448=ADVANCED_FACE('',(#412,#413),#56,.T.);
#449=ADVANCED_FACE('',(#414),#118,.T.);
#450=ADVANCED_FACE('',(#415,#416),#425,.T.);
#451=ADVANCED_FACE('',(#417,#418),#57,.T.);
#452=ADVANCED_FACE('',(#419,#420),#426,.T.);
#453=ADVANCED_FACE('',(#421),#119,.F.);
#454=CLOSED_SHELL('',(#427,#428,#429,#430,#431,#432,#433,#434,#435,#436,
#437,#438,#439,#440,#441,#442,#443,#444,#445,#446,#447,#448));
#455=CLOSED_SHELL('',(#449,#450,#451,#452,#453));
#456=STYLED_ITEM('',(#458),#472);
#457=STYLED_ITEM('',(#459),#473);
#458=PRESENTATION_STYLE_ASSIGNMENT((#460));
#459=PRESENTATION_STYLE_ASSIGNMENT((#461));
#460=SURFACE_STYLE_USAGE(.BOTH.,#462);
#461=SURFACE_STYLE_USAGE(.BOTH.,#463);
#462=SURFACE_SIDE_STYLE('',(#464));
#463=SURFACE_SIDE_STYLE('',(#465));
#464=SURFACE_STYLE_FILL_AREA(#466);
#465=SURFACE_STYLE_FILL_AREA(#467);
#466=FILL_AREA_STYLE('',(#468));
#467=FILL_AREA_STYLE('',(#469));
#468=FILL_AREA_STYLE_COLOUR('',#470);
#469=FILL_AREA_STYLE_COLOUR('',#471);
#470=COLOUR_RGB('',0.4999923706,0.4999923706,0.4999923706);
#471=COLOUR_RGB('',0.8000000119,0.8000000119,0.8000000119);
#472=MANIFOLD_SOLID_BREP('1',#454);
#473=MANIFOLD_SOLID_BREP('1',#455);
#474=SHAPE_DEFINITION_REPRESENTATION(#852,#477);
#475=SHAPE_DEFINITION_REPRESENTATION(#853,#478);
#476=SHAPE_DEFINITION_REPRESENTATION(#855,#479);
#477=SHAPE_REPRESENTATION('727 36.000',(#480,#523,#533),#843);
#478=SHAPE_REPRESENTATION('727 36.000_PART1',(#480),#844);
#479=SHAPE_REPRESENTATION('727 36.000_PART2',(#480),#845);
#480=AXIS2_PLACEMENT_3D('',#666,#534,#535);
#481=AXIS2_PLACEMENT_3D('',#667,#536,#537);
#482=AXIS2_PLACEMENT_3D('',#668,#538,#539);
#483=AXIS2_PLACEMENT_3D('',#670,#540,#541);
#484=AXIS2_PLACEMENT_3D('',#672,#542,#543);
#485=AXIS2_PLACEMENT_3D('',#676,#545,#546);
#486=AXIS2_PLACEMENT_3D('',#680,#548,#549);
#487=AXIS2_PLACEMENT_3D('',#681,#550,#551);
#488=AXIS2_PLACEMENT_3D('',#698,#554,#555);
#489=AXIS2_PLACEMENT_3D('',#715,#558,#559);
#490=AXIS2_PLACEMENT_3D('',#724,#564,#565);
#491=AXIS2_PLACEMENT_3D('',#725,#566,#567);
#492=AXIS2_PLACEMENT_3D('',#726,#568,#569);
#493=AXIS2_PLACEMENT_3D('',#727,#570,#571);
#494=AXIS2_PLACEMENT_3D('',#734,#572,#573);
#495=AXIS2_PLACEMENT_3D('',#741,#574,#575);
#496=AXIS2_PLACEMENT_3D('',#742,#576,#577);
#497=AXIS2_PLACEMENT_3D('',#743,#578,#579);
#498=AXIS2_PLACEMENT_3D('',#753,#581,#582);
#499=AXIS2_PLACEMENT_3D('',#756,#584,#585);
#500=AXIS2_PLACEMENT_3D('',#759,#587,#588);
#501=AXIS2_PLACEMENT_3D('',#763,#590,#591);
#502=AXIS2_PLACEMENT_3D('',#764,#592,#593);
#503=AXIS2_PLACEMENT_3D('',#765,#594,#595);
#504=AXIS2_PLACEMENT_3D('',#766,#596,#597);
#505=AXIS2_PLACEMENT_3D('',#768,#598,#599);
#506=AXIS2_PLACEMENT_3D('',#776,#601,#602);
#507=AXIS2_PLACEMENT_3D('',#777,#603,#604);
#508=AXIS2_PLACEMENT_3D('',#778,#605,#606);
#509=AXIS2_PLACEMENT_3D('',#779,#607,#608);
#510=AXIS2_PLACEMENT_3D('',#782,#611,#612);
#511=AXIS2_PLACEMENT_3D('',#783,#613,#614);
#512=AXIS2_PLACEMENT_3D('',#786,#616,#617);
#513=AXIS2_PLACEMENT_3D('',#787,#618,#619);
#514=AXIS2_PLACEMENT_3D('',#788,#620,#621);
#515=AXIS2_PLACEMENT_3D('',#802,#623,#624);
#516=AXIS2_PLACEMENT_3D('',#805,#627,#628);
#517=AXIS2_PLACEMENT_3D('',#808,#630,#631);
#518=AXIS2_PLACEMENT_3D('',#809,#632,#633);
#519=AXIS2_PLACEMENT_3D('',#817,#635,#636);
#520=AXIS2_PLACEMENT_3D('',#819,#638,#639);
#521=AXIS2_PLACEMENT_3D('',#825,#640,#641);
#522=AXIS2_PLACEMENT_3D('',#826,#642,#643);
#523=AXIS2_PLACEMENT_3D('',#827,#644,#645);
#524=AXIS2_PLACEMENT_3D('',#828,#646,#647);
#525=AXIS2_PLACEMENT_3D('',#829,#648,#649);
#526=AXIS2_PLACEMENT_3D('',#831,#650,#651);
#527=AXIS2_PLACEMENT_3D('',#832,#652,#653);
#528=AXIS2_PLACEMENT_3D('',#834,#654,#655);
#529=AXIS2_PLACEMENT_3D('',#835,#656,#657);
#530=AXIS2_PLACEMENT_3D('',#837,#658,#659);
#531=AXIS2_PLACEMENT_3D('',#838,#660,#661);
#532=AXIS2_PLACEMENT_3D('',#840,#662,#663);
#533=AXIS2_PLACEMENT_3D('',#841,#664,#665);
#534=DIRECTION('',(0.,0.,1.));
#535=DIRECTION('',(1.,0.,0.));
#536=DIRECTION('',(1.53666449643615E-17,0.,-1.));
#537=DIRECTION('',(-1.,0.,-1.53666449643615E-17));
#538=DIRECTION('',(0.,0.,1.));
#539=DIRECTION('',(-1.,0.,0.));
#540=DIRECTION('',(0.,0.,1.));
#541=DIRECTION('',(1.,0.,0.));
#542=DIRECTION('',(0.,0.,-1.));
#543=DIRECTION('',(0.,-1.,0.));
#544=DIRECTION('',(1.,0.,0.));
#545=DIRECTION('',(0.,0.,-1.));
#546=DIRECTION('',(-1.,0.,0.));
#547=DIRECTION('',(1.,0.,0.));
#548=DIRECTION('',(0.,0.,-1.));
#549=DIRECTION('',(-1.,0.,0.));
#550=DIRECTION('',(-1.,0.,0.));
#551=DIRECTION('',(0.,0.,-1.));
#552=DIRECTION('',(1.,0.,0.));
#553=DIRECTION('',(1.,0.,0.));
#554=DIRECTION('',(-1.,0.,0.));
#555=DIRECTION('',(0.,0.,-1.));
#556=DIRECTION('',(1.,0.,0.));
#557=DIRECTION('',(1.,0.,0.));
#558=DIRECTION('',(0.,1.,-9.63735264431561E-17));
#559=DIRECTION('',(1.,0.,0.));
#560=DIRECTION('',(0.,0.,1.));
#561=DIRECTION('',(1.,0.,0.));
#562=DIRECTION('',(0.,0.,-1.));
#563=DIRECTION('',(1.,0.,0.));
#564=DIRECTION('',(0.,0.,-1.));
#565=DIRECTION('',(0.,-1.,0.));
#566=DIRECTION('',(0.,0.,-1.));
#567=DIRECTION('',(-1.,0.,0.));
#568=DIRECTION('',(0.,0.,-1.));
#569=DIRECTION('',(-1.,0.,0.));
#570=DIRECTION('',(0.,0.,-1.));
#571=DIRECTION('',(0.,-1.,0.));
#572=DIRECTION('',(0.,0.,1.));
#573=DIRECTION('',(-1.,0.,0.));
#574=DIRECTION('',(0.,6.47734903908015E-17,1.));
#575=DIRECTION('',(0.,1.,-6.47734903908015E-17));
#576=DIRECTION('',(0.,0.707106781186548,0.707106781186548));
#577=DIRECTION('',(1.,0.,0.));
#578=DIRECTION('',(0.,0.707106781186548,0.707106781186547));
#579=DIRECTION('',(0.,0.707106781186547,-0.707106781186548));
#580=DIRECTION('',(1.,0.,0.));
#581=DIRECTION('',(0.,-0.707106781186548,-0.707106781186547));
#582=DIRECTION('',(0.,0.707106781186547,-0.707106781186548));
#583=DIRECTION('',(1.,0.,0.));
#584=DIRECTION('',(0.,0.707106781186548,-0.707106781186548));
#585=DIRECTION('',(-1.,0.,0.));
#586=DIRECTION('',(1.,0.,0.));
#587=DIRECTION('',(0.,0.707106781186548,-0.707106781186547));
#588=DIRECTION('',(0.,-0.707106781186547,-0.707106781186548));
#589=DIRECTION('',(1.,0.,0.));
#590=DIRECTION('',(0.,-0.707106781186548,0.707106781186547));
#591=DIRECTION('',(0.,-0.707106781186547,-0.707106781186548));
#592=DIRECTION('',(0.,0.,1.));
#593=DIRECTION('',(1.,0.,0.));
#594=DIRECTION('',(0.,0.707106781186548,0.707106781186548));
#595=DIRECTION('',(1.,0.,0.));
#596=DIRECTION('',(0.,0.707106781186548,0.707106781186547));
#597=DIRECTION('',(0.,0.707106781186547,-0.707106781186548));
#598=DIRECTION('',(0.,-0.707106781186548,-0.707106781186547));
#599=DIRECTION('',(0.,0.707106781186547,-0.707106781186548));
#600=DIRECTION('',(1.,0.,0.));
#601=DIRECTION('',(0.,0.,-1.));
#602=DIRECTION('',(0.,-1.,0.));
#603=DIRECTION('',(0.,0.,1.));
#604=DIRECTION('',(-1.,0.,0.));
#605=DIRECTION('',(0.,6.47734903908015E-17,1.));
#606=DIRECTION('',(0.,1.,-6.47734903908015E-17));
#607=DIRECTION('',(0.,1.,-9.63735264431561E-17));
#608=DIRECTION('',(1.,0.,0.));
#609=DIRECTION('',(0.,0.,-1.));
#610=DIRECTION('',(0.,0.,1.));
#611=DIRECTION('',(0.,-6.47734903908015E-17,-1.));
#612=DIRECTION('',(0.,-1.,6.47734903908015E-17));
#613=DIRECTION('',(-7.4818234720721E-13,0.,-1.));
#614=DIRECTION('',(-1.,0.,7.4818234720721E-13));
#615=DIRECTION('',(1.,0.,0.));
#616=DIRECTION('',(-7.4818234720721E-13,0.,-1.));
#617=DIRECTION('',(-1.,0.,7.4818234720721E-13));
#618=DIRECTION('',(0.,0.,1.));
#619=DIRECTION('',(-1.,0.,0.));
#620=DIRECTION('',(0.,0.707106781186548,-0.707106781186547));
#621=DIRECTION('',(0.,-0.707106781186547,-0.707106781186548));
#622=DIRECTION('',(0.,0.,1.));
#623=DIRECTION('',(0.,1.,0.));
#624=DIRECTION('',(1.,0.,0.));
#625=DIRECTION('',(0.,0.,-1.));
#626=DIRECTION('',(0.,0.,1.));
#627=DIRECTION('',(0.,0.707106781186548,-0.707106781186548));
#628=DIRECTION('',(-1.,0.,0.));
#629=DIRECTION('',(1.,0.,0.));
#630=DIRECTION('',(0.,-0.707106781186548,0.707106781186547));
#631=DIRECTION('',(0.,-0.707106781186547,-0.707106781186548));
#632=DIRECTION('',(-1.,0.,0.));
#633=DIRECTION('',(0.,0.,-1.));
#634=DIRECTION('',(1.,0.,0.));
#635=DIRECTION('',(0.,1.,0.));
#636=DIRECTION('',(1.,0.,0.));
#637=DIRECTION('',(0.,0.,-1.));
#638=DIRECTION('',(-1.,0.,0.));
#639=DIRECTION('',(0.,0.,-1.));
#640=DIRECTION('',(0.,0.,1.));
#641=DIRECTION('',(-1.,0.,0.));
#642=DIRECTION('',(0.,0.,1.));
#643=DIRECTION('',(-1.,0.,0.));
#644=DIRECTION('',(0.,0.,1.));
#645=DIRECTION('',(1.,0.,0.));
#646=DIRECTION('',(0.,0.,1.));
#647=DIRECTION('',(1.,0.,0.));
#648=DIRECTION('',(0.,0.,1.));
#649=DIRECTION('',(1.,0.,0.));
#650=DIRECTION('',(1.53666449643615E-17,0.,-1.));
#651=DIRECTION('',(-1.,0.,-1.53666449643615E-17));
#652=DIRECTION('',(0.,0.,-1.));
#653=DIRECTION('',(-1.,0.,0.));
#654=DIRECTION('',(0.,0.,-1.));
#655=DIRECTION('',(0.,1.,0.));
#656=DIRECTION('',(0.,0.,1.));
#657=DIRECTION('',(1.,0.,0.));
#658=DIRECTION('',(0.,0.,1.));
#659=DIRECTION('',(0.,1.,0.));
#660=DIRECTION('',(0.,1.43339373796143E-16,1.));
#661=DIRECTION('',(0.,-1.,1.43339373796143E-16));
#662=DIRECTION('',(0.,6.47734903908015E-17,1.));
#663=DIRECTION('',(1.,0.,0.));
#664=DIRECTION('',(0.,0.,1.));
#665=DIRECTION('',(1.,0.,0.));
#666=CARTESIAN_POINT('',(0.,0.,0.));
#667=CARTESIAN_POINT('',(7.02873218749514E-15,3.85185988877447E-31,-12.));
#668=CARTESIAN_POINT('',(1.00070287321875E-11,1.E-11,-12.00000000001));
#669=CARTESIAN_POINT('',(-15.99999999999,1.E-11,-12.00000000001));
#670=CARTESIAN_POINT('',(1.00070287321875E-11,1.E-11,-13.2928932188235));
#671=CARTESIAN_POINT('',(17.29289320001,1.E-11,-13.2928932188235));
#672=CARTESIAN_POINT('',(-18.9473684210526,8.20307363702533E-16,-0.699999999999999));
#673=CARTESIAN_POINT('',(-18.9473684210626,-1.70000000001,-0.700000000009999));
#674=CARTESIAN_POINT('',(-15.9094311651865,-1.700000000005,-0.700000000009999));
#675=CARTESIAN_POINT('',(-13.2665227169688,-1.700000000005,-0.700000000009999));
#676=CARTESIAN_POINT('',(1.00070287321875E-11,0.,-0.700000000009999));
#677=CARTESIAN_POINT('',(-13.2665227169685,1.7000000000075,-0.700000000004998));
#678=CARTESIAN_POINT('',(-18.9473684210626,1.70000000001,-0.700000000009999));
#679=CARTESIAN_POINT('',(-15.9094311651875,1.700000000005,-0.700000000004998));
#680=CARTESIAN_POINT('',(1.00070287321875E-11,1.E-11,-0.700000000009999));
#681=CARTESIAN_POINT('',(-18.9473684210526,-1.7,0.300000000000004));
#682=CARTESIAN_POINT('',(13.0996421706854,-2.7,0.300000000007504));
#683=CARTESIAN_POINT('',(13.099642170685,-2.70000000000199,0.0341217756701778));
#684=CARTESIAN_POINT('',(13.1475953991377,-2.47933109598855,-0.48433601672331));
#685=CARTESIAN_POINT('',(13.2327408070122,-1.9636285152565,-0.699999999998774));
#686=CARTESIAN_POINT('',(13.2665227169739,-1.70000000000463,-0.699999999999996));
#687=CARTESIAN_POINT('',(13.0996421706904,-2.700000000005,0.300000000008754));
#688=CARTESIAN_POINT('',(13.2665227169788,-1.700000000005,-0.700000000009999));
#689=CARTESIAN_POINT('',(-18.9473684210626,-2.70000000001,0.300000000010004));
#690=CARTESIAN_POINT('',(15.7705421593594,-2.70000000001,0.300000000005004));
#691=CARTESIAN_POINT('',(15.9094311651926,-1.7,-0.699999999999996));
#692=CARTESIAN_POINT('',(15.8812409304407,-1.96381799959769,-0.699999999999997));
#693=CARTESIAN_POINT('',(15.8103479204616,-2.47936447927402,-0.484458401232873));
#694=CARTESIAN_POINT('',(15.7705421593552,-2.7,0.0346217103725668));
#695=CARTESIAN_POINT('',(15.7705421593552,-2.7,0.300000000000004));
#696=CARTESIAN_POINT('',(15.9094311651965,-1.700000000005,-0.700000000004998));
#697=CARTESIAN_POINT('',(-18.9473684210626,-1.70000000001,-0.700000000009999));
#698=CARTESIAN_POINT('',(-18.9473684210526,1.7,0.300000000000004));
#699=CARTESIAN_POINT('',(-18.9473684210626,2.70000000001,0.300000000010004));
#700=CARTESIAN_POINT('',(13.0996421706894,2.70000000001,0.300000000005004));
#701=CARTESIAN_POINT('',(15.7705421593594,2.70000000001,0.300000000005004));
#702=CARTESIAN_POINT('',(13.0996421706854,2.7,0.300000000007504));
#703=CARTESIAN_POINT('',(13.099642170685,2.70000000000199,0.0341217756702354));
#704=CARTESIAN_POINT('',(13.1475953991372,2.47933109599171,-0.484336016721363));
#705=CARTESIAN_POINT('',(13.2327408070127,1.96362851525333,-0.699999999999598));
#706=CARTESIAN_POINT('',(13.2665227169743,1.70000000000151,-0.699999999999996));
#707=CARTESIAN_POINT('',(13.2665227169788,1.70000000000576,-0.700000000004998));
#708=CARTESIAN_POINT('',(-18.9473684210626,1.70000000001,-0.700000000009999));
#709=CARTESIAN_POINT('',(15.9094311651976,1.700000000005,-0.700000000009999));
#710=CARTESIAN_POINT('',(15.9094311651926,1.7,-0.699999999999996));
#711=CARTESIAN_POINT('',(15.8812409304406,1.96381799959787,-0.699999999999997));
#712=CARTESIAN_POINT('',(15.8103479204619,2.47936447927232,-0.484458401237148));
#713=CARTESIAN_POINT('',(15.7705421593549,2.70000000000199,0.0346217103798902));
#714=CARTESIAN_POINT('',(15.7705421593552,2.7,0.300000000007504));
#715=CARTESIAN_POINT('',(-18.9473684210526,-2.7,0.300000000000004));
#716=CARTESIAN_POINT('',(-13.0996421706954,-2.70000000001,6.00000000001));
#717=CARTESIAN_POINT('',(-13.0996421706894,-2.70000000001,0.300000000005004));
#718=CARTESIAN_POINT('',(-13.0996421707171,-2.70000000000793,4.80000000000792));
#719=CARTESIAN_POINT('',(-18.9473684210626,-2.70000000001,0.300000000010004));
#720=CARTESIAN_POINT('',(-15.7705421593602,-2.700000000005,0.300000000005005));
#721=CARTESIAN_POINT('',(-15.7705421593652,-2.70000000001,6.00000000001));
#722=CARTESIAN_POINT('',(-15.7705421593751,-2.70000000001,4.80000000002));
#723=CARTESIAN_POINT('',(-18.9473684210626,-2.70000000001,4.80000000001));
#724=CARTESIAN_POINT('',(-18.9473684210526,8.20307363702533E-16,-0.699999999999999));
#725=CARTESIAN_POINT('',(1.00070287321875E-11,0.,-0.700000000009999));
#726=CARTESIAN_POINT('',(1.00070287321875E-11,1.E-11,-0.700000000009999));
#727=CARTESIAN_POINT('',(7.02873218749514E-15,-1.94320471172404E-16,3.));
#728=CARTESIAN_POINT('',(14.484129245498,3.90000000001,6.00000000001));
#729=CARTESIAN_POINT('',(14.9109030732333,3.5729392973904,5.6729392973904));
#730=CARTESIAN_POINT('',(15.3275840385232,3.23918384874714,5.33918384874714));
#731=CARTESIAN_POINT('',(15.734992850342,2.90000000001,5.00000000001));
#732=CARTESIAN_POINT('',(14.4841292454953,3.90000000000773,6.00000000000913));
#733=CARTESIAN_POINT('',(15.7349928503576,2.90000000000563,5.00000000000787));
#734=CARTESIAN_POINT('',(7.02873218749514E-15,-1.94320471172404E-16,5.00000000358979));
#735=CARTESIAN_POINT('',(-15.7349928503446,2.90000000000384,5.00000000000727));
#736=CARTESIAN_POINT('',(-15.734992850342,2.90000000001,5.00000000001));
#737=CARTESIAN_POINT('',(-15.3275840385232,3.23918384874714,5.33918384874714));
#738=CARTESIAN_POINT('',(-14.9109030732333,3.5729392973904,5.6729392973904));
#739=CARTESIAN_POINT('',(-14.484129245498,3.90000000001,6.00000000001));
#740=CARTESIAN_POINT('',(-14.4841292454846,3.90000000001,6.00000000000827));
#741=CARTESIAN_POINT('',(7.02873218749514E-15,-7.77281883294477E-16,6.));
#742=CARTESIAN_POINT('',(-18.9473684210526,-2.7,4.8));
#743=CARTESIAN_POINT('',(1.00070287321875E-11,0.,2.10000000000999));
#744=CARTESIAN_POINT('',(12.7937728994546,-3.90000000001,6.00000000001));
#745=CARTESIAN_POINT('',(13.0996421707236,-2.7000000000086,4.8000000000086));
#746=CARTESIAN_POINT('',(-18.9473684210626,-3.90000000001,6.00000000001));
#747=CARTESIAN_POINT('',(14.4841292454936,-3.90000000000728,6.00000000001087));
#748=CARTESIAN_POINT('',(14.484129245498,-3.90000000001,6.00000000001));
#749=CARTESIAN_POINT('',(14.9109030732333,-3.5729392973904,5.6729392973904));
#750=CARTESIAN_POINT('',(15.3275840385232,-3.23918384874714,5.33918384874714));
#751=CARTESIAN_POINT('',(15.734992850342,-2.90000000001,5.00000000001));
#752=CARTESIAN_POINT('',(15.7349928503582,-2.90000000000246,5.00000000001235));
#753=CARTESIAN_POINT('',(1.00070287321875E-11,1.E-11,2.10000000000999));
#754=CARTESIAN_POINT('',(15.7705421593755,-2.70000000000478,4.80000000000811));
#755=CARTESIAN_POINT('',(-18.9473684210626,-2.70000000001,4.80000000001));
#756=CARTESIAN_POINT('',(-18.9473684210526,2.7,4.8));
#757=CARTESIAN_POINT('',(-18.9473684210626,3.90000000001,6.00000000001));
#758=CARTESIAN_POINT('',(12.7937728994546,3.90000000001,6.00000000001));
#759=CARTESIAN_POINT('',(1.00070287321875E-11,0.,2.10000000000999));
#760=CARTESIAN_POINT('',(13.0996421707236,2.7000000000086,4.8000000000086));
#761=CARTESIAN_POINT('',(-18.9473684210626,2.70000000001,4.80000000001));
#762=CARTESIAN_POINT('',(15.770542159376,2.70000000000816,4.80000000000483));
#763=CARTESIAN_POINT('',(1.00070287321875E-11,1.E-11,2.10000000000999));
#764=CARTESIAN_POINT('',(7.02873218749514E-15,0.,-13.2928932188135));
#765=CARTESIAN_POINT('',(-18.9473684210526,-2.7,4.8));
#766=CARTESIAN_POINT('',(1.00070287321875E-11,0.,2.10000000000999));
#767=CARTESIAN_POINT('',(-12.7937728994346,-3.90000000001,6.00000000001));
#768=CARTESIAN_POINT('',(1.00070287321875E-11,1.E-11,2.10000000000999));
#769=CARTESIAN_POINT('',(-15.7349928503443,-2.90000000000508,5.00000000001175));
#770=CARTESIAN_POINT('',(-15.734992850342,-2.90000000001,5.00000000001));
#771=CARTESIAN_POINT('',(-15.3275840385232,-3.23918384874714,5.33918384874714));
#772=CARTESIAN_POINT('',(-14.9109030732333,-3.5729392973904,5.6729392973904));
#773=CARTESIAN_POINT('',(-14.484129245498,-3.90000000001,6.00000000001));
#774=CARTESIAN_POINT('',(-14.4841292454808,-3.90000000001087,6.00000000001173));
#775=CARTESIAN_POINT('',(-18.9473684210626,-3.90000000001,6.00000000001));
#776=CARTESIAN_POINT('',(7.02873218749514E-15,-1.94320471172404E-16,3.));
#777=CARTESIAN_POINT('',(7.02873218749514E-15,-1.94320471172404E-16,5.00000000358979));
#778=CARTESIAN_POINT('',(7.02873218749514E-15,-7.77281883294477E-16,6.));
#779=CARTESIAN_POINT('',(-18.9473684210526,-2.7,0.300000000000004));
#780=CARTESIAN_POINT('',(13.0996421706954,-2.70000000001,6.00000000001));
#781=CARTESIAN_POINT('',(15.7705421593652,-2.70000000001,6.00000000001));
#782=CARTESIAN_POINT('',(7.02873218749514E-15,15.,6.));
#783=CARTESIAN_POINT('',(1.00070287321875E-11,0.,6.00000000001));
#784=CARTESIAN_POINT('',(-18.9473684210626,3.90000000001,6.00000000001));
#785=CARTESIAN_POINT('',(-12.7937728994346,3.90000000001,6.00000000001));
#786=CARTESIAN_POINT('',(1.00070287321875E-11,0.,6.00000000001));
#787=CARTESIAN_POINT('',(7.02873218749514E-15,0.,6.));
#788=CARTESIAN_POINT('',(1.00070287321875E-11,0.,2.10000000000999));
#789=CARTESIAN_POINT('',(-13.0996421707171,2.70000000000793,4.80000000000792));
#790=CARTESIAN_POINT('',(-13.0996421706954,2.70000000001,6.00000000001));
#791=CARTESIAN_POINT('',(-13.0996421706904,2.700000000005,0.300000000008754));
#792=CARTESIAN_POINT('',(-13.2665227169738,1.700000000005,-0.699999999999996));
#793=CARTESIAN_POINT('',(-13.2327318212687,1.96369863853302,-0.699999999998678));
#794=CARTESIAN_POINT('',(-13.1477690268628,2.47837088650918,-0.485225721724203));
#795=CARTESIAN_POINT('',(-13.099642170685,2.70000000000199,0.0340600944123439));
#796=CARTESIAN_POINT('',(-13.0996421706854,2.7,0.300000000007504));
#797=CARTESIAN_POINT('',(-13.2665227169735,-1.70000000000781,-0.699999999999996));
#798=CARTESIAN_POINT('',(-13.2327318212685,-1.96369863853458,-0.699999999997937));
#799=CARTESIAN_POINT('',(-13.1477690268627,-2.47837088650919,-0.485225721724417));
#800=CARTESIAN_POINT('',(-13.099642170685,-2.70000000000199,0.034060094413601));
#801=CARTESIAN_POINT('',(-13.0996421706854,-2.7,0.300000000007505));
#802=CARTESIAN_POINT('',(-18.9473684210526,2.7,0.300000000000004));
#803=CARTESIAN_POINT('',(13.0996421706954,2.70000000001,6.00000000001));
#804=CARTESIAN_POINT('',(15.7705421593652,2.70000000001,6.00000000001));
#805=CARTESIAN_POINT('',(-18.9473684210526,2.7,4.8));
#806=CARTESIAN_POINT('',(-18.9473684210626,2.70000000001,4.80000000001));
#807=CARTESIAN_POINT('',(-15.7705421593694,2.7000000000076,4.80000000000427));
#808=CARTESIAN_POINT('',(1.00070287321875E-11,1.E-11,2.10000000000999));
#809=CARTESIAN_POINT('',(-18.9473684210526,1.7,0.300000000000004));
#810=CARTESIAN_POINT('',(-18.9473684210626,2.70000000001,0.300000000010004));
#811=CARTESIAN_POINT('',(-15.7705421593593,2.70000000001,0.300000000005004));
#812=CARTESIAN_POINT('',(-15.7705421593552,2.7,0.300000000007504));
#813=CARTESIAN_POINT('',(-15.7705421593549,2.70000000000199,0.0346639767367155));
#814=CARTESIAN_POINT('',(-15.8102004202967,2.48034160619174,-0.483530415946154));
#815=CARTESIAN_POINT('',(-15.8812462087549,1.96376860255235,-0.699999999999995));
#816=CARTESIAN_POINT('',(-15.9094311651925,1.7,-0.699999999999996));
#817=CARTESIAN_POINT('',(-18.9473684210526,2.7,0.300000000000004));
#818=CARTESIAN_POINT('',(-15.7705421593652,2.70000000001,6.00000000001));
#819=CARTESIAN_POINT('',(-18.9473684210526,-1.7,0.300000000000004));
#820=CARTESIAN_POINT('',(-15.7705421593552,-2.7,0.300000000000005));
#821=CARTESIAN_POINT('',(-15.7705421593552,-2.7,0.034663976731201));
#822=CARTESIAN_POINT('',(-15.8102004202978,-2.48034160618481,-0.483530415952281));
#823=CARTESIAN_POINT('',(-15.8812462087551,-1.96376860255038,-0.699999999999995));
#824=CARTESIAN_POINT('',(-15.9094311651925,-1.7,-0.699999999999996));
#825=CARTESIAN_POINT('',(7.02873218749514E-15,0.,6.));
#826=CARTESIAN_POINT('',(7.02873218749514E-15,3.85185988877447E-31,6.));
#827=CARTESIAN_POINT('',(0.,0.,0.));
#828=CARTESIAN_POINT('',(7.02873218749514E-15,0.,-13.2928932188135));
#829=CARTESIAN_POINT('',(1.00070287321875E-11,1.E-11,-13.2928932188235));
#830=CARTESIAN_POINT('',(17.29289320001,1.E-11,-13.2928932188235));
#831=CARTESIAN_POINT('',(7.02873218749514E-15,3.85185988877447E-31,-12.));
#832=CARTESIAN_POINT('',(1.00070287321875E-11,1.E-11,-14.00000000001));
#833=CARTESIAN_POINT('',(-17.99999999999,1.E-11,-14.00000000001));
#834=CARTESIAN_POINT('',(7.02873218749514E-15,-3.23867451954007E-15,-44.));
#835=CARTESIAN_POINT('',(7.02873218749514E-15,-3.23867451954007E-15,-42.5857999974617));
#836=CARTESIAN_POINT('',(18.,-3.23867451954007E-15,-42.5857999974617));
#837=CARTESIAN_POINT('',(7.02873218749514E-15,-3.23867451954007E-15,-44.));
#838=CARTESIAN_POINT('',(7.02873218749514E-15,-3.23867451954007E-15,-44.));
#839=CARTESIAN_POINT('',(7.02873218749514E-15,-16.5858,-44.));
#840=CARTESIAN_POINT('',(7.02873218749514E-15,7.77677639930299,-44.));
#841=CARTESIAN_POINT('',(0.,0.,0.));
#842=MECHANICAL_DESIGN_GEOMETRIC_PRESENTATION_REPRESENTATION('',(#456,#457),
#843);
#843=(
GEOMETRIC_REPRESENTATION_CONTEXT(3)
GLOBAL_UNCERTAINTY_ASSIGNED_CONTEXT((#846))
GLOBAL_UNIT_ASSIGNED_CONTEXT((#851,#850,#849))
REPRESENTATION_CONTEXT('727 36.000','TOP_LEVEL_ASSEMBLY_PART')
);
#844=(
GEOMETRIC_REPRESENTATION_CONTEXT(3)
GLOBAL_UNCERTAINTY_ASSIGNED_CONTEXT((#847))
GLOBAL_UNIT_ASSIGNED_CONTEXT((#851,#850,#849))
REPRESENTATION_CONTEXT('727 36.000_PART1','COMPONENT_PART')
);
#845=(
GEOMETRIC_REPRESENTATION_CONTEXT(3)
GLOBAL_UNCERTAINTY_ASSIGNED_CONTEXT((#848))
GLOBAL_UNIT_ASSIGNED_CONTEXT((#851,#850,#849))
REPRESENTATION_CONTEXT('727 36.000_PART2','COMPONENT_PART')
);
#846=UNCERTAINTY_MEASURE_WITH_UNIT(LENGTH_MEASURE(1.E-5),#851,
'DISTANCE_ACCURACY_VALUE','Maximum Tolerance applied to model');
#847=UNCERTAINTY_MEASURE_WITH_UNIT(LENGTH_MEASURE(1.E-5),#851,
'DISTANCE_ACCURACY_VALUE','Maximum Tolerance applied to model');
#848=UNCERTAINTY_MEASURE_WITH_UNIT(LENGTH_MEASURE(1.E-5),#851,
'DISTANCE_ACCURACY_VALUE','Maximum Tolerance applied to model');
#849=(
NAMED_UNIT(*)
SI_UNIT($,.STERADIAN.)
SOLID_ANGLE_UNIT()
);
#850=(
NAMED_UNIT(*)
PLANE_ANGLE_UNIT()
SI_UNIT($,.RADIAN.)
);
#851=(
LENGTH_UNIT()
NAMED_UNIT(*)
SI_UNIT(.MILLI.,.METRE.)
);
#852=PRODUCT_DEFINITION_SHAPE('','',#857);
#853=PRODUCT_DEFINITION_SHAPE('','',#858);
#854=PRODUCT_DEFINITION_SHAPE(' ','NAUO PRDDFN',#20);
#855=PRODUCT_DEFINITION_SHAPE('','',#859);
#856=PRODUCT_DEFINITION_SHAPE(' ','NAUO PRDDFN',#21);
#857=PRODUCT_DEFINITION('','',#863,#860);
#858=PRODUCT_DEFINITION('','',#864,#861);
#859=PRODUCT_DEFINITION('','',#865,#862);
#860=PRODUCT_DEFINITION_CONTEXT('',#879,'design');
#861=PRODUCT_DEFINITION_CONTEXT('',#879,'design');
#862=PRODUCT_DEFINITION_CONTEXT('',#879,'design');
#863=PRODUCT_DEFINITION_FORMATION_WITH_SPECIFIED_SOURCE('','',#869,
 .NOT_KNOWN.);
#864=PRODUCT_DEFINITION_FORMATION_WITH_SPECIFIED_SOURCE('','',#870,
 .NOT_KNOWN.);
#865=PRODUCT_DEFINITION_FORMATION_WITH_SPECIFIED_SOURCE('','',#871,
 .NOT_KNOWN.);
#866=PRODUCT_RELATED_PRODUCT_CATEGORY('','',(#869));
#867=PRODUCT_RELATED_PRODUCT_CATEGORY('','',(#870));
#868=PRODUCT_RELATED_PRODUCT_CATEGORY('','',(#871));
#869=PRODUCT('727 36.000','727 36.000','727 36.000',(#875));
#870=PRODUCT('727 36.000_PART1','727 36.000_PART1','727 36.000_PART1',(#876));
#871=PRODUCT('727 36.000_PART2','727 36.000_PART2','727 36.000_PART2',(#877));
#872=PRODUCT_CATEGORY('','');
#873=PRODUCT_CATEGORY('','');
#874=PRODUCT_CATEGORY('','');
#875=PRODUCT_CONTEXT('',#879,'mechanical');
#876=PRODUCT_CONTEXT('',#879,'mechanical');
#877=PRODUCT_CONTEXT('',#879,'mechanical');
#878=APPLICATION_PROTOCOL_DEFINITION('international standard',
'automotive_design',2010,#879);
#879=APPLICATION_CONTEXT(
'core data for automotive mechanical design processes');
ENDSEC;
END-ISO-10303-21;
