ISO-10303-21;
HEADER;
/* Generated by software containing ST-Developer
 * from STEP Tools, Inc. (www.steptools.com) 
 */
/* OPTION: using custom renumber hook */

FILE_DESCRIPTION(
/* description */ ('STEP AP214'),
/* implementation_level */ '2;1');

FILE_NAME(
/* name */ '7285 10.000',
/* time_stamp */ '2026-05-15T11:09:44+02:00',
/* author */ ('License CC BY-ND 4.0'),
/* organization */ ('CADENAS'),
/* preprocessor_version */ 'ST-DEVELOPER v20',
/* originating_system */ 'PARTsolutions',
/* authorisation */ '  ');

FILE_SCHEMA (('AUTOMOTIVE_DESIGN {1 0 10303 214 3 1 1}'));
ENDSEC;

DATA;
#10=PROPERTY_DEFINITION_REPRESENTATION(#14,#12);
#11=PROPERTY_DEFINITION_REPRESENTATION(#15,#13);
#12=REPRESENTATION('',(#16),#388);
#13=REPRESENTATION('',(#17),#388);
#14=PROPERTY_DEFINITION('pmi validation property','',#399);
#15=PROPERTY_DEFINITION('pmi validation property','',#399);
#16=VALUE_REPRESENTATION_ITEM('number of annotations',COUNT_MEASURE(0.));
#17=VALUE_REPRESENTATION_ITEM('number of views',COUNT_MEASURE(0.));
#18=CYLINDRICAL_SURFACE('',#247,4.99999999999999);
#19=CYLINDRICAL_SURFACE('',#255,3.99999999999999);
#20=CYLINDRICAL_SURFACE('',#263,5.);
#21=CONTEXT_DEPENDENT_SHAPE_REPRESENTATION(#27,#401);
#22=CONTEXT_DEPENDENT_SHAPE_REPRESENTATION(#28,#403);
#23=CONTEXT_DEPENDENT_SHAPE_REPRESENTATION(#29,#405);
#24=NEXT_ASSEMBLY_USAGE_OCCURRENCE('NAUO1','7285 10.000_PART1',
'7285 10.000_PART1',#406,#407,'');
#25=NEXT_ASSEMBLY_USAGE_OCCURRENCE('NAUO2','7285 10.000_PART2',
'7285 10.000_PART2',#406,#408,'');
#26=NEXT_ASSEMBLY_USAGE_OCCURRENCE('NAUO3','7285 10.000_PART3',
'7285 10.000_PART3',#406,#409,'');
#27=(
REPRESENTATION_RELATIONSHIP(' ',' ',#230,#229)
REPRESENTATION_RELATIONSHIP_WITH_TRANSFORMATION(#30)
SHAPE_REPRESENTATION_RELATIONSHIP()
);
#28=(
REPRESENTATION_RELATIONSHIP(' ',' ',#231,#229)
REPRESENTATION_RELATIONSHIP_WITH_TRANSFORMATION(#31)
SHAPE_REPRESENTATION_RELATIONSHIP()
);
#29=(
REPRESENTATION_RELATIONSHIP(' ',' ',#232,#229)
REPRESENTATION_RELATIONSHIP_WITH_TRANSFORMATION(#32)
SHAPE_REPRESENTATION_RELATIONSHIP()
);
#30=ITEM_DEFINED_TRANSFORMATION(' ',' ',#233,#239);
#31=ITEM_DEFINED_TRANSFORMATION(' ',' ',#233,#251);
#32=ITEM_DEFINED_TRANSFORMATION(' ',' ',#233,#267);
#33=SHAPE_REPRESENTATION_RELATIONSHIP('','',#230,#36);
#34=SHAPE_REPRESENTATION_RELATIONSHIP('','',#231,#37);
#35=SHAPE_REPRESENTATION_RELATIONSHIP('','',#232,#38);
#36=ADVANCED_BREP_SHAPE_REPRESENTATION('',(#222),#389);
#37=ADVANCED_BREP_SHAPE_REPRESENTATION('',(#223),#390);
#38=ADVANCED_BREP_SHAPE_REPRESENTATION('',(#224),#391);
#39=CONICAL_SURFACE('',#238,4.48021020708005,1.04719755119658);
#40=CONICAL_SURFACE('',#242,4.48021020708005,1.04719755119658);
#41=CONICAL_SURFACE('',#245,4.99982544935071,0.0174532925198818);
#42=CONICAL_SURFACE('',#249,4.99999999999998,0.78539816339745);
#43=CONICAL_SURFACE('',#252,3.99999999999999,0.785398163397447);
#44=CONICAL_SURFACE('',#257,4.99999999999998,0.78539816339745);
#45=CONICAL_SURFACE('',#265,5.,0.785398163397448);
#46=ORIENTED_EDGE('',*,*,#74,.T.);
#47=ORIENTED_EDGE('',*,*,#75,.F.);
#48=ORIENTED_EDGE('',*,*,#75,.T.);
#49=ORIENTED_EDGE('',*,*,#74,.F.);
#50=ORIENTED_EDGE('',*,*,#76,.T.);
#51=ORIENTED_EDGE('',*,*,#77,.T.);
#52=ORIENTED_EDGE('',*,*,#78,.F.);
#53=ORIENTED_EDGE('',*,*,#79,.F.);
#54=ORIENTED_EDGE('',*,*,#78,.T.);
#55=ORIENTED_EDGE('',*,*,#80,.F.);
#56=ORIENTED_EDGE('',*,*,#79,.T.);
#57=ORIENTED_EDGE('',*,*,#80,.T.);
#58=ORIENTED_EDGE('',*,*,#76,.F.);
#59=ORIENTED_EDGE('',*,*,#77,.F.);
#60=ORIENTED_EDGE('',*,*,#81,.F.);
#61=ORIENTED_EDGE('',*,*,#82,.T.);
#62=ORIENTED_EDGE('',*,*,#82,.F.);
#63=ORIENTED_EDGE('',*,*,#83,.T.);
#64=ORIENTED_EDGE('',*,*,#84,.T.);
#65=ORIENTED_EDGE('',*,*,#83,.F.);
#66=ORIENTED_EDGE('',*,*,#81,.T.);
#67=ORIENTED_EDGE('',*,*,#85,.F.);
#68=ORIENTED_EDGE('',*,*,#86,.T.);
#69=ORIENTED_EDGE('',*,*,#87,.T.);
#70=ORIENTED_EDGE('',*,*,#85,.T.);
#71=ORIENTED_EDGE('',*,*,#86,.F.);
#72=ORIENTED_EDGE('',*,*,#87,.F.);
#73=ORIENTED_EDGE('',*,*,#84,.F.);
#74=EDGE_CURVE('',#88,#88,#102,.T.);
#75=EDGE_CURVE('',#89,#89,#103,.T.);
#76=EDGE_CURVE('',#90,#90,#104,.T.);
#77=EDGE_CURVE('',#91,#91,#105,.T.);
#78=EDGE_CURVE('',#92,#92,#106,.T.);
#79=EDGE_CURVE('',#93,#93,#107,.T.);
#80=EDGE_CURVE('',#94,#94,#108,.T.);
#81=EDGE_CURVE('',#95,#95,#109,.T.);
#82=EDGE_CURVE('',#96,#96,#110,.T.);
#83=EDGE_CURVE('',#97,#97,#111,.T.);
#84=EDGE_CURVE('',#98,#98,#112,.T.);
#85=EDGE_CURVE('',#99,#99,#113,.T.);
#86=EDGE_CURVE('',#100,#100,#114,.T.);
#87=EDGE_CURVE('',#101,#101,#115,.T.);
#88=VERTEX_POINT('',#341);
#89=VERTEX_POINT('',#344);
#90=VERTEX_POINT('',#349);
#91=VERTEX_POINT('',#352);
#92=VERTEX_POINT('',#354);
#93=VERTEX_POINT('',#357);
#94=VERTEX_POINT('',#360);
#95=VERTEX_POINT('',#366);
#96=VERTEX_POINT('',#368);
#97=VERTEX_POINT('',#371);
#98=VERTEX_POINT('',#374);
#99=VERTEX_POINT('',#377);
#100=VERTEX_POINT('',#380);
#101=VERTEX_POINT('',#383);
#102=CIRCLE('',#235,4.49753071515576);
#103=CIRCLE('',#237,4.48021020708005);
#104=CIRCLE('',#241,4.94999999999999);
#105=CIRCLE('',#243,4.49753071515576);
#106=CIRCLE('',#244,4.99982544935071);
#107=CIRCLE('',#246,4.99999999999999);
#108=CIRCLE('',#248,4.99999999999998);
#109=CIRCLE('',#253,4.995);
#110=CIRCLE('',#254,3.99999999999999);
#111=CIRCLE('',#256,3.99999999999999);
#112=CIRCLE('',#258,4.94999999999999);
#113=CIRCLE('',#260,5.);
#114=CIRCLE('',#262,3.75);
#115=CIRCLE('',#264,5.);
#116=EDGE_LOOP('',(#46));
#117=EDGE_LOOP('',(#47));
#118=EDGE_LOOP('',(#48));
#119=EDGE_LOOP('',(#49));
#120=EDGE_LOOP('',(#50));
#121=EDGE_LOOP('',(#51));
#122=EDGE_LOOP('',(#52));
#123=EDGE_LOOP('',(#53));
#124=EDGE_LOOP('',(#54));
#125=EDGE_LOOP('',(#55));
#126=EDGE_LOOP('',(#56));
#127=EDGE_LOOP('',(#57));
#128=EDGE_LOOP('',(#58));
#129=EDGE_LOOP('',(#59));
#130=EDGE_LOOP('',(#60));
#131=EDGE_LOOP('',(#61));
#132=EDGE_LOOP('',(#62));
#133=EDGE_LOOP('',(#63));
#134=EDGE_LOOP('',(#64));
#135=EDGE_LOOP('',(#65));
#136=EDGE_LOOP('',(#66));
#137=EDGE_LOOP('',(#67));
#138=EDGE_LOOP('',(#68));
#139=EDGE_LOOP('',(#69));
#140=EDGE_LOOP('',(#70));
#141=EDGE_LOOP('',(#71));
#142=EDGE_LOOP('',(#72));
#143=EDGE_LOOP('',(#73));
#144=FACE_BOUND('',#116,.T.);
#145=FACE_BOUND('',#117,.T.);
#146=FACE_BOUND('',#118,.T.);
#147=FACE_BOUND('',#119,.T.);
#148=FACE_BOUND('',#120,.T.);
#149=FACE_BOUND('',#121,.T.);
#150=FACE_BOUND('',#122,.T.);
#151=FACE_BOUND('',#123,.T.);
#152=FACE_BOUND('',#124,.T.);
#153=FACE_BOUND('',#125,.T.);
#154=FACE_BOUND('',#126,.T.);
#155=FACE_BOUND('',#127,.T.);
#156=FACE_BOUND('',#128,.T.);
#157=FACE_BOUND('',#129,.T.);
#158=FACE_BOUND('',#130,.T.);
#159=FACE_BOUND('',#131,.T.);
#160=FACE_BOUND('',#132,.T.);
#161=FACE_BOUND('',#133,.T.);
#162=FACE_BOUND('',#134,.T.);
#163=FACE_BOUND('',#135,.T.);
#164=FACE_BOUND('',#136,.T.);
#165=FACE_BOUND('',#137,.T.);
#166=FACE_BOUND('',#138,.T.);
#167=FACE_BOUND('',#139,.T.);
#168=FACE_BOUND('',#140,.T.);
#169=FACE_BOUND('',#141,.T.);
#170=FACE_BOUND('',#142,.T.);
#171=FACE_BOUND('',#143,.T.);
#172=PLANE('',#234);
#173=PLANE('',#236);
#174=PLANE('',#240);
#175=PLANE('',#250);
#176=PLANE('',#259);
#177=PLANE('',#261);
#178=PLANE('',#266);
#179=ADVANCED_FACE('',(#144),#172,.T.);
#180=ADVANCED_FACE('',(#145),#173,.F.);
#181=ADVANCED_FACE('',(#146,#147),#39,.T.);
#182=ADVANCED_FACE('',(#148),#174,.T.);
#183=ADVANCED_FACE('',(#149,#150),#40,.T.);
#184=ADVANCED_FACE('',(#151,#152),#41,.T.);
#185=ADVANCED_FACE('',(#153,#154),#18,.T.);
#186=ADVANCED_FACE('',(#155,#156),#42,.T.);
#187=ADVANCED_FACE('',(#157),#175,.F.);
#188=ADVANCED_FACE('',(#158,#159),#43,.T.);
#189=ADVANCED_FACE('',(#160,#161),#19,.T.);
#190=ADVANCED_FACE('',(#162,#163),#44,.T.);
#191=ADVANCED_FACE('',(#164,#165),#176,.T.);
#192=ADVANCED_FACE('',(#166),#177,.T.);
#193=ADVANCED_FACE('',(#167,#168),#20,.T.);
#194=ADVANCED_FACE('',(#169,#170),#45,.T.);
#195=ADVANCED_FACE('',(#171),#178,.F.);
#196=CLOSED_SHELL('',(#179,#180,#181));
#197=CLOSED_SHELL('',(#182,#183,#184,#185,#186,#187));
#198=CLOSED_SHELL('',(#188,#189,#190,#191,#192,#193,#194,#195));
#199=STYLED_ITEM('',(#202),#222);
#200=STYLED_ITEM('',(#203),#223);
#201=STYLED_ITEM('',(#204),#224);
#202=PRESENTATION_STYLE_ASSIGNMENT((#205));
#203=PRESENTATION_STYLE_ASSIGNMENT((#206));
#204=PRESENTATION_STYLE_ASSIGNMENT((#207));
#205=SURFACE_STYLE_USAGE(.BOTH.,#208);
#206=SURFACE_STYLE_USAGE(.BOTH.,#209);
#207=SURFACE_STYLE_USAGE(.BOTH.,#210);
#208=SURFACE_SIDE_STYLE('',(#211));
#209=SURFACE_SIDE_STYLE('',(#212));
#210=SURFACE_SIDE_STYLE('',(#213));
#211=SURFACE_STYLE_FILL_AREA(#214);
#212=SURFACE_STYLE_FILL_AREA(#215);
#213=SURFACE_STYLE_FILL_AREA(#216);
#214=FILL_AREA_STYLE('',(#217));
#215=FILL_AREA_STYLE('',(#218));
#216=FILL_AREA_STYLE('',(#219));
#217=FILL_AREA_STYLE_COLOUR('',#220);
#218=FILL_AREA_STYLE_COLOUR('',#221);
#219=FILL_AREA_STYLE_COLOUR('',#220);
#220=COLOUR_RGB('',0.500007629510948,0.500007629510948,0.500007629510948);
#221=COLOUR_RGB('',0.8,0.8,0.8);
#222=MANIFOLD_SOLID_BREP('solid',#196);
#223=MANIFOLD_SOLID_BREP('solid',#197);
#224=MANIFOLD_SOLID_BREP('solid',#198);
#225=SHAPE_DEFINITION_REPRESENTATION(#399,#229);
#226=SHAPE_DEFINITION_REPRESENTATION(#400,#230);
#227=SHAPE_DEFINITION_REPRESENTATION(#402,#231);
#228=SHAPE_DEFINITION_REPRESENTATION(#404,#232);
#229=SHAPE_REPRESENTATION('7285 10.000',(#233,#239,#251,#267),#388);
#230=SHAPE_REPRESENTATION('7285 10.000_PART1',(#233),#389);
#231=SHAPE_REPRESENTATION('7285 10.000_PART2',(#233),#390);
#232=SHAPE_REPRESENTATION('7285 10.000_PART3',(#233),#391);
#233=AXIS2_PLACEMENT_3D('',#338,#268,#269);
#234=AXIS2_PLACEMENT_3D('',#339,#270,#271);
#235=AXIS2_PLACEMENT_3D('',#340,#272,#273);
#236=AXIS2_PLACEMENT_3D('',#342,#274,#275);
#237=AXIS2_PLACEMENT_3D('',#343,#276,#277);
#238=AXIS2_PLACEMENT_3D('',#345,#278,#279);
#239=AXIS2_PLACEMENT_3D('',#346,#280,#281);
#240=AXIS2_PLACEMENT_3D('',#347,#282,#283);
#241=AXIS2_PLACEMENT_3D('',#348,#284,#285);
#242=AXIS2_PLACEMENT_3D('',#350,#286,#287);
#243=AXIS2_PLACEMENT_3D('',#351,#288,#289);
#244=AXIS2_PLACEMENT_3D('',#353,#290,#291);
#245=AXIS2_PLACEMENT_3D('',#355,#292,#293);
#246=AXIS2_PLACEMENT_3D('',#356,#294,#295);
#247=AXIS2_PLACEMENT_3D('',#358,#296,#297);
#248=AXIS2_PLACEMENT_3D('',#359,#298,#299);
#249=AXIS2_PLACEMENT_3D('',#361,#300,#301);
#250=AXIS2_PLACEMENT_3D('',#362,#302,#303);
#251=AXIS2_PLACEMENT_3D('',#363,#304,#305);
#252=AXIS2_PLACEMENT_3D('',#364,#306,#307);
#253=AXIS2_PLACEMENT_3D('',#365,#308,#309);
#254=AXIS2_PLACEMENT_3D('',#367,#310,#311);
#255=AXIS2_PLACEMENT_3D('',#369,#312,#313);
#256=AXIS2_PLACEMENT_3D('',#370,#314,#315);
#257=AXIS2_PLACEMENT_3D('',#372,#316,#317);
#258=AXIS2_PLACEMENT_3D('',#373,#318,#319);
#259=AXIS2_PLACEMENT_3D('',#375,#320,#321);
#260=AXIS2_PLACEMENT_3D('',#376,#322,#323);
#261=AXIS2_PLACEMENT_3D('',#378,#324,#325);
#262=AXIS2_PLACEMENT_3D('',#379,#326,#327);
#263=AXIS2_PLACEMENT_3D('',#381,#328,#329);
#264=AXIS2_PLACEMENT_3D('',#382,#330,#331);
#265=AXIS2_PLACEMENT_3D('',#384,#332,#333);
#266=AXIS2_PLACEMENT_3D('',#385,#334,#335);
#267=AXIS2_PLACEMENT_3D('',#386,#336,#337);
#268=DIRECTION('',(0.,0.,1.));
#269=DIRECTION('',(1.,0.,0.));
#270=DIRECTION('',(0.,0.,1.));
#271=DIRECTION('',(1.,0.,0.));
#272=DIRECTION('',(0.,0.,1.));
#273=DIRECTION('',(1.,0.,0.));
#274=DIRECTION('',(0.,0.,1.));
#275=DIRECTION('',(0.,1.,0.));
#276=DIRECTION('',(0.,1.12121533179966E-16,1.));
#277=DIRECTION('',(0.,1.,0.));
#278=DIRECTION('',(0.,0.,1.));
#279=DIRECTION('',(0.,1.,0.));
#280=DIRECTION('',(0.,0.,1.));
#281=DIRECTION('',(1.,0.,0.));
#282=DIRECTION('',(0.,0.,1.));
#283=DIRECTION('',(1.,0.,0.));
#284=DIRECTION('',(0.,0.,1.));
#285=DIRECTION('',(1.,0.,0.));
#286=DIRECTION('',(0.,0.,1.));
#287=DIRECTION('',(0.,1.,0.));
#288=DIRECTION('',(0.,0.,1.));
#289=DIRECTION('',(1.,0.,0.));
#290=DIRECTION('',(0.,1.12121533179966E-16,1.));
#291=DIRECTION('',(0.,1.,0.));
#292=DIRECTION('',(0.,0.,1.));
#293=DIRECTION('',(0.,1.,0.));
#294=DIRECTION('',(0.,1.12121533179966E-16,1.));
#295=DIRECTION('',(0.,1.,0.));
#296=DIRECTION('',(0.,0.,1.));
#297=DIRECTION('',(0.,1.,0.));
#298=DIRECTION('',(0.,1.12121533179966E-16,1.));
#299=DIRECTION('',(0.,1.,0.));
#300=DIRECTION('',(0.,0.,-1.));
#301=DIRECTION('',(0.,-1.,0.));
#302=DIRECTION('',(0.,0.,1.));
#303=DIRECTION('',(1.,0.,0.));
#304=DIRECTION('',(0.,0.,1.));
#305=DIRECTION('',(1.,0.,0.));
#306=DIRECTION('',(0.,0.,1.));
#307=DIRECTION('',(0.,1.,0.));
#308=DIRECTION('',(0.,1.12121533179966E-16,1.));
#309=DIRECTION('',(0.,1.,0.));
#310=DIRECTION('',(0.,1.12121533179966E-16,1.));
#311=DIRECTION('',(0.,1.,0.));
#312=DIRECTION('',(0.,0.,1.));
#313=DIRECTION('',(0.,1.,0.));
#314=DIRECTION('',(0.,1.12121533179966E-16,1.));
#315=DIRECTION('',(0.,1.,0.));
#316=DIRECTION('',(0.,0.,-1.));
#317=DIRECTION('',(0.,-1.,0.));
#318=DIRECTION('',(0.,0.,1.));
#319=DIRECTION('',(1.,0.,0.));
#320=DIRECTION('',(0.,0.,-1.));
#321=DIRECTION('',(-1.,0.,0.));
#322=DIRECTION('',(0.,0.,1.));
#323=DIRECTION('',(1.,0.,0.));
#324=DIRECTION('',(0.,0.,1.));
#325=DIRECTION('',(1.,0.,0.));
#326=DIRECTION('',(0.,0.,1.));
#327=DIRECTION('',(1.,0.,0.));
#328=DIRECTION('',(0.,0.,-1.));
#329=DIRECTION('',(-1.,0.,0.));
#330=DIRECTION('',(0.,0.,-1.));
#331=DIRECTION('',(1.,0.,0.));
#332=DIRECTION('',(0.,0.,-1.));
#333=DIRECTION('',(-1.,0.,6.49442495359477E-17));
#334=DIRECTION('',(0.,0.,1.));
#335=DIRECTION('',(1.,0.,0.));
#336=DIRECTION('',(0.,0.,1.));
#337=DIRECTION('',(1.,0.,0.));
#338=CARTESIAN_POINT('',(0.,0.,0.));
#339=CARTESIAN_POINT('',(0.,0.,-100.990123));
#340=CARTESIAN_POINT('',(8.74542544146678E-16,-1.13242748511766E-14,-100.990123));
#341=CARTESIAN_POINT('',(4.49753071515576,-1.13242748511766E-14,-100.990123));
#342=CARTESIAN_POINT('',(0.,-1.12132525487141E-14,-101.000123));
#343=CARTESIAN_POINT('',(0.,-1.13242748511766E-14,-101.000123));
#344=CARTESIAN_POINT('',(0.,4.48021020708004,-101.000123));
#345=CARTESIAN_POINT('',(0.,-1.13242748511766E-14,-101.000123));
#346=CARTESIAN_POINT('',(0.,0.,0.));
#347=CARTESIAN_POINT('',(0.,0.,-81.950123));
#348=CARTESIAN_POINT('',(5.49395512581836E-16,-9.19396572075724E-15,-81.950123));
#349=CARTESIAN_POINT('',(4.94999999999999,-9.19396572075724E-15,-81.950123));
#350=CARTESIAN_POINT('',(0.,-1.13242748511766E-14,-101.000123));
#351=CARTESIAN_POINT('',(8.74542544146678E-16,-1.13242748511766E-14,-100.990123));
#352=CARTESIAN_POINT('',(4.49753071515576,-1.13242748511766E-14,-100.990123));
#353=CARTESIAN_POINT('',(0.,-1.12906383912226E-14,-100.700123));
#354=CARTESIAN_POINT('',(0.,4.9998254493507,-100.700123));
#355=CARTESIAN_POINT('',(0.,-1.12906383912226E-14,-100.700123));
#356=CARTESIAN_POINT('',(0.,-1.12895171758908E-14,-100.690123));
#357=CARTESIAN_POINT('',(0.,4.99999999999998,-100.690123));
#358=CARTESIAN_POINT('',(0.,0.,-0.00012300000000279));
#359=CARTESIAN_POINT('',(0.,-9.19396572075724E-15,-82.000123));
#360=CARTESIAN_POINT('',(0.,4.99999999999997,-82.000123));
#361=CARTESIAN_POINT('',(0.,-9.19396572075724E-15,-82.000123));
#362=CARTESIAN_POINT('',(0.,0.,-100.990123));
#363=CARTESIAN_POINT('',(0.,0.,0.));
#364=CARTESIAN_POINT('',(0.,-4.59642225271272E-15,-40.995123));
#365=CARTESIAN_POINT('',(0.,-4.48486132719865E-15,-40.000123));
#366=CARTESIAN_POINT('',(0.,4.995,-40.000123));
#367=CARTESIAN_POINT('',(0.,-4.59642225271272E-15,-40.995123));
#368=CARTESIAN_POINT('',(0.,3.99999999999999,-40.995123));
#369=CARTESIAN_POINT('',(0.,0.,-0.00012300000000279));
#370=CARTESIAN_POINT('',(0.,-9.08184418757727E-15,-81.000123));
#371=CARTESIAN_POINT('',(0.,3.99999999999998,-81.000123));
#372=CARTESIAN_POINT('',(0.,-9.19396572075724E-15,-82.000123));
#373=CARTESIAN_POINT('',(5.49395512581836E-16,-9.19396572075724E-15,-81.950123));
#374=CARTESIAN_POINT('',(4.94999999999999,-9.19396572075724E-15,-81.950123));
#375=CARTESIAN_POINT('',(0.,0.,-40.000123));
#376=CARTESIAN_POINT('',(0.,0.,-40.000123));
#377=CARTESIAN_POINT('',(5.,0.,-40.000123));
#378=CARTESIAN_POINT('',(0.,0.,-0.000123));
#379=CARTESIAN_POINT('',(0.,0.,-0.000123));
#380=CARTESIAN_POINT('',(3.75,0.,-0.000123));
#381=CARTESIAN_POINT('',(0.,0.,-0.000123));
#382=CARTESIAN_POINT('',(0.,0.,-1.250123));
#383=CARTESIAN_POINT('',(5.,0.,-1.250123));
#384=CARTESIAN_POINT('',(0.,0.,-1.250123));
#385=CARTESIAN_POINT('',(0.,0.,-81.950123));
#386=CARTESIAN_POINT('',(0.,0.,0.));
#387=MECHANICAL_DESIGN_GEOMETRIC_PRESENTATION_REPRESENTATION('',(#199,#200,
#201),#388);
#388=(
GEOMETRIC_REPRESENTATION_CONTEXT(3)
GLOBAL_UNCERTAINTY_ASSIGNED_CONTEXT((#392))
GLOBAL_UNIT_ASSIGNED_CONTEXT((#398,#397,#396))
REPRESENTATION_CONTEXT('7285 10.000','TOP_LEVEL_ASSEMBLY_PART')
);
#389=(
GEOMETRIC_REPRESENTATION_CONTEXT(3)
GLOBAL_UNCERTAINTY_ASSIGNED_CONTEXT((#393))
GLOBAL_UNIT_ASSIGNED_CONTEXT((#398,#397,#396))
REPRESENTATION_CONTEXT('7285 10.000_PART1','COMPONENT_PART')
);
#390=(
GEOMETRIC_REPRESENTATION_CONTEXT(3)
GLOBAL_UNCERTAINTY_ASSIGNED_CONTEXT((#394))
GLOBAL_UNIT_ASSIGNED_CONTEXT((#398,#397,#396))
REPRESENTATION_CONTEXT('7285 10.000_PART2','COMPONENT_PART')
);
#391=(
GEOMETRIC_REPRESENTATION_CONTEXT(3)
GLOBAL_UNCERTAINTY_ASSIGNED_CONTEXT((#395))
GLOBAL_UNIT_ASSIGNED_CONTEXT((#398,#397,#396))
REPRESENTATION_CONTEXT('7285 10.000_PART3','COMPONENT_PART')
);
#392=UNCERTAINTY_MEASURE_WITH_UNIT(LENGTH_MEASURE(1.E-5),#398,
'DISTANCE_ACCURACY_VALUE','Maximum Tolerance applied to model');
#393=UNCERTAINTY_MEASURE_WITH_UNIT(LENGTH_MEASURE(1.E-5),#398,
'DISTANCE_ACCURACY_VALUE','Maximum Tolerance applied to model');
#394=UNCERTAINTY_MEASURE_WITH_UNIT(LENGTH_MEASURE(1.E-5),#398,
'DISTANCE_ACCURACY_VALUE','Maximum Tolerance applied to model');
#395=UNCERTAINTY_MEASURE_WITH_UNIT(LENGTH_MEASURE(1.E-5),#398,
'DISTANCE_ACCURACY_VALUE','Maximum Tolerance applied to model');
#396=(
NAMED_UNIT(*)
SI_UNIT($,.STERADIAN.)
SOLID_ANGLE_UNIT()
);
#397=(
NAMED_UNIT(*)
PLANE_ANGLE_UNIT()
SI_UNIT($,.RADIAN.)
);
#398=(
LENGTH_UNIT()
NAMED_UNIT(*)
SI_UNIT(.MILLI.,.METRE.)
);
#399=PRODUCT_DEFINITION_SHAPE('','',#406);
#400=PRODUCT_DEFINITION_SHAPE('','',#407);
#401=PRODUCT_DEFINITION_SHAPE(' ','NAUO PRDDFN',#24);
#402=PRODUCT_DEFINITION_SHAPE('','',#408);
#403=PRODUCT_DEFINITION_SHAPE(' ','NAUO PRDDFN',#25);
#404=PRODUCT_DEFINITION_SHAPE('','',#409);
#405=PRODUCT_DEFINITION_SHAPE(' ','NAUO PRDDFN',#26);
#406=PRODUCT_DEFINITION('','',#414,#410);
#407=PRODUCT_DEFINITION('','',#415,#411);
#408=PRODUCT_DEFINITION('','',#416,#412);
#409=PRODUCT_DEFINITION('','',#417,#413);
#410=PRODUCT_DEFINITION_CONTEXT('',#435,'design');
#411=PRODUCT_DEFINITION_CONTEXT('',#435,'design');
#412=PRODUCT_DEFINITION_CONTEXT('',#435,'design');
#413=PRODUCT_DEFINITION_CONTEXT('',#435,'design');
#414=PRODUCT_DEFINITION_FORMATION_WITH_SPECIFIED_SOURCE('','',#422,
 .NOT_KNOWN.);
#415=PRODUCT_DEFINITION_FORMATION_WITH_SPECIFIED_SOURCE('','',#423,
 .NOT_KNOWN.);
#416=PRODUCT_DEFINITION_FORMATION_WITH_SPECIFIED_SOURCE('','',#424,
 .NOT_KNOWN.);
#417=PRODUCT_DEFINITION_FORMATION_WITH_SPECIFIED_SOURCE('','',#425,
 .NOT_KNOWN.);
#418=PRODUCT_RELATED_PRODUCT_CATEGORY('','',(#422));
#419=PRODUCT_RELATED_PRODUCT_CATEGORY('','',(#423));
#420=PRODUCT_RELATED_PRODUCT_CATEGORY('','',(#424));
#421=PRODUCT_RELATED_PRODUCT_CATEGORY('','',(#425));
#422=PRODUCT('7285 10.000','7285 10.000','7285 10.000',(#430));
#423=PRODUCT('7285 10.000_PART1','7285 10.000_PART1',
'7285 10.000_PART1',(#431));
#424=PRODUCT('7285 10.000_PART2','7285 10.000_PART2',
'7285 10.000_PART2',(#432));
#425=PRODUCT('7285 10.000_PART3','7285 10.000_PART3',
'7285 10.000_PART3',(#433));
#426=PRODUCT_CATEGORY('','');
#427=PRODUCT_CATEGORY('','');
#428=PRODUCT_CATEGORY('','');
#429=PRODUCT_CATEGORY('','');
#430=PRODUCT_CONTEXT('',#435,'mechanical');
#431=PRODUCT_CONTEXT('',#435,'mechanical');
#432=PRODUCT_CONTEXT('',#435,'mechanical');
#433=PRODUCT_CONTEXT('',#435,'mechanical');
#434=APPLICATION_PROTOCOL_DEFINITION('international standard',
'automotive_design',2010,#435);
#435=APPLICATION_CONTEXT(
'core data for automotive mechanical design processes');
ENDSEC;
END-ISO-10303-21;
