ISO-10303-21;
HEADER;
/* Generated by software containing ST-Developer
 * from STEP Tools, Inc. (www.steptools.com) 
 */
/* OPTION: using custom renumber hook */

FILE_DESCRIPTION(
/* description */ ('STEP AP214'),
/* implementation_level */ '2;1');

FILE_NAME(
/* name */ '737 10.500',
/* time_stamp */ '2026-05-15T11:10:05+02:00',
/* author */ ('License CC BY-ND 4.0'),
/* organization */ ('CADENAS'),
/* preprocessor_version */ 'ST-DEVELOPER v20',
/* originating_system */ 'PARTsolutions',
/* authorisation */ '  ');

FILE_SCHEMA (('AUTOMOTIVE_DESIGN {1 0 10303 214 3 1 1}'));
ENDSEC;

DATA;
#10=PROPERTY_DEFINITION_REPRESENTATION(#14,#12);
#11=PROPERTY_DEFINITION_REPRESENTATION(#15,#13);
#12=REPRESENTATION('',(#16),#408);
#13=REPRESENTATION('',(#17),#408);
#14=PROPERTY_DEFINITION('pmi validation property','',#419);
#15=PROPERTY_DEFINITION('pmi validation property','',#419);
#16=VALUE_REPRESENTATION_ITEM('number of annotations',COUNT_MEASURE(0.));
#17=VALUE_REPRESENTATION_ITEM('number of views',COUNT_MEASURE(0.));
#18=TOROIDAL_SURFACE('',#277,3.996,0.000999999999997669);
#19=CYLINDRICAL_SURFACE('',#251,4.95);
#20=CYLINDRICAL_SURFACE('',#256,5.24900000000001);
#21=CYLINDRICAL_SURFACE('',#262,5.24900000000001);
#22=CYLINDRICAL_SURFACE('',#271,4.);
#23=CYLINDRICAL_SURFACE('',#275,3.995);
#24=CONTEXT_DEPENDENT_SHAPE_REPRESENTATION(#30,#421);
#25=CONTEXT_DEPENDENT_SHAPE_REPRESENTATION(#31,#423);
#26=CONTEXT_DEPENDENT_SHAPE_REPRESENTATION(#32,#425);
#27=NEXT_ASSEMBLY_USAGE_OCCURRENCE('NAUO1','737 10.500_PART1',
'737 10.500_PART1',#426,#427,'');
#28=NEXT_ASSEMBLY_USAGE_OCCURRENCE('NAUO2','737 10.500_PART2',
'737 10.500_PART2',#426,#428,'');
#29=NEXT_ASSEMBLY_USAGE_OCCURRENCE('NAUO3','737 10.500_PART3',
'737 10.500_PART3',#426,#429,'');
#30=(
REPRESENTATION_RELATIONSHIP(' ',' ',#241,#240)
REPRESENTATION_RELATIONSHIP_WITH_TRANSFORMATION(#33)
SHAPE_REPRESENTATION_RELATIONSHIP()
);
#31=(
REPRESENTATION_RELATIONSHIP(' ',' ',#242,#240)
REPRESENTATION_RELATIONSHIP_WITH_TRANSFORMATION(#34)
SHAPE_REPRESENTATION_RELATIONSHIP()
);
#32=(
REPRESENTATION_RELATIONSHIP(' ',' ',#243,#240)
REPRESENTATION_RELATIONSHIP_WITH_TRANSFORMATION(#35)
SHAPE_REPRESENTATION_RELATIONSHIP()
);
#33=ITEM_DEFINED_TRANSFORMATION(' ',' ',#244,#250);
#34=ITEM_DEFINED_TRANSFORMATION(' ',' ',#244,#266);
#35=ITEM_DEFINED_TRANSFORMATION(' ',' ',#244,#280);
#36=SHAPE_REPRESENTATION_RELATIONSHIP('','',#241,#39);
#37=SHAPE_REPRESENTATION_RELATIONSHIP('','',#242,#40);
#38=SHAPE_REPRESENTATION_RELATIONSHIP('','',#243,#41);
#39=ADVANCED_BREP_SHAPE_REPRESENTATION('',(#233),#409);
#40=ADVANCED_BREP_SHAPE_REPRESENTATION('',(#234),#410);
#41=ADVANCED_BREP_SHAPE_REPRESENTATION('',(#235),#411);
#42=CONICAL_SURFACE('',#249,4.4721825406948,0.785398163397447);
#43=CONICAL_SURFACE('',#254,5.24900000000001,0.523598775598301);
#44=CONICAL_SURFACE('',#259,4.4721825406948,0.785398163397447);
#45=CONICAL_SURFACE('',#269,4.,0.785398163397448);
#46=CONICAL_SURFACE('',#273,3.99999999999999,0.523598775598276);
#47=ORIENTED_EDGE('',*,*,#77,.F.);
#48=ORIENTED_EDGE('',*,*,#78,.T.);
#49=ORIENTED_EDGE('',*,*,#78,.F.);
#50=ORIENTED_EDGE('',*,*,#77,.T.);
#51=ORIENTED_EDGE('',*,*,#79,.F.);
#52=ORIENTED_EDGE('',*,*,#80,.T.);
#53=ORIENTED_EDGE('',*,*,#80,.F.);
#54=ORIENTED_EDGE('',*,*,#81,.T.);
#55=ORIENTED_EDGE('',*,*,#81,.F.);
#56=ORIENTED_EDGE('',*,*,#82,.T.);
#57=ORIENTED_EDGE('',*,*,#82,.F.);
#58=ORIENTED_EDGE('',*,*,#83,.F.);
#59=ORIENTED_EDGE('',*,*,#84,.F.);
#60=ORIENTED_EDGE('',*,*,#85,.F.);
#61=ORIENTED_EDGE('',*,*,#84,.T.);
#62=ORIENTED_EDGE('',*,*,#79,.T.);
#63=ORIENTED_EDGE('',*,*,#85,.T.);
#64=ORIENTED_EDGE('',*,*,#83,.T.);
#65=ORIENTED_EDGE('',*,*,#86,.T.);
#66=ORIENTED_EDGE('',*,*,#86,.F.);
#67=ORIENTED_EDGE('',*,*,#87,.F.);
#68=ORIENTED_EDGE('',*,*,#87,.T.);
#69=ORIENTED_EDGE('',*,*,#88,.T.);
#70=ORIENTED_EDGE('',*,*,#89,.F.);
#71=ORIENTED_EDGE('',*,*,#88,.F.);
#72=ORIENTED_EDGE('',*,*,#90,.F.);
#73=ORIENTED_EDGE('',*,*,#89,.T.);
#74=ORIENTED_EDGE('',*,*,#90,.T.);
#75=ORIENTED_EDGE('',*,*,#91,.F.);
#76=ORIENTED_EDGE('',*,*,#91,.T.);
#77=EDGE_CURVE('',#92,#92,#107,.T.);
#78=EDGE_CURVE('',#93,#93,#108,.T.);
#79=EDGE_CURVE('',#94,#94,#109,.T.);
#80=EDGE_CURVE('',#95,#95,#110,.T.);
#81=EDGE_CURVE('',#96,#96,#111,.T.);
#82=EDGE_CURVE('',#97,#97,#112,.T.);
#83=EDGE_CURVE('',#98,#98,#113,.T.);
#84=EDGE_CURVE('',#99,#99,#114,.T.);
#85=EDGE_CURVE('',#100,#100,#115,.T.);
#86=EDGE_CURVE('',#101,#101,#116,.T.);
#87=EDGE_CURVE('',#102,#102,#117,.T.);
#88=EDGE_CURVE('',#103,#103,#118,.T.);
#89=EDGE_CURVE('',#104,#104,#119,.T.);
#90=EDGE_CURVE('',#105,#105,#120,.T.);
#91=EDGE_CURVE('',#106,#106,#121,.T.);
#92=VERTEX_POINT('',#358);
#93=VERTEX_POINT('',#361);
#94=VERTEX_POINT('',#366);
#95=VERTEX_POINT('',#368);
#96=VERTEX_POINT('',#371);
#97=VERTEX_POINT('',#374);
#98=VERTEX_POINT('',#378);
#99=VERTEX_POINT('',#380);
#100=VERTEX_POINT('',#383);
#101=VERTEX_POINT('',#389);
#102=VERTEX_POINT('',#392);
#103=VERTEX_POINT('',#395);
#104=VERTEX_POINT('',#398);
#105=VERTEX_POINT('',#401);
#106=VERTEX_POINT('',#404);
#107=CIRCLE('',#246,4.48218254069481);
#108=CIRCLE('',#248,4.4721825406948);
#109=CIRCLE('',#252,4.95);
#110=CIRCLE('',#253,4.95);
#111=CIRCLE('',#255,5.24900000000001);
#112=CIRCLE('',#257,5.24900000000001);
#113=CIRCLE('',#260,4.48218254069481);
#114=CIRCLE('',#261,5.24900000000001);
#115=CIRCLE('',#263,5.24900000000001);
#116=CIRCLE('',#268,3.6);
#117=CIRCLE('',#270,4.);
#118=CIRCLE('',#272,4.);
#119=CIRCLE('',#274,3.995);
#120=CIRCLE('',#276,3.995);
#121=CIRCLE('',#278,3.996);
#122=EDGE_LOOP('',(#47));
#123=EDGE_LOOP('',(#48));
#124=EDGE_LOOP('',(#49));
#125=EDGE_LOOP('',(#50));
#126=EDGE_LOOP('',(#51));
#127=EDGE_LOOP('',(#52));
#128=EDGE_LOOP('',(#53));
#129=EDGE_LOOP('',(#54));
#130=EDGE_LOOP('',(#55));
#131=EDGE_LOOP('',(#56));
#132=EDGE_LOOP('',(#57));
#133=EDGE_LOOP('',(#58));
#134=EDGE_LOOP('',(#59));
#135=EDGE_LOOP('',(#60));
#136=EDGE_LOOP('',(#61));
#137=EDGE_LOOP('',(#62));
#138=EDGE_LOOP('',(#63));
#139=EDGE_LOOP('',(#64));
#140=EDGE_LOOP('',(#65));
#141=EDGE_LOOP('',(#66));
#142=EDGE_LOOP('',(#67));
#143=EDGE_LOOP('',(#68));
#144=EDGE_LOOP('',(#69));
#145=EDGE_LOOP('',(#70));
#146=EDGE_LOOP('',(#71));
#147=EDGE_LOOP('',(#72));
#148=EDGE_LOOP('',(#73));
#149=EDGE_LOOP('',(#74));
#150=EDGE_LOOP('',(#75));
#151=EDGE_LOOP('',(#76));
#152=FACE_BOUND('',#122,.T.);
#153=FACE_BOUND('',#123,.T.);
#154=FACE_BOUND('',#124,.T.);
#155=FACE_BOUND('',#125,.T.);
#156=FACE_BOUND('',#126,.T.);
#157=FACE_BOUND('',#127,.T.);
#158=FACE_BOUND('',#128,.T.);
#159=FACE_BOUND('',#129,.T.);
#160=FACE_BOUND('',#130,.T.);
#161=FACE_BOUND('',#131,.T.);
#162=FACE_BOUND('',#132,.T.);
#163=FACE_BOUND('',#133,.T.);
#164=FACE_BOUND('',#134,.T.);
#165=FACE_BOUND('',#135,.T.);
#166=FACE_BOUND('',#136,.T.);
#167=FACE_BOUND('',#137,.T.);
#168=FACE_BOUND('',#138,.T.);
#169=FACE_BOUND('',#139,.T.);
#170=FACE_BOUND('',#140,.T.);
#171=FACE_BOUND('',#141,.T.);
#172=FACE_BOUND('',#142,.T.);
#173=FACE_BOUND('',#143,.T.);
#174=FACE_BOUND('',#144,.T.);
#175=FACE_BOUND('',#145,.T.);
#176=FACE_BOUND('',#146,.T.);
#177=FACE_BOUND('',#147,.T.);
#178=FACE_BOUND('',#148,.T.);
#179=FACE_BOUND('',#149,.T.);
#180=FACE_BOUND('',#150,.T.);
#181=FACE_BOUND('',#151,.T.);
#182=PLANE('',#245);
#183=PLANE('',#247);
#184=PLANE('',#258);
#185=PLANE('',#264);
#186=PLANE('',#265);
#187=PLANE('',#267);
#188=PLANE('',#279);
#189=ADVANCED_FACE('',(#152),#182,.T.);
#190=ADVANCED_FACE('',(#153),#183,.T.);
#191=ADVANCED_FACE('',(#154,#155),#42,.T.);
#192=ADVANCED_FACE('',(#156,#157),#19,.T.);
#193=ADVANCED_FACE('',(#158,#159),#43,.T.);
#194=ADVANCED_FACE('',(#160,#161),#20,.T.);
#195=ADVANCED_FACE('',(#162),#184,.F.);
#196=ADVANCED_FACE('',(#163,#164),#44,.T.);
#197=ADVANCED_FACE('',(#165,#166),#21,.T.);
#198=ADVANCED_FACE('',(#167,#168),#185,.T.);
#199=ADVANCED_FACE('',(#169),#186,.F.);
#200=ADVANCED_FACE('',(#170),#187,.T.);
#201=ADVANCED_FACE('',(#171,#172),#45,.T.);
#202=ADVANCED_FACE('',(#173,#174),#22,.T.);
#203=ADVANCED_FACE('',(#175,#176),#46,.T.);
#204=ADVANCED_FACE('',(#177,#178),#23,.T.);
#205=ADVANCED_FACE('',(#179,#180),#18,.F.);
#206=ADVANCED_FACE('',(#181),#188,.F.);
#207=CLOSED_SHELL('',(#189,#190,#191));
#208=CLOSED_SHELL('',(#192,#193,#194,#195,#196,#197,#198,#199));
#209=CLOSED_SHELL('',(#200,#201,#202,#203,#204,#205,#206));
#210=STYLED_ITEM('',(#213),#233);
#211=STYLED_ITEM('',(#214),#234);
#212=STYLED_ITEM('',(#215),#235);
#213=PRESENTATION_STYLE_ASSIGNMENT((#216));
#214=PRESENTATION_STYLE_ASSIGNMENT((#217));
#215=PRESENTATION_STYLE_ASSIGNMENT((#218));
#216=SURFACE_STYLE_USAGE(.BOTH.,#219);
#217=SURFACE_STYLE_USAGE(.BOTH.,#220);
#218=SURFACE_STYLE_USAGE(.BOTH.,#221);
#219=SURFACE_SIDE_STYLE('',(#222));
#220=SURFACE_SIDE_STYLE('',(#223));
#221=SURFACE_SIDE_STYLE('',(#224));
#222=SURFACE_STYLE_FILL_AREA(#225);
#223=SURFACE_STYLE_FILL_AREA(#226);
#224=SURFACE_STYLE_FILL_AREA(#227);
#225=FILL_AREA_STYLE('',(#228));
#226=FILL_AREA_STYLE('',(#229));
#227=FILL_AREA_STYLE('',(#230));
#228=FILL_AREA_STYLE_COLOUR('',#231);
#229=FILL_AREA_STYLE_COLOUR('',#232);
#230=FILL_AREA_STYLE_COLOUR('',#231);
#231=COLOUR_RGB('',0.500007629510948,0.500007629510948,0.500007629510948);
#232=COLOUR_RGB('',0.8,0.8,0.8);
#233=MANIFOLD_SOLID_BREP('solid',#207);
#234=MANIFOLD_SOLID_BREP('solid',#208);
#235=MANIFOLD_SOLID_BREP('solid',#209);
#236=SHAPE_DEFINITION_REPRESENTATION(#419,#240);
#237=SHAPE_DEFINITION_REPRESENTATION(#420,#241);
#238=SHAPE_DEFINITION_REPRESENTATION(#422,#242);
#239=SHAPE_DEFINITION_REPRESENTATION(#424,#243);
#240=SHAPE_REPRESENTATION('737 10.500',(#244,#250,#266,#280),#408);
#241=SHAPE_REPRESENTATION('737 10.500_PART1',(#244),#409);
#242=SHAPE_REPRESENTATION('737 10.500_PART2',(#244),#410);
#243=SHAPE_REPRESENTATION('737 10.500_PART3',(#244),#411);
#244=AXIS2_PLACEMENT_3D('',#355,#281,#282);
#245=AXIS2_PLACEMENT_3D('',#356,#283,#284);
#246=AXIS2_PLACEMENT_3D('',#357,#285,#286);
#247=AXIS2_PLACEMENT_3D('',#359,#287,#288);
#248=AXIS2_PLACEMENT_3D('',#360,#289,#290);
#249=AXIS2_PLACEMENT_3D('',#362,#291,#292);
#250=AXIS2_PLACEMENT_3D('',#363,#293,#294);
#251=AXIS2_PLACEMENT_3D('',#364,#295,#296);
#252=AXIS2_PLACEMENT_3D('',#365,#297,#298);
#253=AXIS2_PLACEMENT_3D('',#367,#299,#300);
#254=AXIS2_PLACEMENT_3D('',#369,#301,#302);
#255=AXIS2_PLACEMENT_3D('',#370,#303,#304);
#256=AXIS2_PLACEMENT_3D('',#372,#305,#306);
#257=AXIS2_PLACEMENT_3D('',#373,#307,#308);
#258=AXIS2_PLACEMENT_3D('',#375,#309,#310);
#259=AXIS2_PLACEMENT_3D('',#376,#311,#312);
#260=AXIS2_PLACEMENT_3D('',#377,#313,#314);
#261=AXIS2_PLACEMENT_3D('',#379,#315,#316);
#262=AXIS2_PLACEMENT_3D('',#381,#317,#318);
#263=AXIS2_PLACEMENT_3D('',#382,#319,#320);
#264=AXIS2_PLACEMENT_3D('',#384,#321,#322);
#265=AXIS2_PLACEMENT_3D('',#385,#323,#324);
#266=AXIS2_PLACEMENT_3D('',#386,#325,#326);
#267=AXIS2_PLACEMENT_3D('',#387,#327,#328);
#268=AXIS2_PLACEMENT_3D('',#388,#329,#330);
#269=AXIS2_PLACEMENT_3D('',#390,#331,#332);
#270=AXIS2_PLACEMENT_3D('',#391,#333,#334);
#271=AXIS2_PLACEMENT_3D('',#393,#335,#336);
#272=AXIS2_PLACEMENT_3D('',#394,#337,#338);
#273=AXIS2_PLACEMENT_3D('',#396,#339,#340);
#274=AXIS2_PLACEMENT_3D('',#397,#341,#342);
#275=AXIS2_PLACEMENT_3D('',#399,#343,#344);
#276=AXIS2_PLACEMENT_3D('',#400,#345,#346);
#277=AXIS2_PLACEMENT_3D('',#402,#347,#348);
#278=AXIS2_PLACEMENT_3D('',#403,#349,#350);
#279=AXIS2_PLACEMENT_3D('',#405,#351,#352);
#280=AXIS2_PLACEMENT_3D('',#406,#353,#354);
#281=DIRECTION('',(0.,0.,1.));
#282=DIRECTION('',(1.,0.,0.));
#283=DIRECTION('',(0.,0.,1.));
#284=DIRECTION('',(1.,0.,0.));
#285=DIRECTION('',(0.,0.,-1.));
#286=DIRECTION('',(1.,0.,0.));
#287=DIRECTION('',(0.,0.,-1.));
#288=DIRECTION('',(-1.,0.,0.));
#289=DIRECTION('',(0.,0.,-1.));
#290=DIRECTION('',(-1.,0.,0.));
#291=DIRECTION('',(0.,0.,1.));
#292=DIRECTION('',(1.,0.,5.52640005329457E-17));
#293=DIRECTION('',(0.,0.,1.));
#294=DIRECTION('',(1.,0.,0.));
#295=DIRECTION('',(0.,0.,-1.));
#296=DIRECTION('',(-1.,0.,0.));
#297=DIRECTION('',(0.,0.,-1.));
#298=DIRECTION('',(1.,0.,0.));
#299=DIRECTION('',(0.,0.,-1.));
#300=DIRECTION('',(-1.,0.,0.));
#301=DIRECTION('',(0.,0.,1.));
#302=DIRECTION('',(1.,0.,-1.19102344799693E-17));
#303=DIRECTION('',(0.,0.,-1.));
#304=DIRECTION('',(-1.,0.,0.));
#305=DIRECTION('',(0.,0.,-1.));
#306=DIRECTION('',(-1.,0.,0.));
#307=DIRECTION('',(0.,0.,-1.));
#308=DIRECTION('',(-1.,0.,0.));
#309=DIRECTION('',(0.,0.,-1.));
#310=DIRECTION('',(-1.,0.,0.));
#311=DIRECTION('',(0.,0.,1.));
#312=DIRECTION('',(1.,0.,5.52640005329457E-17));
#313=DIRECTION('',(0.,0.,-1.));
#314=DIRECTION('',(1.,0.,0.));
#315=DIRECTION('',(0.,0.,1.));
#316=DIRECTION('',(1.,0.,0.));
#317=DIRECTION('',(0.,0.,-1.));
#318=DIRECTION('',(-1.,0.,0.));
#319=DIRECTION('',(0.,0.,1.));
#320=DIRECTION('',(1.,0.,0.));
#321=DIRECTION('',(0.,0.,1.));
#322=DIRECTION('',(1.,0.,0.));
#323=DIRECTION('',(0.,0.,1.));
#324=DIRECTION('',(1.,0.,0.));
#325=DIRECTION('',(0.,0.,1.));
#326=DIRECTION('',(1.,0.,0.));
#327=DIRECTION('',(0.,0.,1.));
#328=DIRECTION('',(1.,0.,0.));
#329=DIRECTION('',(0.,0.,1.));
#330=DIRECTION('',(1.,0.,0.));
#331=DIRECTION('',(0.,0.,-1.));
#332=DIRECTION('',(-1.,0.,4.42751883186312E-17));
#333=DIRECTION('',(0.,0.,-1.));
#334=DIRECTION('',(1.,0.,0.));
#335=DIRECTION('',(0.,0.,-1.));
#336=DIRECTION('',(-1.,0.,0.));
#337=DIRECTION('',(0.,0.,1.));
#338=DIRECTION('',(1.,0.,0.));
#339=DIRECTION('',(0.,0.,1.));
#340=DIRECTION('',(1.,0.,2.38716459651084E-17));
#341=DIRECTION('',(0.,0.,-1.));
#342=DIRECTION('',(-1.,0.,0.));
#343=DIRECTION('',(0.,0.,-1.));
#344=DIRECTION('',(-1.,0.,0.));
#345=DIRECTION('',(0.,0.,-1.));
#346=DIRECTION('',(-1.,0.,0.));
#347=DIRECTION('',(0.,0.,-1.));
#348=DIRECTION('',(-1.,0.,0.));
#349=DIRECTION('',(0.,0.,-1.));
#350=DIRECTION('',(-1.,0.,0.));
#351=DIRECTION('',(0.,0.,1.));
#352=DIRECTION('',(1.,0.,0.));
#353=DIRECTION('',(0.,0.,1.));
#354=DIRECTION('',(1.,0.,0.));
#355=CARTESIAN_POINT('',(0.,0.,0.));
#356=CARTESIAN_POINT('',(0.,0.,-70.99));
#357=CARTESIAN_POINT('',(0.,0.,-70.99));
#358=CARTESIAN_POINT('',(4.48218254069481,0.,-70.99));
#359=CARTESIAN_POINT('',(0.,0.,-71.));
#360=CARTESIAN_POINT('',(0.,0.,-71.));
#361=CARTESIAN_POINT('',(-4.4721825406948,0.,-71.));
#362=CARTESIAN_POINT('',(0.,0.,-71.));
#363=CARTESIAN_POINT('',(0.,0.,0.));
#364=CARTESIAN_POINT('',(0.,0.,-70.5));
#365=CARTESIAN_POINT('',(0.,0.,-59.));
#366=CARTESIAN_POINT('',(4.95,0.,-59.));
#367=CARTESIAN_POINT('',(0.,0.,-58.02));
#368=CARTESIAN_POINT('',(-4.95,0.,-58.02));
#369=CARTESIAN_POINT('',(0.,0.,-57.5021168085369));
#370=CARTESIAN_POINT('',(0.,0.,-57.5021168085369));
#371=CARTESIAN_POINT('',(-5.24900000000001,0.,-57.5021168085369));
#372=CARTESIAN_POINT('',(0.,0.,-70.5));
#373=CARTESIAN_POINT('',(0.,0.,-46.));
#374=CARTESIAN_POINT('',(-5.24900000000001,0.,-46.));
#375=CARTESIAN_POINT('',(0.,3.996,-46.));
#376=CARTESIAN_POINT('',(0.,0.,-71.));
#377=CARTESIAN_POINT('',(0.,0.,-70.99));
#378=CARTESIAN_POINT('',(4.48218254069481,0.,-70.99));
#379=CARTESIAN_POINT('',(0.,0.,-70.2231825406948));
#380=CARTESIAN_POINT('',(5.24900000000001,0.,-70.2231825406948));
#381=CARTESIAN_POINT('',(0.,0.,-70.5));
#382=CARTESIAN_POINT('',(0.,0.,-59.));
#383=CARTESIAN_POINT('',(5.24900000000001,0.,-59.));
#384=CARTESIAN_POINT('',(0.,5.25,-59.));
#385=CARTESIAN_POINT('',(0.,0.,-70.99));
#386=CARTESIAN_POINT('',(0.,0.,0.));
#387=CARTESIAN_POINT('',(0.,0.,0.));
#388=CARTESIAN_POINT('',(0.,0.,0.));
#389=CARTESIAN_POINT('',(3.6,0.,0.));
#390=CARTESIAN_POINT('',(0.,0.,-0.4));
#391=CARTESIAN_POINT('',(0.,0.,-0.4));
#392=CARTESIAN_POINT('',(4.,0.,-0.4));
#393=CARTESIAN_POINT('',(0.,0.,0.));
#394=CARTESIAN_POINT('',(0.,0.,-45.45));
#395=CARTESIAN_POINT('',(4.,0.,-45.45));
#396=CARTESIAN_POINT('',(0.,0.,-45.45));
#397=CARTESIAN_POINT('',(0.,0.,-45.4586602540378));
#398=CARTESIAN_POINT('',(-3.995,0.,-45.4586602540378));
#399=CARTESIAN_POINT('',(0.,0.,-70.5));
#400=CARTESIAN_POINT('',(0.,0.,-45.999));
#401=CARTESIAN_POINT('',(-3.995,0.,-45.999));
#402=CARTESIAN_POINT('',(0.,0.,-45.999));
#403=CARTESIAN_POINT('',(0.,0.,-46.));
#404=CARTESIAN_POINT('',(-3.996,0.,-46.));
#405=CARTESIAN_POINT('',(0.,0.,-46.));
#406=CARTESIAN_POINT('',(0.,0.,0.));
#407=MECHANICAL_DESIGN_GEOMETRIC_PRESENTATION_REPRESENTATION('',(#210,#211,
#212),#408);
#408=(
GEOMETRIC_REPRESENTATION_CONTEXT(3)
GLOBAL_UNCERTAINTY_ASSIGNED_CONTEXT((#412))
GLOBAL_UNIT_ASSIGNED_CONTEXT((#418,#417,#416))
REPRESENTATION_CONTEXT('737 10.500','TOP_LEVEL_ASSEMBLY_PART')
);
#409=(
GEOMETRIC_REPRESENTATION_CONTEXT(3)
GLOBAL_UNCERTAINTY_ASSIGNED_CONTEXT((#413))
GLOBAL_UNIT_ASSIGNED_CONTEXT((#418,#417,#416))
REPRESENTATION_CONTEXT('737 10.500_PART1','COMPONENT_PART')
);
#410=(
GEOMETRIC_REPRESENTATION_CONTEXT(3)
GLOBAL_UNCERTAINTY_ASSIGNED_CONTEXT((#414))
GLOBAL_UNIT_ASSIGNED_CONTEXT((#418,#417,#416))
REPRESENTATION_CONTEXT('737 10.500_PART2','COMPONENT_PART')
);
#411=(
GEOMETRIC_REPRESENTATION_CONTEXT(3)
GLOBAL_UNCERTAINTY_ASSIGNED_CONTEXT((#415))
GLOBAL_UNIT_ASSIGNED_CONTEXT((#418,#417,#416))
REPRESENTATION_CONTEXT('737 10.500_PART3','COMPONENT_PART')
);
#412=UNCERTAINTY_MEASURE_WITH_UNIT(LENGTH_MEASURE(1.E-5),#418,
'DISTANCE_ACCURACY_VALUE','Maximum Tolerance applied to model');
#413=UNCERTAINTY_MEASURE_WITH_UNIT(LENGTH_MEASURE(1.E-5),#418,
'DISTANCE_ACCURACY_VALUE','Maximum Tolerance applied to model');
#414=UNCERTAINTY_MEASURE_WITH_UNIT(LENGTH_MEASURE(1.E-5),#418,
'DISTANCE_ACCURACY_VALUE','Maximum Tolerance applied to model');
#415=UNCERTAINTY_MEASURE_WITH_UNIT(LENGTH_MEASURE(1.E-5),#418,
'DISTANCE_ACCURACY_VALUE','Maximum Tolerance applied to model');
#416=(
NAMED_UNIT(*)
SI_UNIT($,.STERADIAN.)
SOLID_ANGLE_UNIT()
);
#417=(
NAMED_UNIT(*)
PLANE_ANGLE_UNIT()
SI_UNIT($,.RADIAN.)
);
#418=(
LENGTH_UNIT()
NAMED_UNIT(*)
SI_UNIT(.MILLI.,.METRE.)
);
#419=PRODUCT_DEFINITION_SHAPE('','',#426);
#420=PRODUCT_DEFINITION_SHAPE('','',#427);
#421=PRODUCT_DEFINITION_SHAPE(' ','NAUO PRDDFN',#27);
#422=PRODUCT_DEFINITION_SHAPE('','',#428);
#423=PRODUCT_DEFINITION_SHAPE(' ','NAUO PRDDFN',#28);
#424=PRODUCT_DEFINITION_SHAPE('','',#429);
#425=PRODUCT_DEFINITION_SHAPE(' ','NAUO PRDDFN',#29);
#426=PRODUCT_DEFINITION('','',#434,#430);
#427=PRODUCT_DEFINITION('','',#435,#431);
#428=PRODUCT_DEFINITION('','',#436,#432);
#429=PRODUCT_DEFINITION('','',#437,#433);
#430=PRODUCT_DEFINITION_CONTEXT('',#455,'design');
#431=PRODUCT_DEFINITION_CONTEXT('',#455,'design');
#432=PRODUCT_DEFINITION_CONTEXT('',#455,'design');
#433=PRODUCT_DEFINITION_CONTEXT('',#455,'design');
#434=PRODUCT_DEFINITION_FORMATION_WITH_SPECIFIED_SOURCE('','',#442,
 .NOT_KNOWN.);
#435=PRODUCT_DEFINITION_FORMATION_WITH_SPECIFIED_SOURCE('','',#443,
 .NOT_KNOWN.);
#436=PRODUCT_DEFINITION_FORMATION_WITH_SPECIFIED_SOURCE('','',#444,
 .NOT_KNOWN.);
#437=PRODUCT_DEFINITION_FORMATION_WITH_SPECIFIED_SOURCE('','',#445,
 .NOT_KNOWN.);
#438=PRODUCT_RELATED_PRODUCT_CATEGORY('','',(#442));
#439=PRODUCT_RELATED_PRODUCT_CATEGORY('','',(#443));
#440=PRODUCT_RELATED_PRODUCT_CATEGORY('','',(#444));
#441=PRODUCT_RELATED_PRODUCT_CATEGORY('','',(#445));
#442=PRODUCT('737 10.500','737 10.500','737 10.500',(#450));
#443=PRODUCT('737 10.500_PART1','737 10.500_PART1','737 10.500_PART1',(#451));
#444=PRODUCT('737 10.500_PART2','737 10.500_PART2','737 10.500_PART2',(#452));
#445=PRODUCT('737 10.500_PART3','737 10.500_PART3','737 10.500_PART3',(#453));
#446=PRODUCT_CATEGORY('','');
#447=PRODUCT_CATEGORY('','');
#448=PRODUCT_CATEGORY('','');
#449=PRODUCT_CATEGORY('','');
#450=PRODUCT_CONTEXT('',#455,'mechanical');
#451=PRODUCT_CONTEXT('',#455,'mechanical');
#452=PRODUCT_CONTEXT('',#455,'mechanical');
#453=PRODUCT_CONTEXT('',#455,'mechanical');
#454=APPLICATION_PROTOCOL_DEFINITION('international standard',
'automotive_design',2010,#455);
#455=APPLICATION_CONTEXT(
'core data for automotive mechanical design processes');
ENDSEC;
END-ISO-10303-21;
