ISO-10303-21;
HEADER;
/* Generated by software containing ST-Developer
 * from STEP Tools, Inc. (www.steptools.com) 
 */
/* OPTION: using custom renumber hook */

FILE_DESCRIPTION(
/* description */ ('STEP AP214'),
/* implementation_level */ '2;1');

FILE_NAME(
/* name */ '749 13.000',
/* time_stamp */ '2026-05-15T11:10:16+02:00',
/* author */ ('License CC BY-ND 4.0'),
/* organization */ ('CADENAS'),
/* preprocessor_version */ 'ST-DEVELOPER v20',
/* originating_system */ 'PARTsolutions',
/* authorisation */ '  ');

FILE_SCHEMA (('AUTOMOTIVE_DESIGN {1 0 10303 214 3 1 1}'));
ENDSEC;

DATA;
#10=PROPERTY_DEFINITION_REPRESENTATION(#14,#12);
#11=PROPERTY_DEFINITION_REPRESENTATION(#15,#13);
#12=REPRESENTATION('',(#16),#533);
#13=REPRESENTATION('',(#17),#533);
#14=PROPERTY_DEFINITION('pmi validation property','',#542);
#15=PROPERTY_DEFINITION('pmi validation property','',#542);
#16=VALUE_REPRESENTATION_ITEM('number of annotations',COUNT_MEASURE(0.));
#17=VALUE_REPRESENTATION_ITEM('number of views',COUNT_MEASURE(0.));
#18=CONTEXT_DEPENDENT_SHAPE_REPRESENTATION(#22,#544);
#19=CONTEXT_DEPENDENT_SHAPE_REPRESENTATION(#23,#546);
#20=NEXT_ASSEMBLY_USAGE_OCCURRENCE('NAUO1','749 13.000_PART1',
'749 13.000_PART1',#547,#548,'');
#21=NEXT_ASSEMBLY_USAGE_OCCURRENCE('NAUO2','749 13.000_PART2',
'749 13.000_PART2',#547,#549,'');
#22=(
REPRESENTATION_RELATIONSHIP(' ',' ',#306,#305)
REPRESENTATION_RELATIONSHIP_WITH_TRANSFORMATION(#24)
SHAPE_REPRESENTATION_RELATIONSHIP()
);
#23=(
REPRESENTATION_RELATIONSHIP(' ',' ',#307,#305)
REPRESENTATION_RELATIONSHIP_WITH_TRANSFORMATION(#25)
SHAPE_REPRESENTATION_RELATIONSHIP()
);
#24=ITEM_DEFINED_TRANSFORMATION(' ',' ',#308,#335);
#25=ITEM_DEFINED_TRANSFORMATION(' ',' ',#308,#343);
#26=SHAPE_REPRESENTATION_RELATIONSHIP('','',#306,#28);
#27=SHAPE_REPRESENTATION_RELATIONSHIP('','',#307,#29);
#28=ADVANCED_BREP_SHAPE_REPRESENTATION('',(#300),#534);
#29=ADVANCED_BREP_SHAPE_REPRESENTATION('',(#301),#535);
#30=CONICAL_SURFACE('',#322,5.,0.7853981625);
#31=CONICAL_SURFACE('',#331,5.,0.7853981625);
#32=CONICAL_SURFACE('',#339,5.5807612,0.7853981625);
#33=CIRCLE('',#311,5.);
#34=CIRCLE('',#313,6.5);
#35=CIRCLE('',#315,5.);
#36=CIRCLE('',#318,6.5);
#37=CIRCLE('',#319,2.02);
#38=CIRCLE('',#323,5.);
#39=CIRCLE('',#324,4.6);
#40=CIRCLE('',#326,4.6);
#41=CIRCLE('',#329,5.);
#42=CIRCLE('',#330,2.02);
#43=CIRCLE('',#332,5.);
#44=CIRCLE('',#337,6.5);
#45=CIRCLE('',#338,6.5);
#46=CIRCLE('',#340,5.5807612);
#47=PLANE('',#310);
#48=PLANE('',#312);
#49=PLANE('',#314);
#50=PLANE('',#317);
#51=PLANE('',#321);
#52=PLANE('',#325);
#53=PLANE('',#327);
#54=PLANE('',#328);
#55=PLANE('',#341);
#56=PLANE('',#342);
#57=LINE('',#435,#67);
#58=LINE('',#443,#68);
#59=LINE('',#453,#69);
#60=LINE('',#461,#70);
#61=LINE('',#475,#71);
#62=LINE('',#482,#72);
#63=LINE('',#489,#73);
#64=LINE('',#500,#74);
#65=LINE('',#504,#75);
#66=LINE('',#510,#76);
#67=VECTOR('',#348,1000.);
#68=VECTOR('',#349,1000.);
#69=VECTOR('',#362,1000.);
#70=VECTOR('',#365,1000.);
#71=VECTOR('',#376,1000.);
#72=VECTOR('',#377,1000.);
#73=VECTOR('',#378,1000.);
#74=VECTOR('',#387,1000.);
#75=VECTOR('',#392,1000.);
#76=VECTOR('',#393,1000.);
#77=ORIENTED_EDGE('',*,*,#141,.T.);
#78=ORIENTED_EDGE('',*,*,#142,.T.);
#79=ORIENTED_EDGE('',*,*,#143,.T.);
#80=ORIENTED_EDGE('',*,*,#144,.F.);
#81=ORIENTED_EDGE('',*,*,#142,.F.);
#82=ORIENTED_EDGE('',*,*,#145,.F.);
#83=ORIENTED_EDGE('',*,*,#146,.T.);
#84=ORIENTED_EDGE('',*,*,#147,.T.);
#85=ORIENTED_EDGE('',*,*,#148,.T.);
#86=ORIENTED_EDGE('',*,*,#148,.F.);
#87=ORIENTED_EDGE('',*,*,#149,.F.);
#88=ORIENTED_EDGE('',*,*,#150,.T.);
#89=ORIENTED_EDGE('',*,*,#151,.F.);
#90=ORIENTED_EDGE('',*,*,#152,.F.);
#91=ORIENTED_EDGE('',*,*,#153,.T.);
#92=ORIENTED_EDGE('',*,*,#152,.T.);
#93=ORIENTED_EDGE('',*,*,#146,.F.);
#94=ORIENTED_EDGE('',*,*,#154,.T.);
#95=ORIENTED_EDGE('',*,*,#155,.T.);
#96=ORIENTED_EDGE('',*,*,#156,.T.);
#97=ORIENTED_EDGE('',*,*,#157,.T.);
#98=ORIENTED_EDGE('',*,*,#158,.T.);
#99=ORIENTED_EDGE('',*,*,#150,.F.);
#100=ORIENTED_EDGE('',*,*,#159,.F.);
#101=ORIENTED_EDGE('',*,*,#160,.T.);
#102=ORIENTED_EDGE('',*,*,#161,.F.);
#103=ORIENTED_EDGE('',*,*,#155,.F.);
#104=ORIENTED_EDGE('',*,*,#161,.T.);
#105=ORIENTED_EDGE('',*,*,#162,.T.);
#106=ORIENTED_EDGE('',*,*,#163,.T.);
#107=ORIENTED_EDGE('',*,*,#156,.F.);
#108=ORIENTED_EDGE('',*,*,#144,.T.);
#109=ORIENTED_EDGE('',*,*,#164,.F.);
#110=ORIENTED_EDGE('',*,*,#165,.F.);
#111=ORIENTED_EDGE('',*,*,#162,.F.);
#112=ORIENTED_EDGE('',*,*,#160,.F.);
#113=ORIENTED_EDGE('',*,*,#166,.F.);
#114=ORIENTED_EDGE('',*,*,#167,.F.);
#115=ORIENTED_EDGE('',*,*,#168,.F.);
#116=ORIENTED_EDGE('',*,*,#163,.F.);
#117=ORIENTED_EDGE('',*,*,#165,.T.);
#118=ORIENTED_EDGE('',*,*,#169,.F.);
#119=ORIENTED_EDGE('',*,*,#157,.F.);
#120=ORIENTED_EDGE('',*,*,#168,.T.);
#121=ORIENTED_EDGE('',*,*,#153,.F.);
#122=ORIENTED_EDGE('',*,*,#141,.F.);
#123=ORIENTED_EDGE('',*,*,#166,.T.);
#124=ORIENTED_EDGE('',*,*,#159,.T.);
#125=ORIENTED_EDGE('',*,*,#154,.F.);
#126=ORIENTED_EDGE('',*,*,#149,.T.);
#127=ORIENTED_EDGE('',*,*,#147,.F.);
#128=ORIENTED_EDGE('',*,*,#151,.T.);
#129=ORIENTED_EDGE('',*,*,#158,.F.);
#130=ORIENTED_EDGE('',*,*,#169,.T.);
#131=ORIENTED_EDGE('',*,*,#164,.T.);
#132=ORIENTED_EDGE('',*,*,#143,.F.);
#133=ORIENTED_EDGE('',*,*,#145,.T.);
#134=ORIENTED_EDGE('',*,*,#167,.T.);
#135=ORIENTED_EDGE('',*,*,#170,.T.);
#136=ORIENTED_EDGE('',*,*,#171,.F.);
#137=ORIENTED_EDGE('',*,*,#172,.F.);
#138=ORIENTED_EDGE('',*,*,#171,.T.);
#139=ORIENTED_EDGE('',*,*,#172,.T.);
#140=ORIENTED_EDGE('',*,*,#170,.F.);
#141=EDGE_CURVE('',#173,#174,#197,.T.);
#142=EDGE_CURVE('',#174,#175,#57,.T.);
#143=EDGE_CURVE('',#175,#176,#198,.T.);
#144=EDGE_CURVE('',#173,#176,#58,.T.);
#145=EDGE_CURVE('',#175,#174,#33,.T.);
#146=EDGE_CURVE('',#177,#177,#34,.T.);
#147=EDGE_CURVE('',#178,#179,#35,.T.);
#148=EDGE_CURVE('',#179,#178,#59,.T.);
#149=EDGE_CURVE('',#180,#179,#199,.T.);
#150=EDGE_CURVE('',#180,#181,#60,.T.);
#151=EDGE_CURVE('',#178,#181,#200,.T.);
#152=EDGE_CURVE('',#182,#182,#36,.T.);
#153=EDGE_CURVE('',#183,#183,#37,.T.);
#154=EDGE_CURVE('',#180,#184,#61,.T.);
#155=EDGE_CURVE('',#184,#185,#201,.T.);
#156=EDGE_CURVE('',#185,#186,#62,.T.);
#157=EDGE_CURVE('',#186,#187,#202,.T.);
#158=EDGE_CURVE('',#187,#181,#63,.T.);
#159=EDGE_CURVE('',#188,#184,#38,.T.);
#160=EDGE_CURVE('',#188,#189,#203,.T.);
#161=EDGE_CURVE('',#185,#189,#39,.T.);
#162=EDGE_CURVE('',#189,#190,#64,.T.);
#163=EDGE_CURVE('',#190,#186,#40,.T.);
#164=EDGE_CURVE('',#191,#176,#65,.T.);
#165=EDGE_CURVE('',#190,#191,#204,.T.);
#166=EDGE_CURVE('',#173,#188,#66,.T.);
#167=EDGE_CURVE('',#192,#192,#41,.T.);
#168=EDGE_CURVE('',#193,#193,#42,.T.);
#169=EDGE_CURVE('',#187,#191,#43,.T.);
#170=EDGE_CURVE('',#194,#194,#44,.T.);
#171=EDGE_CURVE('',#195,#195,#45,.T.);
#172=EDGE_CURVE('',#196,#196,#46,.T.);
#173=VERTEX_POINT('',#433);
#174=VERTEX_POINT('',#434);
#175=VERTEX_POINT('',#436);
#176=VERTEX_POINT('',#442);
#177=VERTEX_POINT('',#448);
#178=VERTEX_POINT('',#451);
#179=VERTEX_POINT('',#452);
#180=VERTEX_POINT('',#460);
#181=VERTEX_POINT('',#462);
#182=VERTEX_POINT('',#470);
#183=VERTEX_POINT('',#472);
#184=VERTEX_POINT('',#476);
#185=VERTEX_POINT('',#481);
#186=VERTEX_POINT('',#483);
#187=VERTEX_POINT('',#488);
#188=VERTEX_POINT('',#492);
#189=VERTEX_POINT('',#497);
#190=VERTEX_POINT('',#501);
#191=VERTEX_POINT('',#505);
#192=VERTEX_POINT('',#513);
#193=VERTEX_POINT('',#515);
#194=VERTEX_POINT('',#523);
#195=VERTEX_POINT('',#525);
#196=VERTEX_POINT('',#528);
#197=B_SPLINE_CURVE_WITH_KNOTS('',3,(#428,#429,#430,#431,#432),
 .UNSPECIFIED.,.F.,.F.,(4,1,4),(6.19941590147009E-15,0.000363908381733158,
0.000727816763460117),.UNSPECIFIED.);
#198=B_SPLINE_CURVE_WITH_KNOTS('',3,(#437,#438,#439,#440,#441),
 .UNSPECIFIED.,.F.,.F.,(4,1,4),(1.16882441227459E-15,0.000363307242159163,
0.000726614484317158),.UNSPECIFIED.);
#199=B_SPLINE_CURVE_WITH_KNOTS('',3,(#455,#456,#457,#458,#459),
 .UNSPECIFIED.,.F.,.F.,(4,1,4),(1.11209144705511E-14,0.000363908381735619,
0.000727816763460118),.UNSPECIFIED.);
#200=B_SPLINE_CURVE_WITH_KNOTS('',3,(#463,#464,#465,#466,#467),
 .UNSPECIFIED.,.F.,.F.,(4,1,4),(3.95921906335853E-15,0.000363307242163015,
0.00072661448432207),.UNSPECIFIED.);
#201=B_SPLINE_CURVE_WITH_KNOTS('',3,(#477,#478,#479,#480),.UNSPECIFIED.,
 .F.,.F.,(4,4),(0.,1.),.UNSPECIFIED.);
#202=B_SPLINE_CURVE_WITH_KNOTS('',3,(#484,#485,#486,#487),.UNSPECIFIED.,
 .F.,.F.,(4,4),(0.,1.),.UNSPECIFIED.);
#203=B_SPLINE_CURVE_WITH_KNOTS('',3,(#493,#494,#495,#496),.UNSPECIFIED.,
 .F.,.F.,(4,4),(0.,1.),.UNSPECIFIED.);
#204=B_SPLINE_CURVE_WITH_KNOTS('',3,(#506,#507,#508,#509),.UNSPECIFIED.,
 .F.,.F.,(4,4),(0.,1.),.UNSPECIFIED.);
#205=EDGE_LOOP('',(#77,#78,#79,#80));
#206=EDGE_LOOP('',(#81,#82));
#207=EDGE_LOOP('',(#83));
#208=EDGE_LOOP('',(#84,#85));
#209=EDGE_LOOP('',(#86,#87,#88,#89));
#210=EDGE_LOOP('',(#90));
#211=EDGE_LOOP('',(#91));
#212=EDGE_LOOP('',(#92));
#213=EDGE_LOOP('',(#93));
#214=EDGE_LOOP('',(#94,#95,#96,#97,#98,#99));
#215=EDGE_LOOP('',(#100,#101,#102,#103));
#216=EDGE_LOOP('',(#104,#105,#106,#107));
#217=EDGE_LOOP('',(#108,#109,#110,#111,#112,#113));
#218=EDGE_LOOP('',(#114));
#219=EDGE_LOOP('',(#115));
#220=EDGE_LOOP('',(#116,#117,#118,#119));
#221=EDGE_LOOP('',(#120));
#222=EDGE_LOOP('',(#121));
#223=EDGE_LOOP('',(#122,#123,#124,#125,#126,#127,#128,#129,#130,#131,#132,
#133));
#224=EDGE_LOOP('',(#134));
#225=EDGE_LOOP('',(#135));
#226=EDGE_LOOP('',(#136));
#227=EDGE_LOOP('',(#137));
#228=EDGE_LOOP('',(#138));
#229=EDGE_LOOP('',(#139));
#230=EDGE_LOOP('',(#140));
#231=FACE_BOUND('',#205,.T.);
#232=FACE_BOUND('',#206,.T.);
#233=FACE_BOUND('',#207,.T.);
#234=FACE_BOUND('',#208,.T.);
#235=FACE_BOUND('',#209,.T.);
#236=FACE_BOUND('',#210,.T.);
#237=FACE_BOUND('',#211,.T.);
#238=FACE_BOUND('',#212,.T.);
#239=FACE_BOUND('',#213,.T.);
#240=FACE_BOUND('',#214,.T.);
#241=FACE_BOUND('',#215,.T.);
#242=FACE_BOUND('',#216,.T.);
#243=FACE_BOUND('',#217,.T.);
#244=FACE_BOUND('',#218,.T.);
#245=FACE_BOUND('',#219,.T.);
#246=FACE_BOUND('',#220,.T.);
#247=FACE_BOUND('',#221,.T.);
#248=FACE_BOUND('',#222,.T.);
#249=FACE_BOUND('',#223,.T.);
#250=FACE_BOUND('',#224,.T.);
#251=FACE_BOUND('',#225,.T.);
#252=FACE_BOUND('',#226,.T.);
#253=FACE_BOUND('',#227,.T.);
#254=FACE_BOUND('',#228,.T.);
#255=FACE_BOUND('',#229,.T.);
#256=FACE_BOUND('',#230,.T.);
#257=CYLINDRICAL_SURFACE('',#309,0.401);
#258=CYLINDRICAL_SURFACE('',#316,0.401);
#259=CYLINDRICAL_SURFACE('',#320,6.5);
#260=CYLINDRICAL_SURFACE('',#333,2.02);
#261=CYLINDRICAL_SURFACE('',#334,5.);
#262=CYLINDRICAL_SURFACE('',#336,6.5);
#263=ADVANCED_FACE('',(#231),#257,.F.);
#264=ADVANCED_FACE('',(#232),#47,.T.);
#265=ADVANCED_FACE('',(#233),#48,.F.);
#266=ADVANCED_FACE('',(#234),#49,.T.);
#267=ADVANCED_FACE('',(#235),#258,.F.);
#268=ADVANCED_FACE('',(#236,#237),#50,.T.);
#269=ADVANCED_FACE('',(#238,#239),#259,.T.);
#270=ADVANCED_FACE('',(#240),#51,.F.);
#271=ADVANCED_FACE('',(#241),#30,.T.);
#272=ADVANCED_FACE('',(#242),#52,.T.);
#273=ADVANCED_FACE('',(#243),#53,.T.);
#274=ADVANCED_FACE('',(#244,#245),#54,.T.);
#275=ADVANCED_FACE('',(#246),#31,.T.);
#276=ADVANCED_FACE('',(#247,#248),#260,.T.);
#277=ADVANCED_FACE('',(#249,#250),#261,.T.);
#278=ADVANCED_FACE('',(#251,#252),#262,.T.);
#279=ADVANCED_FACE('',(#253,#254),#32,.T.);
#280=ADVANCED_FACE('',(#255),#55,.T.);
#281=ADVANCED_FACE('',(#256),#56,.T.);
#282=CLOSED_SHELL('',(#263,#264,#265,#266,#267,#268,#269,#270,#271,#272,
#273,#274,#275,#276,#277));
#283=CLOSED_SHELL('',(#278,#279,#280,#281));
#284=STYLED_ITEM('',(#286),#300);
#285=STYLED_ITEM('',(#287),#301);
#286=PRESENTATION_STYLE_ASSIGNMENT((#288));
#287=PRESENTATION_STYLE_ASSIGNMENT((#289));
#288=SURFACE_STYLE_USAGE(.BOTH.,#290);
#289=SURFACE_STYLE_USAGE(.BOTH.,#291);
#290=SURFACE_SIDE_STYLE('',(#292));
#291=SURFACE_SIDE_STYLE('',(#293));
#292=SURFACE_STYLE_FILL_AREA(#294);
#293=SURFACE_STYLE_FILL_AREA(#295);
#294=FILL_AREA_STYLE('',(#296));
#295=FILL_AREA_STYLE('',(#297));
#296=FILL_AREA_STYLE_COLOUR('',#298);
#297=FILL_AREA_STYLE_COLOUR('',#299);
#298=COLOUR_RGB('',0.4999923706,0.4999923706,0.4999923706);
#299=COLOUR_RGB('',0.8000000119,0.8000000119,0.8000000119);
#300=MANIFOLD_SOLID_BREP('1',#282);
#301=MANIFOLD_SOLID_BREP('1',#283);
#302=SHAPE_DEFINITION_REPRESENTATION(#542,#305);
#303=SHAPE_DEFINITION_REPRESENTATION(#543,#306);
#304=SHAPE_DEFINITION_REPRESENTATION(#545,#307);
#305=SHAPE_REPRESENTATION('749 13.000',(#308,#335,#343),#533);
#306=SHAPE_REPRESENTATION('749 13.000_PART1',(#308),#534);
#307=SHAPE_REPRESENTATION('749 13.000_PART2',(#308),#535);
#308=AXIS2_PLACEMENT_3D('',#426,#344,#345);
#309=AXIS2_PLACEMENT_3D('',#427,#346,#347);
#310=AXIS2_PLACEMENT_3D('',#444,#350,#351);
#311=AXIS2_PLACEMENT_3D('',#445,#352,#353);
#312=AXIS2_PLACEMENT_3D('',#446,#354,#355);
#313=AXIS2_PLACEMENT_3D('',#447,#356,#357);
#314=AXIS2_PLACEMENT_3D('',#449,#358,#359);
#315=AXIS2_PLACEMENT_3D('',#450,#360,#361);
#316=AXIS2_PLACEMENT_3D('',#454,#363,#364);
#317=AXIS2_PLACEMENT_3D('',#468,#366,#367);
#318=AXIS2_PLACEMENT_3D('',#469,#368,#369);
#319=AXIS2_PLACEMENT_3D('',#471,#370,#371);
#320=AXIS2_PLACEMENT_3D('',#473,#372,#373);
#321=AXIS2_PLACEMENT_3D('',#474,#374,#375);
#322=AXIS2_PLACEMENT_3D('',#490,#379,#380);
#323=AXIS2_PLACEMENT_3D('',#491,#381,#382);
#324=AXIS2_PLACEMENT_3D('',#498,#383,#384);
#325=AXIS2_PLACEMENT_3D('',#499,#385,#386);
#326=AXIS2_PLACEMENT_3D('',#502,#388,#389);
#327=AXIS2_PLACEMENT_3D('',#503,#390,#391);
#328=AXIS2_PLACEMENT_3D('',#511,#394,#395);
#329=AXIS2_PLACEMENT_3D('',#512,#396,#397);
#330=AXIS2_PLACEMENT_3D('',#514,#398,#399);
#331=AXIS2_PLACEMENT_3D('',#516,#400,#401);
#332=AXIS2_PLACEMENT_3D('',#517,#402,#403);
#333=AXIS2_PLACEMENT_3D('',#518,#404,#405);
#334=AXIS2_PLACEMENT_3D('',#519,#406,#407);
#335=AXIS2_PLACEMENT_3D('',#520,#408,#409);
#336=AXIS2_PLACEMENT_3D('',#521,#410,#411);
#337=AXIS2_PLACEMENT_3D('',#522,#412,#413);
#338=AXIS2_PLACEMENT_3D('',#524,#414,#415);
#339=AXIS2_PLACEMENT_3D('',#526,#416,#417);
#340=AXIS2_PLACEMENT_3D('',#527,#418,#419);
#341=AXIS2_PLACEMENT_3D('',#529,#420,#421);
#342=AXIS2_PLACEMENT_3D('',#530,#422,#423);
#343=AXIS2_PLACEMENT_3D('',#531,#424,#425);
#344=DIRECTION('',(0.,0.,1.));
#345=DIRECTION('',(1.,0.,0.));
#346=DIRECTION('',(1.,0.,0.));
#347=DIRECTION('',(0.,0.,1.));
#348=DIRECTION('',(-1.,0.,0.));
#349=DIRECTION('',(-1.,0.,0.));
#350=DIRECTION('',(0.,0.,1.));
#351=DIRECTION('',(1.,0.,0.));
#352=DIRECTION('',(0.,0.,-1.));
#353=DIRECTION('',(0.,1.,0.));
#354=DIRECTION('',(0.,0.,1.));
#355=DIRECTION('',(1.,0.,0.));
#356=DIRECTION('',(0.,0.,-1.));
#357=DIRECTION('',(1.,0.,0.));
#358=DIRECTION('',(0.,0.,1.));
#359=DIRECTION('',(1.,0.,0.));
#360=DIRECTION('',(0.,0.,1.));
#361=DIRECTION('',(0.,-1.,0.));
#362=DIRECTION('',(-1.,0.,0.));
#363=DIRECTION('',(1.,0.,0.));
#364=DIRECTION('',(0.,0.,1.));
#365=DIRECTION('',(-1.,0.,0.));
#366=DIRECTION('',(0.,0.,1.));
#367=DIRECTION('',(1.,0.,0.));
#368=DIRECTION('',(0.,0.,-1.));
#369=DIRECTION('',(-1.,0.,0.));
#370=DIRECTION('',(0.,0.,-1.));
#371=DIRECTION('',(1.,0.,0.));
#372=DIRECTION('',(0.,0.,1.));
#373=DIRECTION('',(-1.,0.,0.));
#374=DIRECTION('',(0.,1.,-6.57191800263982E-17));
#375=DIRECTION('',(1.,0.,0.));
#376=DIRECTION('',(0.,0.,1.));
#377=DIRECTION('',(-1.,0.,0.));
#378=DIRECTION('',(0.,0.,-1.));
#379=DIRECTION('',(-4.47165970642032E-17,0.,-1.));
#380=DIRECTION('',(-1.,0.,4.47165970642032E-17));
#381=DIRECTION('',(0.,0.,-1.));
#382=DIRECTION('',(1.,0.,0.));
#383=DIRECTION('',(0.,0.,1.));
#384=DIRECTION('',(1.,0.,0.));
#385=DIRECTION('',(0.,0.,1.));
#386=DIRECTION('',(1.,0.,0.));
#387=DIRECTION('',(-1.,0.,0.));
#388=DIRECTION('',(0.,0.,1.));
#389=DIRECTION('',(1.,0.,0.));
#390=DIRECTION('',(0.,1.,6.57191800263982E-17));
#391=DIRECTION('',(1.,0.,0.));
#392=DIRECTION('',(0.,0.,-1.));
#393=DIRECTION('',(0.,0.,1.));
#394=DIRECTION('',(0.,0.,-1.));
#395=DIRECTION('',(0.,-1.,0.));
#396=DIRECTION('',(0.,0.,1.));
#397=DIRECTION('',(1.,0.,0.));
#398=DIRECTION('',(0.,0.,-1.));
#399=DIRECTION('',(-1.,0.,0.));
#400=DIRECTION('',(-4.47165970642032E-17,0.,-1.));
#401=DIRECTION('',(-1.,0.,4.47165970642032E-17));
#402=DIRECTION('',(0.,0.,-1.));
#403=DIRECTION('',(1.,0.,0.));
#404=DIRECTION('',(0.,0.,1.));
#405=DIRECTION('',(-1.,0.,0.));
#406=DIRECTION('',(0.,0.,1.));
#407=DIRECTION('',(-1.,0.,0.));
#408=DIRECTION('',(0.,0.,1.));
#409=DIRECTION('',(1.,0.,0.));
#410=DIRECTION('',(0.,0.,1.));
#411=DIRECTION('',(-1.,0.,0.));
#412=DIRECTION('',(0.,0.,-1.));
#413=DIRECTION('',(1.,0.,0.));
#414=DIRECTION('',(0.,0.,-1.));
#415=DIRECTION('',(-1.,0.,0.));
#416=DIRECTION('',(2.76015380235955E-17,0.,1.));
#417=DIRECTION('',(1.,0.,-2.76015380235955E-17));
#418=DIRECTION('',(0.,0.,-1.));
#419=DIRECTION('',(-1.,0.,0.));
#420=DIRECTION('',(0.,0.,-1.));
#421=DIRECTION('',(0.,-1.,0.));
#422=DIRECTION('',(0.,0.,1.));
#423=DIRECTION('',(1.,0.,0.));
#424=DIRECTION('',(0.,0.,1.));
#425=DIRECTION('',(1.,0.,0.));
#426=CARTESIAN_POINT('',(0.,0.,0.));
#427=CARTESIAN_POINT('',(6.,3.401,-4.599));
#428=CARTESIAN_POINT('',(4.,3.,-4.599));
#429=CARTESIAN_POINT('',(4.,3.,-4.72224039377436));
#430=CARTESIAN_POINT('',(3.90898002789358,3.12307049750106,-4.94463801556353));
#431=CARTESIAN_POINT('',(3.74839071846997,3.3112760790935,-5.00000000000116));
#432=CARTESIAN_POINT('',(3.66513287616761,3.40100000000519,-5.));
#433=CARTESIAN_POINT('',(4.00000000000125,3.00000000001,-4.599000000005));
#434=CARTESIAN_POINT('',(3.66513287616779,3.401000000005,-5.00000000001));
#435=CARTESIAN_POINT('',(6.00000000001,3.40100000001,-5.00000000001));
#436=CARTESIAN_POINT('',(-3.66513287616779,3.401000000005,-5.00000000001));
#437=CARTESIAN_POINT('',(-3.66513287616761,3.40100000000519,-5.));
#438=CARTESIAN_POINT('',(-3.7483799460661,3.31128768811778,-5.00000000000116));
#439=CARTESIAN_POINT('',(-3.90898046234754,3.12307083124035,-4.9446288354045));
#440=CARTESIAN_POINT('',(-4.,3.,-4.72226932428817));
#441=CARTESIAN_POINT('',(-4.,3.,-4.599));
#442=CARTESIAN_POINT('',(-4.00000000000125,3.00000000001,-4.59900000001));
#443=CARTESIAN_POINT('',(6.00000000001,3.00000000001,-4.59900000001));
#444=CARTESIAN_POINT('',(6.,3.401,-5.));
#445=CARTESIAN_POINT('',(0.,0.,-5.00000000001));
#446=CARTESIAN_POINT('',(0.,0.,-138.540380592229));
#447=CARTESIAN_POINT('',(0.,0.,-138.540380592239));
#448=CARTESIAN_POINT('',(6.5,0.,-138.540380592239));
#449=CARTESIAN_POINT('',(6.,3.401,-5.));
#450=CARTESIAN_POINT('',(0.,0.,-5.00000000001));
#451=CARTESIAN_POINT('',(-3.66513287616538,-3.4010000000076,-5.000000000005));
#452=CARTESIAN_POINT('',(3.66513287616779,-3.401000000005,-5.00000000001));
#453=CARTESIAN_POINT('',(6.00000000001,-3.40100000001,-5.00000000001));
#454=CARTESIAN_POINT('',(6.,-3.401,-4.599));
#455=CARTESIAN_POINT('',(4.,-3.,-4.599));
#456=CARTESIAN_POINT('',(4.,-3.,-4.72224039377353));
#457=CARTESIAN_POINT('',(3.90898002789127,-3.12307049750396,-4.94463801556671));
#458=CARTESIAN_POINT('',(3.74839071846941,-3.3112760790941,-5.00000000000116));
#459=CARTESIAN_POINT('',(3.66513287616761,-3.4010000000052,-5.));
#460=CARTESIAN_POINT('',(4.00000000000125,-3.00000000001,-4.59900000001));
#461=CARTESIAN_POINT('',(6.00000000001,-3.00000000001,-4.59900000001));
#462=CARTESIAN_POINT('',(-4.00000000000125,-3.00000000001,-4.599000000005));
#463=CARTESIAN_POINT('',(-3.66513287616761,-3.40100000000519,-5.));
#464=CARTESIAN_POINT('',(-3.74837994606634,-3.31128768811752,-5.00000000000116));
#465=CARTESIAN_POINT('',(-3.90898046235147,-3.12307083123546,-4.9446288354));
#466=CARTESIAN_POINT('',(-4.,-3.,-4.72226932428853));
#467=CARTESIAN_POINT('',(-4.,-3.,-4.599));
#468=CARTESIAN_POINT('',(0.,6.5,-129.));
#469=CARTESIAN_POINT('',(0.,0.,-129.00000000001));
#470=CARTESIAN_POINT('',(-6.5,0.,-129.00000000001));
#471=CARTESIAN_POINT('',(0.,0.,-129.00000000001));
#472=CARTESIAN_POINT('',(2.02,0.,-129.00000000001));
#473=CARTESIAN_POINT('',(0.,0.,0.));
#474=CARTESIAN_POINT('',(6.,-3.,2.));
#475=CARTESIAN_POINT('',(4.00000000001,-3.00000000001,1.00001971575401E-11));
#476=CARTESIAN_POINT('',(4.00000000000048,-3.,-0.400000000000197));
#477=CARTESIAN_POINT('',(4.0000000000104,-3.00000000001,-0.400000000010299));
#478=CARTESIAN_POINT('',(3.83074167423104,-3.00000000001,-0.264593339386805));
#479=CARTESIAN_POINT('',(3.65996863916209,-3.00000000001,-0.131031901678185));
#480=CARTESIAN_POINT('',(3.48711915484254,-3.00000000001,1.00002787718054E-11));
#481=CARTESIAN_POINT('',(3.48711915483254,-3.,0.));
#482=CARTESIAN_POINT('',(0.,-3.00000000001,0.));
#483=CARTESIAN_POINT('',(-3.48711915483254,-3.,0.));
#484=CARTESIAN_POINT('',(-3.48711915484259,-3.00000000001,1.00734122590982E-11));
#485=CARTESIAN_POINT('',(-3.65969420930695,-3.00000000001,-0.130823864807527));
#486=CARTESIAN_POINT('',(-3.83053985698108,-3.00000000001,-0.264431885586865));
#487=CARTESIAN_POINT('',(-4.00000000001,-3.00000000001,-0.40000000001));
#488=CARTESIAN_POINT('',(-4.,-3.,-0.400000000000001));
#489=CARTESIAN_POINT('',(-4.00000000001,-3.00000000001,1.00001971575401E-11));
#490=CARTESIAN_POINT('',(0.,0.,-0.400000000000001));
#491=CARTESIAN_POINT('',(0.,0.,-0.400000000010001));
#492=CARTESIAN_POINT('',(4.00000000000048,3.,-0.400000000000197));
#493=CARTESIAN_POINT('',(4.0000000000104,3.00000000001,-0.400000000010298));
#494=CARTESIAN_POINT('',(3.83074167423104,3.00000000001,-0.264593339386805));
#495=CARTESIAN_POINT('',(3.65996863916209,3.00000000001,-0.131031901678185));
#496=CARTESIAN_POINT('',(3.48711915484254,3.00000000001,-1.00004034955089E-11));
#497=CARTESIAN_POINT('',(3.48711915483254,3.,0.));
#498=CARTESIAN_POINT('',(0.,0.,0.));
#499=CARTESIAN_POINT('',(0.,0.,0.));
#500=CARTESIAN_POINT('',(0.,3.00000000001,0.));
#501=CARTESIAN_POINT('',(-3.48711915483266,3.,-4.45536468210843E-14));
#502=CARTESIAN_POINT('',(0.,0.,0.));
#503=CARTESIAN_POINT('',(6.,3.,2.));
#504=CARTESIAN_POINT('',(-4.00000000001,3.00000000001,1.00001971575401E-11));
#505=CARTESIAN_POINT('',(-4.,3.,-0.400000000000001));
#506=CARTESIAN_POINT('',(-3.48711915484268,3.00000000001,-1.00013018817817E-11));
#507=CARTESIAN_POINT('',(-3.65969420930702,3.00000000001,-0.130823864807578));
#508=CARTESIAN_POINT('',(-3.83053985698111,3.00000000001,-0.264431885586892));
#509=CARTESIAN_POINT('',(-4.00000000001,3.00000000001,-0.400000000010001));
#510=CARTESIAN_POINT('',(4.00000000001,3.00000000001,1.00001971575401E-11));
#511=CARTESIAN_POINT('',(0.,0.,-46.));
#512=CARTESIAN_POINT('',(0.,0.,-46.00000000001));
#513=CARTESIAN_POINT('',(5.,0.,-46.00000000001));
#514=CARTESIAN_POINT('',(0.,0.,-46.00000000001));
#515=CARTESIAN_POINT('',(-2.02,0.,-46.00000000001));
#516=CARTESIAN_POINT('',(0.,0.,-0.400000000000001));
#517=CARTESIAN_POINT('',(0.,0.,-0.400000000010001));
#518=CARTESIAN_POINT('',(0.,0.,0.));
#519=CARTESIAN_POINT('',(0.,0.,0.));
#520=CARTESIAN_POINT('',(0.,0.,0.));
#521=CARTESIAN_POINT('',(0.,0.,0.));
#522=CARTESIAN_POINT('',(0.,0.,-138.540380592239));
#523=CARTESIAN_POINT('',(6.5,0.,-138.540380592239));
#524=CARTESIAN_POINT('',(0.,0.,-150.080761184467));
#525=CARTESIAN_POINT('',(-6.5,0.,-150.080761184467));
#526=CARTESIAN_POINT('',(0.,0.,-151.));
#527=CARTESIAN_POINT('',(0.,0.,-151.00000000001));
#528=CARTESIAN_POINT('',(-5.5807612,0.,-151.00000000001));
#529=CARTESIAN_POINT('',(0.,0.,-151.));
#530=CARTESIAN_POINT('',(0.,0.,-138.540380592229));
#531=CARTESIAN_POINT('',(0.,0.,0.));
#532=MECHANICAL_DESIGN_GEOMETRIC_PRESENTATION_REPRESENTATION('',(#284,#285),
#533);
#533=(
GEOMETRIC_REPRESENTATION_CONTEXT(3)
GLOBAL_UNCERTAINTY_ASSIGNED_CONTEXT((#536))
GLOBAL_UNIT_ASSIGNED_CONTEXT((#541,#540,#539))
REPRESENTATION_CONTEXT('749 13.000','TOP_LEVEL_ASSEMBLY_PART')
);
#534=(
GEOMETRIC_REPRESENTATION_CONTEXT(3)
GLOBAL_UNCERTAINTY_ASSIGNED_CONTEXT((#537))
GLOBAL_UNIT_ASSIGNED_CONTEXT((#541,#540,#539))
REPRESENTATION_CONTEXT('749 13.000_PART1','COMPONENT_PART')
);
#535=(
GEOMETRIC_REPRESENTATION_CONTEXT(3)
GLOBAL_UNCERTAINTY_ASSIGNED_CONTEXT((#538))
GLOBAL_UNIT_ASSIGNED_CONTEXT((#541,#540,#539))
REPRESENTATION_CONTEXT('749 13.000_PART2','COMPONENT_PART')
);
#536=UNCERTAINTY_MEASURE_WITH_UNIT(LENGTH_MEASURE(1.E-5),#541,
'DISTANCE_ACCURACY_VALUE','Maximum Tolerance applied to model');
#537=UNCERTAINTY_MEASURE_WITH_UNIT(LENGTH_MEASURE(1.E-5),#541,
'DISTANCE_ACCURACY_VALUE','Maximum Tolerance applied to model');
#538=UNCERTAINTY_MEASURE_WITH_UNIT(LENGTH_MEASURE(1.E-5),#541,
'DISTANCE_ACCURACY_VALUE','Maximum Tolerance applied to model');
#539=(
NAMED_UNIT(*)
SI_UNIT($,.STERADIAN.)
SOLID_ANGLE_UNIT()
);
#540=(
NAMED_UNIT(*)
PLANE_ANGLE_UNIT()
SI_UNIT($,.RADIAN.)
);
#541=(
LENGTH_UNIT()
NAMED_UNIT(*)
SI_UNIT(.MILLI.,.METRE.)
);
#542=PRODUCT_DEFINITION_SHAPE('','',#547);
#543=PRODUCT_DEFINITION_SHAPE('','',#548);
#544=PRODUCT_DEFINITION_SHAPE(' ','NAUO PRDDFN',#20);
#545=PRODUCT_DEFINITION_SHAPE('','',#549);
#546=PRODUCT_DEFINITION_SHAPE(' ','NAUO PRDDFN',#21);
#547=PRODUCT_DEFINITION('','',#553,#550);
#548=PRODUCT_DEFINITION('','',#554,#551);
#549=PRODUCT_DEFINITION('','',#555,#552);
#550=PRODUCT_DEFINITION_CONTEXT('',#569,'design');
#551=PRODUCT_DEFINITION_CONTEXT('',#569,'design');
#552=PRODUCT_DEFINITION_CONTEXT('',#569,'design');
#553=PRODUCT_DEFINITION_FORMATION_WITH_SPECIFIED_SOURCE('','',#559,
 .NOT_KNOWN.);
#554=PRODUCT_DEFINITION_FORMATION_WITH_SPECIFIED_SOURCE('','',#560,
 .NOT_KNOWN.);
#555=PRODUCT_DEFINITION_FORMATION_WITH_SPECIFIED_SOURCE('','',#561,
 .NOT_KNOWN.);
#556=PRODUCT_RELATED_PRODUCT_CATEGORY('','',(#559));
#557=PRODUCT_RELATED_PRODUCT_CATEGORY('','',(#560));
#558=PRODUCT_RELATED_PRODUCT_CATEGORY('','',(#561));
#559=PRODUCT('749 13.000','749 13.000','749 13.000',(#565));
#560=PRODUCT('749 13.000_PART1','749 13.000_PART1','749 13.000_PART1',(#566));
#561=PRODUCT('749 13.000_PART2','749 13.000_PART2','749 13.000_PART2',(#567));
#562=PRODUCT_CATEGORY('','');
#563=PRODUCT_CATEGORY('','');
#564=PRODUCT_CATEGORY('','');
#565=PRODUCT_CONTEXT('',#569,'mechanical');
#566=PRODUCT_CONTEXT('',#569,'mechanical');
#567=PRODUCT_CONTEXT('',#569,'mechanical');
#568=APPLICATION_PROTOCOL_DEFINITION('international standard',
'automotive_design',2010,#569);
#569=APPLICATION_CONTEXT(
'core data for automotive mechanical design processes');
ENDSEC;
END-ISO-10303-21;
