ISO-10303-21;
HEADER;
/* Generated by software containing ST-Developer
 * from STEP Tools, Inc. (www.steptools.com) 
 */
/* OPTION: using custom renumber hook */

FILE_DESCRIPTION(
/* description */ ('STEP AP214'),
/* implementation_level */ '2;1');

FILE_NAME(
/* name */ '401 1.800',
/* time_stamp */ '2026-05-19T18:28:17+02:00',
/* author */ ('License CC BY-ND 4.0'),
/* organization */ ('CADENAS'),
/* preprocessor_version */ 'ST-DEVELOPER v20',
/* originating_system */ 'PARTsolutions',
/* authorisation */ '  ');

FILE_SCHEMA (('AUTOMOTIVE_DESIGN {1 0 10303 214 3 1 1}'));
ENDSEC;

DATA;
#10=PROPERTY_DEFINITION_REPRESENTATION(#14,#12);
#11=PROPERTY_DEFINITION_REPRESENTATION(#15,#13);
#12=REPRESENTATION('',(#16),#352);
#13=REPRESENTATION('',(#17),#352);
#14=PROPERTY_DEFINITION('pmi validation property','',#363);
#15=PROPERTY_DEFINITION('pmi validation property','',#363);
#16=VALUE_REPRESENTATION_ITEM('number of annotations',COUNT_MEASURE(0.));
#17=VALUE_REPRESENTATION_ITEM('number of views',COUNT_MEASURE(0.));
#18=VERTEX_LOOP('',#95);
#19=CONTEXT_DEPENDENT_SHAPE_REPRESENTATION(#25,#365);
#20=CONTEXT_DEPENDENT_SHAPE_REPRESENTATION(#26,#367);
#21=CONTEXT_DEPENDENT_SHAPE_REPRESENTATION(#27,#369);
#22=NEXT_ASSEMBLY_USAGE_OCCURRENCE('NAUO1','401 1.800_PART1',
'401 1.800_PART1',#370,#371,'');
#23=NEXT_ASSEMBLY_USAGE_OCCURRENCE('NAUO2','401 1.800_PART2',
'401 1.800_PART2',#370,#372,'');
#24=NEXT_ASSEMBLY_USAGE_OCCURRENCE('NAUO3','401 1.800_PART3',
'401 1.800_PART3',#370,#373,'');
#25=(
REPRESENTATION_RELATIONSHIP(' ',' ',#211,#210)
REPRESENTATION_RELATIONSHIP_WITH_TRANSFORMATION(#28)
SHAPE_REPRESENTATION_RELATIONSHIP()
);
#26=(
REPRESENTATION_RELATIONSHIP(' ',' ',#212,#210)
REPRESENTATION_RELATIONSHIP_WITH_TRANSFORMATION(#29)
SHAPE_REPRESENTATION_RELATIONSHIP()
);
#27=(
REPRESENTATION_RELATIONSHIP(' ',' ',#213,#210)
REPRESENTATION_RELATIONSHIP_WITH_TRANSFORMATION(#30)
SHAPE_REPRESENTATION_RELATIONSHIP()
);
#28=ITEM_DEFINED_TRANSFORMATION(' ',' ',#214,#228);
#29=ITEM_DEFINED_TRANSFORMATION(' ',' ',#214,#236);
#30=ITEM_DEFINED_TRANSFORMATION(' ',' ',#214,#244);
#31=SHAPE_REPRESENTATION_RELATIONSHIP('','',#211,#34);
#32=SHAPE_REPRESENTATION_RELATIONSHIP('','',#212,#35);
#33=SHAPE_REPRESENTATION_RELATIONSHIP('','',#213,#36);
#34=ADVANCED_BREP_SHAPE_REPRESENTATION('',(#203),#353);
#35=ADVANCED_BREP_SHAPE_REPRESENTATION('',(#204),#354);
#36=ADVANCED_BREP_SHAPE_REPRESENTATION('',(#205),#355);
#37=CYLINDRICAL_SURFACE('',#220,0.75);
#38=CYLINDRICAL_SURFACE('',#224,0.9);
#39=CYLINDRICAL_SURFACE('',#229,0.9);
#40=CONICAL_SURFACE('',#217,0.9,1.5533430325);
#41=CONICAL_SURFACE('',#222,0.75,0.523598775);
#42=CONICAL_SURFACE('',#227,0.9,0.7853981625);
#43=CONICAL_SURFACE('',#233,0.8998254,0.0174532925);
#44=CONICAL_SURFACE('',#239,0.8998254,0.0174532925);
#45=CONICAL_SURFACE('',#241,0.8995666,0.2617993875);
#46=CONICAL_SURFACE('',#243,1.,0.7853981625);
#47=ORIENTED_EDGE('',*,*,#71,.T.);
#48=ORIENTED_EDGE('',*,*,#72,.T.);
#49=ORIENTED_EDGE('',*,*,#73,.F.);
#50=ORIENTED_EDGE('',*,*,#73,.T.);
#51=ORIENTED_EDGE('',*,*,#74,.F.);
#52=ORIENTED_EDGE('',*,*,#74,.T.);
#53=ORIENTED_EDGE('',*,*,#75,.F.);
#54=ORIENTED_EDGE('',*,*,#75,.T.);
#55=ORIENTED_EDGE('',*,*,#76,.T.);
#56=ORIENTED_EDGE('',*,*,#72,.F.);
#57=ORIENTED_EDGE('',*,*,#76,.F.);
#58=ORIENTED_EDGE('',*,*,#71,.F.);
#59=ORIENTED_EDGE('',*,*,#77,.T.);
#60=ORIENTED_EDGE('',*,*,#78,.F.);
#61=ORIENTED_EDGE('',*,*,#78,.T.);
#62=ORIENTED_EDGE('',*,*,#77,.F.);
#63=ORIENTED_EDGE('',*,*,#79,.T.);
#64=ORIENTED_EDGE('',*,*,#79,.F.);
#65=ORIENTED_EDGE('',*,*,#80,.T.);
#66=ORIENTED_EDGE('',*,*,#80,.F.);
#67=ORIENTED_EDGE('',*,*,#81,.T.);
#68=ORIENTED_EDGE('',*,*,#82,.T.);
#69=ORIENTED_EDGE('',*,*,#81,.F.);
#70=ORIENTED_EDGE('',*,*,#82,.F.);
#71=EDGE_CURVE('',#83,#83,#96,.T.);
#72=EDGE_CURVE('',#84,#84,#97,.T.);
#73=EDGE_CURVE('',#85,#85,#98,.T.);
#74=EDGE_CURVE('',#86,#86,#99,.T.);
#75=EDGE_CURVE('',#87,#87,#100,.T.);
#76=EDGE_CURVE('',#88,#88,#101,.T.);
#77=EDGE_CURVE('',#89,#89,#102,.T.);
#78=EDGE_CURVE('',#90,#90,#103,.T.);
#79=EDGE_CURVE('',#91,#91,#104,.T.);
#80=EDGE_CURVE('',#92,#92,#105,.T.);
#81=EDGE_CURVE('',#93,#93,#106,.T.);
#82=EDGE_CURVE('',#94,#94,#107,.T.);
#83=VERTEX_POINT('',#310);
#84=VERTEX_POINT('',#313);
#85=VERTEX_POINT('',#315);
#86=VERTEX_POINT('',#318);
#87=VERTEX_POINT('',#321);
#88=VERTEX_POINT('',#324);
#89=VERTEX_POINT('',#330);
#90=VERTEX_POINT('',#332);
#91=VERTEX_POINT('',#336);
#92=VERTEX_POINT('',#341);
#93=VERTEX_POINT('',#344);
#94=VERTEX_POINT('',#347);
#95=VERTEX_POINT('',#349);
#96=CIRCLE('',#216,0.0005);
#97=CIRCLE('',#218,0.9);
#98=CIRCLE('',#219,0.75);
#99=CIRCLE('',#221,0.75);
#100=CIRCLE('',#223,0.9);
#101=CIRCLE('',#225,0.9);
#102=CIRCLE('',#230,0.9);
#103=CIRCLE('',#231,0.9);
#104=CIRCLE('',#234,0.899990654847233);
#105=CIRCLE('',#238,0.899990654847233);
#106=CIRCLE('',#240,0.89982539867291);
#107=CIRCLE('',#242,0.899566588841396);
#108=EDGE_LOOP('',(#47));
#109=EDGE_LOOP('',(#48));
#110=EDGE_LOOP('',(#49));
#111=EDGE_LOOP('',(#50));
#112=EDGE_LOOP('',(#51));
#113=EDGE_LOOP('',(#52));
#114=EDGE_LOOP('',(#53));
#115=EDGE_LOOP('',(#54));
#116=EDGE_LOOP('',(#55));
#117=EDGE_LOOP('',(#56));
#118=EDGE_LOOP('',(#57));
#119=EDGE_LOOP('',(#58));
#120=EDGE_LOOP('',(#59));
#121=EDGE_LOOP('',(#60));
#122=EDGE_LOOP('',(#61));
#123=EDGE_LOOP('',(#62));
#124=EDGE_LOOP('',(#63));
#125=EDGE_LOOP('',(#64));
#126=EDGE_LOOP('',(#65));
#127=EDGE_LOOP('',(#66));
#128=EDGE_LOOP('',(#67));
#129=EDGE_LOOP('',(#68));
#130=EDGE_LOOP('',(#69));
#131=EDGE_LOOP('',(#70));
#132=FACE_BOUND('',#108,.T.);
#133=FACE_BOUND('',#109,.T.);
#134=FACE_BOUND('',#110,.T.);
#135=FACE_BOUND('',#111,.T.);
#136=FACE_BOUND('',#112,.T.);
#137=FACE_BOUND('',#113,.T.);
#138=FACE_BOUND('',#114,.T.);
#139=FACE_BOUND('',#115,.T.);
#140=FACE_BOUND('',#116,.T.);
#141=FACE_BOUND('',#117,.T.);
#142=FACE_BOUND('',#118,.T.);
#143=FACE_BOUND('',#119,.T.);
#144=FACE_BOUND('',#120,.T.);
#145=FACE_BOUND('',#121,.T.);
#146=FACE_BOUND('',#122,.T.);
#147=FACE_BOUND('',#123,.T.);
#148=FACE_BOUND('',#124,.T.);
#149=FACE_BOUND('',#125,.T.);
#150=FACE_BOUND('',#126,.T.);
#151=FACE_BOUND('',#127,.T.);
#152=FACE_BOUND('',#128,.T.);
#153=FACE_BOUND('',#129,.T.);
#154=FACE_BOUND('',#130,.T.);
#155=FACE_BOUND('',#18,.T.);
#156=FACE_BOUND('',#131,.T.);
#157=PLANE('',#215);
#158=PLANE('',#226);
#159=PLANE('',#232);
#160=PLANE('',#235);
#161=PLANE('',#237);
#162=ADVANCED_FACE('',(#132),#157,.T.);
#163=ADVANCED_FACE('',(#133,#134),#40,.T.);
#164=ADVANCED_FACE('',(#135,#136),#37,.T.);
#165=ADVANCED_FACE('',(#137,#138),#41,.T.);
#166=ADVANCED_FACE('',(#139,#140),#38,.T.);
#167=ADVANCED_FACE('',(#141),#158,.F.);
#168=ADVANCED_FACE('',(#142,#143),#42,.T.);
#169=ADVANCED_FACE('',(#144,#145),#39,.T.);
#170=ADVANCED_FACE('',(#146),#159,.T.);
#171=ADVANCED_FACE('',(#147,#148),#43,.T.);
#172=ADVANCED_FACE('',(#149),#160,.F.);
#173=ADVANCED_FACE('',(#150),#161,.T.);
#174=ADVANCED_FACE('',(#151,#152),#44,.T.);
#175=ADVANCED_FACE('',(#153,#154),#45,.T.);
#176=ADVANCED_FACE('',(#155,#156),#46,.T.);
#177=CLOSED_SHELL('',(#162,#163,#164,#165,#166,#167,#168));
#178=CLOSED_SHELL('',(#169,#170,#171,#172));
#179=CLOSED_SHELL('',(#173,#174,#175,#176));
#180=STYLED_ITEM('',(#183),#203);
#181=STYLED_ITEM('',(#184),#204);
#182=STYLED_ITEM('',(#185),#205);
#183=PRESENTATION_STYLE_ASSIGNMENT((#186));
#184=PRESENTATION_STYLE_ASSIGNMENT((#187));
#185=PRESENTATION_STYLE_ASSIGNMENT((#188));
#186=SURFACE_STYLE_USAGE(.BOTH.,#189);
#187=SURFACE_STYLE_USAGE(.BOTH.,#190);
#188=SURFACE_STYLE_USAGE(.BOTH.,#191);
#189=SURFACE_SIDE_STYLE('',(#192));
#190=SURFACE_SIDE_STYLE('',(#193));
#191=SURFACE_SIDE_STYLE('',(#194));
#192=SURFACE_STYLE_FILL_AREA(#195);
#193=SURFACE_STYLE_FILL_AREA(#196);
#194=SURFACE_STYLE_FILL_AREA(#197);
#195=FILL_AREA_STYLE('',(#198));
#196=FILL_AREA_STYLE('',(#199));
#197=FILL_AREA_STYLE('',(#200));
#198=FILL_AREA_STYLE_COLOUR('',#201);
#199=FILL_AREA_STYLE_COLOUR('',#202);
#200=FILL_AREA_STYLE_COLOUR('',#201);
#201=COLOUR_RGB('',0.4999923706,0.4999923706,0.4999923706);
#202=COLOUR_RGB('',0.8000000119,0.8000000119,0.8000000119);
#203=MANIFOLD_SOLID_BREP('1',#177);
#204=MANIFOLD_SOLID_BREP('1',#178);
#205=MANIFOLD_SOLID_BREP('1',#179);
#206=SHAPE_DEFINITION_REPRESENTATION(#363,#210);
#207=SHAPE_DEFINITION_REPRESENTATION(#364,#211);
#208=SHAPE_DEFINITION_REPRESENTATION(#366,#212);
#209=SHAPE_DEFINITION_REPRESENTATION(#368,#213);
#210=SHAPE_REPRESENTATION('401 1.800',(#214,#228,#236,#244),#352);
#211=SHAPE_REPRESENTATION('401 1.800_PART1',(#214),#353);
#212=SHAPE_REPRESENTATION('401 1.800_PART2',(#214),#354);
#213=SHAPE_REPRESENTATION('401 1.800_PART3',(#214),#355);
#214=AXIS2_PLACEMENT_3D('',#307,#245,#246);
#215=AXIS2_PLACEMENT_3D('',#308,#247,#248);
#216=AXIS2_PLACEMENT_3D('',#309,#249,#250);
#217=AXIS2_PLACEMENT_3D('',#311,#251,#252);
#218=AXIS2_PLACEMENT_3D('',#312,#253,#254);
#219=AXIS2_PLACEMENT_3D('',#314,#255,#256);
#220=AXIS2_PLACEMENT_3D('',#316,#257,#258);
#221=AXIS2_PLACEMENT_3D('',#317,#259,#260);
#222=AXIS2_PLACEMENT_3D('',#319,#261,#262);
#223=AXIS2_PLACEMENT_3D('',#320,#263,#264);
#224=AXIS2_PLACEMENT_3D('',#322,#265,#266);
#225=AXIS2_PLACEMENT_3D('',#323,#267,#268);
#226=AXIS2_PLACEMENT_3D('',#325,#269,#270);
#227=AXIS2_PLACEMENT_3D('',#326,#271,#272);
#228=AXIS2_PLACEMENT_3D('',#327,#273,#274);
#229=AXIS2_PLACEMENT_3D('',#328,#275,#276);
#230=AXIS2_PLACEMENT_3D('',#329,#277,#278);
#231=AXIS2_PLACEMENT_3D('',#331,#279,#280);
#232=AXIS2_PLACEMENT_3D('',#333,#281,#282);
#233=AXIS2_PLACEMENT_3D('',#334,#283,#284);
#234=AXIS2_PLACEMENT_3D('',#335,#285,#286);
#235=AXIS2_PLACEMENT_3D('',#337,#287,#288);
#236=AXIS2_PLACEMENT_3D('',#338,#289,#290);
#237=AXIS2_PLACEMENT_3D('',#339,#291,#292);
#238=AXIS2_PLACEMENT_3D('',#340,#293,#294);
#239=AXIS2_PLACEMENT_3D('',#342,#295,#296);
#240=AXIS2_PLACEMENT_3D('',#343,#297,#298);
#241=AXIS2_PLACEMENT_3D('',#345,#299,#300);
#242=AXIS2_PLACEMENT_3D('',#346,#301,#302);
#243=AXIS2_PLACEMENT_3D('',#348,#303,#304);
#244=AXIS2_PLACEMENT_3D('',#350,#305,#306);
#245=DIRECTION('',(0.,0.,1.));
#246=DIRECTION('',(1.,0.,0.));
#247=DIRECTION('',(0.,0.,1.));
#248=DIRECTION('',(1.,0.,0.));
#249=DIRECTION('',(0.,0.,1.));
#250=DIRECTION('',(1.,0.,0.));
#251=DIRECTION('',(0.,0.,-1.));
#252=DIRECTION('',(0.,-1.,0.));
#253=DIRECTION('',(0.,0.,1.));
#254=DIRECTION('',(1.,0.,0.));
#255=DIRECTION('',(0.,0.,1.));
#256=DIRECTION('',(0.,1.,0.));
#257=DIRECTION('',(0.,0.,-1.));
#258=DIRECTION('',(0.,1.,0.));
#259=DIRECTION('',(0.,0.,1.));
#260=DIRECTION('',(0.,1.,0.));
#261=DIRECTION('',(0.,0.,1.));
#262=DIRECTION('',(0.,1.,0.));
#263=DIRECTION('',(0.,0.,1.));
#264=DIRECTION('',(0.,1.,0.));
#265=DIRECTION('',(0.,0.,1.));
#266=DIRECTION('',(-1.,0.,0.));
#267=DIRECTION('',(0.,0.,-1.));
#268=DIRECTION('',(1.,0.,0.));
#269=DIRECTION('',(0.,0.,1.));
#270=DIRECTION('',(1.,0.,0.));
#271=DIRECTION('',(3.99710861871467E-17,0.,-1.));
#272=DIRECTION('',(-1.,0.,-3.99710861871467E-17));
#273=DIRECTION('',(0.,0.,1.));
#274=DIRECTION('',(1.,0.,0.));
#275=DIRECTION('',(0.,0.,-1.));
#276=DIRECTION('',(0.,1.,0.));
#277=DIRECTION('',(0.,0.,1.));
#278=DIRECTION('',(1.,0.,0.));
#279=DIRECTION('',(0.,0.,1.));
#280=DIRECTION('',(0.,1.,0.));
#281=DIRECTION('',(0.,0.,1.));
#282=DIRECTION('',(1.,0.,0.));
#283=DIRECTION('',(0.,0.,1.));
#284=DIRECTION('',(0.,1.,0.));
#285=DIRECTION('',(0.,0.,1.));
#286=DIRECTION('',(1.,0.,0.));
#287=DIRECTION('',(0.,0.,1.));
#288=DIRECTION('',(1.,0.,0.));
#289=DIRECTION('',(0.,0.,1.));
#290=DIRECTION('',(1.,0.,0.));
#291=DIRECTION('',(0.,0.,1.));
#292=DIRECTION('',(1.,0.,0.));
#293=DIRECTION('',(0.,0.,1.));
#294=DIRECTION('',(1.,0.,0.));
#295=DIRECTION('',(0.,0.,1.));
#296=DIRECTION('',(0.,1.,0.));
#297=DIRECTION('',(0.,0.,1.));
#298=DIRECTION('',(1.,0.,0.));
#299=DIRECTION('',(0.,0.,1.));
#300=DIRECTION('',(0.,1.,0.));
#301=DIRECTION('',(0.,0.,1.));
#302=DIRECTION('',(1.,0.,0.));
#303=DIRECTION('',(0.,0.,1.));
#304=DIRECTION('',(0.,1.,0.));
#305=DIRECTION('',(0.,0.,1.));
#306=DIRECTION('',(1.,0.,0.));
#307=CARTESIAN_POINT('',(0.,0.,0.));
#308=CARTESIAN_POINT('',(1.05430982812427E-15,0.,0.9));
#309=CARTESIAN_POINT('',(1.00010543098281E-11,0.,0.90000000001));
#310=CARTESIAN_POINT('',(0.,0.,0.90000000001));
#311=CARTESIAN_POINT('',(1.05430982812427E-15,-1.28558251910047E-14,-36.));
#312=CARTESIAN_POINT('',(1.00010543098281E-11,-1.0012855825191E-11,-36.00000000001));
#313=CARTESIAN_POINT('',(0.900000000010001,-1.0012855825191E-11,-36.00000000001));
#314=CARTESIAN_POINT('',(1.00010543098281E-11,-1.00128549129989E-11,-35.9973817402708));
#315=CARTESIAN_POINT('',(1.00010543098281E-11,0.749999999989987,-35.9973817402708));
#316=CARTESIAN_POINT('',(1.05430982812427E-15,0.,0.899999999999997));
#317=CARTESIAN_POINT('',(1.00010543098281E-11,-1.00087655850574E-11,-24.2598076211454));
#318=CARTESIAN_POINT('',(1.00010543098281E-11,0.749999999989991,-24.2598076211454));
#319=CARTESIAN_POINT('',(1.05430982812427E-15,-8.76558505736108E-15,-24.2598076211354));
#320=CARTESIAN_POINT('',(1.00010543098281E-11,-1.00086750690313E-11,-24.00000000001));
#321=CARTESIAN_POINT('',(1.00010543098281E-11,0.899999999989991,-24.00000000001));
#322=CARTESIAN_POINT('',(1.05430982812427E-15,0.,0.9));
#323=CARTESIAN_POINT('',(1.00010543098281E-11,0.,0.));
#324=CARTESIAN_POINT('',(0.900000000010001,0.,0.));
#325=CARTESIAN_POINT('',(1.05430982812427E-15,0.,-36.));
#326=CARTESIAN_POINT('',(1.05430982812427E-15,0.,0.));
#327=CARTESIAN_POINT('',(0.,0.,0.));
#328=CARTESIAN_POINT('',(1.05430982812427E-15,0.,0.899999999999997));
#329=CARTESIAN_POINT('',(1.05430982812427E-15,-1.63396031167909E-14,-45.9894646165559));
#330=CARTESIAN_POINT('',(0.900000000000001,-1.63396031167909E-14,-45.9894646165559));
#331=CARTESIAN_POINT('',(1.00010543098281E-11,-1.0012855825191E-11,-36.00000000001));
#332=CARTESIAN_POINT('',(1.00010543098281E-11,0.899999999989987,-36.00000000001));
#333=CARTESIAN_POINT('',(1.05430982812427E-15,0.,-36.));
#334=CARTESIAN_POINT('',(1.05430982812427E-15,-1.63396031167909E-14,-45.9994674438681));
#335=CARTESIAN_POINT('',(1.05430982812427E-15,-1.63396031167909E-14,-45.99));
#336=CARTESIAN_POINT('',(0.899990654847234,-1.63396031167909E-14,-45.99));
#337=CARTESIAN_POINT('',(1.05430982812427E-15,0.,-45.99));
#338=CARTESIAN_POINT('',(0.,0.,0.));
#339=CARTESIAN_POINT('',(1.05430982812427E-15,0.,-45.99));
#340=CARTESIAN_POINT('',(1.05430982812427E-15,-1.63396031167909E-14,-45.99));
#341=CARTESIAN_POINT('',(0.899990654847234,-1.63396031167909E-14,-45.99));
#342=CARTESIAN_POINT('',(1.05430982812427E-15,-1.63396031167909E-14,-45.9994674438681));
#343=CARTESIAN_POINT('',(1.05430982812427E-15,-1.63399396418199E-14,-45.999467519897));
#344=CARTESIAN_POINT('',(0.899825398672912,-1.63399396418199E-14,-45.999467519897));
#345=CARTESIAN_POINT('',(1.05430982812427E-15,-1.63399396418199E-14,-46.0004333696944));
#346=CARTESIAN_POINT('',(1.05430982812427E-15,-1.63049490227376E-14,-46.0004334113389));
#347=CARTESIAN_POINT('',(0.899566588841397,-1.63049490227376E-14,-46.0004334113389));
#348=CARTESIAN_POINT('',(1.05430982812427E-15,-1.63049490227376E-14,-45.9));
#349=CARTESIAN_POINT('',(1.05430982812427E-15,-1.66533453693773E-14,-46.9));
#350=CARTESIAN_POINT('',(0.,0.,0.));
#351=MECHANICAL_DESIGN_GEOMETRIC_PRESENTATION_REPRESENTATION('',(#180,#181,
#182),#352);
#352=(
GEOMETRIC_REPRESENTATION_CONTEXT(3)
GLOBAL_UNCERTAINTY_ASSIGNED_CONTEXT((#356))
GLOBAL_UNIT_ASSIGNED_CONTEXT((#362,#361,#360))
REPRESENTATION_CONTEXT('401 1.800','TOP_LEVEL_ASSEMBLY_PART')
);
#353=(
GEOMETRIC_REPRESENTATION_CONTEXT(3)
GLOBAL_UNCERTAINTY_ASSIGNED_CONTEXT((#357))
GLOBAL_UNIT_ASSIGNED_CONTEXT((#362,#361,#360))
REPRESENTATION_CONTEXT('401 1.800_PART1','COMPONENT_PART')
);
#354=(
GEOMETRIC_REPRESENTATION_CONTEXT(3)
GLOBAL_UNCERTAINTY_ASSIGNED_CONTEXT((#358))
GLOBAL_UNIT_ASSIGNED_CONTEXT((#362,#361,#360))
REPRESENTATION_CONTEXT('401 1.800_PART2','COMPONENT_PART')
);
#355=(
GEOMETRIC_REPRESENTATION_CONTEXT(3)
GLOBAL_UNCERTAINTY_ASSIGNED_CONTEXT((#359))
GLOBAL_UNIT_ASSIGNED_CONTEXT((#362,#361,#360))
REPRESENTATION_CONTEXT('401 1.800_PART3','COMPONENT_PART')
);
#356=UNCERTAINTY_MEASURE_WITH_UNIT(LENGTH_MEASURE(1.E-5),#362,
'DISTANCE_ACCURACY_VALUE','Maximum Tolerance applied to model');
#357=UNCERTAINTY_MEASURE_WITH_UNIT(LENGTH_MEASURE(1.E-5),#362,
'DISTANCE_ACCURACY_VALUE','Maximum Tolerance applied to model');
#358=UNCERTAINTY_MEASURE_WITH_UNIT(LENGTH_MEASURE(1.E-5),#362,
'DISTANCE_ACCURACY_VALUE','Maximum Tolerance applied to model');
#359=UNCERTAINTY_MEASURE_WITH_UNIT(LENGTH_MEASURE(1.E-5),#362,
'DISTANCE_ACCURACY_VALUE','Maximum Tolerance applied to model');
#360=(
NAMED_UNIT(*)
SI_UNIT($,.STERADIAN.)
SOLID_ANGLE_UNIT()
);
#361=(
NAMED_UNIT(*)
PLANE_ANGLE_UNIT()
SI_UNIT($,.RADIAN.)
);
#362=(
LENGTH_UNIT()
NAMED_UNIT(*)
SI_UNIT(.MILLI.,.METRE.)
);
#363=PRODUCT_DEFINITION_SHAPE('','',#370);
#364=PRODUCT_DEFINITION_SHAPE('','',#371);
#365=PRODUCT_DEFINITION_SHAPE(' ','NAUO PRDDFN',#22);
#366=PRODUCT_DEFINITION_SHAPE('','',#372);
#367=PRODUCT_DEFINITION_SHAPE(' ','NAUO PRDDFN',#23);
#368=PRODUCT_DEFINITION_SHAPE('','',#373);
#369=PRODUCT_DEFINITION_SHAPE(' ','NAUO PRDDFN',#24);
#370=PRODUCT_DEFINITION('','',#378,#374);
#371=PRODUCT_DEFINITION('','',#379,#375);
#372=PRODUCT_DEFINITION('','',#380,#376);
#373=PRODUCT_DEFINITION('','',#381,#377);
#374=PRODUCT_DEFINITION_CONTEXT('',#399,'design');
#375=PRODUCT_DEFINITION_CONTEXT('',#399,'design');
#376=PRODUCT_DEFINITION_CONTEXT('',#399,'design');
#377=PRODUCT_DEFINITION_CONTEXT('',#399,'design');
#378=PRODUCT_DEFINITION_FORMATION_WITH_SPECIFIED_SOURCE('','',#386,
 .NOT_KNOWN.);
#379=PRODUCT_DEFINITION_FORMATION_WITH_SPECIFIED_SOURCE('','',#387,
 .NOT_KNOWN.);
#380=PRODUCT_DEFINITION_FORMATION_WITH_SPECIFIED_SOURCE('','',#388,
 .NOT_KNOWN.);
#381=PRODUCT_DEFINITION_FORMATION_WITH_SPECIFIED_SOURCE('','',#389,
 .NOT_KNOWN.);
#382=PRODUCT_RELATED_PRODUCT_CATEGORY('','',(#386));
#383=PRODUCT_RELATED_PRODUCT_CATEGORY('','',(#387));
#384=PRODUCT_RELATED_PRODUCT_CATEGORY('','',(#388));
#385=PRODUCT_RELATED_PRODUCT_CATEGORY('','',(#389));
#386=PRODUCT('401 1.800','401 1.800','401 1.800',(#394));
#387=PRODUCT('401 1.800_PART1','401 1.800_PART1','401 1.800_PART1',(#395));
#388=PRODUCT('401 1.800_PART2','401 1.800_PART2','401 1.800_PART2',(#396));
#389=PRODUCT('401 1.800_PART3','401 1.800_PART3','401 1.800_PART3',(#397));
#390=PRODUCT_CATEGORY('','');
#391=PRODUCT_CATEGORY('','');
#392=PRODUCT_CATEGORY('','');
#393=PRODUCT_CATEGORY('','');
#394=PRODUCT_CONTEXT('',#399,'mechanical');
#395=PRODUCT_CONTEXT('',#399,'mechanical');
#396=PRODUCT_CONTEXT('',#399,'mechanical');
#397=PRODUCT_CONTEXT('',#399,'mechanical');
#398=APPLICATION_PROTOCOL_DEFINITION('international standard',
'automotive_design',2010,#399);
#399=APPLICATION_CONTEXT(
'core data for automotive mechanical design processes');
ENDSEC;
END-ISO-10303-21;
